<?xml version="1.0"?>
<svg xmlns="http://www.w3.org/2000/svg" xmlns:xlink="http://www.w3.org/1999/xlink" xmlns:svgjs="http://svgjs.com/svgjs" version="1.1" width="512" height="512" x="0" y="0" viewBox="0 0 512.045 512.045" style="enable-background:new 0 0 512 512" xml:space="preserve" class=""><g><g xmlns="http://www.w3.org/2000/svg"><path d="m512.004 133.933c-1.125-73.612-60.627-132.984-134.308-133.873-100.458-1.167-167.273 103.694-124.805 193.795l-12.246 50.656c-3.787 15.647 9.857 30.272 26.224 27.137l55.492-10.604c90.167 38.83 191.145-28.805 189.643-127.111z" fill="#f7e700" data-original="#f1cc76" style=""/><path d="m351.94 269.939c27.74-4.93 53.25-18.43 73.42-39.16 52.654-54.142 50.917-138.969-1.32-191.04-19.86-19.8-44.85-32.75-71.95-37.57 82.659-14.814 158.641 48.124 159.91 131.76 1.307 84.599-75.307 151.191-160.06 136.01z" fill="#f7e700" data-original="#ebb15d" style="" class=""/><path d="m163.29 190.389-16.97 16.97-96.17-96.17 16.97-16.97c9.37-9.37 24.57-9.37 33.94 0l62.23 62.23c9.37 9.37 9.37 24.57 0 33.94z" fill="#f7e700" data-original="#595965" style="" class=""/><path d="m400.88 461.919-29.25 29.24c-10.05 10.05-24.33 14.63-38.34 12.29-29.721-4.91-55.5-14.885-80.02-32.87-32.556-23.858-64.249-50.84-94.56-81.13-42.493-42.493-75.166-73.29-117.22-130.65-17.959-24.485-27.96-50.295-32.87-80.02-2.34-14.01 2.24-28.29 12.29-38.34l29.24-29.25 96.17 96.17-22.63 22.63 9.25 15.41c24.258 40.426 56.022 76.766 94.39 106.72 21.51 16.793 37.201 25.726 54.75 36.26l22.63-22.63z" fill="#f7e700" data-original="#e48c9b" style="" class=""/><path d="m417.85 444.949-16.97 16.97-96.17-96.17 16.97-16.97c9.37-9.37 24.57-9.37 33.94 0l62.23 62.23c9.37 9.37 9.37 24.57 0 33.94z" fill="#f7e700" data-original="#595965" style="" class=""/><path d="m400.88 461.919-29.25 29.24c-10.05 10.05-24.33 14.63-38.34 12.29-29.721-4.91-55.5-14.885-80.02-32.87-57.236-41.944-89.887-76.457-126.56-113.13 28.899 28.88 60.407 56.101 94.56 81.13 24.586 18.032 50.386 27.974 80.02 32.87 14.01 2.34 28.29-2.24 38.34-12.29l29.25-29.24z" fill="#f7e700" data-original="#cc5b6f" style="" class=""/><path d="m417.85 444.949-16.97 16.97-32-32 16.97-16.97c9.37-9.37 9.37-24.57 0-33.94l32 32c9.37 9.37 9.37 24.57 0 33.94z" fill="#f7e700" data-original="#44454e" style="" class=""/><path d="m440.02 80.049c-4.418 0-8 3.582-8 8v40h-32v-40c0-4.418-3.582-8-8-8s-8 3.582-8 8v48c0 4.418 3.582 8 8 8h40v40c0 4.418 3.582 8 8 8s8-3.582 8-8v-96c0-4.418-3.581-8-8-8z" fill="#000000" data-original="#000000" style="" class=""/><path d="m338.549 151.639 1.746-.581c16.584-5.528 27.726-20.988 27.726-38.469 0-17.522-14.193-32.787-32.615-32.534-17.306.328-31.385 14.681-31.385 31.994 0 4.418 3.582 8 8 8s8-3.582 8-8c0-8.656 7.038-15.833 15.688-15.996 8.938-.22 16.312 7.577 16.312 16.536 0 10.583-6.746 19.942-16.784 23.289l-1.746.581c-17.627 5.876-29.47 22.308-29.47 40.888v6.702c0 4.418 3.582 8 8 8h48c4.418 0 8-3.582 8-8s-3.582-8-8-8h-39.969c.527-11.145 7.827-20.854 18.497-24.41z" fill="#000000" data-original="#000000" style="" class=""/><path d="m512.004 133.933c-1.125-73.612-60.627-132.984-134.308-133.873-100.458-1.167-167.273 103.694-124.805 193.795l-12.246 50.656c-3.787 15.647 9.857 30.272 26.224 27.137l55.492-10.604c90.167 38.83 191.145-28.805 189.643-127.111zm-185.392 111.499c-1.513-.686-3.199-.879-4.803-.57-63.149 12.067-57.825 11.111-59.16 11.184-4.188 0-6.628-3.103-6.628-6.293 0-1.104-.954 3.199 13.096-54.923.443-1.83.225-3.759-.614-5.444-39.669-79.702 19.36-174.365 109-173.327 65.45.792 117.503 52.676 118.503 118.119 1.329 86.972-88.99 147.675-169.394 111.254z" fill="#000000" data-original="#000000" style="" class=""/><path d="m361.279 343.124c-12.503-12.504-32.746-12.51-45.255-.001l-35.182 35.182-10.052-6.032c-53.741-32.245-98.74-77.238-130.994-130.993l-6.032-10.053 35.182-35.182c12.505-12.506 12.507-32.748 0-45.255l-62.226-62.226c-12.478-12.477-32.778-12.474-45.255 0l-46.215 46.215c-11.848 11.849-17.277 28.79-14.522 45.318 5.044 30.254 15.28 57.484 34.308 83.432 41.937 57.184 74.52 88.087 118.014 131.58 29.603 29.603 61.73 57.166 95.491 81.924 23.555 17.273 51.234 28.941 80.047 33.744 4.199.698 7.081 1.268 11.896 1.268 13.676 0 26.99-5.411 36.806-15.227l46.214-46.215c12.505-12.505 12.507-32.748 0-45.255zm-288.5-243.245c6.239-6.238 16.389-6.239 22.628 0l62.225 62.226c6.252 6.251 6.254 16.374 0 22.627l-11.314 11.313-84.853-84.853zm293.197 385.625c-8.203 8.204-19.931 11.96-31.376 10.054-27.841-4.636-52.717-13.916-76.597-31.427-33.106-24.278-64.611-51.307-93.64-80.336-42.44-42.44-74.838-73.021-116.425-129.728-17.088-23.302-26.654-47.967-31.428-76.601-1.907-11.442 1.852-23.171 10.054-31.374l23.587-23.586 84.853 84.853-16.971 16.97c-2.596 2.596-3.092 6.625-1.203 9.773l9.246 15.409c33.594 55.99 80.475 102.876 136.482 136.481l15.409 9.245c3.146 1.888 7.177 1.393 9.772-1.203l16.97-16.971 84.853 84.853zm46.215-46.215-11.314 11.314-84.853-84.852 11.314-11.314c6.251-6.251 16.372-6.254 22.627.001l62.226 62.226c6.252 6.25 6.253 16.372 0 22.625z" fill="#000000" data-original="#000000" style="" class=""/></g></g></svg>
