<svg id="Capa_1" enable-background="new 0 0 512 512" height="512" viewBox="0 0 512 512" width="512" xmlns="http://www.w3.org/2000/svg"><g><g id="Volunteering_9_"><g><path d="m316 240.344-113.027-113.042c-29.262-29.231-29.371-76.714 0-106.055 28.301-28.33 77.739-28.33 106.069 0l6.958 6.959 6.973-6.958c28.301-28.33 77.739-28.33 106.069 0 29.242 29.242 29.357 76.714-.015 106.055z"/></g></g><g><path d="m501.032 275.034c-17.922-17.677-47.721-15.018-65.577 2.726l-71.573 70.968c-19.791 19.812-37.375 19.877-52.866 22.061h-124.805v-30h124.805c5.067-.622 9.728-.238 17.695-3.702v-56.298h-177.598c-19.922 0-39.027 7.914-53.113 22l-34.36 34.36 111.2 111.222 17.582-17.582h118.594c35.918 0 69.741-14.019 95.142-39.434 30.835-30.495 76.354-75.868 105.84-105.359-1.122-1.12 4.059 4.061-10.966-10.962z"/><path d="m42.429 358.36-42.429 42.429 111.211 111.211 42.418-42.418z"/></g></g></svg>