<svg height="512pt" viewBox="0 0 512 512" width="512pt" xmlns="http://www.w3.org/2000/svg"><path d="m507.605469 400.535156-36.214844-35.214844-.046875-1.273437c-1.679688-48.917969-19.40625-95.273437-50.34375-132.589844v24.542969c0 24.8125-20.1875 45-45 45-10.914062 0-21.167969-2.929688-30-8.058594v3.070313c26.582031 24.707031 29.453125 73.867187-1.203125 104.523437l-24.828125 24.859375c-10.042969 10.035157-20.882812 19.058594-32.296875 27.15625 23.769531 9.464844 48.894531 15.207031 74.746094 15.9375l38.117187 39.117188c2.929688 2.929687 6.765625 4.394531 10.605469 4.394531 3.835937 0 7.675781-1.464844 10.605469-4.394531l85.855468-85.859375c5.863282-5.859375 5.863282-15.351563.003907-21.210938zm0 0"/><path d="m317.863281 385.054688c-7.792969 3.988281-16.273437 5.945312-24.363281 5.945312-14.679688 0-27.964844-6.050781-37.5-15.789062-9.535156 9.738281-22.824219 15.789062-37.5 15.789062-28.945312 0-52.5-23.554688-52.5-52.5v-12.566406c-6.828125 3.25-14.457031 5.066406-22.5 5.066406-28.945312 0-52.5-23.554688-52.5-52.5v-46.128906c0-.324219.03125-.625.03125-.949219-30.957031 37.320313-48.699219 83.691406-50.378906 132.625l-36.257813 36.488281c-5.859375 5.859375-5.859375 15.351563 0 21.210938l85.859375 85.859375c5.855469 5.859375 15.351563 5.859375 21.210938 0l38.113281-39.117188c56.351563-1.582031 109.117187-24.269531 149.164063-64.304687zm0 0"/><path d="m143.5 301c12.425781 0 22.5-10.074219 22.5-22.5v-54.140625c0-8.15625 6.609375-14.765625 14.765625-14.765625h.46875c8.15625 0 14.765625 6.609375 14.765625 14.765625v114.140625c0 12.425781 10.074219 22.5 22.5 22.5s22.5-10.074219 22.5-22.5v-113.90625c0-18.152344 30-18.226562 30 0v113.90625c0 12.425781 10.074219 22.5 22.5 22.5 13.253906 0 22.5-8.070312 22.5-30 0-51.757812 0-88.285156 0-136.40625 0-18.152344 30-18.226562 30 0v46.40625c0 16.566406 13.425781 29.996094 30 30 8.292969 0 15-6.710938 15-15v-39.257812c0-55.882813-20.992188-109.144532-59.121094-150.015626l-.878906-51.726562c0-8.289062-6.710938-15-15-15h-120c-8.292969 0-15 6.710938-15 15v54.90625c-45.175781 47.773438-60 101.628906-60 162.472656v46.121094c0 12.425781 10.074219 22.5 22.5 22.5zm0 0"/></svg>