<?xml version="1.0" encoding="UTF-8" standalone="no"?>
<!DOCTYPE svg PUBLIC "-//W3C//DTD SVG 1.1//EN" "http://www.w3.org/Graphics/SVG/1.1/DTD/svg11.dtd">
<svg version="1.1" xmlns="http://www.w3.org/2000/svg" xmlns:xlink="http://www.w3.org/1999/xlink" preserveAspectRatio="xMidYMid meet" viewBox="-0.4999999925494194 -0.000014349818229675293 568.6971993716238 963.0000142902136" width="564.7" height="959"><defs><path d="M404.5 16.9C401.5 26.3 393.9 37.3 382.6 48.5C373.9 57 363.5 68.9 359.2 75C354.7 81.6 352.7 89.6 353 100.4C353.7 124.7 353.8 123.9 349.8 132C344.7 142.6 342.8 144.8 331 154.1C306.2 173.6 275.8 203.1 258.5 224.5C246.9 238.8 247.6 238.3 248.4 233C249.4 226.4 253 219.5 259.9 211C271.9 196.3 276.9 181.1 275 165.2C272.6 145.7 266.4 124.3 253.5 90.9C249.5 80.6 247.2 76.9 249.6 84.6C250.4 87.3 251.4 93.3 251.7 98C252.2 105.2 251.8 108 249.6 116.5C248.1 122 245.2 131 243.1 136.5C237.9 149.8 233.3 164.2 232.2 171C230.5 180.3 233.4 192.7 239.7 202.9C246 213.4 247.4 222.8 244.5 236.5C243.2 242.6 241.7 245.3 232.1 259.5C214 286.2 198.7 314.3 187 342.8C181.8 355.2 182.1 355.1 177.4 346C177.21 345.63 176.24 343.8 174.5 340.5C174.5 327.6 174.5 320.43 174.5 319C174.5 298 174.4 297.3 171.7 289.5C170.1 285.1 168 280.1 166.9 278.3C164.4 274.3 152.4 263.1 144.5 257.5C138 252.8 93.7 230 91.2 230C90.3 230 92.1 231.7 95 233.7C106.8 242.1 111.8 252.1 118.5 281C120.3 289 123.5 300.6 125.5 306.9C128.8 316.9 129.7 318.8 133.9 323C138.5 327.6 148.1 333 151.8 333C157 333 163.9 336.2 167.8 340.4C172.5 345.6 174.1 348.3 176.9 356.8C177.04 357.23 177.74 359.36 179 363.2C177.14 368.66 176.11 371.69 175.9 372.3C160.2 419.9 153 463.8 152.6 512.9C152.6 525 152.2 534.6 151.9 534.4C150 533.3 146.6 523.3 143.9 510.7C142.2 502.9 139.7 493.3 138.3 489.5C135.2 481 127.8 468.1 123.1 463.3C119.1 459.2 104.1 449.1 96 445C85.8 440 36 423.2 36 424.9C36 425.2 38.7 426.7 41.9 428.2C54.7 434.2 64 446.5 78.3 476.4C88.3 497.2 96.9 511.7 101.6 515.9C108.5 522 116.1 525.1 125.9 526C136.4 526.8 141 529 147.6 536.3C147.93 536.66 149.6 538.46 152.6 541.7C153.32 550.88 153.72 555.98 153.8 557C158 607.6 169.2 654 188.6 700.7C191.7 708.3 195.1 716.2 196.2 718.2C197.2 720.3 197.6 722 197.1 722C196.5 722 193.2 719.2 189.7 715.7C185.1 711.3 180.9 705.5 175 695.7C170.5 688.1 164.2 678.5 160.9 674.4C154.1 665.9 140.2 654.3 131.5 650C125.7 647.1 101.7 640.2 90.2 638C81.1 636.3 29.8 633 14.5 633.1C13.57 633.11 8.9 633.14 0.5 633.2C6.8 634.52 10.3 635.25 11 635.4C16.8 636.6 24.9 639 29 640.8C38.8 645 54.7 657.5 73.8 676.1C98.7 700.4 113.6 712.1 123.5 715.3C136.5 719.4 145.4 719.9 158.9 717.4C169.5 715.4 176 716.5 187.5 722C199.1 727.6 202 730.5 208.6 742.7C229.4 781.9 255.1 816.8 287.3 849.7C288.16 850.58 292.46 854.98 300.2 862.9C296.48 862 294.41 861.5 294 861.4C280.8 858.3 274.9 854.9 259.1 841.1C238.6 823.2 229.3 817.4 211.7 811.4C202.5 808.3 198.7 807.6 190.5 807.2C180.2 806.8 157.2 809.4 142 812.6C125.1 816.3 38 848.4 38 851C38 851.4 40.6 851 43.8 850C53 847.1 65.4 845.7 75.4 846.3C87.7 847.1 111.6 855 134.9 866C152.3 874.2 179.5 884.8 190.1 887.5C201 890.4 217.1 888.9 230.2 884C233.3 882.9 240.5 878.9 246.3 875.1C252.2 871.3 259 867.7 261.5 867.1C273.7 864 287.1 864.9 302.1 869.6C308.9 871.7 311.2 873.2 322.8 882.8C350.3 905.6 379.1 924.6 408.9 939.9C423.2 947.2 451.1 960 452.6 960C452.8 960 453 957.4 453 954.1C453 948.4 452.9 948.2 449.8 946.9C423.2 936.3 388 917 361.3 898.4C354.3 893.5 335.6 879.4 332.1 876.4C330.9 875.3 329.1 861.9 329 853.5C329 837.8 331 832.2 341.4 818.6C352.2 804.5 357.7 787.7 356.7 771.7C356.1 760.2 348.5 735 337.5 707.7C330.3 689.7 324.1 669.3 321.8 655.9C319.9 644.7 322.8 625.3 328.5 611.8C328.9 610.8 328.8 610 328.3 610C325.6 610 287.2 698.2 283.2 713.5C279.6 727.1 275 753.9 275 761C275 769.3 279.5 787.8 283.8 797.3C288.5 807.6 293 814.5 305.1 830.2C311.2 838 317 846 318 848C320.4 852.8 324.2 865.5 323.8 867.5C323.4 869.7 301.9 849.8 286.3 832.8C259.5 803.5 236.2 771.1 220.3 741C219.97 740.37 218.3 737.2 215.3 731.5C215.78 726.16 216.05 723.19 216.1 722.6C217.4 708.6 221.7 697.3 228.7 688.9C230.2 687.2 234.6 683.7 238.5 681.3C247.1 675.8 251.9 671.3 257.5 663.5C268.1 648.6 269 644.1 269.5 600C270 564.9 271.2 547.5 273.7 540C276.5 531.6 281.9 521.5 286.9 515.2C289.7 511.8 291.6 509 291.2 509C289.2 509 238.7 561.9 228.7 574.4C223.4 581.3 207.5 608.1 205.1 614.4C203.1 619.8 201 634.1 201 642.6C201 650.8 203.6 663.6 208.5 679.3C212.5 692.4 213 694.8 212.9 703.2C212.9 708.3 212.3 714.7 211.6 717.5C211.52 717.83 211.12 719.5 210.4 722.5C209.02 719.5 208.25 717.83 208.1 717.5C194.3 687.7 185.5 663.4 177.6 633C169.8 602.6 164 561.5 164 535.1C164 525.2 164.2 524.4 167 520C170.9 514 179.4 505.8 184.8 503.1C187 502 193.4 500.3 198.9 499.5C216.7 496.8 229.4 489.9 236.6 478.8C241.8 471 250.7 453.3 257 438.3C268.1 412 278.5 399 294.5 391C298.9 388.8 301.8 387 300.9 387C297.4 387 248.1 404.9 229.5 413C223.1 415.7 200.8 429.8 195.4 434.4C193.1 436.4 189.1 441.4 186.4 445.6C179.6 456.6 176.4 466.8 174.5 483.5C173.7 491.2 172.7 498.8 172.4 500.5C171.6 504.3 167.9 511.7 165.1 515C164.96 515.17 164.26 516 163 517.5C163.3 514.2 163.47 512.37 163.5 512C163.7 509 164.2 500.1 164.5 492.4C166 453.4 175.5 404.9 189.4 365.6C191.9 358.8 194.5 351.9 195.4 350.3C197.8 345.5 209.4 335.4 216.2 332.1C223.3 328.6 226.9 328.3 242.5 329.5C253 330.3 262.4 328.8 269.5 325.2C274.2 322.9 289.3 307.7 300.5 294C306.2 287.1 314.6 277.8 319.3 273.2C328.8 264 336.3 259.9 348.4 257.3C352.3 256.5 355.7 255.6 356 255.3C357.8 253.4 287 259.8 277.4 262.5C266.7 265.5 252.6 270.2 248.8 272.1C243.2 275 232.6 285.4 228.1 292.5C225.9 296 221.9 304.2 219.4 310.7C216.8 317.2 213.4 324.2 211.9 326.3C209.2 330.1 201 337.8 201 336.5C201 336.2 203.4 330.5 206.4 324C216.3 302 234.6 270.7 249.8 249.5C257.6 238.8 274 218.2 276.6 215.9C279.8 213.1 288.1 210.9 297.5 210.3C305.8 209.8 307.2 210 315.8 212.9C326.6 216.6 338.7 218.2 347.5 216.9C355.2 215.8 369.2 210 388.5 200C396.8 195.7 408 190.5 413.5 188.4C423.2 184.7 423.8 184.6 437.2 184.6C444.7 184.5 450.7 184.3 450.5 184.1C449.8 183.5 430.8 180 407.6 176.3C386.1 172.8 383 172.5 363 172.6C342 172.6 341.3 172.6 334.7 175.3C322.1 180.3 315.8 184.3 305.4 194.1C295.5 203.6 293.3 205.2 285.7 208.4C285.44 208.51 284.14 209.04 281.8 210C284.8 206.52 286.47 204.59 286.8 204.2C304 184.3 339.3 154 367 135.1C380.7 125.8 384.8 124.5 399 124.6C410.5 124.7 414.8 125.9 423.4 131.1C435.2 138.4 450.9 142.1 461.8 140.1C471.3 138.4 490.2 133.5 498.9 130.6C503 129.2 512.1 126.8 519.3 125.4C529.9 123.3 533.7 122.9 539.8 123.5C546.7 124.1 554.4 125.7 559.5 127.6C560.9 128.1 561.2 128 560.5 127.3C559.1 125.9 534.5 116.6 511 108.6C489.8 101.5 468.6 96.9 456.5 96.8C447.9 96.8 436.7 99.1 429.4 102.4C426.4 103.8 419.1 108 413.2 111.9C407.3 115.7 401.6 119.1 400.5 119.4C396 120.7 389.1 121.7 389.6 120.9C391.1 118.4 427.6 99.6 441.5 94.2C442.1 93.97 445.1 92.8 450.5 90.7C459.92 90.82 465.15 90.89 466.2 90.9C482.7 91.1 485.9 90.6 497.4 86.3C503.6 84 505.7 82.4 516.8 71.6C529.3 59.4 540.7 44.9 558.8 17.7C565.9 7.2 567.6 2.9 561.3 11.4C559.6 13.8 555.1 18 551.4 20.8C546 24.8 542.3 26.5 532.1 29.8C525.2 32.1 515.2 34.9 510 36.1C497.7 39 484.8 43.3 479.5 46.4C474.5 49.4 468.4 56.4 460.7 68C452.4 80.7 445.4 85.8 417.4 99.8C395.8 110.6 378.6 120.5 362.3 131.6C355.5 136.1 350 139.6 350 139.3C350 139 351.5 136.8 353.4 134.5C355.8 131.6 359.9 128.7 367 125C379.8 118.3 384.7 114.5 390.5 107C396.5 99.2 398.3 94.9 401.9 80.1C405 67.5 406.5 54 407.5 30C407.8 22.6 408.3 13 408.6 8.7C409 3.6 408.8 1 408.1 1C407.5 1 407 2.8 407 4.9C407 7.1 405.9 12.5 404.5 16.9Z" id="b2z2brxXGL"></path></defs><g><g><use xlink:href="#b2z2brxXGL" opacity="1" fill="#f7e700" fill-opacity="1"></use><g><use xlink:href="#b2z2brxXGL" opacity="1" fill-opacity="0" stroke="#000000" stroke-width="1" stroke-opacity="0"></use></g></g></g></svg>