<svg width="2317" height="2122" viewBox="0 0 2317 2122" fill="none" xmlns="http://www.w3.org/2000/svg">
<g filter="url(#filter0_d)">
<path d="M1264 45H1102V1728H1264V45Z" fill="white"/>
<path d="M1264 45H1102V1728H1264V45Z" stroke="white" stroke-miterlimit="10"/>
</g>
<g filter="url(#filter1_d)">
<path d="M2311 2102H4V2114H2311V2102Z" fill="white"/>
</g>
<path d="M1074.82 799.56L1070.05 787.95L914.89 781.38L810.22 776.97C843.16 774.45 876.1 771.39 909.22 769.14C939.91 766.98 934.6 767.25 956.38 765.81C985.72 763.83 1025.95 761.4 1074.91 759.24L1073.56 703.62V637.38L1035.31 617.13L1073.56 594.27V523.62C1073.51 516.106 1070.66 508.882 1065.55 503.37C1063.05 500.748 1060.05 498.656 1056.73 497.218C1053.4 495.78 1049.82 495.026 1046.2 495H351.04C348.452 494.999 345.877 495.362 343.39 496.08C338.26 497.7 333.76 499.23 329.26 501.03C324.76 502.83 323.23 503.55 320.26 504.9C320.26 504.9 315.22 507.33 310.18 510.21C289.93 522 272.74 531.99 273.73 538.47C273.826 538.965 273.977 539.448 274.18 539.91C279.31 548.46 351.13 554.76 341.59 556.2C323.59 558.9 233.59 566.01 232.42 566.64L228.64 569.16L220.81 574.38C215.59 577.8 208.84 582.12 200.74 587.16C195.25 590.58 189.58 593.82 183.91 596.79C154.12 612.36 139.36 621.45 139.81 626.4C141.43 644.4 347.44 636.93 347.53 639.81C347.62 642.69 300.82 643.86 226.12 651.15C185.26 655.11 135.4 660.6 122.17 662.13C119.847 662.348 117.617 663.153 115.69 664.47L64.48 696.51L58.27 701.73C32.98 730.35 13.7199 751.05 14.3499 751.59C23.4451 742.395 32.0091 732.689 40 722.52C50.71 710.64 61.0601 699.03 60.8801 698.85C60.7001 698.67 60.8799 698.85 60.4299 698.85C56.6499 702.18 17.7699 747.27 14.3499 751.32C10.8399 762.93 7.42 774.54 4 786.15C6.25 796.59 8.50009 806.94 10.8401 817.29C33.7001 848.49 56.5899 879.66 79.5099 910.8C199.93 934.29 229.63 943.2 229.18 946.8C228.73 950.4 218.74 948.06 191.29 951.57C165.37 954.9 152.41 956.61 151.78 959.76C149.89 968.76 210.37 986.22 312.25 1028.7C327.82 1035.27 340.6 1040.76 349.06 1044.45H349.96H1045.84C1049.43 1045.89 1053.31 1046.46 1057.16 1046.1C1061.01 1045.74 1064.72 1044.46 1067.98 1042.38C1075.81 1035.63 1072.03 1022.94 1070.32 986.76C1069.06 958.32 1070.32 934.47 1068.97 934.47C1068.61 935.198 1068.43 935.999 1068.43 936.81C1027.48 931.32 975.19 922.95 975.46 914.94C975.46 908.82 1020.46 905.31 1054.12 896.94L1074.55 891.72L1074.82 799.56Z" fill="white" stroke="white" stroke-miterlimit="10"/>
<path d="M1287.58 462.24L1292.08 473.94L1440.4 480.78L1540.48 485.37C1508.98 487.89 1477.48 490.95 1445.98 493.29C1416.55 495.36 1421.59 495.18 1400.98 496.62C1372.9 498.6 1334.47 501.03 1287.67 503.19L1288.93 559.53V626.58L1325.47 647.19L1288.84 670.23V742.23C1288.84 749.768 1291.55 757.053 1296.49 762.75C1298.74 765.328 1301.5 767.412 1304.6 768.868C1307.7 770.324 1311.07 771.122 1314.49 771.21L1979.14 771.66C1981.58 771.661 1984.01 771.297 1986.34 770.58C1991.29 768.96 1995.34 767.43 1999.93 765.54C2004.52 763.65 2005.6 763.02 2008.3 761.67C2008.3 761.67 2013.16 759.24 2017.93 756.27C2037.37 744.39 2053.93 734.31 2052.85 727.65C2052.74 727.187 2052.59 726.736 2052.4 726.3C2047.54 717.3 1978.87 711.18 1987.96 709.74C2005.33 706.95 2091.37 699.84 2092.36 699.21L2095.96 696.6L2103.52 691.38C2108.47 687.87 2114.95 683.55 2122.6 678.42C2127.91 674.91 2133.31 671.67 2138.8 668.61C2167.24 652.86 2181.37 643.68 2180.92 638.64C2179.39 620.64 1982.47 627.84 1982.38 624.96C1982.29 622.08 2027.38 620.82 2098.39 613.53C2137.54 609.57 2185.15 603.99 2197.84 602.55C2200.08 602.268 2202.21 601.433 2204.05 600.12L2253.01 567.72L2258.95 562.41C2283.16 533.43 2301.61 512.46 2301.07 511.92C2292.23 521.172 2284.03 531.003 2276.5 541.35C2266.15 553.41 2256.25 565.11 2256.43 565.38C2260.03 562.05 2297.2 516.42 2300.62 512.28C2303.86 500.49 2307.19 488.7 2310.52 476.91C2308.36 466.47 2306.11 455.94 2303.95 445.41L2239.24 349.74C2124.13 325.89 2095.78 316.8 2096.23 313.74C2096.23 311.85 2106.22 312.48 2132.23 308.97C2158.24 305.46 2169.4 303.93 2170.03 300.78C2171.83 291.24 2113.96 273.78 2017.03 230.76C2002.09 224.1 1990.03 218.52 1981.75 214.74H1980.94L1315.66 214.11C1312.23 212.646 1308.49 212.068 1304.78 212.43C1301.06 212.791 1297.5 214.081 1294.42 216.18C1286.95 223.02 1290.55 235.89 1292.08 272.52C1293.34 301.32 1292.08 325.53 1293.34 325.53C1294.6 325.53 1293.34 324.27 1293.97 323.1C1333.03 328.68 1383.07 337.23 1382.8 345.42C1382.8 351.63 1339.69 355.14 1307.56 363.42L1288.03 368.73L1287.58 462.24Z" stroke="white" stroke-width="11" stroke-miterlimit="10"/>
<path fill-rule="evenodd" clip-rule="evenodd" d="M1842.18 565.732C1746.72 508.47 1583.22 403.264 1300 216H1304.01C1587.25 403.276 1773.06 485.205 1868.33 542.354C1920.98 569.491 1969.24 605.673 1986.79 614.718C2004.34 623.764 1994.8 622.726 1999.95 623.764C2005.11 624.803 1974.85 630.061 1976.5 629.38L1999.95 623.764C2011.48 633.133 2000.29 634.17 1986.79 631.452C1980.76 630.238 1982.18 635.957 1972 631.452C1951.62 622.436 1889.88 594.347 1842.18 565.732Z" fill="white"/>
<path d="M1999.95 623.764C1994.8 622.726 2004.34 623.764 1986.79 614.718C1969.24 605.673 1920.98 569.491 1868.33 542.354C1773.06 485.205 1587.25 403.276 1304.01 216H1300C1583.22 403.264 1746.72 508.47 1842.18 565.732C1889.88 594.347 1951.62 622.436 1972 631.452C1982.18 635.957 1980.76 630.238 1986.79 631.452C2000.29 634.17 2011.48 633.133 1999.95 623.764ZM1999.95 623.764C2005.11 624.803 1974.85 630.061 1976.5 629.38L1999.95 623.764Z" stroke="white" stroke-width="0.58"/>
<path d="M830.747 1817.4L832.747 1787H970.747L1014.35 1782.2L1010.35 1817.4L965.947 1815H939.947L936.347 1866.2V1950.2L941.947 2029H897.147L902.747 1949.8V1865.8L898.747 1815H874.747L830.747 1817.4ZM1022.93 1817.4L1024.93 1787H1162.93L1206.53 1782.2L1202.53 1817.4L1158.13 1815H1132.13L1128.53 1866.2V1950.2L1134.13 2029H1089.33L1094.93 1949.8V1865.8L1090.93 1815H1066.93L1022.93 1817.4ZM1300.32 2031L1219.12 1788.2L1264.72 1784.6L1271.12 1835.4L1314.72 1984.2L1359.92 1834.6L1345.12 1788.2L1390.72 1784.6L1397.12 1835.4L1436.72 1983.8L1485.52 1837L1490.32 1787H1538.72L1448.72 2028.6L1420.32 2031L1375.52 1887L1324.72 2028.6L1300.32 2031Z" fill="white"/>
<path d="M830.747 1817.4L829.75 1817.33L829.676 1818.46L830.802 1818.4L830.747 1817.4ZM832.747 1787V1786H831.811L831.75 1786.93L832.747 1787ZM970.747 1787V1788H970.802L970.857 1787.99L970.747 1787ZM1014.35 1782.2L1015.34 1782.31L1015.48 1781.07L1014.24 1781.21L1014.35 1782.2ZM1010.35 1817.4L1010.29 1818.4L1011.23 1818.45L1011.34 1817.51L1010.35 1817.4ZM965.947 1815L966.001 1814L965.974 1814H965.947V1815ZM939.947 1815V1814H939.015L938.95 1814.93L939.947 1815ZM936.347 1866.2L935.35 1866.13L935.347 1866.16V1866.2H936.347ZM936.347 1950.2H935.347V1950.24L935.35 1950.27L936.347 1950.2ZM941.947 2029V2030H943.021L942.945 2028.93L941.947 2029ZM897.147 2029L896.15 2028.93L896.074 2030H897.147V2029ZM902.747 1949.8L903.745 1949.87L903.747 1949.84V1949.8H902.747ZM902.747 1865.8H903.747V1865.76L903.744 1865.72L902.747 1865.8ZM898.747 1815L899.744 1814.92L899.672 1814H898.747V1815ZM874.747 1815V1814H874.72L874.693 1814L874.747 1815ZM831.745 1817.47L833.745 1787.07L831.75 1786.93L829.75 1817.33L831.745 1817.47ZM832.747 1788H970.747V1786H832.747V1788ZM970.857 1787.99L1014.46 1783.19L1014.24 1781.21L970.638 1786.01L970.857 1787.99ZM1013.35 1782.09L1009.35 1817.29L1011.34 1817.51L1015.34 1782.31L1013.35 1782.09ZM1010.4 1816.4L966.001 1814L965.893 1816L1010.29 1818.4L1010.4 1816.4ZM965.947 1814H939.947V1816H965.947V1814ZM938.95 1814.93L935.35 1866.13L937.345 1866.27L940.945 1815.07L938.95 1814.93ZM935.347 1866.2V1950.2H937.347V1866.2H935.347ZM935.35 1950.27L940.95 2029.07L942.945 2028.93L937.345 1950.13L935.35 1950.27ZM941.947 2028H897.147V2030H941.947V2028ZM898.145 2029.07L903.745 1949.87L901.75 1949.73L896.15 2028.93L898.145 2029.07ZM903.747 1949.8V1865.8H901.747V1949.8H903.747ZM903.744 1865.72L899.744 1814.92L897.751 1815.08L901.751 1865.88L903.744 1865.72ZM898.747 1814H874.747V1816H898.747V1814ZM874.693 1814L830.693 1816.4L830.802 1818.4L874.802 1816L874.693 1814ZM1022.93 1817.4L1021.94 1817.33L1021.86 1818.46L1022.99 1818.4L1022.93 1817.4ZM1024.93 1787V1786H1024L1023.94 1786.93L1024.93 1787ZM1162.93 1787V1788H1162.99L1163.04 1787.99L1162.93 1787ZM1206.53 1782.2L1207.53 1782.31L1207.67 1781.07L1206.43 1781.21L1206.53 1782.2ZM1202.53 1817.4L1202.48 1818.4L1203.42 1818.45L1203.53 1817.51L1202.53 1817.4ZM1158.13 1815L1158.19 1814L1158.16 1814H1158.13V1815ZM1132.13 1815V1814H1131.2L1131.14 1814.93L1132.13 1815ZM1128.53 1866.2L1127.54 1866.13L1127.53 1866.16V1866.2H1128.53ZM1128.53 1950.2H1127.53V1950.24L1127.54 1950.27L1128.53 1950.2ZM1134.13 2029V2030H1135.21L1135.13 2028.93L1134.13 2029ZM1089.33 2029L1088.34 2028.93L1088.26 2030H1089.33V2029ZM1094.93 1949.8L1095.93 1949.87L1095.93 1949.84V1949.8H1094.93ZM1094.93 1865.8H1095.93V1865.76L1095.93 1865.72L1094.93 1865.8ZM1090.93 1815L1091.93 1814.92L1091.86 1814H1090.93V1815ZM1066.93 1815V1814H1066.91L1066.88 1814L1066.93 1815ZM1023.93 1817.47L1025.93 1787.07L1023.94 1786.93L1021.94 1817.33L1023.93 1817.47ZM1024.93 1788H1162.93V1786H1024.93V1788ZM1163.04 1787.99L1206.64 1783.19L1206.43 1781.21L1162.83 1786.01L1163.04 1787.99ZM1205.54 1782.09L1201.54 1817.29L1203.53 1817.51L1207.53 1782.31L1205.54 1782.09ZM1202.59 1816.4L1158.19 1814L1158.08 1816L1202.48 1818.4L1202.59 1816.4ZM1158.13 1814H1132.13V1816H1158.13V1814ZM1131.14 1814.93L1127.54 1866.13L1129.53 1866.27L1133.13 1815.07L1131.14 1814.93ZM1127.53 1866.2V1950.2H1129.53V1866.2H1127.53ZM1127.54 1950.27L1133.14 2029.07L1135.13 2028.93L1129.53 1950.13L1127.54 1950.27ZM1134.13 2028H1089.33V2030H1134.13V2028ZM1090.33 2029.07L1095.93 1949.87L1093.94 1949.73L1088.34 2028.93L1090.33 2029.07ZM1095.93 1949.8V1865.8H1093.93V1949.8H1095.93ZM1095.93 1865.72L1091.93 1814.92L1089.94 1815.08L1093.94 1865.88L1095.93 1865.72ZM1090.93 1814H1066.93V1816H1090.93V1814ZM1066.88 1814L1022.88 1816.4L1022.99 1818.4L1066.99 1816L1066.88 1814ZM1300.32 2031L1299.37 2031.32L1299.63 2032.07L1300.42 2032L1300.32 2031ZM1219.12 1788.2L1219.04 1787.2L1217.77 1787.3L1218.17 1788.52L1219.12 1788.2ZM1264.72 1784.6L1265.71 1784.48L1265.6 1783.53L1264.64 1783.6L1264.72 1784.6ZM1271.12 1835.4L1270.13 1835.52L1270.14 1835.6L1270.16 1835.68L1271.12 1835.4ZM1314.72 1984.2L1313.76 1984.48L1314.71 1987.71L1315.68 1984.49L1314.72 1984.2ZM1359.92 1834.6L1360.88 1834.89L1360.97 1834.59L1360.88 1834.3L1359.92 1834.6ZM1345.12 1788.2L1345.04 1787.2L1343.79 1787.3L1344.17 1788.5L1345.12 1788.2ZM1390.72 1784.6L1391.71 1784.48L1391.6 1783.53L1390.64 1783.6L1390.72 1784.6ZM1397.12 1835.4L1396.13 1835.52L1396.14 1835.59L1396.16 1835.66L1397.12 1835.4ZM1436.72 1983.8L1435.76 1984.06L1436.62 1987.29L1437.67 1984.12L1436.72 1983.8ZM1485.52 1837L1486.47 1837.32L1486.51 1837.21L1486.52 1837.1L1485.52 1837ZM1490.32 1787V1786H1489.41L1489.33 1786.9L1490.32 1787ZM1538.72 1787L1539.66 1787.35L1540.16 1786H1538.72V1787ZM1448.72 2028.6L1448.81 2029.6L1449.44 2029.54L1449.66 2028.95L1448.72 2028.6ZM1420.32 2031L1419.37 2031.3L1419.61 2032.06L1420.41 2032L1420.32 2031ZM1375.52 1887L1376.48 1886.7L1375.59 1883.85L1374.58 1886.66L1375.52 1887ZM1324.72 2028.6L1324.82 2029.6L1325.45 2029.53L1325.66 2028.94L1324.72 2028.6ZM1301.27 2030.68L1220.07 1787.88L1218.17 1788.52L1299.37 2031.32L1301.27 2030.68ZM1219.2 1789.2L1264.8 1785.6L1264.64 1783.6L1219.04 1787.2L1219.2 1789.2ZM1263.73 1784.72L1270.13 1835.52L1272.11 1835.27L1265.71 1784.48L1263.73 1784.72ZM1270.16 1835.68L1313.76 1984.48L1315.68 1983.92L1272.08 1835.12L1270.16 1835.68ZM1315.68 1984.49L1360.88 1834.89L1358.97 1834.31L1313.77 1983.91L1315.68 1984.49ZM1360.88 1834.3L1346.08 1787.9L1344.17 1788.5L1358.97 1834.9L1360.88 1834.3ZM1345.2 1789.2L1390.8 1785.6L1390.64 1783.6L1345.04 1787.2L1345.2 1789.2ZM1389.73 1784.72L1396.13 1835.52L1398.11 1835.27L1391.71 1784.48L1389.73 1784.72ZM1396.16 1835.66L1435.76 1984.06L1437.69 1983.54L1398.09 1835.14L1396.16 1835.66ZM1437.67 1984.12L1486.47 1837.32L1484.57 1836.68L1435.77 1983.48L1437.67 1984.12ZM1486.52 1837.1L1491.32 1787.1L1489.33 1786.9L1484.53 1836.9L1486.52 1837.1ZM1490.32 1788H1538.72V1786H1490.32V1788ZM1537.79 1786.65L1447.79 2028.25L1449.66 2028.95L1539.66 1787.35L1537.79 1786.65ZM1448.64 2027.6L1420.24 2030L1420.41 2032L1448.81 2029.6L1448.64 2027.6ZM1421.28 2030.7L1376.48 1886.7L1374.57 1887.3L1419.37 2031.3L1421.28 2030.7ZM1374.58 1886.66L1323.78 2028.26L1325.66 2028.94L1376.46 1887.34L1374.58 1886.66ZM1324.62 2027.6L1300.22 2030L1300.42 2032L1324.82 2029.6L1324.62 2027.6Z" fill="white"/>
<path d="M1183 108C1232.71 108 1273 83.8234 1273 54C1273 24.1766 1232.71 0 1183 0C1133.29 0 1093 24.1766 1093 54C1093 83.8234 1133.29 108 1183 108Z" fill="white"/>
<defs>
<filter id="filter0_d" x="1097.5" y="44.5" width="171" height="1692" filterUnits="userSpaceOnUse" color-interpolation-filters="sRGB">
<feFlood flood-opacity="0" result="BackgroundImageFix"/>
<feColorMatrix in="SourceAlpha" type="matrix" values="0 0 0 0 0 0 0 0 0 0 0 0 0 0 0 0 0 0 127 0"/>
<feOffset dy="4"/>
<feGaussianBlur stdDeviation="2"/>
<feColorMatrix type="matrix" values="0 0 0 0 0 0 0 0 0 0 0 0 0 0 0 0 0 0 0.25 0"/>
<feBlend mode="normal" in2="BackgroundImageFix" result="effect1_dropShadow"/>
<feBlend mode="normal" in="SourceGraphic" in2="effect1_dropShadow" result="shape"/>
</filter>
<filter id="filter1_d" x="0" y="2102" width="2315" height="20" filterUnits="userSpaceOnUse" color-interpolation-filters="sRGB">
<feFlood flood-opacity="0" result="BackgroundImageFix"/>
<feColorMatrix in="SourceAlpha" type="matrix" values="0 0 0 0 0 0 0 0 0 0 0 0 0 0 0 0 0 0 127 0"/>
<feOffset dy="4"/>
<feGaussianBlur stdDeviation="2"/>
<feColorMatrix type="matrix" values="0 0 0 0 0 0 0 0 0 0 0 0 0 0 0 0 0 0 0.35 0"/>
<feBlend mode="normal" in2="BackgroundImageFix" result="effect1_dropShadow"/>
<feBlend mode="normal" in="SourceGraphic" in2="effect1_dropShadow" result="shape"/>
</filter>
</defs>
</svg>
