<svg id="Layer_1" data-name="Layer 1" xmlns="http://www.w3.org/2000/svg" viewBox="0 0 157 60"><defs><style>.cls-1{fill:#303030;}.cls-2{fill:#ee4036;}.cls-3{fill:none;stroke:#303030;stroke-miterlimit:10;stroke-width:4px;}</style></defs><title>logo</title><path class="cls-1" d="M76,44l.26-16.23A45.3,45.3,0,0,0,76,22.86H74.43q-6.53,0-6.53-4.67a3.24,3.24,0,0,1,.26-1.4h7c-.07-.34-.19-.83-.37-1.47s-.3-1.13-.38-1.45-.19-.74-.29-1.22a13,13,0,0,1-.26-2.7,7.36,7.36,0,0,1,2.8-6.11,11.11,11.11,0,0,1,7.15-2.23,31.86,31.86,0,0,1,9,1.37,36.47,36.47,0,0,1,7.93,3.29,33.64,33.64,0,0,1,5.44,3.84c1.43,1.28,2.15,2.3,2.15,3.08A1.84,1.84,0,0,1,107,14.93,42.85,42.85,0,0,0,96.52,9.54,28.89,28.89,0,0,0,87.6,7.72q-7.51,0-7.52,5.76a14.48,14.48,0,0,0,.37,3.31h3.16q6.52,0,6.53,4.41a3.68,3.68,0,0,1-.36,1.66H82.52a19.86,19.86,0,0,1,.62,5.08L82.88,46c0,2.76.26,4.58.78,5.44a5.77,5.77,0,0,1-2.18.37Q76,51.84,76,44Z"/><path class="cls-1" d="M96.83,26.49l4.56.05c1.31,0,2-.48,2-1.45a2.1,2.1,0,0,0-.47-1.25,3.35,3.35,0,0,0-1.19-1H89.78c-4.36,0-6.53-1.56-6.53-4.67a3.25,3.25,0,0,1,.25-1.4h26q6.52,0,6.53,4.41a3.56,3.56,0,0,1-.37,1.66h-9.43A6.83,6.83,0,0,1,108.75,28a4.24,4.24,0,0,1-1.45,3.27,6.14,6.14,0,0,1-4.2,1.29l-4.62,0q-3.36,0-3.36,2.49a4,4,0,0,0,.46,1.81,11.71,11.71,0,0,1,12,2.21q3.25,3,3.26,6.24a4.69,4.69,0,0,1-1.37,3.48,4.55,4.55,0,0,1-3.27,1.34,5.37,5.37,0,0,1-3.29-1,4.16,4.16,0,0,1-1.66-2.91A5.85,5.85,0,0,0,104.16,45a2.4,2.4,0,0,0,1.06-1.87,1.92,1.92,0,0,0-.7-1.58,3.06,3.06,0,0,0-2-.57,6.73,6.73,0,0,0-4.36,1.63,5.6,5.6,0,0,0,.89,9.15,11.69,11.69,0,0,0,6.58,1.87,14.29,14.29,0,0,0,3-.31A3.71,3.71,0,0,1,109,55a2.12,2.12,0,0,1-1.07,1.71,5.11,5.11,0,0,1-3,.76,15.57,15.57,0,0,1-10.42-3.81,11.56,11.56,0,0,1-4.45-9,7.75,7.75,0,0,1,2.38-5.86,9.64,9.64,0,0,1-2.85-6.48,5.36,5.36,0,0,1,1.81-4.17A7.92,7.92,0,0,1,96.83,26.49Z"/><path class="cls-1" d="M131.61,16.79q6.52,0,6.53,4.41a3.68,3.68,0,0,1-.36,1.66H130a5.55,5.55,0,0,1,1.92,3.86,4.49,4.49,0,0,1-1.45,3.34,10.69,10.69,0,0,1-3.53,2.23L122.77,34a10.84,10.84,0,0,0-3.55,2.28,4.65,4.65,0,0,0-1.45,3.45,3.71,3.71,0,0,0,1.6,3.18,5.81,5.81,0,0,0,3.48,1.17,10.33,10.33,0,0,0,3.26-.47,5.12,5.12,0,0,1-.46-2.3,3.44,3.44,0,0,1,1.11-2.49,3.93,3.93,0,0,1,2.9-1.12,4.17,4.17,0,0,1,3.22,1.69,5.72,5.72,0,0,1,1.42,3.81,5.5,5.5,0,0,1-2.74,5,7.91,7.91,0,0,1,2.38,5.45A5,5,0,0,1,132.72,57a4,4,0,0,1-3.19,1.38,4.73,4.73,0,0,1-4.87-4,5.57,5.57,0,0,0,2.8-1.3,2.91,2.91,0,0,0,1.09-2.2,4.65,4.65,0,0,0-.21-1.69,12.78,12.78,0,0,1-2.12.16,14.89,14.89,0,0,1-9.8-3.81q-4.52-3.81-4.51-8.48a7.74,7.74,0,0,1,1.43-4.71,9.5,9.5,0,0,1,3.47-3,38.2,38.2,0,0,1,4.09-1.79,20.4,20.4,0,0,0,3.48-1.6c1-.57,1.42-1.14,1.42-1.69a2.84,2.84,0,0,0-.36-1.45H113.1q-6.52,0-6.53-4.67a3.24,3.24,0,0,1,.26-1.4Z"/><path class="cls-1" d="M139.59,44l.26-16.8c0-1.07,0-2.5-.1-4.3H138q-6.53,0-6.53-4.67a3.24,3.24,0,0,1,.26-1.4h7.47q-1.35-9.37-6.43-9.38a3.6,3.6,0,0,0-2.88,1.25,4.27,4.27,0,0,0-1.06,2.87,5.33,5.33,0,0,0,.83,2.93,2.83,2.83,0,0,1-1.61.42,4.36,4.36,0,0,1-3.63-2A7.89,7.89,0,0,1,123,8.14a6.15,6.15,0,0,1,2-4.64,7,7,0,0,1,5-1.89,12,12,0,0,1,9,4.27,28.21,28.21,0,0,1,6,10.91h2.18q6.53,0,6.53,4.41a3.68,3.68,0,0,1-.36,1.66h-7a34.42,34.42,0,0,1,.36,5.13l-.26,18c0,2.76.26,4.58.78,5.44a5.77,5.77,0,0,1-2.18.37Q139.59,51.84,139.59,44Z"/><path class="cls-1" d="M113.93,9.05a2.55,2.55,0,0,1-.68,1.86,2.49,2.49,0,0,1-1.89.7,3.17,3.17,0,0,1-2.26-1,3.1,3.1,0,0,1-1-2.21,2.41,2.41,0,0,1,2.56-2.56,3.15,3.15,0,0,1,2.23,1A3.06,3.06,0,0,1,113.93,9.05Z"/><path class="cls-2" d="M13.33,34.29l-9.79-33h8.1l5.92,22.47L23.48,1.32h7.4l-9.8,33V50.63H13.33Z"/><path class="cls-2" d="M43.91.75c7.54,0,11.41,4.51,11.41,12.4V14.7H48v-2c0-3.52-1.41-4.86-3.87-4.86s-3.88,1.34-3.88,4.86c0,10.15,15.15,12.05,15.15,26.14,0,7.89-3.94,12.4-11.55,12.4S32.28,46.69,32.28,38.8v-3h7.33v3.52c0,3.52,1.55,4.79,4,4.79s4-1.27,4-4.79c0-10.14-15.15-12-15.15-26.14C32.49,5.26,36.37.75,43.91.75Z"/><line class="cls-3" x1="62.66" y1="2.25" x2="62.66" y2="52.32"/></svg>