<svg width="12" height="12" viewBox="0 0 12 12" fill="none" xmlns="http://www.w3.org/2000/svg">
<g clip-path="url(#clip0_5324_2518)">
<path d="M2.70001 8.59998V5.09998H3.70001V8.59998H2.70001ZM5.70001 8.59998V5.09998H6.70001V8.59998H5.70001ZM1.20001 4.09998V3.09998L6.20001 0.599976L11.2 3.09998V4.09998H1.20001ZM3.43751 3.09998H8.96251L6.20001 1.72498L3.43751 3.09998ZM1.20001 10.6V9.59998H7.22501C7.24168 9.77498 7.26251 9.94373 7.28751 10.1062C7.31251 10.2687 7.35001 10.4333 7.40001 10.6H1.20001ZM8.70001 6.72498V5.09998H9.70001V6.22498L8.70001 6.72498ZM10.2 12.1C9.62501 11.9583 9.14793 11.6271 8.76876 11.1062C8.3896 10.5854 8.20001 10.0083 8.20001 9.37498V8.09998L10.2 7.09998L12.2 8.09998V9.37498C12.2 10.0083 12.0104 10.5854 11.6313 11.1062C11.2521 11.6271 10.775 11.9583 10.2 12.1ZM9.83751 10.6L11.575 8.87498L11.05 8.34998L9.83751 9.53748L9.35001 9.04998L8.82501 9.58748L9.83751 10.6Z" fill="#6E757A"/>
</g>
<defs>
<clipPath id="clip0_5324_2518">
<rect width="12" height="12" fill="white"/>
</clipPath>
</defs>
</svg>
