<svg width="20" height="20" viewBox="0 0 20 20" fill="none" xmlns="http://www.w3.org/2000/svg">
<rect width="20" height="20" rx="10" fill="#FBFBFB"/>
<path d="M11.5909 10.5625C11.1364 10.5625 10.75 10.3984 10.4318 10.0703C10.1136 9.74219 9.95455 9.34375 9.95455 8.875C9.95455 8.40625 10.1136 8.00781 10.4318 7.67969C10.75 7.35156 11.1364 7.1875 11.5909 7.1875C12.0455 7.1875 12.4318 7.35156 12.75 7.67969C13.0682 8.00781 13.2273 8.40625 13.2273 8.875C13.2273 9.34375 13.0682 9.74219 12.75 10.0703C12.4318 10.3984 12.0455 10.5625 11.5909 10.5625ZM7.77273 12.25C7.47273 12.25 7.21591 12.1398 7.00227 11.9195C6.78864 11.6992 6.68182 11.4344 6.68182 11.125V6.625C6.68182 6.31562 6.78864 6.05078 7.00227 5.83047C7.21591 5.61016 7.47273 5.5 7.77273 5.5H15.4091C15.7091 5.5 15.9659 5.61016 16.1795 5.83047C16.3932 6.05078 16.5 6.31562 16.5 6.625V11.125C16.5 11.4344 16.3932 11.6992 16.1795 11.9195C15.9659 12.1398 15.7091 12.25 15.4091 12.25H7.77273ZM8.86364 11.125H14.3182C14.3182 10.8156 14.425 10.5508 14.6386 10.3305C14.8523 10.1102 15.1091 10 15.4091 10V7.75C15.1091 7.75 14.8523 7.63984 14.6386 7.41953C14.425 7.19922 14.3182 6.93437 14.3182 6.625H8.86364C8.86364 6.93437 8.75682 7.19922 8.54318 7.41953C8.32955 7.63984 8.07273 7.75 7.77273 7.75V10C8.07273 10 8.32955 10.1102 8.54318 10.3305C8.75682 10.5508 8.86364 10.8156 8.86364 11.125ZM14.8636 14.5H5.59091C5.29091 14.5 5.03409 14.3898 4.82045 14.1695C4.60682 13.9492 4.5 13.6844 4.5 13.375V7.1875H5.59091V13.375H14.8636V14.5Z" fill="#6E757A"/>
</svg>
