<svg width="20" height="20" viewBox="0 0 20 20" fill="none" xmlns="http://www.w3.org/2000/svg">
<rect width="20" height="20" rx="10" fill="#FBFBFB"/>
<path d="M6 15V5L6.75 5.75L7.5 5L8.25 5.75L9 5L9.75 5.75L10.5 5L11.25 5.75L12 5L12.75 5.75L13.5 5L14.25 5.75L15 5V15L14.25 14.25L13.5 15L12.75 14.25L12 15L11.25 14.25L10.5 15L9.75 14.25L9 15L8.25 14.25L7.5 15L6.75 14.25L6 15ZM7.5 12.5H13.5V11.5H7.5V12.5ZM7.5 10.5H13.5V9.5H7.5V10.5ZM7.5 8.5H13.5V7.5H7.5V8.5ZM7 13.55H14V6.45H7V13.55Z" fill="#6E757A"/>
</svg>
