<?xml version="1.0"?>
<svg xmlns="http://www.w3.org/2000/svg" xmlns:xlink="http://www.w3.org/1999/xlink" version="1.1" id="Capa_1" x="0px" y="0px" viewBox="0 0 512 512" style="enable-background:new 0 0 512 512;" xml:space="preserve" width="512px" height="512px" class="hovered-paths"><g><g>
	<path style="fill:#000000" d="M377.492,295.051c-4.79,0-8.678-3.879-8.678-8.678c0-4.799,3.888-8.678,8.678-8.678   c23.925,0,43.39-19.465,43.39-43.39c0-4.799,3.888-8.678,8.678-8.678s8.678,3.879,8.678,8.678   C438.237,267.793,410.988,295.051,377.492,295.051z" data-original="#E7ECED" class="" data-old_color="#E7ECED"/>
	<path style="fill:#000000" d="M421.749,140.8c-3.723,0-7.168-2.412-8.305-6.17C392.574,65.588,327.836,17.356,256,17.356   S119.426,65.588,98.556,134.63c-1.388,4.591-6.222,7.194-10.821,5.797c-4.591-1.38-7.185-6.231-5.797-10.813   C105.003,53.3,176.579,0,256,0s150.997,53.3,174.063,129.614c1.388,4.582-1.206,9.433-5.797,10.813   C423.424,140.679,422.582,140.8,421.749,140.8z" data-original="#E7ECED" class="" data-old_color="#E7ECED"/>
</g><path style="fill:#AA6455" d="M290.712,295.051v-17.356c0-9.546,7.81-17.356,17.356-17.356h51.886  c16.393-21.773,26.216-48.753,26.216-78.102c0-71.888-58.281-130.169-130.169-130.169s-130.169,58.281-130.169,130.169  S184.112,312.407,256,312.407c13.616,0,26.737-2.109,39.077-5.988C292.395,303.364,290.712,299.407,290.712,295.051z" data-original="#FBCE9D" class="hovered-path active-path" data-old_color="#FBCE9D"/><g>
	<path style="fill:#000000" d="M82.441,234.305L82.441,234.305c-9.546,0-17.356-7.81-17.356-17.356v-69.424   c0-9.546,7.81-17.356,17.356-17.356l0,0c9.546,0,17.356,7.81,17.356,17.356v69.424C99.797,226.495,91.986,234.305,82.441,234.305z" data-original="#AFB6BB" class="" data-old_color="#AFB6BB"/>
	<path style="fill:#000000" d="M429.559,234.305L429.559,234.305c-9.546,0-17.356-7.81-17.356-17.356v-69.424   c0-9.546,7.81-17.356,17.356-17.356l0,0c9.546,0,17.356,7.81,17.356,17.356v69.424   C446.915,226.495,439.105,234.305,429.559,234.305z" data-original="#AFB6BB" class="" data-old_color="#AFB6BB"/>
	<path style="fill:#000000" d="M360.136,321.085h-52.068c-14.353,0-26.034-11.681-26.034-26.034v-17.356   c0-14.353,11.681-26.034,26.034-26.034h52.068c14.353,0,26.034,11.681,26.034,26.034v17.356   C386.169,309.404,374.489,321.085,360.136,321.085z" data-original="#AFB6BB" class="" data-old_color="#AFB6BB"/>
</g><path style="fill:#366DB6" d="M438.237,512H73.763v-72.799c0-50.853,41.229-92.082,92.082-92.082h180.302  c50.862,0,92.091,41.229,92.091,92.082V512z" data-original="#366DB6" class=""/><g>
	<path style="fill:#1F436D" d="M386.169,512v-60.746c0-4.799-3.888-8.678-8.678-8.678s-8.678,3.879-8.678,8.678V512H386.169z" data-original="#1F436D" class="" data-old_color="#1F436D"/>
	<path style="fill:#1F436D" d="M151.864,512v-60.746c0-4.799-3.888-8.678-8.678-8.678s-8.678,3.879-8.678,8.678V512H151.864z" data-original="#1F436D" class="" data-old_color="#1F436D"/>
</g></g> </svg>
