<svg height="512pt" viewBox="0 -32 512 512" width="512pt" xmlns="http://www.w3.org/2000/svg"><path d="m336 96h-32v-64h-96v64h-32v-96h160zm0 0" fill="#3c3c47"/><path d="m176 48h32v48h-32zm0 0" fill="#202026"/><path d="m304 48h32v48h-32zm0 0" fill="#202026"/><path d="m464 448h-416c-26.464844 0-48-21.535156-48-48v-272c0-26.464844 21.535156-48 48-48h416c26.464844 0 48 21.535156 48 48v272c0 26.464844-21.535156 48-48 48zm0 0" fill="#ffcb5a"/><path d="m464 416h-416c-26.464844 0-48-21.535156-48-48v32c0 26.464844 21.535156 48 48 48h416c26.464844 0 48-21.535156 48-48v-32c0 26.464844-21.535156 48-48 48zm0 0" fill="#efc057"/><path d="m64 80h64v368h-64zm0 0" fill="#bf841b"/><path d="m384 80h64v368h-64zm0 0" fill="#bf841b"/><path d="m64 416h64v32h-64zm0 0" fill="#a56c11"/><path d="m384 416h64v32h-64zm0 0" fill="#a56c11"/><path d="m177.082031 172.585938 88.394531-37.449219 37.449219 88.398437-88.394531 37.449219zm0 0" fill="#f78659"/><path d="m209.082031 361.445312 37.449219-88.398437 88.398438 37.449219-37.453126 88.398437zm0 0" fill="#9b7cab"/><g fill="#fff"><path d="m224 176h32v32h-32zm0 0"/><path d="m320 144h32v32h-32zm0 0"/><path d="m256 320h32v32h-32zm0 0"/></g></svg>