<svg width="16" height="18" viewBox="0 0 16 18" fill="none" xmlns="http://www.w3.org/2000/svg">
<path d="M2.16667 17.3334C1.70833 17.3334 1.31583 17.1704 0.989167 16.8442C0.663055 16.5176 0.5 16.1251 0.5 15.6667V4.00008C0.5 3.54175 0.663055 3.14953 0.989167 2.82341C1.31583 2.49675 1.70833 2.33341 2.16667 2.33341H3V0.666748H4.66667V2.33341H11.3333V0.666748H13V2.33341H13.8333C14.2917 2.33341 14.6842 2.49675 15.0108 2.82341C15.3369 3.14953 15.5 3.54175 15.5 4.00008V15.6667C15.5 16.1251 15.3369 16.5176 15.0108 16.8442C14.6842 17.1704 14.2917 17.3334 13.8333 17.3334H2.16667ZM2.16667 15.6667H13.8333V7.33342H2.16667V15.6667ZM2.16667 5.66675H13.8333V4.00008H2.16667V5.66675ZM2.16667 5.66675V4.00008V5.66675Z" fill="black"/>
</svg>
