<svg width="128" height="128" viewBox="0 0 128 128" fill="none" xmlns="http://www.w3.org/2000/svg">
<path fill-rule="evenodd" clip-rule="evenodd" d="M14.419 88.3107L14.368 98.575C14.3578 100.637 14.7253 102.572 15.4603 104.363C16.2054 106.175 17.3029 107.808 18.7472 109.253C20.1916 110.697 21.8301 111.795 23.637 112.54C25.4285 113.275 27.363 113.642 29.425 113.632L39.6893 113.581C40.9602 113.571 42.1291 113.795 43.2009 114.239C44.2574 114.673 45.2374 115.347 46.1357 116.261L53.3579 123.554C54.8075 125.019 56.4357 126.132 58.2222 126.877C60.0188 127.627 61.9482 128 64 128C66.0518 128 67.9812 127.622 69.7778 126.877C71.5694 126.132 73.1925 125.024 74.6421 123.554L81.8643 116.261C82.7626 115.357 83.7477 114.678 84.7991 114.239C85.871 113.795 87.045 113.576 88.3107 113.581L98.575 113.632C100.637 113.642 102.572 113.275 104.363 112.54C106.175 111.795 107.808 110.697 109.253 109.253C110.697 107.808 111.795 106.17 112.54 104.363C113.275 102.572 113.642 100.637 113.632 98.575L113.581 88.3107C113.571 87.0398 113.795 85.8709 114.239 84.7991C114.673 83.7426 115.347 82.7626 116.261 81.8643L123.554 74.6421C125.019 73.1925 126.132 71.5643 126.877 69.7778C127.627 67.9812 128 66.0518 128 64C128 61.9482 127.622 60.0188 126.877 58.2222C126.132 56.4306 125.024 54.8075 123.554 53.3579L116.261 46.1357C115.357 45.2374 114.678 44.2523 114.239 43.2009C113.795 42.129 113.576 40.955 113.581 39.6893L113.632 29.425C113.642 27.363 113.275 25.4285 112.54 23.6369C111.795 21.825 110.697 20.1917 109.253 18.7472C107.808 17.3027 106.17 16.2054 104.363 15.4602C102.572 14.7253 100.637 14.3578 98.575 14.368L88.3107 14.419C87.0398 14.4292 85.8658 14.2046 84.7991 13.7606C83.7426 13.3267 82.7626 12.653 81.8643 11.7393L74.6421 4.44568C73.1925 2.9808 71.5643 1.86806 69.7778 1.12289C67.9812 0.372589 66.0518 0 64 0C61.9482 0 60.0188 0.377698 58.2222 1.12289C56.4306 1.86808 54.8075 2.9757 53.3579 4.44568L46.1357 11.7393C45.2374 12.6428 44.2523 13.3216 43.2009 13.7606C42.129 14.2046 40.955 14.4241 39.6893 14.419L29.425 14.368C27.363 14.3578 25.4285 14.7253 23.637 15.4602C21.825 16.2054 20.1917 17.3029 18.7472 18.7472C17.3028 20.1917 16.2054 21.8301 15.4603 23.6369C14.7253 25.4285 14.3578 27.363 14.368 29.425L14.419 39.6893C14.4292 40.9602 14.2047 42.1341 13.7606 43.2009C13.3268 44.2574 12.653 45.2374 11.7394 46.1357L4.44569 53.3579C2.98081 54.8075 1.86808 56.4357 1.1229 58.2222C0.372602 60.0188 0 61.9482 0 64C0 66.0518 0.377698 67.9812 1.1229 69.7778C1.86809 71.5694 2.97572 73.1925 4.44569 74.6421L11.7394 81.8643C12.6428 82.7626 13.3216 83.7477 13.7606 84.7991C14.2046 85.871 14.4241 87.045 14.419 88.3107ZM90.4237 49.8105L57.8191 82.4151C56.6452 83.5891 54.7515 83.5891 53.5776 82.4151L37.5974 66.4349C36.4235 65.261 36.4235 63.3673 37.5974 62.1934C38.7713 61.0195 40.665 61.0195 41.8389 62.1934L55.701 76.0556L86.1823 45.5743C87.3563 44.4003 89.2499 44.4003 90.4238 45.5743C91.5978 46.7482 91.5978 48.6419 90.4238 49.8158L90.4237 49.8105Z" fill="#5CBA66"/>
</svg>
