<svg width="18" height="18" viewBox="0 0 18 18" fill="none" xmlns="http://www.w3.org/2000/svg">
<path d="M9.30633 9L7.15106 11.3062L8.13232 12.375L11.2864 9L8.13232 5.625L7.15106 6.69375L9.30633 9ZM8.83322 16.5C7.86364 16.5 6.95247 16.3031 6.09971 15.9094C5.24695 15.5156 4.50516 14.9812 3.87435 14.3062C3.24354 13.6312 2.74415 12.8375 2.37618 11.925C2.00821 11.0125 1.82422 10.0375 1.82422 9C1.82422 7.9625 2.00821 6.9875 2.37618 6.075C2.74415 5.1625 3.24354 4.36875 3.87435 3.69375C4.50516 3.01875 5.24695 2.48437 6.09971 2.09062C6.95247 1.69687 7.86364 1.5 8.83322 1.5C9.8028 1.5 10.714 1.69687 11.5667 2.09062C12.4195 2.48437 13.1613 3.01875 13.7921 3.69375C14.4229 4.36875 14.9223 5.1625 15.2903 6.075C15.6582 6.9875 15.8422 7.9625 15.8422 9C15.8422 10.0375 15.6582 11.0125 15.2903 11.925C14.9223 12.8375 14.4229 13.6312 13.7921 14.3062C13.1613 14.9812 12.4195 15.5156 11.5667 15.9094C10.714 16.3031 9.8028 16.5 8.83322 16.5ZM8.83322 15C10.3986 15 11.7244 14.4187 12.8108 13.2562C13.8972 12.0937 14.4404 10.675 14.4404 9C14.4404 7.325 13.8972 5.90625 12.8108 4.74375C11.7244 3.58125 10.3986 3 8.83322 3C7.26788 3 5.94201 3.58125 4.85561 4.74375C3.76922 5.90625 3.22602 7.325 3.22602 9C3.22602 10.675 3.76922 12.0937 4.85561 13.2562C5.94201 14.4187 7.26788 15 8.83322 15Z" fill="black"/>
</svg>
