<svg width="13" height="13" viewBox="0 0 13 13" fill="none" xmlns="http://www.w3.org/2000/svg">
<path d="M6.32734 0.417969C3.01534 0.417969 0.333344 3.10597 0.333344 6.41797C0.333344 9.72997 3.01534 12.418 6.32734 12.418C9.64534 12.418 12.3333 9.72997 12.3333 6.41797C12.3333 3.10597 9.64534 0.417969 6.32734 0.417969ZM6.33334 11.218C3.68134 11.218 1.53334 9.06997 1.53334 6.41797C1.53334 3.76597 3.68134 1.61797 6.33334 1.61797C8.98534 1.61797 11.1333 3.76597 11.1333 6.41797C11.1333 9.06997 8.98534 11.218 6.33334 11.218ZM6.20134 3.41797H6.16534C5.92534 3.41797 5.73334 3.60997 5.73334 3.84997V6.68197C5.73334 6.89197 5.84134 7.08997 6.02734 7.19797L8.51734 8.69197C8.72134 8.81197 8.98534 8.75197 9.10534 8.54797C9.23134 8.34397 9.16534 8.07397 8.95534 7.95397L6.63334 6.57397V3.84997C6.63334 3.60997 6.44134 3.41797 6.20134 3.41797Z" fill="black"/>
</svg>
