<svg width="20" height="20" viewBox="0 0 20 20" fill="none" xmlns="http://www.w3.org/2000/svg">
<path d="M11.6673 10.8334C10.9729 10.8334 10.3826 10.5903 9.89649 10.1042C9.41037 9.6181 9.16732 9.02782 9.16732 8.33337C9.16732 7.63893 9.41037 7.04865 9.89649 6.56254C10.3826 6.07643 10.9729 5.83337 11.6673 5.83337C12.3618 5.83337 12.952 6.07643 13.4382 6.56254C13.9243 7.04865 14.1673 7.63893 14.1673 8.33337C14.1673 9.02782 13.9243 9.6181 13.4382 10.1042C12.952 10.5903 12.3618 10.8334 11.6673 10.8334ZM5.83398 13.3334C5.37565 13.3334 4.98329 13.1702 4.6569 12.8438C4.33051 12.5174 4.16732 12.125 4.16732 11.6667V5.00004C4.16732 4.54171 4.33051 4.14935 4.6569 3.82296C4.98329 3.49657 5.37565 3.33337 5.83398 3.33337H17.5007C17.959 3.33337 18.3513 3.49657 18.6777 3.82296C19.0041 4.14935 19.1673 4.54171 19.1673 5.00004V11.6667C19.1673 12.125 19.0041 12.5174 18.6777 12.8438C18.3513 13.1702 17.959 13.3334 17.5007 13.3334H5.83398ZM7.50065 11.6667H15.834C15.834 11.2084 15.9972 10.816 16.3236 10.4896C16.65 10.1632 17.0423 10 17.5007 10V6.66671C17.0423 6.66671 16.65 6.50351 16.3236 6.17712C15.9972 5.85073 15.834 5.45837 15.834 5.00004H7.50065C7.50065 5.45837 7.33746 5.85073 7.01107 6.17712C6.68468 6.50351 6.29232 6.66671 5.83398 6.66671V10C6.29232 10 6.68468 10.1632 7.01107 10.4896C7.33746 10.816 7.50065 11.2084 7.50065 11.6667ZM16.6673 16.6667H2.50065C2.04232 16.6667 1.64996 16.5035 1.32357 16.1771C0.997179 15.8507 0.833984 15.4584 0.833984 15V5.83337H2.50065V15H16.6673V16.6667Z" fill="#FBFBFB"/>
</svg>
