<svg width="16" height="16" viewBox="0 0 16 16" fill="none" xmlns="http://www.w3.org/2000/svg">
<path d="M9.12877e-07 0.933333C9.24533e-07 0.666666 0.0888901 0.444444 0.266667 0.266666C0.444445 0.0888882 0.666668 -6.70241e-07 0.933334 -6.58585e-07L4.53333 -5.01224e-07C4.72593 -4.92805e-07 4.9 0.0666662 5.05556 0.2C5.21111 0.333333 5.31852 0.503703 5.37778 0.711111L6 3.77778C6.02963 3.98518 6.01111 4.1963 5.94444 4.41111C5.87778 4.62593 5.77778 4.8 5.64445 4.93333L3.55556 7.02222C3.88148 7.58518 4.24074 8.11852 4.63333 8.62222C5.02593 9.12593 5.45185 9.60741 5.91111 10.0667C6.38519 10.5556 6.87778 11.0037 7.38889 11.4111C7.9 11.8185 8.42963 12.1704 8.97778 12.4667L11.1556 10.3111C11.2741 10.1926 11.4148 10.1111 11.5778 10.0667C11.7407 10.0222 11.9407 10.0148 12.1778 10.0444L15.2889 10.6222C15.4815 10.6519 15.6481 10.7481 15.7889 10.9111C15.9296 11.0741 16 11.2593 16 11.4667L16 15.0667C16 15.3333 15.9111 15.5556 15.7333 15.7333C15.5556 15.9111 15.3333 16 15.0667 16C13.2148 16 11.3852 15.5963 9.57778 14.7889C7.77037 13.9815 6.12593 12.837 4.64444 11.3556C3.16296 9.87407 2.01852 8.22963 1.21111 6.42222C0.403704 4.61481 8.3193e-07 2.78518 9.12877e-07 0.933333ZM10.6667 13.2889C11.2444 13.5407 11.8296 13.7333 12.4222 13.8667C13.0148 14 13.6148 14.1037 14.2222 14.1778L14.2222 12.2222L12.1333 11.8222L10.6667 13.2889ZM2.75556 5.33333L4.22222 3.86667L3.77778 1.77778L1.82222 1.77778C1.86667 2.38518 1.97037 2.98518 2.13333 3.57778C2.2963 4.17037 2.5037 4.75556 2.75556 5.33333Z" fill="#1F1F1F"/>
</svg>
