<svg width="20" height="20" viewBox="0 0 20 20" fill="none" xmlns="http://www.w3.org/2000/svg">
<g clip-path="url(#clip0_5250_5911)">
<path d="M4.16602 14.1667V8.33337H5.83268V14.1667H4.16602ZM9.16602 14.1667V8.33337H10.8327V14.1667H9.16602ZM1.66602 6.66671V5.00004L9.99935 0.833374L18.3327 5.00004V6.66671H1.66602ZM5.39518 5.00004H14.6035L9.99935 2.70837L5.39518 5.00004ZM1.66602 17.5V15.8334H11.7077C11.7355 16.125 11.7702 16.4063 11.8118 16.6771C11.8535 16.948 11.916 17.2223 11.9993 17.5H1.66602ZM14.166 11.0417V8.33337H15.8327V10.2084L14.166 11.0417ZM16.666 20C15.7077 19.7639 14.9125 19.2118 14.2806 18.3438C13.6487 17.4757 13.3327 16.5139 13.3327 15.4584V13.3334L16.666 11.6667L19.9993 13.3334V15.4584C19.9993 16.5139 19.6834 17.4757 19.0514 18.3438C18.4195 19.2118 17.6243 19.7639 16.666 20ZM16.0618 17.5L18.9577 14.625L18.0827 13.75L16.0618 15.7292L15.2493 14.9167L14.3743 15.8125L16.0618 17.5Z" fill="white"/>
</g>
<defs>
<clipPath id="clip0_5250_5911">
<rect width="20" height="20" fill="white"/>
</clipPath>
</defs>
</svg>
