<svg width="12" height="12" viewBox="0 0 12 12" fill="none" xmlns="http://www.w3.org/2000/svg">
<path d="M4.91805 7.06922L1.0886 5.51796C0.956975 5.46667 0.862102 5.38844 0.80398 5.28326C0.745858 5.17807 0.716797 5.07037 0.716797 4.96017C0.716797 4.84999 0.748636 4.7419 0.812313 4.63591C0.875991 4.52993 0.973641 4.4513 1.10526 4.40001L10.2319 0.982675C10.3509 0.932719 10.4661 0.922946 10.5776 0.953358C10.6891 0.98378 10.7855 1.03955 10.8666 1.12067C10.9477 1.20179 11.0035 1.29811 11.0339 1.40966C11.0643 1.52119 11.0545 1.63639 11.0043 1.75526L7.57361 10.8778C7.52346 11.0065 7.44571 11.1031 7.34038 11.1675C7.23506 11.2319 7.12722 11.2641 7.01688 11.2641C6.90654 11.2641 6.79821 11.2338 6.6919 11.1733C6.58559 11.1128 6.50712 11.017 6.4565 10.8859L4.91805 7.06922Z" fill="black"/>
</svg>
