<svg width="22" height="22" viewBox="0 0 22 22" fill="none" xmlns="http://www.w3.org/2000/svg">
<path d="M17.8104 11.8983C17.8471 11.6049 17.8746 11.3116 17.8746 10.9999C17.8746 10.6883 17.8471 10.3949 17.8104 10.1016L19.7446 8.58909C19.9188 8.45158 19.9646 8.20408 19.8546 8.00242L18.0213 4.83075C17.9388 4.68409 17.7829 4.60159 17.6179 4.60159C17.5629 4.60159 17.5079 4.61075 17.4621 4.62909L15.1796 5.54575C14.7029 5.17909 14.1896 4.87659 13.6304 4.64742L13.2821 2.21825C13.2546 1.99825 13.0621 1.83325 12.8329 1.83325H9.16628C8.93711 1.83325 8.74461 1.99825 8.71711 2.21825L8.36878 4.64742C7.80961 4.87659 7.29628 5.18825 6.81961 5.54575L4.53711 4.62909C4.48211 4.61075 4.42711 4.60159 4.37211 4.60159C4.21628 4.60159 4.06044 4.68409 3.97794 4.83075L2.14461 8.00242C2.02544 8.20408 2.08044 8.45158 2.25461 8.58909L4.18878 10.1016C4.15211 10.3949 4.12461 10.6974 4.12461 10.9999C4.12461 11.3024 4.15211 11.6049 4.18878 11.8983L2.25461 13.4108C2.08044 13.5483 2.03461 13.7958 2.14461 13.9974L3.97794 17.1691C4.06044 17.3158 4.21628 17.3983 4.38128 17.3983C4.43628 17.3983 4.49128 17.3891 4.53711 17.3708L6.81961 16.4541C7.29628 16.8208 7.80961 17.1233 8.36878 17.3524L8.71711 19.7816C8.74461 20.0016 8.93711 20.1666 9.16628 20.1666H12.8329C13.0621 20.1666 13.2546 20.0016 13.2821 19.7816L13.6304 17.3524C14.1896 17.1233 14.7029 16.8116 15.1796 16.4541L17.4621 17.3708C17.5171 17.3891 17.5721 17.3983 17.6271 17.3983C17.7829 17.3983 17.9388 17.3158 18.0213 17.1691L19.8546 13.9974C19.9646 13.7958 19.9188 13.5483 19.7446 13.4108L17.8104 11.8983ZM15.9954 10.3308C16.0321 10.6149 16.0413 10.8074 16.0413 10.9999C16.0413 11.1924 16.0229 11.3941 15.9954 11.6691L15.8671 12.7049L16.6829 13.3466L17.6729 14.1166L17.0313 15.2258L15.8671 14.7583L14.9138 14.3733L14.0888 14.9966C13.6946 15.2899 13.3188 15.5099 12.9429 15.6658L11.9713 16.0599L11.8246 17.0958L11.6413 18.3333H10.3579L10.1838 17.0958L10.0371 16.0599L9.06544 15.6658C8.67128 15.5008 8.30461 15.2899 7.93794 15.0149L7.10378 14.3733L6.13211 14.7674L4.96794 15.2349L4.32628 14.1258L5.31628 13.3558L6.13211 12.7141L6.00378 11.6783C5.97628 11.3941 5.95794 11.1833 5.95794 10.9999C5.95794 10.8166 5.97628 10.6058 6.00378 10.3308L6.13211 9.29492L5.31628 8.65325L4.32628 7.88325L4.96794 6.77409L6.13211 7.24159L7.08544 7.62658L7.91044 7.00325C8.30461 6.70992 8.68044 6.48992 9.05628 6.33408L10.0279 5.93992L10.1746 4.90409L10.3579 3.66659H11.6321L11.8063 4.90409L11.9529 5.93992L12.9246 6.33408C13.3188 6.49908 13.6854 6.70992 14.0521 6.98492L14.8863 7.62658L15.8579 7.23242L17.0221 6.76492L17.6638 7.87408L16.6829 8.65325L15.8671 9.29492L15.9954 10.3308ZM10.9996 7.33325C8.97378 7.33325 7.33294 8.97408 7.33294 10.9999C7.33294 13.0258 8.97378 14.6666 10.9996 14.6666C13.0254 14.6666 14.6663 13.0258 14.6663 10.9999C14.6663 8.97408 13.0254 7.33325 10.9996 7.33325ZM10.9996 12.8333C9.99128 12.8333 9.16628 12.0083 9.16628 10.9999C9.16628 9.99158 9.99128 9.16658 10.9996 9.16658C12.0079 9.16658 12.8329 9.99158 12.8329 10.9999C12.8329 12.0083 12.0079 12.8333 10.9996 12.8333Z" fill="black"/>
</svg>
