<svg width="16" height="16" viewBox="0 0 16 16" fill="none" xmlns="http://www.w3.org/2000/svg">
<path d="M8 15.5C6.9625 15.5 5.9875 15.3031 5.075 14.9094C4.1625 14.5156 3.36875 13.9812 2.69375 13.3062C2.01875 12.6312 1.48437 11.8375 1.09062 10.925C0.696875 10.0125 0.5 9.0375 0.5 8C0.5 6.9625 0.696875 5.9875 1.09062 5.075C1.48437 4.1625 2.01875 3.36875 2.69375 2.69375C3.36875 2.01875 4.1625 1.48437 5.075 1.09062C5.9875 0.696875 6.9625 0.5 8 0.5C8.8125 0.5 9.58125 0.61875 10.3062 0.85625C11.0312 1.09375 11.7 1.425 12.3125 1.85L11.225 2.95625C10.75 2.65625 10.2437 2.42187 9.70625 2.25312C9.16875 2.08437 8.6 2 8 2C6.3375 2 4.92187 2.58437 3.75312 3.75312C2.58437 4.92187 2 6.3375 2 8C2 9.6625 2.58437 11.0781 3.75312 12.2469C4.92187 13.4156 6.3375 14 8 14C9.6625 14 11.0781 13.4156 12.2469 12.2469C13.4156 11.0781 14 9.6625 14 8C14 7.775 13.9875 7.55 13.9625 7.325C13.9375 7.1 13.9 6.88125 13.85 6.66875L15.0687 5.45C15.2062 5.85 15.3125 6.2625 15.3875 6.6875C15.4625 7.1125 15.5 7.55 15.5 8C15.5 9.0375 15.3031 10.0125 14.9094 10.925C14.5156 11.8375 13.9812 12.6312 13.3062 13.3062C12.6312 13.9812 11.8375 14.5156 10.925 14.9094C10.0125 15.3031 9.0375 15.5 8 15.5ZM6.95 11.45L3.7625 8.2625L4.8125 7.2125L6.95 9.35L14.45 1.83125L15.5 2.88125L6.95 11.45Z" fill="#0000EE"/>
</svg>
