<svg width="14" height="11" viewBox="0 0 14 11" fill="none" xmlns="http://www.w3.org/2000/svg">
<path d="M4.8 8.08398L6.66667 6.68398L8.5 8.08398L7.8 5.81732L9.66667 4.35065H7.4L6.66667 2.08398L5.93333 4.35065H3.66667L5.5 5.81732L4.8 8.08398ZM1.33333 10.7507C0.966667 10.7507 0.652778 10.6201 0.391667 10.359C0.130556 10.0979 0 9.78399 0 9.41732V7.16732C0 7.0451 0.0388889 6.93954 0.116667 6.85065C0.194444 6.76176 0.294444 6.70621 0.416667 6.68398C0.683333 6.5951 0.902778 6.43398 1.075 6.20065C1.24722 5.96732 1.33333 5.70621 1.33333 5.41732C1.33333 5.12843 1.24722 4.86732 1.075 4.63398C0.902778 4.40065 0.683333 4.23954 0.416667 4.15065C0.294444 4.12843 0.194444 4.07287 0.116667 3.98398C0.0388889 3.8951 0 3.78954 0 3.66732V1.41732C0 1.05065 0.130556 0.736762 0.391667 0.475651C0.652778 0.21454 0.966667 0.0839844 1.33333 0.0839844H12C12.3667 0.0839844 12.6806 0.21454 12.9417 0.475651C13.2028 0.736762 13.3333 1.05065 13.3333 1.41732V3.66732C13.3333 3.78954 13.2944 3.8951 13.2167 3.98398C13.1389 4.07287 13.0389 4.12843 12.9167 4.15065C12.65 4.23954 12.4306 4.40065 12.2583 4.63398C12.0861 4.86732 12 5.12843 12 5.41732C12 5.70621 12.0861 5.96732 12.2583 6.20065C12.4306 6.43398 12.65 6.5951 12.9167 6.68398C13.0389 6.70621 13.1389 6.76176 13.2167 6.85065C13.2944 6.93954 13.3333 7.0451 13.3333 7.16732V9.41732C13.3333 9.78399 13.2028 10.0979 12.9417 10.359C12.6806 10.6201 12.3667 10.7507 12 10.7507H1.33333ZM1.33333 9.41732H12V7.71732C11.5889 7.47287 11.2639 7.14787 11.025 6.74232C10.7861 6.33676 10.6667 5.8951 10.6667 5.41732C10.6667 4.93954 10.7861 4.49787 11.025 4.09232C11.2639 3.68676 11.5889 3.36176 12 3.11732V1.41732H1.33333V3.11732C1.74444 3.36176 2.06944 3.68676 2.30833 4.09232C2.54722 4.49787 2.66667 4.93954 2.66667 5.41732C2.66667 5.8951 2.54722 6.33676 2.30833 6.74232C2.06944 7.14787 1.74444 7.47287 1.33333 7.71732V9.41732Z" fill="#01202B"/>
</svg>
