<svg id="Capa_1" enable-background="new 0 0 512 512" height="512" viewBox="0 0 512 512" width="512" xmlns="http://www.w3.org/2000/svg"><g><path d="m56.86 167.603v-12.251c0-4.143-3.357-7.5-7.5-7.5s-7.5 3.357-7.5 7.5v12.251c0 4.143 3.357 7.5 7.5 7.5s7.5-3.358 7.5-7.5z"/><path d="m477.214 414.918c-3.512-2.197-8.139-1.133-10.337 2.378-5.918 11.067-15.61 19.533-15.61 37.246v49.958c0 4.143 3.357 7.5 7.5 7.5s7.5-3.357 7.5-7.5v-49.958c0-12.084 6.649-17.236 13.325-29.287 2.197-3.511 1.132-8.139-2.378-10.337z"/><path d="m490.212 371.902-6.677-19.413v-54.451c0-8.213-5.621-15.208-13.458-17.875v-246.833c0-18.378-14.952-33.33-33.331-33.33h-384.447c-18.378 0-33.33 14.952-33.33 33.33v68.18c0 4.143 3.357 7.5 7.5 7.5s7.5-3.357 7.5-7.5v-68.18c0-10.107 8.223-18.33 18.33-18.33h384.447c10.107 0 18.331 8.223 18.331 18.33v245.665h-.638c-4.907 0-9.415 1.622-12.942 4.317-1.73-1.322-3.705-2.366-5.838-3.106.014-.207.031-.413.031-.624v-236.21c0-4.954-3.995-8.985-8.906-8.985h-86.04c-4.143 0-7.5 3.357-7.5 7.5s3.357 7.5 7.5 7.5h79.946v224.181h-40.769v-36.911h10.498c9.902 0 17.959-8.056 17.959-17.958v-28.646c0-9.902-8.057-17.958-17.959-17.958h-71.124c-9.902 0-17.958 8.056-17.958 17.958v28.646c0 9.902 8.056 17.958 17.958 17.958h11.088v36.911h-251.076v-224.181h231.323c4.143 0 7.5-3.357 7.5-7.5s-3.357-7.5-7.5-7.5h-237.417c-4.91 0-8.905 4.031-8.905 8.985v236.21c0 4.954 3.995 8.985 8.905 8.985h257.171v19.387h-278.085c-10.107 0-18.33-8.224-18.33-18.331v-157.213c0-4.143-3.357-7.5-7.5-7.5s-7.5 3.357-7.5 7.5v157.213c0 18.379 14.952 33.331 33.33 33.331h278.085v18.794l-24.02-11.695c-9.333-4.546-20.354-2.27-27.422 5.666-9.051 10.157-8.919 25.932.3 35.912l45.12 48.85c3.827 4.143 6.021 9.96 6.021 15.96v68.059c0 4.143 3.357 7.5 7.5 7.5s7.5-3.357 7.5-7.5v-68.059c0-9.872-3.552-19.154-10.002-26.138l-45.121-48.85c-3.906-4.229-3.961-11.444-.119-15.756 2.588-2.906 6.38-3.754 9.656-2.158l34.803 16.945c4.924 2.423 10.783-1.209 10.783-6.743v-128.857c0-6.355 4.382-11.526 9.769-11.526s9.77 5.171 9.77 11.526v128.858c0 4.143 3.357 7.5 7.5 7.5s7.5-3.357 7.5-7.5v-55.703c0-2.192 2.492-4.044 5.442-4.044h8.653c2.95 0 5.442 1.852 5.442 4.044v55.703c0 4.143 3.357 7.5 7.5 7.5s7.5-3.357 7.5-7.5v-55.703c0-2.192 2.492-4.044 5.442-4.044h8.652c2.95 0 5.442 1.852 5.442 4.044v55.703c0 4.143 3.357 7.5 7.5 7.5s7.5-3.357 7.5-7.5v-55.703c0-2.192 2.492-4.044 5.442-4.044h8.653c2.95 0 5.442 1.852 5.442 4.044v55.703c0 .734.15 1.689.408 2.439l7.085 20.6c1.655 4.812 2.304 10.07 1.876 15.206-.343 4.128 2.725 7.753 6.853 8.097.212.018.422.025.631.025 3.86 0 7.14-2.962 7.466-6.878.6-7.19-.313-14.566-2.639-21.329zm-135.06-173.545c-12.636 0-23.086 10.189-24.579 23.299h-11.278c-1.631 0-2.958-1.327-2.958-2.958v-28.646c0-1.631 1.327-2.958 2.958-2.958h71.124c1.632 0 2.959 1.327 2.959 2.958v28.646c0 1.631-1.327 2.958-2.959 2.958h-10.688c-1.492-13.109-11.941-23.299-24.579-23.299z"/><path d="m134.583 230.112c-4.143 0-7.5 3.357-7.5 7.5s3.357 7.5 7.5 7.5h102.952c4.143 0 7.5-3.357 7.5-7.5s-3.357-7.5-7.5-7.5z"/><path d="m399.085 71.566h-88.454c-4.143 0-7.5 3.357-7.5 7.5s3.357 7.5 7.5 7.5h88.454c4.143 0 7.5-3.357 7.5-7.5s-3.358-7.5-7.5-7.5z"/><path d="m399.085 102.93h-88.454c-4.143 0-7.5 3.357-7.5 7.5s3.357 7.5 7.5 7.5h88.454c4.143 0 7.5-3.357 7.5-7.5s-3.358-7.5-7.5-7.5z"/><path d="m399.085 134.294h-88.454c-4.143 0-7.5 3.357-7.5 7.5s3.357 7.5 7.5 7.5h88.454c4.143 0 7.5-3.357 7.5-7.5s-3.358-7.5-7.5-7.5z"/><path d="m279.78 121.062c-5.124-13.474-20.182-20.242-33.661-15.11l-40.829 15.531-35.495-38.229c-3.025-3.257-7.666-4.34-11.825-2.762l-11.041 4.2c-5.599 2.131-8.421 8.42-6.291 14.02l15.74 41.376-5.481 2.085-31.679-14.445c-2.321-1.062-5.021-1.148-7.408-.241l-14.993 5.703c-3.135 1.194-5.383 3.874-6.015 7.168-.633 3.294.465 6.615 2.937 8.886l43.987 40.385c6.376 5.853 15.346 7.548 23.386 4.487l103.559-39.393c13.475-5.126 20.237-20.181 15.109-33.661zm-109.383 13.693-14.271-37.513 4.572-1.739 29.464 31.733-18.263 6.947zm88.94 5.948-103.559 39.393c-2.727 1.039-5.758.456-7.908-1.518l-37.552-34.476 4.719-1.795 30.615 13.96c2.999 1.369 6.489 1.482 9.568.309 23.476-8.93 71.177-27.075 96.231-36.605 5.726-2.18 12.128.694 14.309 6.423 2.179 5.73-.692 12.129-6.423 14.309z"/></g></svg>