<svg id="Layer_5" enable-background="new 0 0 64 64" height="512" viewBox="0 0 64 64" width="512" xmlns="http://www.w3.org/2000/svg"><path d="m63.414 33-8.589-8.589c.11-.453.175-.924.175-1.411v-.414l-13.586-13.586h-.414c-.487 0-.958.065-1.411.175l-8.589-8.589-26.414 26.414 12.5 12.5-14.55 14.55c-.991.99-1.536 2.306-1.536 3.708 0 2.89 2.352 5.242 5.243 5.242 1.399 0 2.716-.545 3.707-1.535l14.55-14.551 12.5 12.5zm-10.434-9.605c-.186 1.892-1.695 3.4-3.585 3.586l-12.375-12.376c.186-1.892 1.695-3.4 3.585-3.586zm-27.98 11.019 1.586 1.586-16.586 16.586-1.586-1.586zm5.293 2.465-3.172-3.172 3.7-.528zm-2.293.535 1.586 1.586-16.586 16.586-1.586-1.586zm3.943 2.058 1.236-8.65-8.65 1.236-3.029 3.028-8.086-8.086 17.586-17.586 4.175 4.175c-.11.453-.175.924-.175 1.411v.414l13.586 13.586h.414c.487 0 .958-.065 1.411-.175l4.175 4.175-17.586 17.586-8.086-8.086zm-24.529-12.472 23.586-23.586 6.627 6.627c-.623.425-1.161.963-1.586 1.586l-5.041-5.041-20.414 20.414 9.5 9.5-1.586 1.586zm1.122 33.05c-.613.613-1.428.95-2.293.95-1.788 0-3.243-1.454-3.243-3.242 0-.867.337-1.681.95-2.293l3.05-3.051 4.586 4.586zm18.964-16.136 9.5 9.5 20.414-20.414-5.041-5.041c.623-.425 1.161-.963 1.586-1.586l6.627 6.627-23.586 23.586-11.086-11.086z"/><path d="m41.414 24-7.414-7.414-2.5 2.5-3.5-3.5-7.414 7.414 7.414 7.414 2.5-2.5 3.5 3.5zm-2.828 0-4.586 4.586-4.586-4.586 4.586-4.586zm-10.586 3.586-4.586-4.586 4.586-4.586 2.086 2.086-3.5 3.5 2.5 2.5z"/><path d="m42 43.414 8.414-8.414-8.414-8.414-8.414 8.414zm5.586-8.414-5.586 5.586-5.586-5.586 5.586-5.586z"/><path d="m35.536 45.535h2v2h-2z" transform="matrix(.707 -.707 .707 .707 -22.204 39.464)"/><path d="m32.707 42.707h2v2h-2z" transform="matrix(.707 -.707 .707 .707 -21.033 36.636)"/><circle cx="40" cy="14" r="1"/><circle cx="50" cy="24" r="1"/></svg>