<?xml version="1.0" encoding="UTF-8"?><svg id="_02" xmlns="http://www.w3.org/2000/svg" viewBox="0 0 1920 1080"><defs><style>.cls-1{fill:#4a4132;}.cls-2{fill:#7e6b35;}.cls-3{fill:#2bb673;}.cls-4{fill:#c4d95b;}.cls-5{fill:#4d3630;}.cls-6{fill:#608c2f;}.cls-7{fill:#91b643;}.cls-8{fill:#086f50;}.cls-9{fill:#00934b;}.cls-10{fill:#c4da5a;}</style></defs><polygon class="cls-1" points="1506.6 972.6 1505.5 981.4 1510.2 981.4 1509.7 971.5 1506.6 972.6"/><polygon class="cls-2" points="1507.2 972.4 1506.3 981.4 1505.5 981.4 1506.6 972.6 1507.2 972.4"/><polygon class="cls-9" points="1527.1 971 1516.5 974.2 1497 974.2 1488.7 970.2 1499.7 963.4 1497.5 962.7 1494.2 961.8 1498.8 958.5 1496.2 958.2 1492.7 957.8 1499.7 951 1497.5 949.9 1502.2 943.9 1500 944.8 1497.6 945.8 1503 937.4 1501.5 937.7 1504.1 934 1503.6 933.6 1503 933.2 1506 928.9 1508.2 933.1 1507.1 934 1510.8 937.8 1509.4 937.8 1514.6 944.2 1512 943.7 1509.2 944 1516.9 949.9 1513.6 952.1 1519.5 956.2 1514.2 957.6 1514.8 959.3 1522.2 964.9 1519.7 964.9 1527.1 971"/><polygon class="cls-8" points="1527.1 971 1516.5 974.2 1497 974.2 1515.4 968.8 1506.2 964.5 1510 961.3 1504.6 959 1509.7 951.5 1510.7 950.4 1506.2 949.9 1506.2 946.3 1507.9 941.8 1503 941.2 1506.2 936.3 1505.4 934.5 1506 928.9 1508.2 933.1 1507.1 934 1510.8 937.8 1509.4 937.8 1514.6 944.2 1512 943.7 1509.2 944 1516.9 949.9 1513.6 952.1 1519.5 956.2 1514.2 957.6 1514.8 959.3 1522.2 964.9 1519.7 964.9 1527.1 971"/><polygon class="cls-3" points="1497.6 945.8 1503 937.4 1502.4 941.3 1500 944.8 1497.6 945.8"/><polygon class="cls-3" points="1498.8 958.5 1502.3 957.2 1504.6 959 1494.9 962 1494.2 961.8 1498.8 958.5"/><polygon class="cls-3" points="1505.8 944 1498.2 950.2 1497.5 949.9 1502.2 943.9 1505.8 944"/><polygon class="cls-3" points="1505.4 934.5 1503 937.4 1501.5 937.7 1504.1 934 1505.1 933.6 1505.4 934.5"/><polygon class="cls-3" points="1503.6 933.6 1503 933.2 1506 928.9 1505.4 931.3 1503.6 933.6"/><polygon class="cls-3" points="1499.7 963.4 1506.2 964.5 1488.7 970.2 1499.7 963.4"/><polygon class="cls-3" points="1492.7 957.8 1499.7 951 1506.2 951.5 1501 953.8 1496.2 958.2 1492.7 957.8"/><polygon class="cls-1" points="1492 977.4 1491.4 983.6 1494.1 983.6 1493.8 976.6 1492 977.4"/><polygon class="cls-2" points="1492.4 977.3 1491.8 983.6 1491.4 983.6 1492 977.4 1492.4 977.3"/><polygon class="cls-9" points="1504 976.3 1497.8 978.5 1486.4 978.5 1481.5 975.7 1488 970.9 1486.7 970.5 1484.8 969.8 1487.5 967.5 1485.9 967.3 1483.9 967 1488 962.2 1486.7 961.4 1489.4 957.2 1488.1 957.9 1486.7 958.6 1489.9 952.7 1489 952.9 1490.6 950.3 1490.3 950 1489.9 949.7 1491.6 946.7 1492.9 949.6 1492.3 950.3 1494.5 953 1493.6 953 1496.7 957.5 1495.2 957.1 1493.6 957.3 1498 961.4 1496.1 963 1499.5 965.9 1496.4 966.8 1496.8 968.1 1501.1 972 1499.7 972 1504 976.3"/><polygon class="cls-8" points="1504 976.3 1497.8 978.5 1486.4 978.5 1497.2 974.7 1491.8 971.7 1494 969.5 1490.9 967.8 1493.8 962.6 1494.4 961.8 1491.8 961.5 1491.8 958.9 1492.8 955.7 1489.9 955.4 1491.8 951.9 1491.3 950.6 1491.6 946.7 1492.9 949.6 1492.3 950.3 1494.5 953 1493.6 953 1496.7 957.5 1495.2 957.1 1493.6 957.3 1498 961.4 1496.1 963 1499.5 965.9 1496.4 966.8 1496.8 968.1 1501.1 972 1499.7 972 1504 976.3"/><polygon class="cls-3" points="1486.7 958.6 1489.9 952.7 1489.5 955.4 1488.1 957.9 1486.7 958.6"/><polygon class="cls-3" points="1487.5 967.5 1489.5 966.6 1490.9 967.8 1485.1 970 1484.8 969.8 1487.5 967.5"/><polygon class="cls-3" points="1491.5 957.3 1487.1 961.7 1486.7 961.4 1489.4 957.2 1491.5 957.3"/><polygon class="cls-3" points="1491.3 950.6 1489.9 952.7 1489 952.9 1490.6 950.3 1491.1 950 1491.3 950.6"/><polygon class="cls-3" points="1490.3 950 1489.9 949.7 1491.6 946.7 1491.3 948.4 1490.3 950"/><polygon class="cls-3" points="1488 970.9 1491.8 971.7 1481.5 975.7 1488 970.9"/><polygon class="cls-3" points="1483.9 967 1488 962.2 1491.8 962.6 1488.7 964.2 1485.9 967.3 1483.9 967"/><path class="cls-6" d="M612.5,932.6c-.4-6.8-6.2-12.1-13.1-11.8-6.9.3-12.2,6.2-11.9,13.1,0,1.7.5,3.4,1.2,4.8-.4.5-.8,1.1-1.2,1.7-1-1.2-2.3-2.2-3.7-2.9-1.2-5.9-6.6-10.3-12.9-10-6.9.3-12.2,6.2-11.9,13.1.2,4.5,2.8,8.4,6.5,10.4-.7.7-1.2,1.6-1.2,2.7,0,2,1.6,3.6,3.6,3.6s.7,0,1-.2c2.3,2.5,5.5,4,9.2,4s6.8-1.5,9.1-4c.7.4,1.6.6,2.5.6,1.3,0,2.5-.5,3.5-1.2,1.2.5,2.6.7,4,.7,2.8,0,5.5-1.1,7.4-2.8,1.2.4,2.5.6,3.8.6,6.4,0,11.6-5.2,11.6-11.6s-3.1-9.2-7.5-10.9h0Z"/><path class="cls-7" d="M609.4,925c-.6-2.7-2-5-4-6.7-.4-2-1.3-3.8-2.6-5.4-2.4-3-6.2-4.8-10.3-4.5-2.5.1-4.8,1-6.7,2.3h0c-2.2-3-5.2-5.3-8.8-6.5-2-.7-4.1-1-6.3-.9-9.7.5-17.1,8.7-16.7,18.4.2,4,1.8,7.7,4.2,10.5-1.8,2.3-2.9,5.3-2.8,8.5.2,3.9,2.1,7.3,5,9.5,0,0,0,0,0,0,2.2,1.7,5.1,2.6,8.1,2.4,4.2-.2,7.7-2.4,9.9-5.7,2.3,1.7,5.1,2.7,8.2,2.5,3.8-.2,7.1-2,9.2-4.8,2.4,3.1,6.2,5,10.5,4.8,6.9-.3,12.2-6.2,11.9-13.1-.3-5.4-3.9-9.8-8.8-11.3h0Z"/><path class="cls-5" d="M570.2,948.2c2.6,2,11.6,9.2,15.7,12.4l.4-6.9c-2.7-1.5-8.5-11.1-10.4-14.5,2.2,3.4,7.6,7.4,10.7,9.5l1.4-22.4s1.2,4,2.2,7.7c.8-1.7,4.5-9.8,5.3-10.9,0,0-2,9.4-4.5,14.3.3,1.5.7,7.3,1.1,14.2.5-.7,1.3-1.6,2.3-2.6-.3-1.4,2.6-12.8,2.6-12.8-.4,1.8-.2,7.9,0,10.2,3.7-3.8,7.9-7.9,7.9-7.9-1.7,2.1-12.3,20.5-12.3,20.5h0c.5,10.9,1,21.8,1,21.8h-8.9l1-16.5c-6.5-4.6-15.4-16.3-15.4-16.3h0Z"/><path class="cls-6" d="M611.9,939.7c0,.9-.7,1.6-1.6,1.6s-1.6-.7-1.6-1.6.7-1.6,1.6-1.6,1.6.7,1.6,1.6Z"/><path class="cls-6" d="M611.3,937.4c0,.2-.2.5-.5.5s-.5-.2-.5-.5.2-.5.5-.5.5.2.5.5Z"/><path class="cls-6" d="M608.9,941.4c0,.4-.3.7-.7.7s-.7-.3-.7-.7.3-.7.7-.7.7.3.7.7Z"/><path class="cls-6" d="M570.9,944.4c0,1.2-1,2.1-2.1,2.1s-2.1-1-2.1-2.1,1-2.1,2.1-2.1,2.1,1,2.1,2.1Z"/><path class="cls-6" d="M572.3,941.1c0,.5-.4.9-.9.9s-.9-.4-.9-.9.4-.9.9-.9.9.4.9.9Z"/><path class="cls-4" d="M564.3,927c.3.3.6.6.8.9,2.6,3,.5,3.5.5,3.5-1.5,1.3-2.6,2.8-3.4,4.4-3.3,6.5-1.8,14.4-1.8,14.4,0,0,0,0,0,0-2.9-2.2-4.8-5.5-5-9.5-.2-3.2.9-6.2,2.8-8.5-2.4-2.8-4-6.5-4.2-10.5-.5-9.7,7-17.9,16.7-18.4,2.2-.1,4.4.2,6.3.9h0c-18.5,3.4-16.4,19-12.6,22.8h0Z"/><path class="cls-4" d="M602.8,912.9h0c-6.3-2.6-11.9-.3-14.7,2.3-.9.9-8.9,4.2-7.5,1.5,2.6-4.9,4.7-5.9,5.2-6,0,0,0,0,0,0h0c1.9-1.4,4.2-2.2,6.7-2.4,4.1-.2,7.8,1.6,10.3,4.5h0Z"/><path class="cls-10" d="M567.2,918.4c0,.9-.8,1.7-1.7,1.7s-1.7-.8-1.7-1.7.8-1.7,1.7-1.7,1.7.8,1.7,1.7Z"/><path class="cls-10" d="M567.4,915.8c0,.3-.3.6-.6.6s-.6-.3-.6-.6.3-.6.6-.6.6.3.6.6Z"/><path class="cls-10" d="M593.5,916.6c0,.8-.6,1.4-1.4,1.4s-1.4-.6-1.4-1.4.6-1.4,1.4-1.4,1.4.6,1.4,1.4Z"/><path class="cls-6" d="M967.4,924c-.5-8.1-7.4-14.4-15.5-14-8.2.4-14.5,7.4-14.1,15.6,0,2,.6,4,1.5,5.7-.5.6-1,1.3-1.4,2-1.2-1.4-2.8-2.6-4.4-3.4-1.5-7-7.8-12.2-15.3-11.8-8.2.4-14.5,7.4-14.1,15.6.3,5.4,3.4,9.9,7.8,12.3-.9.8-1.4,1.9-1.4,3.1,0,2.3,1.9,4.2,4.2,4.2s.8,0,1.2-.2c2.7,2.9,6.6,4.8,10.9,4.8s8.1-1.8,10.8-4.7c.9.4,1.9.7,2.9.7,1.6,0,3-.5,4.1-1.5,1.5.6,3.1.9,4.7.9,3.4,0,6.5-1.3,8.8-3.4,1.4.5,2.9.8,4.5.8,7.6,0,13.8-6.2,13.8-13.8s-3.7-10.9-8.9-12.9h0Z"/><path class="cls-7" d="M963.7,914.9c-.7-3.2-2.4-6-4.8-8-.5-2.4-1.6-4.6-3.1-6.4-2.9-3.5-7.3-5.6-12.2-5.4-3,.1-5.7,1.1-7.9,2.8h0c-2.6-3.6-6.2-6.3-10.5-7.7-2.4-.8-4.9-1.2-7.5-1-11.5.5-20.3,10.3-19.8,21.8.2,4.8,2.1,9.1,5,12.5-2.2,2.7-3.5,6.3-3.3,10,.2,4.6,2.5,8.7,6,11.2,0,0,0,0,0,0,2.7,2,6,3.1,9.6,2.9,4.9-.2,9.2-2.9,11.7-6.7,2.7,2,6.1,3.2,9.7,3,4.5-.2,8.4-2.4,11-5.7,2.9,3.7,7.4,5.9,12.4,5.7,8.2-.4,14.5-7.4,14.1-15.6-.3-6.4-4.6-11.6-10.4-13.5h0Z"/><path class="cls-5" d="M917.2,942.5c3.1,2.4,13.8,10.9,18.6,14.7l.5-8.2c-3.2-1.7-10-13.2-12.4-17.2,2.7,4,9.1,8.8,12.7,11.3l1.6-26.6s1.4,4.8,2.5,9.2c.9-2,5.3-11.7,6.3-12.9,0,0-2.4,11.2-5.3,17,.4,1.7.9,8.6,1.3,16.9.6-.8,1.6-1.8,2.7-3.1-.4-1.7,3.1-15.2,3.1-15.2-.4,2.1-.2,9.4-.1,12.1,4.4-4.5,9.4-9.4,9.4-9.4-2,2.5-14.5,24.3-14.5,24.3h0c.7,13,1.2,25.9,1.2,25.9h-10.5l1.2-19.6c-7.7-5.5-18.3-19.3-18.3-19.3h0Z"/><path class="cls-6" d="M966.7,932.4c0,1-.8,1.9-1.9,1.9s-1.9-.8-1.9-1.9.8-1.9,1.9-1.9,1.9.8,1.9,1.9Z"/><path class="cls-6" d="M966,929.7c0,.3-.2.5-.5.5s-.5-.2-.5-.5.2-.5.5-.5.5.2.5.5Z"/><path class="cls-6" d="M963.2,934.5c0,.5-.4.8-.8.8s-.8-.4-.8-.8.4-.8.8-.8.8.4.8.8Z"/><path class="cls-6" d="M918,937.9c0,1.4-1.1,2.5-2.5,2.5s-2.5-1.1-2.5-2.5,1.1-2.5,2.5-2.5,2.5,1.1,2.5,2.5Z"/><path class="cls-6" d="M919.7,934.1c0,.6-.5,1-1,1s-1-.5-1-1,.5-1,1-1,1,.5,1,1Z"/><path class="cls-4" d="M910.3,917.3c.4.4.7.7,1,1.1,3.1,3.6.5,4.1.5,4.1-1.8,1.5-3.1,3.3-4,5.2-3.9,7.7-2.1,17.1-2.1,17.1,0,0,0,0,0,0-3.5-2.6-5.8-6.6-6-11.2-.2-3.8,1.1-7.3,3.3-10-2.9-3.4-4.7-7.7-5-12.5-.5-11.5,8.3-21.3,19.8-21.8,2.6-.1,5.2.2,7.5,1h0c-21.9,4-19.5,22.5-15,27.1h0Z"/><path class="cls-4" d="M955.9,900.5h0c-7.5-3.1-14.1-.4-17.4,2.7-1.1,1-10.6,5-8.9,1.8,3.1-5.9,5.6-7,6.1-7.1,0,0,0,0,0,0h0c2.2-1.7,5-2.7,7.9-2.8,4.9-.2,9.3,1.9,12.2,5.4h0Z"/><circle class="cls-10" cx="911.7" cy="907.1" r="2"/><path class="cls-10" d="M913.9,904c0,.4-.3.7-.7.7s-.7-.3-.7-.7.3-.7.7-.7.7.3.7.7Z"/><circle class="cls-10" cx="943.2" cy="905" r="1.7"/><path class="cls-6" d="M483.2,947.2c-.3-5.1-4.6-9-9.7-8.7-5.1.2-9.1,4.6-8.8,9.7,0,1.3.4,2.5.9,3.6-.3.4-.6.8-.9,1.2-.8-.9-1.7-1.6-2.8-2.1-.9-4.4-4.9-7.6-9.5-7.4-5.1.2-9.1,4.6-8.8,9.7.2,3.3,2.1,6.2,4.8,7.7-.5.5-.9,1.2-.9,2,0,1.5,1.2,2.7,2.6,2.7s.5,0,.8-.1c1.7,1.8,4.1,3,6.8,3s5.1-1.1,6.8-2.9c.5.3,1.2.4,1.8.4,1,0,1.9-.3,2.6-.9.9.3,1.9.5,3,.5,2.1,0,4-.8,5.5-2.1.9.3,1.8.5,2.8.5,4.8,0,8.6-3.8,8.6-8.6s-2.3-6.8-5.6-8h0Z"/><path class="cls-7" d="M481,941.6c-.4-2-1.5-3.7-3-5-.3-1.5-1-2.8-1.9-4-1.8-2.2-4.6-3.5-7.6-3.4-1.9,0-3.6.7-5,1.7,0,0,0,0,0,0-1.6-2.2-3.9-3.9-6.5-4.8-1.5-.5-3-.7-4.7-.7-7.2.3-12.7,6.4-12.3,13.6.1,3,1.3,5.7,3.1,7.8-1.4,1.7-2.1,3.9-2,6.2.1,2.9,1.6,5.4,3.7,7,0,0,0,0,0,0,1.7,1.2,3.8,1.9,6,1.8,3.1-.2,5.7-1.8,7.3-4.2,1.7,1.3,3.8,2,6,1.9,2.8-.1,5.2-1.5,6.8-3.5,1.8,2.3,4.6,3.7,7.7,3.5,5.1-.2,9.1-4.6,8.8-9.7-.2-4-2.9-7.3-6.5-8.4h0Z"/><path class="cls-5" d="M452,958.7c1.9,1.5,8.6,6.8,11.6,9.2l.3-5.1c-2-1.1-6.3-8.2-7.7-10.7,1.7,2.5,5.6,5.5,7.9,7.1l1-16.6s.9,3,1.6,5.7c.6-1.2,3.3-7.3,3.9-8,0,0-1.5,7-3.3,10.6.2,1.1.5,5.4.8,10.5.4-.5,1-1.2,1.7-1.9-.2-1,1.9-9.5,1.9-9.5-.3,1.3-.1,5.8,0,7.5,2.7-2.8,5.8-5.8,5.8-5.8-1.2,1.6-9.1,15.2-9.1,15.2h0c.4,8.1.7,16.2.7,16.2h-6.5l.8-12.2c-4.8-3.4-11.4-12-11.4-12h0Z"/><circle class="cls-6" cx="481.6" cy="952.5" r="1.2"/><circle class="cls-6" cx="482.1" cy="950.8" r=".3"/><path class="cls-6" d="M480.6,953.7c0,.3-.2.5-.5.5s-.5-.2-.5-.5.2-.5.5-.5.5.2.5.5Z"/><path class="cls-6" d="M452.5,955.9c0,.9-.7,1.6-1.6,1.6s-1.6-.7-1.6-1.6.7-1.6,1.6-1.6,1.6.7,1.6,1.6Z"/><path class="cls-6" d="M453.5,953.5c0,.4-.3.7-.7.7s-.7-.3-.7-.7.3-.7.7-.7.7.3.7.7Z"/><path class="cls-4" d="M447.7,943c.2.2.4.5.6.7,1.9,2.2.4,2.5.4,2.5-1.1,1-1.9,2.1-2.5,3.3-2.4,4.8-1.3,10.7-1.3,10.7,0,0,0,0,0,0-2.1-1.6-3.6-4.1-3.7-7-.1-2.3.7-4.5,2-6.2-1.8-2.1-3-4.8-3.1-7.8-.4-7.2,5.2-13.3,12.3-13.6,1.6,0,3.2.1,4.7.7h0c-13.7,2.5-12.1,14-9.3,16.9h0Z"/><path class="cls-4" d="M476.1,932.6h0c-4.7-2-8.8-.2-10.9,1.7-.7.6-6.6,3.1-5.5,1.1,1.9-3.7,3.5-4.3,3.8-4.5,0,0,0,0,0,0h0c1.4-1,3.1-1.7,5-1.7,3-.1,5.8,1.2,7.6,3.4h0Z"/><path class="cls-10" d="M449.8,936.7c0,.7-.6,1.3-1.3,1.3s-1.3-.6-1.3-1.3.6-1.3,1.3-1.3,1.3.6,1.3,1.3Z"/><circle class="cls-10" cx="449.5" cy="934.8" r=".5"/><path class="cls-10" d="M469.2,935.4c0,.6-.5,1.1-1.1,1.1s-1.1-.5-1.1-1.1.5-1.1,1.1-1.1,1.1.5,1.1,1.1Z"/><path class="cls-6" d="M656.4,963.4c.1-.7.2-1.5.2-2.2,0-7.1-5.7-12.8-12.8-12.8s-12.8,5.7-12.8,12.8c-.2,0-.4,0-.5,0-3.8,0-6.9,2.4-8.1,5.7-.9-.6-1.9-1-3.1-1-3,0-5.4,2.4-5.4,5.4s2.4,5.4,5.4,5.4,3.1-.8,4.1-1.9c1.6,2.3,4.2,3.8,7.1,3.8s6.8-2.3,8.1-5.6c1.6.7,3.4,1.1,5.3,1.1,2.7,0,5.2-.8,7.2-2.3,1,1.4,2.6,2.3,4.4,2.3,3,0,5.4-2.4,5.4-5.4s-1.9-4.8-4.4-5.3h0Z"/><path class="cls-7" d="M658,953.1c-.6-3.9-3.9-6.8-7.9-6.8s-1.2,0-1.8.2c0,0-.1,0-.2,0,0,0-.1,0-.2,0,0,0-.1,0-.2,0-.7-2.8-2.1-5.3-4.2-7.2-2.6-2.4-6.1-3.9-9.9-3.9-8,0-14.4,6.5-14.4,14.5s0,.6,0,.9h0c-5.6,0-10.2,4.6-10.2,10.2s.5,3.6,1.4,5.1c1.8,3,5,5.1,8.8,5.1s3.6-.5,5.1-1.4c1.5.9,3.2,1.4,5.1,1.4,3.7,0,6.9-2,8.7-4.9.9,4.7,5.1,8.2,10,8.2s7.9-2.6,9.5-6.4c.4-.1.9-.3,1.3-.5h0c2.6-1.4,4.3-4,4.3-7.1s-2.2-6.4-5.2-7.5h0Z"/><path class="cls-5" d="M652.6,971.2c-1,.8-4.5,3.1-7.8,5.2,0-1.8,1.2-6.4,1.2-6.4-1.9,3.3-2.8,7.4-2.8,7.4-2.4,1.5-4.5,2.8-4.9,3.1,0-2.7-.5-6.7-.9-10.4,1.3-2.3,4.5-7.6,4.5-7.6-1.5,1.2-3.7,4.2-4.7,5.5-.6-5-1.2-9.1-1.2-8.5,0,.8-.3,10.3-.6,17-1.2-1.1-5.7-5.5-6.5-8.5,0,0,2.3,9.5,6.2,10.7,0,0,0,0,.1,0,0,.6,0,1.2,0,1.7-2.1-.8-16-6-17.4-6.7,0,0,7.1,7.2,17.3,8.6,0,.4,0,.7,0,.7h3.2c0-.2,0-.4,0-.7,3.2-.6,16.2-12.9,14.3-11.2h0Z"/><path class="cls-4" d="M620.6,960.6c0,.7-.6,1.3-1.3,1.3s-1.3-.6-1.3-1.3.6-1.3,1.3-1.3,1.3.6,1.3,1.3Z"/><circle class="cls-10" cx="647.6" cy="953.4" r="1"/><path class="cls-10" d="M631.1,949.1c0,.9-.8,1.7-1.7,1.7s-1.7-.8-1.7-1.7.8-1.7,1.7-1.7,1.7.8,1.7,1.7Z"/><path class="cls-10" d="M631.3,946.6c0,.3-.3.6-.6.6s-.6-.3-.6-.6.3-.6.6-.6.6.3.6.6Z"/><path class="cls-6" d="M655.6,961.3c0,1.1-.9,2-2,2s-2-.9-2-2,.9-2,2-2,2,.9,2,2Z"/><path class="cls-6" d="M654.9,958.5c0,.3-.3.6-.6.6s-.6-.3-.6-.6.3-.6.6-.6.6.3.6.6Z"/><path class="cls-6" d="M651.9,963.5c0,.5-.4.9-.9.9s-.9-.4-.9-.9.4-.9.9-.9.9.4.9.9Z"/><path class="cls-6" d="M627.4,965.2c.3-.6,1-.8,1.6-.5s.8,1,.5,1.6c-.3.6-1,.8-1.6.5-.6-.3-.8-1-.5-1.6Z"/><path class="cls-6" d="M625.9,966.4c.1-.2.4-.3.7-.2.2.1.3.4.2.7-.1.2-.4.3-.7.2-.2-.1-.3-.4-.2-.7Z"/><path class="cls-4" d="M643.6,939.4c-9.5-2.4-18,4.6-17.8,8.9.1,2.5,1.6,4.7,1.3,6.2-.2,1.2-1.5,2-5.3,2.2-.3,0-.5,0-.8,0-8.2.9-10.6,9.3-10.6,9.3-.9-1.5-1.4-3.2-1.4-5.1,0-5.6,4.6-10.2,10.2-10.2h0c0-.3,0-.6,0-.9,0-8,6.5-14.5,14.4-14.5s7.3,1.5,9.9,3.9h0Z"/><path class="cls-4" d="M663.2,960.6c0,3.1-1.8,5.8-4.3,7.1.2-.4,3.1-9.8-2.3-11.9-.8-.3-2.6,0-1.4-3.3,1.2-3.1-10.8-1.7-11.3-3.3,0,0,0-.1,0-.2.1-1.6,3-2.3,4.1-2.5,0,0,.2,0,.2,0,.1,0,.2,0,.2,0,.6-.2,1.2-.2,1.8-.2,4,0,7.4,2.9,7.9,6.8,3,1.1,5.2,4.1,5.2,7.5h0Z"/><path class="cls-6" d="M1001.8,961.2c.1-.7.2-1.5.2-2.2,0-7.1-5.7-12.8-12.8-12.8s-12.8,5.7-12.8,12.8c-.2,0-.4,0-.5,0-3.8,0-6.9,2.4-8.1,5.7-.9-.6-1.9-1-3.1-1-3,0-5.4,2.4-5.4,5.4s2.4,5.4,5.4,5.4,3.1-.8,4.1-1.9c1.6,2.3,4.2,3.8,7.1,3.8s6.8-2.3,8.1-5.6c1.6.7,3.4,1.1,5.3,1.1,2.7,0,5.2-.8,7.2-2.3,1,1.4,2.6,2.3,4.4,2.3,3,0,5.4-2.4,5.4-5.4s-1.9-4.8-4.4-5.3h0Z"/><path class="cls-7" d="M1003.4,950.9c-.6-3.9-3.9-6.8-7.9-6.8s-1.2,0-1.8.2c0,0-.1,0-.2,0,0,0-.1,0-.2,0,0,0-.1,0-.2,0-.7-2.8-2.1-5.3-4.2-7.2-2.6-2.4-6.1-3.9-9.9-3.9-8,0-14.4,6.5-14.4,14.5s0,.6,0,.9h0c-5.6,0-10.2,4.6-10.2,10.2s.5,3.6,1.4,5.1c1.8,3,5,5.1,8.8,5.1s3.6-.5,5.1-1.4c1.5.9,3.2,1.4,5.1,1.4,3.7,0,6.9-2,8.7-4.9.9,4.7,5.1,8.2,10,8.2s7.9-2.6,9.5-6.4c.4-.1.9-.3,1.3-.5h0c2.6-1.4,4.3-4,4.3-7.1s-2.2-6.4-5.2-7.5h0Z"/><path class="cls-5" d="M998,969.1c-1,.8-4.5,3.1-7.8,5.2,0-1.8,1.2-6.4,1.2-6.4-1.9,3.3-2.8,7.4-2.8,7.4-2.4,1.5-4.5,2.8-4.9,3.1,0-2.7-.5-6.7-.9-10.4,1.3-2.3,4.5-7.6,4.5-7.6-1.5,1.2-3.7,4.2-4.7,5.5-.6-5-1.2-9.1-1.2-8.5,0,.8-.3,10.3-.6,17-1.2-1.1-5.7-5.5-6.5-8.5,0,0,2.3,9.5,6.2,10.7,0,0,0,0,.1,0,0,.6,0,1.2,0,1.7-2.1-.8-16-6-17.4-6.7,0,0,7.1,7.2,17.3,8.6,0,.4,0,.7,0,.7h3.2c0-.2,0-.4,0-.7,3.2-.6,16.2-12.9,14.3-11.2h0Z"/><circle class="cls-4" cx="964.7" cy="958.4" r="1.3"/><circle class="cls-10" cx="993" cy="951.2" r="1"/><path class="cls-10" d="M976.5,946.9c0,.9-.8,1.7-1.7,1.7s-1.7-.8-1.7-1.7.8-1.7,1.7-1.7,1.7.8,1.7,1.7Z"/><path class="cls-10" d="M976.7,944.4c0,.3-.3.6-.6.6s-.6-.3-.6-.6.3-.6.6-.6.6.3.6.6Z"/><path class="cls-6" d="M1001,959.2c0,1.1-.9,2-2,2s-2-.9-2-2,.9-2,2-2,2,.9,2,2Z"/><path class="cls-6" d="M1000.3,956.3c0,.3-.3.6-.6.6s-.6-.3-.6-.6.3-.6.6-.6.6.3.6.6Z"/><path class="cls-6" d="M997.3,961.4c0,.5-.4.9-.9.9s-.9-.4-.9-.9.4-.9.9-.9.9.4.9.9Z"/><path class="cls-6" d="M972.8,963c.3-.6,1-.8,1.6-.5s.8,1,.5,1.6c-.3.6-1,.8-1.6.5s-.8-1-.5-1.6Z"/><path class="cls-6" d="M971.3,964.3c.1-.2.4-.3.7-.2.2.1.3.4.2.7-.1.2-.4.3-.7.2-.2-.1-.3-.4-.2-.7Z"/><path class="cls-4" d="M989,937.2c-9.5-2.4-18,4.6-17.8,8.9.1,2.5,1.6,4.7,1.3,6.2-.2,1.2-1.5,2-5.3,2.2-.3,0-.5,0-.8,0-8.2.9-10.6,9.3-10.6,9.3-.9-1.5-1.4-3.2-1.4-5.1,0-5.6,4.6-10.2,10.2-10.2h0c0-.3,0-.6,0-.9,0-8,6.5-14.5,14.4-14.5s7.3,1.5,9.9,3.9h0Z"/><path class="cls-4" d="M1008.6,958.4c0,3.1-1.8,5.8-4.3,7.1.2-.4,3.1-9.8-2.3-11.9-.8-.3-2.6,0-1.4-3.3,1.2-3.1-10.8-1.7-11.3-3.3,0,0,0-.1,0-.2.1-1.6,3-2.3,4.1-2.5,0,0,.2,0,.2,0,.1,0,.2,0,.2,0,.6-.2,1.2-.2,1.8-.2,4,0,7.4,2.9,7.9,6.8,3,1.1,5.2,4.1,5.2,7.5h0Z"/><path class="cls-6" d="M1560.1,964.9c.1-.7.2-1.4.2-2.1,0-6.7-5.4-12.2-12.2-12.2s-12.2,5.4-12.2,12.2c-.2,0-.3,0-.5,0-3.6,0-6.6,2.3-7.7,5.5-.8-.6-1.8-.9-2.9-.9-2.8,0-5.1,2.3-5.1,5.1s2.3,5.1,5.1,5.1,2.9-.7,3.9-1.8c1.5,2.2,4,3.6,6.8,3.6s6.5-2.2,7.7-5.3c1.5.7,3.2,1.1,5,1.1,2.6,0,4.9-.8,6.9-2.2.9,1.3,2.4,2.2,4.2,2.2,2.8,0,5.1-2.3,5.1-5.1s-1.8-4.6-4.2-5h0Z"/><path class="cls-7" d="M1561.7,955.2c-.5-3.7-3.7-6.5-7.6-6.5s-1.1,0-1.7.2c0,0-.1,0-.2,0,0,0-.1,0-.2,0,0,0,0,0-.2,0-.6-2.7-2-5.1-4-6.9-2.5-2.3-5.8-3.7-9.4-3.7-7.6,0-13.7,6.2-13.7,13.8s0,.6,0,.9h0c-5.4,0-9.7,4.3-9.7,9.7s.5,3.4,1.3,4.8c1.7,2.9,4.8,4.9,8.4,4.9s3.4-.5,4.9-1.3c1.4.8,3.1,1.3,4.8,1.3,3.5,0,6.5-1.9,8.2-4.7.9,4.4,4.8,7.8,9.5,7.8s7.6-2.5,9-6.1c.4-.1.8-.2,1.2-.5h0c2.4-1.3,4.1-3.8,4.1-6.8s-2.1-6.1-4.9-7.2h0Z"/><path class="cls-5" d="M1556.5,972.4c-.9.8-4.2,3-7.4,5,0-1.7,1.1-6.1,1.1-6.1-1.8,3.1-2.7,7.1-2.7,7.1-2.3,1.5-4.3,2.7-4.7,2.9,0-2.6-.4-6.3-.8-9.9,1.2-2.2,4.2-7.2,4.2-7.2-1.4,1.1-3.5,4-4.5,5.2-.6-4.8-1.2-8.7-1.1-8.1,0,.8-.3,9.8-.6,16.2-1.1-1.1-5.4-5.3-6.2-8.1,0,0,2.2,9,5.9,10.2,0,0,0,0,.1,0,0,.6,0,1.1,0,1.6-2-.7-15.2-5.7-16.5-6.4,0,0,6.8,6.9,16.5,8.2,0,.4,0,.7,0,.7h3c0-.2,0-.4,0-.7,3-.5,15.4-12.2,13.6-10.7h0Z"/><circle class="cls-4" cx="1524.8" cy="962.3" r="1.2"/><path class="cls-10" d="M1552.7,955.4c0,.5-.4,1-1,1s-1-.5-1-1,.4-1,1-1,1,.5,1,1Z"/><path class="cls-10" d="M1536,951.4c0,.9-.7,1.6-1.6,1.6s-1.6-.7-1.6-1.6.7-1.6,1.6-1.6,1.6.7,1.6,1.6Z"/><path class="cls-10" d="M1536.2,948.9c0,.3-.3.6-.6.6s-.6-.3-.6-.6.3-.6.6-.6.6.3.6.6Z"/><path class="cls-6" d="M1559.3,963c0,1.1-.9,1.9-1.9,1.9s-1.9-.9-1.9-1.9.9-1.9,1.9-1.9,1.9.9,1.9,1.9Z"/><circle class="cls-6" cx="1558.2" cy="960.3" r=".5"/><path class="cls-6" d="M1555.8,965.1c0,.5-.4.8-.8.8s-.8-.4-.8-.8.4-.8.8-.8.8.4.8.8Z"/><path class="cls-6" d="M1532.5,966.7c.3-.6.9-.8,1.5-.5.6.3.8,1,.5,1.5-.3.6-.9.8-1.5.5s-.8-1-.5-1.5Z"/><path class="cls-6" d="M1531,967.9c.1-.2.4-.3.6-.2.2.1.3.4.2.6-.1.2-.4.3-.6.2-.2-.1-.3-.4-.2-.6Z"/><path class="cls-4" d="M1547.9,942.1c-9.1-2.3-17.1,4.3-16.9,8.5.1,2.4,1.6,4.5,1.3,6-.2,1.1-1.4,1.9-5.1,2.1-.3,0-.5,0-.7,0-7.8.9-10.1,8.9-10.1,8.9-.8-1.4-1.3-3.1-1.3-4.8,0-5.4,4.4-9.7,9.7-9.7h0c0-.3,0-.6,0-.9,0-7.6,6.2-13.8,13.7-13.8s6.9,1.4,9.4,3.7h0Z"/><path class="cls-4" d="M1566.6,962.3c0,2.9-1.7,5.5-4.1,6.8.2-.4,2.9-9.4-2.2-11.3-.7-.3-2.5,0-1.3-3.1,1.1-3-10.2-1.6-10.8-3.1,0,0,0,0,0-.2.1-1.5,2.9-2.2,3.9-2.4,0,0,.1,0,.2,0,.1,0,.2,0,.2,0,.5-.1,1.1-.2,1.7-.2,3.8,0,7,2.8,7.6,6.5,2.9,1.1,4.9,3.9,4.9,7.2h0Z"/><path class="cls-6" d="M1606.3,956.7c-1.6,0-3,.9-3.8,2.2-1.5-1.4-3.5-2.2-5.8-2.2s-3.6.6-5.1,1.7c-.4-4.5-4.1-8-8.7-8s-4.2.8-5.7,2.2c-1.5-1.3-3.5-2.2-5.7-2.2-4.8,0-8.7,3.9-8.7,8.7s.1,1.4.3,2h0c-2.4,0-4.4,2-4.4,4.4s1.9,4.4,4.4,4.4,3.7-1.4,4.2-3.2c1.3.7,2.8,1.2,4.3,1.2s4.2-.8,5.7-2.2c1.5,1.3,3.5,2.2,5.7,2.2s3.6-.6,5.1-1.7c.4,4.5,4.1,8,8.7,8s8.7-3.9,8.7-8.7h0c.3,0,.5,0,.8,0,2.4,0,4.4-2,4.4-4.4s-1.9-4.4-4.4-4.4h0Z"/><path class="cls-7" d="M1609,953.8c0,4.7-3.9,8.6-8.6,8.6s-4-.8-5.5-2.1c-1.9,1.3-4.3,2.1-6.8,2.1-4.3,0-8.2-2.3-10.3-5.7-1.2,1.9-2.8,3.4-4.8,4.4h0c-1.7.9-3.6,1.4-5.6,1.4-6.7,0-12.2-5.5-12.2-12.2s2.2-8.1,5.6-10.2h0c1.3-.9,2.7-1.4,4.3-1.7-.9-1.9-1.4-3.9-1.4-6.1,0-7.7,6.3-14,14-14s13,5.3,13.9,12.2c0,0,0,0,.1,0,6.7,0,12.2,5.5,12.2,12.2s-.2,2.3-.5,3.3c3.2,1.2,5.6,4.3,5.6,8h0Z"/><circle class="cls-4" cx="1564.2" cy="945.6" r="1.2"/><path class="cls-10" d="M1595.1,941.6c0,.8-.7,1.5-1.5,1.5s-1.5-.7-1.5-1.5.7-1.5,1.5-1.5,1.5.7,1.5,1.5Z"/><path class="cls-10" d="M1573.2,932.7c0,.9-.7,1.6-1.6,1.6s-1.6-.7-1.6-1.6.7-1.6,1.6-1.6,1.6.7,1.6,1.6Z"/><path class="cls-10" d="M1573.4,930.2c0,.3-.3.6-.6.6s-.6-.3-.6-.6.3-.6.6-.6.6.3.6.6Z"/><path class="cls-6" d="M1606.1,955.3c0,1.1-.9,1.9-1.9,1.9s-1.9-.9-1.9-1.9.9-1.9,1.9-1.9,1.9.9,1.9,1.9Z"/><circle class="cls-6" cx="1604.9" cy="952.5" r=".6"/><path class="cls-6" d="M1602.6,957.4c0,.5-.4.9-.9.9s-.9-.4-.9-.9.4-.9.9-.9.9.4.9.9Z"/><path class="cls-6" d="M1572.2,954.7c.3-.6,1-.8,1.5-.5s.8,1,.5,1.5-1,.8-1.5.5-.8-1-.5-1.5Z"/><path class="cls-6" d="M1570.8,955.9c.1-.2.4-.3.6-.2.2.1.3.4.2.6-.1.2-.4.3-.6.2-.2-.1-.3-.4-.2-.6Z"/><path class="cls-10" d="M1603.9,942.5c0,1.2-.2,2.3-.5,3.3,0,0-1.8-7.7-8.3-9.5-6.4-1.8-8.5-2.1-8.5-6.6,0-4.5-19.2-9.2-21.5,8.6-.9-1.9-1.4-3.9-1.4-6.1,0-7.7,6.3-14,14-14s13,5.3,13.9,12.2c0,0,0,0,.1,0,6.7,0,12.2,5.5,12.2,12.2h0Z"/><path class="cls-10" d="M1573.1,961h0c-1.7.9-3.6,1.4-5.6,1.4-6.7,0-12.2-5.5-12.2-12.2s2.2-8.1,5.6-10.2c-7.3,18.1,12.2,21,12.2,21h0Z"/><path class="cls-5" d="M1606.5,961.3c-1.8.7-4.3,1.9-6.9,3.2l-1.5.9c1.4-2.3,1.7-8.5,1.7-8.5-.5,2.9-5,10-5,10h0c-3.1,1.6-5.4,2.8-5.4,2.8h0c-.4-4.4,0-9.9-.5-13.8.1,0,8.4-7.5,8.4-7.5-1.1,1.3-8.7,5.8-8.7,5.8l-5.4-14.3c.4,3.4,2.9,16.8,2.3,23.2-1.2-.3-2.1-.6-3.1-.8.2-1.8-5.8-15.5-5.8-15.5.5.9,3.6,13.1,3.7,14.9-1.3-.4-6.1-3.8-8.7-4.6,1.6,2,10.9,7.9,13.6,9-.3,2.5-.6,5-.8,7.2-5.3-3.2-14.4-6.6-16.6-9.7,1.2,1.9,2.3,5.5,16,13.7-.4,2.9-.7,4.8-.7,4.8h6.6c.2-1.9.2-4.4,0-7.1,4.5-2.1,16.8-13.8,16.8-13.8h0Z"/><path class="cls-6" d="M562,955.8c-1.7,0-3.1.9-3.9,2.3-1.6-1.4-3.6-2.3-5.9-2.3s-3.7.6-5.2,1.7c-.4-4.6-4.2-8.2-8.9-8.2s-4.3.9-5.9,2.2c-1.6-1.4-3.6-2.2-5.9-2.2-4.9,0-9,4-9,9s.1,1.4.3,2.1h0c-2.5,0-4.5,2-4.5,4.5s2,4.5,4.5,4.5,3.8-1.4,4.3-3.3c1.3.8,2.8,1.2,4.4,1.2s4.3-.9,5.9-2.2c1.6,1.4,3.6,2.2,5.9,2.2s3.7-.6,5.2-1.7c.4,4.6,4.2,8.2,8.9,8.2s9-4,9-9h0c.3,0,.5,0,.8,0,2.5,0,4.5-2,4.5-4.5s-2-4.5-4.5-4.5h0Z"/><path class="cls-7" d="M564.7,952.8c0,4.9-4,8.8-8.8,8.8s-4.1-.8-5.7-2.1c-2,1.3-4.4,2.1-7,2.1-4.5,0-8.4-2.4-10.5-5.9-1.2,1.9-2.9,3.5-4.9,4.5h0c-1.7.9-3.6,1.4-5.7,1.4-6.9,0-12.5-5.6-12.5-12.5s2.3-8.3,5.7-10.5h0c1.3-.9,2.8-1.5,4.4-1.8-.9-1.9-1.5-4-1.5-6.3,0-7.9,6.4-14.3,14.4-14.3s13.3,5.4,14.2,12.5c0,0,0,0,.1,0,6.9,0,12.5,5.6,12.5,12.5s-.2,2.3-.5,3.4c3.3,1.3,5.7,4.5,5.7,8.2h0Z"/><path class="cls-4" d="M520,944.5c0,.7-.6,1.2-1.2,1.2s-1.2-.6-1.2-1.2.6-1.2,1.2-1.2,1.2.6,1.2,1.2Z"/><circle class="cls-10" cx="549" cy="940.3" r="1.5"/><circle class="cls-10" cx="526.4" cy="931.2" r="1.7"/><circle class="cls-10" cx="527.7" cy="928.7" r=".6"/><path class="cls-6" d="M561.8,954.4c0,1.1-.9,2-2,2s-2-.9-2-2,.9-2,2-2,2,.9,2,2Z"/><circle class="cls-6" cx="560.6" cy="951.5" r=".6"/><path class="cls-6" d="M558.1,956.5c0,.5-.4.9-.9.9s-.9-.4-.9-.9.4-.9.9-.9.9.4.9.9Z"/><path class="cls-6" d="M527.1,953.7c.3-.6,1-.8,1.6-.5s.8,1,.5,1.6-1,.8-1.6.5-.8-1-.5-1.6Z"/><path class="cls-6" d="M525.6,955c.1-.2.4-.3.7-.2.2.1.3.4.2.7-.1.2-.4.3-.7.2-.2-.1-.3-.4-.2-.7Z"/><path class="cls-10" d="M559.5,941.2c0,1.2-.2,2.3-.5,3.4,0,0-1.9-7.9-8.5-9.7-6.6-1.9-8.7-2.1-8.8-6.8,0-4.7-19.7-9.4-22,8.8-.9-1.9-1.5-4-1.5-6.3,0-7.9,6.4-14.3,14.4-14.3s13.3,5.4,14.2,12.5c0,0,0,0,.1,0,6.9,0,12.5,5.6,12.5,12.5h0Z"/><path class="cls-10" d="M527.9,960.2h0c-1.7.9-3.6,1.4-5.7,1.4-6.9,0-12.5-5.6-12.5-12.5s2.3-8.3,5.7-10.5c-7.5,18.5,12.5,21.5,12.5,21.5h0Z"/><path class="cls-5" d="M562.1,960.5c-1.8.7-4.5,2-7.1,3.3l-1.5.9c1.5-2.3,1.7-8.7,1.7-8.7-.5,2.9-5.1,10.2-5.1,10.2h0c-3.1,1.6-5.5,2.9-5.5,2.9h0c-.4-4.5,0-10.1-.5-14.2.1,0,8.7-7.7,8.7-7.7-1.1,1.4-8.9,6-8.9,6l-5.5-14.7c.4,3.5,3,17.2,2.4,23.8-1.2-.3-2.1-.6-3.1-.9.2-1.8-5.9-15.9-5.9-15.9.5,1,3.6,13.5,3.8,15.3-1.3-.4-6.3-3.9-9-4.7,1.6,2,11.2,8.1,13.9,9.3-.3,2.6-.6,5.1-.9,7.4-5.4-3.2-14.8-6.8-17-9.9,1.2,2,2.3,5.7,16.4,14.1-.4,3-.7,4.9-.7,4.9h6.7c.2-1.9.2-4.5,0-7.3,4.7-2.2,17.2-14.1,17.2-14.1h0Z"/><polygon class="cls-1" points="1340.6 973 1339.7 980.6 1343.7 980.6 1343.3 972.1 1340.6 973"/><polygon class="cls-2" points="1341.1 972.8 1340.3 980.6 1339.7 980.6 1340.6 973 1341.1 972.8"/><polygon class="cls-9" points="1358.4 971.7 1349.2 974.4 1332.3 974.4 1325.1 971 1334.6 965.1 1332.7 964.6 1329.8 963.8 1333.9 960.9 1331.6 960.7 1328.5 960.4 1334.6 954.5 1332.7 953.5 1336.8 948.4 1334.9 949.1 1332.8 950 1337.5 942.8 1336.2 943 1338.4 939.8 1338 939.5 1337.4 939.2 1340.1 935.5 1342 939.1 1341 939.8 1344.2 943.2 1343 943.2 1347.6 948.6 1345.3 948.2 1342.9 948.5 1349.5 953.5 1346.7 955.4 1351.8 958.9 1347.2 960.1 1347.7 961.6 1354.2 966.4 1352 966.4 1358.4 971.7"/><polygon class="cls-8" points="1358.4 971.7 1349.2 974.4 1332.3 974.4 1348.2 969.8 1340.3 966.1 1343.6 963.3 1338.9 961.3 1343.3 954.9 1344.1 954 1340.3 953.6 1340.3 950.5 1341.7 946.5 1337.5 946.1 1340.3 941.8 1339.5 940.3 1340.1 935.5 1342 939.1 1341 939.8 1344.2 943.2 1343 943.2 1347.6 948.6 1345.3 948.2 1342.9 948.5 1349.5 953.5 1346.7 955.4 1351.8 958.9 1347.2 960.1 1347.7 961.6 1354.2 966.4 1352 966.4 1358.4 971.7"/><polygon class="cls-3" points="1332.8 950 1337.5 942.8 1336.9 946.1 1334.9 949.1 1332.8 950"/><polygon class="cls-3" points="1333.9 960.9 1336.9 959.8 1338.9 961.3 1330.4 963.9 1329.8 963.8 1333.9 960.9"/><polygon class="cls-3" points="1339.9 948.5 1333.3 953.8 1332.7 953.5 1336.8 948.4 1339.9 948.5"/><polygon class="cls-3" points="1339.5 940.3 1337.5 942.8 1336.2 943 1338.4 939.8 1339.3 939.5 1339.5 940.3"/><polygon class="cls-3" points="1338 939.5 1337.4 939.2 1340.1 935.5 1339.5 937.5 1338 939.5"/><polygon class="cls-3" points="1334.6 965.1 1340.3 966.1 1325.1 971 1334.6 965.1"/><polygon class="cls-3" points="1328.5 960.4 1334.6 954.5 1340.3 954.9 1335.7 956.9 1331.6 960.7 1328.5 960.4"/><polygon class="cls-1" points="1310.9 969.9 1309.6 981.1 1315.6 981.1 1315 968.5 1310.9 969.9"/><polygon class="cls-2" points="1311.8 969.6 1310.5 981.1 1309.6 981.1 1310.9 969.9 1311.8 969.6"/><polygon class="cls-9" points="1337.3 967.8 1323.7 972 1298.7 972 1288 966.9 1302.1 958 1299.2 957.2 1295 956 1301 951.8 1297.7 951.4 1293.1 950.9 1302.1 942.1 1299.3 940.7 1305.3 933 1302.5 934.1 1299.4 935.4 1306.3 924.7 1304.4 925 1307.8 920.2 1307.1 919.8 1306.3 919.3 1310.2 913.7 1313 919.1 1311.6 920.2 1316.4 925.2 1314.6 925.2 1321.3 933.4 1317.9 932.8 1314.4 933.2 1324.2 940.7 1320 943.5 1327.5 948.8 1320.7 950.6 1321.5 952.8 1331 960 1327.8 960 1337.3 967.8"/><polygon class="cls-8" points="1337.3 967.8 1323.7 972 1298.7 972 1322.3 965 1310.5 959.5 1315.4 955.3 1308.5 952.3 1314.9 942.8 1316.2 941.4 1310.5 940.8 1310.5 936.1 1312.7 930.2 1306.4 929.6 1310.5 923.2 1309.4 920.9 1310.2 913.7 1313 919.1 1311.6 920.2 1316.4 925.2 1314.6 925.2 1321.3 933.4 1317.9 932.8 1314.4 933.2 1324.2 940.7 1320 943.5 1327.5 948.8 1320.7 950.6 1321.5 952.8 1331 960 1327.8 960 1337.3 967.8"/><polygon class="cls-3" points="1299.4 935.4 1306.3 924.7 1305.6 929.7 1302.5 934.1 1299.4 935.4"/><polygon class="cls-3" points="1301 951.8 1305.4 950.1 1308.5 952.3 1295.9 956.3 1295 956 1301 951.8"/><polygon class="cls-3" points="1309.9 933.1 1300.2 941.1 1299.3 940.7 1305.3 933 1309.9 933.1"/><polygon class="cls-3" points="1309.4 920.9 1306.3 924.7 1304.4 925 1307.8 920.2 1309.1 919.8 1309.4 920.9"/><polygon class="cls-3" points="1307.1 919.8 1306.3 919.3 1310.2 913.7 1309.4 916.8 1307.1 919.8"/><polygon class="cls-3" points="1302.1 958 1310.5 959.5 1288 966.9 1302.1 958"/><polygon class="cls-3" points="1293.1 950.9 1302.1 942.1 1310.5 942.8 1303.7 945.7 1297.7 951.4 1293.1 950.9"/><polygon class="cls-1" points="1326.3 972.6 1325.3 981.2 1330 981.2 1329.6 971.5 1326.3 972.6"/><polygon class="cls-2" points="1327 972.3 1326 981.2 1325.3 981.2 1326.3 972.6 1327 972.3"/><polygon class="cls-9" points="1347.3 971 1336.5 974.2 1316.6 974.2 1308.1 970.2 1319.3 963.5 1317 962.9 1313.7 962 1318.4 958.7 1315.8 958.4 1312.1 958.1 1319.3 951.3 1317.1 950.2 1321.8 944.3 1319.6 945.2 1317.1 946.2 1322.7 938 1321.2 938.2 1323.8 934.6 1323.3 934.3 1322.6 933.8 1325.7 929.6 1328 933.7 1326.8 934.6 1330.7 938.4 1329.2 938.4 1334.5 944.7 1331.9 944.2 1329.1 944.5 1336.9 950.2 1333.5 952.4 1339.5 956.4 1334.1 957.8 1334.8 959.5 1342.3 965 1339.7 965 1347.3 971"/><polygon class="cls-8" points="1347.3 971 1336.5 974.2 1316.6 974.2 1335.3 968.8 1326 964.6 1329.9 961.4 1324.4 959.1 1329.5 951.9 1330.5 950.8 1326 950.3 1326 946.7 1327.7 942.2 1322.7 941.7 1326 936.8 1325.1 935.1 1325.7 929.6 1328 933.7 1326.8 934.6 1330.7 938.4 1329.2 938.4 1334.5 944.7 1331.9 944.2 1329.1 944.5 1336.9 950.2 1333.5 952.4 1339.5 956.4 1334.1 957.8 1334.8 959.5 1342.3 965 1339.7 965 1347.3 971"/><polygon class="cls-3" points="1317.1 946.2 1322.7 938 1322.1 941.8 1319.6 945.2 1317.1 946.2"/><polygon class="cls-3" points="1318.4 958.7 1322 957.5 1324.4 959.1 1314.4 962.2 1313.7 962 1318.4 958.7"/><polygon class="cls-3" points="1325.5 944.4 1317.8 950.5 1317.1 950.2 1321.8 944.3 1325.5 944.4"/><polygon class="cls-3" points="1325.1 935.1 1322.7 938 1321.2 938.2 1323.8 934.6 1324.8 934.3 1325.1 935.1"/><polygon class="cls-3" points="1323.3 934.3 1322.6 933.8 1325.7 929.6 1325.1 932 1323.3 934.3"/><polygon class="cls-3" points="1319.3 963.5 1326 964.6 1308.1 970.2 1319.3 963.5"/><polygon class="cls-3" points="1312.1 958.1 1319.3 951.3 1326 951.9 1320.6 954 1315.8 958.4 1312.1 958.1"/><polygon class="cls-1" points="1284.4 971.5 1283.2 982.3 1288.3 982.3 1287.8 970.1 1284.4 971.5"/><polygon class="cls-2" points="1285.1 971.2 1284 982.3 1283.2 982.3 1284.4 971.5 1285.1 971.2"/><polygon class="cls-9" points="1306.8 969.5 1295.2 973.5 1273.9 973.5 1264.8 968.5 1276.9 960 1274.4 959.2 1270.8 958.1 1275.9 954 1273.1 953.6 1269.2 953.2 1276.9 944.7 1274.5 943.3 1279.6 935.8 1277.2 937 1274.5 938.2 1280.4 927.8 1278.9 928.1 1281.7 923.5 1281.1 923.1 1280.4 922.6 1283.7 917.2 1286.1 922.4 1284.9 923.5 1289 928.3 1287.4 928.3 1293.1 936.3 1290.3 935.6 1287.3 936 1295.6 943.3 1292.1 946 1298.5 951.1 1292.7 952.8 1293.4 955 1301.4 961.9 1298.7 961.9 1306.8 969.5"/><polygon class="cls-8" points="1306.8 969.5 1295.2 973.5 1273.9 973.5 1294 966.7 1284 961.4 1288.1 957.4 1282.3 954.5 1287.8 945.3 1288.8 943.9 1284 943.4 1284 938.9 1285.8 933.2 1280.5 932.5 1284 926.4 1283.1 924.2 1283.7 917.2 1286.1 922.4 1284.9 923.5 1289 928.3 1287.4 928.3 1293.1 936.3 1290.3 935.6 1287.3 936 1295.6 943.3 1292.1 946 1298.5 951.1 1292.7 952.8 1293.4 955 1301.4 961.9 1298.7 961.9 1306.8 969.5"/><polygon class="cls-3" points="1274.5 938.2 1280.4 927.8 1279.8 932.6 1277.2 937 1274.5 938.2"/><polygon class="cls-3" points="1275.9 954 1279.7 952.4 1282.3 954.5 1271.6 958.3 1270.8 958.1 1275.9 954"/><polygon class="cls-3" points="1283.5 936 1275.2 943.7 1274.5 943.3 1279.6 935.8 1283.5 936"/><polygon class="cls-3" points="1283.1 924.2 1280.4 927.8 1278.9 928.1 1281.7 923.5 1282.8 923.1 1283.1 924.2"/><polygon class="cls-3" points="1281.1 923.1 1280.4 922.6 1283.7 917.2 1283.1 920.2 1281.1 923.1"/><polygon class="cls-3" points="1276.9 960 1284 961.4 1264.8 968.5 1276.9 960"/><polygon class="cls-3" points="1269.2 953.2 1276.9 944.7 1284 945.3 1278.2 948.1 1273.1 953.6 1269.2 953.2"/><path class="cls-6" d="M1283.2,924.6c-.5-8.4-7.7-14.9-16.2-14.5-8.5.4-15.1,7.7-14.7,16.2,0,2.1.6,4.1,1.5,6-.5.6-1,1.3-1.4,2-1.3-1.5-2.8-2.7-4.6-3.6-1.5-7.3-8.2-12.7-15.9-12.3-8.5.4-15.1,7.7-14.7,16.2.3,5.6,3.5,10.3,8.1,12.8-.9.8-1.5,2-1.5,3.3,0,2.4,2,4.4,4.4,4.4s.9,0,1.3-.2c2.8,3.1,6.8,5,11.3,5s8.4-1.9,11.3-4.9c.9.4,1.9.7,3,.7,1.6,0,3.1-.6,4.3-1.5,1.5.6,3.2.9,4.9.9,3.5,0,6.7-1.3,9.2-3.5,1.5.5,3,.8,4.7.8,7.9,0,14.3-6.4,14.3-14.3s-3.9-11.4-9.3-13.4h0Z"/><path class="cls-7" d="M1279.4,915.2c-.7-3.3-2.5-6.2-4.9-8.3-.5-2.5-1.6-4.8-3.2-6.6-3-3.6-7.6-5.9-12.7-5.6-3.1.2-5.9,1.2-8.2,2.9h0c-2.7-3.7-6.4-6.5-10.9-8-2.4-.8-5.1-1.2-7.8-1.1-11.9.6-21.1,10.7-20.6,22.7.2,5,2.2,9.5,5.2,13-2.3,2.8-3.6,6.5-3.4,10.4.2,4.8,2.6,9,6.2,11.7,0,0,0,0,0,0,2.8,2.1,6.2,3.2,9.9,3,5.1-.2,9.5-3,12.2-7,2.8,2.1,6.3,3.3,10.1,3.1,4.7-.2,8.7-2.5,11.4-5.9,3,3.8,7.7,6.2,12.9,5.9,8.5-.4,15.1-7.7,14.7-16.2-.3-6.7-4.8-12.1-10.8-14h0Z"/><path class="cls-5" d="M1231,943.8c3.2,2.5,14.3,11.3,19.3,15.3l.5-8.5c-3.4-1.8-10.4-13.7-12.8-17.9,2.8,4.2,9.4,9.1,13.2,11.8l1.7-27.6s1.4,5,2.7,9.5c.9-2.1,5.5-12.1,6.6-13.4,0,0-2.5,11.6-5.5,17.7.4,1.8.9,9,1.4,17.5.7-.8,1.6-1.9,2.8-3.2-.4-1.8,3.2-15.8,3.2-15.8-.4,2.2-.2,9.8-.1,12.5,4.6-4.7,9.7-9.7,9.7-9.7-2,2.6-15.1,25.3-15.1,25.3h0c.7,13.5,1.2,26.9,1.2,26.9h-10.9l1.2-20.4c-8-5.7-19-20.1-19-20.1h0Z"/><path class="cls-6" d="M1282.5,933.3c0,1.1-.9,2-2,2s-2-.9-2-2,.9-2,2-2,2,.9,2,2Z"/><path class="cls-6" d="M1281.8,930.5c0,.3-.2.6-.6.6s-.6-.2-.6-.6.2-.6.6-.6.6.2.6.6Z"/><path class="cls-6" d="M1278.8,935.5c0,.5-.4.9-.9.9s-.9-.4-.9-.9.4-.9.9-.9.9.4.9.9Z"/><path class="cls-6" d="M1231.9,939.1c0,1.5-1.2,2.6-2.6,2.6s-2.6-1.2-2.6-2.6,1.2-2.6,2.6-2.6,2.6,1.2,2.6,2.6Z"/><path class="cls-6" d="M1233.6,935.1c0,.6-.5,1.1-1.1,1.1s-1.1-.5-1.1-1.1.5-1.1,1.1-1.1,1.1.5,1.1,1.1Z"/><path class="cls-4" d="M1223.8,917.6c.4.4.7.8,1,1.1,3.2,3.7.6,4.3.6,4.3-1.8,1.6-3.2,3.4-4.2,5.4-4,8-2.2,17.8-2.2,17.8,0,0,0,0,0,0-3.6-2.7-6-6.8-6.2-11.7-.2-3.9,1.1-7.6,3.4-10.4-3-3.5-4.9-8-5.2-13-.6-12,8.6-22.1,20.6-22.7,2.7-.1,5.4.2,7.8,1.1h0c-22.8,4.2-20.3,23.4-15.6,28.1h0Z"/><path class="cls-4" d="M1271.3,900.2h0c-7.8-3.3-14.7-.4-18.1,2.9-1.1,1.1-11,5.2-9.2,1.9,3.2-6.1,5.8-7.2,6.3-7.4,0,0,0,0,0,0h0c2.3-1.7,5.2-2.8,8.2-2.9,5.1-.2,9.7,2,12.7,5.6Z"/><path class="cls-10" d="M1227.4,907.1c0,1.2-.9,2.1-2.1,2.1s-2.1-.9-2.1-2.1.9-2.1,2.1-2.1,2.1.9,2.1,2.1Z"/><path class="cls-10" d="M1227.6,903.9c0,.4-.3.8-.8.8s-.8-.3-.8-.8.3-.8.8-.8.8.3.8.8Z"/><circle class="cls-10" cx="1258" cy="904.8" r="1.8"/><path class="cls-6" d="M1232.9,961.9c.1-.8.2-1.7.2-2.5,0-8-6.5-14.5-14.5-14.5s-14.5,6.5-14.5,14.5c-.2,0-.4,0-.6,0-4.2,0-7.8,2.7-9.2,6.5-1-.7-2.2-1.1-3.5-1.1-3.4,0-6.1,2.7-6.1,6.1s2.7,6.1,6.1,6.1,3.5-.8,4.6-2.2c1.8,2.6,4.7,4.2,8.1,4.2s7.8-2.6,9.2-6.3c1.8.8,3.8,1.3,6,1.3,3.1,0,5.9-1,8.2-2.6,1.1,1.6,2.9,2.6,5,2.6,3.4,0,6.1-2.7,6.1-6.1s-2.2-5.5-5-6h0Z"/><path class="cls-7" d="M1234.7,950.3c-.6-4.4-4.4-7.7-9-7.7s-1.4,0-2,.2c0,0-.1,0-.2,0,0,0-.1,0-.2,0,0,0-.1,0-.2,0-.8-3.2-2.4-6-4.8-8.2-2.9-2.8-6.9-4.4-11.2-4.4-9,0-16.4,7.3-16.4,16.4s0,.7,0,1h0c-6.4,0-11.6,5.2-11.6,11.6s.6,4.1,1.6,5.8c2,3.5,5.7,5.8,10,5.8s4.1-.6,5.8-1.6c1.7,1,3.7,1.6,5.8,1.6,4.2,0,7.8-2.2,9.8-5.5,1.1,5.3,5.7,9.3,11.3,9.3s9-3,10.7-7.2c.5-.2,1-.3,1.4-.5h0c2.9-1.6,4.9-4.6,4.9-8.1s-2.5-7.2-5.9-8.5h0Z"/><path class="cls-5" d="M1228.6,970.8c-1.1.9-5.1,3.5-8.8,5.9.1-2,1.3-7.3,1.3-7.3-2.2,3.7-3.2,8.4-3.2,8.4-2.8,1.8-5.1,3.2-5.6,3.5,0-3.1-.5-7.6-1-11.8,1.5-2.6,5.1-8.6,5.1-8.6-1.7,1.4-4.2,4.7-5.3,6.2-.7-5.7-1.4-10.3-1.3-9.7,0,.9-.4,11.7-.7,19.3-1.3-1.3-6.4-6.3-7.3-9.7,0,0,2.6,10.7,7.1,12.2,0,0,0,0,.2,0,0,.7,0,1.3,0,1.9-2.3-.9-18.2-6.8-19.7-7.6,0,0,8.1,8.2,19.6,9.8,0,.5,0,.8,0,.8h3.6c0-.2,0-.5,0-.8,3.6-.6,18.4-14.6,16.2-12.7h0Z"/><path class="cls-4" d="M1192.2,958.8c0,.8-.7,1.4-1.4,1.4s-1.4-.7-1.4-1.4.7-1.4,1.4-1.4,1.4.7,1.4,1.4Z"/><circle class="cls-10" cx="1222.9" cy="950.6" r="1.2"/><path class="cls-10" d="M1204.1,945.7c0,1-.8,1.9-1.9,1.9s-1.9-.8-1.9-1.9.8-1.9,1.9-1.9,1.9.8,1.9,1.9Z"/><path class="cls-10" d="M1204.3,942.8c0,.4-.3.7-.7.7s-.7-.3-.7-.7.3-.7.7-.7.7.3.7.7Z"/><path class="cls-6" d="M1232,959.6c0,1.3-1,2.3-2.3,2.3s-2.3-1-2.3-2.3,1-2.3,2.3-2.3,2.3,1,2.3,2.3Z"/><path class="cls-6" d="M1231.2,956.3c0,.4-.3.7-.7.7s-.7-.3-.7-.7.3-.7.7-.7.7.3.7.7Z"/><path class="cls-6" d="M1227.7,962.1c0,.6-.5,1-1,1s-1-.5-1-1,.5-1,1-1,1,.5,1,1Z"/><path class="cls-6" d="M1199.9,964c.3-.7,1.1-.9,1.8-.6.7.3.9,1.1.6,1.8-.3.7-1.1.9-1.8.6-.7-.3-.9-1.1-.6-1.8Z"/><path class="cls-6" d="M1198.2,965.4c.1-.3.5-.4.8-.3.3.1.4.5.3.8-.1.3-.5.4-.8.3-.3-.1-.4-.5-.3-.8Z"/><path class="cls-4" d="M1218.3,934.7c-10.8-2.8-20.4,5.2-20.2,10.1.1,2.8,1.9,5.3,1.5,7.1-.3,1.4-1.7,2.2-6.1,2.5-.3,0-.6,0-.9,0-9.3,1-12,10.6-12,10.6-1-1.7-1.6-3.7-1.6-5.8,0-6.4,5.2-11.6,11.6-11.6h0c0-.3,0-.7,0-1,0-9.1,7.3-16.4,16.4-16.4s8.3,1.7,11.2,4.4h0Z"/><path class="cls-4" d="M1240.6,958.8c0,3.5-2,6.5-4.9,8.1.3-.4,3.5-11.2-2.6-13.5-.9-.3-3,0-1.6-3.7,1.3-3.5-12.2-1.9-12.9-3.8,0,0,0-.1,0-.2.1-1.8,3.4-2.6,4.7-2.9,0,0,.2,0,.2,0,.1,0,.2,0,.2,0,.6-.2,1.3-.2,2-.2,4.6,0,8.3,3.3,9,7.7,3.4,1.3,5.9,4.6,5.9,8.5h0Z"/><path class="cls-6" d="M282.4,952.9c-4.4-6.4-2.9-15.1,3.5-19.5,5.4-3.8,12.6-3.2,17.3,1,1-1.8,2.4-3.4,4.2-4.7,6.4-4.4,15.1-2.9,19.5,3.5.5.7.8,1.4,1.2,2.1,1.4-1.2,3-2.2,4.9-2.8,3.5-1.1,7-.7,10,.8.8-1.2,2-2.2,3.6-2.7,3.6-1.2,7.5.8,8.6,4.5s-.9,7.5-4.5,8.7c0,0-.2,0-.2,0,.8,6.3-3,12.5-9.3,14.5-6.5,2-13.2-1-16.2-6.9-.5.5-1,.9-1.5,1.3-1.6,1.1-3.3,1.8-5.1,2.2-1,1.8-2.4,3.5-4.2,4.8-4.1,2.9-9.2,3.2-13.5,1.4-.5,2.3-2.2,4.3-4.6,5-3.6,1.2-7.5-.8-8.6-4.5-.5-1.5-.4-3.1.1-4.5-1.9-1-3.7-2.4-5-4.3h0Z"/><path class="cls-7" d="M347.6,926.8h0c.9,1.9,1.5,3.9,1.5,6.1,0,7.4-6,13.4-13.4,13.4s-2.2-.2-3.2-.4c-1.8.6-3.7.9-5.7.9-4.8,0-9.2-1.8-12.5-4.8-2.4,6-8.3,10.2-15.2,10.2s-14.1-5.2-15.9-12.4c-.4-1.3-.5-2.6-.5-4,0-7.7,5.3-14.2,12.5-15.9-1.5-2.6-2.4-5.7-2.4-9,0-9.8,7.9-17.8,17.8-17.8s4.9.5,7.1,1.5c5.4,2.3,9.3,7.2,10.4,13,1.7-1.2,3.7-1.9,5.8-2.2.1,0,.2,0,.4,0,.7,0,1,0,1,0h0c1.5,0,3.1.1,4.6.6,2.9.9,5.3,2.7,7,4.9h0c2.6,3.5,3.6,8.2,2.2,12.7,0,.2-.1.3-.2.5h0c-.3.9-.8,1.8-1.2,2.5,0,0,0,.2-.1.2h0s0,0,0,0Z"/><circle class="cls-4" cx="295.2" cy="932" r="1.6"/><path class="cls-10" d="M305,920.5c2.1,1.6,4,2.2,4,2.2,0,0-.8,3.3-7.9,3.3s-1.3,0-2,0c-9-.7-15.9,13.9-15.9,13.9-.4-1.3-.5-2.6-.5-4,0-7.7,5.3-14.2,12.5-15.9-1.5-2.6-2.4-5.7-2.4-9,0-9.8,7.9-17.8,17.8-17.8s4.9.5,7.1,1.5c-8,1.8-17.5,7.5-17.6,16.3,0,4.7,2.5,7.7,4.9,9.5h0Z"/><circle class="cls-10" cx="329.7" cy="916.5" r="1.9"/><path class="cls-10" d="M307.3,907.6c0,1.2-1,2.1-2.1,2.1s-2.1-1-2.1-2.1,1-2.1,2.1-2.1,2.1,1,2.1,2.1Z"/><path class="cls-10" d="M307.5,904.4c0,.4-.4.8-.8.8s-.8-.3-.8-.8.4-.8.8-.8.8.3.8.8Z"/><path class="cls-5" d="M333.3,935.8c.3-.5.6-.9.8-1.3,0,0-.3.5-.8,1.3Z"/><path class="cls-5" d="M339.6,946c-3,2.3-13,10.3-17.6,13.9l-.5-7.8c3.1-1.7,9.5-12.5,11.7-16.3-2.5,3.8-8.6,8.3-12.1,10.7l-1.5-25.2s-2.3,8-3.4,12.6c0,0-5.1-11.3-6.1-12.6,0,0,2.6,11.9,5.5,17,0,0,0,.1.1.2-.2,3-.5,7-.7,11.3-.5-.7-1.3-1.6-2.3-2.6,0,0,0,0,0,0,.4-1.5-2.9-14.4-2.9-14.4.4,2,.2,9.2.1,11.6-4.2-4.4-9.2-9.2-9.2-9.2,1.9,2.4,13.8,23.1,13.8,23.1-.6,12.3-1.1,24.6-1.1,24.6h10l-1.1-18.6c7.3-5.2,17.3-18.3,17.3-18.3h0Z"/><path class="cls-6" d="M343.1,935.4c0,1.4-1.1,2.6-2.6,2.6s-2.6-1.1-2.6-2.6,1.1-2.6,2.6-2.6,2.6,1.2,2.6,2.6Z"/><circle class="cls-6" cx="341.6" cy="931.7" r=".7"/><path class="cls-6" d="M338.4,938.2c0,.6-.5,1.1-1.1,1.1s-1.1-.5-1.1-1.1.5-1.1,1.1-1.1,1.1.5,1.1,1.1Z"/><path class="cls-6" d="M298.6,947.8c.4-.8,1.3-1.1,2-.7s1.1,1.3.7,2-1.3,1.1-2,.7-1.1-1.3-.7-2Z"/><path class="cls-6" d="M296.7,949.4c.1-.3.5-.4.8-.3s.4.5.3.8-.5.4-.8.3-.4-.5-.3-.8Z"/><path class="cls-10" d="M349.2,923.5c0,.2-.1.3-.2.5h0c-.6,1.2-1,2.1-1.2,2.5,0,0,0,.2-.1.2.2-1.1,3.7-19.7-24.4-14.4,0,0,2-3.3,4.9-4.7,1.7-1.2,3.7-1.9,5.8-2.2.1,0,.2,0,.4,0,.7,0,1,0,1,0h0c1.5,0,3.1.1,4.6.6,2.9.9,5.3,2.7,7,4.9h0c2.6,3.5,3.6,8.2,2.2,12.7h0Z"/><path class="cls-6" d="M293.9,949.2c-.3-5.3-4.8-9.3-10.1-9-5.3.3-9.4,4.8-9.1,10.1,0,1.3.4,2.6.9,3.7-.3.4-.6.8-.9,1.3-.8-.9-1.8-1.7-2.9-2.2-.9-4.6-5.1-7.9-9.9-7.7-5.3.3-9.4,4.8-9.1,10.1.2,3.5,2.2,6.4,5,8-.6.5-.9,1.2-.9,2,0,1.5,1.2,2.8,2.8,2.8s.5,0,.8-.1c1.8,1.9,4.3,3.1,7.1,3.1s5.3-1.2,7-3.1c.6.3,1.2.4,1.9.4,1,0,1.9-.4,2.7-.9,1,.4,2,.6,3.1.6,2.2,0,4.2-.8,5.7-2.2.9.3,1.9.5,2.9.5,4.9,0,8.9-4,8.9-8.9s-2.4-7.1-5.8-8.3h0Z"/><path class="cls-7" d="M291.5,943.3c-.5-2.1-1.6-3.8-3.1-5.2-.3-1.5-1-3-2-4.1-1.9-2.3-4.8-3.7-7.9-3.5-1.9,0-3.7.7-5.1,1.8h0c-1.6-2.3-4-4.1-6.8-5-1.5-.5-3.2-.8-4.9-.7-7.4.4-13.2,6.7-12.8,14.1.1,3.1,1.3,5.9,3.2,8.1-1.4,1.8-2.2,4-2.1,6.5.1,3,1.6,5.6,3.9,7.3,0,0,0,0,0,0,1.7,1.3,3.9,2,6.2,1.9,3.2-.2,5.9-1.9,7.6-4.3,1.7,1.3,3.9,2,6.3,1.9,2.9-.1,5.4-1.6,7.1-3.7,1.9,2.4,4.8,3.8,8,3.7,5.3-.3,9.4-4.8,9.1-10.1-.2-4.1-3-7.5-6.7-8.7h0Z"/><path class="cls-5" d="M261.4,961.2c2,1.6,8.9,7,12,9.5l.3-5.3c-2.1-1.1-6.5-8.5-8-11.1,1.7,2.6,5.9,5.7,8.2,7.3l1.1-17.2s.9,3.1,1.6,5.9c.6-1.3,3.4-7.5,4.1-8.3,0,0-1.6,7.2-3.4,11,.2,1.1.6,5.6.9,10.9.4-.5,1-1.2,1.7-2-.2-1.1,2-9.8,2-9.8-.3,1.4-.1,6.1,0,7.8,2.8-2.9,6.1-6.1,6.1-6.1-1.3,1.6-9.4,15.7-9.4,15.7h0c.4,8.4.8,16.8.8,16.8h-6.8l.8-12.7c-5-3.5-11.8-12.5-11.8-12.5h0Z"/><path class="cls-6" d="M293.5,954.6c0,.7-.5,1.2-1.2,1.2s-1.2-.5-1.2-1.2.5-1.2,1.2-1.2,1.2.5,1.2,1.2Z"/><path class="cls-6" d="M293.1,952.9c0,.2-.1.3-.4.3s-.4-.2-.4-.3.1-.3.4-.3.4.2.4.3Z"/><path class="cls-6" d="M291.2,956c0,.3-.2.5-.5.5s-.5-.2-.5-.5.2-.5.5-.5.5.2.5.5Z"/><path class="cls-6" d="M262,958.2c0,.9-.7,1.6-1.6,1.6s-1.6-.7-1.6-1.6.7-1.6,1.6-1.6,1.6.7,1.6,1.6Z"/><path class="cls-6" d="M263,955.7c0,.4-.3.7-.7.7s-.7-.3-.7-.7.3-.7.7-.7.7.3.7.7Z"/><path class="cls-4" d="M257,944.8c.2.2.5.5.6.7,2,2.3.4,2.7.4,2.7-1.1,1-2,2.1-2.6,3.4-2.5,5-1.4,11.1-1.4,11.1,0,0,0,0,0,0-2.2-1.7-3.7-4.3-3.9-7.3-.1-2.4.7-4.7,2.1-6.5-1.9-2.2-3.1-5-3.2-8.1-.4-7.4,5.4-13.8,12.8-14.1,1.7,0,3.4.2,4.9.7h0c-14.2,2.6-12.6,14.5-9.7,17.5h0Z"/><path class="cls-4" d="M286.5,934h0c-4.9-2-9.1-.3-11.3,1.8-.7.7-6.8,3.2-5.8,1.2,2-3.8,3.6-4.5,4-4.6,0,0,0,0,0,0h0c1.5-1.1,3.2-1.7,5.1-1.8,3.2-.2,6,1.2,7.9,3.5h0Z"/><circle class="cls-10" cx="257.9" cy="938.3" r="1.3"/><path class="cls-10" d="M259.3,936.3c0,.3-.2.5-.5.5s-.5-.2-.5-.5.2-.5.5-.5.5.2.5.5Z"/><path class="cls-10" d="M279.4,936.9c0,.6-.5,1.1-1.1,1.1s-1.1-.5-1.1-1.1.5-1.1,1.1-1.1,1.1.5,1.1,1.1Z"/><path class="cls-6" d="M396.3,958.3c.2-.9.3-1.9.3-2.9,0-9.2-7.4-16.6-16.6-16.6s-16.6,7.4-16.6,16.6c-.2,0-.5,0-.7,0-4.9,0-9,3.1-10.5,7.5-1.1-.8-2.5-1.3-4-1.3-3.8,0-7,3.1-7,7s3.1,7,7,7,4-1,5.3-2.5c2,2.9,5.4,4.9,9.2,4.9s8.9-3,10.5-7.3c2.1.9,4.4,1.5,6.8,1.5,3.5,0,6.7-1.1,9.4-2.9,1.3,1.8,3.3,3,5.7,3,3.8,0,7-3.1,7-7s-2.5-6.3-5.8-6.8h0Z"/><path class="cls-7" d="M398.4,945c-.7-5-5.1-8.8-10.3-8.8s-1.6,0-2.3.3c0,0-.2,0-.2,0,0,0-.2,0-.3,0,0,0-.1,0-.2,0-.9-3.7-2.8-6.9-5.5-9.4-3.4-3.2-7.9-5.1-12.8-5.1-10.4,0-18.7,8.4-18.7,18.8s0,.8,0,1.2h0c-7.3,0-13.3,5.9-13.3,13.2s.7,4.7,1.8,6.6c2.3,4,6.6,6.6,11.5,6.6s4.7-.7,6.6-1.8c2,1.1,4.2,1.8,6.6,1.8,4.8,0,8.9-2.5,11.3-6.3,1.2,6.1,6.6,10.6,13,10.6s10.3-3.4,12.3-8.3c.6-.2,1.1-.3,1.6-.6h0c3.3-1.8,5.6-5.2,5.6-9.3s-2.8-8.3-6.8-9.8h0Z"/><path class="cls-5" d="M391.4,968.5c-1.2,1.1-5.8,4-10.1,6.8.1-2.3,1.5-8.3,1.5-8.3-2.5,4.2-3.6,9.7-3.6,9.7-3.2,2-5.8,3.7-6.4,4-.1-3.5-.6-8.7-1.2-13.6,1.7-3,5.8-9.8,5.8-9.8-1.9,1.6-4.8,5.4-6.1,7.2-.8-6.5-1.6-11.8-1.5-11.1,0,1-.4,13.4-.8,22.1-1.5-1.4-7.4-7.2-8.4-11,0,0,3,12.3,8.1,13.9,0,0,.1,0,.2,0,0,.8,0,1.5-.1,2.2-2.7-1-20.8-7.7-22.6-8.7,0,0,9.2,9.4,22.5,11.2,0,.6,0,.9,0,.9h4.1c0-.3,0-.6,0-.9,4.1-.7,21-16.7,18.5-14.6h0Z"/><path class="cls-4" d="M349.7,954.7c0,.9-.7,1.7-1.6,1.7s-1.6-.7-1.6-1.7.7-1.7,1.6-1.7,1.6.7,1.6,1.7Z"/><path class="cls-10" d="M386.2,945.4c0,.8-.6,1.4-1.4,1.4s-1.4-.6-1.4-1.4.6-1.4,1.4-1.4,1.4.6,1.4,1.4Z"/><path class="cls-10" d="M363.4,939.8c0,1.2-1,2.2-2.2,2.2s-2.2-1-2.2-2.2,1-2.2,2.2-2.2,2.2,1,2.2,2.2Z"/><path class="cls-10" d="M363.6,936.5c0,.4-.4.8-.8.8s-.8-.3-.8-.8.4-.8.8-.8.8.3.8.8Z"/><circle class="cls-6" cx="392.6" cy="955.7" r="2.6"/><path class="cls-6" d="M394.4,951.9c0,.4-.3.7-.7.7s-.7-.3-.7-.7.3-.7.7-.7.7.3.7.7Z"/><circle class="cls-6" cx="389.2" cy="958.5" r="1.2"/><path class="cls-6" d="M358.6,960.7c.4-.8,1.3-1.1,2.1-.7s1.1,1.3.7,2.1-1.3,1.1-2.1.7c-.8-.4-1.1-1.3-.7-2.1Z"/><path class="cls-6" d="M356.6,962.3c.2-.3.5-.5.9-.3.3.2.5.5.3.9s-.5.5-.9.3c-.3-.2-.5-.5-.3-.9Z"/><path class="cls-4" d="M379.6,927.2c-12.4-3.2-23.3,5.9-23.1,11.6.2,3.2,2.1,6.1,1.8,8.1-.3,1.6-2,2.6-6.9,2.8-.4,0-.7,0-1,0-10.6,1.2-13.7,12.1-13.7,12.1-1.1-1.9-1.8-4.2-1.8-6.6,0-7.3,6-13.2,13.3-13.2h0c0-.4,0-.8,0-1.2,0-10.4,8.4-18.8,18.7-18.8s9.5,1.9,12.8,5.1h0Z"/><path class="cls-4" d="M405.1,954.7c0,4-2.3,7.5-5.6,9.2.3-.5,4-12.8-3-15.4-1-.4-3.4,0-1.8-4.2,1.5-4.1-14-2.2-14.7-4.3,0,0,0-.1,0-.2.2-2,3.9-3,5.4-3.3.1,0,.2,0,.3,0,.2,0,.2,0,.2,0,.7-.2,1.5-.3,2.3-.3,5.2,0,9.6,3.8,10.3,8.8,3.9,1.5,6.8,5.3,6.8,9.8Z"/></svg>