<?xml version="1.0" encoding="UTF-8"?><svg id="_03" xmlns="http://www.w3.org/2000/svg" viewBox="0 0 1920 1080"><defs><style>.cls-1{fill:#3b342a;}.cls-2{fill:#a39079;}.cls-3{fill:#877564;}.cls-4{fill:#877155;}.cls-5{fill:#a8937e;}.cls-6{fill:#c8b09c;}.cls-7{fill:#c0aa96;}.cls-8{fill:#d6c6b9;}.cls-9{fill:#6e6051;}.cls-10{fill:#af9678;}.cls-11{fill:#837259;}.cls-12{fill:#eadcd1;}.cls-13{fill:#4b392b;}.cls-14{fill:#35240c;}.cls-15{fill:#fff;}.cls-16{fill:#b49a82;}.cls-17{fill:#46372f;}.cls-18{fill:#e6d6c7;}.cls-19{fill:#bb9d84;}.cls-20{fill:#e2d1c0;}.cls-21{fill:#433021;}.cls-22{fill:#ddc8b6;}.cls-23{fill:#cbb5a1;}.cls-24{fill:#594840;}.cls-25{fill:#988773;}.cls-26{fill:#9c8264;}.cls-27{fill:#7d6b5d;}.cls-28{fill:#36291f;}.cls-29{fill:#bfa790;}.cls-30{fill:#a18771;}.cls-31{fill:#a08b6d;}.cls-32{fill:#837158;}.cls-33{fill:#d3c1b0;}.cls-34{fill:#180701;}.cls-35{fill:#dfd1bc;}.cls-36{fill:#968271;}.cls-37{fill:#d5c3b3;}.cls-38{fill:#a28c6e;}.cls-39{fill:#a18b77;}.cls-40{fill:#dcc7b6;}.cls-41{fill:#b29b84;}.cls-42{fill:#c7b69f;}.cls-43{fill:#3e2d17;}.cls-44{fill:#bcaa9a;}.cls-45{fill:#b5a38e;}.cls-46{fill:#705e50;}.cls-47{fill:#b0987f;}.cls-48{fill:#cfbdac;}.cls-49{fill:#d4c9c1;}.cls-50{fill:#e8d8cb;}.cls-51{fill:#b79e87;}.cls-52{fill:#c1b09c;}.cls-53{fill:#bea690;}</style></defs><g id="tajmahal"><rect class="cls-20" x="198" y="834.4" width="45.7" height="105.8"/><rect class="cls-20" x="243.8" y="834.4" width="45.7" height="105.8"/><polygon class="cls-5" points="243.8 829.8 243.7 829.8 198 829.8 198 834.4 243.7 834.4 243.8 834.4 289.5 834.4 289.5 829.8 243.8 829.8"/><rect class="cls-5" x="199.9" y="834.4" width="1.6" height="105.8"/><polygon class="cls-29" points="243.8 841.7 205.6 841.7 205.6 926.6 211.9 926.6 211.9 847.9 243.8 847.9 275.6 847.9 275.6 926.6 281.9 926.6 281.9 841.7 243.8 841.7"/><rect class="cls-53" x="216" y="853.6" width="55.4" height="86.6"/><path class="cls-2" d="M271.8,940.5h-56.1v-87.2h56.1v87.2ZM216.3,939.9h54.8v-86h-54.8v86Z"/><rect class="cls-16" x="195.7" y="811.5" width="96" height="18.3"/><rect class="cls-4" x="259" y="811.5" width="32.7" height="18.3"/><path class="cls-21" d="M253.9,864.7c-1.2.8-6.2,4-13.2,7.5-13.5,6.8-13.5,19-13.5,19v49h-11.3v-54s0-12.5,13.9-19.5c8.3-4.2,13.9-8,13.9-8,0,0,2.5,1.7,6.6,4.1,1.1.6,2.3,1.3,3.6,2h0Z"/><path class="cls-27" d="M271.5,886.2v54h-44.1v-49s0-12.2,13.5-19c6.9-3.5,11.9-6.7,13.2-7.5,1.1.6,2.3,1.2,3.6,1.9,0,0,0,0,0,0,1.3.7,2.4,1.3,3.5,2.1,10.4,7.1,10.4,17.5,10.4,17.5h0Z"/><path class="cls-48" d="M218.1,940.2v-54c0-.1.1-11.8,13-18.3,6-3,10.5-5.8,12.7-7.2,2.2,1.4,6.7,4.2,12.7,7.2,12.8,6.5,13,18.2,13,18.3v54h2v-54s0-12.5-13.9-19.5c-8.3-4.2-13.9-8-13.9-8,0,0-5.6,3.8-13.9,8-13.9,7-13.9,19.5-13.9,19.5v54h2.1,0Z"/><polygon class="cls-30" points="253.1 902.2 243.8 902.2 243.7 902.2 234.4 902.2 231 902.2 231 905.6 231 940.2 234.4 940.2 234.4 905.6 243.7 905.6 243.8 905.6 253.1 905.6 253.1 940.2 256.5 940.2 256.5 905.6 256.5 902.2 253.1 902.2"/><path class="cls-34" d="M246.9,880.8l-3.2-1.3-3.2,1.3c-2.6,1.1-4.3,3.6-4.3,6.4v12h14.9v-12c0-2.8-1.7-5.3-4.3-6.4Z"/><path class="cls-10" d="M251.2,896.9v-.3h-2.2v-2.1h2.2v-.3h-2.2v-1.9h2.2v-.6h-2.2v-1.9h2.2v-.3h-2.2v-1.9h2.2v-.6h-2.2v-1.9h1.9c0,0,0-.2-.1-.3h-1.8v-2.1h.6c0,0-.2-.2-.3-.3h-.4v-.4c-.1,0-.2-.2-.3-.3v.6h-1.8v-1.7l-.6-.2v1.9h-2.2v-2.9h-.3c0-.1-.3,0-.3,0v2.8h-2.2v-1.9l-.6.2v1.7h-1.8v-.6c-.1,0-.2.2-.3.3v.3h-.3c0,0-.2.2-.3.3h.6v2.1h-1.8c0,0,0,.2-.1.3h1.9v1.9h-2.2v.6h2.2v1.9h-2.2v.3h2.2v1.9h-2.2v.6h2.2v1.9h-2.2v.3h2.2v2.1h-2.2v.3h2.2v2.3h.3v-2.3h1.8v2.3h.6v-2.3h2.2v2.3h.6v-2.3h2.2v2.3h.6v-2.3h1.8v2.3h.3v-2.3h2.2,0ZM240.6,896.6h-1.8v-2.1h1.8v2.1ZM240.6,894.2h-1.8v-1.9h1.8v1.9ZM240.6,891.7h-1.8v-1.9h1.8v1.9ZM240.6,889.5h-1.8v-1.9h1.8v1.9ZM240.6,887h-1.8v-1.9h1.8v1.9ZM240.6,884.8h-1.8v-2.1h1.8v2.1ZM243.4,896.6h-2.2v-2.1h2.2v2.1ZM243.4,894.2h-2.2v-1.9h2.2v1.9ZM243.4,891.7h-2.2v-1.9h2.2v1.9ZM243.4,889.5h-2.2v-1.9h2.2v1.9ZM243.4,887h-2.2v-1.9h2.2v1.9ZM243.4,884.8h-2.2v-2.1h2.2v2.1ZM246.3,896.6h-2.2v-2.1h2.2v2.1ZM246.3,894.2h-2.2v-1.9h2.2v1.9ZM246.3,891.7h-2.2v-1.9h2.2v1.9ZM246.3,889.5h-2.2v-1.9h2.2v1.9ZM246.3,887h-2.2v-1.9h2.2v1.9ZM246.3,884.8h-2.2v-2.1h2.2v2.1ZM248.7,896.6h-1.8v-2.1h1.8v2.1ZM248.7,894.2h-1.8v-1.9h1.8v1.9ZM248.7,891.7h-1.8v-1.9h1.8v1.9ZM248.7,889.5h-1.8v-1.9h1.8v1.9ZM248.7,887h-1.8v-1.9h1.8v1.9ZM248.7,884.8h-1.8v-2.1h1.8v2.1Z"/><path class="cls-10" d="M251.5,899.5h-15.6v-12.3c0-2.9,1.8-5.5,4.5-6.7l3.3-1.4,3.3,1.4c2.7,1.1,4.5,3.7,4.5,6.7v12.3ZM236.6,898.9h14.3v-11.7c0-2.7-1.6-5.1-4.1-6.1l-3.1-1.3-3.1,1.3c-2.5,1-4.1,3.4-4.1,6.1v11.7Z"/><path class="cls-34" d="M246.9,915.5l-3.2-1.7-3.2,1.7c-2.6,1.4-4.3,4.7-4.3,8.4v15.9h14.9v-15.9c0-3.7-1.7-7-4.3-8.4Z"/><path class="cls-10" d="M251.2,936.8v-.4h-2.2v-2.7h2.2v-.4h-2.2v-2.5h2.2v-.8h-2.2v-2.5h2.2v-.4h-2.2v-2.5h2.2v-.8h-2.2v-2.5h1.9c0-.1,0-.3-.1-.4h-1.8v-2.7h.6c0-.1-.2-.3-.3-.4h-.4v-.5c-.1-.1-.2-.2-.3-.3v.8h-1.8v-2.2l-.6-.3v2.6h-2.2v-3.8l-.3-.2-.3.2v3.8h-2.2v-2.5l-.6.3v2.2h-1.8v-.8c-.1.1-.2.2-.3.3v.4h-.3c0,.1-.2.3-.3.4h.6v2.7h-1.8c0,.1,0,.3-.1.4h1.9v2.5h-2.2v.8h2.2v2.5h-2.2v.4h2.2v2.5h-2.2v.8h2.2v2.5h-2.2v.4h2.2v2.7h-2.2v.4h2.2v3h.3v-3h1.8v3h.6v-3h2.2v3h.6v-3h2.2v3h.6v-3h1.8v3h.3v-3h2.2,0ZM240.6,936.4h-1.8v-2.7h1.8v2.7ZM240.6,933.3h-1.8v-2.5h1.8v2.5ZM240.6,929.9h-1.8v-2.5h1.8v2.5ZM240.6,927h-1.8v-2.5h1.8v2.5ZM240.6,923.7h-1.8v-2.5h1.8v2.5ZM240.6,920.8h-1.8v-2.7h1.8v2.7ZM243.4,936.4h-2.2v-2.7h2.2v2.7ZM243.4,933.3h-2.2v-2.5h2.2v2.5ZM243.4,929.9h-2.2v-2.5h2.2v2.5ZM243.4,927h-2.2v-2.5h2.2v2.5ZM243.4,923.7h-2.2v-2.5h2.2v2.5ZM243.4,920.8h-2.2v-2.7h2.2v2.7ZM246.3,936.4h-2.2v-2.7h2.2v2.7ZM246.3,933.3h-2.2v-2.5h2.2v2.5ZM246.3,929.9h-2.2v-2.5h2.2v2.5ZM246.3,927h-2.2v-2.5h2.2v2.5ZM246.3,923.7h-2.2v-2.5h2.2v2.5ZM246.3,920.8h-2.2v-2.7h2.2v2.7ZM248.7,936.4h-1.8v-2.7h1.8v2.7ZM248.7,933.3h-1.8v-2.5h1.8v2.5ZM248.7,929.9h-1.8v-2.5h1.8v2.5ZM248.7,927h-1.8v-2.5h1.8v2.5ZM248.7,923.7h-1.8v-2.5h1.8v2.5ZM248.7,920.8h-1.8v-2.7h1.8v2.7Z"/><path class="cls-10" d="M251.5,940.2h-15.6v-16.3c0-3.9,1.8-7.3,4.5-8.8l3.3-1.8,3.3,1.8c2.7,1.5,4.5,4.9,4.5,8.8v16.3ZM236.6,939.4h14.3v-15.5c0-3.5-1.6-6.7-4.1-8.1l-3.1-1.7-3.1,1.7c-2.5,1.3-4.1,4.5-4.1,8.1v15.5Z"/><rect class="cls-42" x="195.7" y="813.9" width="96" height="3.2"/><rect class="cls-36" x="198" y="815.2" width="2.9" height="2"/><path class="cls-49" d="M199.2,815.6h.5s0,0,0,0v1.5h-.6v-1.5s0,0,0,0h0Z"/><path class="cls-49" d="M200.1,815.6h.5s0,0,0,0v1.5h-.6v-1.5s0,0,0,0h0Z"/><path class="cls-49" d="M198.4,815.6h.5s0,0,0,0v1.5h-.6v-1.5s0,0,0,0h0Z"/><path d="M199.5,815.6c-.1,0-.2.1-.2.3v1.3h0v-1.3c0-.2.1-.3.3-.3h0Z"/><path d="M200.3,815.6c-.1,0-.2.1-.2.3v1.3h0v-1.3c0-.2.1-.3.3-.3h0Z"/><path d="M198.7,815.6c-.1,0-.2.1-.2.3v1.3h0v-1.3c0-.2.1-.3.3-.3h0Z"/><path d="M199.5,812h0c.1,0,.2-.1.2-.2s0-.1-.2-.1h0c0,0,.1-.2.1-.2s0-.1-.1-.2h0c0,0,0,0,0,0,0,0,0,0,0,0v-.2c0,0-.2-.3-.2-.4,0,0,0,.4,0,.4v.2c0,0,0,0,0,0h0c0,.1-.1.2-.1.3s0,.1.1.2h0c-.1,0-.2.1-.2.2s0,.1.2.1h0c0,0-.2.1-.2.2s0,.2.2.2h0c0,0,0,0,0,0h0c0,0,.2-.2.2-.3s0-.2-.2-.2h0Z"/><path class="cls-6" d="M199.5,812.4s-.3,0-.3.3h.7c0-.3-.3-.3-.3-.3h0Z"/><path class="cls-22" d="M201.9,815.2h-4.9l1-.4s-.3-1.7,1.1-2h.7c1.4.3,1.1,2,1.1,2l1,.4h0Z"/><path class="cls-19" d="M201.9,815.2h-.7l-.8-.4c.3-1.2-.9-2.1-.9-2.1h.3c1.4.3,1.1,2,1.1,2l1,.4h0Z"/><rect class="cls-20" x="198" y="817.6" width="2.9" height="12.2"/><rect class="cls-5" x="200" y="817.6" width=".9" height="12.2"/><rect class="cls-3" x="197.6" y="817.2" width="3.6" height=".4"/><rect class="cls-36" x="286.6" y="815.2" width="2.9" height="2"/><path class="cls-49" d="M287.8,815.6h.5s0,0,0,0v1.5h-.6v-1.5s0,0,0,0h0Z"/><path class="cls-49" d="M288.6,815.6h.5s0,0,0,0v1.5h-.6v-1.5s0,0,0,0h0Z"/><path class="cls-49" d="M287,815.6h.5s0,0,0,0v1.5h-.6v-1.5s0,0,0,0h0Z"/><path d="M288.1,815.6c-.1,0-.2.1-.2.3v1.3h0v-1.3c0-.2.1-.3.3-.3h0,0Z"/><path d="M288.9,815.6c-.1,0-.2.1-.2.3v1.3h0v-1.3c0-.2.1-.3.3-.3h0,0Z"/><path d="M287.2,815.6c-.1,0-.2.1-.2.3v1.3h0v-1.3c0-.2.1-.3.3-.3h0,0Z"/><path d="M288,812h0c.1,0,.2-.1.2-.2s0-.1-.2-.1h0c0,0,.1-.2.1-.2s0-.1-.1-.2h0c0,0,0,0,0,0,0,0,0,0,0,0v-.2c0,0-.2-.3-.2-.4,0,0,0,.4,0,.4v.2c0,0,0,0,0,0h0c0,.1-.1.2-.1.3s0,.1.1.2h0c-.1,0-.2.1-.2.2s0,.1.2.1h0c0,0-.2.1-.2.2s0,.2.2.2h0c0,0,0,0,0,0h0c0,0,.2-.2.2-.3s0-.2-.2-.2h0Z"/><path class="cls-6" d="M288,812.4s-.3,0-.3.3h.7c0-.3-.3-.3-.3-.3h0Z"/><path class="cls-22" d="M290.4,815.2h-4.9l1-.4s-.3-1.7,1.1-2h.7c1.4.3,1.1,2,1.1,2l1,.4h0Z"/><path class="cls-19" d="M290.4,815.2h-.7l-.8-.4c.3-1.2-1-2.1-1-2.1h.3c1.4.3,1.1,2,1.1,2l1,.4h0Z"/><rect class="cls-20" x="286.6" y="817.6" width="2.9" height="12.2"/><rect class="cls-5" x="288.5" y="817.6" width=".9" height="12.2"/><rect class="cls-3" x="286.2" y="817.2" width="3.6" height=".4"/><path class="cls-12" d="M294.4,802.4c0,.3-.1.6-.2.9-.2.8-.3,1.5-.5,2.2,0,.2-.1.4-.2.6,0,.1,0,.2,0,.3,0,.1,0,.2-.1.3-.7,2.5-1.4,4.1-1.6,4.5,0,0,0,.1,0,.1h-96s0,0,0-.1c-.2-.5-.9-2.1-1.6-4.5,0-.1,0-.2-.1-.3,0-.1,0-.2,0-.3,0-.2-.1-.4-.2-.6-.2-.7-.4-1.4-.5-2.2,0-.3-.1-.6-.2-.9-2.4-12.8-1.6-36.7,29.3-54.6h42.7c30.9,17.8,31.7,41.8,29.3,54.6h0Z"/><polygon class="cls-52" points="243.8 744.8 222.4 744.8 222.4 747.8 243.8 747.8 265.1 747.8 265.1 744.8 243.8 744.8"/><path class="cls-40" d="M255.4,738.9c-3.2-3-6.4-5-6.4-5h-10.6s-3.2,2-6.4,5-8,5.9-8,5.9h39.4s-4.9-2.9-8-5.9h0Z"/><rect class="cls-14" x="237.6" y="732.3" width="12.3" height="1.6" rx=".2" ry=".2"/><path class="cls-14" d="M243.8,729c-4.1,0-4.3,3.3-4.3,3.3h8.7s-.2-3.3-4.3-3.3h0Z"/><path class="cls-31" d="M291.8,811.5h-55.9c60.4-13.2,17.7-63.7,17.7-63.7h11.5c44.4,25.6,26.7,63.7,26.7,63.7Z"/><path class="cls-1" d="M294.4,802.4c0,.3-.1.6-.2.9h-101c0-.3-.1-.6-.2-.9h101.3Z"/><path class="cls-1" d="M293.7,805.5c0,.2-.1.4-.2.6h-99.7c0-.2-.1-.4-.2-.6h100Z"/><path class="cls-38" d="M293.6,806.1c0,.1,0,.2,0,.3,0,.1,0,.2-.1.3-.7,2.5-1.4,4.1-1.6,4.5,0,0,0,.1,0,.1h-96s0,0,0-.1c-.2-.5-.9-2.1-1.6-4.5,0-.1,0-.2-.1-.3,0-.1,0-.2,0-.3h99.7,0Z"/><path class="cls-1" d="M292.3,806c-.8,0-1.4.5-1.7,1.1-.3-.7-.9-1.1-1.7-1.1s-1.4.5-1.7,1.1c-.3-.7-.9-1.1-1.7-1.1s-1.4.5-1.7,1.1c-.3-.7-.9-1.1-1.7-1.1s-1.4.5-1.7,1.1c-.3-.7-.9-1.1-1.7-1.1s-1.4.5-1.7,1.1c-.3-.7-.9-1.1-1.7-1.1s-1.4.5-1.7,1.1c-.3-.7-.9-1.1-1.7-1.1s-1.4.5-1.7,1.1c-.3-.7-.9-1.1-1.7-1.1s-1.4.5-1.7,1.1c-.3-.7-.9-1.1-1.7-1.1s-1.4.5-1.7,1.1c-.3-.7-.9-1.1-1.7-1.1s-1.4.5-1.7,1.1c-.3-.7-.9-1.1-1.7-1.1s-1.4.5-1.7,1.1c-.3-.7-.9-1.1-1.7-1.1s-1.4.5-1.7,1.1c-.3-.7-.9-1.1-1.7-1.1s-1.4.5-1.7,1.1c-.3-.7-.9-1.1-1.7-1.1s-1.4.5-1.7,1.1c-.3-.7-.9-1.1-1.7-1.1s-1.4.5-1.7,1.1c-.3-.6-.9-1.1-1.7-1.1s-1.4.5-1.7,1.1c-.3-.7-.9-1.1-1.7-1.1s-1.4.5-1.7,1.1c-.3-.7-.9-1.1-1.7-1.1s-1.4.5-1.7,1.1c-.3-.7-.9-1.1-1.7-1.1s-1.4.5-1.7,1.1c-.3-.7-.9-1.1-1.7-1.1s-1.4.5-1.7,1.1c-.3-.7-.9-1.1-1.7-1.1s-1.4.5-1.7,1.1c-.3-.7-.9-1.1-1.7-1.1s-1.4.5-1.7,1.1c-.3-.7-.9-1.1-1.7-1.1s-1.4.5-1.7,1.1c-.3-.7-.9-1.1-1.7-1.1s-1.4.5-1.7,1.1c-.3-.7-.9-1.1-1.7-1.1s-1.4.5-1.7,1.1c-.3-.7-.9-1.1-1.7-1.1s-1.4.5-1.7,1.1c-.3-.7-.9-1.1-1.7-1.1s-1.4.5-1.7,1.1c-.3-.7-.9-1.1-1.7-1.1s-1.4.5-1.7,1.1c-.3-.7-.9-1.1-1.7-1.1s-1.4.5-1.7,1.1c-.3-.7-.9-1.1-1.7-1.1s-.9.2-1.2.5c0,.1,0,.2.1.3.3-.3.7-.5,1.1-.5.8,0,1.5.7,1.5,1.5v3.5h-1.1c0,0,0,.2,0,.2h96s0,0,0-.2h-1.1v-3.5c0-.8.7-1.5,1.5-1.5s.9.2,1.1.5c0-.1,0-.2.1-.3-.3-.3-.8-.5-1.2-.5h0ZM200.1,811.3h-3v-3.5c0-.8.7-1.5,1.5-1.5s1.5.7,1.5,1.5v3.5h0ZM203.4,811.3h-3v-3.5c0-.8.7-1.5,1.5-1.5s1.5.7,1.5,1.5v3.5h0ZM206.8,811.3h-3v-3.5c0-.8.7-1.5,1.5-1.5s1.5.7,1.5,1.5v3.5h0ZM210.1,811.3h-3v-3.5c0-.8.7-1.5,1.5-1.5s1.5.7,1.5,1.5v3.5h0ZM213.5,811.3h-3v-3.5c0-.8.7-1.5,1.5-1.5s1.5.7,1.5,1.5v3.5h0ZM216.8,811.3h-3v-3.5c0-.8.7-1.5,1.5-1.5s1.5.7,1.5,1.5v3.5h0ZM220.2,811.3h-3v-3.5c0-.8.7-1.5,1.5-1.5s1.5.7,1.5,1.5v3.5h0ZM223.5,811.3h-3v-3.5c0-.8.7-1.5,1.5-1.5s1.5.7,1.5,1.5v3.5h0ZM226.9,811.3h-3v-3.5c0-.8.7-1.5,1.5-1.5s1.5.7,1.5,1.5v3.5h0ZM230.2,811.3h-3v-3.5c0-.8.7-1.5,1.5-1.5s1.5.7,1.5,1.5v3.5h0ZM233.6,811.3h-3v-3.5c0-.8.7-1.5,1.5-1.5s1.5.7,1.5,1.5v3.5h0ZM236.9,811.3h-3v-3.5c0-.8.7-1.5,1.5-1.5s1.5.7,1.5,1.5v3.5h0ZM240.2,811.3h-3v-3.5c0-.8.7-1.5,1.5-1.5s1.5.7,1.5,1.5v3.5h0ZM243.6,811.3h-3v-3.5c0-.8.7-1.5,1.5-1.5s1.5.7,1.5,1.5v3.5h0ZM246.9,811.3h-3v-3.5c0-.8.7-1.5,1.5-1.5s1.5.7,1.5,1.5v3.5h0ZM250.3,811.3h-3v-3.5c0-.8.7-1.5,1.5-1.5s1.5.7,1.5,1.5v3.5h0ZM253.6,811.3h-3v-3.5c0-.8.7-1.5,1.5-1.5s1.5.7,1.5,1.5v3.5h0ZM257,811.3h-3v-3.5c0-.8.7-1.5,1.5-1.5s1.5.7,1.5,1.5v3.5ZM260.3,811.3h-3v-3.5c0-.8.7-1.5,1.5-1.5s1.5.7,1.5,1.5v3.5h0ZM263.7,811.3h-3v-3.5c0-.8.7-1.5,1.5-1.5s1.5.7,1.5,1.5v3.5h0ZM267,811.3h-3v-3.5c0-.8.7-1.5,1.5-1.5s1.5.7,1.5,1.5v3.5h0ZM270.4,811.3h-3v-3.5c0-.8.7-1.5,1.5-1.5s1.5.7,1.5,1.5v3.5h0ZM273.7,811.3h-3v-3.5c0-.8.7-1.5,1.5-1.5s1.5.7,1.5,1.5v3.5h0ZM277,811.3h-3v-3.5c0-.8.7-1.5,1.5-1.5s1.5.7,1.5,1.5v3.5h0ZM280.4,811.3h-3v-3.5c0-.8.7-1.5,1.5-1.5s1.5.7,1.5,1.5v3.5h0ZM283.8,811.3h-3v-3.5c0-.8.7-1.5,1.5-1.5s1.5.7,1.5,1.5v3.5h0ZM287.1,811.3h-3v-3.5c0-.8.7-1.5,1.5-1.5s1.5.7,1.5,1.5v3.5h0ZM290.4,811.3h-3v-3.5c0-.8.7-1.5,1.5-1.5s1.5.7,1.5,1.5v3.5h0Z"/><path d="M246.8,719.3c0-1.5-1.1-2.7-2.5-3v-1.6c.6,0,1.1-.2,1.1-.4s-.5-.3-1.1-.4v-1.3c.9-.2,1.6-1,1.6-2s-.7-1.8-1.6-2v-1.7c.4,0,1.1-.2,1.5-.6.3-.3.4-.6.4-1s0-.2-.2-.2-.2,0-.2.2c0,.3,0,.5-.3.7-.3.3-.8.4-1.2.5v-1.8c.3-.2.6-.5.6-.9,0-.6-.5-1-1-1s-1,.5-1,1,.2.8.6.9v1.8c-.4,0-.8-.2-1.1-.5-.2-.2-.3-.4-.3-.7s0-.2-.2-.2-.2,0-.2.2c0,.4.1.7.4,1,.4.4,1,.5,1.4.6v1.7c-.9.2-1.6,1-1.6,2s.7,1.8,1.6,2v1.3c-.7,0-1.1.2-1.1.4s.5.3,1.1.4v1.6c-1.4.2-2.5,1.5-2.5,3s1.1,2.7,2.5,3v1.3c-.9.2-1.6,1-1.6,2s.7,1.8,1.6,2v1.3h.9v-1.3c.9-.2,1.6-1,1.6-2s-.7-1.8-1.6-2v-1.3c1.4-.2,2.5-1.5,2.5-3h0Z"/><rect class="cls-36" x="165.6" y="832.3" width="32.5" height="18.7"/><path class="cls-49" d="M181.8,836.2c-1.8,0-3.2,1.2-3.2,2.7v12.2h6.4v-12.2c0-1.5-1.4-2.7-3.2-2.7Z"/><path class="cls-49" d="M191,836.2h0c-1.8,0-3.2,1.2-3.2,2.7v12.2h6.4v-12.2c0-1.5-1.4-2.7-3.2-2.7Z"/><path class="cls-49" d="M172.6,836.2c-1.8,0-3.2,1.2-3.2,2.7v12.2h6.4v-12.2c0-1.5-1.4-2.7-3.2-2.7Z"/><path d="M182.2,836.2c-1.6.2-2.8,1.3-2.8,2.7v12.2h-.9v-12.2c0-1.5,1.4-2.7,3.2-2.7s.3,0,.5,0h0Z"/><path d="M191.4,836.2c-1.6.2-2.8,1.3-2.8,2.7v12.2h-.9v-12.2c0-1.5,1.4-2.7,3.2-2.7s.3,0,.5,0h0Z"/><path d="M173,836.2c-1.6.2-2.8,1.3-2.8,2.7v12.2h-.9v-12.2c0-1.5,1.4-2.7,3.2-2.7s.3,0,.5,0h0Z"/><path d="M182,802.7v-.5c.9,0,1.7-.6,1.7-1.2s-.7-1.1-1.7-1.2v-.6c.7-.1,1.2-.7,1.2-1.5s-.5-1.3-1.2-1.5v-.9h.9c.3,0,.6-.3.5-.7l-.9-2.3s-.7-2.7-.7-3.4c0,.7-.7,3.4-.7,3.4l-.9,2.3c-.1.3.1.7.5.7h.9v.9c-.7.1-1.2.7-1.2,1.5s.5,1.3,1.2,1.5v.6c-.9,0-1.7.6-1.7,1.2s.7,1.1,1.7,1.2v.5c-.8.1-1.4.8-1.4,1.6s.6,1.5,1.4,1.6v.8h.5v-.8c.8-.1,1.4-.8,1.4-1.6s-.6-1.5-1.4-1.6Z"/><path class="cls-6" d="M181.8,806.5s-3,0-3.1,2.7h6.2c-.1-2.7-3.1-2.7-3.1-2.7Z"/><path class="cls-22" d="M204.4,832.3h-45.2l9-4.1s-2.6-15.8,10.5-19h6.2c13.1,3.3,10.5,19,10.5,19l9,4.1h0Z"/><path class="cls-19" d="M204.4,832.3h-6.2l-7-4c3-11.1-8.8-19.2-8.8-19.2h2.6c13.1,3.3,10.5,19,10.5,19l9,4.1h0Z"/><rect class="cls-37" x="133.2" y="854.7" width="64.8" height="85.5"/><rect class="cls-5" x="130.9" y="849.8" width="67.1" height="4.9"/><rect class="cls-51" x="157.9" y="854.7" width="3.3" height="85.5"/><rect class="cls-26" x="136.3" y="858.7" width="20.2" height="40.5"/><rect class="cls-33" x="137.4" y="860.9" width="18" height="37"/><rect class="cls-41" x="138.3" y="862.3" width="16.1" height="35.6"/><path class="cls-13" d="M148.3,866.2c-.6.5-1.8,1.6-3.5,2.8-3.8,2.7-3.8,7.6-3.8,7.6v21.3h-2.6v-22.1s0-5.1,4-8c2.4-1.7,4-3.3,4-3.3,0,0,.7.7,1.9,1.7h0Z"/><path class="cls-46" d="M154.4,875.8v22.1h-13.4v-21.3s0-4.9,3.8-7.6c1.7-1.2,3-2.3,3.5-2.8.6.5,1.3,1,2.1,1.6,4,2.9,4,8,4,8h0Z"/><path class="cls-48" d="M138.9,897.9v-22.1s0-4.8,3.8-7.5c1.7-1.2,3.1-2.4,3.7-3,.6.6,1.9,1.7,3.7,3,3.7,2.6,3.8,7.4,3.8,7.5v22.1h.6v-22.1s0-5.1-4-8c-2.4-1.7-4-3.3-4-3.3,0,0-1.6,1.6-4,3.3-4,2.9-4,8-4,8v22.1h.6Z"/><rect class="cls-13" x="144.1" y="885.9" width="4.4" height="12"/><polygon class="cls-28" points="148.6 885.9 148.6 886.4 144.8 886.4 144.8 897.9 144.1 897.9 144.1 885.9 148.6 885.9"/><rect class="cls-26" x="136.3" y="903.3" width="20.2" height="40.5"/><rect class="cls-33" x="137.4" y="905.5" width="18" height="37"/><rect class="cls-41" x="138.3" y="906.9" width="16.1" height="35.6"/><path class="cls-13" d="M148.3,910.8c-.6.5-1.8,1.6-3.5,2.8-3.8,2.7-3.8,7.6-3.8,7.6v21.3h-2.6v-22.1s0-5.1,4-8c2.4-1.7,4-3.3,4-3.3,0,0,.7.7,1.9,1.7h0Z"/><path class="cls-46" d="M154.4,920.4v22.1h-13.4v-21.3s0-4.9,3.8-7.6c1.7-1.2,3-2.3,3.5-2.8.6.5,1.3,1,2.1,1.6,4,2.9,4,8,4,8h0Z"/><path class="cls-48" d="M138.9,942.5v-22.1s0-4.8,3.8-7.5c1.7-1.2,3.1-2.4,3.7-3,.6.6,1.9,1.7,3.7,3,3.7,2.6,3.8,7.4,3.8,7.5v22.1h.6v-22.1s0-5.1-4-8c-2.4-1.7-4-3.3-4-3.3,0,0-1.6,1.6-4,3.3-4,2.9-4,8-4,8v22.1h.6Z"/><rect class="cls-13" x="144.1" y="930.5" width="4.4" height="12"/><polygon class="cls-28" points="148.6 930.5 148.6 931 144.8 931 144.8 942.5 144.1 942.5 144.1 930.5 148.6 930.5"/><rect class="cls-26" x="163.2" y="858.7" width="30.6" height="40.5"/><rect class="cls-33" x="164.9" y="860.9" width="27.2" height="37"/><rect class="cls-41" x="166.4" y="862.3" width="24.3" height="35.6"/><path class="cls-13" d="M181.4,866.2c-.8.5-2.8,1.6-5.3,2.8-5.8,2.7-5.8,7.6-5.8,7.6v21.3h-4v-22.1s0-5.1,6.1-8c3.6-1.7,6.1-3.3,6.1-3.3,0,0,1.1.7,2.9,1.7h0Z"/><path class="cls-46" d="M190.6,875.8v22.1h-20.3v-21.3s0-4.9,5.8-7.6c2.6-1.2,4.5-2.3,5.3-2.8.9.5,2,1,3.2,1.6,6.1,2.9,6.1,8,6.1,8h0Z"/><path class="cls-48" d="M167.2,897.9v-22.1s0-4.8,5.7-7.5c2.6-1.2,4.6-2.4,5.6-3,.9.6,2.9,1.7,5.6,3,5.6,2.6,5.7,7.4,5.7,7.5v22.1h.9v-22.1s0-5.1-6.1-8c-3.6-1.7-6.1-3.3-6.1-3.3,0,0-2.4,1.6-6.1,3.3-6.1,2.9-6.1,8-6.1,8v22.1h.9,0Z"/><rect class="cls-13" x="175.1" y="885.9" width="6.7" height="12"/><polygon class="cls-28" points="181.9 885.9 181.9 886.4 176.2 886.4 176.2 897.9 175.1 897.9 175.1 885.9 181.9 885.9"/><rect class="cls-26" x="163.2" y="903.3" width="30.6" height="40.5"/><rect class="cls-33" x="164.9" y="905.5" width="27.2" height="37"/><rect class="cls-41" x="166.4" y="906.9" width="24.3" height="35.6"/><path class="cls-13" d="M181.4,910.8c-.8.5-2.8,1.6-5.3,2.8-5.8,2.7-5.8,7.6-5.8,7.6v21.3h-4v-22.1s0-5.1,6.1-8c3.6-1.7,6.1-3.3,6.1-3.3,0,0,1.1.7,2.9,1.7h0Z"/><path class="cls-46" d="M190.6,920.4v22.1h-20.3v-21.3s0-4.9,5.8-7.6c2.6-1.2,4.5-2.3,5.3-2.8.9.5,2,1,3.2,1.6,6.1,2.9,6.1,8,6.1,8h0Z"/><path class="cls-48" d="M167.2,942.5v-22.1s0-4.8,5.7-7.5c2.6-1.2,4.6-2.4,5.6-3,.9.6,2.9,1.7,5.6,3,5.6,2.6,5.7,7.4,5.7,7.5v22.1h.9v-22.1s0-5.1-6.1-8c-3.6-1.7-6.1-3.3-6.1-3.3,0,0-2.4,1.6-6.1,3.3-6.1,2.9-6.1,8-6.1,8v22.1h.9,0Z"/><rect class="cls-13" x="175.1" y="930.5" width="6.7" height="12"/><polygon class="cls-28" points="181.9 930.5 181.9 931 176.2 931 176.2 942.5 175.1 942.5 175.1 930.5 181.9 930.5"/><rect class="cls-36" x="158.8" y="834.4" width="3.1" height="2.1"/><path class="cls-49" d="M160.1,834.8h.5s0,0,0,0v1.6h-.6v-1.6s0,0,0,0h0Z"/><path class="cls-49" d="M160.9,834.8h.5s0,0,0,0v1.6h-.6v-1.6s0,0,0,0h0Z"/><path class="cls-49" d="M159.2,834.8h.5s0,0,0,0v1.6h-.6v-1.6s0,0,0,0h0Z"/><path d="M160.4,834.8c-.1,0-.3.2-.3.3v1.4h0v-1.4c0-.2.1-.3.3-.3h0Z"/><path d="M161.2,834.8c-.1,0-.3.2-.3.3v1.4h0v-1.4c0-.2.1-.3.3-.3h0Z"/><path d="M159.5,834.8c-.1,0-.3.2-.3.3v1.4h0v-1.4c0-.2.1-.3.3-.3h0Z"/><path d="M160.3,831h0c.1,0,.2-.1.2-.2s0-.1-.2-.1h0c0,0,.1-.2.1-.2s0-.2-.1-.2h0c0,0,.1,0,.1,0,0,0,0,0,0,0v-.3c-.1,0-.2-.3-.2-.4,0,0,0,.4,0,.4v.3c-.1,0,0,0,0,0h.1c0,.1-.1.2-.1.3s0,.2.1.2h0c-.1,0-.2.1-.2.2s0,.1.2.1h0c0,0-.2.1-.2.2s0,.2.2.2h0c0,0,0,0,0,0h0c0-.1.2-.2.2-.3s0-.2-.2-.2Z"/><path class="cls-6" d="M160.3,831.5s-.3,0-.4.3h.7c0-.3-.4-.3-.4-.3h0Z"/><path class="cls-22" d="M162.9,834.4h-5.1l1-.5s-.3-1.8,1.2-2.2h.7c1.5.4,1.2,2.2,1.2,2.2l1,.5h0Z"/><path class="cls-19" d="M162.9,834.4h-.7l-.8-.5c.3-1.2-1-2.2-1-2.2h.3c1.5.4,1.2,2.2,1.2,2.2l1,.5Z"/><rect class="cls-39" x="158.8" y="837" width="3.1" height="12.8"/><rect class="cls-43" x="160.9" y="837" width="1" height="12.8"/><rect class="cls-3" x="158.4" y="836.5" width="3.8" height=".4"/><rect class="cls-36" x="142.9" y="830.2" width="3.1" height="2.1"/><path class="cls-49" d="M144.2,830.6h.5s0,0,0,0v1.6h-.6v-1.6s0,0,0,0h0Z"/><path class="cls-49" d="M145.1,830.6h.5s0,0,0,0v1.6h-.6v-1.6s0,0,0,0h0Z"/><path class="cls-49" d="M143.3,830.6h.5s0,0,0,0v1.6h-.6v-1.6s0,0,0,0h0Z"/><path d="M144.5,830.6c-.1,0-.3.2-.3.3v1.4h0v-1.4c0-.2.1-.3.3-.3h0Z"/><path d="M145.4,830.6c-.1,0-.3.2-.3.3v1.4h0v-1.4c0-.2.1-.3.3-.3h0Z"/><path d="M143.6,830.6c-.1,0-.3.2-.3.3v1.4h0v-1.4c0-.2.1-.3.3-.3h0Z"/><path d="M144.5,826.8h0c.1,0,.2-.1.2-.2s0-.1-.2-.1h0c0,0,.1-.2.1-.2s0-.2-.1-.2h0c0,0,.1,0,.1,0,0,0,0,0,0,0v-.3c-.1,0-.2-.3-.2-.4,0,0,0,.4,0,.4v.3c-.1,0,0,0,0,0h.1c0,.1-.1.2-.1.3s0,.2.1.2h0c-.1,0-.2.1-.2.2s0,.1.2.1h0c0,0-.2.1-.2.2s0,.2.2.2h0c0,0,0,0,0,0h0c0-.1.2-.2.2-.3s0-.2-.2-.2Z"/><path class="cls-6" d="M144.5,827.3s-.3,0-.4.3h.7c0-.3-.4-.3-.4-.3h0Z"/><path class="cls-22" d="M147,830.2h-5.1l1-.5s-.3-1.8,1.2-2.2h.7c1.5.4,1.2,2.2,1.2,2.2l1,.5h0Z"/><path class="cls-19" d="M147,830.2h-.7l-.8-.5c.3-1.2-1-2.2-1-2.2h.3c1.5.4,1.2,2.2,1.2,2.2l1,.5Z"/><rect class="cls-39" x="142.9" y="832.8" width="3.1" height="12.8"/><rect class="cls-43" x="145" y="832.8" width="1" height="12.8"/><rect class="cls-3" x="142.5" y="832.3" width="3.8" height=".4"/><rect class="cls-36" x="137.3" y="821.3" width="3.1" height="2.1"/><path class="cls-49" d="M138.6,821.7h.5s0,0,0,0v1.6h-.6v-1.6s0,0,0,0h0Z"/><path class="cls-49" d="M139.5,821.7h.5s0,0,0,0v1.6h-.6v-1.6s0,0,0,0h0Z"/><path class="cls-49" d="M137.7,821.7h.5s0,0,0,0v1.6h-.6v-1.6s0,0,0,0h0Z"/><path d="M138.9,821.7c-.1,0-.3.2-.3.3v1.4h0v-1.4c0-.2.1-.3.3-.3h0Z"/><path d="M139.8,821.7c-.1,0-.3.2-.3.3v1.4h0v-1.4c0-.2.1-.3.3-.3h0Z"/><path d="M138,821.7c-.1,0-.3.2-.3.3v1.4h0v-1.4c0-.2.1-.3.3-.3h0Z"/><path d="M138.9,817.9h0c.1,0,.2-.1.2-.2s0-.1-.2-.1h0c0,0,.1-.2.1-.2s0-.2-.1-.2h0c0,0,.1,0,.1,0,0,0,0,0,0,0v-.3c-.1,0-.2-.3-.2-.4,0,0,0,.4,0,.4v.3c-.1,0,0,0,0,0h.1c0,.1-.1.2-.1.3s0,.2.1.2h0c-.1,0-.2.1-.2.2s0,.1.2.1h0c0,0-.2.1-.2.2s0,.2.2.2h0c0,0,0,0,0,0h0c0-.1.2-.2.2-.3s0-.2-.2-.2Z"/><path class="cls-6" d="M138.8,818.4s-.3,0-.4.3h.7c0-.3-.4-.3-.4-.3h0Z"/><path class="cls-22" d="M141.4,821.3h-5.1l1-.5s-.3-1.8,1.2-2.2h.7c1.5.4,1.2,2.2,1.2,2.2l1,.5h0Z"/><path class="cls-19" d="M141.4,821.3h-.7l-.8-.5c.3-1.2-1-2.2-1-2.2h.3c1.5.4,1.2,2.2,1.2,2.2l1,.5Z"/><rect class="cls-39" x="137.3" y="823.8" width="3.1" height="12.8"/><rect class="cls-43" x="139.4" y="823.8" width="1" height="12.8"/><rect class="cls-3" x="136.9" y="823.4" width="3.8" height=".4"/><rect class="cls-45" x="133.2" y="841.3" width="13" height="8.5"/><rect class="cls-23" x="133.2" y="840.4" width="14.2" height="1"/><rect class="cls-24" x="142.7" y="841.3" width="3.4" height="8.5"/><rect class="cls-9" x="142.7" y="840.4" width="4.7" height="1"/><rect class="cls-47" x="133.2" y="836.2" width="13" height="4.2"/><rect class="cls-17" x="142.7" y="836.2" width="3.4" height="4.2"/><rect class="cls-36" x="133.2" y="834.4" width="3.1" height="2.1"/><path class="cls-49" d="M134.5,834.8h.5s0,0,0,0v1.6h-.6v-1.6s0,0,0,0h0Z"/><path class="cls-49" d="M135.4,834.8h.5s0,0,0,0v1.6h-.6v-1.6s0,0,0,0h0Z"/><path class="cls-49" d="M133.6,834.8h.5s0,0,0,0v1.6h-.6v-1.6s0,0,0,0h0Z"/><path d="M134.8,834.8c-.1,0-.3.2-.3.3v1.4h0v-1.4c0-.2.1-.3.3-.3h0Z"/><path d="M135.6,834.8c-.1,0-.3.2-.3.3v1.4h0v-1.4c0-.2.1-.3.3-.3h0Z"/><path d="M133.9,834.8c-.1,0-.3.2-.3.3v1.4h0v-1.4c0-.2.1-.3.3-.3h0Z"/><path d="M134.8,831h0c.1,0,.2-.1.2-.2s0-.1-.2-.1h0c0,0,.1-.2.1-.2s0-.2-.1-.2h0c0,0,.1,0,.1,0,0,0,0,0,0,0v-.3c-.1,0-.2-.3-.2-.4,0,0,0,.4,0,.4v.3c-.1,0,0,0,0,0h.1c0,.1-.1.2-.1.3s0,.2.1.2h0c-.1,0-.2.1-.2.2s0,.1.2.1h0c0,0-.2.1-.2.2s0,.2.2.2h0c0,0,0,0,0,0h0c0-.1.2-.2.2-.3s0-.2-.2-.2Z"/><path class="cls-6" d="M134.7,831.5s-.3,0-.4.3h.7c0-.3-.4-.3-.4-.3h0Z"/><path class="cls-22" d="M137.3,834.4h-5.1l1-.5s-.3-1.8,1.2-2.2h.7c1.5.4,1.2,2.2,1.2,2.2l1,.5h0Z"/><path class="cls-19" d="M137.3,834.4h-.7l-.8-.5c.3-1.2-1-2.2-1-2.2h.3c1.5.4,1.2,2.2,1.2,2.2l1,.5Z"/><rect class="cls-39" x="133.2" y="837" width="3.1" height="12.8"/><rect class="cls-43" x="135.3" y="837" width="1" height="12.8"/><rect class="cls-3" x="132.8" y="836.5" width="3.8" height=".4"/><rect class="cls-36" x="289.5" y="832.3" width="32.5" height="18.7"/><path class="cls-49" d="M305.7,836.2c1.8,0,3.2,1.2,3.2,2.7v12.2h-6.4v-12.2c0-1.5,1.4-2.7,3.2-2.7Z"/><path class="cls-49" d="M296.5,836.2h0c1.8,0,3.2,1.2,3.2,2.7v12.2h-6.4v-12.2c0-1.5,1.4-2.7,3.2-2.7Z"/><path class="cls-49" d="M314.9,836.2c1.8,0,3.2,1.2,3.2,2.7v12.2h-6.4v-12.2c0-1.5,1.4-2.7,3.2-2.7Z"/><path d="M305.2,836.2c1.5.2,2.8,1.3,2.8,2.7v12.2h.9v-12.2c0-1.5-1.5-2.7-3.2-2.7s-.3,0-.5,0h0Z"/><path d="M296,836.2c1.6.2,2.8,1.3,2.8,2.7v12.2h.9v-12.2c0-1.5-1.5-2.7-3.2-2.7s-.3,0-.5,0h0Z"/><path d="M314.4,836.2c1.5.2,2.8,1.3,2.8,2.7v12.2h.9v-12.2c0-1.5-1.4-2.7-3.2-2.7s-.3,0-.5,0h0Z"/><path d="M305.5,802.6v-.5c-1,0-1.7-.6-1.7-1.2s.7-1.1,1.7-1.2v-.6c-.7-.1-1.2-.7-1.2-1.5s.5-1.3,1.2-1.5v-.9h-.9c-.3,0-.6-.3-.5-.7l.9-2.3s.7-2.7.7-3.4c0,.7.7,3.4.7,3.4l.9,2.3c.1.3-.1.7-.5.7h-.9v.9c.7.1,1.2.7,1.2,1.5s-.5,1.3-1.2,1.5v.6c1,0,1.7.6,1.7,1.2s-.7,1.1-1.7,1.2v.5c.8.1,1.4.8,1.4,1.6s-.6,1.5-1.4,1.6v.8h-.5v-.8c-.8-.1-1.4-.8-1.4-1.6s.6-1.5,1.4-1.6Z"/><path class="cls-6" d="M305.7,806.5s3,0,3.1,2.7h-6.2c.1-2.7,3.1-2.7,3.1-2.7h0Z"/><path class="cls-22" d="M283.1,832.3h45.2l-9-4.1s2.6-15.8-10.5-19h-6.2c-13,3.3-10.5,19-10.5,19l-9,4.1h0Z"/><path class="cls-19" d="M283.1,832.3h6.2l7-4c-3-11.1,8.8-19.2,8.8-19.2h-2.6c-13,3.3-10.5,19-10.5,19l-9,4.1h0Z"/><rect class="cls-37" x="289.5" y="854.7" width="64.8" height="85.5"/><rect class="cls-5" x="289.5" y="849.8" width="67.1" height="4.9"/><rect class="cls-51" x="326.2" y="854.7" width="3.3" height="85.5"/><rect class="cls-26" x="331" y="858.7" width="20.2" height="40.5"/><rect class="cls-33" x="332.1" y="860.9" width="18" height="37"/><rect class="cls-41" x="333.1" y="862.3" width="16.1" height="35.6"/><path class="cls-13" d="M339.2,866.2c.5.5,1.8,1.6,3.5,2.8,3.8,2.7,3.8,7.6,3.8,7.6v21.3h2.6v-22.1s0-5.1-4-8c-2.4-1.7-4-3.3-4-3.3,0,0-.7.7-1.9,1.7h0Z"/><path class="cls-46" d="M333.1,875.8v22.1h13.4v-21.3s0-4.9-3.8-7.6c-1.7-1.2-3-2.3-3.5-2.8-.6.5-1.3,1-2.1,1.6-4,2.9-4,8-4,8h0Z"/><path class="cls-48" d="M348.5,897.9v-22.1s0-4.8-3.8-7.5c-1.7-1.2-3-2.4-3.7-3-.6.6-2,1.7-3.7,3-3.7,2.6-3.8,7.4-3.8,7.5v22.1h-.6v-22.1s0-5.1,4-8c2.4-1.7,4-3.3,4-3.3,0,0,1.6,1.6,4,3.3,4,2.9,4,8,4,8v22.1h-.6Z"/><rect class="cls-13" x="338.9" y="885.9" width="4.4" height="12"/><polygon class="cls-28" points="338.9 885.9 338.9 886.3 342.6 886.3 342.6 897.9 343.3 897.9 343.3 885.9 338.9 885.9"/><rect class="cls-26" x="331" y="903.2" width="20.2" height="40.5"/><rect class="cls-33" x="332.1" y="905.5" width="18" height="37"/><rect class="cls-41" x="333.1" y="906.9" width="16.1" height="35.6"/><path class="cls-13" d="M339.2,910.8c.5.5,1.8,1.6,3.5,2.8,3.8,2.7,3.8,7.6,3.8,7.6v21.3h2.6v-22.1s0-5.1-4-8c-2.4-1.7-4-3.3-4-3.3,0,0-.7.7-1.9,1.7h0Z"/><path class="cls-46" d="M333.1,920.4v22.1h13.4v-21.3s0-4.9-3.8-7.6c-1.7-1.2-3-2.3-3.5-2.8-.6.5-1.3,1-2.1,1.6-4,2.9-4,8-4,8h0Z"/><path class="cls-48" d="M348.5,942.5v-22.1s0-4.8-3.8-7.5c-1.7-1.2-3-2.4-3.7-3-.6.6-2,1.7-3.7,3-3.7,2.6-3.8,7.4-3.8,7.5v22.1h-.6v-22.1s0-5.1,4-8c2.4-1.7,4-3.3,4-3.3,0,0,1.6,1.6,4,3.3,4,2.9,4,8,4,8v22.1h-.6Z"/><rect class="cls-13" x="338.9" y="930.5" width="4.4" height="12"/><polygon class="cls-28" points="338.9 930.5 338.9 930.9 342.6 930.9 342.6 942.5 343.3 942.5 343.3 930.5 338.9 930.5"/><rect class="cls-26" x="293.7" y="858.7" width="30.6" height="40.5"/><rect class="cls-33" x="295.4" y="860.9" width="27.2" height="37"/><rect class="cls-41" x="296.8" y="862.3" width="24.3" height="35.6"/><path class="cls-13" d="M306.1,866.2c.8.5,2.8,1.6,5.3,2.8,5.8,2.7,5.8,7.6,5.8,7.6v21.3h4v-22.1s0-5.1-6.1-8c-3.6-1.7-6.1-3.3-6.1-3.3,0,0-1.1.7-2.9,1.7h0Z"/><path class="cls-46" d="M296.9,875.8v22.1h20.3v-21.3s0-4.9-5.8-7.6c-2.5-1.2-4.5-2.3-5.3-2.8-.9.5-2,1-3.2,1.6-6.1,2.9-6.1,8-6.1,8h0Z"/><path class="cls-48" d="M320.2,897.9v-22.1s0-4.8-5.7-7.5c-2.6-1.2-4.6-2.4-5.6-3-1,.6-2.9,1.7-5.6,3-5.6,2.6-5.7,7.4-5.7,7.5v22.1h-.9v-22.1s0-5.1,6.1-8c3.6-1.7,6.1-3.3,6.1-3.3,0,0,2.4,1.6,6.1,3.3,6.1,2.9,6.1,8,6.1,8v22.1h-.9,0Z"/><rect class="cls-13" x="305.6" y="885.9" width="6.7" height="12"/><polygon class="cls-28" points="305.6 885.9 305.6 886.3 311.3 886.3 311.3 897.9 312.3 897.9 312.3 885.9 305.6 885.9"/><rect class="cls-26" x="293.7" y="903.2" width="30.6" height="40.5"/><rect class="cls-33" x="295.4" y="905.5" width="27.2" height="37"/><rect class="cls-41" x="296.8" y="906.9" width="24.3" height="35.6"/><path class="cls-13" d="M306.1,910.8c.8.5,2.8,1.6,5.3,2.8,5.8,2.7,5.8,7.6,5.8,7.6v21.3h4v-22.1s0-5.1-6.1-8c-3.6-1.7-6.1-3.3-6.1-3.3,0,0-1.1.7-2.9,1.7h0Z"/><path class="cls-46" d="M296.9,920.4v22.1h20.3v-21.3s0-4.9-5.8-7.6c-2.5-1.2-4.5-2.3-5.3-2.8-.9.5-2,1-3.2,1.6-6.1,2.9-6.1,8-6.1,8h0Z"/><path class="cls-48" d="M320.2,942.5v-22.1s0-4.8-5.7-7.5c-2.6-1.2-4.6-2.4-5.6-3-1,.6-2.9,1.7-5.6,3-5.6,2.6-5.7,7.4-5.7,7.5v22.1h-.9v-22.1s0-5.1,6.1-8c3.6-1.7,6.1-3.3,6.1-3.3,0,0,2.4,1.6,6.1,3.3,6.1,2.9,6.1,8,6.1,8v22.1h-.9,0Z"/><rect class="cls-13" x="305.6" y="930.5" width="6.7" height="12"/><polygon class="cls-28" points="305.6 930.5 305.6 930.9 311.3 930.9 311.3 942.5 312.3 942.5 312.3 930.5 305.6 930.5"/><rect class="cls-36" x="325.6" y="834.4" width="3.1" height="2.1"/><path class="cls-49" d="M327.5,836.5h-.6v-1.6s0,0,0,0h.5s0,0,0,0v1.6h0Z"/><path class="cls-49" d="M326.6,836.5h-.6v-1.6s0,0,0,0h.5s0,0,0,0v1.6h0Z"/><path class="cls-49" d="M328.3,836.5h-.6v-1.6s0,0,0,0h.5s0,0,0,0v1.6h0Z"/><path d="M327.1,834.8c.1,0,.3.2.3.3v1.4h0v-1.4c0-.2-.1-.3-.3-.3h0Z"/><path d="M326.3,834.8c.1,0,.3.2.3.3v1.4h0v-1.4c0-.2-.1-.3-.3-.3h0Z"/><path d="M328,834.8c.1,0,.3.2.3.3v1.4h0v-1.4c0-.2-.1-.3-.3-.3h0Z"/><path d="M327.1,831h0c-.1,0-.2-.1-.2-.2s0-.1.2-.1h0c0,0-.1-.2-.1-.2s0-.2.1-.2h0c0,0-.1,0-.1,0,0,0,0,0,0,0v-.3c.1,0,.2-.3.2-.4,0,0,0,.4,0,.4v.3c.1,0,0,0,0,0h-.1c0,.1.1.2.1.3s0,.2-.1.2h0c.1,0,.2.1.2.2s0,.1-.2.1h0c0,0,.2.1.2.2s0,.2-.2.2h0c0,0,0,0,0,0h0c0-.1-.2-.2-.2-.3s0-.2.2-.2Z"/><path class="cls-6" d="M327.2,831.5s.3,0,.4.3h-.7c0-.3.4-.3.4-.3Z"/><path class="cls-22" d="M324.6,834.4h5.1l-1-.5s.3-1.8-1.2-2.2h-.7c-1.5.4-1.2,2.2-1.2,2.2l-1,.5h0Z"/><path class="cls-19" d="M324.6,834.4h.7l.8-.5c-.3-1.2,1-2.2,1-2.2h-.3c-1.5.4-1.2,2.2-1.2,2.2l-1,.5Z"/><rect class="cls-39" x="325.6" y="836.9" width="3.1" height="12.8"/><rect class="cls-43" x="325.6" y="836.9" width="1" height="12.8"/><rect class="cls-3" x="325.3" y="836.5" width="3.8" height=".4"/><rect class="cls-36" x="341.5" y="830.2" width="3.1" height="2.1"/><path class="cls-49" d="M343.3,832.3h-.6v-1.6s0,0,0,0h.5s0,0,0,0v1.6h0Z"/><path class="cls-49" d="M342.5,832.3h-.6v-1.6s0,0,0,0h.5s0,0,0,0v1.6h0Z"/><path class="cls-49" d="M344.2,832.3h-.6v-1.6s0,0,0,0h.5s0,0,0,0v1.6h0Z"/><path d="M343,830.6c.1,0,.3.2.3.3v1.4h0v-1.4c0-.2-.1-.3-.3-.3h0Z"/><path d="M342.1,830.6c.1,0,.3.2.3.3v1.4h0v-1.4c0-.2-.1-.3-.3-.3h0Z"/><path d="M343.9,830.6c.1,0,.3.2.3.3v1.4h0v-1.4c0-.2-.1-.3-.3-.3h0Z"/><path d="M343,826.8h0c-.1,0-.2-.1-.2-.2s0-.1.2-.1h0c0,0-.1-.2-.1-.2s0-.2.1-.2h0c0,0-.1,0-.1,0,0,0,0,0,0,0v-.3c.1,0,.2-.3.2-.4,0,0,0,.4,0,.4v.3c.1,0,0,0,0,0h-.1c0,.1.1.2.1.3s0,.2-.1.2h0c.1,0,.2.1.2.2s0,.1-.2.1h0c0,0,.2.1.2.2s0,.2-.2.2h0c0,0,0,0,0,0h0c0-.1-.2-.2-.2-.3s0-.2.2-.2Z"/><path class="cls-6" d="M343,827.3s.3,0,.4.3h-.7c0-.3.4-.3.4-.3Z"/><path class="cls-22" d="M340.5,830.2h5.1l-1-.5s.3-1.8-1.2-2.2h-.7c-1.5.4-1.2,2.2-1.2,2.2l-1,.5h0Z"/><path class="cls-19" d="M340.5,830.2h.7l.8-.5c-.3-1.2,1-2.2,1-2.2h-.3c-1.5.4-1.2,2.2-1.2,2.2l-1,.5Z"/><rect class="cls-39" x="341.5" y="832.7" width="3.1" height="12.8"/><rect class="cls-43" x="341.5" y="832.7" width="1" height="12.8"/><rect class="cls-3" x="341.1" y="832.3" width="3.8" height=".4"/><rect class="cls-36" x="347.1" y="821.3" width="3.1" height="2.1"/><path class="cls-49" d="M349,823.4h-.6v-1.6s0,0,0,0h.5s0,0,0,0v1.6h0Z"/><path class="cls-49" d="M348.1,823.4h-.6v-1.6s0,0,0,0h.5s0,0,0,0v1.6h0Z"/><path class="cls-49" d="M349.8,823.4h-.6v-1.6s0,0,0,0h.5s0,0,0,0v1.6h0Z"/><path d="M348.6,821.7c.1,0,.3.2.3.3v1.4h0v-1.4c0-.2-.1-.3-.3-.3h0Z"/><path d="M347.7,821.7c.1,0,.3.2.3.3v1.4h0v-1.4c0-.2-.1-.3-.3-.3h0Z"/><path d="M349.5,821.7c.1,0,.3.2.3.3v1.4h0v-1.4c0-.2-.1-.3-.3-.3h0Z"/><path d="M348.6,817.9h0c-.1,0-.2-.1-.2-.2s0-.1.2-.1h0c0,0-.1-.2-.1-.2s0-.2.1-.2h0c0,0-.1,0-.1,0,0,0,0,0,0,0v-.3c.1,0,.2-.3.2-.4,0,0,0,.4,0,.4v.3c.1,0,0,0,0,0h-.1c0,.1.1.2.1.3s0,.2-.1.2h0c.1,0,.2.1.2.2s0,.1-.2.1h0c0,0,.2.1.2.2s0,.2-.2.2h0c0,0,0,0,0,0h0c0-.1-.2-.2-.2-.3s0-.2.2-.2Z"/><path class="cls-6" d="M348.6,818.3s.3,0,.4.3h-.7c0-.3.4-.3.4-.3Z"/><path class="cls-22" d="M346.1,821.3h5.1l-1-.5s.3-1.8-1.2-2.2h-.7c-1.5.4-1.2,2.2-1.2,2.2l-1,.5h0Z"/><path class="cls-19" d="M346.1,821.3h.7l.8-.5c-.3-1.2,1-2.2,1-2.2h-.3c-1.5.4-1.2,2.2-1.2,2.2l-1,.5Z"/><rect class="cls-39" x="347.1" y="823.8" width="3.1" height="12.8"/><rect class="cls-43" x="347.1" y="823.8" width="1" height="12.8"/><rect class="cls-3" x="346.7" y="823.4" width="3.8" height=".4"/><rect class="cls-45" x="341.3" y="841.3" width="13" height="8.5"/><rect class="cls-23" x="340.1" y="840.4" width="14.2" height="1"/><rect class="cls-24" x="341.3" y="841.3" width="3.4" height="8.5"/><rect class="cls-9" x="340" y="840.4" width="4.7" height="1"/><rect class="cls-47" x="341.3" y="836.2" width="13" height="4.2"/><rect class="cls-17" x="341.3" y="836.2" width="3.4" height="4.2"/><rect class="cls-36" x="351.2" y="834.4" width="3.1" height="2.1"/><path class="cls-49" d="M353,836.5h-.6v-1.6s0,0,0,0h.5s0,0,0,0v1.6h0Z"/><path class="cls-49" d="M352.2,836.5h-.6v-1.6s0,0,0,0h.5s0,0,0,0v1.6h0Z"/><path class="cls-49" d="M353.9,836.5h-.6v-1.6s0,0,0,0h.5s0,0,0,0v1.6h0Z"/><path d="M352.7,834.8c.1,0,.3.2.3.3v1.4h0v-1.4c0-.2-.1-.3-.3-.3h0Z"/><path d="M351.8,834.8c.1,0,.3.2.3.3v1.4h0v-1.4c0-.2-.1-.3-.3-.3h0Z"/><path d="M353.6,834.8c.1,0,.3.2.3.3v1.4h0v-1.4c0-.2-.1-.3-.3-.3h0Z"/><path d="M352.7,831h0c-.1,0-.2-.1-.2-.2s0-.1.2-.1h0c0,0-.1-.2-.1-.2s0-.2.1-.2h0c0,0-.1,0-.1,0,0,0,0,0,0,0v-.3c.1,0,.2-.3.2-.4,0,0,0,.4,0,.4v.3c.1,0,0,0,0,0h-.1c0,.1.1.2.1.3s0,.2-.1.2h0c.1,0,.2.1.2.2s0,.1-.2.1h0c0,0,.2.1.2.2s0,.2-.2.2h0c0,0,0,0,0,0h0c0-.1-.2-.2-.2-.3s0-.2.2-.2Z"/><path class="cls-6" d="M352.8,831.5s.3,0,.4.3h-.7c0-.3.4-.3.4-.3Z"/><path class="cls-22" d="M350.2,834.4h5.1l-1-.5s.3-1.8-1.2-2.2h-.7c-1.5.4-1.2,2.2-1.2,2.2l-1,.5h0Z"/><path class="cls-19" d="M350.2,834.4h.7l.8-.5c-.3-1.2,1-2.2,1-2.2h-.3c-1.5.4-1.2,2.2-1.2,2.2l-1,.5Z"/><rect class="cls-39" x="351.2" y="836.9" width="3.1" height="12.8"/><rect class="cls-43" x="351.2" y="836.9" width="1" height="12.8"/><rect class="cls-3" x="350.8" y="836.5" width="3.8" height=".4"/><polygon class="cls-22" points="382.1 932.1 402.1 932.1 401.4 898 401.4 896.9 399.5 810.8 384.7 810.8 382.9 896.9 382.9 898 382.1 932.1"/><polygon class="cls-32" points="382.1 932.1 387.5 932.1 390.2 810.8 384.7 810.8 382.1 932.1"/><rect class="cls-50" x="380.2" y="891.2" width="23.8" height="3.4" rx=".3" ry=".3"/><polygon class="cls-44" points="382.9 896.9 401.4 896.9 403.2 894.6 381.1 894.6 382.9 896.9"/><rect x="399.6" y="895.2" width="1.7" height="1.8"/><rect x="382.9" y="895.2" width="1.7" height="1.8"/><rect x="396" y="895.2" width="2.3" height="1.8"/><rect x="392.7" y="895.2" width="2.3" height="1.8"/><rect x="389.3" y="895.2" width="2.3" height="1.8"/><rect x="386" y="895.2" width="2.3" height="1.8"/><polygon class="cls-11" points="382.9 898 401.4 898 401.4 896.9 382.9 896.9 382.9 898"/><rect class="cls-50" x="381" y="850.9" width="22.3" height="3.4" rx=".3" ry=".3"/><polygon class="cls-44" points="383.5 856.6 400.8 856.6 402.5 854.3 381.8 854.3 383.5 856.6"/><rect x="399.1" y="854.8" width="1.6" height="1.8"/><rect x="383.5" y="854.8" width="1.6" height="1.8"/><rect x="395.8" y="854.8" width="2.1" height="1.8"/><rect x="392.6" y="854.8" width="2.1" height="1.8"/><rect x="389.5" y="854.8" width="2.1" height="1.8"/><rect x="386.4" y="854.8" width="2.1" height="1.8"/><polygon class="cls-11" points="383.5 857.6 400.8 857.6 400.8 856.6 383.5 856.6 383.5 857.6"/><path class="cls-50" d="M401.7,808.9h-19.2c-.1,0-.2-.1-.2-.2v-2.3c0-.1.1-.2.2-.2h19.2c.1,0,.2.1.2.2v2.3c0,.1-.1.2-.2.2Z"/><polygon class="cls-44" points="384.5 810.8 399.8 810.8 401.3 808.9 383 808.9 384.5 810.8"/><rect x="398.4" y="809.3" width="1.4" height="1.5"/><rect x="384.5" y="809.3" width="1.4" height="1.5"/><rect x="395.4" y="809.3" width="1.9" height="1.5"/><rect x="392.6" y="809.3" width="1.9" height="1.5"/><rect x="389.8" y="809.3" width="1.9" height="1.5"/><rect x="387" y="809.3" width="1.9" height="1.5"/><polygon class="cls-11" points="384.5 811.7 399.8 811.7 399.8 810.8 384.5 810.8 384.5 811.7"/><rect class="cls-36" x="385.2" y="796.5" width="13.9" height="9.5"/><path class="cls-49" d="M393.5,806.1h-2.8v-7.3c0-.1.1-.2.2-.2h2.2c.1,0,.2.1.2.2v7.3h0Z"/><path class="cls-49" d="M389.6,806.1h-2.8v-7.3c0-.1.1-.2.2-.2h2.2c.1,0,.2.1.2.2v7.3h0Z"/><path class="cls-49" d="M397.4,806.1h-2.8v-7.3c0-.1.1-.2.2-.2h2.2c.1,0,.2.1.2.2v7.3h0Z"/><path d="M391.9,798.5c.7,0,1.2.7,1.2,1.4v6.2h.4v-6.2c0-.8-.6-1.4-1.4-1.4s-.1,0-.2,0h0Z"/><path d="M388,798.5c.7,0,1.2.7,1.2,1.4v6.2h.4v-6.2c0-.8-.6-1.4-1.4-1.4s-.1,0-.2,0h0Z"/><path d="M395.9,798.5c.7,0,1.2.7,1.2,1.4v6.2h.4v-6.2c0-.8-.6-1.4-1.4-1.4s-.1,0-.2,0h0Z"/><path d="M392,781.4v-.2c-.5,0-.9-.3-.9-.6s.4-.6.9-.6v-.3c-.4,0-.6-.4-.6-.8s.3-.7.6-.8v-.5h-.5c-.2,0-.3-.2-.2-.3l.4-1.2s.4-1.4.4-1.8c0,.4.4,1.8.4,1.8l.4,1.2c0,.2,0,.3-.2.3h-.5v.5c.4,0,.6.4.6.8s-.3.7-.6.8v.3c.5,0,.9.3.9.6s-.4.6-.9.6v.2c.4,0,.7.4.7.8s-.3.8-.7.8v.4h-.2v-.4c-.4,0-.7-.4-.7-.8s.3-.8.7-.8h0Z"/><path class="cls-6" d="M392.1,783.4s1.5,0,1.6,1.4h-3.2c0-1.4,1.6-1.4,1.6-1.4h0Z"/><path class="cls-22" d="M380.6,796.5h23.1l-4.6-2.1s1.3-8-5.3-9.7h-3.2c-6.6,1.7-5.3,9.7-5.3,9.7l-4.6,2.1Z"/><path class="cls-19" d="M380.6,796.5h3.2l3.6-2c-1.5-5.7,4.5-9.8,4.5-9.8h-1.3c-6.6,1.7-5.3,9.7-5.3,9.7l-4.6,2.1h0Z"/><rect class="cls-25" x="379.7" y="932.1" width="24.9" height="3"/><rect class="cls-8" x="396.7" y="935.1" width="9.2" height="26.1"/><rect class="cls-7" x="387.5" y="935.1" width="9.2" height="26.1"/><rect class="cls-11" x="378.3" y="935.1" width="9.2" height="26.1"/><polygon class="cls-22" points="105.4 932.1 85.3 932.1 86.1 898 86.1 896.9 88 810.8 102.8 810.8 104.6 896.9 104.7 898 105.4 932.1"/><polygon class="cls-32" points="105.4 932.1 99.9 932.1 97.3 810.8 102.8 810.8 105.4 932.1"/><rect class="cls-50" x="83.5" y="891.2" width="23.8" height="3.4" rx=".3" ry=".3"/><polygon class="cls-44" points="104.6 896.9 86.1 896.9 84.3 894.6 106.4 894.6 104.6 896.9"/><rect x="86.1" y="895.2" width="1.7" height="1.8"/><rect x="102.9" y="895.2" width="1.7" height="1.8"/><rect x="89.2" y="895.2" width="2.3" height="1.8"/><rect x="92.5" y="895.2" width="2.3" height="1.8"/><rect x="95.9" y="895.2" width="2.3" height="1.8"/><rect x="99.2" y="895.2" width="2.3" height="1.8"/><polygon class="cls-11" points="104.7 898 86.1 898 86.1 896.9 104.6 896.9 104.7 898"/><rect class="cls-50" x="84.2" y="850.9" width="22.3" height="3.4" rx=".3" ry=".3"/><polygon class="cls-44" points="104 856.6 86.7 856.6 85 854.3 105.7 854.3 104 856.6"/><rect x="86.7" y="854.8" width="1.6" height="1.8"/><rect x="102.4" y="854.8" width="1.6" height="1.8"/><rect x="89.6" y="854.8" width="2.1" height="1.8"/><rect x="92.7" y="854.8" width="2.1" height="1.8"/><rect x="95.8" y="854.8" width="2.1" height="1.8"/><rect x="99" y="854.8" width="2.1" height="1.8"/><polygon class="cls-11" points="104.1 857.6 86.7 857.6 86.7 856.6 104 856.6 104.1 857.6"/><rect class="cls-50" x="85.5" y="806.1" width="19.7" height="2.8" rx=".2" ry=".2"/><polygon class="cls-44" points="103 810.8 87.7 810.8 86.2 808.9 104.5 808.9 103 810.8"/><rect x="87.7" y="809.3" width="1.4" height="1.5"/><rect x="101.6" y="809.3" width="1.4" height="1.5"/><rect x="90.3" y="809.3" width="1.9" height="1.5"/><rect x="93" y="809.3" width="1.9" height="1.5"/><rect x="95.8" y="809.3" width="1.9" height="1.5"/><rect x="98.6" y="809.3" width="1.9" height="1.5"/><polygon class="cls-11" points="103 811.7 87.7 811.7 87.7 810.8 103 810.8 103 811.7"/><rect class="cls-36" x="88.4" y="796.5" width="13.9" height="9.5"/><path class="cls-49" d="M94.2,798.5h2.2c.1,0,.2.1.2.2v7.3h-2.8v-7.3c0-.1.1-.2.2-.2Z"/><path class="cls-49" d="M98.2,798.5h2.2c.1,0,.2.1.2.2v7.3h-2.8v-7.3c0-.1.1-.2.2-.2Z"/><path class="cls-49" d="M90.3,798.5h2.2c.1,0,.2.1.2.2v7.3h-2.8v-7.3c0-.1.1-.2.2-.2Z"/><path d="M95.6,798.5c-.7,0-1.2.7-1.2,1.4v6.2h-.4v-6.2c0-.8.6-1.4,1.4-1.4s.1,0,.2,0h0Z"/><path d="M99.5,798.5c-.7,0-1.2.7-1.2,1.4v6.2h-.4v-6.2c0-.8.6-1.4,1.4-1.4s.1,0,.2,0h0Z"/><path d="M91.6,798.5c-.7,0-1.2.7-1.2,1.4v6.2h-.4v-6.2c0-.8.6-1.4,1.4-1.4s.1,0,.2,0h0Z"/><path d="M95.5,781.4v-.2c.5,0,.9-.3.9-.6s-.4-.6-.9-.6v-.3c.4,0,.6-.4.6-.8s-.3-.7-.6-.8v-.5h.4c.2,0,.3-.2.2-.3l-.4-1.2s-.4-1.4-.4-1.8c0,.4-.4,1.8-.4,1.8l-.4,1.2c0,.2,0,.3.2.3h.4v.5c-.4,0-.6.4-.6.8s.3.7.6.8v.3c-.5,0-.9.3-.9.6s.4.6.9.6v.2c-.4,0-.7.4-.7.8s.3.8.7.8v.4h.2v-.4c.4,0,.7-.4.7-.8s-.3-.8-.7-.8h0Z"/><path class="cls-6" d="M95.4,783.4s-1.5,0-1.6,1.4h3.2c0-1.4-1.6-1.4-1.6-1.4h0Z"/><path class="cls-22" d="M106.9,796.5h-23.1l4.6-2.1s-1.3-8,5.3-9.7h3.2c6.7,1.7,5.3,9.7,5.3,9.7l4.6,2.1Z"/><path class="cls-19" d="M106.9,796.5h-3.2l-3.6-2c1.6-5.7-4.5-9.8-4.5-9.8h1.3c6.7,1.7,5.3,9.7,5.3,9.7l4.6,2.1h0Z"/><rect class="cls-25" x="82.9" y="932.1" width="24.9" height="3"/><rect class="cls-8" x="81.6" y="935.1" width="9.2" height="26.1"/><rect class="cls-7" x="90.8" y="935.1" width="9.2" height="26.1"/><rect class="cls-11" x="100" y="935.1" width="9.2" height="26.1"/><polygon class="cls-35" points="243.8 940.2 64.5 940.2 64.5 965.3 243.8 965.3 423 965.3 423 940.2 243.8 940.2"/><path class="cls-25" d="M78.9,948.5h-9.9v-5h9.9v5ZM69.3,948.2h9.3v-4.4h-9.3v4.4Z"/><path class="cls-25" d="M78.9,965h-9.9v-14.2h9.9v14.2ZM69.3,964.7h9.3v-13.6h-9.3v13.6Z"/><path class="cls-25" d="M77.2,963.6h-6.6v-9.4h.4c0-.5.7-.8,1.6-1.1,0-.6.6-1,1.3-1s1.3.5,1.3,1c.9.2,1.5.6,1.6,1.1h.4v9.4h0ZM71,963.3h5.9v-8.8h-.4v-.2c0-.4-.6-.8-1.5-.9h-.1s0-.2,0-.2c0,0,0,0,0,0,0-.4-.4-.7-1-.7s-1,.3-1,.7h0s0,.2,0,.2h-.1c-.9.2-1.5.6-1.5,1v.2h-.4v8.8h0Z"/><path class="cls-25" d="M91,948.5h-9.9v-5h9.9v5ZM81.4,948.2h9.3v-4.4h-9.3v4.4Z"/><path class="cls-25" d="M91,965h-9.9v-14.2h9.9v14.2ZM81.4,964.7h9.3v-13.6h-9.3v13.6Z"/><path class="cls-25" d="M89.4,963.6h-6.6v-9.4h.4c0-.5.7-.8,1.6-1.1,0-.6.6-1,1.3-1s1.3.5,1.3,1c.9.2,1.5.6,1.6,1.1h.4v9.4h0ZM83.1,963.3h5.9v-8.8h-.4v-.2c0-.4-.6-.8-1.5-.9h-.1s0-.2,0-.2c0,0,0,0,0,0,0-.4-.4-.7-1-.7s-1,.3-1,.7h0s0,.2,0,.2h-.1c-.9.2-1.5.6-1.5,1v.2h-.4v8.8h0Z"/><path class="cls-25" d="M103.2,948.5h-9.9v-5h9.9v5ZM93.6,948.2h9.3v-4.4h-9.3v4.4Z"/><path class="cls-25" d="M103.2,965h-9.9v-14.2h9.9v14.2ZM93.6,964.7h9.3v-13.6h-9.3v13.6Z"/><path class="cls-25" d="M101.5,963.6h-6.6v-9.4h.4c0-.5.7-.8,1.6-1.1,0-.6.6-1,1.3-1s1.3.5,1.3,1c.9.2,1.5.6,1.6,1.1h.4v9.4h0ZM95.2,963.3h5.9v-8.8h-.4v-.2c0-.4-.6-.8-1.5-.9h-.1s0-.2,0-.2c0,0,0,0,0,0,0-.4-.4-.7-1-.7s-1,.3-1,.7h0s0,.2,0,.2h-.1c-.9.2-1.5.6-1.5,1v.2h-.4v8.8h0Z"/><path class="cls-25" d="M115.3,948.5h-9.9v-5h9.9v5ZM105.7,948.2h9.3v-4.4h-9.3v4.4Z"/><path class="cls-25" d="M115.3,965h-9.9v-14.2h9.9v14.2ZM105.7,964.7h9.3v-13.6h-9.3v13.6Z"/><path class="cls-25" d="M113.6,963.6h-6.6v-9.4h.4c0-.5.7-.8,1.6-1.1,0-.6.6-1,1.3-1s1.3.5,1.3,1c.9.2,1.5.6,1.6,1.1h.4v9.4h0ZM107.4,963.3h5.9v-8.8h-.4v-.2c0-.4-.6-.8-1.5-.9h-.1s0-.2,0-.2c0,0,0,0,0,0,0-.4-.4-.7-1-.7s-1,.3-1,.7h0s0,.2,0,.2h-.1c-.9.2-1.5.6-1.5,1v.2h-.4v8.8h0Z"/><path class="cls-25" d="M127.4,948.5h-9.9v-5h9.9v5ZM117.8,948.2h9.3v-4.4h-9.3v4.4Z"/><path class="cls-25" d="M127.4,965h-9.9v-14.2h9.9v14.2ZM117.8,964.7h9.3v-13.6h-9.3v13.6Z"/><path class="cls-25" d="M125.7,963.6h-6.6v-9.4h.4c0-.5.7-.8,1.6-1.1,0-.6.6-1,1.3-1s1.3.5,1.3,1c.9.2,1.5.6,1.6,1.1h.4v9.4h0ZM119.5,963.3h5.9v-8.8h-.4v-.2c0-.4-.6-.8-1.5-.9h-.1s0-.2,0-.2c0,0,0,0,0,0,0-.4-.4-.7-1-.7s-1,.3-1,.7h0s0,.2,0,.2h-.1c-.9.2-1.5.6-1.5,1v.2h-.4v8.8h0Z"/><path class="cls-25" d="M139.5,948.5h-9.9v-5h9.9v5ZM130,948.2h9.3v-4.4h-9.3v4.4Z"/><path class="cls-25" d="M139.5,965h-9.9v-14.2h9.9v14.2ZM130,964.7h9.3v-13.6h-9.3v13.6Z"/><path class="cls-25" d="M137.9,963.6h-6.6v-9.4h.4c.1-.5.7-.8,1.6-1.1,0-.6.6-1,1.3-1s1.3.5,1.3,1c.9.2,1.5.6,1.6,1.1h.4v9.4h0ZM131.6,963.3h5.9v-8.8h-.4v-.2c0-.4-.6-.8-1.5-.9h-.1s0-.2,0-.2c0,0,0,0,0,0,0-.4-.4-.7-1-.7s-1,.3-1,.7h0s0,.2,0,.2h-.1c-.9.2-1.5.6-1.5,1v.2h-.4v8.8h0Z"/><path class="cls-25" d="M151.7,948.5h-9.9v-5h9.9v5ZM142.1,948.2h9.3v-4.4h-9.3v4.4Z"/><path class="cls-25" d="M151.7,965h-9.9v-14.2h9.9v14.2ZM142.1,964.7h9.3v-13.6h-9.3v13.6Z"/><path class="cls-25" d="M150,963.6h-6.6v-9.4h.4c.1-.5.7-.8,1.6-1.1,0-.6.6-1,1.3-1s1.3.5,1.3,1c.9.2,1.5.6,1.6,1.1h.4v9.4h0ZM143.8,963.3h5.9v-8.8h-.4v-.2c0-.4-.6-.8-1.5-.9h-.1s0-.2,0-.2c0,0,0,0,0,0,0-.4-.4-.7-1-.7s-1,.3-1,.7h0s0,.2,0,.2h-.1c-.9.2-1.5.6-1.5,1v.2h-.4v8.8h0Z"/><path class="cls-25" d="M163.8,948.5h-9.9v-5h9.9v5ZM154.2,948.2h9.3v-4.4h-9.3v4.4Z"/><path class="cls-25" d="M163.8,965h-9.9v-14.2h9.9v14.2ZM154.2,964.7h9.3v-13.6h-9.3v13.6Z"/><path class="cls-25" d="M162.1,963.6h-6.6v-9.4h.4c.1-.5.7-.8,1.6-1.1,0-.6.6-1,1.3-1s1.3.5,1.3,1c.9.2,1.5.6,1.6,1.1h.4v9.4h0ZM155.9,963.3h5.9v-8.8h-.4v-.2c0-.4-.6-.8-1.5-.9h-.1s0-.2,0-.2c0,0,0,0,0,0,0-.4-.4-.7-1-.7s-1,.3-1,.7h0s0,.2,0,.2h-.1c-.9.2-1.5.6-1.5,1v.2h-.4v8.8h0Z"/><path class="cls-25" d="M175.9,948.5h-9.9v-5h9.9v5ZM166.3,948.2h9.3v-4.4h-9.3v4.4Z"/><path class="cls-25" d="M175.9,965h-9.9v-14.2h9.9v14.2ZM166.3,964.7h9.3v-13.6h-9.3v13.6Z"/><path class="cls-25" d="M174.3,963.6h-6.6v-9.4h.4c.1-.5.7-.8,1.6-1.1,0-.6.6-1,1.3-1s1.3.5,1.3,1c.9.2,1.5.6,1.6,1.1h.4v9.4h0ZM168,963.3h5.9v-8.8h-.4v-.2c0-.4-.6-.8-1.5-.9h-.1s0-.2,0-.2c0,0,0,0,0,0,0-.4-.4-.7-1-.7s-1,.3-1,.7h0s0,.2,0,.2h-.1c-.9.2-1.5.6-1.5,1v.2h-.4v8.8h0Z"/><path class="cls-25" d="M188.1,948.5h-9.9v-5h9.9v5ZM178.5,948.2h9.3v-4.4h-9.3v4.4Z"/><path class="cls-25" d="M188.1,965h-9.9v-14.2h9.9v14.2ZM178.5,964.7h9.3v-13.6h-9.3v13.6Z"/><path class="cls-25" d="M186.4,963.6h-6.6v-9.4h.4c.1-.5.7-.8,1.6-1.1,0-.6.6-1,1.3-1s1.3.5,1.3,1c.9.2,1.5.6,1.6,1.1h.4v9.4h0ZM180.1,963.3h5.9v-8.8h-.4v-.2c0-.4-.6-.8-1.5-.9h-.1s0-.2,0-.2c0,0,0,0,0,0,0-.4-.4-.7-1-.7s-1,.3-1,.7h0s0,.2,0,.2h-.1c-.9.2-1.5.6-1.5,1v.2h-.4v8.8h0Z"/><path class="cls-25" d="M200.2,948.5h-9.9v-5h9.9v5ZM190.6,948.2h9.3v-4.4h-9.3v4.4Z"/><path class="cls-25" d="M200.2,965h-9.9v-14.2h9.9v14.2ZM190.6,964.7h9.3v-13.6h-9.3v13.6Z"/><path class="cls-25" d="M198.5,963.6h-6.6v-9.4h.4c.1-.5.7-.8,1.6-1.1,0-.6.6-1,1.3-1s1.3.5,1.3,1c.9.2,1.5.6,1.6,1.1h.4v9.4h0ZM192.3,963.3h5.9v-8.8h-.4v-.2c0-.4-.6-.8-1.5-.9h-.1s0-.2,0-.2c0,0,0,0,0,0,0-.4-.4-.7-1-.7s-1,.3-1,.7h0s0,.2,0,.2h-.1c-.9.2-1.5.6-1.5,1v.2h-.4v8.8h0Z"/><path class="cls-25" d="M212.3,948.5h-9.9v-5h9.9v5ZM202.7,948.2h9.3v-4.4h-9.3v4.4Z"/><path class="cls-25" d="M212.3,965h-9.9v-14.2h9.9v14.2ZM202.7,964.7h9.3v-13.6h-9.3v13.6Z"/><path class="cls-25" d="M210.6,963.6h-6.6v-9.4h.4c.1-.5.7-.8,1.6-1.1,0-.6.6-1,1.3-1s1.3.5,1.3,1c.9.2,1.5.6,1.6,1.1h.4v9.4h0ZM204.4,963.3h5.9v-8.8h-.4v-.2c0-.4-.6-.8-1.5-.9h-.1s0-.2,0-.2c0,0,0,0,0,0,0-.4-.4-.7-1-.7s-1,.3-1,.7h0s0,.2,0,.2h-.1c-.9.2-1.5.6-1.5,1v.2h-.4v8.8h0Z"/><path class="cls-25" d="M224.4,948.5h-9.9v-5h9.9v5ZM214.9,948.2h9.3v-4.4h-9.3v4.4Z"/><path class="cls-25" d="M224.4,965h-9.9v-14.2h9.9v14.2ZM214.9,964.7h9.3v-13.6h-9.3v13.6Z"/><path class="cls-25" d="M222.8,963.6h-6.6v-9.4h.4c.1-.5.7-.8,1.6-1.1,0-.6.6-1,1.3-1s1.3.5,1.3,1c.9.2,1.5.6,1.6,1.1h.4v9.4h0ZM216.5,963.3h5.9v-8.8h-.4v-.2c0-.4-.6-.8-1.5-.9h-.1s0-.2,0-.2c0,0,0,0,0,0,0-.4-.4-.7-1-.7s-1,.3-1,.7h0s0,.2,0,.2h-.1c-.9.2-1.5.6-1.5,1v.2h-.4v8.8h0Z"/><path class="cls-25" d="M236.6,948.5h-9.9v-5h9.9v5ZM227,948.2h9.3v-4.4h-9.3v4.4Z"/><path class="cls-25" d="M236.6,965h-9.9v-14.2h9.9v14.2ZM227,964.7h9.3v-13.6h-9.3v13.6Z"/><path class="cls-25" d="M234.9,963.6h-6.6v-9.4h.4c.1-.5.7-.8,1.6-1.1,0-.6.6-1,1.3-1s1.3.5,1.3,1c.9.2,1.5.6,1.6,1.1h.4v9.4h0ZM228.6,963.3h5.9v-8.8h-.4v-.2c0-.4-.6-.8-1.5-.9h-.1s0-.2,0-.2c0,0,0,0,0,0,0-.4-.4-.7-1-.7s-1,.3-1,.7h0s0,.2,0,.2h-.1c-.9.2-1.5.6-1.5,1v.2h-.4v8.8h0Z"/><path class="cls-25" d="M248.7,948.5h-9.9v-5h9.9v5ZM239.1,948.2h9.3v-4.4h-9.3v4.4Z"/><path class="cls-25" d="M248.7,965h-9.9v-14.2h9.9v14.2ZM239.1,964.7h9.3v-13.6h-9.3v13.6Z"/><path class="cls-25" d="M247,963.6h-6.6v-9.4h.4c.1-.5.7-.8,1.6-1.1,0-.6.6-1,1.3-1s1.3.5,1.3,1c.9.2,1.5.6,1.6,1.1h.4v9.4h0ZM240.8,963.3h5.9v-8.8h-.4v-.2c0-.4-.6-.8-1.5-.9h-.1s0-.2,0-.2c0,0,0,0,0,0,0-.4-.4-.7-1-.7s-1,.3-1,.7h0s0,.2,0,.2h-.1c-.9.2-1.5.6-1.5,1v.2h-.4v8.8h0Z"/><polygon class="cls-15" points="244.1 937.3 243.6 937.3 62.9 937.3 62.9 937.6 62.7 937.6 62.7 940.2 63.3 940.2 63.3 937.9 64.2 937.9 64.2 940.2 64.8 940.2 64.8 937.9 65.7 937.9 65.7 940.2 66.3 940.2 66.3 937.9 67.3 937.9 67.3 940.2 67.9 940.2 67.9 937.9 68.8 937.9 68.8 940.2 69.4 940.2 69.4 937.9 70.3 937.9 70.3 940.2 70.9 940.2 70.9 937.9 71.8 937.9 71.8 940.2 72.4 940.2 72.4 937.9 73.3 937.9 73.3 940.2 73.9 940.2 73.9 937.9 74.9 937.9 74.9 940.2 75.5 940.2 75.5 937.9 76.4 937.9 76.4 940.2 77 940.2 77 937.9 77.9 937.9 77.9 940.2 78.5 940.2 78.5 937.9 79.4 937.9 79.4 940.2 80 940.2 80 937.9 80.9 937.9 80.9 940.2 81.5 940.2 81.5 937.9 82.4 937.9 82.4 940.2 83.1 940.2 83.1 937.9 84 937.9 84 940.2 84.6 940.2 84.6 937.9 85.5 937.9 85.5 940.2 86.1 940.2 86.1 937.9 87 937.9 87 940.2 87.6 940.2 87.6 937.9 88.5 937.9 88.5 940.2 89.1 940.2 89.1 937.9 90.1 937.9 90.1 940.2 90.7 940.2 90.7 937.9 91.6 937.9 91.6 940.2 92.2 940.2 92.2 937.9 93.1 937.9 93.1 940.2 93.7 940.2 93.7 937.9 94.6 937.9 94.6 940.2 95.2 940.2 95.2 937.9 96.1 937.9 96.1 940.2 96.7 940.2 96.7 937.9 97.6 937.9 97.6 940.2 98.2 940.2 98.2 937.9 99.2 937.9 99.2 940.2 99.8 940.2 99.8 937.9 100.7 937.9 100.7 940.2 101.3 940.2 101.3 937.9 102.2 937.9 102.2 940.2 102.8 940.2 102.8 937.9 103.7 937.9 103.7 940.2 104.3 940.2 104.3 937.9 105.2 937.9 105.2 940.2 105.8 940.2 105.8 937.9 106.8 937.9 106.8 940.2 107.4 940.2 107.4 937.9 108.3 937.9 108.3 940.2 108.9 940.2 108.9 937.9 109.8 937.9 109.8 940.2 110.4 940.2 110.4 937.9 111.3 937.9 111.3 940.2 111.9 940.2 111.9 937.9 112.8 937.9 112.8 940.2 113.4 940.2 113.4 937.9 114.3 937.9 114.3 940.2 114.9 940.2 114.9 937.9 115.9 937.9 115.9 940.2 116.5 940.2 116.5 937.9 117.4 937.9 117.4 940.2 118 940.2 118 937.9 118.9 937.9 118.9 940.2 119.5 940.2 119.5 937.9 120.4 937.9 120.4 940.2 121 940.2 121 937.9 121.9 937.9 121.9 940.2 122.6 940.2 122.6 937.9 123.5 937.9 123.5 940.2 124.1 940.2 124.1 937.9 125 937.9 125 940.2 125.6 940.2 125.6 937.9 126.5 937.9 126.5 940.2 127.1 940.2 127.1 937.9 128 937.9 128 940.2 128.6 940.2 128.6 937.9 129.5 937.9 129.5 940.2 130.1 940.2 130.1 937.9 131.1 937.9 131.1 940.2 131.7 940.2 131.7 937.9 132.6 937.9 132.6 940.2 133.2 940.2 133.2 937.9 134.1 937.9 134.1 940.2 134.7 940.2 134.7 937.9 135.6 937.9 135.6 940.2 136.2 940.2 136.2 937.9 137.1 937.9 137.1 940.2 137.7 940.2 137.7 937.9 138.6 937.9 138.6 940.2 139.2 940.2 139.2 937.9 140.2 937.9 140.2 940.2 140.8 940.2 140.8 937.9 141.7 937.9 141.7 940.2 142.3 940.2 142.3 937.9 143.2 937.9 143.2 940.2 143.8 940.2 143.8 937.9 144.7 937.9 144.7 940.2 145.3 940.2 145.3 937.9 146.2 937.9 146.2 940.2 146.9 940.2 146.9 937.9 147.8 937.9 147.8 940.2 148.4 940.2 148.4 937.9 149.3 937.9 149.3 940.2 149.9 940.2 149.9 937.9 150.8 937.9 150.8 940.2 151.4 940.2 151.4 937.9 152.3 937.9 152.3 940.2 152.9 940.2 152.9 937.9 153.8 937.9 153.8 940.2 154.4 940.2 154.4 937.9 155.4 937.9 155.4 940.2 156 940.2 156 937.9 156.9 937.9 156.9 940.2 157.5 940.2 157.5 937.9 158.4 937.9 158.4 940.2 159 940.2 159 937.9 159.9 937.9 159.9 940.2 160.5 940.2 160.5 937.9 161.4 937.9 161.4 940.2 162 940.2 162 937.9 162.9 937.9 162.9 940.2 163.6 940.2 163.6 937.9 164.5 937.9 164.5 940.2 165.1 940.2 165.1 937.9 166 937.9 166 940.2 166.6 940.2 166.6 937.9 167.5 937.9 167.5 940.2 168.1 940.2 168.1 937.9 169 937.9 169 940.2 169.6 940.2 169.6 937.9 170.5 937.9 170.5 940.2 171.1 940.2 171.1 937.9 172.1 937.9 172.1 940.2 172.7 940.2 172.7 937.9 173.6 937.9 173.6 940.2 174.2 940.2 174.2 937.9 175.1 937.9 175.1 940.2 175.7 940.2 175.7 937.9 176.6 937.9 176.6 940.2 177.2 940.2 177.2 937.9 178.1 937.9 178.1 940.2 178.7 940.2 178.7 937.9 179.7 937.9 179.7 940.2 180.3 940.2 180.3 937.9 181.2 937.9 181.2 940.2 181.8 940.2 181.8 937.9 182.7 937.9 182.7 940.2 183.3 940.2 183.3 937.9 184.2 937.9 184.2 940.2 184.8 940.2 184.8 937.9 185.7 937.9 185.7 940.2 186.3 940.2 186.3 937.9 187.2 937.9 187.2 940.2 187.9 940.2 187.9 937.9 188.8 937.9 188.8 940.2 189.4 940.2 189.4 937.9 190.3 937.9 190.3 940.2 190.9 940.2 190.9 937.9 191.8 937.9 191.8 940.2 192.4 940.2 192.4 937.9 193.3 937.9 193.3 940.2 193.9 940.2 193.9 937.9 194.8 937.9 194.8 940.2 195.4 940.2 195.4 937.9 196.4 937.9 196.4 940.2 197 940.2 197 937.9 197.9 937.9 197.9 940.2 198.5 940.2 198.5 937.9 199.4 937.9 199.4 940.2 200 940.2 200 937.9 200.9 937.9 200.9 940.2 201.5 940.2 201.5 937.9 202.4 937.9 202.4 940.2 203 940.2 203 937.9 204 937.9 204 940.2 204.6 940.2 204.6 937.9 205.5 937.9 205.5 940.2 206.1 940.2 206.1 937.9 207 937.9 207 940.2 207.6 940.2 207.6 937.9 208.5 937.9 208.5 940.2 209.1 940.2 209.1 937.9 210 937.9 210 940.2 210.6 940.2 210.6 937.9 211.6 937.9 211.6 940.2 212.2 940.2 212.2 937.9 213.1 937.9 213.1 940.2 213.7 940.2 213.7 937.9 214.6 937.9 214.6 940.2 215.2 940.2 215.2 937.9 216.1 937.9 216.1 940.2 216.7 940.2 216.7 937.9 217.6 937.9 217.6 940.2 218.2 940.2 218.2 937.9 219.1 937.9 219.1 940.2 219.8 940.2 219.8 937.9 220.7 937.9 220.7 940.2 221.3 940.2 221.3 937.9 222.2 937.9 222.2 940.2 222.8 940.2 222.8 937.9 223.7 937.9 223.7 940.2 224.3 940.2 224.3 937.9 225.2 937.9 225.2 940.2 225.8 940.2 225.8 937.9 226.7 937.9 226.7 940.2 227.3 940.2 227.3 937.9 228.3 937.9 228.3 940.2 228.9 940.2 228.9 937.9 229.8 937.9 229.8 940.2 230.4 940.2 230.4 937.9 231.3 937.9 231.3 940.2 231.9 940.2 231.9 937.9 232.8 937.9 232.8 940.2 233.4 940.2 233.4 937.9 234.3 937.9 234.3 940.2 234.9 940.2 234.9 937.9 235.9 937.9 235.9 940.2 236.5 940.2 236.5 937.9 237.4 937.9 237.4 940.2 238 940.2 238 937.9 238.9 937.9 238.9 940.2 239.5 940.2 239.5 937.9 240.4 937.9 240.4 940.2 241 940.2 241 937.9 241.9 937.9 241.9 940.2 242.5 940.2 242.5 937.9 243.4 937.9 243.4 940.2 243.4 940.2 244 940.2 244.1 940.2 244.1 937.9 244.9 937.9 244.9 940.2 245.5 940.2 245.5 937.9 246.5 937.9 246.5 940.2 247.1 940.2 247.1 937.9 248 937.9 248 940.2 248.6 940.2 248.6 937.9 249.5 937.9 249.5 940.2 250.1 940.2 250.1 937.9 251 937.9 251 940.2 251.6 940.2 251.6 937.9 252.5 937.9 252.5 940.2 253.1 940.2 253.1 937.9 254.1 937.9 254.1 940.2 254.6 940.2 254.6 937.9 255.6 937.9 255.6 940.2 256.2 940.2 256.2 937.9 257.1 937.9 257.1 940.2 257.7 940.2 257.7 937.9 258.6 937.9 258.6 940.2 259.2 940.2 259.2 937.9 260.1 937.9 260.1 940.2 260.7 940.2 260.7 937.9 261.6 937.9 261.6 940.2 262.2 940.2 262.2 937.9 263.2 937.9 263.2 940.2 263.8 940.2 263.8 937.9 264.7 937.9 264.7 940.2 265.3 940.2 265.3 937.9 266.2 937.9 266.2 940.2 266.8 940.2 266.8 937.9 267.7 937.9 267.7 940.2 268.3 940.2 268.3 937.9 269.2 937.9 269.2 940.2 269.8 940.2 269.8 937.9 270.8 937.9 270.8 940.2 271.4 940.2 271.4 937.9 272.3 937.9 272.3 940.2 272.9 940.2 272.9 937.9 273.8 937.9 273.8 940.2 274.4 940.2 274.4 937.9 275.3 937.9 275.3 940.2 275.9 940.2 275.9 937.9 276.8 937.9 276.8 940.2 277.4 940.2 277.4 937.9 278.4 937.9 278.4 940.2 279 940.2 279 937.9 279.9 937.9 279.9 940.2 280.5 940.2 280.5 937.9 281.4 937.9 281.4 940.2 282 940.2 282 937.9 282.9 937.9 282.9 940.2 283.5 940.2 283.5 937.9 284.4 937.9 284.4 940.2 285 940.2 285 937.9 285.9 937.9 285.9 940.2 286.5 940.2 286.5 937.9 287.5 937.9 287.5 940.2 288.1 940.2 288.1 937.9 289 937.9 289 940.2 289.6 940.2 289.6 937.9 290.5 937.9 290.5 940.2 291.1 940.2 291.1 937.9 292 937.9 292 940.2 292.6 940.2 292.6 937.9 293.5 937.9 293.5 940.2 294.1 940.2 294.1 937.9 295.1 937.9 295.1 940.2 295.7 940.2 295.7 937.9 296.6 937.9 296.6 940.2 297.2 940.2 297.2 937.9 298.1 937.9 298.1 940.2 298.7 940.2 298.7 937.9 299.6 937.9 299.6 940.2 300.2 940.2 300.2 937.9 301.1 937.9 301.1 940.2 301.7 940.2 301.7 937.9 302.6 937.9 302.6 940.2 303.3 940.2 303.3 937.9 304.2 937.9 304.2 940.2 304.8 940.2 304.8 937.9 305.7 937.9 305.7 940.2 306.3 940.2 306.3 937.9 307.2 937.9 307.2 940.2 307.8 940.2 307.8 937.9 308.7 937.9 308.7 940.2 309.3 940.2 309.3 937.9 310.2 937.9 310.2 940.2 310.9 940.2 310.9 937.9 311.8 937.9 311.8 940.2 312.4 940.2 312.4 937.9 313.3 937.9 313.3 940.2 313.9 940.2 313.9 937.9 314.8 937.9 314.8 940.2 315.4 940.2 315.4 937.9 316.3 937.9 316.3 940.2 316.9 940.2 316.9 937.9 317.8 937.9 317.8 940.2 318.5 940.2 318.5 937.9 319.4 937.9 319.4 940.2 320 940.2 320 937.9 320.9 937.9 320.9 940.2 321.5 940.2 321.5 937.9 322.4 937.9 322.4 940.2 323 940.2 323 937.9 323.9 937.9 323.9 940.2 324.5 940.2 324.5 937.9 325.4 937.9 325.4 940.2 326 940.2 326 937.9 327 937.9 327 940.2 327.6 940.2 327.6 937.9 328.5 937.9 328.5 940.2 329.1 940.2 329.1 937.9 330 937.9 330 940.2 330.6 940.2 330.6 937.9 331.5 937.9 331.5 940.2 332.1 940.2 332.1 937.9 333 937.9 333 940.2 333.6 940.2 333.6 937.9 334.5 937.9 334.5 940.2 335.1 940.2 335.1 937.9 336.1 937.9 336.1 940.2 336.7 940.2 336.7 937.9 337.6 937.9 337.6 940.2 338.2 940.2 338.2 937.9 339.1 937.9 339.1 940.2 339.7 940.2 339.7 937.9 340.6 937.9 340.6 940.2 341.2 940.2 341.2 937.9 342.1 937.9 342.1 940.2 342.8 940.2 342.8 937.9 343.7 937.9 343.7 940.2 344.3 940.2 344.3 937.9 345.2 937.9 345.2 940.2 345.8 940.2 345.8 937.9 346.7 937.9 346.7 940.2 347.3 940.2 347.3 937.9 348.2 937.9 348.2 940.2 348.8 940.2 348.8 937.9 349.7 937.9 349.7 940.2 350.3 940.2 350.3 937.9 351.2 937.9 351.2 940.2 351.9 940.2 351.9 937.9 352.8 937.9 352.8 940.2 353.4 940.2 353.4 937.9 354.3 937.9 354.3 940.2 354.9 940.2 354.9 937.9 355.8 937.9 355.8 940.2 356.4 940.2 356.4 937.9 357.3 937.9 357.3 940.2 357.9 940.2 357.9 937.9 358.9 937.9 358.9 940.2 359.5 940.2 359.5 937.9 360.4 937.9 360.4 940.2 361 940.2 361 937.9 361.9 937.9 361.9 940.2 362.5 940.2 362.5 937.9 363.4 937.9 363.4 940.2 364 940.2 364 937.9 364.9 937.9 364.9 940.2 365.5 940.2 365.5 937.9 366.4 937.9 366.4 940.2 367 940.2 367 937.9 368 937.9 368 940.2 368.6 940.2 368.6 937.9 369.5 937.9 369.5 940.2 370.1 940.2 370.1 937.9 371 937.9 371 940.2 371.6 940.2 371.6 937.9 372.5 937.9 372.5 940.2 373.1 940.2 373.1 937.9 374 937.9 374 940.2 374.6 940.2 374.6 937.9 375.5 937.9 375.5 940.2 376.2 940.2 376.2 937.9 377.1 937.9 377.1 940.2 377.7 940.2 377.7 937.9 378.6 937.9 378.6 940.2 379.2 940.2 379.2 937.9 380.1 937.9 380.1 940.2 380.7 940.2 380.7 937.9 381.6 937.9 381.6 940.2 382.2 940.2 382.2 937.9 383.1 937.9 383.1 940.2 383.8 940.2 383.8 937.9 384.7 937.9 384.7 940.2 385.3 940.2 385.3 937.9 386.2 937.9 386.2 940.2 386.8 940.2 386.8 937.9 387.7 937.9 387.7 940.2 388.3 940.2 388.3 937.9 389.2 937.9 389.2 940.2 389.8 940.2 389.8 937.9 390.7 937.9 390.7 940.2 391.4 940.2 391.4 937.9 392.3 937.9 392.3 940.2 392.9 940.2 392.9 937.9 393.8 937.9 393.8 940.2 394.4 940.2 394.4 937.9 395.3 937.9 395.3 940.2 395.9 940.2 395.9 937.9 396.8 937.9 396.8 940.2 397.4 940.2 397.4 937.9 398.3 937.9 398.3 940.2 398.9 940.2 398.9 937.9 399.9 937.9 399.9 940.2 400.5 940.2 400.5 937.9 401.4 937.9 401.4 940.2 402 940.2 402 937.9 402.9 937.9 402.9 940.2 403.5 940.2 403.5 937.9 404.4 937.9 404.4 940.2 405 940.2 405 937.9 405.9 937.9 405.9 940.2 406.5 940.2 406.5 937.9 407.5 937.9 407.5 940.2 408.1 940.2 408.1 937.9 409 937.9 409 940.2 409.6 940.2 409.6 937.9 410.5 937.9 410.5 940.2 411.1 940.2 411.1 937.9 412 937.9 412 940.2 412.6 940.2 412.6 937.9 413.5 937.9 413.5 940.2 414.1 940.2 414.1 937.9 415 937.9 415 940.2 415.6 940.2 415.6 937.9 416.6 937.9 416.6 940.2 417.2 940.2 417.2 937.9 418.1 937.9 418.1 940.2 418.7 940.2 418.7 937.9 419.6 937.9 419.6 940.2 420.2 940.2 420.2 937.9 421.1 937.9 421.1 940.2 421.7 940.2 421.7 937.9 422.6 937.9 422.6 940.2 423.2 940.2 423.2 937.9 424.2 937.9 424.2 940.2 424.8 940.2 424.8 937.9 424.8 937.6 424.8 937.3 244.1 937.3"/><rect class="cls-25" x="64.5" y="965.3" width="358.5" height="3"/><path class="cls-25" d="M408.6,943.5h9.9v5h-9.9v-5ZM418.2,943.8h-9.3v4.4h9.3v-4.4Z"/><path class="cls-25" d="M408.6,950.8h9.9v14.2h-9.9v-14.2ZM418.2,951.1h-9.3v13.6h9.3v-13.6Z"/><path class="cls-25" d="M410.3,954.2h.4c.1-.5.7-.8,1.6-1.1,0-.6.6-1,1.3-1s1.3.5,1.3,1c.9.2,1.5.6,1.6,1.1h.4v9.4h-6.5v-9.4h0ZM416.5,954.5h-.4v-.2c0-.4-.6-.8-1.5-.9h-.1c0,0,0-.2,0-.2h0c0-.5-.4-.8-1-.8s-1,.3-1,.7,0,0,0,0h0c0,.1-.1.2-.1.2-.9.2-1.5.5-1.5.9v.2h-.4v8.8h5.9v-8.8h0Z"/><path class="cls-25" d="M396.5,943.5h9.9v5h-9.9v-5ZM406,943.8h-9.3v4.4h9.3v-4.4Z"/><path class="cls-25" d="M396.5,950.8h9.9v14.2h-9.9v-14.2ZM406,951.1h-9.3v13.6h9.3v-13.6Z"/><path class="cls-25" d="M398.1,954.2h.4c.1-.5.7-.8,1.6-1.1,0-.6.6-1,1.3-1s1.3.5,1.3,1c.9.2,1.5.6,1.6,1.1h.4v9.4h-6.5v-9.4h0ZM404.4,954.5h-.4v-.2c0-.4-.6-.8-1.5-.9h-.1c0,0,0-.2,0-.2h0c0-.5-.4-.8-1-.8s-1,.3-1,.7,0,0,0,0h0c0,.1-.1.2-.1.2-.9.2-1.5.5-1.5.9v.2h-.4v8.8h5.9v-8.8h0Z"/><path class="cls-25" d="M384.3,943.5h9.9v5h-9.9v-5ZM393.9,943.8h-9.3v4.4h9.3v-4.4Z"/><path class="cls-25" d="M384.3,950.8h9.9v14.2h-9.9v-14.2ZM393.9,951.1h-9.3v13.6h9.3v-13.6Z"/><path class="cls-25" d="M386,954.2h.4c.1-.5.7-.8,1.6-1.1,0-.6.6-1,1.3-1s1.3.5,1.3,1c.9.2,1.5.6,1.6,1.1h.4v9.4h-6.5v-9.4h0ZM392.3,954.5h-.4v-.2c0-.4-.6-.8-1.5-.9h-.1c0,0,0-.2,0-.2h0c0-.5-.4-.8-1-.8s-1,.3-1,.7,0,0,0,0h0c0,.1-.1.2-.1.2-.9.2-1.5.5-1.5.9v.2h-.4v8.8h5.9v-8.8h0Z"/><path class="cls-25" d="M372.2,943.5h9.9v5h-9.9v-5ZM381.8,943.8h-9.3v4.4h9.3v-4.4Z"/><path class="cls-25" d="M372.2,950.8h9.9v14.2h-9.9v-14.2ZM381.8,951.1h-9.3v13.6h9.3v-13.6Z"/><path class="cls-25" d="M373.9,954.2h.4c.1-.5.7-.8,1.6-1.1,0-.6.6-1,1.3-1s1.3.5,1.3,1c.9.2,1.5.6,1.6,1.1h.4v9.4h-6.5v-9.4h0ZM380.1,954.5h-.4v-.2c0-.4-.6-.8-1.5-.9h-.1c0,0,0-.2,0-.2h0c0-.5-.4-.8-1-.8s-1,.3-1,.7,0,0,0,0h0c0,.1-.1.2-.1.2-.9.2-1.5.5-1.5.9v.2h-.4v8.8h5.9v-8.8h0Z"/><path class="cls-25" d="M360.1,943.5h9.9v5h-9.9v-5ZM369.7,943.8h-9.3v4.4h9.3v-4.4Z"/><path class="cls-25" d="M360.1,950.8h9.9v14.2h-9.9v-14.2ZM369.7,951.1h-9.3v13.6h9.3v-13.6Z"/><path class="cls-25" d="M361.8,954.2h.4c.1-.5.7-.8,1.6-1.1,0-.6.6-1,1.3-1s1.3.5,1.3,1c.9.2,1.5.6,1.6,1.1h.4v9.4h-6.5v-9.4h0ZM368,954.5h-.4v-.2c0-.4-.6-.8-1.5-.9h-.1c0,0,0-.2,0-.2h0c0-.5-.4-.8-1-.8s-1,.3-1,.7,0,0,0,0h0c0,.1-.1.2-.1.2-.9.2-1.5.5-1.5.9v.2h-.4v8.8h5.9v-8.8h0Z"/><path class="cls-25" d="M348,943.5h9.9v5h-9.9v-5ZM357.5,943.8h-9.3v4.4h9.3v-4.4Z"/><path class="cls-25" d="M348,950.8h9.9v14.2h-9.9v-14.2ZM357.5,951.1h-9.3v13.6h9.3v-13.6Z"/><path class="cls-25" d="M349.6,954.2h.4c.1-.5.7-.8,1.6-1.1,0-.6.6-1,1.3-1s1.3.5,1.3,1c.9.2,1.5.6,1.6,1.1h.4v9.4h-6.5v-9.4h0ZM355.9,954.5h-.4v-.2c0-.4-.6-.8-1.5-.9h-.1c0,0,0-.2,0-.2h0c0-.5-.4-.8-1-.8s-1,.3-1,.7,0,0,0,0h0c0,.1-.1.2-.1.2-.9.2-1.5.5-1.5.9v.2h-.4v8.8h5.9v-8.8h0Z"/><path class="cls-25" d="M335.8,943.5h9.9v5h-9.9v-5ZM345.4,943.8h-9.3v4.4h9.3v-4.4Z"/><path class="cls-25" d="M335.8,950.8h9.9v14.2h-9.9v-14.2ZM345.4,951.1h-9.3v13.6h9.3v-13.6Z"/><path class="cls-25" d="M337.5,954.2h.4c.1-.5.7-.8,1.6-1.1,0-.6.6-1,1.3-1s1.3.5,1.3,1c.9.2,1.5.6,1.6,1.1h.4v9.4h-6.5v-9.4h0ZM343.7,954.5h-.4v-.2c0-.4-.6-.8-1.5-.9h-.1c0,0,0-.2,0-.2h0c0-.5-.4-.8-1-.8s-1,.3-1,.7,0,0,0,0h0c0,.1-.1.2-.1.2-.9.2-1.5.5-1.5.9v.2h-.4v8.8h5.9v-8.8h0Z"/><path class="cls-25" d="M323.7,943.5h9.9v5h-9.9v-5ZM333.3,943.8h-9.3v4.4h9.3v-4.4Z"/><path class="cls-25" d="M323.7,950.8h9.9v14.2h-9.9v-14.2ZM333.3,951.1h-9.3v13.6h9.3v-13.6Z"/><path class="cls-25" d="M325.4,954.2h.4c.1-.5.7-.8,1.6-1.1,0-.6.6-1,1.3-1s1.3.5,1.3,1c.9.2,1.5.6,1.6,1.1h.4v9.4h-6.5v-9.4h0ZM331.6,954.5h-.4v-.2c0-.4-.6-.8-1.5-.9h-.1c0,0,0-.2,0-.2h0c0-.5-.4-.8-1-.8s-1,.3-1,.7,0,0,0,0h0c0,.1-.1.2-.1.2-.9.2-1.5.5-1.5.9v.2h-.4v8.8h5.9v-8.8h0Z"/><path class="cls-25" d="M311.6,943.5h9.9v5h-9.9v-5ZM321.1,943.8h-9.3v4.4h9.3v-4.4Z"/><path class="cls-25" d="M311.6,950.8h9.9v14.2h-9.9v-14.2ZM321.1,951.1h-9.3v13.6h9.3v-13.6Z"/><path class="cls-25" d="M313.2,954.2h.4c.1-.5.7-.8,1.6-1.1,0-.6.6-1,1.3-1s1.3.5,1.3,1c.9.2,1.5.6,1.6,1.1h.4v9.4h-6.5v-9.4h0ZM319.5,954.5h-.4v-.2c0-.4-.6-.8-1.5-.9h-.1c0,0,0-.2,0-.2h0c0-.5-.4-.8-1-.8s-1,.3-1,.7,0,0,0,0h0c0,.1-.1.2-.1.2-.9.2-1.5.5-1.5.9v.2h-.4v8.8h5.9v-8.8h0Z"/><path class="cls-25" d="M299.5,943.5h9.9v5h-9.9v-5ZM309,943.8h-9.3v4.4h9.3v-4.4Z"/><path class="cls-25" d="M299.5,950.8h9.9v14.2h-9.9v-14.2ZM309,951.1h-9.3v13.6h9.3v-13.6Z"/><path class="cls-25" d="M301.1,954.2h.4c.1-.5.7-.8,1.6-1.1,0-.6.6-1,1.3-1s1.3.5,1.3,1c.9.2,1.5.6,1.6,1.1h.4v9.4h-6.5v-9.4h0ZM307.4,954.5h-.4v-.2c0-.4-.6-.8-1.5-.9h-.1c0,0,0-.2,0-.2h0c0-.5-.4-.8-1-.8s-1,.3-1,.7,0,0,0,0h0c0,.1-.1.2-.1.2-.9.2-1.5.5-1.5.9v.2h-.4v8.8h5.9v-8.8h0Z"/><path class="cls-25" d="M287.3,943.5h9.9v5h-9.9v-5ZM296.9,943.8h-9.3v4.4h9.3v-4.4Z"/><path class="cls-25" d="M287.3,950.8h9.9v14.2h-9.9v-14.2ZM296.9,951.1h-9.3v13.6h9.3v-13.6Z"/><path class="cls-25" d="M289,954.2h.4c.1-.5.7-.8,1.6-1.1,0-.6.6-1,1.3-1s1.3.5,1.3,1c.9.2,1.5.6,1.6,1.1h.4v9.4h-6.5v-9.4h0ZM295.2,954.5h-.4v-.2c0-.4-.6-.8-1.5-.9h-.1c0,0,0-.2,0-.2h0c0-.5-.4-.8-1-.8s-1,.3-1,.7,0,0,0,0h0c0,.1-.1.2-.1.2-.9.2-1.5.5-1.5.9v.2h-.4v8.8h5.9v-8.8h0Z"/><path class="cls-25" d="M275.2,943.5h9.9v5h-9.9v-5ZM284.8,943.8h-9.3v4.4h9.3v-4.4Z"/><path class="cls-25" d="M275.2,950.8h9.9v14.2h-9.9v-14.2ZM284.8,951.1h-9.3v13.6h9.3v-13.6Z"/><path class="cls-25" d="M276.9,954.2h.4c.1-.5.7-.8,1.6-1.1,0-.6.6-1,1.3-1s1.3.5,1.3,1c.9.2,1.5.6,1.6,1.1h.4v9.4h-6.5v-9.4h0ZM283.1,954.5h-.4v-.2c0-.4-.6-.8-1.5-.9h-.1c0,0,0-.2,0-.2h0c0-.5-.4-.8-1-.8s-1,.3-1,.7,0,0,0,0h0c0,.1-.1.2-.1.2-.9.2-1.5.5-1.5.9v.2h-.4v8.8h5.9v-8.8h0Z"/><path class="cls-25" d="M263.1,943.5h9.9v5h-9.9v-5ZM272.6,943.8h-9.3v4.4h9.3v-4.4Z"/><path class="cls-25" d="M263.1,950.8h9.9v14.2h-9.9v-14.2ZM272.6,951.1h-9.3v13.6h9.3v-13.6Z"/><path class="cls-25" d="M264.7,954.2h.4c.1-.5.7-.8,1.6-1.1,0-.6.6-1,1.3-1s1.3.5,1.3,1c.9.2,1.5.6,1.6,1.1h.4v9.4h-6.5v-9.4h0ZM271,954.5h-.4v-.2c0-.4-.6-.8-1.5-.9h-.1c0,0,0-.2,0-.2h0c0-.5-.4-.8-1-.8s-1,.3-1,.7,0,0,0,0h0c0,.1-.1.2-.1.2-.9.2-1.5.5-1.5.9v.2h-.4v8.8h5.9v-8.8h0Z"/><path class="cls-25" d="M250.9,943.5h9.9v5h-9.9v-5ZM260.5,943.8h-9.3v4.4h9.3v-4.4Z"/><path class="cls-25" d="M250.9,950.8h9.9v14.2h-9.9v-14.2ZM260.5,951.1h-9.3v13.6h9.3v-13.6Z"/><path class="cls-25" d="M252.6,954.2h.4c.1-.5.7-.8,1.6-1.1,0-.6.6-1,1.3-1s1.3.5,1.3,1c.9.2,1.5.6,1.6,1.1h.4v9.4h-6.6v-9.4h0ZM258.9,954.5h-.4v-.2c0-.4-.6-.8-1.5-.9h-.1c0,0,0-.2,0-.2h0c0-.5-.4-.8-1-.8s-1,.3-1,.7,0,0,0,0h0c0,.1-.1.2-.1.2-.9.2-1.5.5-1.5.9v.2h-.4v8.8h5.9v-8.8h0Z"/><path class="cls-25" d="M238.8,943.5h9.9v5h-9.9v-5ZM248.4,943.8h-9.3v4.4h9.3v-4.4Z"/><path class="cls-25" d="M238.8,950.8h9.9v14.2h-9.9v-14.2ZM248.4,951.1h-9.3v13.6h9.3v-13.6Z"/><path class="cls-25" d="M240.5,954.2h.4c.1-.5.7-.8,1.6-1.1,0-.6.6-1,1.3-1s1.3.5,1.3,1c.9.2,1.5.6,1.6,1.1h.4v9.4h-6.6v-9.4h0ZM246.7,954.5h-.4v-.2c0-.4-.6-.8-1.5-.9h-.1c0,0,0-.2,0-.2h0c0-.5-.4-.8-1-.8s-1,.3-1,.7,0,0,0,0h0c0,.1-.1.2-.1.2-.9.2-1.5.5-1.5.9v.2h-.4v8.8h5.9v-8.8h0Z"/><polygon class="cls-15" points="243.4 937.3 243.9 937.3 424.6 937.3 424.6 937.6 424.8 937.6 424.8 940.2 424.2 940.2 424.2 937.9 423.3 937.9 423.3 940.2 422.7 940.2 422.7 937.9 421.8 937.9 421.8 940.2 421.1 940.2 421.1 937.9 420.2 937.9 420.2 940.2 419.6 940.2 419.6 937.9 418.7 937.9 418.7 940.2 418.1 940.2 418.1 937.9 417.2 937.9 417.2 940.2 416.6 940.2 416.6 937.9 415.7 937.9 415.7 940.2 415.1 940.2 415.1 937.9 414.2 937.9 414.2 940.2 413.5 940.2 413.5 937.9 412.6 937.9 412.6 940.2 412 940.2 412 937.9 411.1 937.9 411.1 940.2 410.5 940.2 410.5 937.9 409.6 937.9 409.6 940.2 409 940.2 409 937.9 408.1 937.9 408.1 940.2 407.5 940.2 407.5 937.9 406.6 937.9 406.6 940.2 406 940.2 406 937.9 405 937.9 405 940.2 404.4 940.2 404.4 937.9 403.5 937.9 403.5 940.2 402.9 940.2 402.9 937.9 402 937.9 402 940.2 401.4 940.2 401.4 937.9 400.5 937.9 400.5 940.2 399.9 940.2 399.9 937.9 399 937.9 399 940.2 398.4 940.2 398.4 937.9 397.5 937.9 397.5 940.2 396.9 940.2 396.9 937.9 395.9 937.9 395.9 940.2 395.3 940.2 395.3 937.9 394.4 937.9 394.4 940.2 393.8 940.2 393.8 937.9 392.9 937.9 392.9 940.2 392.3 940.2 392.3 937.9 391.4 937.9 391.4 940.2 390.8 940.2 390.8 937.9 389.9 937.9 389.9 940.2 389.2 940.2 389.2 937.9 388.3 937.9 388.3 940.2 387.7 940.2 387.7 937.9 386.8 937.9 386.8 940.2 386.2 940.2 386.2 937.9 385.3 937.9 385.3 940.2 384.7 940.2 384.7 937.9 383.8 937.9 383.8 940.2 383.2 940.2 383.2 937.9 382.3 937.9 382.3 940.2 381.7 940.2 381.7 937.9 380.7 937.9 380.7 940.2 380.1 940.2 380.1 937.9 379.2 937.9 379.2 940.2 378.6 940.2 378.6 937.9 377.7 937.9 377.7 940.2 377.1 940.2 377.1 937.9 376.2 937.9 376.2 940.2 375.6 940.2 375.6 937.9 374.7 937.9 374.7 940.2 374.1 940.2 374.1 937.9 373.1 937.9 373.1 940.2 372.5 940.2 372.5 937.9 371.6 937.9 371.6 940.2 371 940.2 371 937.9 370.1 937.9 370.1 940.2 369.5 940.2 369.5 937.9 368.6 937.9 368.6 940.2 368 940.2 368 937.9 367.1 937.9 367.1 940.2 366.5 940.2 366.5 937.9 365.6 937.9 365.6 940.2 365 940.2 365 937.9 364 937.9 364 940.2 363.4 940.2 363.4 937.9 362.5 937.9 362.5 940.2 361.9 940.2 361.9 937.9 361 937.9 361 940.2 360.4 940.2 360.4 937.9 359.5 937.9 359.5 940.2 358.9 940.2 358.9 937.9 358 937.9 358 940.2 357.4 940.2 357.4 937.9 356.4 937.9 356.4 940.2 355.8 940.2 355.8 937.9 354.9 937.9 354.9 940.2 354.3 940.2 354.3 937.9 353.4 937.9 353.4 940.2 352.8 940.2 352.8 937.9 351.9 937.9 351.9 940.2 351.3 940.2 351.3 937.9 350.4 937.9 350.4 940.2 349.8 940.2 349.8 937.9 348.9 937.9 348.9 940.2 348.2 940.2 348.2 937.9 347.3 937.9 347.3 940.2 346.7 940.2 346.7 937.9 345.8 937.9 345.8 940.2 345.2 940.2 345.2 937.9 344.3 937.9 344.3 940.2 343.7 940.2 343.7 937.9 342.8 937.9 342.8 940.2 342.2 940.2 342.2 937.9 341.3 937.9 341.3 940.2 340.6 940.2 340.6 937.9 339.7 937.9 339.7 940.2 339.1 940.2 339.1 937.9 338.2 937.9 338.2 940.2 337.6 940.2 337.6 937.9 336.7 937.9 336.7 940.2 336.1 940.2 336.1 937.9 335.2 937.9 335.2 940.2 334.6 940.2 334.6 937.9 333.7 937.9 333.7 940.2 333.1 940.2 333.1 937.9 332.1 937.9 332.1 940.2 331.5 940.2 331.5 937.9 330.6 937.9 330.6 940.2 330 940.2 330 937.9 329.1 937.9 329.1 940.2 328.5 940.2 328.5 937.9 327.6 937.9 327.6 940.2 327 940.2 327 937.9 326.1 937.9 326.1 940.2 325.5 940.2 325.5 937.9 324.5 937.9 324.5 940.2 323.9 940.2 323.9 937.9 323 937.9 323 940.2 322.4 940.2 322.4 937.9 321.5 937.9 321.5 940.2 320.9 940.2 320.9 937.9 320 937.9 320 940.2 319.4 940.2 319.4 937.9 318.5 937.9 318.5 940.2 317.9 940.2 317.9 937.9 317 937.9 317 940.2 316.4 940.2 316.4 937.9 315.4 937.9 315.4 940.2 314.8 940.2 314.8 937.9 313.9 937.9 313.9 940.2 313.3 940.2 313.3 937.9 312.4 937.9 312.4 940.2 311.8 940.2 311.8 937.9 310.9 937.9 310.9 940.2 310.3 940.2 310.3 937.9 309.4 937.9 309.4 940.2 308.8 940.2 308.8 937.9 307.8 937.9 307.8 940.2 307.2 940.2 307.2 937.9 306.3 937.9 306.3 940.2 305.7 940.2 305.7 937.9 304.8 937.9 304.8 940.2 304.2 940.2 304.2 937.9 303.3 937.9 303.3 940.2 302.7 940.2 302.7 937.9 301.8 937.9 301.8 940.2 301.2 940.2 301.2 937.9 300.2 937.9 300.2 940.2 299.6 940.2 299.6 937.9 298.7 937.9 298.7 940.2 298.1 940.2 298.1 937.9 297.2 937.9 297.2 940.2 296.6 940.2 296.6 937.9 295.7 937.9 295.7 940.2 295.1 940.2 295.1 937.9 294.2 937.9 294.2 940.2 293.6 940.2 293.6 937.9 292.6 937.9 292.6 940.2 292 940.2 292 937.9 291.1 937.9 291.1 940.2 290.5 940.2 290.5 937.9 289.6 937.9 289.6 940.2 289 940.2 289 937.9 288.1 937.9 288.1 940.2 287.5 940.2 287.5 937.9 286.6 937.9 286.6 940.2 286 940.2 286 937.9 285.1 937.9 285.1 940.2 284.5 940.2 284.5 937.9 283.5 937.9 283.5 940.2 282.9 940.2 282.9 937.9 282 937.9 282 940.2 281.4 940.2 281.4 937.9 280.5 937.9 280.5 940.2 279.9 940.2 279.9 937.9 279 937.9 279 940.2 278.4 940.2 278.4 937.9 277.5 937.9 277.5 940.2 276.9 940.2 276.9 937.9 276 937.9 276 940.2 275.3 940.2 275.3 937.9 274.4 937.9 274.4 940.2 273.8 940.2 273.8 937.9 272.9 937.9 272.9 940.2 272.3 940.2 272.3 937.9 271.4 937.9 271.4 940.2 270.8 940.2 270.8 937.9 269.9 937.9 269.9 940.2 269.3 940.2 269.3 937.9 268.4 937.9 268.4 940.2 267.8 940.2 267.8 937.9 266.8 937.9 266.8 940.2 266.2 940.2 266.2 937.9 265.3 937.9 265.3 940.2 264.7 940.2 264.7 937.9 263.8 937.9 263.8 940.2 263.2 940.2 263.2 937.9 262.3 937.9 262.3 940.2 261.7 940.2 261.7 937.9 260.8 937.9 260.8 940.2 260.1 940.2 260.1 937.9 259.2 937.9 259.2 940.2 258.6 940.2 258.6 937.9 257.7 937.9 257.7 940.2 257.1 940.2 257.1 937.9 256.2 937.9 256.2 940.2 255.6 940.2 255.6 937.9 254.7 937.9 254.7 940.2 254.1 940.2 254.1 937.9 253.2 937.9 253.2 940.2 252.6 940.2 252.6 937.9 251.6 937.9 251.6 940.2 251 940.2 251 937.9 250.1 937.9 250.1 940.2 249.5 940.2 249.5 937.9 248.6 937.9 248.6 940.2 248 940.2 248 937.9 247.1 937.9 247.1 940.2 246.5 940.2 246.5 937.9 245.6 937.9 245.6 940.2 245 940.2 245 937.9 244.1 937.9 244.1 940.2 244.1 940.2 243.5 940.2 243.4 940.2 243.4 937.9 242.6 937.9 242.6 940.2 242 940.2 242 937.9 241 937.9 241 940.2 240.4 940.2 240.4 937.9 239.5 937.9 239.5 940.2 238.9 940.2 238.9 937.9 238 937.9 238 940.2 237.4 940.2 237.4 937.9 236.5 937.9 236.5 940.2 235.9 940.2 235.9 937.9 235 937.9 235 940.2 234.4 940.2 234.4 937.9 233.4 937.9 233.4 940.2 232.8 940.2 232.8 937.9 231.9 937.9 231.9 940.2 231.3 940.2 231.3 937.9 230.4 937.9 230.4 940.2 229.8 940.2 229.8 937.9 228.9 937.9 228.9 940.2 228.3 940.2 228.3 937.9 227.4 937.9 227.4 940.2 226.8 940.2 226.8 937.9 225.9 937.9 225.9 940.2 225.2 940.2 225.2 937.9 224.3 937.9 224.3 940.2 223.7 940.2 223.7 937.9 222.8 937.9 222.8 940.2 222.2 940.2 222.2 937.9 221.3 937.9 221.3 940.2 220.7 940.2 220.7 937.9 219.8 937.9 219.8 940.2 219.2 940.2 219.2 937.9 218.3 937.9 218.3 940.2 217.6 940.2 217.6 937.9 216.7 937.9 216.7 940.2 216.1 940.2 216.1 937.9 215.2 937.9 215.2 940.2 214.6 940.2 214.6 937.9 213.7 937.9 213.7 940.2 213.1 940.2 213.1 937.9 212.2 937.9 212.2 940.2 211.6 940.2 211.6 937.9 210.7 937.9 210.7 940.2 210.1 940.2 210.1 937.9 209.1 937.9 209.1 940.2 208.5 940.2 208.5 937.9 207.6 937.9 207.6 940.2 207 940.2 207 937.9 206.1 937.9 206.1 940.2 205.5 940.2 205.5 937.9 204.6 937.9 204.6 940.2 204 940.2 204 937.9 203.1 937.9 203.1 940.2 202.5 940.2 202.5 937.9 201.6 937.9 201.6 940.2 200.9 940.2 200.9 937.9 200 937.9 200 940.2 199.4 940.2 199.4 937.9 198.5 937.9 198.5 940.2 197.9 940.2 197.9 937.9 197 937.9 197 940.2 196.4 940.2 196.4 937.9 195.5 937.9 195.5 940.2 194.9 940.2 194.9 937.9 194 937.9 194 940.2 193.4 940.2 193.4 937.9 192.4 937.9 192.4 940.2 191.8 940.2 191.8 937.9 190.9 937.9 190.9 940.2 190.3 940.2 190.3 937.9 189.4 937.9 189.4 940.2 188.8 940.2 188.8 937.9 187.9 937.9 187.9 940.2 187.3 940.2 187.3 937.9 186.4 937.9 186.4 940.2 185.8 940.2 185.8 937.9 184.9 937.9 184.9 940.2 184.2 940.2 184.2 937.9 183.3 937.9 183.3 940.2 182.7 940.2 182.7 937.9 181.8 937.9 181.8 940.2 181.2 940.2 181.2 937.9 180.3 937.9 180.3 940.2 179.7 940.2 179.7 937.9 178.8 937.9 178.8 940.2 178.2 940.2 178.2 937.9 177.2 937.9 177.2 940.2 176.6 940.2 176.6 937.9 175.7 937.9 175.7 940.2 175.1 940.2 175.1 937.9 174.2 937.9 174.2 940.2 173.6 940.2 173.6 937.9 172.7 937.9 172.7 940.2 172.1 940.2 172.1 937.9 171.2 937.9 171.2 940.2 170.6 940.2 170.6 937.9 169.7 937.9 169.7 940.2 169.1 940.2 169.1 937.9 168.1 937.9 168.1 940.2 167.5 940.2 167.5 937.9 166.6 937.9 166.6 940.2 166 940.2 166 937.9 165.1 937.9 165.1 940.2 164.5 940.2 164.5 937.9 163.6 937.9 163.6 940.2 163 940.2 163 937.9 162.1 937.9 162.1 940.2 161.5 940.2 161.5 937.9 160.6 937.9 160.6 940.2 159.9 940.2 159.9 937.9 159 937.9 159 940.2 158.4 940.2 158.4 937.9 157.5 937.9 157.5 940.2 156.9 940.2 156.9 937.9 156 937.9 156 940.2 155.4 940.2 155.4 937.9 154.5 937.9 154.5 940.2 153.9 940.2 153.9 937.9 152.9 937.9 152.9 940.2 152.4 940.2 152.4 937.9 151.4 937.9 151.4 940.2 150.8 940.2 150.8 937.9 149.9 937.9 149.9 940.2 149.3 940.2 149.3 937.9 148.4 937.9 148.4 940.2 147.8 940.2 147.8 937.9 146.9 937.9 146.9 940.2 146.3 940.2 146.3 937.9 145.4 937.9 145.4 940.2 144.8 940.2 144.8 937.9 143.8 937.9 143.8 940.2 143.2 940.2 143.2 937.9 142.3 937.9 142.3 940.2 141.7 940.2 141.7 937.9 140.8 937.9 140.8 940.2 140.2 940.2 140.2 937.9 139.3 937.9 139.3 940.2 138.7 940.2 138.7 937.9 137.8 937.9 137.8 940.2 137.2 940.2 137.2 937.9 136.2 937.9 136.2 940.2 135.6 940.2 135.6 937.9 134.7 937.9 134.7 940.2 134.1 940.2 134.1 937.9 133.2 937.9 133.2 940.2 132.6 940.2 132.6 937.9 131.7 937.9 131.7 940.2 131.1 940.2 131.1 937.9 130.2 937.9 130.2 940.2 129.6 940.2 129.6 937.9 128.6 937.9 128.6 940.2 128 940.2 128 937.9 127.1 937.9 127.1 940.2 126.5 940.2 126.5 937.9 125.6 937.9 125.6 940.2 125 940.2 125 937.9 124.1 937.9 124.1 940.2 123.5 940.2 123.5 937.9 122.6 937.9 122.6 940.2 122 940.2 122 937.9 121.1 937.9 121.1 940.2 120.4 940.2 120.4 937.9 119.5 937.9 119.5 940.2 118.9 940.2 118.9 937.9 118 937.9 118 940.2 117.4 940.2 117.4 937.9 116.5 937.9 116.5 940.2 115.9 940.2 115.9 937.9 115 937.9 115 940.2 114.4 940.2 114.4 937.9 113.5 937.9 113.5 940.2 112.9 940.2 112.9 937.9 111.9 937.9 111.9 940.2 111.3 940.2 111.3 937.9 110.4 937.9 110.4 940.2 109.8 940.2 109.8 937.9 108.9 937.9 108.9 940.2 108.3 940.2 108.3 937.9 107.4 937.9 107.4 940.2 106.8 940.2 106.8 937.9 105.9 937.9 105.9 940.2 105.3 940.2 105.3 937.9 104.3 937.9 104.3 940.2 103.7 940.2 103.7 937.9 102.8 937.9 102.8 940.2 102.2 940.2 102.2 937.9 101.3 937.9 101.3 940.2 100.7 940.2 100.7 937.9 99.8 937.9 99.8 940.2 99.2 940.2 99.2 937.9 98.3 937.9 98.3 940.2 97.7 940.2 97.7 937.9 96.8 937.9 96.8 940.2 96.2 940.2 96.2 937.9 95.2 937.9 95.2 940.2 94.6 940.2 94.6 937.9 93.7 937.9 93.7 940.2 93.1 940.2 93.1 937.9 92.2 937.9 92.2 940.2 91.6 940.2 91.6 937.9 90.7 937.9 90.7 940.2 90.1 940.2 90.1 937.9 89.2 937.9 89.2 940.2 88.6 940.2 88.6 937.9 87.6 937.9 87.6 940.2 87 940.2 87 937.9 86.1 937.9 86.1 940.2 85.5 940.2 85.5 937.9 84.6 937.9 84.6 940.2 84 940.2 84 937.9 83.1 937.9 83.1 940.2 82.5 940.2 82.5 937.9 81.6 937.9 81.6 940.2 81 940.2 81 937.9 80.1 937.9 80.1 940.2 79.4 940.2 79.4 937.9 78.5 937.9 78.5 940.2 77.9 940.2 77.9 937.9 77 937.9 77 940.2 76.4 940.2 76.4 937.9 75.5 937.9 75.5 940.2 74.9 940.2 74.9 937.9 74 937.9 74 940.2 73.4 940.2 73.4 937.9 72.4 937.9 72.4 940.2 71.8 940.2 71.8 937.9 70.9 937.9 70.9 940.2 70.3 940.2 70.3 937.9 69.4 937.9 69.4 940.2 68.8 940.2 68.8 937.9 67.9 937.9 67.9 940.2 67.3 940.2 67.3 937.9 66.4 937.9 66.4 940.2 65.8 940.2 65.8 937.9 64.9 937.9 64.9 940.2 64.2 940.2 64.2 937.9 63.3 937.9 63.3 940.2 62.7 940.2 62.7 937.9 62.7 937.6 62.7 937.3 243.4 937.3"/><polygon class="cls-22" points="427.2 935.9 449.5 935.9 448.7 897.9 448.6 896.7 446.6 800.9 430.1 800.9 428 896.7 428 897.9 427.2 935.9"/><polygon class="cls-32" points="427.2 935.9 433.2 935.9 436.2 800.9 430.1 800.9 427.2 935.9"/><rect class="cls-50" x="425.1" y="890.4" width="26.5" height="3.8" rx=".3" ry=".3"/><polygon class="cls-44" points="428 896.7 448.6 896.7 450.7 894.2 426 894.2 428 896.7"/><rect x="446.7" y="894.8" width="1.9" height="2"/><rect x="428" y="894.8" width="1.9" height="2"/><rect x="442.7" y="894.8" width="2.5" height="2"/><rect x="439" y="894.8" width="2.5" height="2"/><rect x="435.2" y="894.8" width="2.5" height="2"/><rect x="431.5" y="894.8" width="2.5" height="2"/><polygon class="cls-11" points="428 897.9 448.7 897.9 448.6 896.7 428 896.7 428 897.9"/><rect class="cls-50" x="426" y="845.5" width="24.8" height="3.8" rx=".3" ry=".3"/><polygon class="cls-44" points="428.7 851.8 448 851.8 449.9 849.3 426.8 849.3 428.7 851.8"/><rect x="446.2" y="849.9" width="1.8" height="2"/><rect x="428.7" y="849.9" width="1.8" height="2"/><rect x="442.4" y="849.9" width="2.4" height="2"/><rect x="438.9" y="849.9" width="2.4" height="2"/><rect x="435.4" y="849.9" width="2.4" height="2"/><rect x="431.9" y="849.9" width="2.4" height="2"/><polygon class="cls-11" points="428.7 853 448 853 448 851.8 428.7 851.8 428.7 853"/><rect class="cls-50" x="427.4" y="795.6" width="21.9" height="3.1" rx=".3" ry=".3"/><polygon class="cls-44" points="429.8 800.9 446.9 800.9 448.5 798.7 428.2 798.7 429.8 800.9"/><rect x="445.3" y="799.2" width="1.6" height="1.6"/><rect x="429.8" y="799.2" width="1.6" height="1.6"/><rect x="441.9" y="799.2" width="2.1" height="1.6"/><rect x="438.8" y="799.2" width="2.1" height="1.6"/><rect x="435.8" y="799.2" width="2.1" height="1.6"/><rect x="432.7" y="799.2" width="2.1" height="1.6"/><polygon class="cls-11" points="429.8 801.8 446.9 801.8 446.9 800.9 429.8 800.9 429.8 801.8"/><rect class="cls-36" x="430.6" y="785" width="15.4" height="10.6"/><path class="cls-49" d="M439.9,795.6h-3.1v-8.2c0-.2.1-.3.3-.3h2.5c.1,0,.3.1.3.3v8.2h0Z"/><path class="cls-49" d="M435.5,795.6h-3.1v-8.2c0-.2.1-.3.3-.3h2.5c.1,0,.3.1.3.3v8.2h0Z"/><path class="cls-49" d="M444.2,795.6h-3.1v-8.2c0-.2.1-.3.3-.3h2.5c.1,0,.3.1.3.3v8.2h0Z"/><path d="M438.1,787.2c.7,0,1.3.7,1.3,1.5v6.9h.4v-6.9c0-.8-.7-1.5-1.5-1.5s-.1,0-.2,0Z"/><path d="M433.8,787.2c.8,0,1.3.7,1.3,1.5v6.9h.4v-6.9c0-.8-.7-1.5-1.5-1.5s-.1,0-.2,0Z"/><path d="M442.5,787.2c.7,0,1.3.7,1.3,1.5v6.9h.4v-6.9c0-.8-.7-1.5-1.5-1.5s-.1,0-.2,0Z"/><path d="M438.2,768.2v-.3c-.5,0-1-.3-1-.7s.4-.6,1-.7v-.4c-.4,0-.7-.4-.7-.8s.3-.8.7-.8v-.5h-.5c-.2,0-.3-.2-.3-.4l.5-1.3s.4-1.5.4-2c0,.4.4,2,.4,2l.5,1.3c0,.2,0,.4-.3.4h-.5v.5c.4,0,.7.4.7.8s-.3.8-.7.8v.4c.5,0,1,.3,1,.7s-.4.6-1,.7v.3c.5,0,.8.5.8.9s-.4.9-.8.9v.4h-.3v-.4c-.5,0-.8-.5-.8-.9s.4-.9.8-.9h0Z"/><path class="cls-6" d="M438.3,770.3s1.7,0,1.8,1.5h-3.5c0-1.5,1.8-1.5,1.8-1.5h0Z"/><path class="cls-22" d="M425.5,785h25.7l-5.1-2.3s1.5-9-6-10.8h-3.5c-7.4,1.9-6,10.8-6,10.8l-5.1,2.3h0Z"/><path class="cls-19" d="M425.5,785h3.5l4-2.2c-1.7-6.3,5-10.9,5-10.9h-1.5c-7.4,1.9-6,10.8-6,10.8l-5.1,2.3h0Z"/><rect class="cls-25" x="424.5" y="935.9" width="27.7" height="3.3"/><rect class="cls-8" x="443.5" y="939.2" width="10.2" height="29.1"/><rect class="cls-7" x="433.2" y="939.2" width="10.2" height="29.1"/><rect class="cls-11" x="423" y="939.2" width="10.2" height="29.1"/><polygon class="cls-22" points="60.3 935.9 38 935.9 38.8 897.9 38.8 896.7 40.9 800.9 57.4 800.9 59.5 896.7 59.5 897.9 60.3 935.9"/><polygon class="cls-32" points="60.3 935.9 54.2 935.9 51.3 800.9 57.4 800.9 60.3 935.9"/><rect class="cls-50" x="35.9" y="890.4" width="26.5" height="3.8" rx=".3" ry=".3"/><polygon class="cls-44" points="59.5 896.7 38.8 896.7 36.8 894.2 61.5 894.2 59.5 896.7"/><rect x="38.8" y="894.8" width="1.9" height="2"/><rect x="57.5" y="894.8" width="1.9" height="2"/><rect x="42.3" y="894.8" width="2.5" height="2"/><rect x="46" y="894.8" width="2.5" height="2"/><rect x="49.7" y="894.8" width="2.5" height="2"/><rect x="53.5" y="894.8" width="2.5" height="2"/><polygon class="cls-11" points="59.5 897.9 38.8 897.9 38.8 896.7 59.5 896.7 59.5 897.9"/><rect class="cls-50" x="36.8" y="845.5" width="24.8" height="3.8" rx=".3" ry=".3"/><polygon class="cls-44" points="58.8 851.8 39.5 851.8 37.6 849.3 60.7 849.3 58.8 851.8"/><rect x="39.5" y="849.9" width="1.8" height="2"/><rect x="57" y="849.9" width="1.8" height="2"/><rect x="42.7" y="849.9" width="2.4" height="2"/><rect x="46.2" y="849.9" width="2.4" height="2"/><rect x="49.7" y="849.9" width="2.4" height="2"/><rect x="53.2" y="849.9" width="2.4" height="2"/><polygon class="cls-11" points="58.8 853 39.5 853 39.5 851.8 58.8 851.8 58.8 853"/><rect class="cls-50" x="38.2" y="795.6" width="21.9" height="3.1" rx=".3" ry=".3"/><polygon class="cls-44" points="57.7 800.9 40.6 800.9 39 798.7 59.3 798.7 57.7 800.9"/><rect x="40.6" y="799.2" width="1.6" height="1.6"/><rect x="56.1" y="799.2" width="1.6" height="1.6"/><rect x="43.5" y="799.2" width="2.1" height="1.6"/><rect x="46.5" y="799.2" width="2.1" height="1.6"/><rect x="49.6" y="799.2" width="2.1" height="1.6"/><rect x="52.7" y="799.2" width="2.1" height="1.6"/><polygon class="cls-11" points="57.7 801.8 40.6 801.8 40.6 800.9 57.7 800.9 57.7 801.8"/><rect class="cls-36" x="41.4" y="785" width="15.4" height="10.6"/><path class="cls-49" d="M47.9,787.2h2.5c.2,0,.3.1.3.3v8.2h-3.1v-8.2c0-.2.1-.3.3-.3h0Z"/><path class="cls-49" d="M52.3,787.2h2.5c.2,0,.3.1.3.3v8.2h-3.1v-8.2c0-.2.1-.3.3-.3h0Z"/><path class="cls-49" d="M43.5,787.2h2.5c.2,0,.3.1.3.3v8.2h-3.1v-8.2c0-.2.1-.3.3-.3h0Z"/><path d="M49.4,787.2c-.7,0-1.3.7-1.3,1.5v6.9h-.4v-6.9c0-.8.7-1.5,1.5-1.5s.2,0,.2,0Z"/><path d="M53.8,787.2c-.8,0-1.3.7-1.3,1.5v6.9h-.4v-6.9c0-.8.7-1.5,1.5-1.5s.2,0,.2,0Z"/><path d="M45,787.2c-.7,0-1.3.7-1.3,1.5v6.9h-.4v-6.9c0-.8.7-1.5,1.5-1.5s.2,0,.2,0Z"/><path d="M49.3,768.2v-.3c.5,0,1-.3,1-.7s-.4-.6-1-.7v-.4c.4,0,.7-.4.7-.8s-.3-.8-.7-.8v-.5h.5c.2,0,.3-.2.3-.4l-.5-1.3s-.4-1.5-.4-2c0,.4-.4,2-.4,2l-.5,1.3c0,.2,0,.4.3.4h.5v.5c-.4,0-.7.4-.7.8s.3.8.7.8v.4c-.5,0-1,.3-1,.7s.4.6,1,.7v.3c-.5,0-.8.5-.8.9s.4.9.8.9v.4h.3v-.4c.5,0,.8-.5.8-.9s-.4-.9-.8-.9Z"/><path class="cls-6" d="M49.2,770.3s-1.7,0-1.8,1.5h3.5c0-1.5-1.8-1.5-1.8-1.5h0Z"/><path class="cls-22" d="M62,785h-25.7l5.1-2.3s-1.5-9,6-10.8h3.5c7.4,1.9,6,10.8,6,10.8l5.1,2.3h0Z"/><path class="cls-19" d="M62,785h-3.5l-4-2.2c1.7-6.3-5-10.9-5-10.9h1.5c7.4,1.9,6,10.8,6,10.8l5.1,2.3Z"/><rect class="cls-25" x="35.3" y="935.9" width="27.7" height="3.3"/><rect class="cls-8" x="33.8" y="939.2" width="10.2" height="29.1"/><rect class="cls-7" x="44" y="939.2" width="10.2" height="29.1"/><rect class="cls-11" x="54.3" y="939.2" width="10.2" height="29.1"/><rect class="cls-18" x="24.4" y="968.3" width="438.8" height="11.6"/></g></svg>