<?xml version="1.0" encoding="UTF-8"?><svg id="_04" xmlns="http://www.w3.org/2000/svg" viewBox="0 0 1920 1080"><defs><style>.cls-1{fill:#f5c997;}.cls-2{fill:#774b1d;}.cls-3{fill:#edd5b8;}.cls-4{fill:#fbddbe;}.cls-5{fill:#5a3511;}.cls-6{fill:#c9915f;}.cls-7{fill:#aa7d43;}.cls-8{isolation:isolate;}.cls-9{fill:#fcdbbd;}.cls-10{fill:#885930;}.cls-11{fill:#eebe91;}.cls-12{fill:#a97840;}.cls-13{fill:#e3af81;}</style></defs><path class="cls-11" d="M828.4,863c-19-18.7-158.7-18.7-158.7-18.7l-23.1-4.5,1.4,157.4h194.9l-14.5-134.2h0Z"/><path class="cls-5" d="M721.2,958.3l1.3,30h15.8l-1.5-30c-.5-4.9-3.6-8.1-8.1-8.4-3,0-7.5,2.2-7.5,8.3h0Z"/><path class="cls-5" d="M744.7,958.5l1.6,29.9h14.8l-1.8-29.6c-.5-4.9-3.4-8.1-7.7-8.5-2.8,0-7,2.1-6.9,8.2h0Z"/><path class="cls-5" d="M766.7,958.9l1.8,29.5h13.5l-2-29.1c-.5-4.9-3.2-8.2-7.1-8.5-2.6,0-6.4,2-6.2,8.1h0Z"/><path class="cls-5" d="M786.6,959.5l2.1,28.8h11.9l-2.2-28.3c-.5-4.9-3-8.2-6.3-8.6-2.3,0-5.6,2-5.4,8.1h0Z"/><path class="cls-5" d="M804,960.3l2.2,28h10l-2.3-27.3c-.5-4.9-2.7-8.2-5.5-8.7-1.9-.1-4.7,2-4.4,8h0Z"/><path class="cls-5" d="M818.6,961.3l2.3,27h7.8l-2.3-26.2c-.6-5-2.2-8.3-4.4-8.7-1.5-.1-3.7,1.9-3.3,8h0Z"/><path class="cls-5" d="M829.8,962.5l2.3,25.8h5.3l-2.3-25c-.2-2.4-1.1-8.1-3.2-8.8-1.1-.2-2.5,2.2-2.1,8Z"/><path class="cls-5" d="M837.2,963.7l2.3,24.6h2.5l-2.3-23.7c-.5-5.4-1.2-8.4-1.9-8.8-.5-.2-1.2,2-.7,7.9h0Z"/><path class="cls-10" d="M726.4,950.4c3.3,1,5.5,3.9,5.9,8l1.4,30h4.6l-1.5-30c-.5-4.9-3.6-8.1-8.1-8.4-.7,0-1.5.1-2.3.4h0Z"/><path class="cls-10" d="M749.3,950.7c3.1,1.1,5.1,4,5.5,8l1.7,29.6h4.6l-1.8-29.6c-.5-4.9-3.4-8.1-7.7-8.5-.7,0-1.6.1-2.4.4h0Z"/><path class="cls-10" d="M770.5,951.2c2.7,1.2,4.5,4,5,8l1.9,29.1h4.6l-2-29.1c-.5-4.9-3.2-8.2-7.1-8.5-.8,0-1.6.1-2.4.5h0Z"/><path class="cls-10" d="M789.6,952.1c2.3,1.2,3.8,4.1,4.3,7.9l2.1,28.3h4.6l-2.2-28.3c-.5-4.9-3-8.2-6.3-8.6-.8,0-1.6.2-2.4.7h0Z"/><path class="cls-10" d="M806.1,953.3c1.7,1.4,2.9,4.1,3.3,7.7l2.2,27.3h4.6l-2.3-27.3c-.5-4.9-2.7-8.2-5.5-8.7-.7,0-1.6.2-2.4,1Z"/><path class="cls-10" d="M819.6,954.9c1.1,1.5,1.9,4,2.2,7.1l2.3,26.2h4.6l-2.3-26.2c-.6-5-2.2-8.3-4.4-8.7-.7,0-1.6.4-2.3,1.6h0Z"/><path class="cls-10" d="M829.8,958.7c.4,1.7.7,3.5.8,4.6l2.3,25h4.6l-2.3-25c-.2-2.4-1.1-8.1-3.2-8.8-.8-.1-1.8,1.1-2.1,4.2h0Z"/><path class="cls-10" d="M837.2,963.7l2.3,24.6h2.5l-2.3-23.7c-.5-5.4-1.2-8.4-1.9-8.8-.5-.2-1.2,2-.7,7.9h0Z"/><path class="cls-5" d="M756.7,887.9c4.3.6,7.3,3.6,7.9,7.8l2.3,30.2c-4.9-.1-10-.3-15.3-.4l-2.1-31c0-5.4,4.3-6.9,7.2-6.6"/><path class="cls-5" d="M777.8,890c3.6.6,6.2,3.5,6.7,7.5l2.6,29.1c-4.1-.2-8.3-.3-12.9-.5l-2.4-29.8c-.2-5.2,3.5-6.6,5.9-6.4"/><path class="cls-5" d="M795.3,891.9c3,.5,5.1,3.3,5.7,7.3l2.8,28.2c-3.3-.2-6.8-.4-10.5-.5l-2.7-28.8c-.3-5,2.7-6.4,4.7-6.2"/><path class="cls-5" d="M809.5,893.7c2.3.5,4.1,3.2,4.6,7.1l3,27.5c-2.5-.2-5.3-.4-8.3-.6l-2.9-28c-.3-4.8,2-6.3,3.6-6.1"/><path class="cls-5" d="M820.3,895.3c1.7.5,3,3,3.6,6.9l3.1,27c-1.8-.2-3.8-.4-6.1-.6l-3-27.3c-.4-4.7,1.3-6.2,2.5-6"/><path class="cls-5" d="M827.8,896.8c1.5.6,2.3,4.9,2.5,6.8l3.2,26.7c-1.1-.2-2.4-.5-3.9-.7l-3.2-26.9c-.4-4.4.5-6.1,1.4-5.9"/><path class="cls-5" d="M832,898.1c.3.2.7,1.2,1.4,6.7l3.2,26.6c-.3-.2-.8-.5-1.6-.7l-3.2-26.7c-.5-4.4,0-6.1.2-5.9"/><path class="cls-5" d="M703.5,883.5c5.6.6,9.4,4,9.9,8.5l1.4,33c-6.5,0-13.1,0-19.7-.1l-1-34c.2-5.9,5.8-7.6,9.4-7.3"/><path class="cls-5" d="M731.9,885.8c5.1.6,8.5,3.8,9,8.2l1.9,31.5c-5.8-.1-11.8-.2-18-.3l-1.6-32.4c0-5.6,5.2-7.2,8.6-6.9"/><path class="cls-10" d="M753.7,888.3c2.8,1.3,4.7,3.8,5.1,7.1l2.2,30.4c2,0,4,.1,5.9.2l-2.3-30.2c-.5-4.2-3.5-7.2-7.9-7.8-.9,0-2,0-3,.4Z"/><path class="cls-10" d="M775,890.5c2.3,1.3,3.8,3.7,4.2,6.7l2.5,29.2c1.9,0,3.7.1,5.5.2l-2.6-29.1c-.5-4.1-3.1-7-6.7-7.5-.9,0-1.9,0-2.9.5h0Z"/><path class="cls-10" d="M792.7,892.6c1.7,1.3,2.9,3.5,3.3,6.3l2.8,28.3c1.8,0,3.5.2,5.2.3l-2.8-28.2c-.5-4-2.7-6.8-5.7-7.3-.8,0-1.8,0-2.7.7h0Z"/><path class="cls-10" d="M807,894.8c1.1,1.3,2,3.2,2.3,5.7l2.9,27.5c1.7.1,3.3.2,4.9.4l-3-27.5c-.5-3.9-2.3-6.6-4.6-7.1-.8-.1-1.7.2-2.5,1.1h0Z"/><path class="cls-10" d="M818,897.5c.5,1.2,1,2.7,1.2,4.5l3,26.8c1.7.2,3.3.3,4.7.5l-3.1-27c-.5-3.9-1.9-6.4-3.6-6.9-.8-.1-1.8.4-2.2,2.2h0Z"/><path class="cls-10" d="M827.8,896.8c1.5.6,2.3,4.9,2.5,6.8l3.2,26.7c-1.1-.2-2.4-.5-3.9-.7l-3.2-26.9c-.4-4.4.5-6.1,1.4-5.9h0Z"/><path class="cls-10" d="M832,898.1c.3.2.7,1.2,1.4,6.7l3.2,26.6c-.3-.2-.8-.5-1.6-.7l-3.2-26.7c-.5-4.4,0-6.1.2-5.9h0Z"/><path class="cls-10" d="M695.1,924.8h0c6.6,0,13.2,0,19.7.2l-1.4-32.9c-.5-4.5-4.3-7.9-9.9-8.5-1.1,0-2.3,0-3.5.3,3.7,1.4,6.1,4.2,6.5,7.7l1.3,33.3c-4.2,0-8.4,0-12.7,0h0Z"/><path class="cls-10" d="M728.6,886c3.4,1.3,5.6,4,6,7.5l1.8,31.8c2.2,0,4.3,0,6.4.1l-1.9-31.5c-.5-4.4-4-7.5-9-8.2-1,0-2.1,0-3.3.3h0Z"/><path class="cls-6" d="M758.6,878.1l-2.3-30.5c-4.8-.4-9.7-.7-14.5-1l2,30.5c5.1.3,10,.7,14.8,1h0Z"/><path class="cls-6" d="M778.8,879.7l-2.6-30.1c-4.1-.5-8.4-.9-12.7-1.3l2.4,30.4c4.5.3,8.8.7,12.9,1Z"/><path class="cls-6" d="M796,881.2l-2.9-29.4c-3.5-.5-7-1-10.8-1.5l2.7,29.9c3.8.3,7.5.7,10.9,1h0Z"/><path class="cls-6" d="M810,882.7l-3.1-28.3c-2.8-.6-5.7-1.2-8.8-1.8l3,29.1c3.2.3,6.1.7,8.8,1h0Z"/><path class="cls-6" d="M820.8,884.2l-3.1-26.9c-2-.7-4.2-1.3-6.7-2l3.1,27.9c2.5.3,4.7.7,6.7,1h0Z"/><path class="cls-6" d="M828,885.6l-3-25.1c-1.3-.7-2.8-1.4-4.4-2.1l3.1,26.3c1.7.3,3.2.6,4.3.9h0Z"/><path class="cls-6" d="M831,886.6l-2.6-23.6c-.5-.5-1.1-1-1.7-1.4l3,24.5c.6.2,1,.4,1.3.5h0Z"/><path class="cls-6" d="M709.9,875.2l-1.3-30.2c-6.2-.2-11.9-.4-17-.5l.9,29.8c5.7.2,11.5.5,17.3.8Z"/><path class="cls-6" d="M735.5,876.6l-1.8-30.5c-5.6-.3-11-.6-16.2-.8l1.5,30.3c5.7.3,11.2.6,16.6.9h0Z"/><path class="cls-9" d="M619.9,883.2c1,13.9,13.1,25.8,26.1,25.8,2.2,0,5,0,6.1,2,1.2,2.1-.1,4.3-1.6,6.4h39c0,0-16.4-44.6-16.4-44.6h-53.4c.2,3.5-.2,7,0,10.5Z"/><path class="cls-4" d="M657.9,960c.7,3.4.8,7,1.5,10.5.8,3.9,2.5,7.6,4.2,11.2,2.4,5.2,4.8,10.3,7.2,15.5h57.1l-14-31.6s-3.2-17.3-2-18.3c1.1-1-4.5-5.8-4.5-5.8h-57.5c2.9,6.1,6.6,11.8,8.1,18.6h0Z"/><path class="cls-5" d="M637,889.8v21.1h24.4l-.3-21c-.5-7.8-5.1-12.9-12-13.3-4.6,0-11.6,3.5-12,13.2h0Z"/><path class="cls-10" d="M645.4,877.2c5.1,1.6,8.3,6.2,8.7,12.7l.3,21h7l-.3-21c-.5-7.8-5.1-12.9-12-13.3-1.1,0-2.3.2-3.6.6Z"/><path class="cls-5" d="M599.9,889.8l-.3,21.1h24.3v-21c-.3-7.8-4.8-12.9-11.8-13.3-4.6,0-11.7,3.5-12.2,13.2h0Z"/><path class="cls-10" d="M608.6,877.2c5,1.6,8.2,6.2,8.4,12.7v21c-.1,0,6.9,0,6.9,0v-21c-.3-7.8-4.8-12.9-11.8-13.3-1.1,0-2.3.2-3.6.6h0Z"/><path class="cls-5" d="M673.5,958.3l.8,38.9h24.3l-1.2-38.8c-.6-8.3-5.3-13.7-12.2-14.2-4.6,0-11.4,3.7-11.7,14h0Z"/><path class="cls-10" d="M681.7,944.9c5,1.7,8.3,6.6,8.8,13.5l1.1,38.8h7l-1.2-38.8c-.6-8.3-5.3-13.7-12.2-14.2-1.1,0-2.3.2-3.5.7h0Z"/><path class="cls-5" d="M637.3,958.3l.2,38.9h24.3l-.6-38.8c-.5-8.3-5-13.7-12-14.2-4.6,0-11.5,3.7-11.9,14h0Z"/><path class="cls-10" d="M645.7,944.9c5,1.7,8.2,6.6,8.6,13.5l.5,38.8h7l-.6-38.8c-.5-8.3-5-13.7-12-14.2-1.1,0-2.3.2-3.5.7h0Z"/><polygon class="cls-7" points="707.4 941.5 644.6 941.5 644.6 937.6 711.5 937.6 707.4 941.5"/><polygon class="cls-13" points="711.5 937.6 644.6 937.6 644.4 917.3 710.7 917.3 711.5 937.6"/><polygon class="cls-7" points="673.1 872.7 595.5 872.7 595.5 869 678.3 869 673.1 872.7"/><polygon class="cls-13" points="678.3 869 595.5 869 595.8 850 677.9 850 678.3 869"/><g class="cls-8"><path class="cls-12" d="M637.1,922.1h-10.5c-116.2.1-209.3,5.6-207.9,12.3.1.6,1,1.2,2.6,1.8,16.8-5.7,101.9-10,205.3-10.1h10c0-1.3.2-2.7.5-3.9h0Z"/><path class="cls-3" d="M639.1,917.8c.5-.8,1.1-1.5,1.7-2.3-4.7,0-9.4,0-14.2,0-114.6.1-206.7,5.5-207.3,12l-.6,6.8c.6-6.6,93-12,207.9-12.1h10.5c.4-1.5,1-3,2-4.3h0Z"/></g><g class="cls-8"><path class="cls-12" d="M604.9,856.9c-100.7.7-178.2,5.5-177,11.3.1.6,1,1.1,2.5,1.6,15-4.9,86.8-8.8,176.6-9.3-.6-1.2-1.3-2.5-2.1-3.6h0Z"/><path class="cls-3" d="M600,850.6c-96.8.8-171,5.4-171.5,11l-.6,6.4c.5-5.7,77.4-10.4,177-11.1-1.5-2.2-3.2-4.3-4.9-6.3h0Z"/></g><g class="cls-8"><path class="cls-12" d="M579.6,797.2c-82.5,1.2-142.8,5.3-141.7,10.2.1.5.9,1,2.4,1.5,12.5-4,67.4-7.2,139-8.3,0-1.1.2-2.3.3-3.4h0Z"/><path class="cls-3" d="M580.5,794c.5-1.1,1.2-2,2.1-2.8-82.7,1.1-143.8,5.2-144.2,10l-.5,6c.4-4.8,60.3-8.8,141.7-10,.2-1.1.5-2.2,1-3.1h0Z"/></g><g class="cls-8"><path class="cls-12" d="M543.6,746.1c-58.6,1.7-98.2,4.9-97.3,8.7.1.5.9,1,2.3,1.4,9.7-3,45.9-5.6,95.4-7-.2-1-.3-2.1-.5-3.2h0Z"/><path class="cls-3" d="M542.8,740.5c-56.9,1.6-95.6,4.8-96,8.4l-.5,5.7c.3-3.7,39.6-6.9,97.3-8.5-.3-1.9-.6-3.8-.8-5.6h0Z"/></g><path class="cls-1" d="M653.9,981.3c-1.7-3.7-3.4-7.4-4.2-11.5-.8-3.5-.8-7.2-1.5-10.7-1.5-7.4-5.8-13.6-8.8-20.4-1.7-4-2.9-8.5-2.8-12.8h-10c-103.5.1-188.6,4.5-205.3,10.1l-5.8,61h245.6c-2.4-5.3-4.9-10.6-7.3-15.9h0Z"/><path class="cls-1" d="M642.4,908.9c-1.2-2.1-4-2-6.3-2-13.3,0-25.7-12.2-26.6-26.3-.3-4.4.4-8.9-.3-13.2,0-.6-.2-1.1-.3-1.7,0-.2,0-.3-.1-.5,0-.4-.2-.8-.3-1.1,0-.2-.1-.3-.2-.5-.1-.4-.3-.8-.4-1.1,0-.1-.1-.3-.2-.4-.2-.5-.4-1-.7-1.5h0c-89.8.6-161.6,4.4-176.6,9.3l-5.1,54.7c22.3-5.2,103.5-9.1,201.2-9.2h14.2c1.5-2.1,2.8-4.4,1.6-6.5h0Z"/><path class="cls-1" d="M597.5,847.8c-1.5-1.7-3.1-3.4-5.2-4.1-1.8-.6-3.8-.5-5.4-1.3-1.9-1-3.1-3-3.9-5.1-4.8-11.1-4.3-23.7-3.8-35.7,0-.4,0-.7,0-1.1-71.6,1.1-126.4,4.3-139,8.3l-4.5,49.9c20.8-4.2,84.9-7.4,164.3-8.1-.8-1-1.7-1.9-2.5-2.8h0Z"/><path class="cls-1" d="M587.4,787.5c-2.8-4.3-8.7-5.2-13.8-4.8-5.1.4-10.4,1.6-15.2-.1-8.9-3.2-11.5-14.2-12.9-23.6-.5-3.2-1-6.4-1.4-9.6-49.6,1.4-85.7,3.9-95.5,7l-3.8,42.3c17.8-3.6,70.7-6.4,137.8-7.3,1.4-1.4,3.1-2.6,4.8-3.7h0Z"/><path class="cls-5" d="M625.4,952.5v39.7h-27.6l.5-39.5c.5-8.5,5.7-14,13.5-14.5,5.2,0,13.1,3.7,13.5,14.3h0Z"/><path class="cls-5" d="M584.6,952.8l-.8,39.4h-25.8l1.2-39c.6-8.5,5.6-14,12.8-14.6,4.9,0,12.2,3.6,12.5,14.2h0Z"/><path class="cls-5" d="M546.5,953.5l-1.4,38.7h-23.5l1.8-38c.7-8.5,5.3-14.1,11.9-14.7,4.4-.1,11.1,3.5,11.1,14h0Z"/><path class="cls-5" d="M512,954.6l-2,37.6h-20.6l2.3-36.7c.8-8.5,4.9-14.2,10.8-14.9,3.9-.2,9.8,3.4,9.6,14h0Z"/><path class="cls-5" d="M481.8,956l-2.4,36.1h-17.4l2.6-35c.9-8.5,4.4-14.2,9.3-15,3.2-.2,8.2,3.4,7.9,13.9h0Z"/><path class="cls-5" d="M456.6,957.8l-2.7,34.4h-13.5l2.8-33.1c.9-8.7,3.7-14.3,7.6-15.1,2.6-.2,6.4,3.3,5.9,13.8h0Z"/><path class="cls-5" d="M437.2,959.7l-2.8,32.4h-9.2l2.8-31c.4-4.2,1.8-14,5.5-15.2,1.9-.3,4.4,3.8,3.7,13.8h0Z"/><path class="cls-5" d="M424.3,961.9l-2.8,30.2h-4.4l2.7-28.7c.9-9.3,2-14.5,3.2-15.2.9-.3,2.2,3.4,1.3,13.7h0Z"/><path class="cls-10" d="M615.9,938.8c-5.7,1.8-9.3,6.7-9.7,13.8l-.4,39.5h-8l.5-39.5c.5-8.5,5.7-14,13.5-14.5,1.2,0,2.6.2,4,.7h0Z"/><path class="cls-10" d="M576.3,939.3c-5.2,1.9-8.7,6.9-9.1,13.8l-1.1,39h-8l1.2-39c.6-8.5,5.6-14,12.8-14.6,1.3,0,2.7.2,4.1.8h0Z"/><path class="cls-10" d="M539.6,940.3c-4.6,2-7.7,7-8.3,13.8l-1.7,38h-8l1.8-38c.7-8.5,5.3-14.1,11.9-14.7,1.3,0,2.8.2,4.2.9Z"/><path class="cls-10" d="M506.7,941.8c-3.9,2.2-6.5,7.1-7.1,13.7l-2.1,36.7h-8l2.3-36.7c.8-8.5,4.9-14.2,10.8-14.9,1.3,0,2.8.3,4.2,1.2h0Z"/><path class="cls-10" d="M478.1,943.8c-2.9,2.4-5,7.1-5.6,13.3l-2.5,35h-8l2.6-35c.9-8.5,4.4-14.2,9.3-15,1.3,0,2.8.4,4.1,1.7Z"/><path class="cls-10" d="M454.8,946.7c-1.9,2.6-3.2,6.8-3.7,12.3l-2.6,33.1h-8l2.8-33.1c.9-8.7,3.7-14.3,7.6-15.1,1.3-.1,2.8.7,4,2.8h0Z"/><path class="cls-10" d="M437.1,953.2c-.7,2.9-1.1,6.1-1.3,8l-2.7,31h-8l2.8-31c.4-4.2,1.8-14,5.5-15.2,1.5-.2,3.2,2,3.7,7.2h0Z"/><path class="cls-10" d="M424.3,961.9l-2.8,30.2h-4.4l2.7-28.7c.9-9.3,2-14.5,3.2-15.2.9-.3,2.2,3.4,1.3,13.7h0Z"/><path class="cls-5" d="M571,867.9c-7,.5-11.7,5.7-12.3,13.7l-.9,28c8-.2,16.2-.3,24.6-.4l.6-27.9c-.2-9.9-7.3-13.3-11.9-13.2"/><path class="cls-5" d="M535.8,868.7c-6.3.6-10.7,5.8-11.4,13.8l-1.3,28c7.2-.2,14.6-.5,22.3-.7l1.1-28c0-9.9-6.4-13.3-10.6-13.1"/><path class="cls-5" d="M504.4,869.9c-5.5.6-9.4,6-10.2,13.9l-1.8,28c6.2-.3,12.7-.6,19.6-.9l1.5-28c.2-9.9-5.4-13.2-9.1-13"/><path class="cls-5" d="M477.5,871.3c-4.6.7-7.9,6-8.7,14l-2.1,28c5-.4,10.5-.8,16.3-1.1l1.9-28c.3-9.8-4.3-13.2-7.4-13"/><path class="cls-5" d="M455.9,873.1c-3.5.7-6.1,6-7,14.1l-2.3,28.1c3.7-.4,7.9-.8,12.5-1.2l2.2-28.1c.5-9.9-3-13.1-5.4-12.9"/><path class="cls-5" d="M440.3,875c-3.2,1.1-4.5,10.3-4.9,14.2l-2.5,28.2c2.3-.5,5-.9,8.3-1.4l2.4-28.1c.6-9.4-1.5-13.2-3.3-12.9"/><path class="cls-5" d="M431.4,877.1c-.6.5-1.4,2.5-2.6,14.3l-2.6,28.2c.6-.5,1.8-1,3.5-1.5l2.6-28.2c.8-9.5-.2-13.1-.9-12.8"/><path class="cls-10" d="M575.9,869c-4.5,2-7.3,6.5-7.8,12.6l-.8,27.8c-3.2,0-6.5.1-9.6.2l.9-27.9c.6-7.9,5.3-13.2,12.3-13.7,1.5,0,3.2.3,4.9,1.1h0Z"/><path class="cls-10" d="M540.8,870c-3.9,2.1-6.4,6.5-6.9,12.5l-1.2,27.7c-3.3,0-6.5.2-9.6.3l1.3-28c.7-8,5.1-13.2,11.4-13.8,1.5,0,3.3.3,5,1.3h0Z"/><path class="cls-10" d="M509.4,871.6c-3.1,2.3-5.2,6.5-5.7,12.2l-1.6,27.5c-3.3.2-6.5.3-9.7.5l1.8-28c.8-8,4.7-13.3,10.2-13.9,1.5,0,3.4.4,5,1.8h0Z"/><path class="cls-10" d="M482.4,874c-2.1,2.5-3.6,6.4-4.1,11.4l-1.9,27.4c-3.4.2-6.6.4-9.7.7l2.1-28c.8-8,4.1-13.3,8.7-14,1.5,0,3.4.7,4.9,2.6h0Z"/><path class="cls-10" d="M460.6,878c-1,2.3-1.8,5.5-2.1,9.2l-2.1,27.1c-3.5.3-6.8.7-9.7,1l2.3-28.1c.9-8.2,3.5-13.4,7-14.1,1.5-.2,3.6,1.2,4.7,4.9h0Z"/><path class="cls-10" d="M440.3,875c-3.2,1.1-4.5,10.3-4.9,14.2l-2.5,28.2c2.3-.5,5-.9,8.3-1.4l2.4-28.1c.6-9.4-1.5-13.2-3.3-12.9h0Z"/><path class="cls-10" d="M431.4,877.1c-.6.5-1.4,2.5-2.6,14.3l-2.6,28.2c.6-.5,1.8-1,3.5-1.5l2.6-28.2c.8-9.5-.2-13.1-.9-12.8h0Z"/><path class="cls-5" d="M550.7,811.2c-5.9.5-9.9,4.9-10.4,11.6l-1,24.8c6.6-.2,13.5-.3,20.6-.5l.8-24.8c-.1-8.3-6-11.2-9.9-11.2"/><path class="cls-5" d="M521.4,812c-5.2.5-8.9,5-9.5,11.7l-1.4,24.8c5.9-.2,12-.5,18.5-.7l1.2-24.8c0-8.3-5.2-11.2-8.7-11.1"/><path class="cls-5" d="M495.6,813.1c-4.5.5-7.7,5.1-8.4,11.8l-1.7,24.9c5-.3,10.3-.6,15.9-.8l1.5-24.8c.2-8.3-4.4-11.1-7.4-11"/><path class="cls-5" d="M473.9,814.4c-3.6.6-6.3,5.1-7,11.9l-1.9,24.9c4-.3,8.3-.7,13-1l1.8-24.9c.3-8.3-3.4-11.1-5.8-10.9"/><path class="cls-5" d="M456.9,815.9c-2.7.6-4.7,5.1-5.4,12l-2.1,25c2.8-.4,6-.7,9.6-1.1l2-24.9c.5-8.3-2.3-11.1-4.1-10.9"/><path class="cls-5" d="M445.3,817.6c-2.1.9-3.1,7.9-3.5,12l-2.2,25c1.5-.4,3.4-.8,5.8-1.2l2.2-25c.6-7.8-1-11.1-2.2-10.8"/><path class="cls-5" d="M437.5,855.3c-1,.4-1.5.8-1.6,1.3l2.3-25.1c.8-8.5,1-11,1.5-12,1,.7,1,1.4-2.1,35.8"/><path class="cls-10" d="M554.8,812.1c-3.8,1.7-6.3,5.5-6.7,10.7l-.9,24.6c-2.7,0-5.3.1-8,.2l1-24.8c.6-6.7,4.6-11.1,10.4-11.6,1.3,0,2.7.2,4.1.9h0Z"/><path class="cls-10" d="M525.5,813.1c-3.2,1.8-5.3,5.5-5.8,10.5l-1.3,24.5c-2.7,0-5.4.2-8,.3l1.4-24.8c.6-6.7,4.3-11.2,9.5-11.7,1.3,0,2.8.3,4.2,1.1h0Z"/><path class="cls-10" d="M499.7,814.7c-2.5,1.9-4.2,5.5-4.6,10.2l-1.6,24.4c-2.7.1-5.4.3-8,.4l1.7-24.9c.7-6.7,3.9-11.2,8.4-11.8,1.2,0,2.8.4,4.1,1.6h0Z"/><path class="cls-10" d="M477.9,816.8c-1.6,2.1-2.8,5.4-3.2,9.5l-1.8,24.3c-2.8.2-5.5.4-8,.6l1.9-24.9c.7-6.8,3.4-11.3,7-11.9,1.2,0,2.8.6,4.1,2.4h0Z"/><path class="cls-10" d="M460.7,821.1c-.6,1.8-1.1,4.2-1.4,6.8l-1.9,24c-3,.3-5.6.6-8,.9l2.1-24.9c.7-6.9,2.7-11.3,5.4-12,1.3-.1,3.1,1.2,3.8,5.1h0Z"/><path class="cls-10" d="M445.3,817.6c-2.1.9-3.1,7.9-3.5,12l-2.2,25c1.5-.4,3.4-.8,5.8-1.2l2.2-25c.6-7.8-1-11.1-2.2-10.8"/><path class="cls-10" d="M437.5,855.3c-1,.4-1.5.8-1.6,1.3l2.3-25.1c.8-8.5,1-11,1.5-12,1,.7,1,1.4-2.1,35.8"/><path class="cls-2" d="M553,740.5c1,6.5,1.8,11.9,2.8,18.4,1.5,9.4,4.1,20.5,13,23.6.5.2,1,.3,1.6.5-4.1.4-8.2.9-12-.5-8.9-3.2-11.5-14.2-12.9-23.6-.9-6.2-1.8-12.3-2.7-18.4h10.2,0Z"/><path class="cls-2" d="M636.2,906.9c2.3,0,5.1,0,6.3,2,1.7,2.9-1.5,6.1-3.4,8.9-4,5.8-2.7,14.3.2,21,2.9,6.8,7.3,13,8.8,20.4.7,3.5.8,7.2,1.5,10.7.8,4,2.6,7.7,4.3,11.5,2.4,5.3,4.8,10.6,7.3,15.9h11.5c-2.5-5.3-4.9-10.6-7.3-15.9-1.7-3.7-3.4-7.4-4.3-11.5-.8-3.5-.8-7.2-1.6-10.7-1.6-7.4-5.9-13.6-8.9-20.4-3-6.7-4.4-15.2-.3-21,1.9-2.7,5-5.9,3.3-8.9-1.2-2.1-4-2-6.3-2-13.3,0-25.7-12.2-26.8-26.3-.3-4.4.3-8.9-.4-13.2-1.3-7.8-6.7-13.9-11.8-19.5-1.5-1.7-3.1-3.4-5.2-4.1-1.8-.6-3.8-.5-5.4-1.3-1.9-1-3.1-3-4-5.1-4.8-11.1-4.5-23.7-4-35.7,0-2.6.2-5.3,1.3-7.6,1.4-2.9,4.2-4.8,6.8-6.6-2.8-4.3-8.7-5.2-13.8-4.8-1.2,0-2.5.2-3.8.4,2.9.6,5.5,2,7.1,4.4-2.7,1.8-5.5,3.7-6.9,6.6-1.2,2.3-1.3,5-1.4,7.6-.5,12-.9,24.6,3.8,35.7.9,2,2,4.1,3.9,5.1,1.7.8,3.7.7,5.4,1.3,2.1.7,3.7,2.5,5.2,4.1,5.1,5.6,10.5,11.7,11.7,19.5.7,4.3,0,8.8.3,13.2,1,14.2,13.3,26.4,26.6,26.3h0Z"/><polygon class="cls-2" points="471.7 763.8 471.4 768.1 478.1 767.6 478.5 763.3 471.7 763.8"/><polygon class="cls-2" points="480.1 770.8 479.8 775.1 486.6 774.6 486.9 770.3 480.1 770.8"/><polygon class="cls-2" points="511.9 758.8 511.6 763 518.3 762.5 518.6 758.3 511.9 758.8"/><polygon class="cls-2" points="525.1 776.8 524.9 781.1 531.7 780.6 531.9 776.3 525.1 776.8"/><polygon class="cls-2" points="469.9 787.3 469.5 791.7 476.4 791.1 476.7 786.8 469.9 787.3"/><polygon class="cls-2" points="518 783.7 517.7 788.1 524.6 787.6 524.8 783.2 518 783.7"/></svg>