<?xml version="1.0" encoding="UTF-8"?><svg id="_05" xmlns="http://www.w3.org/2000/svg" viewBox="0 0 1920 1080"><defs><style>.cls-1{fill:#4d4d4d;}.cls-2{fill:#383838;}.cls-3{fill:#424242;}.cls-4{fill:#6d6e71;}.cls-5{fill:#333;}.cls-6{fill:#595959;}.cls-7{fill:#58595b;}.cls-8{fill:#414042;}.cls-9{fill:#d1d3d4;}</style></defs><rect class="cls-4" x="657.9" y="801.2" width="53.2" height="6.3" transform="translate(-8.5 7.3) rotate(-.6)"/><polygon class="cls-7" points="654.2 809.6 658 807.8 657.9 801.5 654.1 803.3 654.2 809.6"/><polygon class="cls-7" points="714.9 808.9 711.1 807.2 711 800.9 714.9 802.6 714.9 808.9"/><rect class="cls-7" x="656" y="809.6" width="57" height="1.4" transform="translate(-8.6 7.3) rotate(-.6)"/><polygon class="cls-9" points="658 807.8 656.1 809.9 713 809.3 711.1 807.2 658 807.8"/><polygon class="cls-7" points="711.1 807.2 714.9 808.9 718.6 810.6 713 809.3 711.1 807.2"/><polygon class="cls-7" points="658 807.8 654.2 809.6 650.7 811.5 656.1 809.9 658 807.8"/><polygon class="cls-4" points="656.1 811.2 650.8 812.9 650.7 811.5 656.1 809.9 656.1 811.2"/><polygon class="cls-4" points="713 809.3 718.6 810.6 718.6 811.9 713.1 810.6 713 809.3"/><polygon class="cls-7" points="656.1 811.2 658 814.2 711.2 813.7 713.1 810.6 656.1 811.2"/><polygon class="cls-8" points="656.1 811.2 650.8 812.9 652.8 815.3 658 814.2 656.1 811.2"/><polygon class="cls-8" points="713.1 810.6 718.6 811.9 716.5 814.8 711.2 813.7 713.1 810.6"/><rect class="cls-4" x="658" y="814" width="53.2" height="5.8" transform="translate(-8.7 7.3) rotate(-.6)"/><polygon class="cls-7" points="658 814.2 652.8 815.3 652.9 821.3 658.1 820.1 658 814.2"/><polygon class="cls-7" points="711.2 813.7 716.5 814.8 716.6 820.6 711.2 819.5 711.2 813.7"/><rect class="cls-9" x="658.1" y="819.8" width="53.2" height="2.2" transform="translate(-8.7 7.3) rotate(-.6)"/><polygon class="cls-4" points="652.9 821.3 651.5 823.1 658.1 822.3 658.1 820.1 652.9 821.3"/><polygon class="cls-4" points="711.2 819.5 716.6 820.6 718 822.5 711.3 821.7 711.2 819.5"/><rect class="cls-7" x="658.1" y="822" width="53.2" height="5.1" transform="translate(-8.7 7.3) rotate(-.6)"/><polygon class="cls-7" points="651.5 823.1 658.1 822.3 658.2 827.4 651.6 827.4 651.5 823.1"/><polygon class="cls-7" points="711.3 821.7 718 822.5 718 826.7 711.3 826.8 711.3 821.7"/><polygon class="cls-4" points="738.2 926.4 633.5 927.5 646.4 827.5 723.2 826.7 738.2 926.4"/><rect class="cls-6" x="620.9" y="926.9" width="129.9" height="5.7" transform="translate(-9.9 7.4) rotate(-.6)"/><rect class="cls-1" x="619.9" y="932.7" width="132.1" height="5.7" transform="translate(-9.9 7.4) rotate(-.6)"/><rect class="cls-3" x="618.1" y="938.5" width="135.8" height="5.7" transform="translate(-10 7.4) rotate(-.6)"/><rect class="cls-2" x="616.6" y="944.2" width="138.9" height="5.7" transform="translate(-10 7.4) rotate(-.6)"/><rect class="cls-5" x="581.8" y="950" width="208.9" height="29.6" transform="translate(-10.2 7.4) rotate(-.6)"/><polygon class="cls-7" points="658.2 827.4 646.6 927.3 633.5 927.5 646.4 827.5 658.2 827.4"/><polygon class="cls-7" points="711.3 826.8 725 926.5 738.2 926.4 723.1 826.7 711.3 826.8"/><path class="cls-9" d="M725.5,694l-10-6c-.6-.3-1.3-.2-1.7.4l-3.9,6v.2c-.1-.2-.4-.6-.8-1.1,0,0-.2-.2-.3-.3l-.2-.2c-.5-.5-1.1-1-1.6-1.4-1-.8-2.3-2.3-2.9-3.7-.1-.4-.3-.7-.3-1,0,0,0,0,0,0,0-.3-.2-.7-.3-1.2,0,0,0,0,0,0-.5-2-1.6-5.1-1.9-6.1,0-.2-.1-.3-.1-.3-2-4.8-4.9-4.5-5.3-4.4,0,0,0,0,0,0,0,0,0,0,0,0-.4-1.3-1.2-2-1.8-2.4-.4-.2-.7-.4-.7-.4-.2-2.3-1.5-6.2-1.5-6.2,1.4-.8,1-1.9.9-2.5,0-.6-1.3-4.9-1.3-4.9l.3-2.1c0-.4.1-.8.2-1.2,0-.3,0-.6.1-.9,0-.3,0-.7,0-1l6.6-.5c-1.9-.4-3.8-.6-5.6-.9,0,0-.2,0-.3,0h-.8c0-.9-.2-1.7-.4-2.4l6.1-3.1c-1.4.2-2.8.6-4.2.9-1.1.3-1.8.4-2.3.3h-.3c-.1,0-.2-.3-.3-.4-.2-.3-.4-.6-.6-.8h0c-.2-.2-.4-.4-.6-.6v-.2h.1s0,0,0,0l4.7-6.3c-2,1.7-4,3.4-6.1,5.1-1.2,1-2.7.8-3.5-.2-.1,0-.2,0-.3,0l-1.9-9.6c-.4,1.7-.5,3.2-.7,4.8-.2,1.7-.3,3.4-.5,5.1-1.4.9-2.6.9-3.7.5,0,0-.1,0-.2,0l-.4-.3c-1-.5-1.9-1.2-2.8-2.1-.6-.6-.6-.6,0,0l-5-3.7,6.5,7c-.1,0-.3.2-.4.3.1.3.2.6,0,.7-.4.6-.8,1.3-2,1-2-.6-4.1-1.1-6.1-1.4-.8-.1-1.2-.4-1.5-.9h-.5c-.5-3.8-1.3-7.4-1.3-7.4-2.5-6.1-2.6-15.4-2.6-15.4,0,0,0-4.6-.1-6.2,0-.2,0-.3,0-.4,0-.1-.2-.3-.4-.5-.2-.3-.6-.7-.9-1.1-.3-.3-.6-.7-.8-1-.5-.7-.7-1.4-.2-2,1.3-1.3.6-1.7.6-1.7v-1.3s2.1,0,2.1,0c3-.2,2.5-3.1,1.8-3.5-.7-.5-.6-1.8-.6-1.8.7-.9.7-1.8.7-2h0c-.1-2.8-5.1-2.1-5.1-2.1h0c0,0,0-.8,0-.8,1.1-.2,1.7-.7,2.1-1.2.4-.5.5-1.1.6-1.7,0-.7-.1-1.3-.1-1.3.2-.3.5-.7.9-1.2.9-1.5,2.1-3.5,2.1-3.5-1,.2-3.1,1.9-3.1,1.9.4-2.6-6.2,1.6-6.2,1.6v-1.5c-1.4.3-3.8,3.1-3.9,4.7-.2,1.6,1.9,3.1,1.9,3.1h-1.5c-.8,0-1.5.3-2.1.8l-.8.7c-.6.5-.6,1.4,0,1.9l.3.2.6.5s.7.2.8.4c0,.1-.2.3-.4.5-.2.2-.4.3-.4.3l-.5.3c-.8.5-1,1.6-.4,2.3l1,1.2c.3.1.5.3.7.4.1,0,.1,0,0,0,1,.6,1.2,1.2,1.2,1.5,0,.3-.2.5-.2.5l1,2c-.6,1-.4,1.7-.2,2.1.1.2.2.3.2.3,0,0,0,0,0,0,0,.2,0,.6.1,1.2h0c0,.2,0,.4,0,.6,0,.6,0,1.3,0,2.1-.2,2.1,1.8,4.7,1.8,4.7-1.1,2.6.3,3.5.3,3.5,0,0,.8,9.7.9,11.9.1,2.2.7,6,1,6.8.3.8,1.6,7.7,1.6,7.7-3,3.8-5.2,7.4-5.3,13.3,0,5,4.3,6.4,5.2,6.6h0c0,0,.1,0,.1,0,0,0,0,0,0,0-1,1.6-1.1,2.8-.9,3.8,0,0,0,.1,0,.2,0,0,0,.1,0,.2,0,0,0,0,0,.2.5,1,1.5,1.6,2.2,1.9.4.2.7.2.7.2,0,0,0,.4.2,1,0,.1,0,.2,0,.4,0,.1,0,.2,0,.3,0,.8.1,1.7,0,2.7,0,.5-.1,1-.2,1.6,0,.5-.3,1.1-.5,1.5-1.3,3,.2,3.7.2,3.8s.1.2.3.3c0,0,0,0,0,0,.2.2.5.5.8.9.1.2.3.3.4.5,0,0,.2.2.3.3.7.7,1.2,1.4,1.2,1.4,0,.2,0,.3,0,.5,0,1.4.3,2.4.6,3,.2.4.4.5.4.5-.2.2-.4.4-.5.6-3.5,4.2-5,10.7-4.8,14.6,0,.6.2,1.2.4,1.7,0,0,0,0,0,0,1.3,2.5,4.7,2.8,4.7,2.8,0,0,0,.1,0,.2-.5,3.6-4.3,8.8-2.9,12.8,0,.1,0,.3.2.5.4,1.2.8,3,1.2,4.8,0,0,0,0,0,0,.2,1.2.5,2.5.7,3.7,0,0,0,0,0,.1.5,2.8.8,5.4,1,7.2,0,.5,0,.9,0,1.2,0,1.8,0,3.3-.1,4.2,0,0,0,0,0,0,0,.6-.1.9-.1.9,0,0,0,0-.1.1-2.7,3.4-1.1,6.1-1.1,6.1,1.7,1.5.3,3.4-.2,7.6-.5,4,.7,12.1.8,12.9,0,0,0,0,0,0,0,0,.2,1,.2,2h0c0,.7,0,1.3-.2,1.6-.5.8-.7,2.5-.3,3.7.3,1.1.4,5-.3,7.4-.7,2.4-5.2,6-5.2,6l51.5-.5-1.8-20.1,1.1-1c.3-.3.5-.7.4-1.1l-1.7-19.3c4.3-1.7,3.3-5,3.3-5l-1-7.4.5-.5c0-.1.2-.2.2-.3.3-.5.5-1.2.3-1.8l-.5-3.2h0s-2.3-13.9-2.3-13.9c7.8.1,6.6-2.8,7.1-3.7s1-10.8,1-10.8h1.7c.7,0,1.4-.4,1.8-1l5-7.7c0,0,0-.1.1-.2.3-.6.2-1.3-.1-1.8l-1.3-2,1.9-2.8-.6-1,1-1.2c.3-.3.2-.9-.2-1.1h0ZM673.6,653.5v4.4c0,.2,0,.5,0,.7-.2.8-.7,2.8-1.4,2.8h0c-.4,0-.8-.5-1.3-1.8-.3-.8-.2-1.8-.3-3,0-.9-.4-1.9-1.2-2.8,0,0-.1-.2-.2-.2h4.5s0,0,0,0ZM666.4,646.2s0,0,0,0c2.2.9,4.2,1.7,6.3,2.6.5.2,1.4.3,1.1,1.3-.2.5-.2,1.1-.4,1.5h0c0,0,0,0,0,0-.2.3-.5.4-1.1.4-.8,0-1.6.2-2.4.2-.3,0-.7,0-.9-.1-1.2-.7-1.9-1.5-2.3-2.5-.3-.2-.5-.4-.5-.4,0-1,0-2.1-.2-3.2l.5.2h0Z"/><path class="cls-7" d="M689.7,692.9c-.2,1.5-.4,3.1-.8,4.5-.7,3-1.5,6-2.3,9-.2.5-.7,1-1,1.4-.2.3-.5.8-.4.9,1.2,1.6,0,3-.4,4.4-1.2,4.8-2.5,9.7-3.8,14.5-2.1,8.2-4.5,16.3-9,23.5-.5.7-1,1.4-1.5,2-.2,0-.3-.2-.4-.2.7-1.8,1.3-3.7,2.2-5.5,3.6-7.3,6.1-14.9,8-22.8,1.3-5.2,2.6-10.4,4-15.6,1-3.4,2.3-6.7,3.4-10.1.6-2,1.1-4.1,1.6-6.2.1,0,.2,0,.3,0h0Z"/><path class="cls-7" d="M724.9,693.4c1.3.8,1.7,1.4.5,2.3-.1,0-.2.3-.2.3.8,2-1,3-1.5,4.5-.9-.6-1.6-1.1-2.3-1.6,1.4-.4,2.5-2.3,2.5-3.8,0-.6.7-1.1,1.1-1.8h0Z"/><path class="cls-7" d="M666.2,787.2c-.2.5-1,1.1-1.3,1-.5-.2-1.1-.4-1.3-1.4-.2-1.2-.3-1.5,1.1-2,1.1-.3,1.8-1.8,2.7-2.7.2-.2.4-.6.5-.8,0,0-.9,4-1.6,5.9h0Z"/><path class="cls-7" d="M664,795.9c-.6.6-1.1,1.2-1.6,1.8,0,0,0,0-.1,0,.7-1.5,1.3-2.9,1.7-3.8,0,1.2.6,2.7,2.3,3.7-.3.8-1.6,1.3-4.2,1.6.6-.2,1.1-.6,1.7-.7,1.5-.3,1.6-.4.8-1.7-.2-.3-.4-.5-.6-.9h0Z"/><path class="cls-7" d="M693.8,685.1c.9,3.3.2,6.4-.5,9.6.2-3.2.3-6.4.5-9.6Z"/><path class="cls-7" d="M692.4,675.5c-1.8.9-3.4,1.7-4.9,2.4.8-2,2.7-3.2,4.9-2.4Z"/><path class="cls-7" d="M667.7,801.4c-1.2,0-2.2,0-3.2,0,1-1.4,1-1.4,3.2,0Z"/><path class="cls-7" d="M673.9,677.7c1.3-4.1,2.1-8.2,1.4-12.6,2.1,1.7.5,10.2-1.4,12.6Z"/><path class="cls-7" d="M670.3,687.2c0-2.8.5-5.9,2.2-9-.8,3.3-1.5,6.4-2.2,9Z"/><path class="cls-7" d="M673.9,669.4c.1-1.3.2-2.7.4-4h.2c0,1.3,0,2.6,0,4-.2,0-.4,0-.6,0Z"/><path class="cls-7" d="M650.8,605.4c-.6.2-1.1.8-1.6,1.2.6.6,1.1,1.2,1.7,1.8.4.4.4.4,0,0,.2.2.6.4.8.7.1.3.3.6.4.9.4.9.4,1.7.8,2.6,0,.1-.2,1.9-.2,2.1,0,.2.4,1.6.4,1.6,0,0,0,2.3,0,2.4.5,1.5.5,3.2,1.9,4.6,0-.5,0-.7,0-1,0-.7.2-1.4.3-2,.8.3,1.7.4,2.2.9.6.6,1.5,4.3,1.5,4.4-1.4.2-2.9.4-4.3.6.1.8.6,1.1,1.4.9,2-.5,0,4.3,0,5.2,0,6.7.7,13.3,2.4,19.8.7,2.4,2.1,5.1-.4,7.4,0,0,1-.4,1.6-.8-.5,2.6-3.4,3.4-3.3,5.8.6-.5,1.9-1.3,2-1.2-.7,1.7-1.8,5.3-1.7,5.4,1.5-1.1,3.1-2,4.4-3.3.8-.8,1.8-2,1.2-3.5-.5-1.3-.9-2.6-1.3-4-.8-3.2-1.5-6.4-2.4-9.6-1.2-4.4-1.4-8.9-1.5-13.5,1.4,2.4,2.8,4.6,4.1,6.8,1.1,1.8,1.5,3.7,1.3,5.8-.2,1.7-.6,2.2-2.5,2.6.4,1,.5,2.2,1.2,2.8,1.9,1.7,3.3,3.6,3.7,6.5.8-1,1.4-1.6,2-2.3.2.3.5.6.7.9.4-.3.8-.7,1.2-1,0,0,.2,0,.2.2-.3,1-.7,2-.8,2.6.2.6.4.9.4,1.2-.7,2.6-1.9,5-4,6.7-2,1.6-4.4,2.9-6.6,4.3h1.9c0,0,0,.1,0,.2-.7.4-1.3.7-2.2,1.2.4.2.7.3.8.5h0s0,0,0,0c.4.5,0,1.1-.2,1.7-.5,1-.7,1.5-.6,2.1,0,0,0,.1,0,.2,0,0,0,.1,0,.2,0,0,0,0,0,.2.2.4.7.8,1.3,1.3.3.2.6.4.8.6.1,0,.2.2.3.3.2.2.4.5.5.9,0,0,0,.2.1.3.6-2.2,1.1-4.4,1.7-6.6.2-.7.5-1.4.8-2.1h.5c0,.4.2.8.1,1.2-.8,3.5-1.7,6.9-2.6,10.3.3-.1.8-.4,1.4-.6-.4.5-.8,1-1.2,1.5-.2,0-.3,0-.5,0,0-.2,0-.4-.1-.6-.1-.4-.2-.8-.2-1.3,0-.5,0-.9.2-1.4,0-.2,0-.3,0-.5,0,0,0,0,0,0,0,0,0,0,0,.1-1,1.5-1,3.1-.1,4.6,0,0,0,.1,0,.2-.8,1.9-1.3,3.8,0,5.5,0,0,0,0,0,0,.1.2.3.3.4.5.1.1.2.2.3.4.1.2.3.3.4.5,0,0,.2.2.3.3.5.6.9,1.2,1.2,1.8.3.6.5,1.3.6,2.2,0,.3,0,.5,0,.8,0,.4,0,.8-.2,1.2,0,.3-.2.7-.5,1-2.9,4.5-4.6,9.4-4,14.8,0,.2,0,.3,0,.5,0,0,0,0,0,0,.4,1.9,1.6,2.7,3.6,2.7.4,0,.7.1,1.1.2.2,0,.3,0,.5.1-.2-7.6,5.3-12.3,9.3-17.8.1,0-.5,2.2-.9,3.1.9-1.2,1.8-2.3,3.1-3.3,1.1-.9,1.8-2.3,2.7-3.5.2-.2.4-.6.5-.6,1.6.6,1.3-1.2,2-1.7.3-.2.4-.5.9-1,0,.6,0,.8-.1,1-1.2,2.7-2.4,5.4-3.7,8-1.4,2.7-3,5.4-4.4,8.1-3.4,6.3-5,13.3-7.4,20-.9,2.6-1.6,5.3-2.4,7.9-.3-8.5,3.7-16.1,5.2-24.3-2.2,5.9-4.4,11.7-6.8,17.9-1.5-3.2.7-5.8.8-8.5-.3.7-.6,1.3-.9,2-.8,2-1.2,3.9-1,5.8,0,1.1.3,2.3.8,3.4.2.5.3.9.5,1.4,0,0,0,0,0,0,.3,1.1.5,2.3.7,3.4,0,0,0,.2,0,.3,0,0,0,0,0,.1.4,2.4.6,4.8.9,7.3,0,0,0,0,0-.1,0-.1.2-.2.2-.2,0-.3.1-.5.1-.8.4-6,2.1-11.5,4.2-17.1,1.3-3.6,2.8-7.1,4-10.7.6-1.7.9-3.5,1.6-5.2,1.7-4,3.5-8,5.3-12,2.1-4.6,4.3-9.3,6.6-13.9,1.5-3.1,4.8-9.2,4.7-9.3-.2.3-.4.6-.6.9-1.6,2.1-2.4,4.6-4.4,6.5-5.2,5-9.9,10.4-14.9,15.6-.1.1-.4.2-.9.4,3.3-5.2,9.1-15.3,8.9-15.5-3.8,5.9-7.5,11.7-11.3,17.6,0,0,2.2-6.4,2.1-6.5-1.5,2.7-3,5.5-4.5,8.2,0,0-.1,0-.2-.1,0-.7,0-2.1-.2-2.1-.7,2.6-1.3,5.1-2,7.9-.6-.5-.9-.8-1.5-1.3-.5,1.9-.9,3.5-1.5,5.6-.1-1-.2-1.6-.2-2.2.1-3.1,1.2-5.9,2.5-8.7,2.8-5.5,6.6-10.5,10.8-15,4.6-5,9.5-9.7,14.2-14.5.5-.5,1.2-.6,1.9-.8.7-.2,1.7,0,2.2-.4,1.3-.8,2.2-.6,3.1.6-.3.2-.7.7-.7.8,1.2,0,2.5.2,3.7.3-.8,1.8,1.6.9,1.7,2.2-.7-.2-1.5-.5-2.2-.7-.3-.1-.9-.4-1-.3-1.1,1-1.7,0-2.5-.4-.4-.2-.7-.5-.8-.5-2.2,5.4-6.4,16.2-6.2,16.2.7-1.7,1.4-3.4,2.2-5,1.3-2.7,2.7-5.4,4.1-8.1.5-1,1.8-1.2,2.1-.4,1,2.3,2.5,4.5,2.3,7.2-.2,2.7-.5,5.5-.7,8.2,0,0,.1,0,.2,0,.5-.9.9-1.9,1.4-2.9,1.3,1.7,2.6,9.9,1.7,12.1-.3-1.9-.7-3.6-.9-5.3-.2-1.5-.9-2.3-2.6-2.7.4.6.7,1.1.9,1.3-1.1.5-2.1.9-3.2,1.3,0,.2,0,.3,0,.5.6.3,1.2.5,1.7.9.6.5,1.4,1,1.5,1.7.3,2.7-.2,5.2-2.1,7.3-1.6,1.7-3.2,3.4-4.7,5.2-.8.9-1.2,1.9-.6,3.2.3.6.4,1.3.3,2-.3,3.7-.6,7.3-1,11,0,.7-.3,1.5-.7,2.2-1.2,2-2.3,3.9-3.6,5.8-1.5,2.2-3,4.5-4.8,6.2-2.8,2.6-5.3,5.1-7,8.6-1.2,2.5-3.2,4.5-5.9,5.5-1.9.7-2.8,0-2.7-2,0-.4,0-.8.2-1.2.5-1.5,1.1-3,1.7-4.4.4-1,1-3.1.9-3.1-.7,1.2-1.4,2.4-2.2,3.9-.1-.6-.2-.8-.2-.9-.2.9-.4,1.8-.6,2.8,0,0,0,0,0,0,0,.3-.2.7-.2,1-.2.9-.3,1.8-.5,2.8-.2,1.4-.3,3,.2,4.2.4.9.5,1.6.2,2.4-1.2,4.3-1.7,8.7-.9,13.2.2,1.3.3,2.7.4,4,0,0,0,0,0,0,0,.5,0,1,.1,1.5,0,.2,0,.3,0,.5h0c0,.5.2,1.1.3,1.6,1.2-1.3,2.1-2.5,2.8-3.8.7-1.4,1.3-2.8,1.9-4.3.2-.5-.1-1.1-.2-1.7-.6,0-1.2,0-1.7.3-1.3.5-2,.4-2.3-1-.4-1.8-.7-3.6-.6-5.3.1-2,.7-4,1.1-5.9.4-2,1.3-2.5,3.5-1.9-.2.7-.3,1.4-.5,2.1-.6,2.1-1.2,4.1-1.8,6.2-.2.8,0,1.5.9,1,2.2-1.2,4.4-2.5,5.5-4.9,1.8-3.7,3.3-7.5,5-11.2.6-1.3,1.4-2.5,2.1-3.6.6.5,1,.8,1.4,1.2.3-.5.6-.9.8-1.3.8-2.2,1.5-4.5,2.3-6.8.4-1.2,1-2.4,2.4-3,1.1,1.3,1.4,2.8,1.4,4.5,0,6.4,0,12.7-.2,19.1,0,1.6.5,2.7,2,3.3.5.2,1,.5,1.2,1,.9,1.8-.2,4.2-2.1,5-3.6,1.5-7.5,2.4-10.4,5.2-1.4,1.3-3,2.6-3.8,4.3-.9,1.7-1.7,3.4-3.3,4.5-1.2.8-2.2,1.7-3.3,2.6-1.5,1.2-3,1.2-4.3,0,.3,1.4.6,2.7,1,3.9.1.4.4.9.8,1.2.2.2.6,0,.9.1,0-.3.2-.8,0-1-.2-.3-.6-.6-.9-.9,1.8,0,2.4-.9,2.6-2.4,0-.3.5-.6.8-.8.1,0,.3.2.4.3-.8,2.2-1.5,4.3-2.3,6.5.1,0,1.9-3,2.7-4.5.1,0,.2,0,.3,0-.6,2.2.2,3.2.4,1.1,0-1.6.1-3.2.9-4.6.2,0,.4,0,.6,0-.4,2.6-.7,7.8-.5,7.8.6-2.6,1.2-5.1,1.7-7.6,0,0,2-3.9,2.9-6,.2-.3.6-.5,1-.8.3.4.8.7.8,1.2,0,.6,0,1.2-.2,1.8-1.5,3.9-4.5,12-4.6,12.3.1,0,3.8-4,3.9-4-.9,2.6-1.8,5.2-2.8,7.9h1.4c.2-.2.4-.4.6-.6,1.6-1.9,2.5-4.1,2.7-6.6.5-4.2,2.1-13.4,2.2-13.3,0,0-.4,6-.2,6,.3-1.8.5-3.6.9-5.4,0-.4.8-1.1.9-1.1.1-.8.7-2.2,1-2.2-.3,2.7-.6,5.4-.8,8.2.7-.2,1.3-.4,1.8-.4.4,0,.5,1,.2,1.3-.9,1-2.1,1.9-2.5,3.1-.7,1.9-.8,4-1.3,6.3.5-.7.9-1.1,1.2-1.6.2,0,.3.2.5.3-.4,1-.7,2.2-1.3,3.1s-1.4,1.8-2.1,2.6c0,0,1.8-.4,2.7-.7-.2.3-.4.6-.6,1l29.3-.3c-.2-.3-.5-.7-.7-.8-.9-.3-1-.8-1-1.6-.5-5.5-1-10.9-1.4-16.3,0-.5.2-1.2.6-1.5.8-.7,1.1-1.5,1-2.6-.5-5.6-.9-11.2-1.4-16.8,0-.9,0-1.5,1-2,1.8-1,2.7-2.6,2.2-4.8-.4-1.9-.6-3.8-.8-5.7,0-.5,0-1.1,0-1.7,0-.3,0-.6.1-.9.1-.7.3-1.3.2-2-.1-1-.2-2-.4-3.1h0c-.4-3.1-.8-6.1-1.3-9.2-.2-1.4-.3-2.8-.5-4.1,1.6-.2,3-.3,4.4-.6.6-.1,1.3-.7,1.6-1.2.5-1,.7-2.1.9-3.2.5-2.8.8-5.7,1.2-8.5,0-.5.6-1.1,1-1.2,1.4-.3,2.3-1.2,3-2.3.9-1.4,1.8-2.8,2.7-4.2.6-1,1.1-2,1.4-2.7.2-.5.2-.5,0,0-1.6-1.6-3.3-5.2-5.2-4.2-1,.5,2.8,5,2.7,5.2-1.7-.5-4-3.8-4.9-2.3-.3.5,3.2,2.9,3.4,3.3-.4-.1-2.7-2.3-3.7-2.1-.1,0-.3.2-.2.3.4,1.1,2,2.3,3,3.5,0,.1-3.1-2.4-3.6-1.7-.2.2,0,.6.2.7,1,.7.6,1.3.1,2.1-.7,1.1-1.3,2.4-1.9,3.5-1.2,2.2-2.5,4.4-3.7,6.6-1.4-1.1-2.7-1.9-3.8-3-.6-.5-1.1-1.3-1.3-2.1-.4-1.7-.5-3.5-1-5.2-.5-2.1-.3-4,1-5.8,1.1-1.6,1.9-3.4,2.9-5.2-.5-.2.8-1.9,1.8-2.7-.2-.2-.3-.3-.5-.5-.3-.3-.6-.7-.8-.9,0,0-.2-.2-.3-.3l-.2-.2c-.2-.2-.5-.4-.7-.5-2-1.1-3.1-2.7-3.8-4.6-.1-.3-.2-.7-.3-1,0,0,0,0,0,0,0-.1,0-.3-.1-.4,0-.3-.1-.5-.2-.8,0,0,0,0,0,0-.4-2.1-.8-4.2-1.9-6.1-.3-.6-.7-1.1-1.1-1.6-1-1.2-1.7-2.5-3.5-2.6-.3,0-.6-.3-.8-.5,0,0,0,0,0,0,0,0-.1-.1-.2-.2-.4-.5-.8-1.1-1.2-1.6-.2-.2-.3-.4-.5-.6-.1-.2-.3-.4-.3-.6-.3-1.1-.6-2.2-.8-3.4-.2-.7-.6-1.8-.3-2.1,1.2-1.2.4-2.4.3-3.6-.1-1.7-1.8-3.3-.4-5.1,0-.1,0-.4,0-.7-.2-.8-.4-1.3-.5-1.8,0-.4,0-.7.1-.9.3-.5,1.1-.6,2.7-.7,1.7-.1,3.4-.3,5.1-.5-.4,0-.7-.2-1.1-.2-1.9-.4-3.8-.6-5.6-.9,0,0-.2,0-.3,0-.3-.2-.7-.6-.8-.9,0-.5.3-1.1.7-1.4.6-.4,1.3-.6,2-1,1.7-.8,3.4-1.7,5.1-2.5-.7,0-1.5.2-2.2.3-1.4.2-2.8.6-4.2.9-1.1.3-1.8.4-2.3.3-.2,0-.5-.2-.7-.4-.2-.2-.4-.5-.6-.8h0c-.1-.2-.3-.5-.5-.8h0s0,0,0,0c1.9-2.2,3.8-4.5,5.7-6.7-.3,0-.5,0-.6,0,0,0-.2.2-.3.3-2,1.7-4,3.4-6.1,5.1-1.2,1-2.7.8-3.5-.2-.2-.3-.4-.6-.5-1.1-.5-2.5-.8-5-1.2-7.5,0-.5-.3-1-.4-1.5,0,.1,0,.3,0,.4-.4,1.7-.5,3.2-.7,4.8-.2,1.7-.3,3.4-.5,5.1-1.4.9-2.6.9-3.7.5-.2,0-.4-.1-.5-.2-1-.5-1.9-1.2-2.8-2.1-.6-.6-.6-.6,0,0-.1-.1-.3-.2-.4-.3-1.5-1.1-3-2.3-4.5-3.4,1.8,2.3,3.8,4.4,5.7,6.5.2.2.3.5.4.8.1.3.2.6,0,.7-.4.6-.8,1.3-2,1-2-.6-4.1-1.1-6.1-1.4-.8-.1-1.2-.4-1.5-.9-.2-.3-.3-.6-.4-1.1-.6-3.3-1.3-6.7-2.2-10-1-4.1-1.9-8.2-1.4-12.5.2-1.9,0-3.7-.5-5.4-.1-.3-.3-.6-.4-1,0,0,0-.2-.1-.2-.2-.4-1.6-1.8-1.6-1.8h0c.4-1.5.7-2.8,1.2-4.4.4,0,1.1-.2,1.8-.4,2-.6,2.6-1.8,1.8-3.7-.2-.5-.3-1.1-.3-1.6,0-.7.3-1.3.5-2-.1,0-.2-.2-.3-.3,0,0,0,0,0,0-.8.8-1.3.5-1.5-.3-1.4,0-2.7-.1-4-.2,0-.7,0-1.3.4-1.8.2-.3.6-.6,1.1-.8.4-.1.9-.6,1-1.1,0,0,0,0,0-.1.2-.5.4-1.1.6-1.7.2-.8.5-1.6.7-2.5,0-.2.1-.4.2-.6-.6.8-1,1.3-1.5,2-.2-1-.5-1.2-1.2-.6-.7.6-1.4,1.3-2.1,1.9-2.3,1.9-4.6,1.4-5-1-1.4,2.5-.8,3.9,1.8,4.2.3,0,.8.1,1,.4.4.4.6.9.9,1.4-.5.1-1.1.3-1.6.3-.4,0-5.2.9-5.1,1.2-.3.2-.6.3-.9.5,0,.1.2.2.2.3.3.5.6.9,1,1.4.1.2.3.4.5.7.2-.9,1.5-.9,1.7-.6.1-.3,1.6-.9,1.5-.5,0,0,2.6-.7,3.3.2.7-.5,2.2.3,3.5-.1,1-.3,1.2.3,1.3,1.2-1.1,0-2.1-.2-3.1-.3-2.8-.3-5.5-.2-8.2.7h0ZM706.2,723.9c.2,0,.4,0,.7,0,.9,5.9,1.8,11.8,2.6,17.8-.2,0-.4.2-.6.3-.3-.5-.8-.9-.9-1.5-.4-2.5-.6-5-.9-7.5-.3-2.3-.6-4.5-.9-6.8,0-.8,0-1.5,0-2.3h0ZM685.5,792.1c.2-.2.4-.7.6-.7.7,0,1.2-.2,1.3-1.1,0-.3.4-.6.6-.9.2.3.4.7.5.8,0,1.9-.9,2.8-2.3,2.5-.2,0-.5-.3-.7-.5ZM689.6,798.8c-.7.6-2.9.9-3.4.2-.3-.4-.3-1.3,0-1.9.5-1.1,1.4-1.5,2.7-1,.7.3,1.9.8,1.8.9.5.7.9,1.4,1.5,2.4-1.7-.2-2.1-2.7-4.2-1.6.7.4,1.2.7,1.7,1h0ZM698.5,758c-3.2,2-6,4.4-9.1,6.7-.2,0-.3-.2-.5-.3.2-2.9.3-5.9.5-8.8.6-9.4,1.1-18.8,1.7-28.1.2-3.5.5-7.1.8-10.6,0-.4.3-.9.6-1.2,1.6-1.5,3.3-2.9,5-4.3,1.5-1.2,2.5-.9,2.7,1.1.4,4,.8,8.1,1,12.2.5,7.9.8,15.9,1.2,23.8,0,.6,0,1.1,0,1.7.4,3.5-.8,6-3.9,8h0ZM701,682.1c.3,1.6.5,3.2.8,4.8.6,3.2,1.4,6.4,2,9.7.2.8,0,1.7-.5,2.6-.9-4.6-1.7-9.2-2.8-13.7-.5-1.8-1.8-3.3-2.7-5-.1-.2-.3-.5-.5-.8,1.6-.6,3.3.5,3.7,2.5h0ZM666.9,656.7c.4-1.1.8-2.3,1.2-3.4.1,0,.2,0,.3.2-.8,1,0,2.6-1.6,3.3h0ZM665.7,697.1c-.2,0-.3-.2-.5-.2.6-3,.9-6,1.8-8.9.9-3.1,2.4-6,3.4-9.1.7-2.3,1-4.8,1.2-7.3-3.7,5.6-5.5,12.2-10.7,17,.3-3.5,4.2-4.6,5-7.6-.1-.1-2.2,1-2.1.3.4-2,.8-4,1.2-6,0-.2,0-.3.1-.7.3.4.6.8,1.1,1.5,0-.8,0-1.3,0-1.7,0-1.9,1.2-3,3.1-2.8,1.5.2,2.1-.2,2.3-1.7.2-1.2.2-2.5.4-3.8.2-.9.7-1.8,1.1-2.8,2.1,0,3.1,1.5,3.9,3.4.2-.4.5-.7.7-1.1.1,0,.2.2.2.2-.2,1.8.5,3.1,1.6,4.4,1.1,1.4,2,3,2.9,4.3,1.4.4,2.7.8,4.3,1.3-6.9,7.3-15.2,13.1-21,21.3h0ZM681.8,654.8c-.5-.2-1.3,0-1.9.2-.4,0-.7.3-1.1.5,0-.1-.1-.2-.2-.4,1.6-1.1,3.1-2.1,4.7-3.2,1,.8,1.9,1.6,3.1,2.5-2.1.2-1.9,1.5-2,2.9,0,1,.7,2.6-1.5,2.2,0,.4-.1.9-.2,1.5-.1,0-.5.4-1.2.9.9,0,1.5,0,2-.1,0,.1,0,.2,0,.3-.4,0-.9.2-1.3.3,0,.1,0,.3,0,.4.5,0,1.1,0,1.6.2.5.2.9.6,1.3.9-.4.3-.8.9-1.2.9-1.3,0-2.7,0-3.9-.4-1.2-.3-2.1-1.1-2.2-2.6,0-.4,0-.7-.1-1.1-.4-2.9.9-4.2,3.8-4.1.4,0,.8-.4,1.2-.6-.3-.4-.6-1.2-1-1.3h0ZM687.1,659.9c-.2.6-.4,1.1-.7,1.7-.4-1.5-1.8-2.7-1-4.5,2.2.6,2.4.8,1.7,2.9h0ZM689.3,672.7c-.1,0-.2-.1-.3-.2-.2-1.5-.3-3-.5-4.4.2,0,.4,0,.6-.1.4,1.2.8,2.3,1,3.5,0,.3-.5.8-.8,1.2h0ZM674.3,654.6c1.8-.5.9-2.4,1.8-3.4.9-1,1.8-2,2.6-2.8.6,0,1.1-.2,2-.3.8.6.9.5,1.3-1.4.3.4.7,1.1,1.1,1.8.5-.7.9-1.4,1.2-2,0,.4,0,1.1.2,2,.6-.3,1.1-.5,1.5-.7.2.2.5.6.7.6,2.6.3,3.6,2.2,4.5,4.3.4,1-.5,1.7-1.6,1.3-2.3-.9-4.4-2-6.6-3-2.2,1.2-4.8,2.6-7.2,3.9.5,2-.2,3.2-1.3,3.2-.5,1.3-1,2.6-1.5,3.8-.3-.1-.5-.3-.7-.4h0c-.9-.7-1.1-1.6-1.1-2.7,0-.7-.2-1.4-.5-2-.2-.5-.4-1-.6-1.5-.2-.5-.4-.9-.6-1.4,0,0,0,0,0,0,.4-.1.8-.2,1.2-.2.5,0,1,0,1.5,0,.6,0,1.2.2,1.6.5.3.2.5.4.6.6h0ZM666.4,646.2s0,0,0,0c2.2.9,4.2,1.7,6.3,2.6.5.2,1.4.3,1.1,1.3-.2.5-.2,1.1-.4,1.5,0,0,0,0,0,0-.2.3-.5.4-1.1.4-.8,0-1.6.2-2.4.2-.3,0-.7,0-.9-.1-1.2-.7-1.9-1.5-2.3-2.5-.4-.9-.4-2-.2-3.4h0Z"/></svg>