<?xml version="1.0" encoding="UTF-8"?><svg id="_06" xmlns="http://www.w3.org/2000/svg" viewBox="0 0 1920 1080"><defs><style>.cls-1,.cls-2{stroke-miterlimit:10;stroke-width:.8px;}.cls-1,.cls-2,.cls-3{fill:none;}.cls-1,.cls-3{stroke:#a04e10;}.cls-4{fill:#a04e10;}.cls-5{fill:#fefebe;}.cls-2{stroke:#7e5236;}.cls-6{fill:#020201;}.cls-7{fill:#a14d0e;}.cls-3{stroke-miterlimit:10;stroke-width:.8px;}.cls-8{fill:#e6893a;}.cls-9{fill:#6f472f;}.cls-10{fill:#e88b3b;}.cls-11{fill:#9d4d0e;}.cls-12{fill:#a14e0f;}</style></defs><rect class="cls-10" x="830.6" y="686.8" width="74.5" height="74.5"/><rect class="cls-8" x="838.8" y="694.9" width="58.2" height="58.2"/><rect class="cls-1" x="838.8" y="694.9" width="58.2" height="58.2"/><circle class="cls-3" cx="867.8" cy="724" r="27.2"/><path class="cls-4" d="M846.5,700.7c0,1.1-.9,2-2,2s-2-.9-2-2,.9-2,2-2,2,.9,2,2Z"/><path class="cls-4" d="M893.2,700.7c0,1.1-.9,2-2,2s-2-.9-2-2,.9-2,2-2,2,.9,2,2Z"/><path class="cls-4" d="M893.2,747.4c0,1.1-.9,2-2,2s-2-.9-2-2,.9-2,2-2,2,.9,2,2Z"/><path class="cls-4" d="M846.5,747.4c0,1.1-.9,2-2,2s-2-.9-2-2,.9-2,2-2,2,.9,2,2Z"/><circle class="cls-5" cx="867.8" cy="724" r="24.8"/><circle class="cls-2" cx="867.8" cy="724" r="21.4"/><circle class="cls-2" cx="867.8" cy="724" r="12"/><line class="cls-2" x1="867.8" y1="712" x2="867.8" y2="699.2"/><line class="cls-2" x1="873.8" y1="713.6" x2="880.2" y2="702.6"/><line class="cls-2" x1="878.2" y1="718" x2="889.3" y2="711.6"/><line class="cls-2" x1="879.8" y1="724" x2="892.6" y2="724"/><line class="cls-2" x1="878.2" y1="730" x2="889.3" y2="736.4"/><line class="cls-2" x1="873.8" y1="734.4" x2="880.2" y2="745.5"/><line class="cls-2" x1="867.8" y1="736" x2="867.8" y2="748.8"/><line class="cls-2" x1="861.8" y1="734.4" x2="855.5" y2="745.5"/><line class="cls-2" x1="857.5" y1="730" x2="846.4" y2="736.4"/><line class="cls-2" x1="843" y1="724" x2="855.8" y2="724"/><line class="cls-2" x1="857.5" y1="718" x2="846.4" y2="711.6"/><line class="cls-2" x1="861.8" y1="713.6" x2="855.5" y2="702.6"/><line class="cls-2" x1="870.6" y1="702.8" x2="871.1" y2="699.4"/><line class="cls-2" x1="873.4" y1="703.4" x2="874.3" y2="700.1"/><line class="cls-2" x1="876" y1="704.3" x2="877.3" y2="701.1"/><line class="cls-2" x1="878.5" y1="705.5" x2="880.2" y2="702.6"/><line class="cls-2" x1="880.8" y1="707.1" x2="882.9" y2="704.4"/><line class="cls-2" x1="883" y1="708.9" x2="885.4" y2="706.5"/><line class="cls-2" x1="884.8" y1="711" x2="887.5" y2="708.9"/><line class="cls-2" x1="886.3" y1="713.3" x2="889.3" y2="711.6"/><line class="cls-2" x1="887.6" y1="715.9" x2="890.8" y2="714.5"/><line class="cls-2" x1="888.5" y1="718.5" x2="891.8" y2="717.6"/><line class="cls-2" x1="889" y1="721.2" x2="892.4" y2="720.8"/><line class="cls-2" x1="889.2" y1="724" x2="892.6" y2="724"/><line class="cls-2" x1="889" y1="726.8" x2="892.4" y2="727.3"/><line class="cls-2" x1="888.5" y1="729.6" x2="891.8" y2="730.4"/><line class="cls-2" x1="887.6" y1="732.2" x2="890.8" y2="733.5"/><line class="cls-2" x1="886.3" y1="734.7" x2="889.3" y2="736.4"/><line class="cls-2" x1="884.8" y1="737" x2="887.5" y2="739.1"/><line class="cls-2" x1="883" y1="739.1" x2="885.4" y2="741.6"/><line class="cls-2" x1="880.8" y1="741" x2="882.9" y2="743.7"/><line class="cls-2" x1="878.5" y1="742.5" x2="880.2" y2="745.5"/><line class="cls-2" x1="876" y1="743.8" x2="877.3" y2="746.9"/><line class="cls-2" x1="873.4" y1="744.7" x2="874.3" y2="748"/><line class="cls-2" x1="870.6" y1="745.2" x2="871.1" y2="748.6"/><line class="cls-2" x1="867.8" y1="745.4" x2="867.8" y2="748.8"/><line class="cls-2" x1="865" y1="745.2" x2="864.6" y2="748.6"/><line class="cls-2" x1="862.3" y1="744.7" x2="861.4" y2="748"/><line class="cls-2" x1="859.7" y1="743.8" x2="858.3" y2="746.9"/><line class="cls-2" x1="857.2" y1="742.5" x2="855.5" y2="745.5"/><line class="cls-2" x1="854.8" y1="741" x2="852.8" y2="743.7"/><line class="cls-2" x1="852.7" y1="739.1" x2="850.3" y2="741.6"/><line class="cls-2" x1="850.9" y1="737" x2="848.2" y2="739.1"/><line class="cls-2" x1="849.3" y1="734.7" x2="846.4" y2="736.4"/><line class="cls-2" x1="848.1" y1="732.2" x2="844.9" y2="733.5"/><line class="cls-2" x1="847.2" y1="729.6" x2="843.9" y2="730.4"/><line class="cls-2" x1="846.7" y1="726.8" x2="843.3" y2="727.3"/><line class="cls-2" x1="846.5" y1="724" x2="843" y2="724"/><line class="cls-2" x1="846.7" y1="721.2" x2="843.3" y2="720.8"/><line class="cls-2" x1="847.2" y1="718.5" x2="843.9" y2="717.6"/><line class="cls-2" x1="848.1" y1="715.9" x2="844.9" y2="714.5"/><line class="cls-2" x1="849.3" y1="713.3" x2="846.4" y2="711.6"/><line class="cls-2" x1="850.9" y1="711" x2="848.2" y2="708.9"/><line class="cls-2" x1="852.7" y1="708.9" x2="850.3" y2="706.5"/><line class="cls-2" x1="854.8" y1="707.1" x2="852.8" y2="704.4"/><line class="cls-2" x1="857.2" y1="705.5" x2="855.5" y2="702.6"/><line class="cls-2" x1="859.7" y1="704.3" x2="858.3" y2="701.1"/><line class="cls-2" x1="862.3" y1="703.4" x2="861.4" y2="700.1"/><line class="cls-2" x1="865" y1="702.8" x2="864.6" y2="699.4"/><line class="cls-2" x1="867.8" y1="702.7" x2="867.8" y2="699.2"/><path class="cls-6" d="M870.1,724c0,1.2-1,2.2-2.2,2.2s-2.2-1-2.2-2.2,1-2.2,2.2-2.2,2.2,1,2.2,2.2Z"/><path class="cls-6" d="M868.8,722.6l-.4-23.4h-1.1l-.4,23.4-.7,6.5c0,.5.3.9.8.9h1.8c.5,0,.8-.4.8-.9l-.7-6.5h0Z"/><path class="cls-6" d="M879.3,723.8h-.2c0,0-.3-.2-.3-.2l-1.8-.7c-.3-.1-.8,0-.8.2v.4h-.4c-.2-.7-.8-1.2-1.6-1.2s-1.3.4-1.5,1.1l-4.8-.2-.6.4-3.9-.4c-.2,0-.4.2-.4.4v.6c0,.2.2.4.4.4l3.9-.4.7.4,4.8-.2c.2.6.8,1.1,1.5,1.1s1.4-.5,1.6-1.2h.4v.4c0,.2.5.3.8.2l1.8-.7h.3c0,0,.2-.2.2-.2l.6-.2-.6-.2h0Z"/><rect class="cls-11" x="838.8" y="689.2" width="3.7" height="3.7"/><rect class="cls-11" x="843.7" y="689.2" width="3.7" height="3.7"/><rect class="cls-11" x="848.7" y="689.2" width="3.7" height="3.7"/><rect class="cls-11" x="853.6" y="689.2" width="3.7" height="3.7"/><rect class="cls-11" x="858.6" y="689.2" width="3.7" height="3.7"/><rect class="cls-11" x="863.5" y="689.2" width="3.7" height="3.7"/><rect class="cls-11" x="868.5" y="689.2" width="3.7" height="3.7"/><rect class="cls-11" x="873.4" y="689.2" width="3.7" height="3.7"/><rect class="cls-11" x="878.4" y="689.2" width="3.7" height="3.7"/><rect class="cls-11" x="883.3" y="689.2" width="3.7" height="3.7"/><rect class="cls-11" x="888.3" y="689.2" width="3.7" height="3.7"/><rect class="cls-11" x="893.2" y="689.2" width="3.7" height="3.7"/><rect class="cls-11" x="838.8" y="755" width="3.7" height="3.7"/><rect class="cls-11" x="843.7" y="755" width="3.7" height="3.7"/><rect class="cls-11" x="848.7" y="755" width="3.7" height="3.7"/><rect class="cls-11" x="853.6" y="755" width="3.7" height="3.7"/><rect class="cls-11" x="858.6" y="755" width="3.7" height="3.7"/><rect class="cls-11" x="863.5" y="755" width="3.7" height="3.7"/><rect class="cls-11" x="868.5" y="755" width="3.7" height="3.7"/><rect class="cls-11" x="873.4" y="755" width="3.7" height="3.7"/><rect class="cls-11" x="878.4" y="755" width="3.7" height="3.7"/><rect class="cls-11" x="883.3" y="755" width="3.7" height="3.7"/><rect class="cls-11" x="888.3" y="755" width="3.7" height="3.7"/><rect class="cls-11" x="893.2" y="755" width="3.7" height="3.7"/><rect class="cls-11" x="832.3" y="689.2" width="1.2" height="69.5"/><rect class="cls-11" x="834.4" y="689.2" width="1.2" height="69.5"/><rect class="cls-11" x="836.4" y="689.2" width="1.2" height="69.5"/><rect class="cls-11" x="898.3" y="689.2" width="1.2" height="69.5"/><rect class="cls-11" x="900.4" y="689.2" width="1.2" height="69.5"/><rect class="cls-11" x="902.4" y="689.2" width="1.2" height="69.5"/><rect class="cls-12" x="849" y="610.9" width="1.4" height="16.2"/><path class="cls-9" d="M852,615.1c0,.8-1.1,1.4-2.4,1.4s-2.4-.6-2.4-1.4,1.1-1.4,2.4-1.4,2.4.6,2.4,1.4Z"/><rect class="cls-12" x="885.2" y="610.9" width="1.4" height="16.2"/><path class="cls-9" d="M888.3,615.1c0,.8-1.1,1.4-2.4,1.4s-2.4-.6-2.4-1.4,1.1-1.4,2.4-1.4,2.4.6,2.4,1.4Z"/><rect class="cls-12" x="834.6" y="654.3" width="1.4" height="16.2"/><path class="cls-9" d="M837.7,658.5c0,.8-1.1,1.4-2.4,1.4s-2.4-.6-2.4-1.4,1.1-1.4,2.4-1.4,2.4.6,2.4,1.4Z"/><rect class="cls-12" x="899.6" y="654.3" width="1.4" height="16.2"/><ellipse class="cls-9" cx="900.3" cy="658.5" rx="2.4" ry="1.4"/><rect class="cls-12" x="830.6" y="670.6" width="1.4" height="16.2"/><path class="cls-9" d="M833.7,674.8c0,.8-1.1,1.4-2.4,1.4s-2.4-.6-2.4-1.4,1.1-1.4,2.4-1.4,2.4.6,2.4,1.4Z"/><rect class="cls-12" x="903.7" y="670.6" width="1.4" height="16.2"/><ellipse class="cls-9" cx="904.4" cy="674.8" rx="2.4" ry="1.4"/><rect class="cls-10" x="834.2" y="761.3" width="67.4" height="181.7"/><rect class="cls-11" x="834.2" y="761.3" width="67.4" height="3"/><polygon class="cls-11" points="898.5 806.9 898.5 765.6 895.4 765.6 895.4 806.9 892.7 806.9 892.7 765.6 889.6 765.6 889.6 806.9 886.8 806.9 886.8 765.6 883.8 765.6 883.8 806.9 881 806.9 881 765.6 878 765.6 878 806.9 875.2 806.9 875.2 765.6 872.1 765.6 872.1 806.9 869.4 806.9 869.4 765.6 866.3 765.6 866.3 806.9 863.6 806.9 863.6 765.6 860.5 765.6 860.5 806.9 857.7 806.9 857.7 765.6 854.7 765.6 854.7 806.9 851.9 806.9 851.9 765.6 848.8 765.6 848.8 806.9 846.1 806.9 846.1 765.6 843 765.6 843 806.9 840.3 806.9 840.3 765.6 837.2 765.6 837.2 806.9 834.2 806.9 834.2 809.4 901.5 809.4 901.5 806.9 898.5 806.9"/><polygon class="cls-11" points="898.5 852.3 898.5 811 895.4 811 895.4 852.3 892.7 852.3 892.7 811 889.6 811 889.6 852.3 886.8 852.3 886.8 811 883.8 811 883.8 852.3 881 852.3 881 811 878 811 878 852.3 875.2 852.3 875.2 811 872.1 811 872.1 852.3 869.4 852.3 869.4 811 866.3 811 866.3 852.3 863.6 852.3 863.6 811 860.5 811 860.5 852.3 857.7 852.3 857.7 811 854.7 811 854.7 852.3 851.9 852.3 851.9 811 848.8 811 848.8 852.3 846.1 852.3 846.1 811 843 811 843 852.3 840.3 852.3 840.3 811 837.2 811 837.2 852.3 834.2 852.3 834.2 854.7 901.5 854.7 901.5 852.3 898.5 852.3"/><polygon class="cls-11" points="898.5 897.7 898.5 856.3 895.4 856.3 895.4 897.7 892.7 897.7 892.7 856.3 889.6 856.3 889.6 897.7 886.8 897.7 886.8 856.3 883.8 856.3 883.8 897.7 881 897.7 881 856.3 878 856.3 878 897.7 875.2 897.7 875.2 856.3 872.1 856.3 872.1 897.7 869.4 897.7 869.4 856.3 866.3 856.3 866.3 897.7 863.6 897.7 863.6 856.3 860.5 856.3 860.5 897.7 857.7 897.7 857.7 856.3 854.7 856.3 854.7 897.7 851.9 897.7 851.9 856.3 848.8 856.3 848.8 897.7 846.1 897.7 846.1 856.3 843 856.3 843 897.7 840.3 897.7 840.3 856.3 837.2 856.3 837.2 897.7 834.2 897.7 834.2 900.1 901.5 900.1 901.5 897.7 898.5 897.7"/><polygon class="cls-11" points="898.5 943 898.5 901.7 895.4 901.7 895.4 943 892.7 943 892.7 901.7 889.6 901.7 889.6 943 886.8 943 886.8 901.7 883.8 901.7 883.8 943 881 943 881 901.7 878 901.7 878 943 875.2 943 875.2 901.7 872.1 901.7 872.1 943 869.4 943 869.4 901.7 866.3 901.7 866.3 943 863.6 943 863.6 901.7 860.5 901.7 860.5 943 857.7 943 857.7 901.7 854.7 901.7 854.7 943 851.9 943 851.9 901.7 848.8 901.7 848.8 943 846.1 943 846.1 901.7 843 901.7 843 943 840.3 943 840.3 901.7 837.2 901.7 837.2 943 834.2 943 834.2 945.5 901.5 945.5 901.5 943 898.5 943"/><rect class="cls-11" x="828.9" y="943" width="77.8" height="50.6"/><polygon class="cls-9" points="895.1 670.5 840.5 670.5 852.4 642.9 883.2 642.9 895.1 670.5"/><polygon class="cls-8" points="899.3 667.6 897.7 670.5 896.7 670.5 895.1 667.6 893.5 670.5 892.5 670.5 890.9 667.6 889.3 670.5 888.3 670.5 886.7 667.6 885.1 670.5 884.1 670.5 882.5 667.6 880.9 670.5 879.9 670.5 878.3 667.6 876.7 670.5 875.7 670.5 874.1 667.6 872.5 670.5 871.5 670.5 869.9 667.6 868.3 670.5 867.3 670.5 865.7 667.6 864 670.5 863.1 670.5 861.5 667.6 859.8 670.5 858.8 670.5 857.2 667.6 855.6 670.5 854.6 670.5 853 667.6 851.4 670.5 850.4 670.5 848.8 667.6 847.2 670.5 846.2 670.5 844.6 667.6 843 670.5 842 670.5 840.4 667.6 838.8 670.5 837.8 670.5 836.2 667.6 834.6 670.5 834.6 686.8 901 686.8 901 670.5 899.3 667.6"/><rect class="cls-7" x="837.9" y="674.2" width="7.7" height="10.1"/><rect class="cls-7" x="848.3" y="674.2" width="7.7" height="10.1"/><rect class="cls-7" x="858.8" y="674.2" width="7.7" height="10.1"/><rect class="cls-7" x="869.2" y="674.2" width="7.7" height="10.1"/><rect class="cls-7" x="879.7" y="674.2" width="7.7" height="10.1"/><rect class="cls-7" x="890.1" y="674.2" width="7.7" height="10.1"/><polygon class="cls-9" points="883.5 627.1 852 627.1 867.8 581.9 883.5 627.1"/><polygon class="cls-8" points="885.7 624.3 884.8 627.1 884.2 627.1 883.3 624.3 882.4 627.1 881.8 627.1 880.9 624.3 880 627.1 879.4 627.1 878.5 624.3 877.6 627.1 877 627.1 876.1 624.3 875.2 627.1 874.7 627.1 873.7 624.3 872.8 627.1 872.3 627.1 871.3 624.3 870.4 627.1 869.9 627.1 869 624.3 868 627.1 867.5 627.1 866.6 624.3 865.7 627.1 865.1 627.1 864.2 624.3 863.3 627.1 862.7 627.1 861.8 624.3 860.9 627.1 860.3 627.1 859.4 624.3 858.5 627.1 857.9 627.1 857 624.3 856.1 627.1 855.5 627.1 854.6 624.3 853.7 627.1 853.2 627.1 852.2 624.3 851.3 627.1 850.8 627.1 849.9 624.3 849 627.1 849 642.9 886.6 642.9 886.6 627.1 885.7 624.3"/><rect class="cls-12" x="865" y="630" width="5.7" height="10.1"/><rect class="cls-12" x="858" y="630" width="5.7" height="10.1"/><rect class="cls-12" x="851.1" y="630" width="5.7" height="10.1"/><rect class="cls-12" x="878.9" y="630" width="5.7" height="10.1"/><rect class="cls-12" x="871.9" y="630" width="5.7" height="10.1"/><rect class="cls-12" x="864.7" y="577.9" width="6.2" height="4"/></svg>