<?xml version="1.0" encoding="UTF-8"?><svg id="_07" xmlns="http://www.w3.org/2000/svg" xmlns:xlink="http://www.w3.org/1999/xlink" viewBox="0 0 1920 1080"><defs><style>.cls-1{fill:url(#linear-gradient-2);}.cls-2{fill:url(#linear-gradient-10);}.cls-3{fill:url(#linear-gradient-12);}.cls-4{fill:url(#linear-gradient-4);}.cls-5{fill:#f16829;}.cls-6{fill:url(#linear-gradient-3);}.cls-7{fill:url(#linear-gradient-5);}.cls-8{fill:url(#linear-gradient-8);}.cls-9{fill:#ffb440;}.cls-10{fill:url(#linear-gradient-7);}.cls-11{fill:url(#linear-gradient-9);}.cls-12{fill:url(#linear-gradient-11);}.cls-13{fill:#ffcc40;}.cls-14{fill:url(#linear-gradient-6);}.cls-15{fill:url(#linear-gradient);}</style><linearGradient id="linear-gradient" x1="1251.8" y1="373.3" x2="1248.2" y2="95.2" gradientTransform="translate(0 1077.9) scale(1 -1)" gradientUnits="userSpaceOnUse"><stop offset="0" stop-color="#ff7000"/><stop offset="1" stop-color="#ffa92a"/></linearGradient><linearGradient id="linear-gradient-2" x1="1112.6" y1="375.1" x2="1109" y2="96.9" xlink:href="#linear-gradient"/><linearGradient id="linear-gradient-3" x1="1112.6" y1="375.1" x2="1109" y2="96.9" xlink:href="#linear-gradient"/><linearGradient id="linear-gradient-4" x1="1112.6" y1="375.1" x2="1109" y2="96.9" gradientTransform="translate(0 1077.9) scale(1 -1)" gradientUnits="userSpaceOnUse"><stop offset="0" stop-color="#d37d00"/><stop offset="1" stop-color="#ab6200"/><stop offset="1" stop-color="#aa6200"/></linearGradient><linearGradient id="linear-gradient-5" x1="1372.6" y1="272.7" x2="1369.9" y2="69.1" xlink:href="#linear-gradient"/><linearGradient id="linear-gradient-6" x1="1261.6" y1="274.1" x2="1259" y2="70.4" xlink:href="#linear-gradient"/><linearGradient id="linear-gradient-7" x1="1261.6" y1="274.1" x2="1259" y2="70.4" xlink:href="#linear-gradient"/><linearGradient id="linear-gradient-8" x1="1261.6" y1="274.1" x2="1259" y2="70.4" xlink:href="#linear-gradient-4"/><linearGradient id="linear-gradient-9" x1="1043.5" y1="232.8" x2="1041.4" y2="75" xlink:href="#linear-gradient"/><linearGradient id="linear-gradient-10" x1="967" y1="233.8" x2="964.9" y2="76" xlink:href="#linear-gradient"/><linearGradient id="linear-gradient-11" x1="967" y1="233.8" x2="964.9" y2="76" xlink:href="#linear-gradient"/><linearGradient id="linear-gradient-12" x1="967" y1="233.8" x2="964.9" y2="76" xlink:href="#linear-gradient-4"/></defs><path class="cls-15" d="M1287.8,844.7l-88.5-140.8,21.5,34.2s-2.3.2-5.5-.4c-3.2-.6-5.8-4.8-7.8-4-2,.8-3.5,10.7-9.3,12.8s-5.1-6.3-8.6-8.1l-69.7,247.1h256.4l-88.5-140.8h0Z"/><rect class="cls-5" x="1215.9" y="791.6" width="15.6" height="2.9" rx=".2" ry=".2"/><rect class="cls-5" x="1187.5" y="859.1" width="15.6" height="2.9" rx=".2" ry=".2"/><rect class="cls-5" x="1178.6" y="864.5" width="15.6" height="2.9" rx=".2" ry=".2"/><rect class="cls-5" x="1187.5" y="870" width="15.6" height="2.9" rx=".2" ry=".2"/><rect class="cls-5" x="1273.6" y="919.7" width="15.6" height="2.9" rx=".2" ry=".2"/><rect class="cls-5" x="1265.1" y="926" width="15.6" height="2.9" rx=".2" ry=".2"/><rect class="cls-5" x="1256.2" y="931.4" width="15.6" height="2.9" rx=".2" ry=".2"/><polygon class="cls-1" points="1110.8 844.7 1022.2 985.5 1199.3 703.9 1110.8 844.7"/><path class="cls-6" d="M1189.6,738.4c-3.6-1.8-8.2,9.5-9.8,7.9s.9-7,0-6c-.9,1-5.6,3.5-5.6,3.5l25.1-39.9-177,281.6h97.7l69.7-247.1h0Z"/><path class="cls-4" d="M1189.6,738.4c-3.6-1.8-8.2,9.5-9.8,7.9s.9-7,0-6c-.9,1-5.6,3.5-5.6,3.5l25.1-39.9-177,281.6h97.7l69.7-247.1h0Z"/><path class="cls-13" d="M1198.2,746.5c5.8-2.1,7.3-12,9.3-12.8,2-.8,4.6,3.4,7.8,4,3.2.6,5.5.4,5.5.4l-21.5-34.2-9.7,34.5c3.6,1.8,2.8,10.2,8.6,8.1h0Z"/><path class="cls-9" d="M1179.8,740.3c.9-1-1.6,4.4,0,6s6.2-9.7,9.8-7.9h0l9.7-34.5-25.1,39.9s4.7-2.5,5.6-3.5h0Z"/><path class="cls-7" d="M1401.6,907.7l-70.7-103.1,17.2,25s-1.8.1-4.4-.3c-2.6-.4-4.6-3.5-6.2-2.9s-2.8,7.8-7.4,9.3-4.1-4.6-6.9-5.9l-55.6,180.9h204.7l-70.7-103.1h0Z"/><rect class="cls-5" x="1344.2" y="868.8" width="12.4" height="2.1" rx=".2" ry=".2"/><rect class="cls-5" x="1321.5" y="918.2" width="12.4" height="2.1" rx=".2" ry=".2"/><rect class="cls-5" x="1314.4" y="922.2" width="12.4" height="2.1" rx=".2" ry=".2"/><rect class="cls-5" x="1321.5" y="926.2" width="12.4" height="2.1" rx=".2" ry=".2"/><rect class="cls-5" x="1390.3" y="962.6" width="12.4" height="2.1" rx=".2" ry=".2"/><rect class="cls-5" x="1383.4" y="967.2" width="12.4" height="2.1" rx=".2" ry=".2"/><rect class="cls-5" x="1376.3" y="971.2" width="12.4" height="2.1" rx=".2" ry=".2"/><polygon class="cls-14" points="1260.3 907.7 1189.6 1010.8 1330.9 804.7 1260.3 907.7"/><path class="cls-10" d="M1323.2,829.9c-2.8-1.3-6.5,7-7.8,5.8-1.3-1.2.7-5.2,0-4.4-.7.8-4.4,2.5-4.4,2.5l20-29.2-141.3,206.1h77.9l55.6-180.9h0Z"/><path class="cls-8" d="M1323.2,829.9c-2.8-1.3-6.5,7-7.8,5.8-1.3-1.2.7-5.2,0-4.4-.7.8-4.4,2.5-4.4,2.5l20-29.2-141.3,206.1h77.9l55.6-180.9h0Z"/><path class="cls-13" d="M1330.1,835.8c4.6-1.5,5.8-8.8,7.4-9.3,1.6-.6,3.7,2.5,6.2,2.9s4.4.3,4.4.3l-17.2-25-7.8,25.2c2.8,1.3,2.2,7.4,6.9,5.9h0Z"/><path class="cls-9" d="M1315.3,831.3c.7-.8-1.3,3.2,0,4.4,1.3,1.2,5-7.1,7.8-5.8h0l7.8-25.2-20,29.2s3.7-1.8,4.4-2.5h0Z"/><path class="cls-11" d="M1063.2,924.6l-48.7-79.9,11.8,19.4s-1.3,0-3-.2c-1.8-.3-3.2-2.7-4.3-2.3s-1.9,6.1-5.1,7.2c-3.2,1.2-2.8-3.6-4.8-4.6l-38.3,140.2h140.9l-48.7-79.9h0Z"/><rect class="cls-5" x="1023.7" y="894.5" width="8.5" height="1.6" rx=".1" ry=".1"/><rect class="cls-5" x="1008" y="932.8" width="8.5" height="1.6" rx=".1" ry=".1"/><rect class="cls-5" x="1003.2" y="935.9" width="8.5" height="1.6" rx=".1" ry=".1"/><rect class="cls-5" x="1008" y="939" width="8.5" height="1.6" rx=".1" ry=".1"/><rect class="cls-5" x="1055.4" y="967.1" width="8.6" height="1.6" rx=".1" ry=".1"/><rect class="cls-5" x="1050.7" y="970.7" width="8.6" height="1.6" rx=".1" ry=".1"/><rect class="cls-5" x="1045.8" y="973.8" width="8.6" height="1.6" rx=".1" ry=".1"/><polygon class="cls-2" points="965.9 924.6 917.3 1004.5 1014.5 844.7 965.9 924.6"/><path class="cls-12" d="M1009.2,864.3c-2-1-4.5,5.4-5.4,4.5s.5-4,0-3.4-3,2-3,2l13.8-22.6-97.3,159.8h53.7l38.3-140.2h0Z"/><path class="cls-3" d="M1009.2,864.3c-2-1-4.5,5.4-5.4,4.5s.5-4,0-3.4-3,2-3,2l13.8-22.6-97.3,159.8h53.7l38.3-140.2h0Z"/><path class="cls-13" d="M1014,868.9c3.2-1.2,4-6.8,5.1-7.2,1.1-.5,2.5,1.9,4.3,2.3,1.8.3,3,.2,3,.2l-11.8-19.4-5.3,19.6c2,1,1.5,5.8,4.8,4.6h0Z"/><path class="cls-9" d="M1003.8,865.4c.5-.6-.9,2.5,0,3.4.9.9,3.4-5.5,5.4-4.5h0l5.3-19.6-13.8,22.6s2.6-1.4,3-2Z"/></svg>