<?xml version="1.0" encoding="UTF-8"?><svg id="_08" xmlns="http://www.w3.org/2000/svg" viewBox="0 0 1920 1080"><defs><style>.cls-1{fill:#fbc64a;}.cls-2{fill:#fee063;}.cls-3{fill:#b68b53;}.cls-4{fill:#b78c53;}.cls-5{fill:#fef87c;}.cls-6{fill:#fdfe86;}.cls-7{fill:#d8b662;}.cls-8{fill:#c29354;}.cls-9{fill:#fefd87;}.cls-10{fill:#fbe161;}.cls-11{fill:#fef77a;}.cls-12{fill:#fef77b;}.cls-13{fill:#e2ae50;}.cls-14{fill:#fde86c;}.cls-15{fill:#fdf87a;}.cls-16{fill:#fdd75d;}.cls-17{fill:#b78b53;}.cls-18{fill:#8f6b5b;}.cls-19{fill:#9c7355;}</style></defs><path class="cls-4" d="M1051.1,794.1h-50.8c4.4-22.4,7.8-44.1,10.2-66.8,0-.6.1-1.2.2-1.8.3-2.9.6-5.9.9-8.8,0-.6.1-1.2.2-1.8.2-2.7.5-5.4.7-8.2,0-.6,0-1.2.2-1.8.2-2.8.4-5.6.6-8.5,0-.6,0-1.2.1-1.8.2-2.8.3-5.5.5-8.3,0-.6,0-1.2,0-1.8,1-18.1,1.4-37.4,1.4-58.4h20.9c0,21,.5,40.3,1.4,58.4h0c0,.6,0,1.2,0,1.8h0c.2,2.8.3,5.6.5,8.3h0c0,.6,0,1.2.1,1.8h0c.2,2.8.4,5.7.6,8.5h0c0,.6,0,1.2.2,1.8h0c.2,2.7.4,5.5.7,8.2h0c0,.6.1,1.2.2,1.8h0c.3,3,.6,5.9.9,8.8h0c0,.6.1,1.2.2,1.8,2.4,22.7,5.8,44.4,10.2,66.8h0Z"/><path class="cls-4" d="M1017.4,804.8c-.8,6.9-1.8,13.9-3,20.9-2.2,13.1-5,26.4-8.3,39.6v.2c.1,0,0,.1,0,.1-1.5,6.1-3.2,12.1-5,18.2-2.9,9.8-6.1,19.5-9.5,29-1.7,4.8-3.5,9.5-5.3,14.2-8.3,20.9-17.8,40.8-28.3,58.8h-33.2c3-4.3,16.6-24.6,32.3-58.8,2.1-4.5,4.2-9.2,6.3-14.2,6.5-15.2,13.2-32.6,19.6-52.1h0s0,0,0,0c5.6-17.1,10.8-35.7,15.4-55.9h19.1Z"/><path class="cls-4" d="M1093.6,985.8c-10.5-18-20-37.9-28.3-58.8-1.8-4.7-3.6-9.4-5.3-14.2-5.6-15.4-10.4-31.2-14.5-47.2h-.2c0-.1.1-.3.1-.3h0c-5.1-20.3-9-40.7-11.3-60.5h19.1c4.6,20.2,9.9,38.8,15.4,55.9h0s0,0,0,0c6.3,19.5,13,36.9,19.6,52.1,2.1,5,4.2,9.7,6.3,14.2,15.8,34.2,29.3,54.5,32.3,58.8h-33.3Z"/><path class="cls-11" d="M1085.2,887.8h-119c-1.1,0-2.1-.9-2.1-2.1h0c0-1.1.9-2.1,2.1-2.1h119c1.1,0,2.1.9,2.1,2.1h0c0,1.1-.9,2.1-2.1,2.1Z"/><path class="cls-19" d="M1085.2,912.8h-119c-1.1,0-2.1-.9-2.1-2.1h0c0-1.1.9-2.1,2.1-2.1h119c1.1,0,2.1.9,2.1,2.1h0c0,1.1-.9,2.1-2.1,2.1Z"/><path class="cls-11" d="M1087.2,908.7h-123c-1.1,0-2.1-.9-2.1-2.1h0c0-1.1.9-2.1,2.1-2.1h123c1.1,0,2.1.9,2.1,2.1h0c0,1.1-.9,2.1-2.1,2.1Z"/><path class="cls-14" d="M1065.3,927h-79.1c1.8-4.7,3.6-9.4,5.3-14.2h68.4c1.7,4.8,3.5,9.5,5.3,14.2Z"/><path class="cls-16" d="M991.5,912.8c-1.7,4.8-3.5,9.5-5.3,14.2h-29.2c2.1-4.5,4.2-9.2,6.3-14.2h28.3,0Z"/><path class="cls-16" d="M1094.5,927h-29.2c-1.8-4.7-3.6-9.4-5.3-14.2h28.3c2.1,5,4.2,9.7,6.3,14.2h0Z"/><rect class="cls-8" x="965" y="887.5" width="121.3" height="17.1"/><path class="cls-18" d="M1023.9,891.1h3.5c.3,0,.5.2.5.5v9.2c0,.3-.2.5-.5.5h-3.5c-.3,0-.5-.2-.5-.5v-9.2c0-.3.2-.5.5-.5h0Z"/><path class="cls-18" d="M1033,891.1h3.5c.3,0,.5.2.5.5v9.2c0,.3-.2.5-.5.5h-3.5c-.3,0-.5-.2-.5-.5v-9.2c0-.3.2-.5.5-.5Z"/><path class="cls-18" d="M1041.9,891.2h3.5c.3,0,.5.2.5.5v9.2c0,.3-.2.5-.5.5h-3.5c-.3,0-.5-.2-.5-.5v-9.2c0-.3.2-.5.5-.5Z"/><path class="cls-18" d="M1051,891.2h3.5c.3,0,.5.2.5.5v9.2c0,.3-.2.5-.5.5h-3.5c-.3,0-.5-.2-.5-.5v-9.2c0-.3.2-.5.5-.5Z"/><path class="cls-18" d="M1060.1,891.2h3.5c.3,0,.5.2.5.5v9.2c0,.3-.2.5-.5.5h-3.5c-.3,0-.5-.2-.5-.5v-9.2c0-.3.2-.5.5-.5Z"/><path class="cls-18" d="M1069.2,891.2h3.5c.3,0,.5.2.5.5v9.2c0,.3-.2.5-.5.5h-3.5c-.3,0-.5-.2-.5-.5v-9.2c0-.3.2-.5.5-.5Z"/><path class="cls-18" d="M1078.3,891.2h3.5c.3,0,.5.2.5.5v9.2c0,.3-.2.5-.5.5h-3.5c-.3,0-.5-.2-.5-.5v-9.2c0-.3.2-.5.5-.5Z"/><path class="cls-18" d="M969.4,891.1h3.5c.3,0,.5.2.5.5v9.2c0,.3-.2.5-.5.5h-3.5c-.3,0-.5-.2-.5-.5v-9.2c0-.3.2-.5.5-.5Z"/><path class="cls-18" d="M978.5,891.1h3.5c.3,0,.5.2.5.5v9.2c0,.3-.2.5-.5.5h-3.5c-.3,0-.5-.2-.5-.5v-9.2c0-.3.2-.5.5-.5Z"/><path class="cls-18" d="M987.6,891.1h3.5c.3,0,.5.2.5.5v9.2c0,.3-.2.5-.5.5h-3.5c-.3,0-.5-.2-.5-.5v-9.2c0-.3.2-.5.5-.5Z"/><path class="cls-18" d="M996.7,891.1h3.5c.3,0,.5.2.5.5v9.2c0,.3-.2.5-.5.5h-3.5c-.3,0-.5-.2-.5-.5v-9.2c0-.3.2-.5.5-.5Z"/><path class="cls-18" d="M1005.7,891.1h3.5c.3,0,.5.2.5.5v9.2c0,.3-.2.5-.5.5h-3.5c-.3,0-.5-.2-.5-.5v-9.2c0-.3.2-.5.5-.5Z"/><path class="cls-18" d="M1014.8,891.1h3.5c.3,0,.5.2.5.5v9.2c0,.3-.2.5-.5.5h-3.5c-.3,0-.5-.2-.5-.5v-9.2c0-.3.2-.5.5-.5Z"/><path class="cls-7" d="M1024.1,914.8h3.5c.3,0,.5.2.5.5v9.2c0,.3-.2.5-.5.5h-3.5c-.3,0-.5-.2-.5-.5v-9.2c0-.3.2-.5.5-.5Z"/><path class="cls-7" d="M1033.9,914.8h3.5c.3,0,.5.2.5.5v9.2c0,.3-.2.5-.5.5h-3.5c-.3,0-.5-.2-.5-.5v-9.2c0-.3.2-.5.5-.5Z"/><path class="cls-7" d="M1043.7,914.8h3.5c.3,0,.5.2.5.5v9.2c0,.3-.2.5-.5.5h-3.5c-.3,0-.5-.2-.5-.5v-9.2c0-.3.2-.5.5-.5Z"/><path class="cls-7" d="M1053.4,914.8h3.5c.3,0,.5.2.5.5v9.2c0,.3-.2.5-.5.5h-3.5c-.3,0-.5-.2-.5-.5v-9.2c0-.3.2-.5.5-.5Z"/><path class="cls-7" d="M1063.2,914.8h3.5c.3,0,.5.2.5.5v9.2c0,.3-.2.5-.5.5h-3.5c-.3,0-.5-.2-.5-.5v-9.2c0-.3.2-.5.5-.5Z"/><path class="cls-7" d="M1073,914.8h3.5c.3,0,.5.2.5.5v9.2c0,.3-.2.5-.5.5h-3.5c-.3,0-.5-.2-.5-.5v-9.2c0-.3.2-.5.5-.5Z"/><path class="cls-7" d="M1082.8,914.8h3.5c.3,0,.5.2.5.5v9.2c0,.3-.2.5-.5.5h-3.5c-.3,0-.5-.2-.5-.5v-9.2c0-.3.2-.5.5-.5Z"/><path class="cls-7" d="M965.4,914.8h3.5c.3,0,.5.2.5.5v9.2c0,.3-.2.5-.5.5h-3.5c-.3,0-.5-.2-.5-.5v-9.2c0-.3.2-.5.5-.5Z"/><path class="cls-7" d="M975.2,914.8h3.5c.3,0,.5.2.5.5v9.2c0,.3-.2.5-.5.5h-3.5c-.3,0-.5-.2-.5-.5v-9.2c0-.3.2-.5.5-.5Z"/><path class="cls-7" d="M985,914.8h3.5c.3,0,.5.2.5.5v9.2c0,.3-.2.5-.5.5h-3.5c-.3,0-.5-.2-.5-.5v-9.2c0-.3.2-.5.5-.5Z"/><path class="cls-7" d="M994.8,914.8h3.5c.3,0,.5.2.5.5v9.2c0,.3-.2.5-.5.5h-3.5c-.3,0-.5-.2-.5-.5v-9.2c0-.3.2-.5.5-.5Z"/><path class="cls-7" d="M1004.5,914.8h3.5c.3,0,.5.2.5.5v9.2c0,.3-.2.5-.5.5h-3.5c-.3,0-.5-.2-.5-.5v-9.2c0-.3.2-.5.5-.5Z"/><path class="cls-7" d="M1014.3,914.8h3.5c.3,0,.5.2.5.5v9.2c0,.3-.2.5-.5.5h-3.5c-.3,0-.5-.2-.5-.5v-9.2c0-.3.2-.5.5-.5Z"/><path class="cls-2" d="M1093.6,985.8h-9.8s-9.3-53.4-58.1-53.4-58,53.4-58,53.4h-9.8c10.5-18,20-37.9,28.3-58.8h79.1c8.3,20.9,17.8,40.8,28.3,58.8h0Z"/><path class="cls-4" d="M980.5,949.4h0l9.6-19.2h22.8c-17,2.6-27.5,12.8-32.5,19.2h0Z"/><path class="cls-4" d="M1038.5,930.2h22.6l9.8,19.2c-5-6.4-15.5-16.5-32.5-19.2Z"/><path class="cls-4" d="M1025.8,932.4h0c-48.7,0-58,53.4-58,53.4h11.5s7.7-37.3,46.5-37.3,46.5,37.3,46.5,37.3h11.5s-9.3-53.4-58-53.4Z"/><path class="cls-1" d="M1110.7,959.1c-4.8-8.7-10.3-19.5-16.2-32.1h-5.5l-4,6.6c-1.2-2.6-2.1-4.8-2.8-6.6h-3.3c.8,2,2.1,5,3.8,8.5l-11.6-6.3h0c-.3-.8-.6-1.5-.9-2.3h-4.9c4.4,11,9.1,21.8,14.1,32.1,4.5,9.3,9.2,18.2,14.2,26.7h5.3c-.6-1-1.2-2-1.8-3l5.1-8.2c2.8,5.3,4.9,9.4,5.9,11.2h3.6c-1-1.7-2.8-5-5-9.2l11.3,5.5c.9,1.5,1.7,2.7,2.4,3.7h6.4c-1.9-2.7-8-11.8-16.2-26.7h0ZM1104.2,957.6l-8.5-3.2,4-5.7c1.6,3.2,3.1,6.1,4.5,8.9ZM1093.9,952.1c-1.7-3.4-3.4-6.8-4.9-10l8.7,4.7-3.7,5.3h0ZM1090.7,929.6c2.2,4.9,4.3,9.4,6.4,13.7l-10.1-5.5c-.2-.4-.4-.8-.6-1.2l4.2-7.1h0ZM1084.6,939.7h0c1.9,4,4.1,8.4,6.3,12.9l-11.5-4.4,5.1-8.5h0ZM1078,945.3c-1.8-4-3.5-8-5.2-12.1h0l9.4,5.1-4.2,7h0ZM1084.5,959.1c-1.2-2.5-2.4-4.9-3.6-7.4h0l10.5,4-2.4,3.4-2.7,3.8c-.6-1.3-1.3-2.5-1.9-3.8h0ZM1095.6,980c-2.2-3.9-4.4-7.9-6.5-12l10.8,5.2-4.2,6.8h0ZM1088.4,964.7l3.9-5.7,1.1-1.6c.3.5.5,1,.8,1.6,2,3.9,3.9,7.8,5.8,11.2l-11.6-5.6ZM1097.5,959.1c-.2-.5-.5-.9-.7-1.4l3.6,1.4,5.8,2.2c.2.3.4.7.5,1l-4.1,6.5c-1.6-3.1-3.3-6.4-5.1-9.8h0ZM1104.5,972.5c-.2-.3-.3-.6-.5-.9l4.1-6.6c2.7,5,5.2,9.2,7.2,12.7l-10.9-5.3h0Z"/><path class="cls-1" d="M981.3,927c-.3.8-.6,1.5-.9,2.3l-11.5,6.2c1.6-3.5,2.9-6.5,3.7-8.5h-3.3c-.7,1.8-1.6,4-2.8,6.6l-3.9-6.6h-5.5c-5.8,12.6-11.4,23.4-16.2,32.1-8.2,14.9-14.3,24-16.2,26.7h6.4c.7-1,1.5-2.2,2.4-3.7l11.4-5.5c-2.2,4.2-4,7.5-5,9.2h3.7c1-1.7,3.1-5.8,5.9-11.1l5,8h0c-.6,1-1.2,2-1.8,3h5.3c5-8.5,9.7-17.4,14.2-26.7,5-10.3,9.7-21.1,14.1-32.1h-5ZM966.8,939.7h0s5.1,8.5,5.1,8.5l-11.4,4.3c2.2-4.5,4.4-8.9,6.2-12.8h0ZM960.8,929.6l4.2,7.1c-.2.4-.4.8-.5,1.2l-10.1,5.5c2.1-4.3,4.2-8.9,6.4-13.7ZM962.5,942c-1.5,3.2-3.2,6.6-5,10l-3.7-5.3,8.7-4.7h0ZM951.8,948.7l4,5.7-8.5,3.2c1.5-2.8,3-5.8,4.5-8.9ZM947,972.5l-11,5.3c2.1-3.5,4.5-7.7,7.2-12.7l4.1,6.6c-.1.3-.3.5-.4.8h0ZM948.9,968.9l-4.1-6.6c.2-.3.4-.7.5-1l5.7-2.2,3.6-1.4c-.2.5-.5.9-.7,1.4-1.7,3.4-3.5,6.7-5.1,9.8h0ZM955.9,980l-4.2-6.8,10.8-5.2c-2.1,4.1-4.3,8.1-6.5,12h0ZM951.6,970.2c1.8-3.5,3.7-7.3,5.7-11.2.2-.5.5-1,.7-1.5l1,1.5,4,5.7-11.4,5.5h0ZM965.1,962.9l-2.7-3.8-2.4-3.4,10.5-4c-1.2,2.5-2.4,5-3.6,7.4-.6,1.3-1.3,2.5-1.9,3.8h0ZM973.5,945.3l-4.2-7,9.4-5.1c-1.7,4.1-3.4,8.1-5.2,12.1h0Z"/><path class="cls-10" d="M1068.6,860.7h0s0,0,0,0c-3.6-11-7-22.7-10.3-34.9-.2-.9-.5-1.7-.7-2.6-.6-2.3-1.2-4.7-1.8-7-1.1-4.4-2.2-8.9-3.2-13.5l-3.6.8c.3,1.3.6,2.5.9,3.8l-.6-.7-4.2,3.8-5.7-3.9-.5.7c-.1-1-.2-1.9-.4-2.9l-4.6.5c0,.8.2,1.6.3,2.4l-.4-.9-8.2,4-8.2-4-.4.8c0-.8.2-1.6.3-2.4l-4.5-.5c-.1,1-.2,1.9-.4,2.9l-.5-.7-5.7,3.9-4.2-3.8-.6.7c.3-1.3.6-2.5.9-3.8l-3.6-.8c-1,4.6-2.1,9.1-3.2,13.5-.6,2.4-1.2,4.7-1.8,7-.2.9-.5,1.7-.7,2.6-3.2,12.3-6.7,23.9-10.3,34.9h0s0,0,0,0c-2.6,8-5.3,15.7-8,23h4.3c.3-1,.7-1.9,1-2.9l8.2-4.8c-.8,2.4-1.8,5.3-2.7,7.7h3.6c1-3,1.9-6,2.8-9l4.7,7.1c-.2.7-.4,1.3-.6,2h4.8c1.8-6,3.4-12,5-18.1h.2c0-.1-.1-.3-.1-.3,3.4-13.2,6.2-26.5,8.3-39.6.2-.9.3-1.7.4-2.6.4-2.3.7-4.7,1.1-7l.4.8,1.7-.8,7.7-3.7,7.7,3.7,1.7.8.4-.8h0s0,0,0,0c.3,2.3.7,4.7,1.1,7,.1.9.3,1.7.4,2.6,2.2,13.1,5,26.4,8.3,39.6h0v.2c-.1,0,0,.1,0,.1h0c1.5,6,3.2,12.1,5,18.1h4.8c-.2-.7-.4-1.3-.6-2l4.7-7c.9,3.1,1.9,6.1,2.8,9h3.5c-.8-2.4-1.8-5.3-2.5-7.7l8.2,4.8c.3,1,.7,1.9,1,2.8h4.3c-2.7-7.3-5.4-15-8-23h0ZM1012.4,808.4c-.3,2.2-.6,4.4-.9,6.6l-3.8-3.4,4.7-3.2h0ZM1001.3,808.2l3.5,3.2-5,3.4c.5-2.2,1-4.4,1.6-6.6h0ZM997,825.7h4.6c-.5,2.1-.9,4.1-1.4,6.1l-3.4-5.4c0-.2.1-.5.2-.7ZM995.8,830.1l3.5,5.5c0,.1,0,.3-.1.4l-6.3,4.7h0c1-3.5,2-7.1,2.9-10.7ZM998.2,840.2c-.8,3.4-1.7,6.8-2.5,10.1l-3.8-5.4,6.3-4.7ZM990.8,848.1l3.9,5.6-6.8,4c1-3.1,2-6.3,2.9-9.6h0ZM989.6,872.1l-8,4.7c1.3-3.9,2.7-7.9,4-12l4.3,6.4c0,.3-.2.6-.3.9h0ZM990.9,867.8l-4.1-6.2,7-4.1c-1,3.5-1.9,7-2.9,10.3h0ZM997.9,878.3l-3.8-5.6,6.3-3.7c-.8,3.1-1.7,6.2-2.6,9.3ZM1001.4,865.1l-7.8,4.6h0c1.2-4.1,2.3-8.3,3.4-12.6l4.7,6.7c0,.4-.2.8-.3,1.3h0ZM1004.8,850.9c-.7,3.1-1.4,6.3-2.2,9.4l-4-5.8,6.2-3.7h0ZM1005.7,847.2h0l-7.2,4.2c1-4,2-8.2,3-12.4l4.4,7c0,.4-.2.7-.2,1.1h0ZM1006.7,842.2l-3.6-5.7,5.5-4.1c-.6,3.3-1.2,6.6-1.9,9.8h0ZM1009.3,828.4h0l-6.5,4.8c.6-2.5,1.2-5,1.7-7.6h5.2c-.2.9-.3,1.8-.5,2.7h0ZM997.7,823.1c.6-2.3,1.2-4.7,1.8-7l.5.8,1.1-.8,5.1-3.5,3.8,3.5.7.7.6-.7c-.3,2.3-.7,4.7-1.1,7h-12.6,0ZM1016.1,815c.3-2.3.6-4.6.9-6.9l6.6,3.2-7.5,3.7h0ZM1027.8,811.3l6.6-3.2c.3,2.3.6,4.6.9,6.9l-7.6-3.7h0ZM1063.6,857.7l-6.8-4,3.9-5.6c1,3.2,1.9,6.5,2.9,9.6h0ZM1055.8,850.3c-.8-3.3-1.7-6.7-2.6-10.1l6.3,4.7-3.8,5.4h0ZM1058.6,840.8l-6.3-4.7c0-.1,0-.3-.1-.4l3.5-5.5c1,3.6,1.9,7.2,2.9,10.7h0ZM1054.7,826.4l-3.4,5.4c-.5-2-.9-4-1.4-6.1h4.7c0,.2.1.5.2.7ZM1050.2,808.2c.5,2.2,1,4.4,1.6,6.6l-5-3.4,3.5-3.2h0ZM1043.8,811.6l-3.8,3.4c-.3-2.2-.6-4.4-.9-6.6l4.7,3.2ZM1040.2,816.1l.6.7.7-.7,3.8-3.5,5.1,3.5,1.1.8.5-.8c.6,2.4,1.2,4.7,1.8,7h-12.6c-.4-2.3-.7-4.7-1.1-7h0ZM1041.7,825.7h5.2c.6,2.5,1.2,5.1,1.7,7.6l-6.5-4.8c-.2-.9-.3-1.8-.5-2.7ZM1044.8,842.2c-.7-3.3-1.3-6.6-1.9-9.8l5.5,4.1-3.6,5.7h0ZM1045.6,846.1l4.4-7c1,4.2,2,8.3,3,12.4l-7.2-4.2h0c0-.4-.2-.8-.2-1.1h0ZM1046.6,850.9l6.2,3.7-4,5.8c-.8-3.1-1.5-6.3-2.2-9.4h0ZM1053.6,878.3c-.9-3.1-1.7-6.2-2.6-9.3l6.3,3.7-3.8,5.6ZM1050,865.1c-.1-.4-.2-.8-.3-1.3l4.7-6.7c1.1,4.3,2.2,8.5,3.4,12.6l-7.8-4.6ZM1057.7,857.4l7,4.1-4.1,6.2c-1-3.3-1.9-6.8-2.9-10.3h0ZM1061.9,872.1c0-.3-.2-.6-.3-.9l4.3-6.4c1.3,4.1,2.7,8.1,4,12l-8-4.7Z"/><path class="cls-4" d="M1045.5,865.6h-.2c0-.1.1-.3.1-.3-3.4-13.2-6.2-26.5-8.3-39.6h0c-.2-.9-2.6-17.7-2.7-18.5h-17.2c-.1.8-2.5,17.7-2.7,18.5-2.2,13.1-5,26.4-8.3,39.6v.2c.1,0,0,.1,0,.1-1.5,6.1-3.2,12.1-5,18.2h9.1s4.9-39.9,4.9-39.9h21.4l4.9,39.9h9.1c-1.8-6-3.4-12.1-5-18.2h0Z"/><rect class="cls-9" x="993.4" y="793.2" width="64.7" height="10.5" rx="1.1" ry="1.1"/><rect class="cls-17" x="993.4" y="796.6" width="64.7" height="10.5" rx="1.1" ry="1.1"/><path class="cls-15" d="M1046.7,769.7h0c-.1-.8-.3-1.5-.4-2.3-.4-2.7-.9-5.4-1.3-8.1h0c-.1-.7-.2-1.4-.3-2.1-.4-2.9-.8-5.8-1.2-8.8h0c-.1-.8-.2-1.5-.3-2.3-.4-2.7-.7-5.5-1.1-8.2h0c0-.2,0-.4,0-.7-.4-3.5-.8-7.1-1.2-10.6,0-.4,0-.8-.1-1.2h0c-.3-2.9-.6-5.9-.9-8.8h0c0-.5-.1-1.1-.2-1.6-.6-6.6-1.1-13.3-1.6-20.2,0,0,0-.2,0-.3-.4-6-.7-12.1-1-18.4h0c0-.6,0-1.2,0-1.8h0c-.1-2.9-.2-5.8-.3-8.7h0c0-.6,0-1.2,0-1.8h0c0-2.8-.2-5.7-.2-8.5h0c0-.6,0-1.2,0-1.8h0c0-2.9-.1-5.8-.2-8.8,0-.5,0-1,0-1.5h0c0-2.8,0-5.7,0-8.5h0c0-.4,0-.7,0-1.1,0-2.5,0-5,0-7.6h-3.2l-2.4,2.6-2.5-2.6h-.9c0,0-.5,0-.5,0h0c0,0-1.8,0-1.8,0h0c0,0-.5.1-.5.1h0c0,0-.8,0-.8,0l-2.5,2.6-2.4-2.6h-3.2c0,5.9,0,11.6-.1,17.2h0c0,3.7-.1,7.4-.2,10.9,0,.4,0,.8,0,1.2h0c0,2.9-.2,5.8-.2,8.7,0,.6,0,1.1,0,1.7h0c0,2.9-.2,5.8-.3,8.7h0c0,.6,0,1.2,0,1.8h0c-.3,6.3-.6,12.4-1,18.4,0,0,0,.2,0,.3-.5,6.9-1,13.6-1.6,20.2,0,.5,0,1.1-.2,1.6-.3,3-.5,5.9-.9,8.8,0,.4,0,.8-.1,1.2-.4,3.6-.8,7.1-1.2,10.6,0,.2,0,.4,0,.7-.3,2.7-.7,5.5-1,8.2,0,.8-.2,1.5-.3,2.3-.4,2.9-.8,5.9-1.2,8.8,0,.7-.2,1.4-.3,2.1h0c-.4,2.7-.8,5.4-1.3,8.1-.1.8-.2,1.5-.4,2.3h0c-1.3,8.1-2.8,16.2-4.4,24.4l3.2.4c0-.1,0-.2,0-.3l7.2-5.9,5.7,6.2c0,.2,0,.3,0,.3h.3s.2.3.2.3l.2-.2h1.5s0-.5.1-1.1l.4.4,6.6-6,6.6,6,.4-.4c0,.7,0,1.1.1,1.3h1.5c0-.1.2,0,.2,0l.2-.2h.3s0-.2,0-.4l5.7-6.2,7.2,5.9c0,.1,0,.2,0,.3l3.2-.4c-1.6-8.2-3.1-16.3-4.4-24.4h.1ZM1044.8,779.3h-9.7l4.1-4,5.6,4ZM1019.6,755.8l-3.1-3.1,3.6-3c-.2,2-.3,4-.5,6.1h0ZM1019.8,781.6h0ZM1009.8,767.4l4.1-3,3.4,3h-7.5ZM1016.9,769.7l-4.5,3.2-3.2-3.2h7.7ZM1010.9,759.3h6.9l-3.8,2.8-3.1-2.8h0ZM1011.3,757l3.8-3.1,3.1,3.1h-7,0ZM1032.4,746.1l2.9-2.9,3.5,2.9h-6.4ZM1039.2,748.4l-2.9,2.9-3.6-2.9h6.5ZM1030.5,739.2l3.3,2.8-2.9,2.9c-.2-2-.3-3.9-.4-5.7h0ZM1030.7,769.7h0c0-.3,0-.6,0-.9,0,.3,0,.6,0,.9h0ZM1027.3,737.9l-1.6,2.4-1.6-2.4h3.2ZM1024.3,735.6l1.5-3.2,1.5,3.2h-2.9ZM1027.7,652.3c0-2.1,0-4.2-.2-6.2l2.4,3.1-2.3,3.1h0ZM1027.8,655.2h0ZM1027.7,653.4h0ZM1023,759.3h5.4l-2.7,2.5-2.7-2.5ZM1029.1,767.4h-6.8l3.4-3.1,3.4,3.1ZM1023.7,748.4h4l-2,2.4-2-2.4h0ZM1028.4,757h-5.4l2.7-3.2,2.7,3.2h0ZM1023.5,746.1l2.2-3.3,2.2,3.3h-4.4,0ZM1024.5,752.3l-2.6,3.1c.2-1.9.3-3.8.5-5.7l2.1,2.5h0ZM1026.9,752.3l2.1-2.5c.2,1.9.3,3.8.4,5.7l-2.6-3.1ZM1029.5,724.1c-.1-2.3-.2-4.1-.2-5.2,0-.3,0-.7,0-1l3,3-2.7,3.2ZM1029.1,713.4c0-1.8,0-3.6-.1-5.5l2.6,2.7-2.5,2.8ZM1028.9,703.4c0-1.9,0-3.8-.1-5.6l2.4,2.7-2.3,2.9ZM1028.7,693c0-1.8,0-3.6-.1-5.4l2.3,2.7-2.2,2.8h0ZM1028.2,673.2c0-2.2,0-4.3-.2-6.4l2.4,3.2-2.3,3.2h0ZM1028.2,674.3h0,0ZM1027.9,662.6c0-2.2,0-4.2-.2-6.2l2.4,3.1-2.2,3.1h0ZM1028,665.6h0ZM1028,663.8h0ZM1028.2,739.1c.1,1.8.3,3.7.4,5.7l-2.1-3.2,1.7-2.5h0ZM1028.3,677.3l2.5,3-2.3,3c0-2,0-4-.2-6h0ZM1024.9,741.6l-2.1,3.1c.2-1.9.3-3.8.4-5.6l1.7,2.5h0ZM1023.2,674.3h0ZM1023.5,665.6h0ZM1023.5,663.8h0ZM1021.3,659.5l2.4-3.1c0,2,0,4.1-.2,6.2l-2.2-3.1h0ZM1023.3,673.2l-2.3-3.2,2.4-3.2c0,2.1,0,4.2-.2,6.4h0ZM1023,683.3l-2.3-3,2.5-3c0,2,0,4-.1,6h0ZM1022.8,693l-2.1-2.8,2.3-2.7c0,1.8,0,3.6-.1,5.4h0ZM1022.6,703.4l-2.3-2.9,2.4-2.7c0,1.9,0,3.7-.1,5.6ZM1022.4,713.4l-2.5-2.8,2.6-2.7c0,1.8,0,3.7-.1,5.5ZM1022.3,718.9c0,1.1-.1,2.9-.2,5.2l-2.7-3.2,3-3c0,.3,0,.7,0,1ZM1021.6,760.4l2.8,2.6-3.3,3c.2-1.8.3-3.7.5-5.6h0ZM1018.5,731.4l3.2-2.9c-.1,1.8-.3,3.7-.4,5.8l-2.8-3ZM1029.3,769.7l-3.6,3.2-3.6-3.2h7.1ZM1027.1,763l2.8-2.6c.2,1.9.3,3.8.5,5.6l-3.3-3h0ZM1029.6,757c0,.8.1,1.5.2,2.3h0c0-.8-.1-1.5-.2-2.3h0ZM1030.2,734.4c-.2-2.1-.3-4-.4-5.8l3.2,2.9-2.8,3ZM1035.2,740.7l-3.3-2.8h6.1l-2.8,2.8ZM1031.5,735.6l2.8-3,3.3,3h-6.1ZM1034.2,730.1l-3.2-2.8h5.8l-2.7,2.8ZM1030.8,725.4l2.7-3.2,3.1,3.2h-5.9,0ZM1033.4,719.6l-2.9-3h5.5l-2.5,3h0ZM1030.4,714.8l2.5-2.8,2.8,2.8h-5.3ZM1032.8,709.2l-2.6-2.6h4.9l-2.3,2.6h0ZM1030.1,704.8l2.3-2.9,2.6,2.9h-4.9ZM1032.4,699l-2.4-2.7h4.6l-2.2,2.7h0ZM1029.9,694.5l2.2-2.8,2.4,2.8h-4.5ZM1031.9,688.8l-2.2-2.6h4.3l-2.1,2.6ZM1029.3,684.3l2.3-3,2.5,3h-4.8ZM1031.6,679.1l-2.4-2.9h4.7l-2.2,2.9ZM1029.1,674.3l2.3-3.2,2.5,3.2h-4.7ZM1031.3,668.8l-2.4-3.2h4.7l-2.2,3.2ZM1028.8,663.8l2.2-3.1,2.4,3.1h-4.7ZM1031,658.4l-2.4-3.1h4.7l-2.3,3.1h0ZM1028.6,653.4l2.3-3,2.4,3h-4.7ZM1030.8,648.1l-2.4-3.1h4.8l-2.3,3.1ZM1028.3,643.2l2.3-3.1,2.4,3.1h-4.8ZM1030.6,637.8l-2.5-3.2h4.9l-2.4,3.2ZM1029.8,638.9l-2.3,3.1c0-2.3-.1-4.4-.2-6.3l2.5,3.2h0ZM1027.5,645h0ZM1027.5,728.7c0,1.5.2,3.2.3,5l-1.3-2.9,1-2.1ZM1025.7,729.2l-.9-1.9h1.8l-.9,1.9ZM1025,730.8l-1.3,2.9c.1-1.8.2-3.4.4-5l1,2.1ZM1021.5,649.2l2.4-3.1c0,2,0,4-.2,6.2l-2.3-3h0ZM1024,642l-2.3-3.1,2.5-3.2c0,1.9,0,4-.2,6.3h0ZM1020.8,637.8l-2.4-3.2h4.9l-2.5,3.2ZM1023.2,643.2h-4.8l2.4-3.1,2.3,3.1ZM1023.1,645l-2.4,3.1-2.3-3.1h4.8ZM1022.9,653.4h-4.7l2.4-3,2.3,3h0ZM1022.8,655.2l-2.4,3.1-2.3-3.1h4.7ZM1022.7,663.8h-4.7l2.4-3.1,2.2,3.1ZM1022.6,665.6l-2.4,3.2-2.2-3.2h4.7ZM1022.4,674.3h-4.7l2.5-3.2,2.3,3.2h0ZM1022.3,676.2l-2.4,2.9-2.2-2.9h4.7ZM1022.2,684.3h-4.8l2.5-3,2.3,3h0ZM1021.8,686.2l-2.2,2.6-2-2.6h4.3ZM1021.6,694.5h-4.5l2.4-2.8,2.2,2.8h0ZM1021.5,696.3l-2.4,2.7-2.2-2.7h4.6,0ZM1021.4,704.8h-4.9l2.6-2.9,2.3,2.9h0ZM1021.2,706.6l-2.6,2.6-2.3-2.6h4.9ZM1021.1,714.8h-5.3l2.8-2.8,2.5,2.8h0ZM1021,716.6l-2.9,3-2.5-3h5.5,0ZM1020.7,725.4h-5.9l3.1-3.2,2.7,3.2h0ZM1020.4,727.3l-3.2,2.8-2.7-2.8h5.8ZM1020,735.6h-6.1l3.3-3,2.8,3ZM1020.9,739.2c-.1,1.8-.3,3.8-.4,5.7l-2.9-2.9,3.3-2.8h0ZM1019.6,737.9l-3.3,2.8-2.8-2.8h6.1ZM1019.1,746.1h-6.4l3.5-2.9,2.9,2.9h0ZM1018.8,748.4l-3.6,2.9-2.9-2.9h6.5ZM1020.7,770.8l3.7,3.3-4.3,3.8c.2-2.3.4-4.7.6-7.2h0ZM1025.7,775.3l4.4,3.9h-8.8l4.4-3.9ZM1027.1,774.1l3.7-3.3c.2,2.5.4,4.9.6,7.2l-4.3-3.8h0ZM1031.3,749.7l3.6,3-3.1,3.1c-.2-2-.3-4.1-.5-6.1h0ZM1036.4,753.8l3.8,3.1h-7l3.1-3.1ZM1040.6,759.3l-3.1,2.8-3.8-2.8h6.9ZM1037.6,764.4l4.1,3h-7.4l3.4-3ZM1042.2,769.7l-3.2,3.2-4.4-3.2h7.7ZM1043.7,770.8c.3,2.1.7,4.2,1.1,6.2l-4.3-3,3.2-3.2h0ZM1042.1,760.3c.3,1.9.6,3.8.9,5.7l-4-3,3.2-2.8h0ZM1041.4,755.6l-3.8-3.1,2.9-3c.3,2,.5,4,.8,6.1h0ZM1040,744.8l-3.5-2.9,2.8-2.8c.2,1.9.4,3.8.7,5.7h0ZM1038.2,728.5c.2,1.9.4,3.9.6,5.8l-3.3-2.9,2.7-2.9h0ZM1037.2,717.9c.2,2,.4,4.1.5,6.1l-3.1-3.1,2.6-3h0ZM1036.5,707.9c.1,1.8.3,3.6.4,5.5l-2.8-2.8,2.3-2.7ZM1036.1,703.3l-2.5-2.9,2.2-2.7c.1,1.9.2,3.8.4,5.6ZM1035.5,693l-2.3-2.7,2.1-2.7c0,1.8.2,3.6.3,5.4h0ZM1035,683.2l-2.5-3,2.3-3c0,2,.2,4,.2,6h0ZM1034.6,673.1l-2.4-3.2,2.2-3.2c0,2.1.1,4.3.2,6.4h0ZM1034.4,665.6h0ZM1034.3,663.8h0ZM1034.3,662.6l-2.4-3.1,2.3-3.1c0,2.1,0,4.2.1,6.2ZM1034.2,655.2h0ZM1034.1,653.4h0ZM1034.1,652.3l-2.4-3.1,2.3-3.1c0,2.1,0,4.1,0,6.2h0ZM1033.9,642l-2.4-3.1,2.4-3.2c0,2.1,0,4.2,0,6.3h0ZM1033.9,626.9v5l-2.4-2.5,2.4-2.6h0ZM1030.5,630.5l2.2,2.3h-4.4l2.2-2.3ZM1029.6,629.5l-2.4,2.5c0-2.3,0-4,0-5l2.4,2.5h0ZM1024.8,706.6c0-.6,0-1.2,0-1.8,0-3.1.1-6.1.2-9.2,0-.4,0-.8,0-1.1.1-4.9.2-9.8.3-14.6.1-4.7.2-9.3.3-13.7.2,8.8.4,18.4.7,28.3,0,.4,0,.7,0,1.1,0,3,.1,6.1.2,9.2,0,.6,0,1.2,0,1.8,0,4.1.2,8.3.3,12.4,0,1.3.1,3.6.3,6.5h-3c.2-2.9.3-5.1.3-6.5,0-4.1.2-8.2.3-12.4h0ZM1024.4,627c0,1,0,2.7,0,5l-2.4-2.5,2.4-2.5ZM1023.1,632.8h-4.4l2.2-2.3,2.2,2.3ZM1017.6,626.9l2.4,2.6-2.4,2.5v-5h0ZM1017.6,635.8l2.4,3.2-2.4,3.1c0-2.1,0-4.2,0-6.3h0ZM1017.5,646.1l2.3,3.1-2.4,3.1c0-2,0-4.1,0-6.2ZM1017.4,653.4h0ZM1017.3,655.2h0ZM1017.3,656.4l2.3,3.1-2.4,3.1c0-2.1,0-4.2.1-6.2ZM1017.1,663.8h0ZM1017.1,665.6h0ZM1017,666.8l2.2,3.2-2.5,3.2c0-2.1.1-4.2.2-6.4h0ZM1016.7,677.2l2.3,3-2.5,3c0-2,.2-4,.2-6h0ZM1016.2,687.6l2.1,2.7-2.3,2.7c0-1.8.2-3.6.3-5.4h0ZM1015.7,697.7l2.2,2.7-2.5,2.9c.1-1.8.2-3.7.4-5.6ZM1015,707.9l2.4,2.7-2.8,2.8c.2-1.8.3-3.6.4-5.5h0ZM1014.2,717.9l2.6,3-3.1,3.1c.2-2,.4-4.1.5-6.1ZM1013.2,728.5l2.7,2.9-3.3,2.9c.2-1.9.4-3.9.6-5.8h0ZM1012.2,737.9h0ZM1012.1,739.1l2.8,2.8-3.5,2.9c.2-1.9.5-3.8.7-5.7h0ZM1010.8,749.6l3,3-3.8,3.1c.3-2,.5-4,.8-6.1ZM1009.4,760.3l3.2,2.8-4,3c.3-1.9.6-3.8.9-5.7ZM1007.7,770.8l3.2,3.2-4.2,3c.4-2.1.7-4.2,1-6.2h0ZM1012.3,775.2l4.1,4h-9.7l5.6-4ZM1004.1,791.3c.6-2.9,1.1-5.8,1.6-8.6l3.8,4.2-5.4,4.4h0ZM1007.2,781.6h8.9l-5.1,4.2-3.8-4.2h0ZM1016.6,792l-4.4-4.9,5.2-4.3c-.3,3.9-.6,7.1-.8,9.2h0ZM1017.8,778.1l-4-3.9,4.6-3.3c-.2,2.5-.4,5-.6,7.2h0ZM1015.4,763.3l3.8-2.8c-.2,1.9-.3,3.9-.5,5.8l-3.4-3h0ZM1018.9,791.9c.2-2.2.5-5.3.8-9.2l4.7,4.2-5.5,4.9ZM1021.2,781.6h9.1l-4.6,4.1-4.6-4.1h0ZM1027.1,786.9l4.7-4.2c.3,3.8.6,7,.8,9.2l-5.5-4.9h0ZM1032.7,766.2c-.2-1.9-.3-3.8-.5-5.8l3.8,2.8-3.3,3h0ZM1033.1,770.9l4.6,3.3-4,3.9c-.2-2.3-.4-4.7-.6-7.2h0ZM1034.9,792c-.2-2.1-.4-5.3-.8-9.2l5.2,4.3-4.4,4.9h0ZM1040.6,785.8l-5.1-4.2h8.9l-3.8,4.2h0ZM1042,786.9l3.8-4.2c.5,2.9,1.1,5.7,1.6,8.6l-5.4-4.4Z"/><rect class="cls-3" x="1012.1" y="620.2" width="27.2" height="11.4" rx="1.2" ry="1.2"/><path class="cls-13" d="M1034.9,607.3h-5.4l-3.8-43.3-3.8,43.3h-5.3c-2.4,0-4.4,2-4.4,4.4v11.2h27.1v-11.2c0-2.4-1.9-4.4-4.4-4.4h0Z"/><path class="cls-1" d="M1110.7,959.1c-4.8-8.7-10.3-19.5-16.2-32.1h-5.5l-4,6.6c-1.2-2.6-2.1-4.8-2.8-6.6h-3.3c.8,2,2.1,5,3.8,8.5l-11.6-6.3h0c-.3-.8-.6-1.5-.9-2.3h-4.9c4.4,11,9.1,21.8,14.1,32.1,4.5,9.3,9.2,18.2,14.2,26.7h5.3c-.6-1-1.2-2-1.8-3l5.1-8.2c2.8,5.3,4.9,9.4,5.9,11.2h3.6c-1-1.7-2.8-5-5-9.2l11.3,5.5c.9,1.5,1.7,2.7,2.4,3.7h6.4c-1.9-2.7-8-11.8-16.2-26.7h0ZM1104.2,957.6l-8.5-3.2,4-5.7c1.6,3.2,3.1,6.1,4.5,8.9ZM1093.9,952.1c-1.7-3.4-3.4-6.8-4.9-10l8.7,4.7-3.7,5.3h0ZM1090.7,929.6c2.2,4.9,4.3,9.4,6.4,13.7l-10.1-5.5c-.2-.4-.4-.8-.6-1.2l4.2-7.1h0ZM1084.6,939.7h0c1.9,4,4.1,8.4,6.3,12.9l-11.5-4.4,5.1-8.5h0ZM1078,945.3c-1.8-4-3.5-8-5.2-12.1h0l9.4,5.1-4.2,7h0ZM1084.5,959.1c-1.2-2.5-2.4-4.9-3.6-7.4h0l10.5,4-2.4,3.4-2.7,3.8c-.6-1.3-1.3-2.5-1.9-3.8h0ZM1095.6,980c-2.2-3.9-4.4-7.9-6.5-12l10.8,5.2-4.2,6.8h0ZM1088.4,964.7l3.9-5.7,1.1-1.6c.3.5.5,1,.8,1.6,2,3.9,3.9,7.8,5.8,11.2l-11.6-5.6ZM1097.5,959.1c-.2-.5-.5-.9-.7-1.4l3.6,1.4,5.8,2.2c.2.3.4.7.5,1l-4.1,6.5c-1.6-3.1-3.3-6.4-5.1-9.8h0ZM1104.5,972.5c-.2-.3-.3-.6-.5-.9l4.1-6.6c2.7,5,5.2,9.2,7.2,12.7l-10.9-5.3h0Z"/><path class="cls-1" d="M981.3,927c-.3.8-.6,1.5-.9,2.3l-11.5,6.2c1.6-3.5,2.9-6.5,3.7-8.5h-3.3c-.7,1.8-1.6,4-2.8,6.6l-3.9-6.6h-5.5c-5.8,12.6-11.4,23.4-16.2,32.1-8.2,14.9-14.3,24-16.2,26.7h6.4c.7-1,1.5-2.2,2.4-3.7l11.4-5.5c-2.2,4.2-4,7.5-5,9.2h3.7c1-1.7,3.1-5.8,5.9-11.1l5,8h0c-.6,1-1.2,2-1.8,3h5.3c5-8.5,9.7-17.4,14.2-26.7,5-10.3,9.7-21.1,14.1-32.1h-5ZM966.8,939.7h0s5.1,8.5,5.1,8.5l-11.4,4.3c2.2-4.5,4.4-8.9,6.2-12.8h0ZM960.8,929.6l4.2,7.1c-.2.4-.4.8-.5,1.2l-10.1,5.5c2.1-4.3,4.2-8.9,6.4-13.7ZM962.5,942c-1.5,3.2-3.2,6.6-5,10l-3.7-5.3,8.7-4.7h0ZM951.8,948.7l4,5.7-8.5,3.2c1.5-2.8,3-5.8,4.5-8.9ZM947,972.5l-11,5.3c2.1-3.5,4.5-7.7,7.2-12.7l4.1,6.6c-.1.3-.3.5-.4.8h0ZM948.9,968.9l-4.1-6.6c.2-.3.4-.7.5-1l5.7-2.2,3.6-1.4c-.2.5-.5.9-.7,1.4-1.7,3.4-3.5,6.7-5.1,9.8h0ZM955.9,980l-4.2-6.8,10.8-5.2c-2.1,4.1-4.3,8.1-6.5,12h0ZM951.6,970.2c1.8-3.5,3.7-7.3,5.7-11.2.2-.5.5-1,.7-1.5l1,1.5,4,5.7-11.4,5.5h0ZM965.1,962.9l-2.7-3.8-2.4-3.4,10.5-4c-1.2,2.5-2.4,5-3.6,7.4-.6,1.3-1.3,2.5-1.9,3.8h0ZM973.5,945.3l-4.2-7,9.4-5.1c-1.7,4.1-3.4,8.1-5.2,12.1h0Z"/><path class="cls-10" d="M1068.6,860.7h0s0,0,0,0c-3.6-11-7-22.7-10.3-34.9-.2-.9-.5-1.7-.7-2.6-.6-2.3-1.2-4.7-1.8-7-1.1-4.4-2.2-8.9-3.2-13.5l-3.6.8c.3,1.3.6,2.5.9,3.8l-.6-.7-4.2,3.8-5.7-3.9-.5.7c-.1-1-.2-1.9-.4-2.9l-4.6.5c0,.8.2,1.6.3,2.4l-.4-.9-8.2,4-8.2-4-.4.8c0-.8.2-1.6.3-2.4l-4.5-.5c-.1,1-.2,1.9-.4,2.9l-.5-.7-5.7,3.9-4.2-3.8-.6.7c.3-1.3.6-2.5.9-3.8l-3.6-.8c-1,4.6-2.1,9.1-3.2,13.5-.6,2.4-1.2,4.7-1.8,7-.2.9-.5,1.7-.7,2.6-3.2,12.3-6.7,23.9-10.3,34.9h0s0,0,0,0c-2.6,8-5.3,15.7-8,23h4.3c.3-1,.7-1.9,1-2.9l8.2-4.8c-.8,2.4-1.8,5.3-2.7,7.7h3.6c1-3,1.9-6,2.8-9l4.7,7.1c-.2.7-.4,1.3-.6,2h4.8c1.8-6,3.4-12,5-18.1h.2c0-.1-.1-.3-.1-.3,3.4-13.2,6.2-26.5,8.3-39.6.2-.9.3-1.7.4-2.6.4-2.3.7-4.7,1.1-7l.4.8,1.7-.8,7.7-3.7,7.7,3.7,1.7.8.4-.8h0s0,0,0,0c.3,2.3.7,4.7,1.1,7,.1.9.3,1.7.4,2.6,2.2,13.1,5,26.4,8.3,39.6h0v.2c-.1,0,0,.1,0,.1h0c1.5,6,3.2,12.1,5,18.1h4.8c-.2-.7-.4-1.3-.6-2l4.7-7c.9,3.1,1.9,6.1,2.8,9h3.5c-.8-2.4-1.8-5.3-2.5-7.7l8.2,4.8c.3,1,.7,1.9,1,2.8h4.3c-2.7-7.3-5.4-15-8-23h0ZM1012.4,808.4c-.3,2.2-.6,4.4-.9,6.6l-3.8-3.4,4.7-3.2h0ZM1001.3,808.2l3.5,3.2-5,3.4c.5-2.2,1-4.4,1.6-6.6h0ZM997,825.7h4.6c-.5,2.1-.9,4.1-1.4,6.1l-3.4-5.4c0-.2.1-.5.2-.7ZM995.8,830.1l3.5,5.5c0,.1,0,.3-.1.4l-6.3,4.7h0c1-3.5,2-7.1,2.9-10.7ZM998.2,840.2c-.8,3.4-1.7,6.8-2.5,10.1l-3.8-5.4,6.3-4.7ZM990.8,848.1l3.9,5.6-6.8,4c1-3.1,2-6.3,2.9-9.6h0ZM989.6,872.1l-8,4.7c1.3-3.9,2.7-7.9,4-12l4.3,6.4c0,.3-.2.6-.3.9h0ZM990.9,867.8l-4.1-6.2,7-4.1c-1,3.5-1.9,7-2.9,10.3h0ZM997.9,878.3l-3.8-5.6,6.3-3.7c-.8,3.1-1.7,6.2-2.6,9.3ZM1001.4,865.1l-7.8,4.6h0c1.2-4.1,2.3-8.3,3.4-12.6l4.7,6.7c0,.4-.2.8-.3,1.3h0ZM1004.8,850.9c-.7,3.1-1.4,6.3-2.2,9.4l-4-5.8,6.2-3.7h0ZM1005.7,847.2h0l-7.2,4.2c1-4,2-8.2,3-12.4l4.4,7c0,.4-.2.7-.2,1.1h0ZM1006.7,842.2l-3.6-5.7,5.5-4.1c-.6,3.3-1.2,6.6-1.9,9.8h0ZM1009.3,828.4h0l-6.5,4.8c.6-2.5,1.2-5,1.7-7.6h5.2c-.2.9-.3,1.8-.5,2.7h0ZM997.7,823.1c.6-2.3,1.2-4.7,1.8-7l.5.8,1.1-.8,5.1-3.5,3.8,3.5.7.7.6-.7c-.3,2.3-.7,4.7-1.1,7h-12.6,0ZM1016.1,815c.3-2.3.6-4.6.9-6.9l6.6,3.2-7.5,3.7h0ZM1027.8,811.3l6.6-3.2c.3,2.3.6,4.6.9,6.9l-7.6-3.7h0ZM1063.6,857.7l-6.8-4,3.9-5.6c1,3.2,1.9,6.5,2.9,9.6h0ZM1055.8,850.3c-.8-3.3-1.7-6.7-2.6-10.1l6.3,4.7-3.8,5.4h0ZM1058.6,840.8l-6.3-4.7c0-.1,0-.3-.1-.4l3.5-5.5c1,3.6,1.9,7.2,2.9,10.7h0ZM1054.7,826.4l-3.4,5.4c-.5-2-.9-4-1.4-6.1h4.7c0,.2.1.5.2.7ZM1050.2,808.2c.5,2.2,1,4.4,1.6,6.6l-5-3.4,3.5-3.2h0ZM1043.8,811.6l-3.8,3.4c-.3-2.2-.6-4.4-.9-6.6l4.7,3.2ZM1040.2,816.1l.6.7.7-.7,3.8-3.5,5.1,3.5,1.1.8.5-.8c.6,2.4,1.2,4.7,1.8,7h-12.6c-.4-2.3-.7-4.7-1.1-7h0ZM1041.7,825.7h5.2c.6,2.5,1.2,5.1,1.7,7.6l-6.5-4.8c-.2-.9-.3-1.8-.5-2.7ZM1044.8,842.2c-.7-3.3-1.3-6.6-1.9-9.8l5.5,4.1-3.6,5.7h0ZM1045.6,846.1l4.4-7c1,4.2,2,8.3,3,12.4l-7.2-4.2h0c0-.4-.2-.8-.2-1.1h0ZM1046.6,850.9l6.2,3.7-4,5.8c-.8-3.1-1.5-6.3-2.2-9.4h0ZM1053.6,878.3c-.9-3.1-1.7-6.2-2.6-9.3l6.3,3.7-3.8,5.6ZM1050,865.1c-.1-.4-.2-.8-.3-1.3l4.7-6.7c1.1,4.3,2.2,8.5,3.4,12.6l-7.8-4.6ZM1057.7,857.4l7,4.1-4.1,6.2c-1-3.3-1.9-6.8-2.9-10.3h0ZM1061.9,872.1c0-.3-.2-.6-.3-.9l4.3-6.4c1.3,4.1,2.7,8.1,4,12l-8-4.7Z"/><path class="cls-15" d="M1046.7,769.7h0c-.1-.8-.3-1.5-.4-2.3-.4-2.7-.9-5.4-1.3-8.1h0c-.1-.7-.2-1.4-.3-2.1-.4-2.9-.8-5.8-1.2-8.8h0c-.1-.8-.2-1.5-.3-2.3-.4-2.7-.7-5.5-1.1-8.2h0c0-.2,0-.4,0-.7-.4-3.5-.8-7.1-1.2-10.6,0-.4,0-.8-.1-1.2h0c-.3-2.9-.6-5.9-.9-8.8h0c0-.5-.1-1.1-.2-1.6-.6-6.6-1.1-13.3-1.6-20.2,0,0,0-.2,0-.3-.4-6-.7-12.1-1-18.4h0c0-.6,0-1.2,0-1.8h0c-.1-2.9-.2-5.8-.3-8.7h0c0-.6,0-1.2,0-1.8h0c0-2.8-.2-5.7-.2-8.5h0c0-.6,0-1.2,0-1.8h0c0-2.9-.1-5.8-.2-8.8,0-.5,0-1,0-1.5h0c0-2.8,0-5.7,0-8.5h0c0-.4,0-.7,0-1.1,0-2.5,0-5,0-7.6h-3.2l-2.4,2.6-2.5-2.6h-.9c0,0-.5,0-.5,0h0c0,0-1.8,0-1.8,0h0c0,0-.5.1-.5.1h0c0,0-6.7,0-6.7,0h-2.3c0,5.9,0,11.6-.1,17.2h0c0,3.7-.1,7.4-.2,10.9,0,.4,0,.8,0,1.2h0c0,2.9-.2,5.8-.2,8.7,0,.6,0,1.1,0,1.7h0c0,2.9-.2,5.8-.3,8.7h0c0,.6,0,1.2,0,1.8h0c-.3,6.3-.6,12.4-1,18.4,0,0,0,.2,0,.3-.5,6.9-1,13.6-1.6,20.2,0,.5,0,1.1-.2,1.6-.3,3-.5,5.9-.9,8.8,0,.4,0,.8-.1,1.2-.4,3.6-.8,7.1-1.2,10.6,0,.2,0,.4,0,.7-.3,2.7-.7,5.5-1,8.2,0,.8-.2,1.5-.3,2.3-.4,2.9-.8,5.9-1.2,8.8,0,.7-.2,1.4-.3,2.1h0c-.4,2.7-.8,5.4-1.3,8.1-.1.8-.2,1.5-.4,2.3h0c-1.3,8.1-2.8,16.2-4.4,24.4l3.2.4c0-.1,0-.2,0-.3l7.2-5.9,5.7,6.2c0,.2,0,.3,0,.3h.3s.2.3.2.3l.2-.2h1.5s0-.5.1-1.1l.4.4,6.6-6,6.6,6,.4-.4c0,.7,0,1.1.1,1.3h1.5c0-.1.2,0,.2,0l.2-.2h.3s0-.2,0-.4l5.7-6.2,7.2,5.9c0,.1,0,.2,0,.3l3.2-.4c-1.6-8.2-3.1-16.3-4.4-24.4h.1ZM1044.8,779.3h-9.7l4.1-4,5.6,4ZM1019.6,755.8l-3.1-3.1,3.6-3c-.2,2-.3,4-.5,6.1h0ZM1019.8,781.6h0ZM1009.8,767.4l4.1-3,3.4,3h-7.5ZM1016.9,769.7l-4.5,3.2-3.2-3.2h7.7ZM1010.9,759.3h6.9l-3.8,2.8-3.1-2.8h0ZM1011.3,757l3.8-3.1,3.1,3.1h-7,0ZM1032.4,746.1l2.9-2.9,3.5,2.9h-6.4ZM1039.2,748.4l-2.9,2.9-3.6-2.9h6.5ZM1030.5,739.2l3.3,2.8-2.9,2.9c-.2-2-.3-3.9-.4-5.7h0ZM1030.7,769.7h0c0-.3,0-.6,0-.9,0,.3,0,.6,0,.9h0ZM1027.3,737.9l-1.6,2.4-1.6-2.4h3.2ZM1024.3,735.6l1.5-3.2,1.5,3.2h-2.9ZM1027.7,652.3c0-2.1,0-4.2-.2-6.2l2.4,3.1-2.3,3.1h0ZM1027.8,655.2h0ZM1027.7,653.4h0ZM1023,759.3h5.4l-2.7,2.5-2.7-2.5ZM1029.1,767.4h-6.8l3.4-3.1,3.4,3.1ZM1023.7,748.4h4l-2,2.4-2-2.4h0ZM1028.4,757h-5.4l2.7-3.2,2.7,3.2h0ZM1023.5,746.1l2.2-3.3,2.2,3.3h-4.4,0ZM1024.5,752.3l-2.6,3.1c.2-1.9.3-3.8.5-5.7l2.1,2.5h0ZM1026.9,752.3l2.1-2.5c.2,1.9.3,3.8.4,5.7l-2.6-3.1ZM1029.5,724.1c-.1-2.3-.2-4.1-.2-5.2,0-.3,0-.7,0-1l3,3-2.7,3.2ZM1029.1,713.4c0-1.8,0-3.6-.1-5.5l2.6,2.7-2.5,2.8ZM1028.9,703.4c0-1.9,0-3.8-.1-5.6l2.4,2.7-2.3,2.9ZM1028.7,693c0-1.8,0-3.6-.1-5.4l2.3,2.7-2.2,2.8h0ZM1028.2,673.2c0-2.2,0-4.3-.2-6.4l2.4,3.2-2.3,3.2h0ZM1028.2,674.3h0,0ZM1027.9,662.6c0-2.2,0-4.2-.2-6.2l2.4,3.1-2.2,3.1h0ZM1028,665.6h0ZM1028,663.8h0ZM1028.2,739.1c.1,1.8.3,3.7.4,5.7l-2.1-3.2,1.7-2.5h0ZM1028.3,677.3l2.5,3-2.3,3c0-2,0-4-.2-6h0ZM1024.9,741.6l-2.1,3.1c.2-1.9.3-3.8.4-5.6l1.7,2.5h0ZM1023.2,674.3h0ZM1023.5,665.6h0ZM1023.5,663.8h0ZM1021.3,659.5l2.4-3.1c0,2,0,4.1-.2,6.2l-2.2-3.1h0ZM1023.3,673.2l-2.3-3.2,2.4-3.2c0,2.1,0,4.2-.2,6.4h0ZM1023,683.3l-2.3-3,2.5-3c0,2,0,4-.1,6h0ZM1022.8,693l-2.1-2.8,2.3-2.7c0,1.8,0,3.6-.1,5.4h0ZM1022.6,703.4l-2.3-2.9,2.4-2.7c0,1.9,0,3.7-.1,5.6ZM1022.4,713.4l-2.5-2.8,2.6-2.7c0,1.8,0,3.7-.1,5.5ZM1022.3,718.9c0,1.1-.1,2.9-.2,5.2l-2.7-3.2,3-3c0,.3,0,.7,0,1ZM1021.6,760.4l2.8,2.6-3.3,3c.2-1.8.3-3.7.5-5.6h0ZM1018.5,731.4l3.2-2.9c-.1,1.8-.3,3.7-.4,5.8l-2.8-3ZM1029.3,769.7l-3.6,3.2-3.6-3.2h7.1ZM1027.1,763l2.8-2.6c.2,1.9.3,3.8.5,5.6l-3.3-3h0ZM1029.6,757c0,.8.1,1.5.2,2.3h0c0-.8-.1-1.5-.2-2.3h0ZM1030.2,734.4c-.2-2.1-.3-4-.4-5.8l3.2,2.9-2.8,3ZM1035.2,740.7l-3.3-2.8h6.1l-2.8,2.8ZM1031.5,735.6l2.8-3,3.3,3h-6.1ZM1034.2,730.1l-3.2-2.8h5.8l-2.7,2.8ZM1030.8,725.4l2.7-3.2,3.1,3.2h-5.9,0ZM1033.4,719.6l-2.9-3h5.5l-2.5,3h0ZM1030.4,714.8l2.5-2.8,2.8,2.8h-5.3ZM1032.8,709.2l-2.6-2.6h4.9l-2.3,2.6h0ZM1030.1,704.8l2.3-2.9,2.6,2.9h-4.9ZM1032.4,699l-2.4-2.7h4.6l-2.2,2.7h0ZM1029.9,694.5l2.2-2.8,2.4,2.8h-4.5ZM1031.9,688.8l-2.2-2.6h4.3l-2.1,2.6ZM1029.3,684.3l2.3-3,2.5,3h-4.8ZM1031.6,679.1l-2.4-2.9h4.7l-2.2,2.9ZM1029.1,674.3l2.3-3.2,2.5,3.2h-4.7ZM1031.3,668.8l-2.4-3.2h4.7l-2.2,3.2ZM1028.8,663.8l2.2-3.1,2.4,3.1h-4.7ZM1031,658.4l-2.4-3.1h4.7l-2.3,3.1h0ZM1028.6,653.4l2.3-3,2.4,3h-4.7ZM1030.8,648.1l-2.4-3.1h4.8l-2.3,3.1ZM1028.3,643.2l2.3-3.1,2.4,3.1h-4.8ZM1030.6,637.8l-2.5-3.2h4.9l-2.4,3.2ZM1029.8,638.9l-2.3,3.1c0-2.3-.1-4.4-.2-6.3l2.5,3.2h0ZM1027.5,645h0ZM1027.5,728.7c0,1.5.2,3.2.3,5l-1.3-2.9,1-2.1ZM1025.7,729.2l-.9-1.9h1.8l-.9,1.9ZM1025,730.8l-1.3,2.9c.1-1.8.2-3.4.4-5l1,2.1ZM1021.5,649.2l2.4-3.1c0,2,0,4-.2,6.2l-2.3-3h0ZM1024,642l-2.3-3.1,2.5-3.2c0,1.9,0,4-.2,6.3h0ZM1020.8,637.8l-2.4-3.2h4.9l-2.5,3.2ZM1023.2,643.2h-4.8l2.4-3.1,2.3,3.1ZM1023.1,645l-2.4,3.1-2.3-3.1h4.8ZM1022.9,653.4h-4.7l2.4-3,2.3,3h0ZM1022.8,655.2l-2.4,3.1-2.3-3.1h4.7ZM1022.7,663.8h-4.7l2.4-3.1,2.2,3.1ZM1022.6,665.6l-2.4,3.2-2.2-3.2h4.7ZM1022.4,674.3h-4.7l2.5-3.2,2.3,3.2h0ZM1022.3,676.2l-2.4,2.9-2.2-2.9h4.7ZM1022.2,684.3h-4.8l2.5-3,2.3,3h0ZM1021.8,686.2l-2.2,2.6-2-2.6h4.3ZM1021.6,694.5h-4.5l2.4-2.8,2.2,2.8h0ZM1021.5,696.3l-2.4,2.7-2.2-2.7h4.6,0ZM1021.4,704.8h-4.9l2.6-2.9,2.3,2.9h0ZM1021.2,706.6l-2.6,2.6-2.3-2.6h4.9ZM1021.1,714.8h-5.3l2.8-2.8,2.5,2.8h0ZM1021,716.6l-2.9,3-2.5-3h5.5,0ZM1020.7,725.4h-5.9l3.1-3.2,2.7,3.2h0ZM1020.4,727.3l-3.2,2.8-2.7-2.8h5.8ZM1020,735.6h-6.1l3.3-3,2.8,3ZM1020.9,739.2c-.1,1.8-.3,3.8-.4,5.7l-2.9-2.9,3.3-2.8h0ZM1019.6,737.9l-3.3,2.8-2.8-2.8h6.1ZM1019.1,746.1h-6.4l3.5-2.9,2.9,2.9h0ZM1018.8,748.4l-3.6,2.9-2.9-2.9h6.5ZM1020.7,770.8l3.7,3.3-4.3,3.8c.2-2.3.4-4.7.6-7.2h0ZM1025.7,775.3l4.4,3.9h-8.8l4.4-3.9ZM1027.1,774.1l3.7-3.3c.2,2.5.4,4.9.6,7.2l-4.3-3.8h0ZM1031.3,749.7l3.6,3-3.1,3.1c-.2-2-.3-4.1-.5-6.1h0ZM1036.4,753.8l3.8,3.1h-7l3.1-3.1ZM1040.6,759.3l-3.1,2.8-3.8-2.8h6.9ZM1037.6,764.4l4.1,3h-7.4l3.4-3ZM1042.2,769.7l-3.2,3.2-4.4-3.2h7.7ZM1043.7,770.8c.3,2.1.7,4.2,1.1,6.2l-4.3-3,3.2-3.2h0ZM1042.1,760.3c.3,1.9.6,3.8.9,5.7l-4-3,3.2-2.8h0ZM1041.4,755.6l-3.8-3.1,2.9-3c.3,2,.5,4,.8,6.1h0ZM1040,744.8l-3.5-2.9,2.8-2.8c.2,1.9.4,3.8.7,5.7h0ZM1038.2,728.5c.2,1.9.4,3.9.6,5.8l-3.3-2.9,2.7-2.9h0ZM1037.2,717.9c.2,2,.4,4.1.5,6.1l-3.1-3.1,2.6-3h0ZM1036.5,707.9c.1,1.8.3,3.6.4,5.5l-2.8-2.8,2.3-2.7ZM1036.1,703.3l-2.5-2.9,2.2-2.7c.1,1.9.2,3.8.4,5.6ZM1035.5,693l-2.3-2.7,2.1-2.7c0,1.8.2,3.6.3,5.4h0ZM1035,683.2l-2.5-3,2.3-3c0,2,.2,4,.2,6h0ZM1034.6,673.1l-2.4-3.2,2.2-3.2c0,2.1.1,4.3.2,6.4h0ZM1034.4,665.6h0ZM1034.3,663.8h0ZM1034.3,662.6l-2.4-3.1,2.3-3.1c0,2.1,0,4.2.1,6.2ZM1034.2,655.2h0ZM1034.1,653.4h0ZM1034.1,652.3l-2.4-3.1,2.3-3.1c0,2.1,0,4.1,0,6.2h0ZM1033.9,642l-2.4-3.1,2.4-3.2c0,2.1,0,4.2,0,6.3h0ZM1033.9,626.9v5l-2.4-2.5,2.4-2.6h0ZM1030.5,630.5l2.2,2.3h-4.4l2.2-2.3ZM1029.6,629.5l-2.4,2.5c0-2.3,0-4,0-5l2.4,2.5h0ZM1024.8,706.6c0-.6,0-1.2,0-1.8,0-3.1.1-6.1.2-9.2,0-.4,0-.8,0-1.1.1-4.9.2-9.8.3-14.6.1-4.7.2-9.3.3-13.7.2,8.8.4,18.4.7,28.3,0,.4,0,.7,0,1.1,0,3,.1,6.1.2,9.2,0,.6,0,1.2,0,1.8,0,4.1.2,8.3.3,12.4,0,1.3.1,3.6.3,6.5h-3c.2-2.9.3-5.1.3-6.5,0-4.1.2-8.2.3-12.4h0ZM1024.4,627c0,1,0,2.7,0,5l-2.4-2.5,2.4-2.5ZM1023.1,632.8h-4.4l2.2-2.3,2.2,2.3ZM1017.6,626.9l2.4,2.6-2.4,2.5v-5h0ZM1017.6,635.8l2.4,3.2-2.4,3.1c0-2.1,0-4.2,0-6.3h0ZM1017.5,646.1l2.3,3.1-2.4,3.1c0-2,0-4.1,0-6.2ZM1017.4,653.4h0ZM1017.3,655.2h0ZM1017.3,656.4l2.3,3.1-2.4,3.1c0-2.1,0-4.2.1-6.2ZM1017.1,663.8h0ZM1017.1,665.6h0ZM1017,666.8l2.2,3.2-2.5,3.2c0-2.1.1-4.2.2-6.4h0ZM1016.7,677.2l2.3,3-2.5,3c0-2,.2-4,.2-6h0ZM1016.2,687.6l2.1,2.7-2.3,2.7c0-1.8.2-3.6.3-5.4h0ZM1015.7,697.7l2.2,2.7-2.5,2.9c.1-1.8.2-3.7.4-5.6ZM1015,707.9l2.4,2.7-2.8,2.8c.2-1.8.3-3.6.4-5.5h0ZM1014.2,717.9l2.6,3-3.1,3.1c.2-2,.4-4.1.5-6.1ZM1013.2,728.5l2.7,2.9-3.3,2.9c.2-1.9.4-3.9.6-5.8h0ZM1012.2,737.9h0ZM1012.1,739.1l2.8,2.8-3.5,2.9c.2-1.9.5-3.8.7-5.7h0ZM1010.8,749.6l3,3-3.8,3.1c.3-2,.5-4,.8-6.1ZM1009.4,760.3l3.2,2.8-4,3c.3-1.9.6-3.8.9-5.7ZM1007.7,770.8l3.2,3.2-4.2,3c.4-2.1.7-4.2,1-6.2h0ZM1012.3,775.2l4.1,4h-9.7l5.6-4ZM1004.1,791.3c.6-2.9,1.1-5.8,1.6-8.6l3.8,4.2-5.4,4.4h0ZM1007.2,781.6h8.9l-5.1,4.2-3.8-4.2h0ZM1016.6,792l-4.4-4.9,5.2-4.3c-.3,3.9-.6,7.1-.8,9.2h0ZM1017.8,778.1l-4-3.9,4.6-3.3c-.2,2.5-.4,5-.6,7.2h0ZM1015.4,763.3l3.8-2.8c-.2,1.9-.3,3.9-.5,5.8l-3.4-3h0ZM1018.9,791.9c.2-2.2.5-5.3.8-9.2l4.7,4.2-5.5,4.9ZM1021.2,781.6h9.1l-4.6,4.1-4.6-4.1h0ZM1027.1,786.9l4.7-4.2c.3,3.8.6,7,.8,9.2l-5.5-4.9h0ZM1032.7,766.2c-.2-1.9-.3-3.8-.5-5.8l3.8,2.8-3.3,3h0ZM1033.1,770.9l4.6,3.3-4,3.9c-.2-2.3-.4-4.7-.6-7.2h0ZM1034.9,792c-.2-2.1-.4-5.3-.8-9.2l5.2,4.3-4.4,4.9h0ZM1040.6,785.8l-5.1-4.2h8.9l-3.8,4.2h0ZM1042,786.9l3.8-4.2c.5,2.9,1.1,5.7,1.6,8.6l-5.4-4.4Z"/><path class="cls-12" d="M1057.6,823.1h-63.8c.6-2.3,1.2-4.7,1.8-7h60.2c.6,2.4,1.2,4.7,1.8,7h0Z"/><polygon class="cls-5" points="1053.9 807.2 997.6 807.2 998.4 802.1 1053 802.1 1053.9 807.2"/><rect class="cls-6" x="1012.1" y="617.1" width="27.2" height="11.4" rx="1.2" ry="1.2"/></svg>