<?xml version="1.0" encoding="UTF-8"?><svg id="_09" xmlns="http://www.w3.org/2000/svg" viewBox="0 0 1920 1080"><defs><style>.cls-1{fill:#4a4b4d;}.cls-2{fill:#808285;}.cls-3{isolation:isolate;}.cls-4{fill:#555658;}.cls-5{fill:#414042;}.cls-6{fill:#e6e7e8;}</style></defs><path class="cls-1" d="M1332,675.3l-1.7,30.5-42.9-3.2,1.7-30.5c0,0,0-.1.1-.2.2-.2.3-.3.5-.5.1-.1.3-.2.4-.3.1,0,.2-.2.4-.2.2-.2.5-.3.8-.5.2,0,.3-.2.4-.2.2,0,.3-.2.5-.2,4.1-1.8,10.7-2.8,18.2-2.3,10.3.7,18.9,3.9,21.5,7.6h0Z"/><path class="cls-6" d="M1309.4,672.6c0,0-.2,0-.3,0-1.6,0-2.8,1.2-3,2.9l-1.2,21.9c1.3,0,2.6,0,3.9.1.7,0,1.4.1,2,.2l1.2-21.9c0-2-1.3-3.1-2.7-3.2"/><path class="cls-6" d="M1302.6,672.7c0,0-.2,0-.3,0-1.4.2-2.4,1.5-2.6,3.2l-1.2,21.9c1.7-.2,3.4-.4,5.3-.4l1.2-21.9c0-1.9-1.2-2.9-2.4-2.8"/><path class="cls-6" d="M1296.7,673.6c0,0-.2,0-.2,0-1.4.4-2,2.1-2.1,3.5l-1.2,21.9c1.3-.4,2.7-.8,4.3-1l1.2-21.9c0-1.9-1-2.7-2-2.5"/><path class="cls-6" d="M1292.2,675.1c0,0,0,0-.2,0-1.1.7-1.4,2.9-1.5,3.8l-1.2,21.9c.8-.6,1.8-1.1,3-1.6l1.2-21.9c0-1.8-.7-2.6-1.4-2.3"/><path class="cls-6" d="M1289.4,677.3s0,0,0,0c-.2.4-.5,1.2-.7,4l-1.2,21.9c.2-.7.7-1.4,1.4-2l1.2-21.9c0-1.8-.3-2.4-.6-2.1,0,0,0,0,0,0"/><path class="cls-6" d="M1287.3,703.7c0,0,0,.2,0,.3l1.3-23.8c-.2,4.6-1.3,23.5-1.3,23.5"/><path class="cls-6" d="M1310.8,670.5h0M1308.1,670.4s0,0,0,0c0,0,0,0,0,0M1308.2,670.3s0,0,0,0c0,0,0,0,0,0M1310.6,670.4s0,0,0,0c0,0,0,0,0,0M1308.3,670.3s0,0,0,0c0,0,0,0,0,0M1310.4,670.4s0,0,0,0c0,0,0,0,0,0M1308.5,670.3h0,0M1310.2,670.4s0,0,0,0c0,0,0,0,0,0M1308.6,670.3h0,0M1310.1,670.3s0,0,0,0c0,0,0,0,0,0M1308.8,670.2h0,0M1309.9,670.3s0,0,.1,0c0,0,0,0-.1,0M1308.9,670.2h0,0M1309.8,670.3s0,0,.1,0c0,0,0,0-.1,0M1309.1,670.2h0,0M1309.6,670.3s0,0,.1,0c0,0,0,0-.1,0M1309.3,670.2h0,0M1305.9,673.5h-.4.4M1305.9,673.5v-.6c0,0,0,.6,0,.6M1305.9,672c0-.1.2-.3.3-.4,0,0,0,0,0,.1-.1.2-.3.5-.3.7-.6-1.7-1.8-2.3-3.8-2-1.2.4-2,.9-2.6,2.5-.9-2.8-4.1-1.9-5.1.7,0,.2-.1.4-.2.5-.6-2.5-2.3-1.5-3-.1-.4.7-.5,1.4-.6,2-.3-2-.9-1.2-1-1.1-.5.7-.6,2.4-.7,3.5,0-.4,0-.8,0-1.1,0,.2,0,.3,0,.5h0c0,1.1,0,1.1,0,1.9,0,0,0,0,0-.1.2-3.4.6-4.9,1.2-4.4.4.3.4,1.5.4,2.1,0,0,0,0,.2-.1.4-4.3,2.3-4.6,3-3.7.4.5.4,1.2.4,1.9,0,0,.2,0,.2,0,.5-4.2,3.7-4.3,4.6-2.8.3.5.3,1.2.3,1.7.1,0,.2,0,.3,0,.6-4.2,4.6-3.8,5.6-2.2.4.6.4,1.2.4,1.7,0-.4.1-1,.4-1.5M1306.2,672.3c0,.2-.2.4-.2.6,0-.2.2-.4.2-.6M1306.2,671.6h0c0,0,0,0,0,0,0,0,0,0,0,0M1306.5,671.8c0,.2-.2.4-.3.5,0-.2.2-.4.3-.5M1306.2,671.5l.3-.3-.2.2s0,0,0,.1M1306.6,671.2h0M1306.5,671.8c.1-.1.3-.3.4-.4-.1.1-.3.3-.4.4M1306.6,671.2l.4-.3h0c0,.1-.2.2-.3.3M1306.9,670.9h0s0,0,0,0h0M1307,670.8l.3-.2h-.2c0,.1-.1.2-.2.2M1306.9,671.4c.2,0,.3-.2.5-.3-.2,0-.3.2-.5.3M1307.4,670.6h.1s0,0,0,0h0M1307.5,670.6l.5-.2c-.1,0-.3.1-.5.2M1308,670.8c-.2,0-.4.2-.6.2.2,0,.4-.2.6-.2M1308,670.8c.2,0,.5,0,.7-.1-.2,0-.5,0-.7.1M1309.4,670.6c-.2,0-.5,0-.7,0,.2,0,.5,0,.7,0M1310.1,670.7c-.2,0-.5,0-.7,0,.2,0,.5,0,.7,0M1310.1,670.7c.2,0,.5.2.7.2-.2,0-.5-.2-.7-.2M1311.3,671.2c-.2,0-.4-.2-.6-.3.2,0,.4.2.6.3M1311.3,671.2c.1.1.3.3.5.4-.1-.1-.3-.3-.5-.4M1312.2,672.1c-.1-.1-.3-.3-.4-.5.1.1.3.3.4.5M1312.4,672.7c0-.2-.2-.4-.3-.5,0,.2.2.4.3.5M1312.6,673.3c0-.2-.1-.4-.2-.6,0,.2.1.4.2.6M1312.6,673.9c.1,0,.2,0,.4,0-.1,0-.2,0-.4,0v-.6c0,.2,0,.5,0,.6M1309.4,670.2h.2-.2"/><path class="cls-6" d="M1330.2,707.1h0c0-.5,0-.9-.2-1.3l1.2-21.9c0-1.1.1-1.5.3-2,0,0,0,0,0,0h0v.2l-1.4,24.8"/><path class="cls-6" d="M1330.5,679.5s0,0,0-.1c-.5-.5-1.1.1-1.2,2l-1.2,21.9c.8.7,1.5,1.4,1.8,2.2l1.2-21.9c0-2,0-3.5-.5-4"/><path class="cls-6" d="M1327.4,677.1c0,0-.1,0-.2,0-1-.5-1.8.4-1.9,2.1l-1.2,21.9c1.3.6,2.5,1.2,3.4,1.9l1.2-21.9c0-1.8-.4-3.4-1.3-3.9"/><path class="cls-6" d="M1322.6,675c0,0-.2,0-.2,0-1.3-.3-2.3.6-2.5,2.3l-1.2,21.9c1.7.4,3.2,1,4.6,1.5l1.2-21.9c0-2.2-1-3.4-1.9-3.7"/><path class="cls-6" d="M1316.4,673.4c0,0-.2,0-.3,0-1.5-.2-2.7.8-2.9,2.6l-1.2,21.9c1.9.2,3.8.6,5.5,1l1.2-21.9c0-2.1-1.2-3.2-2.4-3.5"/><path class="cls-6" d="M1331.7,680.4v-.4s0-.2,0-.2c0,0,0-.2,0-.3-.2.3-.2.3-.3,1.2,0-5-1.7-3.6-1.8-3.6-.2.3-.4.7-.4,1-.5-4-2.8-4.1-3.7-3.1-.2.2-.3.5-.4.8-.9-3.8-4.3-4-5.3-2.3,0,.1-.2.3-.2.4-1.1-3.6-5.2-3.8-6.6-1.2-.4-1.1-.9-1.7-2-2.2h0c-.4-.2-.8-.3-1.5-.3-1,0-3.5.2-3.9,3.3h.4c.6-4,5.2-3.2,6.3-1.4.4.6.4,1.3.4,1.8.1,0,.2,0,.4,0,.6-3.8,4.8-2.8,5.9-.7.3.7.4,1.3.4,1.8.1,0,.2,0,.3,0,.5-3.6,3.7-2.4,4.7-.7.5.9.5,1.7.5,2.4,0,0,.2,0,.3.1.4-3.1,2.3-2.2,3-1.3.8,1.1.8,2.7.8,3.5,0,0,.1,0,.2.1.3-3,1.4-1.8,1.4-1.8.8.9.7,3.3.6,4.2,0,0,0,0,0,.1,0-1.2.2-1.6.3-2,0,.1.1.3,0,.4"/><g class="cls-3"><path class="cls-4" d="M1332.8,677.6v1.3c0,0,0,0,0,0,0,0,0-.2,0-.3h0c0-.1,0-.2,0-.2,0,0,0,0,0,0,0,0,0-.2,0-.3,0,0,0-.1,0-.2,0,0,0,0,0-.1,0,0,0-.2,0-.2,0-.2-.2-.4-.3-.6,0,0-.1-.2-.2-.3-2.6-3.7-11.2-6.9-21.5-7.6-7.5-.5-14.1.4-18.2,2.3-.5.2-.9.4-1.3.7,0,0-.2,0-.2.2-.2,0-.3.2-.5.3,0,0-.2,0-.2.2-.4.3-.7.6-1,.9,0,0,0,0,0,0,0,.1-.2.2-.3.3,0,0-.1.2-.2.2t0,0c0,0-.1.2-.2.3,0,0,0,.2-.1.2,0,0,0,0,0,.1,0,0,0,.2,0,.2,0,0,0,.2,0,.3,0,.1,0,.2,0,.3v-1.2c0-.2,0-.3.1-.5,0,0,0-.2,0-.3h0c0-.1,0-.2,0-.3.1-.3.3-.6.5-.9,0,0,.2-.2.2-.3,0,0,0,0,.1-.1,0,0,0-.1.1-.2.2-.2.3-.3.5-.5.1-.1.3-.2.4-.3.1,0,.2-.2.4-.2.2-.2.5-.3.8-.5.2,0,.3-.2.4-.2.2,0,.3-.2.5-.2,4.1-1.8,10.7-2.8,18.2-2.3,10.3.7,18.9,3.9,21.5,7.6.5.7.8,1.5.8,2.3h0c0,0,0,.1,0,.1Z"/><path class="cls-1" d="M1331.9,676.6l-.3,4.7c.7-.8,1-1.6,1-2.4,0-.8-.3-1.5-.8-2.3Z"/><path class="cls-1" d="M1289.1,673.4c-.7.8-1,1.6-1,2.4s.3,1.5.8,2.3l.3-4.7h0Z"/></g><path class="cls-5" d="M1312.1,675.8v2.4c-.1-2-1.5-3.1-2.8-3.2,0,0-.2,0-.3,0-1.6,0-2.8,1.2-3,2.9v-2.4c.3-1.8,1.5-2.9,3.1-2.9,0,0,.2,0,.3,0,1.3.1,2.7,1.2,2.7,3.2Z"/><path class="cls-5" d="M1305,675.5v2.4c-.1-1.9-1.4-2.9-2.6-2.8,0,0-.2,0-.3,0-1.4.2-2.4,1.5-2.6,3.2v-2.4c.3-1.8,1.3-3,2.8-3.2,0,0,.2,0,.3,0,1.2,0,2.5.9,2.4,2.8Z"/><path class="cls-5" d="M1298.7,676.1v2.4c0-1.9-1.1-2.7-2.2-2.5,0,0-.1,0-.2,0-1.4.4-2,2.1-2.1,3.5v-2.4c.3-1.4.9-3.1,2.2-3.5,0,0,.2,0,.2,0,1-.2,2.1.6,2,2.5Z"/><path class="cls-5" d="M1293.6,677.4v2.4c0-1.8-.8-2.6-1.6-2.3,0,0,0,0-.2,0-1.1.7-1.4,2.9-1.4,3.8v-2.4c.2-.9.5-3.1,1.6-3.8,0,0,0,0,.2,0,.7-.3,1.5.4,1.4,2.3Z"/><path class="cls-5" d="M1290.1,679.4v2.4c0-1.8-.5-2.4-.8-2.1,0,0,0,0,0,0,0,0,0,0,0,0-.2.4-.5,1.2-.7,4v-2.4c.3-2.8.6-3.6.8-4,0,0,0,0,0,0,0,0,0,0,0,0,.3-.2.7.3.6,2.1Z"/><path class="cls-5" d="M1331.6,682.2v2.4c-.1,0-.1,0-.1,0,0,0,0,0,0,0-.1.5-.2.9-.3,2v-2.4c.2-1.1.3-1.5.4-2,0,0,0,0,0,0h0Z"/><path class="cls-5" d="M1331.1,683.5v2.4c0-2-.2-3.5-.7-4,0,0,0,0,0,0-.5-.5-1.1.1-1.2,2v-2.4c.3-1.8.9-2.4,1.4-2,0,0,0,0,0,0,.4.6.6,2,.5,4Z"/><path class="cls-5" d="M1328.7,681v2.4c0-1.8-.6-3.4-1.4-3.9,0,0-.1,0-.2,0-1-.5-1.8.4-1.9,2.1v-2.4c.3-1.7,1.1-2.5,2.1-2.1,0,0,.1,0,.2,0,.8.5,1.4,2.1,1.3,3.9Z"/><path class="cls-5" d="M1324.5,678.7v2.4c0-2.2-1.1-3.4-2.1-3.7,0,0-.2,0-.2,0-1.3-.3-2.3.6-2.5,2.3v-2.4c.3-1.7,1.3-2.6,2.6-2.3,0,0,.2,0,.2,0,.9.3,2,1.5,1.9,3.7Z"/><path class="cls-5" d="M1318.8,676.9v2.4c-.1-2.1-1.3-3.2-2.5-3.5h-.3c-1.5-.2-2.7.8-2.9,2.5v-2.4c.3-1.7,1.5-2.7,3-2.6h.3c1.2.3,2.4,1.5,2.4,3.5Z"/><path class="cls-2" d="M1338.8,708.2l-11.6,201-59.8-4.5,11.6-201c0,0,.1-.1.2-.2.2-.2.4-.4.7-.7.2-.2.4-.3.6-.5.2-.1.3-.2.5-.3.3-.2.7-.5,1.1-.7.2-.1.4-.2.6-.3s.4-.2.7-.3c5.7-2.6,14.9-3.8,25.4-3.1,14.4,1,26.4,5.5,30,10.7h0Z"/><path class="cls-6" d="M1286.1,705.4c-1.2.5-1.8,2.2-1.9,3.6l-.9,16.5c1.1-.5,2.3-.9,3.6-1.3l.9-16.5c0-2.1-1-2.6-1.7-2.4"/><path class="cls-6" d="M1282.3,707.2c-1.1.8-1.3,3.1-1.4,3.8l-.9,16.5c.7-.6,1.6-1.1,2.6-1.6l.9-16.5c0-2.1-.7-2.5-1.2-2.2"/><path class="cls-6" d="M1279.8,709.2c-.6.8-.8,2.8-.8,3.9l-.9,16.5c.4-.7.9-1.3,1.6-1.9l.9-16.5c0-2-.4-2.5-.7-2.1"/><path class="cls-6" d="M1277.7,730c-.2.5-.3,0-.3.6l1-18.1c0-.5,0-.7,0-1,0,0,0-.1,0-.2.1.1-.1,6.3-.8,18.6"/><path class="cls-6" d="M1293.2,702.8c.1.2.2.5.3.8,0-.4-.2-.7-.3-.8M1293.1,702.6s0,.1.1.2c0,0,0-.1-.1-.2M1293.1,702.5s0,0,0,0c0,0,0,0,0,0M1288.9,703.4h0M1293,702.4s0,0,0,0c0,0,0,0,0,0M1288.9,703.2s0,0,0,0c0,0,0,0,0,0M1292.9,702.4s0,0,0,0c0,0,0,0,0,0M1289,703.1s0,0,0,0c0,0,0,0,0,0M1292.9,702.3s0,0,0,0c0,0,0,0,0,0M1289.1,703s0,0,0,0c0,0,0,0,0,0M1292.8,702.2s0,0,0,0c0,0,0,0,0,0M1289.2,702.9s0,0,0,0c0,0,0,0,0,0M1292.7,702.1s0,0,0,0c0,0,0,0,0,0M1289.3,702.8s0,0,0,.1c0,0,0,0,0-.1M1292.6,702.1s0,0,0,0c0,0,0,0,0,0M1292.5,702s0,0,0,0c0,0,0,0,0,0M1292.4,702s0,0,0,0c0,0,0,0,0,0M1292.4,701.9s0,0,0,0c0,0,0,0,0,0M1292.3,701.9s0,0,0,0c0,0,0,0,0,0M1292.2,701.9s0,0,0,0c0,0,0,0,0,0M1292.1,701.8s0,0,0,0c0,0,0,0,0,0M1292,701.8s0,0,0,0c0,0,0,0,0,0M1291.9,701.8s0,0,0,0c0,0,0,0,0,0M1290.1,702.1c-.3.2-.6.4-.8.7.3-.3.5-.5.8-.7M1291.8,701.8s0,0,0,0c0,0,0,0,0,0M1290.2,702s0,0-.1,0c0,0,0,0,.1,0M1291.7,701.7s0,0,0,0c0,0,0,0,0,0M1290.3,702s0,0,0,0c0,0,0,0,0,0M1291.5,701.7h0,0M1290.4,702s0,0,0,0c0,0,0,0,0,0M1291.4,701.7h0,0M1290.5,701.9s0,0,0,0c0,0,0,0,0,0M1291.3,701.7h0,0M1290.6,701.9s0,0,0,0c0,0,0,0,0,0M1291.2,701.7h0,0M1290.7,701.8h0,0M1291.1,701.8s0,0,0,0c0,0,0,0,0,0M1290.8,701.8h0,0M1288.3,704.7c0-.2-.3-2.5-2.5-1.5-.8.6-1.3,1.2-1.8,2.8-.5-2.5-1.9-1.2-2.4-.5-.5.8-.7,1.8-.8,2.4-.3-2.4-1.1-1-1.2-.9-.5.8-.7,2.4-.7,3.1,0-.8,0-1.1-.2-1.3h0c-.1.2-.1.5-.2,1.5h0c0-.8,0-1,.2-1.1.2.2.1,1.4.1,2.1,0,0,0,0,0-.1.4-5.1,1.4-4.2,1.5-4.2.4.3.3,1.6.3,2.1,0,0,0,0,.1-.1.4-4.3,2.1-4.5,2.7-3.7.4.5.4,1.3.4,1.9,0,0,.1,0,.2,0,.4-4.1,2.8-4.2,3.6-3.4.5.6.5,1.3.5,2,0-.2,0-.6.2-1M1288.4,705.7c0,0-.2,0-.3,0,0,0,.2,0,.3,0M1288.5,705.1c0,.2,0,.5,0,.7,0-.2,0-.5,0-.7M1288.6,704.5c0,.2-.1.4-.2.6,0-.2.1-.4.2-.6M1288.9,703.9c0,.2-.2.4-.2.6,0-.2.2-.4.2-.6M1289.2,703.4c0,.2-.2.3-.3.5,0-.2.2-.3.3-.5M1289.5,703c-.1.1-.2.3-.4.4.1-.1.2-.3.4-.4M1289.5,703c.1-.1.3-.2.4-.4-.1.1-.3.2-.4.4M1290.4,702.3c-.1,0-.3.2-.5.3.1,0,.3-.2.5-.3M1290.9,702.2c-.2,0-.4.1-.5.2.2,0,.4-.1.5-.2M1290.9,702.2c.2,0,.4,0,.5,0-.2,0-.4,0-.5,0M1291.9,702.2c-.1,0-.3,0-.5,0,.1,0,.3,0,.5,0M1292.3,702.4c-.1,0-.3-.1-.4-.2.1,0,.3.1.4.2M1292.7,702.7c-.1,0-.2-.2-.4-.3.1,0,.2.2.4.3M1293,703.1c0-.1-.2-.3-.3-.4,0,.1.2.3.3.4M1293.2,703.5c0-.1-.1-.3-.2-.5,0,.1.1.3.2.5M1293.3,704.1c0-.2,0-.4-.1-.5,0,.2,0,.4.1.5M1293.3,704.7c0,0,.2,0,.3,0,0,0-.2,0-.3,0v-.6.6M1291,701.8s0,0,.1,0c0,0,0,0-.1,0"/><path class="cls-6" d="M1337.6,713.9c-.4-.6-.8.4-.9,1.6,0,0,0,.2,0,.3l-.9,16.5c.6.7,1,1.4,1.2,2.1l.9-16.5c.2-3-.2-3.8-.3-4"/><path class="cls-6" d="M1335.4,711.5c-.7-.5-1.3.3-1.4,2l-.9,16.5c.9.6,1.7,1.3,2.3,2l.9-16.5c0-2.2-.4-3.6-.9-4"/><path class="cls-6" d="M1332,709.2c-1-.4-1.8.4-1.9,2.1l-.9,16.5c1.2.6,2.3,1.2,3.3,1.8l.9-16.5c0-2.1-.7-3.5-1.4-3.9"/><path class="cls-6" d="M1327.6,707.1c-1.2-.4-2.1.5-2.3,2.2l-.9,16.5c1.5.5,2.8,1,4.1,1.6l.9-16.5c0-2.4-1.2-3.5-1.8-3.8"/><path class="cls-6" d="M1322.2,705.4c-1.4-.3-2.4.7-2.6,2.4l-.9,16.5c1.7.4,3.3.8,4.8,1.3l.9-16.5c0-2.2-1.3-3.4-2.2-3.6"/><path class="cls-6" d="M1316.2,704.1c-1.6-.2-2.7.8-2.9,2.6l-.9,16.5c1.8.2,3.6.5,5.3.9l.9-16.5c0-2.2-1.4-3.3-2.4-3.5"/><path class="cls-6" d="M1309.5,703.3c-1.7,0-2.9,1-3,2.8l-.9,16.5c.6,0,1.2,0,1.9.1,1.3,0,2.6.2,3.8.4l.9-16.5c0-2.2-1.6-3.2-2.7-3.3"/><path class="cls-6" d="M1302.7,703c-1.6,0-2.7,1.3-2.8,3l-.9,16.5c1.8,0,3.6,0,5.5,0l.9-16.5c0-2.2-1.6-3-2.6-3"/><path class="cls-6" d="M1296.4,703.3c-1.4.2-2.4,1.5-2.6,3.3l-.9,16.5c1.6-.2,3.2-.4,5-.5l.9-16.5c0-2.2-1.4-2.9-2.4-2.8"/><path class="cls-6" d="M1290.8,704.1c-1.2.3-2.1,1.7-2.3,3.5l-.9,16.5c1.3-.3,2.8-.7,4.3-.9l.9-16.5c0-2.2-1.2-2.7-2.1-2.6"/><path class="cls-6" d="M1338.4,713.9h0s0,0,0,0M1338.4,713.9h0s0,0,0,0M1338.4,714h0s0,0,0,0M1338.4,714.4h0M1338.4,714.4h0M1338.4,714.4h0M1338.4,714.4h0M1338.4,714.4h0M1338.4,714.4h0M1338.4,714.4h0M1338.4,714.4h0M1338.4,714.4h0M1338.4,714.4h0M1338.4,714.4h0M1338.4,714.4h0M1338.4,714.4h0M1338.4,714.4h0M1338.4,714h0s0,0,0,0M1338.4,714.3h0s0,0,0,0M1338.4,714.1h0s0,0,0,0M1338.4,714.2h0s0,0,0,0M1338.4,714.1h0s0,0,0,0M1338.1,716.3s0,0,0-.1c0,0,0,0,0,.1M1338.1,715.1c0-.1,0-.3,0-.4,0,0,0,0,0,0,0,0,0,.2,0,.3,0-2.4-.2-3.2-.6-3.7,0,0-.2,0-.3,0-.3.3-.4.4-.6,1.2-.3-4.1-1.9-3.8-2.3-3.4-.2.3-.4.7-.5,1-.5-3.8-2.8-4-3.6-3-.2.2-.3.5-.4.8-.8-3.8-3.8-4-4.7-2.3,0,.1-.1.3-.2.4-.9-3.6-4.5-4.1-5.7-1.5-1-3.3-4.9-3.9-6.4-1.1-1.1-3.1-5.4-3.5-6.8-.6-1.1-3.1-5.2-3.1-6.6,0-1-3-4.7-2.6-6,.6-.4-1.4-1.3-2-2.6-1.7-2.1.5-2.7,2.6-2.8,3.8,0,.1.2.1.2,0,.5-4.1,3.8-4.1,4.6-2.7.3.5.3,1.2.3,1.7,0,0,.2,0,.3,0,.6-4.1,4.3-3.8,5.3-2.2.3.6.4,1.2.4,1.7.1,0,.2,0,.3,0,.6-4,4.8-3.4,5.8-1.8.4.6.4,1.2.4,1.7.1,0,.2,0,.4,0,.6-4,5-3,6.1-1.2.4.6.4,1.3.4,1.8.1,0,.2,0,.4,0,.6-3.7,4.7-2.8,5.7-.8.3.7.3,1.3.4,1.8.1,0,.2,0,.3,0,.5-3.5,3.8-2.6,4.8-.9.6.9.6,1.7.6,2.4,0,0,.2,0,.3,0,.4-3.3,3-2.4,3.9-1.1.8,1,.8,2.3.8,2.9,0,0,.2,0,.2.1.4-3.3,2.4-2,2.9-1.3.9,1.1.8,2.7.8,3.4,0,0,.1,0,.2.1.4-3.4,1.9-1.6,1.9-1.6.5.7.8,2,.7,3.8,0,0,0,0,.1.1.2-1.6.3-1.8.7-2.1.4.3.8.7.7,4.5,0-.3,0-.8,0-1.1M1338.1,716.3c0-.2,0-.4,0-.6,0,.2,0,.4,0,.6M1338.2,714.7h0s0,0,0,0h0M1338.1,715.7c0-.2,0-.4,0-.5,0,.2,0,.4,0,.5M1338.2,714.6v-.3c0,0,0,.1,0,.1,0,0,0,0,0,.2M1338.2,714.3h0s0,0,0,0h0M1338.2,715.2c0-.1,0-.3,0-.4,0,.1,0,.3,0,.4M1338.3,714.5c0,0,0,.2,0,.3,0,0,0-.2,0-.3M1338.3,714.1s0,0,0-.1h0c0,.2,0,.2,0,.4,0,0,0-.2,0-.2M1338.3,713.9h0s0,0,0,0M1338.3,714.3s0,.1,0,.2c0,0,0-.1,0-.2M1338.3,713.9h0s0,0,0,0c0,0,0,0,0,0M1338.4,713.9h0M1338.4,714.3s0,0,0,0c0,0,0,0,0,0M1338.4,713.9h0s0,0,0,0h0M1338.4,714.3s0,0,0,0c0,0,0,0,0,0M1338.4,714.3v.2-.2M1338.4,714.8v-.2.2M1338.4,714.2h0s0,0,0,0"/><path class="cls-6" d="M1337,734.9l.9-16.5c0-1,.1-1.7.2-2,0,0,0,.1,0,.2v.2l-1,17.9"/><path class="cls-6" d="M1338.4,714.8v-.4h0v-.2c0-.2,0-.2,0-.3-.2.3-.3,1.7-.3,2.3,0,0,0,0,0,.1,0-.6.1-1.8.3-2,0,0,0,.1,0,.5"/><path class="cls-6" d="M1284.6,730.6c-1.2.5-1.8,2.2-1.9,3.6l-.9,16.5c1.1-.5,2.3-.9,3.6-1.3l.9-16.5c0-2.1-1-2.6-1.7-2.4"/><path class="cls-6" d="M1280.9,732.3c-1.1.8-1.3,3.1-1.4,3.8l-.9,16.5c.7-.6,1.6-1.1,2.6-1.6l.9-16.5c0-2.1-.7-2.5-1.2-2.2"/><path class="cls-6" d="M1278.3,734.4c-.6.8-.8,2.8-.8,3.9l-.9,16.5c.4-.7.9-1.3,1.6-1.9l.9-16.5c0-2-.4-2.5-.7-2.1"/><path class="cls-6" d="M1276.3,755.2c-.2.5-.4.2-.5.8l1.2-18.2c0-.5,0-.7,0-1,0,0,0-.1,0-.2.4.4-.8,18.4-.8,18.6"/><path class="cls-6" d="M1291.8,728c.1.2.2.5.3.8,0-.4-.2-.7-.3-.8M1291.7,727.8s0,.1.1.2c0,0,0-.1-.1-.2M1291.6,727.7s0,0,0,0c0,0,0,0,0,0M1287.4,728.5h0M1291.6,727.6s0,0,0,0c0,0,0,0,0,0M1287.5,728.4s0,0,0,0c0,0,0,0,0,0M1291.5,727.5s0,0,0,0c0,0,0,0,0,0M1287.6,728.3s0,0,0,0c0,0,0,0,0,0M1291.4,727.5s0,0,0,0c0,0,0,0,0,0M1287.6,728.2s0,0,0,0c0,0,0,0,0,0M1291.3,727.4s0,0,0,0c0,0,0,0,0,0M1287.7,728.1s0,0,0,0c0,0,0,0,0,0M1291.2,727.3s0,0,0,0c0,0,0,0,0,0M1287.8,728s0,0,0,.1c0,0,0,0,0-.1M1291.2,727.3s0,0,0,0c0,0,0,0,0,0M1291.1,727.2s0,0,0,0c0,0,0,0,0,0M1291,727.2s0,0,0,0c0,0,0,0,0,0M1290.9,727.1s0,0,0,0c0,0,0,0,0,0M1290.8,727.1s0,0,0,0c0,0,0,0,0,0M1290.7,727s0,0,0,0c0,0,0,0,0,0M1290.6,727s0,0,0,0c0,0,0,0,0,0M1290.5,727s0,0,0,0c0,0,0,0,0,0M1290.4,726.9s0,0,0,0c0,0,0,0,0,0M1288.7,727.3c-.3.2-.6.4-.8.7.3-.3.5-.5.8-.7M1290.3,726.9s0,0,0,0c0,0,0,0,0,0M1288.8,727.2s0,0-.1,0c0,0,0,0,.1,0M1290.2,726.9h0,0M1288.8,727.2s0,0,0,0c0,0,0,0,0,0M1290.1,726.9h0,0M1289,727.1s0,0,0,0c0,0,0,0,0,0M1290,726.9h0,0M1289.1,727.1s0,0,0,0c0,0,0,0,0,0M1289.9,726.9h0,0M1289.2,727.1s0,0,0,0c0,0,0,0,0,0M1289.8,726.9h0,0M1289.3,727h0,0M1289.6,726.9s0,0,0,0c0,0,0,0,0,0M1289.4,727h0,0M1286.8,729.9c0-.2-.3-2.5-2.5-1.5-.8.6-1.3,1.2-1.8,2.8-.5-2.5-1.9-1.2-2.4-.5-.5.8-.7,1.8-.8,2.4-.3-2.4-1.1-1-1.2-.9-.5.8-.7,2.4-.7,3.1,0-.8,0-1.1-.2-1.3h0c-.1.2-.1.5-.2,1.5h0c0-.8,0-1,.2-1.1.2.2.1,1.4.1,2.1,0,0,0,0,0-.1.4-5.1,1.4-4.2,1.5-4.2.4.3.3,1.6.3,2.1,0,0,0,0,.1-.1.4-4.3,2.1-4.5,2.7-3.7.4.5.4,1.3.4,1.9,0,0,.1,0,.2,0,.4-4.1,2.8-4.2,3.6-3.4.5.6.5,1.3.5,2,0-.2,0-.6.2-1M1286.9,730.9c0,0-.2,0-.3,0,0,0,.2,0,.3,0M1287,730.3c0,.2,0,.5,0,.7,0-.2,0-.5,0-.7M1287.2,729.6c0,.2-.1.4-.2.6,0-.2.1-.4.2-.6M1287.4,729.1c0,.2-.2.4-.2.6,0-.2.2-.4.2-.6M1287.7,728.6c0,.2-.2.3-.3.5,0-.2.2-.3.3-.5M1288.1,728.1c-.1.1-.2.3-.4.4.1-.1.2-.3.4-.4M1288.1,728.1c.1-.1.3-.2.4-.4-.1.1-.3.2-.4.4M1289,727.5c-.1,0-.3.2-.5.3.1,0,.3-.2.5-.3M1289.5,727.3c-.2,0-.4.1-.5.2.2,0,.4-.1.5-.2M1289.5,727.3c.2,0,.4,0,.5,0-.2,0-.4,0-.5,0M1290.5,727.4c-.1,0-.3,0-.5,0,.1,0,.3,0,.5,0M1290.9,727.6c-.1,0-.3-.1-.4-.2.1,0,.3.1.4.2M1291.3,727.8c-.1,0-.2-.2-.4-.3.1,0,.2.2.4.3M1291.5,728.2c0-.1-.2-.3-.3-.4,0,.1.2.3.3.4M1291.7,728.7c0-.1-.1-.3-.2-.5,0,.1.1.3.2.5M1291.8,729.3c0-.2,0-.4-.1-.5,0,.2,0,.4.1.5M1291.9,729.9c0,0,.2,0,.3,0,0,0-.2,0-.3,0v-.6.6M1289.5,727s0,0,.1,0c0,0,0,0-.1,0"/><path class="cls-6" d="M1336.1,739.1c-.4-.6-.8.4-.9,1.6,0,0,0,.2,0,.3l-.9,16.5c.6.7,1,1.4,1.2,2.1l.9-16.5c.2-3-.2-3.8-.3-4"/><path class="cls-6" d="M1333.9,736.6c-.7-.5-1.3.3-1.4,2l-.9,16.5c.9.6,1.7,1.3,2.3,2l.9-16.5c0-2.2-.4-3.6-.9-4"/><path class="cls-6" d="M1330.6,734.4c-1-.4-1.8.4-1.9,2.1l-.9,16.5c1.2.6,2.3,1.2,3.3,1.8l.9-16.5c0-2.1-.7-3.5-1.4-3.9"/><path class="cls-6" d="M1326.1,732.3c-1.2-.4-2.1.5-2.3,2.2l-.9,16.5c1.5.5,2.8,1,4.1,1.6l.9-16.5c0-2.4-1.2-3.5-1.8-3.8"/><path class="cls-6" d="M1320.8,730.6c-1.4-.3-2.4.7-2.6,2.4l-.9,16.5c1.7.4,3.3.8,4.8,1.3l.9-16.5c0-2.2-1.3-3.4-2.2-3.6"/><path class="cls-6" d="M1314.7,729.3c-1.6-.2-2.7.8-2.9,2.6l-.9,16.5c1.8.2,3.6.5,5.3.9l.9-16.5c0-2.2-1.4-3.3-2.4-3.5"/><path class="cls-6" d="M1308,728.5c-1.7,0-2.9,1-3,2.8l-.9,16.5c.6,0,1.2,0,1.9.1,1.3,0,2.6.2,3.8.4l.9-16.5c0-2.2-1.6-3.2-2.7-3.3"/><path class="cls-6" d="M1301.2,728.2c-1.6,0-2.7,1.3-2.8,3l-.9,16.5c1.8,0,3.6,0,5.5,0l.9-16.5c0-2.2-1.6-3-2.6-3"/><path class="cls-6" d="M1295,728.5c-1.4.2-2.4,1.5-2.6,3.3l-.9,16.5c1.6-.2,3.2-.4,5-.5l.9-16.5c0-2.2-1.4-2.9-2.4-2.8"/><path class="cls-6" d="M1289.4,729.3c-1.2.3-2.1,1.7-2.3,3.5l-.9,16.5c1.3-.3,2.8-.7,4.3-.9l.9-16.5c0-2.2-1.2-2.7-2.1-2.6"/><path class="cls-6" d="M1336.9,739.1h0s0,0,0,0M1336.9,739.1h0s0,0,0,0M1337,739.1h0s0,0,0,0M1336.9,739.5h0M1336.9,739.5h0M1336.9,739.5h0M1336.9,739.5h0M1336.9,739.5h0M1336.9,739.5h0M1336.9,739.5h0M1336.9,739.6h0M1336.9,739.6h0M1336.9,739.6h0M1336.9,739.6h0M1336.9,739.6h0M1336.9,739.6h0M1336.9,739.6h0M1337,739.2h0s0,0,0,0M1337,739.5h0s0,0,0,0M1337,739.2h0s0,0,0,0M1337,739.4h0s0,0,0,0M1337,739.3h0s0,0,0,0M1336.6,741.5s0,0,0-.1c0,0,0,0,0,.1M1336.7,740.2c0-.1,0-.3,0-.4,0,0,0,0,0,0,0,0,0,.2,0,.3,0-2.4-.2-3.2-.6-3.7,0,0-.2,0-.3,0-.3.3-.4.4-.6,1.2-.3-4.1-1.9-3.8-2.3-3.4-.2.3-.4.7-.5,1-.5-3.8-2.8-4-3.6-3-.2.2-.3.5-.4.8-.8-3.8-3.8-4-4.7-2.3,0,.1-.1.3-.2.4-.9-3.6-4.5-4.1-5.7-1.5-1-3.3-4.9-3.9-6.4-1.1-1.1-3.1-5.4-3.5-6.8-.6-1.1-3.1-5.2-3.1-6.6,0-1-3-4.7-2.6-6,.6-.4-1.4-1.3-2-2.6-1.7-2.1.5-2.7,2.6-2.8,3.8,0,.1.2.1.2,0,.5-4.1,3.8-4.1,4.6-2.7.3.5.3,1.2.3,1.7,0,0,.2,0,.3,0,.6-4.1,4.3-3.8,5.3-2.2.3.6.4,1.2.4,1.7.1,0,.2,0,.3,0,.6-4,4.8-3.4,5.8-1.8.4.6.4,1.2.4,1.7.1,0,.2,0,.4,0,.6-4,5-3,6.1-1.2.4.6.4,1.3.4,1.8.1,0,.2,0,.4,0,.6-3.7,4.7-2.8,5.7-.8.3.7.3,1.3.4,1.8.1,0,.2,0,.3,0,.5-3.5,3.8-2.6,4.8-.9.6.9.6,1.7.6,2.4,0,0,.2,0,.3,0,.4-3.3,3-2.4,3.9-1.1.8,1,.8,2.3.8,2.9,0,0,.2,0,.2.1.4-3.3,2.4-2,2.9-1.3.9,1.1.8,2.7.8,3.4,0,0,.1,0,.2.1.4-3.4,1.9-1.6,1.9-1.6.5.7.8,2,.7,3.8,0,0,0,0,.1.1.2-1.6.3-1.8.7-2.1.4.3.8.7.7,4.5,0-.3,0-.8,0-1.1M1336.6,741.5c0-.2,0-.4,0-.6,0,.2,0,.4,0,.6M1336.7,739.8h0s0,0,0,0h0M1336.7,740.9c0-.2,0-.4,0-.5,0,.2,0,.4,0,.5M1336.7,739.8v-.3c0,0,0,.1,0,.1,0,0,0,0,0,.2M1336.8,739.5h0s0,0,0,0h0M1336.7,740.4c0-.1,0-.3,0-.4,0,.1,0,.3,0,.4M1336.8,739.7c0,0,0,.2,0,.3,0,0,0-.2,0-.3M1336.8,739.2s0,0,0-.1h0c0,.2,0,.2,0,.4,0,0,0-.2,0-.2M1336.9,739.1h0s0,0,0,0M1336.9,739.5s0,.1,0,.2c0,0,0-.1,0-.2M1336.9,739.1h0s0,0,0,0c0,0,0,0,0,0M1336.9,739h0M1336.9,739.4s0,0,0,0c0,0,0,0,0,0M1336.9,739h0s0,0,0,0h0M1336.9,739.5s0,0,0,0c0,0,0,0,0,0M1336.9,739.5v.2-.2M1336.9,740v-.2.2M1337,739.3h0s0,0,0,0"/><path class="cls-6" d="M1335.6,760.1l.9-16.5c0-1,.1-1.7.2-2,0,0,0,.1,0,.2v.2l-1,18.1"/><path class="cls-6" d="M1336.9,740v-.4h0v-.2c0-.2,0-.2,0-.3-.2.3-.3,1.7-.3,2.3,0,0,0,0,0,.1,0-.6.1-1.8.3-2,0,0,0,.1,0,.5"/><path class="cls-6" d="M1283.2,755.8c-1.2.5-1.8,2.2-1.9,3.6l-.9,16.5c1.1-.5,2.3-.9,3.6-1.3l.9-16.5c0-2.1-1-2.6-1.7-2.4"/><path class="cls-6" d="M1279.4,757.5c-1.1.8-1.3,3.1-1.4,3.8l-.9,16.5c.7-.6,1.6-1.1,2.6-1.6l.9-16.5c0-2.1-.7-2.5-1.2-2.2"/><path class="cls-6" d="M1276.8,759.6c-.6.8-.8,2.8-.8,3.9l-.9,16.5c.4-.7.9-1.3,1.6-1.9l.9-16.5c0-2-.4-2.5-.7-2.1"/><path class="cls-6" d="M1274.8,780.4c-.2.5-.3,0-.3.6l1-18.1c0-.5,0-.7,0-1,0,0,0-.1,0-.2.4.4-.8,18.4-.8,18.6"/><path class="cls-6" d="M1290.3,753.1c.1.2.2.5.3.8,0-.4-.2-.7-.3-.8M1290.2,753s0,.1.1.2c0,0,0-.1-.1-.2M1290.2,752.9s0,0,0,0c0,0,0,0,0,0M1285.9,753.7h0M1290.1,752.8s0,0,0,0c0,0,0,0,0,0M1286,753.6s0,0,0,0c0,0,0,0,0,0M1290,752.7s0,0,0,0c0,0,0,0,0,0M1286.1,753.5s0,0,0,0c0,0,0,0,0,0M1290,752.6s0,0,0,0c0,0,0,0,0,0M1286.2,753.4s0,0,0,0c0,0,0,0,0,0M1289.9,752.6s0,0,0,0c0,0,0,0,0,0M1286.3,753.3s0,0,0,0c0,0,0,0,0,0M1289.8,752.5s0,0,0,0c0,0,0,0,0,0M1286.4,753.1s0,0,0,.1c0,0,0,0,0-.1M1289.7,752.4s0,0,0,0c0,0,0,0,0,0M1289.6,752.4s0,0,0,0c0,0,0,0,0,0M1289.5,752.3s0,0,0,0c0,0,0,0,0,0M1289.4,752.3s0,0,0,0c0,0,0,0,0,0M1289.3,752.2s0,0,0,0c0,0,0,0,0,0M1289.3,752.2s0,0,0,0c0,0,0,0,0,0M1289.2,752.2s0,0,0,0c0,0,0,0,0,0M1289.1,752.1s0,0,0,0c0,0,0,0,0,0M1289,752.1s0,0,0,0c0,0,0,0,0,0M1287.2,752.5c-.3.2-.6.4-.8.7.3-.3.5-.5.8-.7M1288.8,752.1s0,0,0,0c0,0,0,0,0,0M1287.3,752.4s0,0-.1,0c0,0,0,0,.1,0M1288.8,752.1h0,0M1287.4,752.4s0,0,0,0c0,0,0,0,0,0M1288.6,752.1h0,0M1287.5,752.3s0,0,0,0c0,0,0,0,0,0M1288.5,752.1h0,0M1287.6,752.3s0,0,0,0c0,0,0,0,0,0M1288.4,752.1h0,0M1287.7,752.2s0,0,0,0c0,0,0,0,0,0M1288.3,752.1h0,0M1287.8,752.2h0,0M1288.2,752.1s0,0,0,0c0,0,0,0,0,0M1287.9,752.2h0,0M1285.4,755.1c0-.2-.3-2.5-2.5-1.5-.8.6-1.3,1.2-1.8,2.8-.5-2.5-1.9-1.2-2.4-.5-.5.8-.7,1.8-.8,2.4-.3-2.4-1.1-1-1.2-.9-.5.8-.7,2.4-.7,3.1,0-.8,0-1.1-.2-1.3h0c-.1.2-.1.5-.2,1.5h0c0-.8,0-1,.2-1.1.2.2.1,1.4.1,2.1,0,0,0,0,0-.1.4-5.1,1.4-4.2,1.5-4.2.4.3.3,1.6.3,2.1,0,0,0,0,.1-.1.4-4.3,2.1-4.5,2.7-3.7.4.5.4,1.3.4,1.9,0,0,.1,0,.2,0,.4-4.1,2.8-4.2,3.6-3.4.5.6.5,1.3.5,2,0-.2,0-.6.2-1M1285.5,756.1c0,0-.2,0-.3,0,0,0,.2,0,.3,0M1285.6,755.4c0,.2,0,.5,0,.7,0-.2,0-.5,0-.7M1285.7,754.8c0,.2-.1.4-.2.6,0-.2.1-.4.2-.6M1285.9,754.3c0,.2-.2.4-.2.6,0-.2.2-.4.2-.6M1286.2,753.8c0,.2-.2.3-.3.5,0-.2.2-.3.3-.5M1286.6,753.3c-.1.1-.2.3-.4.4.1-.1.2-.3.4-.4M1286.6,753.3c.1-.1.3-.2.4-.4-.1.1-.3.2-.4.4M1287.5,752.7c-.1,0-.3.2-.5.3.1,0,.3-.2.5-.3M1288,752.5c-.2,0-.4.1-.5.2.2,0,.4-.1.5-.2M1288,752.5c.2,0,.4,0,.5,0-.2,0-.4,0-.5,0M1289,752.5c-.1,0-.3,0-.5,0,.1,0,.3,0,.5,0M1289.4,752.7c-.1,0-.3-.1-.4-.2.1,0,.3.1.4.2M1289.8,753c-.1,0-.2-.2-.4-.3.1,0,.2.2.4.3M1290.1,753.4c0-.1-.2-.3-.3-.4,0,.1.2.3.3.4M1290.3,753.9c0-.1-.1-.3-.2-.5,0,.1.1.3.2.5M1290.4,754.4c0-.2,0-.4-.1-.5,0,.2,0,.4.1.5M1290.4,755.1c0,0,.2,0,.3,0,0,0-.2,0-.3,0v-.6.6M1288.1,752.1s0,0,.1,0c0,0,0,0-.1,0"/><path class="cls-6" d="M1334.6,764.3c-.4-.6-.8.4-.9,1.6,0,0,0,.2,0,.3l-.9,16.5c.6.7,1,1.4,1.2,2.1l.9-16.5c.2-3-.2-3.8-.3-4"/><path class="cls-6" d="M1332.5,761.8c-.7-.5-1.3.3-1.4,2l-.9,16.5c.9.6,1.7,1.3,2.3,2l.9-16.5c0-2.2-.4-3.6-.9-4"/><path class="cls-6" d="M1329.1,759.5c-1-.4-1.8.4-1.9,2.1l-.9,16.5c1.2.6,2.3,1.2,3.3,1.8l.9-16.5c0-2.1-.7-3.5-1.4-3.9"/><path class="cls-6" d="M1324.7,757.5c-1.2-.4-2.1.5-2.3,2.2l-.9,16.5c1.5.5,2.8,1,4.1,1.6l.9-16.5c0-2.4-1.2-3.5-1.8-3.8"/><path class="cls-6" d="M1319.3,755.8c-1.4-.3-2.4.7-2.6,2.4l-.9,16.5c1.7.4,3.3.8,4.8,1.3l.9-16.5c0-2.2-1.3-3.4-2.2-3.6"/><path class="cls-6" d="M1313.2,754.5c-1.6-.2-2.7.8-2.9,2.6l-.9,16.5c1.8.2,3.6.5,5.3.9l.9-16.5c0-2.2-1.4-3.3-2.4-3.5"/><path class="cls-6" d="M1306.6,753.6c-1.7,0-2.9,1-3,2.8l-.9,16.5c.6,0,1.2,0,1.9.1,1.3,0,2.6.2,3.8.4l.9-16.5c0-2.2-1.6-3.2-2.7-3.3"/><path class="cls-6" d="M1299.8,753.4c-1.6,0-2.7,1.3-2.8,3l-.9,16.5c1.8,0,3.6,0,5.5,0l.9-16.5c0-2.2-1.6-3-2.6-3"/><path class="cls-6" d="M1293.5,753.7c-1.4.2-2.4,1.5-2.6,3.3l-.9,16.5c1.6-.2,3.2-.4,5-.5l.9-16.5c0-2.2-1.4-2.9-2.4-2.8"/><path class="cls-6" d="M1287.9,754.5c-1.2.3-2.1,1.7-2.3,3.5l-.9,16.5c1.3-.3,2.8-.7,4.3-.9l.9-16.5c0-2.2-1.2-2.7-2.1-2.6"/><path class="cls-6" d="M1335.5,764.3h0s0,0,0,0M1335.5,764.3h0s0,0,0,0M1335.5,764.3h0s0,0,0,0M1335.5,764.7h0M1335.5,764.7h0M1335.5,764.7h0M1335.5,764.7h0M1335.5,764.7h0M1335.5,764.7h0M1335.5,764.7h0M1335.5,764.7h0M1335.5,764.7h0M1335.5,764.7h0M1335.5,764.7h0M1335.5,764.7h0M1335.5,764.7h0M1335.5,764.7h0M1335.5,764.4h0s0,0,0,0M1335.5,764.6h0s0,0,0,0M1335.5,764.4h0s0,0,0,0M1335.5,764.6h0s0,0,0,0M1335.5,764.5h0s0,0,0,0M1335.2,766.7s0,0,0-.1c0,0,0,0,0,.1M1335.2,765.4c0-.1,0-.3,0-.4,0,0,0,0,0,0,0,0,0,.2,0,.3,0-2.4-.2-3.2-.6-3.7,0,0-.2,0-.3,0-.3.3-.4.4-.6,1.2-.3-4.1-1.9-3.8-2.3-3.4-.2.3-.4.7-.5,1-.5-3.8-2.8-4-3.6-3-.2.2-.3.5-.4.8-.8-3.8-3.8-4-4.7-2.3,0,.1-.1.3-.2.4-.9-3.6-4.5-4.1-5.7-1.5-1-3.3-4.9-3.9-6.4-1.1-1.1-3.1-5.4-3.5-6.8-.6-1.1-3.1-5.2-3.1-6.6,0-1-3-4.7-2.6-6,.6-.4-1.4-1.3-2-2.6-1.7-2.1.5-2.7,2.6-2.8,3.8,0,.1.2.1.2,0,.5-4.1,3.8-4.1,4.6-2.7.3.5.3,1.2.3,1.7,0,0,.2,0,.3,0,.6-4.1,4.3-3.8,5.3-2.2.3.6.4,1.2.4,1.7.1,0,.2,0,.3,0,.6-4,4.8-3.4,5.8-1.8.4.6.4,1.2.4,1.7.1,0,.2,0,.4,0,.6-4,5-3,6.1-1.2.4.6.4,1.3.4,1.8.1,0,.2,0,.4,0,.6-3.7,4.7-2.8,5.7-.8.3.7.3,1.3.4,1.8.1,0,.2,0,.3,0,.5-3.5,3.8-2.6,4.8-.9.6.9.6,1.7.6,2.4,0,0,.2,0,.3,0,.4-3.3,3-2.4,3.9-1.1.8,1,.8,2.3.8,2.9,0,0,.2,0,.2.1.4-3.3,2.4-2,2.9-1.3.9,1.1.8,2.7.8,3.4,0,0,.1,0,.2.1.4-3.4,1.9-1.6,1.9-1.6.5.7.8,2,.7,3.8,0,0,0,0,.1.1.2-1.6.3-1.8.7-2.1.4.3.8.7.7,4.5,0-.3,0-.8,0-1.1M1335.2,766.7c0-.2,0-.4,0-.6,0,.2,0,.4,0,.6M1335.2,765h0s0,0,0,0h0M1335.2,766c0-.2,0-.4,0-.5,0,.2,0,.4,0,.5M1335.3,765v-.3c0,0,0,.1,0,.1,0,0,0,0,0,.2M1335.3,764.7h0s0,0,0,0h0M1335.2,765.5c0-.1,0-.3,0-.4,0,.1,0,.3,0,.4M1335.4,764.8c0,0,0,.2,0,.3,0,0,0-.2,0-.3M1335.4,764.4s0,0,0-.1h0c0,.2,0,.2,0,.4,0,0,0-.2,0-.2M1335.4,764.3h0s0,0,0,0M1335.4,764.7s0,.1,0,.2c0,0,0-.1,0-.2M1335.4,764.3h0s0,0,0,0c0,0,0,0,0,0M1335.4,764.2h0M1335.4,764.6s0,0,0,0c0,0,0,0,0,0M1335.5,764.2h0s0,0,0,0h0M1335.5,764.7s0,0,0,0c0,0,0,0,0,0M1335.5,764.7v.2-.2M1335.5,765.1v-.2.2M1335.5,764.5h0s0,0,0,0"/><path class="cls-6" d="M1334.3,785.6s0,0-.2-.3l.9-16.5c0-1,.1-1.7.2-2,0,0,0,.1,0,.2v.2"/><path class="cls-6" d="M1335.5,765.1v-.4h0v-.2c0-.2,0-.2,0-.3-.2.3-.3,1.7-.3,2.3,0,0,0,0,0,.1,0-.6.1-1.8.3-2,0,0,0,.1,0,.5"/><path class="cls-6" d="M1281.7,781c-1.2.5-1.8,2.2-1.9,3.6l-.9,16.5c1.1-.5,2.3-.9,3.6-1.3l.9-16.5c0-2.1-1-2.6-1.7-2.4"/><path class="cls-6" d="M1277.9,782.7c-1.1.8-1.3,3.1-1.4,3.8l-.9,16.5c.7-.6,1.6-1.1,2.6-1.6l.9-16.5c0-2-.7-2.5-1.2-2.2"/><path class="cls-6" d="M1275.4,784.8c-.6.8-.8,2.8-.8,3.9l-.9,16.5c.4-.7.9-1.3,1.6-1.9l.9-16.5c0-2-.4-2.5-.7-2.1"/><path class="cls-6" d="M1273.4,805.6c-.2.5-.3,0-.3.6l1-18.1c0-.5,0-.7,0-1,0,0,0-.1,0-.2.5.4-.8,18.4-.8,18.6"/><path class="cls-6" d="M1289.2,779s0,0,0,.1c0,0,0,0,0-.1M1284,780s0,0,0,0c0,0,0,0,0,0M1289.1,778.9s0,0,0,0c0,0,0,0,0,0M1284.1,779.8s0,0,0,0c0,0,0,0,0,0M1289.1,778.8h0s0,0,0,0M1284.1,779.7s0,0,0,0c0,0,0,0,0,0M1289.1,778.6h0s0,0,0,0M1284.2,779.6s0,0,0,0c0,0,0,0,0,0M1284.2,779.5s0,0,0,0c0,0,0,0,0,0M1284.3,779.3s0,0,0,0c0,0,0,0,0,0M1284.3,779.2s0,0,0,0c0,0,0,0,0,0M1284.4,779.1s0,0,0,.1c0,0,0,0,0-.1M1288.4,777.7h0M1288.3,777.6s0,0,0,0c0,0,0,0,0,0M1288.2,777.6s0,0,0,0c0,0,0,0,0,0M1288.1,777.5h0s0,0,0,0M1288,777.5h0s0,0,0,0M1287.9,777.4s0,0,0,0c0,0,0,0,0,0M1287.8,777.4s0,0,0,0c0,0,0,0,0,0M1287.7,777.3s0,0,0,0c0,0,0,0,0,0M1287.6,777.3s0,0,0,0c0,0,0,0,0,0M1287.5,777.3s0,0,0,0c0,0,0,0,0,0M1285.7,777.6c-.6.3-1,.8-1.3,1.4.4-.7.8-1.1,1.3-1.4M1287.4,777.3s0,0,0,0c0,0,0,0,0,0M1285.9,777.6h-.1s0,0,.1,0M1287.3,777.3h0,0M1285.9,777.5h0s0,0,0,0M1287.2,777.3h0,0M1286.1,777.5s0,0,0,0c0,0,0,0,0,0M1287.1,777.3h0,0M1286.2,777.5s0,0,0,0c0,0,0,0,0,0M1286.9,777.3h0,0M1286.3,777.4s0,0,0,0c0,0,0,0,0,0M1286.8,777.3h0,0M1286.4,777.4h0,0M1286.7,777.3s0,0,0,0c0,0,0,0,0,0M1286.5,777.3h0,0M1283.9,780.2s-.2-2.5-2.5-1.5c-.8.6-1.3,1.2-1.8,2.8-.5-2.5-1.9-1.2-2.4-.5-.5.8-.7,1.8-.8,2.4-.3-2.4-1.1-1-1.2-.9-.5.8-.7,2.4-.7,3.1,0-.8,0-1.1-.2-1.3h0c-.1.2-.1.5-.2,1.5h0c0-.8,0-1,.2-1.1.2.2.1,1.3.1,2.1,0,0,0,0,0-.1.4-5.1,1.4-4.2,1.5-4.2.4.3.3,1.6.3,2.1,0,0,0,0,.1-.1.4-4.3,2.1-4.5,2.7-3.7.4.5.4,1.3.4,1.9,0,0,.1,0,.2,0,.4-4,2.7-4.4,3.6-3.4.5.6.5,1.3.5,2,0-.2,0-.6.2-1.1M1284,781.3c0,0-.2,0-.3,0,0,0,.2,0,.3,0M1284.1,780.6c0,.2,0,.5,0,.7,0-.2,0-.5,0-.7M1284.3,780c0,.2-.1.4-.2.6,0-.2.1-.4.2-.6M1284.5,779.4c0,.2-.2.4-.2.6,0-.2.2-.4.2-.6M1284.5,779.4c0-.2.2-.3.3-.5,0,.2-.2.3-.3.5M1284.8,778.9c.1-.1.2-.3.4-.4-.1.1-.2.3-.4.4M1285.2,778.5c.1-.1.3-.2.4-.4-.1.1-.3.2-.4.4M1285.6,778.1c.1,0,.3-.2.5-.3-.1,0-.3.2-.5.3M1286.1,777.9c.2,0,.4-.1.5-.2-.2,0-.4.1-.5.2M1287.1,777.7c-.2,0-.4,0-.5,0,.2,0,.4,0,.5,0M1287.1,777.7c.1,0,.3,0,.5,0-.1,0-.3,0-.5,0M1287.6,777.7c.1,0,.3.1.4.2-.1,0-.3-.1-.4-.2M1288.3,778.2c-.1,0-.2-.2-.4-.3.1,0,.2.2.4.3M1288.3,778.2c0,.1.2.3.3.4,0-.1-.2-.3-.3-.4M1288.8,779.1c0-.1-.1-.3-.2-.5,0,.1.1.3.2.5M1288.9,779.6c0-.2,0-.4-.1-.6,0,.2,0,.4.1.6M1288.9,780.3c0-.2,0-.4,0-.6,0,.2,0,.4,0,.6M1288.9,780.3c0,0,.2,0,.3,0,0,0-.2,0-.3,0M1286.6,777.3s0,0,.1,0c0,0,0,0-.1,0"/><path class="cls-6" d="M1333.2,789.5c-.4-.6-.8.4-.9,1.6,0,0,0,.2,0,.3l-.9,16.5c.6.7,1,1.4,1.2,2.1l.9-16.5c.2-3-.2-3.8-.3-4"/><path class="cls-6" d="M1331.1,787c-.7-.5-1.3.3-1.4,2l-.9,16.5c.9.6,1.7,1.3,2.3,2l.9-16.5c0-2.2-.4-3.5-.9-4"/><path class="cls-6" d="M1327.7,784.7c-1-.5-1.8.4-1.9,2.1l-.9,16.5c1.2.6,2.3,1.2,3.3,1.8l.9-16.5c0-2.1-.7-3.5-1.4-3.9"/><path class="cls-6" d="M1323.2,782.7c-1.2-.4-2.1.5-2.3,2.2l-.9,16.5c1.5.5,2.8,1,4.1,1.6l.9-16.5c0-2.4-1.2-3.5-1.8-3.8"/><path class="cls-6" d="M1317.9,781c-1.4-.3-2.4.7-2.6,2.4l-.9,16.5c1.7.4,3.3.8,4.8,1.3l.9-16.5c0-2.4-1.4-3.4-2.2-3.6"/><path class="cls-6" d="M1311.8,779.7c-1.6-.2-2.7.8-2.9,2.6l-.9,16.5c1.8.2,3.6.5,5.3.9l.9-16.5c0-2.2-1.4-3.3-2.4-3.5"/><path class="cls-6" d="M1305.1,778.8c-1.7,0-2.9,1-3,2.8l-.9,16.5c.6,0,1.2,0,1.9.1,1.3,0,2.6.2,3.8.4l.9-16.5c0-2.2-1.6-3.2-2.7-3.2"/><path class="cls-6" d="M1298.3,778.6c-1.6,0-2.7,1.3-2.8,3l-.9,16.5c1.8,0,3.6,0,5.5,0l.9-16.5c0-2.2-1.6-3-2.6-3"/><path class="cls-6" d="M1292.1,778.9c-1.4.2-2.4,1.5-2.6,3.2l-.9,16.5c1.6-.2,3.2-.4,5-.5l.9-16.5c0-2.2-1.4-2.9-2.4-2.8"/><path class="cls-6" d="M1286.5,779.7c-1.2.3-2.1,1.7-2.3,3.5l-.9,16.5c1.3-.3,2.8-.7,4.3-.9l.9-16.5c0-2.2-1.2-2.7-2.1-2.6"/><path class="cls-6" d="M1334.1,789.5h0s0,0,0,0M1334.1,789.5h0s0,0,0,0M1334.1,789.9h0M1334.1,789.9h0M1334.1,789.9h0M1334.1,789.9h0M1334.1,789.9h0M1334.1,789.9h0M1334.1,789.9h0M1334.1,789.9h0M1334.1,789.9h0M1334.1,789.9h0M1334.1,789.9h0M1334.1,789.9h0M1334.1,789.9h0M1334.1,789.9h0M1334.1,789.5h0s0,0,0,0M1334.1,789.8h0s0,0,0,0M1334.1,789.6h0s0,0,0,0M1334.1,789.8h0s0,0,0,0M1334.1,789.6h0s0,0,0,0M1333.7,791.8s0,0,0-.1c0,0,0,0,0,.1M1333.8,790.6c0-.1,0-.3,0-.4,0,0,0,0,0,0,0,0,0,.2,0,.3,0-2.4-.2-3.2-.6-3.7,0,0-.2,0-.3,0-.3.3-.4.4-.6,1.2-.3-4.1-1.9-3.8-2.3-3.4-.2.3-.4.7-.5,1-.5-3.8-2.8-4-3.6-3-.2.2-.3.5-.4.8-.8-3.8-3.8-4-4.7-2.3,0,.1-.1.3-.2.4-.9-3.6-4.5-4.1-5.7-1.5-1-3.3-4.9-3.9-6.4-1.1-1.1-3.1-5.4-3.5-6.8-.6-1.1-3.1-5.2-3.1-6.6,0-1-3-4.7-2.6-6,.6-.4-1.4-1.3-2-2.6-1.8-1.6.4-2.6,1.8-2.8,3.8,0,.1.2.1.2,0,.5-4.1,3.8-4.1,4.6-2.7.3.5.3,1.2.3,1.7,0,0,.2,0,.3,0,.6-4.1,4.3-3.8,5.3-2.2.3.6.4,1.2.4,1.7.1,0,.2,0,.3,0,.6-4,4.8-3.4,5.8-1.8.4.6.4,1.2.4,1.7.1,0,.2,0,.4,0,.6-4,5-3,6.1-1.3.4.6.4,1.3.4,1.8.1,0,.2,0,.4,0,.6-3.7,4.7-2.8,5.7-.8.3.7.3,1.3.4,1.8.1,0,.2,0,.3,0,.5-3.5,3.8-2.6,4.8-1,.6.9.6,1.7.6,2.4,0,0,.2,0,.3,0,.4-3.3,3-2.4,3.9-1.1.8,1,.8,2.3.8,2.9,0,0,.2,0,.2.1.4-3.3,2.4-2,2.9-1.3.9,1.1.8,2.7.8,3.4,0,0,.1,0,.2.1.4-3.4,1.9-1.6,1.9-1.6.5.7.8,2,.7,3.8,0,0,0,0,.1.1.2-1.6.3-1.8.7-2.1.4.3.8.7.7,4.5,0-.3,0-.8,0-1.1M1333.7,791.8c0-.2,0-.4,0-.6,0,.2,0,.4,0,.6M1333.8,790.2h0s0,0,0,0h0M1333.8,790.7c0,.2,0,.4,0,.5,0-.2,0-.4,0-.5M1333.8,790.1v-.3c0,0,0,.2,0,.2,0,0,0,0,0,.2M1333.9,789.8h0s0,0,0,0M1333.8,790.3c0,.1,0,.3,0,.4,0-.1,0-.3,0-.4M1333.9,790c0,0,0,.2,0,.3,0,0,0-.2,0-.3M1333.9,789.6s0,0,0-.1h0c0,.2,0,.2,0,.4,0,0,0-.2,0-.2M1334,789.4h0s0,0,0,0M1333.9,789.8s0,.1,0,.2c0,0,0-.1,0-.2M1334,789.4h0s0,0,0,0c0,0,0,0,0,0M1334,789.4h0M1333.9,789.8s0,0,0,0c0,0,0,0,0,0M1334,789.4h0c0,0,0,0,0,0h0M1334,789.8s0,0,0,0c0,0,0,0,0,0M1334,789.9v.2-.2M1334,790.3v-.2.2M1334.1,789.7h0s0,0,0,0"/><path class="cls-6" d="M1333.9,792.3v-.2s0-.1,0-.2c-.1.4-.2,1-.2,2l-.9,16.5h.2s1-18.1,1-18.1h0Z"/><path class="cls-6" d="M1334,790.3v-.4h0v-.2c0-.2,0-.2,0-.3-.2.2-.3,1.8-.3,2.3,0,0,0,0,0,.1,0-.6.1-1.8.3-2,0,0,0,.1,0,.5"/><path class="cls-6" d="M1280.2,806.2c-1.2.5-1.8,2.2-1.9,3.6l-.9,16.5c1.1-.5,2.3-.9,3.6-1.3l.9-16.5c0-2.1-1-2.6-1.7-2.4"/><path class="cls-6" d="M1276.5,807.9c-1.1.8-1.3,3.1-1.4,3.8l-.9,16.5c.7-.6,1.6-1.1,2.6-1.6l.9-16.5c0-2-.7-2.5-1.2-2.2"/><path class="cls-6" d="M1273.9,809.9c-.6.8-.8,2.8-.8,3.9l-.9,16.5c.4-.7.9-1.3,1.6-1.9l.9-16.5c0-2-.4-2.5-.7-2.1"/><path class="cls-6" d="M1271.9,830.8c-.2.5-.3-.1-.3.4l1-17.9c0-.5,0-.7,0-1,0,0,0-.1,0-.2.5.4-.8,18.4-.8,18.6"/><path class="cls-6" d="M1284.5,802.7h0M1284.7,802.6h0,0M1284.8,802.6h0,0M1285.4,802.5c1.2,0,2,.5,2.3,1.8-.3-1.3-1.1-1.9-2.3-1.8M1284.9,802.6h0,0M1285.3,802.5s0,0,.1,0c0,0,0,0-.1,0M1285,802.5h0,0M1282.5,805.5c0-.2-.3-2.5-2.5-1.5-.8.6-1.3,1.2-1.8,2.9-.5-2.3-1.8-1.5-2.4-.5-.5.8-.7,1.8-.8,2.4-.3-2.4-1.1-1-1.2-.9-.5.8-.7,2.4-.7,3.2,0-.8,0-1.1-.2-1.3h0c-.1.2-.1.5-.2,1.5h0c0-.8,0-1,.2-1.1.2.2.1,1.3.1,2.1,0,0,0,0,0-.1.4-5.1,1.4-4.2,1.5-4.2.4.3.3,1.6.3,2.1,0,0,0,0,.1-.1.4-4.3,2.1-4.5,2.7-3.7.4.5.4,1.3.4,1.9,0,0,.1,0,.2,0,.4-4,2.7-4.4,3.6-3.4.5.6.5,1.3.5,2,0-.2,0-.6.2-1M1282.6,806.4c0,0-.2,0-.3,0,0,0,.2,0,.3,0M1282.7,805.8c0,.2,0,.5,0,.7,0-.2,0-.5,0-.7M1282.8,805.2c0,.2-.1.4-.2.6,0-.2.1-.4.2-.6M1283,804.6c0,.2-.2.4-.2.6,0-.2.2-.4.2-.6M1283.3,804.1c0,.2-.2.3-.3.5,0-.2.2-.3.3-.5M1283.7,803.7c-.1.1-.2.3-.4.4.1-.1.2-.3.4-.4M1283.7,803.7c.1-.1.3-.2.4-.4-.1.1-.3.2-.4.4M1284.6,803c-.1,0-.3.2-.5.3.1,0,.3-.2.5-.3M1285.1,802.9c-.2,0-.4.1-.5.2.2,0,.4-.1.5-.2M1285.1,802.9c.2,0,.4,0,.5,0-.2,0-.4,0-.5,0M1286.1,802.9c-.1,0-.3,0-.5,0,.1,0,.3,0,.5,0M1286.5,803.1c-.1,0-.3-.1-.4-.2.1,0,.3.1.4.2M1286.9,803.4c-.1,0-.2-.2-.4-.3.1,0,.2.2.4.3M1287.2,803.8c0-.1-.2-.3-.3-.4,0,.1.2.3.3.4M1287.4,804.2c0-.1-.1-.3-.2-.5,0,.1.1.3.2.5M1287.5,804.8c0-.2,0-.4-.1-.6,0,.2,0,.4.1.6M1287.5,805.4c0,0,.2,0,.3,0,0,0-.2,0-.3,0v-.6.6M1285.1,802.5s0,0,.1,0c0,0,0,0-.1,0"/><path class="cls-6" d="M1331.7,814.7c-.4-.6-.8.4-.9,1.6,0,0,0,.2,0,.3l-.9,16.5c.6.7,1,1.4,1.2,2.1l.9-16.5c.2-3-.2-3.8-.3-4"/><path class="cls-6" d="M1329.6,812.2c-.7-.5-1.3.3-1.4,2l-.9,16.5c.9.6,1.7,1.3,2.3,2l.9-16.5c0-2.2-.4-3.5-.9-4"/><path class="cls-6" d="M1326.2,809.9c-1-.5-1.8.4-1.9,2.1l-.9,16.5c1.2.6,2.3,1.2,3.3,1.8l.9-16.5c0-2.1-.7-3.5-1.4-3.9"/><path class="cls-6" d="M1321.8,807.9c-1.2-.4-2.1.5-2.3,2.2l-.9,16.5c1.5.5,2.8,1,4.1,1.6l.9-16.5c0-2.4-1.2-3.5-1.8-3.8"/><path class="cls-6" d="M1316.4,806.1c-1.4-.3-2.4.7-2.6,2.4l-.9,16.5c1.7.4,3.3.8,4.8,1.3l.9-16.5c0-2.4-1.4-3.4-2.2-3.6"/><path class="cls-6" d="M1310.3,804.8c-1.6-.2-2.7.8-2.9,2.6l-.9,16.5c1.8.2,3.6.5,5.3.9l.9-16.5c0-2.2-1.4-3.3-2.4-3.5"/><path class="cls-6" d="M1303.7,804c-1.7,0-2.9,1-3,2.8l-.9,16.5c.6,0,1.2,0,1.9.1,1.3,0,2.6.2,3.8.4l.9-16.5c0-2.2-1.6-3.2-2.7-3.2"/><path class="cls-6" d="M1296.9,803.7c-1.6,0-2.7,1.3-2.8,3l-.9,16.5c1.8,0,3.6,0,5.5,0l.9-16.5c0-2.2-1.6-3-2.6-3"/><path class="cls-6" d="M1290.6,804c-1.4.2-2.4,1.5-2.6,3.2l-.9,16.5c1.6-.2,3.2-.4,5-.5l.9-16.5c0-2.2-1.4-2.9-2.4-2.8"/><path class="cls-6" d="M1285,804.9c-1.2.3-2.1,1.7-2.3,3.5l-.9,16.5c1.3-.3,2.8-.7,4.3-.9l.9-16.5c0-2.2-1.2-2.7-2.1-2.6"/><path class="cls-6" d="M1332.4,815.1h0s0,0,0,0M1332.4,815h0s0,0,0,0M1332.6,814.6h0M1332.6,814.6h0M1332.6,814.7h0M1332.6,814.7h0M1332.6,815.1h0c0,0,0,0,0,0h0M1332.6,814.8h0M1332.6,814.9h0s0,0,0,0M1332.6,814.8h0s0,0,0,0M1332.2,817s0,0,0-.1c0,0,0,0,0,.1M1332.2,817c0-.2,0-.4,0-.6,0,.2,0,.4,0,.6M1332.3,815.9c0,.2,0,.4,0,.5,0-.2,0-.4,0-.5M1332.4,815.3c0,0,0,.2,0,.3-.1-2.6-.1-2.9-.6-3.5,0,0-.2,0-.3,0-.3.3-.4.4-.6,1.2-.3-4.1-1.9-3.8-2.3-3.4-.2.3-.4.7-.5,1-.5-3.8-2.8-4-3.6-3-.2.2-.3.5-.4.8-.8-3.8-3.8-4-4.7-2.3,0,.1-.1.3-.2.4-.9-3.6-4.5-4.1-5.7-1.5-1-3.3-4.9-4-6.4-1.1-1.1-3.2-5.4-3.5-6.8-.6-1.1-3.1-5.2-3.1-6.6,0-1-3-4.7-2.6-6,.6-.2-.6-.6-2.1-2.6-1.8-2.3.6-2.7,3-2.8,4,0,0,.2,0,.3,0,.5-4.1,3.8-4.1,4.6-2.7.3.5.3,1.2.3,1.7,0,0,.2,0,.3,0,.6-4.1,4.3-3.8,5.3-2.2.3.6.4,1.2.4,1.7.1,0,.2,0,.3,0,.6-4,4.8-3.4,5.8-1.8.4.6.4,1.2.4,1.7.1,0,.2,0,.4,0,.6-4,5-3,6.1-1.3.4.6.4,1.3.4,1.8.1,0,.2,0,.4,0,.6-3.7,4.7-2.8,5.7-.8.3.7.3,1.3.4,1.8.1,0,.2,0,.3,0,.5-3.5,3.8-2.6,4.8-1,.6.9.6,1.7.6,2.4,0,0,.2,0,.3,0,.4-3.3,3-2.4,3.9-1.1.8,1,.8,2.3.8,2.9,0,0,.2,0,.2.1.4-3.3,2.4-2,2.9-1.3.9,1.1.8,2.7.8,3.4,0,0,.1,0,.2.1.4-3.4,1.9-1.6,1.9-1.6.5.7.8,2,.7,3.8,0,0,0,0,.1.1.2-1.6.3-1.8.7-2.1.4.3.8.7.7,4.5,0-.6,0-1.1.2-1.6M1332.3,815.9c0-.1,0-.3,0-.4,0,.1,0,.3,0,.4M1332.4,815.5c0,0,0-.2,0-.3,0,0,0,.2,0,.3M1332.4,815.2s0-.1,0-.2c0,0,0,.1,0,.2M1332.5,815s0,0,0,0c0,0,0,0,0,0M1332.5,815s0,0,0,0c0,0,0,0,0,0M1332.6,815v.2-.2M1332.6,815.5v-.2.2M1332.6,814.9h0s0,0,0,0"/><path class="cls-6" d="M1331.3,836.9c0,0,0-.9,0-.9,0-.4,0,0-.2-.3l.9-16.5c0-1,.1-1.7.2-2,0,0,0,.1,0,.2v.2l-1.1,19.4"/><path class="cls-6" d="M1332.6,815.5v-.4s0-.1,0-.1h0c0-.4,0-.4,0-.4,0,0-.2,0-.3,2.3,0,0,0,0,0,.1,0-.6.1-1.8.3-2,0,0,0,.1,0,.5"/><path class="cls-6" d="M1278.8,831.3c-1.2.5-1.8,2.2-1.9,3.6l-.9,16.5c1.1-.5,2.3-.9,3.6-1.3l.9-16.5c0-2.1-1-2.6-1.7-2.4"/><path class="cls-6" d="M1275,833c-1.1.8-1.3,3.1-1.4,3.8l-.9,16.5c.7-.6,1.6-1.1,2.6-1.6l.9-16.5c0-2-.7-2.5-1.2-2.2"/><path class="cls-6" d="M1272.5,835.1c-.6.8-.8,2.8-.8,3.9l-.9,16.1c.4-.7.9-.9,1.6-1.5l.9-16.5c0-2-.4-2.5-.7-2.1"/><path class="cls-6" d="M1270.5,855.2c-.2.5-.3,0-.3.5l1-17.2c0-.5,0-.7,0-1,0,0,0-.1,0-.2.1.1-.1,6.3-.8,18.6"/><path class="cls-6" d="M1282,828.6h0M1282.1,828.6h0M1282.2,828.5h0s0,0,0,0M1282.3,828.4h0s0,0,0,0M1282.4,828.3s0,0,0,0c0,0,0,0,0,0M1282.5,828.2s0,0,0,0c0,0,0,0,0,0M1282.6,828.1s0,0,0,0c0,0,0,0,0,0M1282.7,828.1s0,0,0,0c0,0,0,0,0,0M1282.8,828s0,0,0,0c0,0,0,0,0,0M1282.9,828s0,0,0,0c0,0,0,0,0,0M1284.4,827.6c1,.1,1.6.7,1.9,1.8-.3-1.1-.9-1.7-1.9-1.8M1283,827.9h0s0,0,0,0M1283.1,827.9h0,0M1284.2,827.6h.2-.2M1283.2,827.8s0,0,0,0h0M1284.1,827.6h.1-.1M1283.3,827.8h0,0M1283.9,827.6h0,0M1283.5,827.7h0,0M1283.8,827.7s0,0,0,0c0,0,0,0,0,0M1283.6,827.7h0,0M1281,830.6c0-.2-.3-2.5-2.5-1.5-.8.6-1.3,1.2-1.8,2.9-.5-2.3-1.8-1.5-2.4-.5-.5.8-.7,1.8-.8,2.4-.3-2.4-1.1-1-1.2-.9-.5.8-.7,2.4-.7,3.2,0-.8,0-1.1-.2-1.3h0c-.1.2-.1.5-.2,1.5h0c0-.8,0-1,.2-1.1.2.2.1,1.3.1,2.1,0,0,0,0,0-.1.4-5.1,1.4-4.2,1.5-4.2.4.3.3,1.6.3,2.1,0,0,0,0,.1-.1.4-4.3,2.1-4.5,2.7-3.7.4.5.4,1.3.4,1.9,0,0,.1,0,.2,0,.4-4,2.7-4.4,3.6-3.4.5.6.5,1.3.5,2,0-.2,0-.6.2-1M1281.1,831.6c0,0-.2,0-.3,0,0,0,.2,0,.3,0M1281.2,831c0,.2,0,.5,0,.7,0-.2,0-.5,0-.7M1281.4,830.4c0,.2-.1.4-.2.6,0-.2.1-.4.2-.6M1281.6,829.8c0,.2-.2.4-.2.6,0-.2.2-.4.2-.6M1281.9,829.3c0,.2-.2.3-.3.5,0-.2.2-.3.3-.5M1282.2,828.8c-.1.1-.2.3-.4.4.1-.1.2-.3.4-.4M1282.2,828.8c.1-.1.3-.2.4-.4-.1.1-.3.2-.4.4M1283.1,828.2c-.1,0-.3.2-.5.3.1,0,.3-.2.5-.3M1283.7,828.1c-.2,0-.4.1-.5.2.2,0,.4-.1.5-.2M1283.7,828.1c.2,0,.4,0,.5,0-.2,0-.4,0-.5,0M1284.7,828.1h-.5c0,0,.5,0,.5,0M1285.1,828.3c-.1,0-.3-.1-.4-.2.1,0,.3.1.4.2M1285.4,828.6c-.1,0-.2-.2-.4-.3.1,0,.2.2.4.3M1285.7,828.9c0-.1-.2-.3-.3-.4,0,.1.2.3.3.4M1285.9,829.4c0-.1-.1-.3-.2-.5,0,.1.1.3.2.5M1286,830c0-.2,0-.4-.1-.6,0,.2,0,.4.1.6M1286.1,830.6c0,0,.2,0,.3,0,0,0-.2,0-.3,0v-.6.6M1283.7,827.7s0,0,.1,0c0,0,0,0-.1,0"/><path class="cls-6" d="M1330.3,839.8c-.4-.6-.8.4-.9,1.6,0,0,0,.2,0,.3l-.9,16.5c.6.7,1.1.7,1.3,1.4l.8-15.8c.2-3-.2-3.8-.3-4"/><path class="cls-6" d="M1328.1,837.4c-.7-.5-1.3.3-1.4,2l-.9,16.5c.9.6,1.7,1.3,2.3,2l.9-16.5c0-2.2-.4-3.5-.9-4"/><path class="cls-6" d="M1324.8,835.1c-1-.4-1.8.4-1.9,2.1l-.9,16.5c1.2.6,2.3,1.2,3.3,1.8l.9-16.5c0-2.1-.7-3.5-1.4-3.9"/><path class="cls-6" d="M1320.3,833c-1.2-.4-2.1.5-2.3,2.2l-.9,16.5c1.5.5,2.8,1,4.1,1.6l.9-16.5c0-2.1-.9-3.4-1.8-3.8"/><path class="cls-6" d="M1315,831.3c-1.4-.3-2.4.7-2.6,2.4l-.9,16.5c1.7.4,3.3.8,4.8,1.3l.9-16.5c0-2.2-1.3-3.4-2.2-3.6"/><path class="cls-6" d="M1308.9,830c-1.6-.2-2.7.9-2.9,2.6l-.9,16.5c1.8.2,3.6.5,5.3.9l.9-16.5c0-2.2-1.4-3.3-2.4-3.5"/><path class="cls-6" d="M1302.2,829.2c-1.7,0-2.9,1-3,2.8l-.9,16.5c.6,0,1.2,0,1.9.1,1.3,0,2.6.2,3.8.4l.9-16.5c0-2.2-1.6-3.2-2.7-3.2"/><path class="cls-6" d="M1295.4,828.9c-1.6,0-2.7,1.3-2.8,3l-.9,16.5c1.8,0,3.6,0,5.5,0l.9-16.5c0-2.2-1.6-3-2.6-3"/><path class="cls-6" d="M1289.2,829.2c-1.4.2-2.4,1.5-2.6,3.2l-.9,16.5c1.6-.2,3.2-.4,5-.5l.9-16.5c0-2.2-1.4-2.9-2.4-2.8"/><path class="cls-6" d="M1283.6,830c-1.2.3-2.1,1.7-2.3,3.5l-.9,16.5c1.3-.3,2.8-.7,4.3-.9l.9-16.5c0-2.2-1.2-2.7-2.1-2.6"/><path class="cls-6" d="M1331.1,839.8s0,0,0,0c0,0,0,0,0,0M1331.1,839.8h0s0,0,0,0M1331.1,839.8h0M1331.1,839.8h0M1331.1,839.9h0s0,0,0,0M1331.1,840.2h0M1331.1,840.2h0M1331.1,840.2h0M1331.1,840.2h0M1331.1,840.3h0M1331.1,840.3h0M1331.1,840.3h0M1331.1,840.3h0M1331.1,840.3h0M1331.1,840.3h0M1331.1,840.3h0M1331.1,840.3h0M1331.1,840.3h0M1331.1,840.3h0M1331.2,839.9h0M1331.1,840.2h0s0,0,0,0M1331.2,839.9h0M1331.2,840.1h0s0,0,0,0M1331.2,840h0s0,0,0,0M1330.8,842.2s0,0,0-.1c0,0,0,0,0,.1M1330.8,841.6c0,.2,0,.4,0,.6,0-.2,0-.4,0-.6M1330.9,840.6c0,0,0-.2,0-.3,0,0,0,0,0,0,0,.2,0,.4,0,.5,0-2.4-.2-3.2-.6-3.7,0,0-.2,0-.3,0-.3.3-.4.4-.6,1.2-.3-4.1-1.9-3.8-2.3-3.4-.2.3-.4.7-.5,1-.5-3.8-2.8-4-3.6-3-.2.2-.3.5-.4.8-.8-3.8-3.8-4-4.7-2.3,0,.1-.1.3-.2.4-.9-3.6-4.5-4.1-5.7-1.5-1-3.3-4.9-4-6.4-1.1-1.1-3.2-5.4-3.5-6.8-.6-1.1-3.1-5.2-3.1-6.6,0-1-3-4.7-2.6-6,.6-.2-.5-.6-2.1-2.6-1.8-2.1.5-2.7,2.7-2.8,3.8,0,.1.2.1.2,0,.5-4.1,3.8-4.1,4.6-2.7.3.5.3,1.2.3,1.7,0,0,.2,0,.3,0,.6-4.1,4.3-3.8,5.3-2.2.3.6.4,1.2.4,1.7.1,0,.2,0,.3,0,.6-4,4.8-3.4,5.8-1.8.4.6.4,1.2.4,1.7.1,0,.2,0,.4,0,.6-4,5-3,6.1-1.3.4.6.4,1.3.4,1.8.1,0,.2,0,.4,0,.6-3.7,4.7-2.8,5.7-.8.3.7.3,1.3.4,1.8.1,0,.2,0,.3,0,.5-3.5,3.8-2.6,4.8-1,.6.9.6,1.7.6,2.4,0,0,.2,0,.3,0,.4-3.3,3-2.4,3.9-1.1.8,1,.8,2.3.8,2.9,0,0,.2,0,.2.1.4-3.3,2.4-2,2.9-1.3.9,1.1.8,2.7.8,3.4,0,0,.1,0,.2.1.4-3.4,1.9-1.6,1.9-1.6.5.7.8,2,.7,3.8,0,0,0,0,.1.1.2-1.6.3-1.8.7-2.1.4.3.8.7.7,4.5,0-.4,0-1,.1-1.4M1330.9,841.1c0,.2,0,.4,0,.5,0-.2,0-.4,0-.5M1330.9,840.3h0s0,0,0,0h0M1330.9,840.7c0,.1,0,.3,0,.4,0-.1,0-.3,0-.4M1330.9,840.3v-.2s0,.2,0,.2c0,0,0,0,0,0M1331,840.1h0s0,0,0,0M1331,840.4c0,0,0,.2,0,.3,0,0,0-.2,0-.3M1331,840.1v-.2s0,0,0,0c0,0,0,.1,0,.2M1331,839.9h0s0,0,0,0h0M1331,839.9h0c0,0,0,0,0,0,0,0,0,0,0,0M1331.1,840.2s0,.1,0,.2c0,0,0-.1,0-.2M1331.1,839.8h0s0,0,0,0M1331.1,839.8h0s0,0,0,0M1331.1,840.1s0,0,0,0c0,0,0,0,0,0M1331.1,840.1s0,0,0,0c0,0,0,0,0,0M1331.1,840.2v.2-.2M1331.1,840.7v-.2.2M1331.2,840h0s0,0,0,0"/><path class="cls-6" d="M1330.1,860.5v-.2c0-.4,0,.2-.2-.2l.8-15.8c0-1,.1-1.7.2-2,0,0,0,.1,0,.2v.2l-.9,17.8"/><path class="cls-6" d="M1331.1,840.7v-.4h0v-.2c0-.2,0-.3,0-.3,0,0-.2.5-.4,2.3,0,0,0,0,0,.1,0-.6.1-1.8.3-2,0,0,0,.1,0,.5"/><g class="cls-3"><path class="cls-4" d="M1332.6,837.3c0-6.5-13.8-12.7-31-13.9-10.4-.7-19.7.5-25.4,3.1-.2,0-.4.2-.7.3-.2.1-.4.2-.6.3-.4.2-.8.5-1.1.7-.2.1-.3.2-.5.3-.2.2-.4.3-.6.5-.2.2-.5.4-.7.7-.1.1-.2.3-.4.4-.1.1-.2.3-.3.4-.3.4-.5.8-.7,1.3,0,.2,0,.3-.2.4h0c0,.2,0,.3,0,.4,0,.2,0,.4,0,.7v1.7c0-.3,0-.6,0-.9,0,0,0-.2,0-.3,0,0,0-.1,0-.2,0-.1,0-.2.2-.3,0-.1.1-.3.2-.4,0,0,0,0,0,0,0-.1.1-.2.2-.3.5-.6,1.1-1.3,1.8-1.8,0,0,.2-.2.3-.2.2-.2.4-.3.7-.4.1,0,.2-.2.3-.2.6-.3,1.2-.6,1.8-.9,5.7-2.6,14.9-3.8,25.4-3.1,16.6,1.2,30.1,7,31,13.1,0,0,0,.2,0,.2,0,.2,0,.3,0,.5h0c0,.1.1-1.7.1-1.7h0c0-.1,0-.1,0-.1Z"/><path class="cls-1" d="M1331.4,835.9l-.4,6.6c.9-1,1.4-2.2,1.4-3.4,0-1.1-.4-2.1-1.1-3.2h0Z"/><path class="cls-1" d="M1271.6,831.4c-.9,1-1.4,2.2-1.5,3.4,0,1.1.4,2.1,1.1,3.2l.4-6.6Z"/></g><g class="cls-3"><path class="cls-4" d="M1334,812.1c0-6.5-13.8-12.7-31-13.9-10.4-.7-19.7.5-25.4,3.1-.2,0-.4.2-.7.3-.2.1-.4.2-.6.3-.4.2-.8.5-1.1.7-.2.1-.3.2-.5.3-.2.2-.4.3-.6.5-.2.2-.5.4-.7.7-.1.1-.2.3-.4.4-.1.1-.2.3-.3.4-.3.4-.5.8-.7,1.3,0,.2,0,.3-.2.5h0c0,.2,0,.3,0,.4,0,.2,0,.4,0,.7v1.7c0-.3,0-.6,0-.9,0,0,0-.2,0-.3,0,0,0-.1,0-.2,0-.1,0-.2.2-.3,0-.1.1-.3.2-.4,0,0,0,0,0,0,0-.1.1-.2.2-.3.5-.6,1.1-1.3,1.8-1.8,0,0,.2-.2.3-.2.2-.2.4-.3.7-.4.1,0,.2-.2.3-.2.6-.3,1.2-.6,1.8-.9,5.7-2.6,14.9-3.8,25.4-3.1,16.6,1.2,30.1,7,31,13.1,0,0,0,.2,0,.2,0,.2,0,.3,0,.5h0c0,.1.1-1.7.1-1.7h0c0-.1,0-.1,0-.1Z"/><path class="cls-1" d="M1332.8,810.8l-.4,6.6c.9-1,1.4-2.2,1.4-3.4,0-1.1-.4-2.1-1.1-3.2h0Z"/><path class="cls-1" d="M1273.1,806.2c-.9,1-1.4,2.2-1.5,3.4,0,1.1.4,2.1,1.1,3.2l.4-6.6Z"/></g><g class="cls-3"><path class="cls-4" d="M1335.5,786.9c0-6.5-13.8-12.7-31-13.9-10.4-.7-19.7.5-25.4,3.1-.2,0-.4.2-.7.3-.2.1-.4.2-.6.3-.4.2-.8.5-1.1.7-.2.1-.3.2-.5.3-.2.2-.4.3-.6.5-.2.2-.5.4-.7.7-.1.1-.2.3-.4.4-.1.1-.2.3-.3.4-.3.4-.5.8-.7,1.3,0,.2,0,.3-.2.4h0c0,.2,0,.3,0,.5,0,.2,0,.4,0,.7v1.7c0-.3,0-.6,0-.9,0,0,0-.2,0-.3,0,0,0-.1,0-.2,0-.1,0-.2.2-.3,0-.1.1-.3.2-.4,0,0,0,0,0,0,0-.1.1-.2.2-.3.5-.6,1.1-1.3,1.8-1.8,0,0,.2-.2.3-.2.2-.2.4-.3.7-.4.1,0,.2-.2.3-.2.6-.3,1.2-.6,1.8-.9,5.7-2.6,14.9-3.8,25.4-3.1,16.6,1.2,30.1,7,31,13.1,0,0,0,.2,0,.2,0,.2,0,.3,0,.5h0c0,.1.1-1.7.1-1.7h0c0-.1,0-.1,0-.1Z"/><path class="cls-1" d="M1334.3,785.6l-.4,6.6c.9-1,1.4-2.2,1.4-3.4,0-1.1-.4-2.1-1.1-3.2h0Z"/><path class="cls-1" d="M1274.5,781c-.9,1-1.4,2.2-1.5,3.4,0,1.1.4,2.1,1.1,3.2l.4-6.6Z"/></g><g class="cls-3"><path class="cls-4" d="M1336.9,761.7c0-6.5-13.8-12.7-31-13.9-10.4-.7-19.7.5-25.4,3.1-.2,0-.4.2-.7.3-.2.1-.4.2-.6.3-.4.2-.8.5-1.1.7-.2.1-.3.2-.5.3-.2.2-.4.3-.6.5-.2.2-.5.4-.7.7-.1.1-.2.3-.4.4-.1.1-.2.3-.3.4-.3.4-.5.8-.7,1.3,0,.2,0,.3-.2.4h0c0,.2,0,.3,0,.4,0,.2,0,.4,0,.7v1.7c0-.3,0-.6,0-.9,0,0,0-.2,0-.3,0,0,0-.1,0-.2,0-.1,0-.2.2-.3,0-.1.1-.3.2-.4,0,0,0,0,0,0,0-.1.1-.2.2-.3.5-.6,1.1-1.3,1.8-1.8,0,0,.2-.2.3-.2.2-.2.4-.3.7-.4.1,0,.2-.2.3-.2.6-.3,1.2-.6,1.8-.9,5.7-2.6,14.9-3.8,25.4-3.1,16.6,1.2,30.1,7,31,13.1,0,0,0,.2,0,.2,0,.2,0,.3,0,.5h0c0,.1.1-1.7.1-1.7h0c0-.1,0-.1,0-.1Z"/><path class="cls-1" d="M1335.8,760.4l-.4,6.6c.9-1,1.4-2.2,1.4-3.4,0-1.1-.4-2.1-1.1-3.2h0Z"/><path class="cls-1" d="M1276,755.8c-.9,1-1.4,2.2-1.5,3.4,0,1.1.4,2.1,1.1,3.2l.4-6.6Z"/></g><g class="cls-3"><path class="cls-4" d="M1338.4,736.5c0-6.5-13.8-12.7-31-13.9-10.4-.7-19.7.5-25.4,3.1-.2,0-.4.2-.7.3-.2.1-.4.2-.6.3-.4.2-.8.5-1.1.7-.2.1-.3.2-.5.3-.2.2-.4.3-.6.5-.2.2-.5.4-.7.7-.1.1-.2.3-.4.4-.1.1-.2.3-.3.4-.3.4-.5.8-.7,1.3,0,.2,0,.3-.2.5h0c0,.2,0,.3,0,.4,0,.2,0,.4,0,.7v1.7c0-.3,0-.6,0-.9,0,0,0-.2,0-.3,0,0,0-.1,0-.2,0-.1,0-.2.2-.3,0-.1.1-.3.2-.4,0,0,0,0,0,0,0-.1.1-.2.2-.3.5-.6,1.1-1.3,1.8-1.8,0,0,.2-.2.3-.2.2-.2.4-.3.7-.4.1,0,.2-.2.3-.2.6-.3,1.2-.6,1.8-.9,5.7-2.6,14.9-3.8,25.4-3.1,16.6,1.2,30.1,7,31,13.1,0,0,0,.2,0,.2,0,.2,0,.3,0,.5h0c0,.1.1-1.7.1-1.7h0Z"/><path class="cls-1" d="M1337.2,735.2l-.4,6.6c.9-1,1.4-2.2,1.4-3.4,0-1.1-.4-2.1-1.1-3.2h0Z"/><path class="cls-1" d="M1277.4,730.7c-.9,1-1.4,2.2-1.5,3.4,0,1.1.4,2.1,1.1,3.2l.4-6.6Z"/></g><g class="cls-3"><path class="cls-4" d="M1339.8,711.5v1.8c-.1,0-.1,0-.1-.1,0-.2,0-.5,0-.7,0,0,0-.2,0-.2,0,0,0-.2,0-.2-.2-.7-.5-1.3-.9-2h0c-3.6-5.2-15.6-9.7-30-10.7-10.4-.7-19.7.6-25.4,3.1-.6.3-1.2.6-1.8.9-.1,0-.2.1-.3.2-.2.1-.4.3-.7.4,0,0-.2.1-.3.2-.5.4-1,.8-1.3,1.2h0c-.3.4-.6.7-.8,1.1,0,.1-.1.2-.2.3,0,0,0,.1,0,.2,0,0,0,.1,0,.2,0,0,0,.2,0,.2,0,0,0,.2,0,.3,0,.3-.1.6-.2.9v-1.7c0-.2.1-.4.2-.7,0-.1,0-.3,0-.4h0c0-.2,0-.3.2-.5.2-.4.4-.9.7-1.3,0-.1.2-.3.3-.4,0,0,.1-.1.2-.2,0,0,.1-.1.2-.2.2-.2.4-.4.7-.7.2-.2.4-.3.6-.5.2-.1.3-.2.5-.3.3-.2.7-.5,1.1-.7.2-.1.4-.2.6-.3s.4-.2.7-.3c5.7-2.6,14.9-3.8,25.4-3.1,14.4,1,26.4,5.5,30,10.7.7,1,1.1,2.1,1.1,3.2h0c0,.1,0,.1,0,.1Z"/><path class="cls-1" d="M1338.7,710l-.4,6.6c.9-1,1.4-2.2,1.4-3.4,0-1.1-.4-2.1-1.1-3.2h0Z"/><path class="cls-1" d="M1278.9,705.5c-.9,1-1.4,2.2-1.5,3.4,0,1.1.4,2.1,1.1,3.2l.4-6.6Z"/></g><path class="cls-5" d="M1287.8,707.8v2.4c0-2-1.1-2.6-1.8-2.3-1.2.5-1.7,2.2-1.9,3.6v-2.4c.3-1.4.8-3.1,2-3.6.7-.2,1.8.3,1.7,2.4Z"/><path class="cls-5" d="M1283.6,709.4v2.4c0-2-.8-2.5-1.4-2.2-1.1.8-1.3,3.1-1.4,3.8v-2.4c.2-.7.5-3,1.5-3.8.5-.3,1.3.2,1.2,2.2h0Z"/><path class="cls-5" d="M1280.5,711.3v2.3c0-1.9-.5-2.4-.9-2-.6.8-.8,2.8-.8,3.9v-2.4c.2-1.1.4-3.2,1-3.9.4-.4.8,0,.7,2.1h0Z"/><path class="cls-5" d="M1337.9,718v2.2c0-2.8-.3-3.6-.4-3.8-.4-.6-.8.4-.9,1.6,0,0,0,.2,0,.3v-2.4c.1,0,.2-.2.2-.3.1-1.2.5-2.2.9-1.6.1.2.5,1,.3,4h0Z"/><path class="cls-5" d="M1336.3,715.5v2.3c0-2.1-.5-3.5-1-3.9-.7-.5-1.3.3-1.4,2v-2.4c.3-1.7.9-2.5,1.6-2,.5.4,1,1.8.9,4h0Z"/><path class="cls-5" d="M1333.4,713.1v2.3c0-2.1-.8-3.4-1.5-3.8-1-.5-1.8.4-1.9,2.1v-2.4c.3-1.7,1.1-2.5,2-2.1.7.4,1.4,1.8,1.4,3.9h0Z"/><path class="cls-5" d="M1329.4,710.9v2.4c0-2.4-1.3-3.5-1.9-3.7-1.2-.4-2.1.5-2.3,2.2v-2.4c.3-1.7,1.2-2.6,2.4-2.2.7.2,1.9,1.4,1.8,3.8h0Z"/><path class="cls-5" d="M1324.4,709.1v2.4c-.1-2.2-1.4-3.4-2.3-3.6-1.4-.3-2.4.7-2.6,2.4v-2.4c.3-1.7,1.4-2.7,2.8-2.4.9.2,2.2,1.4,2.2,3.6h0Z"/><path class="cls-5" d="M1318.6,707.6v2.4c-.1-2.2-1.6-3.3-2.6-3.4-1.6-.2-2.7.8-2.9,2.6v-2.4c.3-1.7,1.5-2.7,3-2.6,1,.2,2.5,1.2,2.4,3.5h0Z"/><path class="cls-5" d="M1312.1,706.5v2.4c-.1-2.2-1.7-3.1-2.8-3.2-1.7,0-2.9,1-3,2.8v-2.4c.3-1.7,1.5-2.8,3.2-2.8,1.1,0,2.7,1,2.7,3.3h0Z"/><path class="cls-5" d="M1305.3,706v2.4c-.1-2.2-1.7-3-2.8-3-1.6,0-2.7,1.3-2.8,3v-2.4c.3-1.8,1.4-2.9,3-3,1,0,2.6.8,2.6,3h0Z"/><path class="cls-5" d="M1298.8,706.1v2.4c-.1-2.2-1.6-2.8-2.5-2.7-1.4.2-2.4,1.5-2.6,3.2v-2.4c.3-1.8,1.3-3,2.7-3.2.9,0,2.4.6,2.4,2.8h0Z"/><path class="cls-5" d="M1292.9,706.7v2.4c-.1-2.2-1.4-2.7-2.2-2.5-1.2.3-2.1,1.7-2.3,3.5v-2.4c.3-1.8,1.2-3.1,2.4-3.5.8-.2,2.1.4,2.1,2.6h0Z"/><path class="cls-5" d="M1286.3,733v2.4c0-2-1.1-2.6-1.8-2.3-1.2.5-1.7,2.2-1.9,3.6v-2.4c.3-1.4.8-3.1,2-3.6.7-.2,1.8.3,1.7,2.4Z"/><path class="cls-5" d="M1282.1,734.5v2.4c0-2-.8-2.5-1.4-2.2-1.1.8-1.3,3.1-1.4,3.8v-2.4c.2-.7.5-3,1.5-3.8.5-.3,1.3.2,1.2,2.2h0Z"/><path class="cls-5" d="M1279,736.5v2.3c0-1.9-.5-2.4-.9-2-.6.8-.8,2.8-.8,3.9v-2.4c.2-1.1.4-3.2,1-3.9.4-.4.8,0,.7,2.1h0Z"/><path class="cls-5" d="M1336.4,743.2v2.2c0-2.8-.3-3.6-.4-3.8-.4-.6-.8.4-.9,1.6,0,0,0,.2,0,.3v-2.4c.1,0,.2-.2.2-.3.1-1.2.5-2.2.9-1.6.1.2.5,1,.3,4h0Z"/><path class="cls-5" d="M1334.8,740.6v2.3c0-2.1-.5-3.5-1-3.9-.7-.5-1.3.3-1.4,2v-2.4c.3-1.7.9-2.5,1.6-2,.5.4,1,1.8.9,4h0Z"/><path class="cls-5" d="M1331.9,738.3v2.3c0-2.1-.8-3.4-1.5-3.8-1-.5-1.8.4-1.9,2.1v-2.4c.3-1.7,1.1-2.5,2-2.1.7.4,1.4,1.8,1.4,3.9h0Z"/><path class="cls-5" d="M1327.9,736.1v2.4c0-2.4-1.3-3.5-1.9-3.7-1.2-.4-2.1.5-2.3,2.2v-2.4c.3-1.7,1.2-2.6,2.4-2.2.7.2,1.9,1.4,1.8,3.8h0Z"/><path class="cls-5" d="M1322.9,734.2v2.4c-.1-2.2-1.4-3.4-2.3-3.6-1.4-.3-2.4.7-2.6,2.4v-2.4c.3-1.7,1.4-2.7,2.8-2.4.9.2,2.2,1.4,2.2,3.6h0Z"/><path class="cls-5" d="M1317.1,732.8v2.4c-.1-2.2-1.6-3.3-2.6-3.4-1.6-.2-2.7.8-2.9,2.6v-2.4c.3-1.7,1.5-2.7,3-2.6,1,.2,2.5,1.2,2.4,3.5h0Z"/><path class="cls-5" d="M1310.7,731.7v2.4c-.1-2.2-1.7-3.1-2.8-3.2-1.7,0-2.9,1-3,2.8v-2.4c.3-1.7,1.5-2.8,3.2-2.8,1.1,0,2.7,1,2.7,3.3h0Z"/><path class="cls-5" d="M1303.9,731.2v2.4c-.1-2.2-1.7-3-2.8-3-1.6,0-2.7,1.3-2.8,3v-2.4c.3-1.8,1.4-2.9,3-3,1,0,2.6.8,2.6,3h0Z"/><path class="cls-5" d="M1297.3,731.3v2.4c-.1-2.2-1.6-2.8-2.5-2.7-1.4.2-2.4,1.5-2.6,3.2v-2.4c.3-1.8,1.3-3,2.7-3.2.9,0,2.4.6,2.4,2.8h0Z"/><path class="cls-5" d="M1291.4,731.9v2.4c-.1-2.2-1.4-2.7-2.2-2.5-1.2.3-2.1,1.7-2.3,3.5v-2.4c.3-1.8,1.2-3.1,2.4-3.5.8-.2,2.1.4,2.1,2.6h0Z"/><path class="cls-5" d="M1284.8,758.2v2.4c0-2-1.1-2.6-1.8-2.3-1.2.5-1.7,2.2-1.9,3.6v-2.4c.3-1.4.8-3.1,2-3.6.7-.2,1.8.3,1.7,2.4Z"/><path class="cls-5" d="M1280.7,759.7v2.4c0-2-.8-2.5-1.4-2.2-1.1.8-1.3,3.1-1.4,3.8v-2.4c.2-.7.5-3,1.5-3.8.5-.3,1.3.2,1.2,2.2h0Z"/><path class="cls-5" d="M1277.6,761.6v2.3c0-1.9-.5-2.4-.9-2-.6.8-.8,2.8-.8,3.9v-2.4c.2-1.1.4-3.2,1-3.9.4-.4.8,0,.7,2.1h0Z"/><path class="cls-5" d="M1335,768.3v2.2c0-2.8-.3-3.6-.4-3.8-.4-.6-.8.4-.9,1.6,0,0,0,.2,0,.3v-2.4c.1,0,.2-.2.2-.3.1-1.2.5-2.2.9-1.6.1.2.5,1,.3,4h0Z"/><path class="cls-5" d="M1333.4,765.8v2.3c0-2.1-.5-3.5-1-3.9-.7-.5-1.3.3-1.4,2v-2.4c.3-1.7.9-2.5,1.6-2,.5.4,1,1.8.9,4h0Z"/><path class="cls-5" d="M1330.5,763.4v2.3c0-2.1-.8-3.4-1.5-3.8-1-.5-1.8.4-1.9,2.1v-2.4c.3-1.7,1.1-2.5,2-2.1.7.4,1.4,1.8,1.4,3.9h0Z"/><path class="cls-5" d="M1326.5,761.3v2.4c0-2.4-1.3-3.5-1.9-3.7-1.2-.4-2.1.5-2.3,2.2v-2.4c.3-1.7,1.2-2.6,2.4-2.2.7.2,1.9,1.4,1.8,3.8h0Z"/><path class="cls-5" d="M1321.5,759.4v2.4c-.1-2.2-1.4-3.4-2.3-3.6-1.4-.3-2.4.7-2.6,2.4v-2.4c.3-1.7,1.4-2.7,2.8-2.4.9.2,2.2,1.4,2.2,3.6h0Z"/><path class="cls-5" d="M1315.7,757.9v2.4c-.1-2.2-1.6-3.3-2.6-3.4-1.6-.2-2.7.8-2.9,2.6v-2.4c.3-1.7,1.5-2.7,3-2.6,1,.2,2.5,1.2,2.4,3.5h0Z"/><path class="cls-5" d="M1309.2,756.9v2.4c-.1-2.2-1.7-3.1-2.8-3.2-1.7,0-2.9,1-3,2.8v-2.4c.3-1.7,1.5-2.8,3.2-2.8,1.1,0,2.7,1,2.7,3.3h0Z"/><path class="cls-5" d="M1302.4,756.4v2.4c-.1-2.2-1.7-3-2.8-3-1.6,0-2.7,1.3-2.8,3v-2.4c.3-1.8,1.4-2.9,3-3,1,0,2.6.8,2.6,3h0Z"/><path class="cls-5" d="M1295.9,756.5v2.4c-.1-2.2-1.6-2.8-2.5-2.7-1.4.2-2.4,1.5-2.6,3.2v-2.4c.3-1.8,1.3-3,2.7-3.2.9,0,2.4.6,2.4,2.8h0Z"/><path class="cls-5" d="M1290,757.1v2.4c-.1-2.2-1.4-2.7-2.2-2.5-1.2.3-2.1,1.7-2.3,3.5v-2.4c.3-1.8,1.2-3.1,2.4-3.5.8-.2,2.1.4,2.1,2.6h0Z"/><path class="cls-5" d="M1283.4,783.4v2.4c0-2-1.1-2.6-1.8-2.3-1.2.5-1.7,2.2-1.9,3.6v-2.4c.3-1.4.8-3.1,2-3.6.7-.2,1.8.3,1.7,2.4Z"/><path class="cls-5" d="M1279.2,784.9v2.4c0-2-.8-2.5-1.4-2.2-1.1.8-1.3,3.1-1.4,3.8v-2.4c.2-.7.5-3,1.5-3.8.5-.3,1.3.2,1.2,2.2h0Z"/><path class="cls-5" d="M1276.1,786.8v2.3c0-1.9-.5-2.4-.9-2-.6.8-.8,2.8-.8,3.9v-2.4c.2-1.1.4-3.2,1-3.9.4-.4.8,0,.7,2.1h0Z"/><path class="cls-5" d="M1333.5,793.5v2.2c0-2.8-.3-3.6-.4-3.8-.4-.6-.8.4-.9,1.6,0,0,0,.2,0,.3v-2.4c.1,0,.2-.2.2-.3.1-1.2.5-2.2.9-1.6.1.2.5,1,.3,4h0Z"/><path class="cls-5" d="M1331.9,791v2.3c0-2.1-.5-3.5-1-3.9-.7-.5-1.3.3-1.4,2v-2.4c.3-1.7.9-2.5,1.6-2,.5.4,1,1.8.9,4h0Z"/><path class="cls-5" d="M1329,788.6v2.3c0-2.1-.8-3.4-1.5-3.8-1-.5-1.8.4-1.9,2.1v-2.4c.3-1.7,1.1-2.5,2-2.1.7.4,1.4,1.8,1.4,3.9h0Z"/><path class="cls-5" d="M1325,786.5v2.4c0-2.4-1.3-3.5-1.9-3.7-1.2-.4-2.1.5-2.3,2.2v-2.4c.3-1.7,1.2-2.6,2.4-2.2.7.2,1.9,1.4,1.8,3.8h0Z"/><path class="cls-5" d="M1320,784.6v2.4c-.1-2.2-1.4-3.4-2.3-3.6-1.4-.3-2.4.7-2.6,2.4v-2.4c.3-1.7,1.4-2.7,2.8-2.4.9.2,2.2,1.4,2.2,3.6h0Z"/><path class="cls-5" d="M1314.2,783.1v2.4c-.1-2.2-1.6-3.3-2.6-3.4-1.6-.2-2.7.8-2.9,2.6v-2.4c.3-1.7,1.5-2.7,3-2.6,1,.2,2.5,1.2,2.4,3.5h0Z"/><path class="cls-5" d="M1307.8,782.1v2.4c-.1-2.2-1.7-3.1-2.8-3.2-1.7,0-2.9,1-3,2.8v-2.4c.3-1.7,1.5-2.8,3.2-2.8,1.1,0,2.7,1,2.7,3.3h0Z"/><path class="cls-5" d="M1301,781.6v2.4c-.1-2.2-1.7-3-2.8-3-1.6,0-2.7,1.3-2.8,3v-2.4c.3-1.8,1.4-2.9,3-3,1,0,2.6.8,2.6,3h0Z"/><path class="cls-5" d="M1294.4,781.6v2.4c-.1-2.2-1.6-2.8-2.5-2.7-1.4.2-2.4,1.5-2.6,3.2v-2.4c.3-1.8,1.3-3,2.7-3.2.9,0,2.4.6,2.4,2.8h0Z"/><path class="cls-5" d="M1288.5,782.3v2.4c-.1-2.2-1.4-2.7-2.2-2.5-1.2.3-2.1,1.7-2.3,3.5v-2.4c.3-1.8,1.2-3.1,2.4-3.5.8-.2,2.1.4,2.1,2.6h0Z"/><path class="cls-5" d="M1281.9,808.5v2.4c0-2-1.1-2.6-1.8-2.3-1.2.5-1.7,2.2-1.9,3.6v-2.4c.3-1.4.8-3.1,2-3.6.7-.2,1.8.3,1.7,2.4Z"/><path class="cls-5" d="M1277.8,810.1v2.4c0-2-.8-2.5-1.4-2.2-1.1.8-1.3,3.1-1.4,3.8v-2.4c.2-.7.5-3,1.5-3.8.5-.3,1.3.2,1.2,2.2h0Z"/><path class="cls-5" d="M1274.7,812v2.3c0-1.9-.5-2.4-.9-2-.6.8-.8,2.8-.8,3.9v-2.4c.2-1.1.4-3.2,1-3.9.4-.4.8,0,.7,2.1h0Z"/><path class="cls-5" d="M1332.1,818.7v2.2c0-2.8-.3-3.6-.4-3.8-.4-.6-.8.4-.9,1.6,0,0,0,.2,0,.3v-2.4c.1,0,.2-.2.2-.3.1-1.2.5-2.2.9-1.6.1.2.5,1,.3,4h0Z"/><path class="cls-5" d="M1330.5,816.2v2.3c0-2.1-.5-3.5-1-3.9-.7-.5-1.3.3-1.4,2v-2.4c.3-1.7.9-2.5,1.6-2,.5.4,1,1.8.9,4h0Z"/><path class="cls-5" d="M1327.6,813.8v2.3c0-2.1-.8-3.4-1.5-3.8-1-.5-1.8.4-1.9,2.1v-2.4c.3-1.7,1.1-2.5,2-2.1.7.4,1.4,1.8,1.4,3.9h0Z"/><path class="cls-5" d="M1323.6,811.6v2.4c0-2.4-1.3-3.5-1.9-3.7-1.2-.4-2.1.5-2.3,2.2v-2.4c.3-1.7,1.2-2.6,2.4-2.2.7.2,1.9,1.4,1.8,3.8h0Z"/><path class="cls-5" d="M1318.6,809.8v2.4c-.1-2.2-1.4-3.4-2.3-3.6-1.4-.3-2.4.7-2.6,2.4v-2.4c.3-1.7,1.4-2.7,2.8-2.4.9.2,2.2,1.4,2.2,3.6h0Z"/><path class="cls-5" d="M1312.8,808.3v2.4c-.1-2.2-1.6-3.3-2.6-3.4-1.6-.2-2.7.8-2.9,2.6v-2.4c.3-1.7,1.5-2.7,3-2.6,1,.2,2.5,1.2,2.4,3.5h0Z"/><path class="cls-5" d="M1306.3,807.3v2.4c-.1-2.2-1.7-3.1-2.8-3.2-1.7,0-2.9,1-3,2.8v-2.4c.3-1.7,1.5-2.8,3.2-2.8,1.1,0,2.7,1,2.7,3.3h0Z"/><path class="cls-5" d="M1299.5,806.7v2.4c-.1-2.2-1.7-3-2.8-3-1.6,0-2.7,1.3-2.8,3v-2.4c.3-1.8,1.4-2.9,3-3,1,0,2.6.8,2.6,3h0Z"/><path class="cls-5" d="M1293,806.8v2.4c-.1-2.2-1.6-2.8-2.5-2.7-1.4.2-2.4,1.5-2.6,3.2v-2.4c.3-1.8,1.3-3,2.7-3.2.9,0,2.4.6,2.4,2.8h0Z"/><path class="cls-5" d="M1287.1,807.4v2.4c-.1-2.2-1.4-2.7-2.2-2.5-1.2.3-2.1,1.7-2.3,3.5v-2.4c.3-1.8,1.2-3.1,2.4-3.5.8-.2,2.1.4,2.1,2.6h0Z"/><path class="cls-5" d="M1280.5,833.7v2.4c0-2-1.1-2.6-1.8-2.3-1.2.5-1.7,2.2-1.9,3.6v-2.4c.3-1.4.8-3.1,2-3.6.7-.2,1.8.3,1.7,2.4Z"/><path class="cls-5" d="M1276.3,835.3v2.4c0-2-.8-2.5-1.4-2.2-1.1.8-1.3,3.1-1.4,3.8v-2.4c.2-.7.5-3,1.5-3.8.5-.3,1.3.2,1.2,2.2h0Z"/><path class="cls-5" d="M1273.2,837.2v2.3c0-1.9-.5-2.4-.9-2-.6.8-.8,2.8-.8,3.9v-2.4c.2-1.1.4-3.2,1-3.9.4-.4.8,0,.7,2.1h0Z"/><path class="cls-5" d="M1330.6,843.9v2.2c0-2.8-.3-3.6-.4-3.8-.4-.6-.8.4-.9,1.6,0,0,0,.2,0,.3v-2.4c.1,0,.2-.2.2-.3.1-1.2.5-2.2.9-1.6.1.2.5,1,.3,4h0Z"/><path class="cls-5" d="M1329,841.3v2.3c0-2.1-.5-3.5-1-3.9-.7-.5-1.3.3-1.4,2v-2.4c.3-1.7.9-2.5,1.6-2,.5.4,1,1.8.9,4h0Z"/><path class="cls-5" d="M1326.1,839v2.3c0-2.1-.8-3.4-1.5-3.8-1-.5-1.8.4-1.9,2.1v-2.4c.3-1.7,1.1-2.5,2-2.1.7.4,1.4,1.8,1.4,3.9h0Z"/><path class="cls-5" d="M1322.1,836.8v2.4c0-2.4-1.3-3.5-1.9-3.7-1.2-.4-2.1.5-2.3,2.2v-2.4c.3-1.7,1.2-2.6,2.4-2.2.7.2,1.9,1.4,1.8,3.8h0Z"/><path class="cls-5" d="M1317.1,835v2.4c-.1-2.2-1.4-3.4-2.3-3.6-1.4-.3-2.4.7-2.6,2.4v-2.4c.3-1.7,1.4-2.7,2.8-2.4.9.2,2.2,1.4,2.2,3.6h0Z"/><path class="cls-5" d="M1311.3,833.5v2.4c-.1-2.2-1.6-3.3-2.6-3.4-1.6-.2-2.7.8-2.9,2.6v-2.4c.3-1.7,1.5-2.7,3-2.6,1,.2,2.5,1.2,2.4,3.5h0Z"/><path class="cls-5" d="M1304.9,832.4v2.4c-.1-2.2-1.7-3.1-2.8-3.2-1.7,0-2.9,1-3,2.8v-2.4c.3-1.7,1.5-2.8,3.2-2.8,1.1,0,2.7,1,2.7,3.3h0Z"/><path class="cls-5" d="M1298.1,831.9v2.4c-.1-2.2-1.7-3-2.8-3-1.6,0-2.7,1.3-2.8,3v-2.4c.3-1.8,1.4-2.9,3-3,1,0,2.6.8,2.6,3h0Z"/><path class="cls-5" d="M1291.5,832v2.4c-.1-2.2-1.6-2.8-2.5-2.7-1.4.2-2.4,1.5-2.6,3.2v-2.4c.3-1.8,1.3-3,2.7-3.2.9,0,2.4.6,2.4,2.8h0Z"/><path class="cls-5" d="M1285.6,832.6v2.4c-.1-2.2-1.4-2.7-2.2-2.5-1.2.3-2.1,1.7-2.3,3.5v-2.4c.3-1.8,1.2-3.1,2.4-3.5.8-.2,2.1.4,2.1,2.6h0Z"/><path class="cls-2" d="M1330.8,859.3l-2.8,49.9-61.2-4.6,2.8-49.9c0,0,.1-.2.2-.2.2-.2.4-.5.7-.7.2-.2.4-.3.6-.5.2-.1.3-.2.5-.4.4-.2.8-.5,1.2-.7.2-.1.4-.2.6-.3.2-.1.4-.2.7-.3,5.8-2.7,15.3-4,26-3.2,14.7,1,27,5.6,30.7,10.9h0Z"/><path class="cls-6" d="M1328,909.2v-.2c0-.8-.2-1.5-.5-2.2l1.7-30.2c0-1.2.3-3.5.8-4.3,0,.1,0,.3.1.4v.3l-2.1,36.3"/><path class="cls-6" d="M1326.8,867.2c-1.4-.9-3,.4-3.3,4.2l-1.7,30.2c2.2,1.3,4,2.7,5,4.1l1.7-30.2c.2-4.9-.7-7.5-1.7-8.3"/><path class="cls-6" d="M1318.1,862.7c-2.6-.7-4.7,1.2-5.1,4.8l-1.7,30.2c3.3.9,6.3,1.9,8.8,3.1l1.7-30.2c.1-4.5-1.9-7.2-3.8-7.9"/><path class="cls-6" d="M1305.4,859.7c-3.3-.3-5.8,2-6.2,5.6l-1.7,30.2h0c4,.3,7.8.8,11.3,1.6l1.7-30.2c0-4.7-3-6.9-5.1-7.2"/><path class="cls-6" d="M1291,858.9c-3.7.4-5.3,3.7-5.6,6.6l-1.7,30.2c3.3-.4,7.1-.6,11-.4l1.7-30.2c0-4.4-3.1-6.3-5.3-6.2"/><path class="cls-6" d="M1278.9,860.6c-3.3,1.2-4,6-4.1,7.5l-1.7,30.2c2.3-1,5.1-1.7,8.2-2.2l1.7-30.2c0-4.3-2.4-5.7-4.1-5.2"/><path class="cls-6" d="M1271.1,864.4c-.4.4-1.6,1.6-2,8.1l-1.7,30.2c.8-1.4,2.2-2.6,4.2-3.7l1.7-30.2c.1-4.3-1.4-5.2-2.2-4.5"/><path class="cls-6" d="M1267,903.7c0,.3-.1.6-.2,1l2-35.2c-.2,8.3-1.8,34.2-1.8,34.3"/><g class="cls-3"><path class="cls-4" d="M1331.9,862.6v1.9c-.1,0-.1,0-.1-.1,0-.1,0-.3,0-.4h0c0-.2,0-.3,0-.3,0,0,0,0,0,0,0-.2,0-.3,0-.4,0-.1,0-.2-.1-.4-.2-.5-.5-1.1-.8-1.6-3.7-5.3-16-9.9-30.7-10.9-10.7-.7-20.2.6-26,3.2-.7.3-1.3.6-1.8,1-.1,0-.2.1-.3.2-.2.2-.4.3-.7.5,0,0-.2.1-.3.2-.5.4-1,.8-1.4,1.2-.3.3-.3.3,0,0h0c0,0-.2.2-.2.3-.2.2-.4.5-.5.7,0,.2-.2.3-.2.4,0,0,0,.1,0,.2,0,0,0,.1,0,.2,0,0,0,.1,0,.2,0,0,0,0,0,.2s0,.1,0,.2c0,.3-.1.6-.2.9v-1.7c0-.2.1-.5.2-.7,0-.2,0-.3,0-.4h0c0-.2,0-.3.2-.5.2-.4.4-.9.7-1.3,0-.1.2-.3.3-.4,0,0,0-.1.1-.2,0,0,.1-.2.2-.2.2-.2.4-.5.7-.7.2-.2.4-.3.6-.5.2-.1.3-.2.5-.4.4-.2.8-.5,1.2-.7.2-.1.4-.2.6-.3.2-.1.4-.2.7-.3,5.8-2.7,15.3-4,26-3.2,14.7,1,27,5.6,30.7,10.9.7,1.1,1.1,2.1,1.1,3.2h0c0,.1,0,.1,0,.1Z"/><path class="cls-1" d="M1330.7,861.2l-.4,6.7c.9-1.1,1.5-2.2,1.5-3.5,0-1.1-.4-2.2-1.1-3.2h0Z"/><path class="cls-1" d="M1269.5,856.6c-.9,1.1-1.5,2.2-1.5,3.5,0,1.1.4,2.2,1.1,3.2l.4-6.7Z"/></g></svg>