<?xml version="1.0" encoding="UTF-8"?><svg id="_10" xmlns="http://www.w3.org/2000/svg" viewBox="0 0 1920 1080"><defs><style>.cls-1{fill:#e71b36;}</style></defs><path class="cls-1" d="M1469.5,758.1v21.6h-33.8v-21.6h-12.3v235h12.3v-97.4h33.8v70.7h10.5v-208.2h-10.5ZM1469.5,886.9h-33.8v-96.8h33.8v96.8Z"/><path class="cls-1" d="M1699.9,759.2v21.6h-27.7v-21.6h-10.5v204h10.5v-66.5h27.7v97.4h12.3v-235h-12.3ZM1699.9,888.1h-27.7v-96.8h27.7v96.8Z"/><path class="cls-1" d="M1791.7,959.2c-38.1-17.9-59.1-59.7-69.9-91.6-11.7-34.4-14.6-65-14.6-65.4l2.6-.2c0,.3,2.8,30.7,14.5,64.8,10.7,31.4,31.3,72.5,68.6,90l-1.1,2.3h0Z"/><path class="cls-1" d="M1804.3,961.4c-26.3-3.5-50-13.6-70.4-29.8-16.3-13-30.5-30-42.2-50.4-20-34.8-26-68.1-26-68.5l2.5-.4c0,.3,6,33.3,25.8,67.7,18.2,31.6,52.2,71,110.7,78.9l-.3,2.5h0Z"/><path class="cls-1" d="M1354.4,956.9l-.7-2.5c55.2-16,72.8-107.8,73-108.7l2.5.5c0,.2-4.5,23.8-15.8,49-15.1,33.5-35.5,54.9-59,61.7h0Z"/><path class="cls-1" d="M1341.9,959.1l-.3-2.5c58.6-7.9,90.9-46.9,107.7-78.2,18.2-34,22.6-66.5,22.7-66.9l2.6.3c0,.3-4.5,33.3-23,67.8-10.9,20.2-24.4,37-40.2,49.9-19.8,16.1-43.1,26.1-69.4,29.6h0Z"/><path class="cls-1" d="M1569.6,959.9c-.3,0-.6,0-1,0-25.1-.5-48.1-8.1-68.4-22.5-16.2-11.5-30.7-27.3-43.1-47-21.1-33.5-28.9-67.2-28.9-67.5l2.5-.6c0,.3,7.8,33.7,28.7,66.8,19.2,30.5,53.7,67,109.3,68.2h.9c45.4,0,86.1-71.8,92.2-136.7l2.6.2c-3,32.1-14.9,67.2-31.8,93.8-18.6,29.2-40.9,45.3-63,45.3h0Z"/><path class="cls-1" d="M1572.3,958.9c-15.8,0-30.3-5.5-43.2-16.5-12.2-10.4-23-25.7-32.1-45.4-15.4-33.5-20.6-68.8-20.7-69.1l2.5-.4c0,.3,5.2,35.3,20.5,68.5,20.3,44.1,47.9,64.2,82,59.7,43.9-5.8,73.9-38.9,91.3-65.6,20.6-31.6,29.3-62.5,29.3-69.4h2.6c0,9.1-9.9,40.5-29.7,70.8-17.7,27.2-48.2,60.8-93.2,66.8-3.2.4-6.3.6-9.3.6h0Z"/><path class="cls-1" d="M1331.1,978s259.4-27.6,461.1-7.8c0,0-185.2-40.2-461.1,7.8Z"/><path class="cls-1" d="M1440.8,962.7v-103.5c-.7-1.7-1.4-3.3-2.1-4.9v108.6c.7,0,1.4-.1,2.1-.2h0Z"/><path class="cls-1" d="M1446.7,962.1v-90.3c-.7-1.4-1.4-2.8-2.1-4.2v94.7c.7,0,1.4-.1,2.1-.2h0Z"/><path class="cls-1" d="M1452.6,961.5v-78.7c-.7-1.2-1.4-2.5-2.1-3.7v82.6c.7,0,1.4-.1,2.1-.2Z"/><path class="cls-1" d="M1458.5,961v-68.4c-.5-.7-.9-1.4-1.4-2.1-.2-.4-.5-.8-.7-1.1v71.9c.7,0,1.4-.1,2.1-.2h0Z"/><path class="cls-1" d="M1464.4,960.4v-59.2c-.7-1-1.4-1.9-2.1-2.9v62.3c.7,0,1.4-.1,2.1-.2h0Z"/><path class="cls-1" d="M1470.3,959.9v-51c-.7-.9-1.4-1.7-2.1-2.6v53.8c.7,0,1.4-.1,2.1-.2h0Z"/><path class="cls-1" d="M1476.2,959.4v-43.5c-.7-.8-1.4-1.5-2.1-2.3v46c.7,0,1.4-.1,2.1-.2Z"/><path class="cls-1" d="M1482.1,959v-36.8c-.7-.7-1.4-1.4-2.1-2.1v39.1c.7,0,1.4-.1,2.1-.2h0Z"/><path class="cls-1" d="M1488.1,958.5v-30.8c-.7-.6-1.4-1.2-2.1-1.9v32.8c.7,0,1.4,0,2.1-.2Z"/><path class="cls-1" d="M1494,958.1v-25.4c-.7-.5-1.4-1.1-2.1-1.7v27.2c.7,0,1.4,0,2.1-.2Z"/><path class="cls-1" d="M1499.9,957.7v-20.5c-.7-.5-1.4-1-2.1-1.5v22.2c.7,0,1.4,0,2.1-.1Z"/><path class="cls-1" d="M1505.8,957.3v-16.2c-.7-.4-1.4-.9-2.1-1.3v17.6c.7,0,1.4,0,2.1-.1Z"/><path class="cls-1" d="M1511.7,957v-12.3c-.7-.4-1.4-.8-2.1-1.2v13.6c.7,0,1.4,0,2.1-.1h0Z"/><path class="cls-1" d="M1517.6,956.6v-8.9c-.7-.3-1.4-.7-2.1-1v10c.7,0,1.4,0,2.1-.1h0Z"/><path class="cls-1" d="M1523.5,956.3v-5.9c-.7-.3-1.4-.6-2.1-.9v6.9c.7,0,1.4,0,2.1,0h0Z"/><path class="cls-1" d="M1529.4,956v-3.3c-.7-.2-1.4-.5-2.1-.8v4.2c.7,0,1.4,0,2.1,0Z"/><path class="cls-1" d="M1535.3,955.8v-1.1c-.7-.2-1.4-.4-2.1-.6v1.8c.7,0,1.4,0,2.1,0h0Z"/><path class="cls-1" d="M1486,958.7v-90.6c-.7-2.3-1.4-4.6-2.1-6.8v97.6c.7,0,1.4-.1,2.1-.2h0Z"/><path class="cls-1" d="M1491.9,958.2v-73.3c-.7-1.8-1.4-3.6-2.1-5.5v78.9c.7,0,1.4,0,2.1-.1Z"/><path class="cls-1" d="M1497.8,957.8v-59.1c-.3-.6-.5-1.1-.8-1.7-.4-.9-.8-1.9-1.3-2.8v63.7c.7,0,1.4,0,2.1-.1h0Z"/><path class="cls-1" d="M1503.7,957.4v-47.2c-.7-1.2-1.4-2.5-2.1-3.8v51.1c.7,0,1.4,0,2.1-.1h0Z"/><path class="cls-1" d="M1509.7,957.1v-37.1c-.7-1-1.4-2.1-2.1-3.2v40.4c.7,0,1.4,0,2.1-.1h0Z"/><path class="cls-1" d="M1515.6,956.7v-28.6c-.7-.9-1.4-1.8-2.1-2.7v31.4c.7,0,1.4,0,2.1-.1Z"/><path class="cls-1" d="M1521.5,956.4v-21.3c-.7-.7-1.4-1.5-2.1-2.3v23.7c.7,0,1.4,0,2.1-.1h0Z"/><path class="cls-1" d="M1527.4,956.1v-15.2c-.7-.6-1.4-1.3-2.1-1.9v17.2c.7,0,1.4,0,2.1,0h0Z"/><path class="cls-1" d="M1533.3,955.8v-10.1c-.7-.5-1.4-1-2.1-1.6v11.8c.7,0,1.4,0,2.1,0Z"/><path class="cls-1" d="M1539.2,955.6v-5.9c-.7-.4-1.4-.8-2.1-1.3v7.3c.7,0,1.4,0,2.1,0Z"/><path class="cls-1" d="M1545.1,955.4v-2.5c-.7-.3-1.4-.7-2.1-1v3.6c.7,0,1.4,0,2.1,0h0Z"/><path class="cls-1" d="M1599.2,954.4h1.9v-.6c-.6.2-1.3.4-1.9.6h0Z"/><path class="cls-1" d="M1605,952.4v2c.7,0,1.4,0,2.1,0v-2.8c-.7.3-1.4.5-2.1.8h0Z"/><path class="cls-1" d="M1610.9,950v4.5c.7,0,1.4,0,2.1,0v-5.5c-.7.3-1.4.6-2.1.9Z"/><path class="cls-1" d="M1616.8,947.2v7.4c.7,0,1.4,0,2.1,0v-8.5c-.7.4-1.4.7-2.1,1.1h0Z"/><path class="cls-1" d="M1622.7,943.9v10.8c.7,0,1.4,0,2.1,0v-12c-.7.4-1.4.8-2.1,1.2h0Z"/><path class="cls-1" d="M1628.6,940.2v14.6c.7,0,1.4,0,2.1,0v-16.1c-.7.5-1.4,1-2.1,1.4h0Z"/><path class="cls-1" d="M1634.6,936v19c.7,0,1.4,0,2.1,0v-20.6c-.7.5-1.4,1.1-2.1,1.6h0Z"/><path class="cls-1" d="M1640.5,931.2v23.8c.7,0,1.4,0,2.1,0v-25.7c-.7.6-1.4,1.2-2.1,1.8h0Z"/><path class="cls-1" d="M1646.4,926v29.3c.7,0,1.4,0,2.1,0v-31.3c-.7.7-1.4,1.3-2.1,2Z"/><path class="cls-1" d="M1652.3,920.2v35.3c.7,0,1.4,0,2.1,0v-37.6c-.7.7-1.4,1.5-2.1,2.2h0Z"/><path class="cls-1" d="M1658.2,913.7v42.1c.7,0,1.4,0,2.1,0v-44.6c-.7.8-1.4,1.6-2.1,2.4Z"/><path class="cls-1" d="M1664.1,906.6v49.5c.7,0,1.4,0,2.1,0v-52.2c-.7.9-1.4,1.8-2.1,2.7h0Z"/><path class="cls-1" d="M1670,898.6v57.7c.7,0,1.4,0,2.1.1v-60.8c-.7,1-1.4,2-2.1,3Z"/><path class="cls-1" d="M1675.9,889.9v66.8c.7,0,1.4,0,2.1.1v-70.2c-.7,1.1-1.4,2.2-2.1,3.3Z"/><path class="cls-1" d="M1681.8,880.1v77c.7,0,1.4,0,2.1.1v-80.8c-.7,1.2-1.3,2.4-2.1,3.7Z"/><path class="cls-1" d="M1687.8,869.1v88.3c.7,0,1.4,0,2.1.1v-92.6c-.7,1.4-1.3,2.8-2.1,4.2h0Z"/><path class="cls-1" d="M1693.7,856.5v101.3c.7,0,1.4,0,2.1.2v-106.3c-.7,1.6-1.3,3.2-2.1,4.9h0Z"/><path class="cls-1" d="M1592.3,954.3s0,0-.1,0h0c.7,0,1.4,0,2.1,0v-1.1c-.6.3-1.3.7-1.9,1h0Z"/><path class="cls-1" d="M1598.8,950.7c-.2.2-.5.3-.7.4v3.3h2.1v-4.6c-.4.3-.9.6-1.3.9h0Z"/><path class="cls-1" d="M1605.3,946c-.4.3-.9.7-1.3,1,0,0,0,0,0,0v7.4c.7,0,1.4,0,2.1,0v-9c-.2.2-.4.4-.7.6h0Z"/><path class="cls-1" d="M1611.3,940.9c-.5.4-.9.8-1.4,1.2v12.3c.7,0,1.4,0,2.1,0v-14.2c-.2.2-.4.4-.7.6h0Z"/><path class="cls-1" d="M1616.1,936.1c0,0-.2.2-.3.3v18.2c.7,0,1.4,0,2.1,0v-20.4c-.6.7-1.2,1.3-1.8,2h0Z"/><path class="cls-1" d="M1623.1,928c-.4.5-.8,1-1.2,1.5,0,0,0,.1-.2.2v25c.7,0,1.4,0,2.1,0v-27.6c-.2.3-.5.6-.7.9h0Z"/><path class="cls-1" d="M1627.9,921.6c0,.1-.2.2-.3.4v32.8c.7,0,1.4,0,2.1,0v-35.8c-.6.9-1.2,1.7-1.8,2.6h0Z"/><path class="cls-1" d="M1633.5,913v41.9c.7,0,1.4,0,2.1,0v-45.3c-.7,1.2-1.4,2.3-2.1,3.4Z"/><path class="cls-1" d="M1639.4,902.8v52.3c.7,0,1.4,0,2.1,0v-56.3c-.7,1.3-1.4,2.7-2.1,4h0Z"/><path class="cls-1" d="M1645.3,890.8v64.5c.7,0,1.4,0,2.1,0v-69.2c-.7,1.6-1.4,3.1-2.1,4.7Z"/><path class="cls-1" d="M1651.2,876.4v79c.7,0,1.4,0,2.1,0v-84.8c-.7,1.9-1.3,3.8-2.1,5.7Z"/><path class="cls-1" d="M1657.2,858.4v97.3c.7,0,1.4,0,2.1,0v-105.2c-.6,2.6-1.3,5.2-2.1,7.8Z"/></svg>