<?xml version="1.0" encoding="UTF-8"?><svg id="_11" xmlns="http://www.w3.org/2000/svg" viewBox="0 0 1920 1080"><defs><style>.cls-1{fill:#ede1da;}.cls-2{fill:#d1c6c0;}.cls-3{fill:#e9dbd2;}.cls-4{fill:#eadbd2;}.cls-5{fill:#3b3e3c;}.cls-6{fill:#396d82;}.cls-7{fill:#ecdfd7;}.cls-8{fill:#c0b9b5;}.cls-9{fill:#dad0cf;}.cls-10{fill:#404040;}.cls-11{fill:#3b3a3a;}.cls-12{fill:#eadcd3;}.cls-13{fill:#e4e4e5;}.cls-14{fill:#eee1d9;}.cls-15{fill:#afa6a2;}.cls-16{fill:#c5bab4;}.cls-17{fill:#494a48;}.cls-18{fill:#c7bbb5;}.cls-19{fill:#bfa797;}.cls-20{fill:#ccbfb8;}.cls-21{fill:#aea5a0;}.cls-22{fill:#ede1d7;}.cls-23{fill:#959595;}.cls-24{fill:#fdfcfd;}.cls-25{fill:#847771;}.cls-26{fill:#c6bbb5;}.cls-27{fill:#e2d5cf;}.cls-28{fill:#b6a79e;}.cls-29{fill:#d2c6c0;}</style></defs><polygon class="cls-27" points="1550.1 959.6 1395.4 959.6 1398.2 991.2 1550.1 991.2 1701.9 991.2 1704.7 959.6 1550.1 959.6"/><polygon class="cls-16" points="1550.1 956.6 1395.2 956.6 1395.4 959.6 1550.1 959.6 1704.7 959.6 1705 956.6 1550.1 956.6"/><polygon class="cls-12" points="1550.1 952.7 1394.8 952.7 1395.2 956.6 1550.1 956.6 1705 956.6 1705.3 952.7 1550.1 952.7"/><polygon class="cls-28" points="1550.1 947 1394.3 947 1394.8 952.7 1550.1 952.7 1705.3 952.7 1705.8 947 1550.1 947"/><polygon class="cls-27" points="1612.7 947 1487.5 947 1503.2 754 1503.7 747.9 1596.5 747.9 1597 754 1612.7 947"/><rect class="cls-26" x="1543.8" y="777.7" width="12.6" height="154"/><rect x="1548.3" y="784.1" width="3.5" height="6.6"/><rect x="1548.3" y="806.9" width="3.5" height="6.6"/><rect x="1548.3" y="829.7" width="3.5" height="6.6"/><rect x="1548.3" y="852.5" width="3.5" height="6.6"/><rect x="1548.3" y="875.3" width="3.5" height="6.6"/><rect x="1548.3" y="898.1" width="3.5" height="6.6"/><rect x="1548.3" y="917.9" width="3.5" height="6.6"/><rect class="cls-15" x="1543.8" y="777.7" width="12.6" height="3.3"/><rect class="cls-26" x="1527.2" y="777.7" width="12.6" height="154"/><rect x="1531.8" y="784.1" width="3.5" height="6.6"/><rect x="1531.8" y="806.9" width="3.5" height="6.6"/><rect x="1531.8" y="829.7" width="3.5" height="6.6"/><rect x="1531.8" y="852.5" width="3.5" height="6.6"/><rect x="1531.8" y="875.3" width="3.5" height="6.6"/><rect x="1531.8" y="898.1" width="3.5" height="6.6"/><rect x="1531.8" y="917.9" width="3.5" height="6.6"/><rect class="cls-15" x="1527.2" y="777.7" width="12.6" height="3.3"/><polygon class="cls-26" points="1523.2 777.7 1523.2 931.7 1500.3 931.7 1510.4 781 1510.6 777.7 1523.2 777.7"/><rect x="1515.2" y="784.1" width="3.5" height="6.6"/><rect x="1515.2" y="806.9" width="3.5" height="6.6"/><rect x="1515.2" y="829.7" width="3.5" height="6.6"/><rect x="1515.2" y="852.5" width="3.5" height="6.6"/><rect x="1515.2" y="875.3" width="3.5" height="6.6"/><rect x="1515.2" y="898.1" width="3.5" height="6.6"/><rect x="1515.2" y="917.9" width="3.5" height="6.6"/><polygon class="cls-15" points="1523.2 777.7 1523.2 781 1510.4 781 1510.6 777.7 1523.2 777.7"/><rect class="cls-26" x="1560.4" y="777.7" width="12.6" height="154"/><rect x="1564.9" y="784.1" width="3.5" height="6.6"/><rect x="1564.9" y="806.9" width="3.5" height="6.6"/><rect x="1564.9" y="829.7" width="3.5" height="6.6"/><rect x="1564.9" y="852.5" width="3.5" height="6.6"/><rect x="1564.9" y="875.3" width="3.5" height="6.6"/><rect x="1564.9" y="898.1" width="3.5" height="6.6"/><rect x="1564.9" y="917.9" width="3.5" height="6.6"/><rect class="cls-15" x="1560.4" y="777.7" width="12.6" height="3.3"/><polygon class="cls-26" points="1599.8 931.7 1577 931.7 1577 777.7 1589.6 777.7 1589.8 781 1599.8 931.7"/><rect x="1581.5" y="784.1" width="3.5" height="6.6"/><rect x="1581.5" y="806.9" width="3.5" height="6.6"/><rect x="1581.5" y="829.7" width="3.5" height="6.6"/><rect x="1581.5" y="852.5" width="3.5" height="6.6"/><rect x="1581.5" y="875.3" width="3.5" height="6.6"/><rect x="1581.5" y="898.1" width="3.5" height="6.6"/><rect x="1581.5" y="917.9" width="3.5" height="6.6"/><polygon class="cls-15" points="1589.8 781 1577 781 1577 777.7 1589.6 777.7 1589.8 781"/><rect x="1540.1" y="758.9" width="3.5" height="6.6"/><rect x="1523.5" y="758.9" width="3.5" height="6.6"/><rect x="1573.2" y="758.9" width="3.5" height="6.6"/><rect x="1556.7" y="758.9" width="3.5" height="6.6"/><polygon class="cls-18" points="1597 754 1503.2 754 1503.7 747.9 1596.5 747.9 1597 754"/><polygon class="cls-27" points="1597.7 733.7 1595.1 728.8 1592.4 733.7 1588.7 733.7 1586 728.8 1583.4 733.7 1579.7 733.7 1577 728.8 1574.3 733.7 1570.7 733.7 1568 728.8 1565.3 733.7 1561.7 733.7 1559 728.8 1556.3 733.7 1552.6 733.7 1550 728.8 1547.3 733.7 1543.6 733.7 1540.9 728.8 1538.3 733.7 1534.6 733.7 1531.9 728.8 1529.3 733.7 1525.6 733.7 1522.9 728.8 1520.2 733.7 1516.6 733.7 1513.9 728.8 1511.2 733.7 1507.5 733.7 1504.9 728.8 1502.2 733.7 1499.3 733.7 1499.3 747.9 1600.6 747.9 1600.6 733.7 1597.7 733.7"/><rect class="cls-14" x="1526.1" y="669.3" width="47.7" height="64.5"/><rect class="cls-9" x="1535.5" y="674.2" width="11.2" height="39.2"/><polygon class="cls-8" points="1546.7 674.2 1546.7 676.1 1537.4 676.1 1537.4 713.4 1535.5 713.4 1535.5 674.2 1546.7 674.2"/><rect class="cls-10" x="1540" y="679.8" width="3.8" height="3.8"/><rect class="cls-10" x="1540" y="688.5" width="3.8" height="3.8"/><rect class="cls-10" x="1540" y="697.1" width="3.8" height="3.8"/><rect class="cls-10" x="1540" y="705.7" width="3.8" height="3.8"/><rect class="cls-9" x="1553.2" y="674.2" width="11.2" height="39.2"/><polygon class="cls-8" points="1564.4 674.2 1564.4 676.1 1555.1 676.1 1555.1 713.4 1553.2 713.4 1553.2 674.2 1564.4 674.2"/><rect class="cls-10" x="1557.7" y="679.8" width="3.8" height="3.8"/><rect class="cls-10" x="1557.7" y="688.5" width="3.8" height="3.8"/><rect class="cls-10" x="1557.7" y="697.1" width="3.8" height="3.8"/><rect class="cls-10" x="1557.7" y="705.7" width="3.8" height="3.8"/><rect class="cls-9" x="1569.8" y="674.2" width="4" height="39.2"/><polygon class="cls-8" points="1573.8 674.2 1573.8 676.1 1571.7 676.1 1571.7 713.4 1569.8 713.4 1569.8 674.2 1573.8 674.2"/><rect class="cls-9" x="1526.1" y="674.2" width="4" height="39.2"/><rect class="cls-8" x="1526.1" y="674.2" width="4" height="1.9"/><rect class="cls-10" x="1526.1" y="679.8" width="1.1" height="3.8"/><rect class="cls-10" x="1526.1" y="688.5" width="1.1" height="3.8"/><rect class="cls-10" x="1526.1" y="697.1" width="1.1" height="3.8"/><rect class="cls-10" x="1526.1" y="705.7" width="1.1" height="3.8"/><rect class="cls-2" x="1526.1" y="720.6" width="47.7" height="13.1"/><path class="cls-2" d="M1550.1,667.3h-24.4c-.6,0-1,.5-1,1h0c0,.5.4,1,1,1h48.8c.6,0,1-.5,1-1h0c0-.5-.4-1-1-1h-24.4,0Z"/><polygon class="cls-7" points="1550.1 664.3 1526.6 664.3 1526.6 667.3 1550.1 667.3 1573.6 667.3 1573.6 664.3 1550.1 664.3"/><polygon class="cls-19" points="1550.1 662.1 1526.6 662.1 1526.6 664.3 1550.1 664.3 1573.6 664.3 1573.6 662.1 1550.1 662.1"/><polygon class="cls-1" points="1550.1 656.3 1524.7 656.3 1524.7 662.1 1550.1 662.1 1575.5 662.1 1575.5 656.3 1550.1 656.3"/><polygon class="cls-13" points="1524.7 652.8 1524.7 656.3 1526.4 656.3 1524.7 652.8"/><polygon class="cls-13" points="1531 652.8 1529.2 656.3 1532.8 656.3 1531 652.8"/><polygon class="cls-13" points="1536.4 652.8 1534.7 656.3 1538.2 656.3 1536.4 652.8"/><polygon class="cls-13" points="1541.9 652.8 1540.2 656.3 1543.7 656.3 1541.9 652.8"/><polygon class="cls-13" points="1547.4 652.8 1545.6 656.3 1549.1 656.3 1547.4 652.8"/><polygon class="cls-13" points="1552.8 652.8 1551.1 656.3 1554.6 656.3 1552.8 652.8"/><polygon class="cls-13" points="1558.3 652.8 1556.5 656.3 1560 656.3 1558.3 652.8"/><polygon class="cls-13" points="1563.7 652.8 1562 656.3 1565.5 656.3 1563.7 652.8"/><polygon class="cls-13" points="1569.2 652.8 1567.4 656.3 1570.9 656.3 1569.2 652.8"/><polygon class="cls-13" points="1575.5 652.8 1575.5 656.3 1573.8 656.3 1575.5 652.8"/><rect class="cls-22" x="1534.7" y="633.7" width="30.8" height="22.6"/><rect class="cls-29" x="1534.7" y="633.7" width="30.8" height="5.1"/><rect class="cls-24" x="1548.7" y="633.7" width="2.8" height="22.6"/><rect class="cls-24" x="1556.9" y="633.7" width="2.8" height="22.6"/><rect class="cls-24" x="1540.5" y="633.7" width="2.8" height="22.6"/><rect class="cls-19" x="1531.9" y="628.2" width="36.4" height="5.5"/><polygon class="cls-6" points="1565.5 628.2 1534.7 628.2 1545.6 609.5 1554.6 609.5 1565.5 628.2"/><polygon class="cls-6" points="1550.1 606.8 1545.6 606.8 1545.6 609.5 1550.1 609.5 1554.6 609.5 1554.6 606.8 1550.1 606.8"/><polygon class="cls-6" points="1550.1 594.7 1547.7 606.8 1550.1 606.8 1552.4 606.8 1550.1 594.7"/><path class="cls-23" d="M1550.1,991.2h-232.8v3.8c0,9.9,8.1,18,18,18h429.6c9.9,0,18-8.1,18-18v-3.8h-232.8Z"/><polygon class="cls-21" points="1493.7 962.1 1493.7 964.3 1477.8 964.3 1477.8 991.2 1475.7 991.2 1475.7 962.1 1493.7 962.1"/><rect class="cls-3" x="1477.8" y="964.3" width="15.9" height="26.9"/><rect class="cls-26" x="1477.8" y="964.3" width="15.9" height="26.9"/><rect class="cls-11" x="1481.9" y="966.4" width="6.6" height="6.6"/><polygon class="cls-21" points="1468.7 962.1 1468.7 964.3 1452.8 964.3 1452.8 991.2 1450.7 991.2 1450.7 962.1 1468.7 962.1"/><rect class="cls-3" x="1452.8" y="964.3" width="15.9" height="26.9"/><rect class="cls-26" x="1452.8" y="964.3" width="15.9" height="26.9"/><rect class="cls-11" x="1456.9" y="966.4" width="6.6" height="6.6"/><polygon class="cls-21" points="1443.7 962.1 1443.7 964.3 1427.9 964.3 1427.9 991.2 1425.7 991.2 1425.7 962.1 1443.7 962.1"/><rect class="cls-3" x="1427.9" y="964.3" width="15.9" height="26.9"/><rect class="cls-26" x="1427.9" y="964.3" width="15.9" height="26.9"/><rect class="cls-11" x="1431.9" y="966.4" width="6.6" height="6.6"/><polygon class="cls-21" points="1418.8 962.1 1418.8 964.3 1402.9 964.3 1402.9 991.2 1400.8 991.2 1400.8 962.1 1418.8 962.1"/><rect class="cls-3" x="1402.9" y="964.3" width="15.9" height="26.9"/><rect class="cls-26" x="1402.9" y="964.3" width="15.9" height="26.9"/><rect class="cls-11" x="1406.9" y="966.4" width="6.6" height="6.6"/><polygon class="cls-21" points="1518.7 962.1 1518.7 964.3 1502.8 964.3 1502.8 991.2 1500.7 991.2 1500.7 962.1 1518.7 962.1"/><rect class="cls-3" x="1502.8" y="964.3" width="15.9" height="26.9"/><rect class="cls-26" x="1502.8" y="964.3" width="15.9" height="26.9"/><rect class="cls-11" x="1506.8" y="966.4" width="6.6" height="6.6"/><rect class="cls-25" x="1543.8" y="962.1" width="12.6" height="29.1"/><rect class="cls-25" x="1562.1" y="962.1" width="12.6" height="29.1"/><rect class="cls-25" x="1525.5" y="962.1" width="12.6" height="29.1"/><polygon class="cls-21" points="1606.5 962.1 1606.5 964.3 1622.4 964.3 1622.4 991.2 1624.5 991.2 1624.5 962.1 1606.5 962.1"/><rect class="cls-3" x="1606.5" y="964.3" width="15.9" height="26.9"/><rect class="cls-26" x="1606.5" y="964.3" width="15.9" height="26.9"/><rect class="cls-11" x="1611.7" y="966.4" width="6.6" height="6.6"/><polygon class="cls-21" points="1631.5 962.1 1631.5 964.3 1647.3 964.3 1647.3 991.2 1649.5 991.2 1649.5 962.1 1631.5 962.1"/><rect class="cls-3" x="1631.5" y="964.3" width="15.9" height="26.9"/><rect class="cls-26" x="1631.5" y="964.3" width="15.9" height="26.9"/><rect class="cls-11" x="1636.7" y="966.4" width="6.6" height="6.6"/><polygon class="cls-21" points="1656.4 962.1 1656.4 964.3 1672.3 964.3 1672.3 991.2 1674.4 991.2 1674.4 962.1 1656.4 962.1"/><rect class="cls-3" x="1656.4" y="964.3" width="15.9" height="26.9"/><rect class="cls-26" x="1656.4" y="964.3" width="15.9" height="26.9"/><rect class="cls-11" x="1661.7" y="966.4" width="6.6" height="6.6"/><polygon class="cls-21" points="1681.4 962.1 1681.4 964.3 1697.3 964.3 1697.3 991.2 1699.4 991.2 1699.4 962.1 1681.4 962.1"/><rect class="cls-3" x="1681.4" y="964.3" width="15.9" height="26.9"/><rect class="cls-26" x="1681.4" y="964.3" width="15.9" height="26.9"/><rect class="cls-11" x="1686.6" y="966.4" width="6.6" height="6.6"/><polygon class="cls-21" points="1581.5 962.1 1581.5 964.3 1597.4 964.3 1597.4 991.2 1599.5 991.2 1599.5 962.1 1581.5 962.1"/><rect class="cls-3" x="1581.5" y="964.3" width="15.9" height="26.9"/><rect class="cls-26" x="1581.5" y="964.3" width="15.9" height="26.9"/><rect class="cls-11" x="1586.7" y="966.4" width="6.6" height="6.6"/><polygon class="cls-3" points="1398.2 991.2 1393.5 937.4 1392.6 927.4 1392.4 924.7 1349 924.7 1348.8 927.4 1347.9 937.4 1343.1 991.2 1398.2 991.2"/><rect class="cls-4" x="1344" y="917.9" width="53.3" height="6.8"/><polygon class="cls-17" points="1392.6 927.4 1348.8 927.4 1349 924.7 1392.4 924.7 1392.6 927.4"/><polygon class="cls-20" points="1393.5 937.4 1347.9 937.4 1348.8 927.4 1392.6 927.4 1393.5 937.4"/><rect class="cls-5" x="1359.2" y="941.5" width="3.1" height="7.5"/><rect class="cls-5" x="1377.7" y="941.5" width="3.1" height="7.5"/><rect class="cls-5" x="1380.8" y="966.8" width="3.1" height="7.5"/><rect class="cls-5" x="1368.2" y="966.8" width="3.1" height="7.5"/><rect class="cls-5" x="1355.6" y="966.8" width="3.1" height="7.5"/><polygon class="cls-3" points="1757.1 991.2 1701.9 991.2 1706.7 937 1707.6 927 1707.8 924.3 1751.2 924.3 1751.4 927 1752.3 937 1757.1 991.2"/><rect class="cls-4" x="1702.8" y="917.5" width="53.3" height="6.8"/><polygon class="cls-17" points="1751.4 927 1707.6 927 1707.8 924.3 1751.2 924.3 1751.4 927"/><polygon class="cls-20" points="1752.3 937 1706.7 937 1707.6 927 1751.4 927 1752.3 937"/><rect class="cls-5" x="1718" y="941" width="3.1" height="7.5"/><rect class="cls-5" x="1736.5" y="941" width="3.1" height="7.5"/><rect class="cls-5" x="1739.6" y="966.4" width="3.1" height="7.5"/><rect class="cls-5" x="1727" y="966.4" width="3.1" height="7.5"/><rect class="cls-5" x="1714.4" y="966.4" width="3.1" height="7.5"/></svg>