<?xml version="1.0" encoding="UTF-8"?><svg id="_12" xmlns="http://www.w3.org/2000/svg" viewBox="0 0 1920 1080"><defs><style>.cls-1{fill:#58595b;}</style></defs><circle class="cls-1" cx="1743.3" cy="817.7" r="12.8" transform="translate(-67.6 1472.2) rotate(-45)"/><path class="cls-1" d="M1743.3,977.2c-88,0-159.5-71.6-159.5-159.5s71.6-159.5,159.5-159.5,159.6,71.6,159.6,159.5-71.6,159.5-159.6,159.5ZM1743.3,661.4c-86.2,0-156.3,70.1-156.3,156.3s70.1,156.3,156.3,156.3,156.3-70.1,156.3-156.3-70.1-156.3-156.3-156.3Z"/><path class="cls-1" d="M1743.3,969.1c-83.5,0-151.4-67.9-151.4-151.4s67.9-151.4,151.4-151.4,151.4,67.9,151.4,151.4-67.9,151.4-151.4,151.4ZM1743.3,667.9c-82.6,0-149.8,67.2-149.8,149.8s67.2,149.8,149.8,149.8,149.8-67.2,149.8-149.8-67.2-149.8-149.8-149.8Z"/><path class="cls-1" d="M1743.3,958c-77.4,0-140.3-63-140.3-140.3s62.9-140.3,140.3-140.3,140.3,63,140.3,140.3-62.9,140.3-140.3,140.3ZM1743.3,680.6c-75.6,0-137.1,61.5-137.1,137.1s61.5,137.1,137.1,137.1,137.1-61.5,137.1-137.1-61.5-137.1-137.1-137.1Z"/><rect class="cls-1" x="1742.5" y="659.8" width="1.6" height="157.9"/><rect class="cls-1" x="1683.2" y="740.2" width="157.9" height="1.6" transform="translate(619.5 2273.6) rotate(-76.1)"/><rect class="cls-1" x="1701.1" y="747.1" width="157.9" height="1.6" transform="translate(290 1975.7) rotate(-62.3)"/><rect class="cls-1" x="1716.7" y="757.9" width="157.9" height="1.6" transform="translate(36.1 1597.8) rotate(-48.4)"/><rect class="cls-1" x="1729.3" y="772.1" width="157.9" height="1.6" transform="translate(-118.8 1165.2) rotate(-34.7)"/><rect class="cls-1" x="1738.1" y="788.7" width="157.9" height="1.6" transform="translate(-162 697.1) rotate(-20.8)"/><rect class="cls-1" x="1742.7" y="807.3" width="157.9" height="1.6" transform="translate(-84.5 226.7) rotate(-7)"/><rect class="cls-1" x="1820.8" y="748.2" width="1.6" height="157.9" transform="translate(781 2535.8) rotate(-83.1)"/><rect class="cls-1" x="1816.3" y="766.8" width="1.6" height="157.9" transform="translate(382 2244.8) rotate(-69.2)"/><rect class="cls-1" x="1807.4" y="783.4" width="1.6" height="157.9" transform="translate(71.4 1860.8) rotate(-55.4)"/><polygon class="cls-1" points="1847.4 936.4 1742.7 818.2 1743.9 817.2 1848.6 935.4 1847.4 936.4"/><rect class="cls-1" x="1779.2" y="808.7" width="1.6" height="157.9" transform="translate(-208.7 928.8) rotate(-27.7)"/><rect class="cls-1" x="1761.4" y="815.3" width="1.6" height="157.9" transform="translate(-162.8 447.8) rotate(-13.9)"/><rect class="cls-1" x="1742.5" y="817.7" width="1.6" height="157.9"/><rect class="cls-1" x="1645.4" y="893.6" width="157.9" height="1.6" transform="translate(442 2353.4) rotate(-76.1)"/><rect class="cls-1" x="1627.7" y="886.9" width="157.9" height="1.6" transform="translate(127 1985.6) rotate(-62.3)"/><polygon class="cls-1" points="1639.2 936.4 1637.9 935.4 1742.7 817.2 1743.9 818.2 1639.2 936.4"/><rect class="cls-1" x="1599.3" y="861.8" width="157.9" height="1.6" transform="translate(-192.8 1107.2) rotate(-34.7)"/><rect class="cls-1" x="1590.5" y="845" width="157.9" height="1.6" transform="translate(-191.5 647.9) rotate(-20.8)"/><rect class="cls-1" x="1586" y="826.3" width="157.9" height="1.6" transform="translate(-88 207.8) rotate(-7)"/><rect class="cls-1" x="1664" y="729.2" width="1.6" height="157.9" transform="translate(662 2363.4) rotate(-83.1)"/><rect class="cls-1" x="1668.6" y="710.7" width="1.6" height="157.9" transform="translate(339.1 2070.6) rotate(-69.2)"/><rect class="cls-1" x="1677.5" y="694" width="1.6" height="157.9" transform="translate(88.7 1715) rotate(-55.4)"/><rect class="cls-1" x="1690.1" y="679.6" width="1.6" height="157.9" transform="translate(-77.7 1312.1) rotate(-41.5)"/><rect class="cls-1" x="1705.8" y="668.9" width="1.6" height="157.9" transform="translate(-152.1 878.7) rotate(-27.7)"/><rect class="cls-1" x="1723.6" y="661.9" width="1.6" height="157.9" transform="translate(-127.2 434.3) rotate(-13.9)"/><path class="cls-1" d="M1743.3,976.6l-33.4-23.4-40.4,5.2-18.7-36.2-38.2-14.2.3-40.8-27.2-30.3,19.2-36-10-39.5,33.7-22.9,9.5-39.7,40.5-4.7,26.8-30.7,38,14.7,38-14.7,26.8,30.7,40.5,4.7,9.4,39.5,33.8,23.1-10,39.5,19.2,36-27,30.5v40.7l-38.2,14.2-18.7,36.2-40.4-5.2-33.4,23.4h0ZM1710.3,951.5l33,23.1,33-23.1,39.9,5.1,18.5-35.8,37.8-14v-40.2l26.6-30.1-19-35.5,9.9-39-33.4-22.8-9.2-39-40-4.6-26.5-30.3-37.6,14.5-37.6-14.5-26.5,30.3-40,4.6-9.4,39.2-33.3,22.7,9.9,39-19,35.5,26.9,30-.3,40.3,37.8,14,18.5,35.8,39.9-5.1h0Z"/><path class="cls-1" d="M1753.9,651.5c-.6-3.6-5.2-6.3-10.6-6.3s-10,2.7-10.6,6.3c0,.2,0,.5,0,.7,0,4,4.7,7.1,10.7,7.1s10.6-3.1,10.6-7.1,0-.5,0-.8h0ZM1752.3,651.6h-5.2v-4.3c2.7.8,4.8,2.4,5.2,4.3ZM1745.6,647v4.7h-4.7v-4.7c.8-.1,1.5-.2,2.3-.2s1.6,0,2.3.2h0ZM1739.4,647.3v4.3h-5.2c.4-1.9,2.4-3.5,5.2-4.3Z"/><path class="cls-1" d="M1791.7,656.4c-.6-3.6-5.2-6.3-10.6-6.3s-10,2.7-10.6,6.3c0,.2,0,.5,0,.7,0,4,4.7,7.1,10.7,7.1s10.6-3.1,10.6-7.1,0-.5,0-.8h0ZM1790.1,656.5h-5.2v-4.3c2.7.8,4.8,2.4,5.2,4.3ZM1783.4,651.8v4.7h-4.7v-4.7c.8-.1,1.5-.2,2.3-.2s1.6,0,2.3.2h0ZM1777.2,652.2v4.3h-5.2c.4-1.9,2.4-3.5,5.2-4.3Z"/><path class="cls-1" d="M1827.3,670c-.6-3.6-5.2-6.3-10.6-6.3s-10,2.7-10.6,6.3c0,.2,0,.5,0,.7,0,4,4.7,7.1,10.7,7.1s10.6-3.1,10.6-7.1,0-.5,0-.8h0ZM1825.7,670.1h-5.2v-4.3c2.7.8,4.8,2.4,5.2,4.3ZM1819,665.5v4.7h-4.7v-4.7c.8-.1,1.5-.2,2.3-.2s1.6,0,2.3.2h0ZM1812.8,665.8v4.3h-5.2c.4-1.9,2.4-3.5,5.2-4.3Z"/><path class="cls-1" d="M1858.6,691.6c-.6-3.6-5.2-6.3-10.6-6.3s-10,2.7-10.6,6.3c0,.2,0,.5,0,.7,0,4,4.7,7.1,10.7,7.1s10.6-3.1,10.6-7.1,0-.5,0-.8h0ZM1857,691.8h-5.2v-4.3c2.7.8,4.8,2.4,5.2,4.3ZM1850.3,687.1v4.7h-4.7v-4.7c.8-.1,1.5-.2,2.3-.2s1.6,0,2.3.2h0ZM1844.1,687.5v4.3h-5.2c.4-1.9,2.4-3.5,5.2-4.3Z"/><path class="cls-1" d="M1883.8,720.1c-.6-3.6-5.2-6.3-10.6-6.3s-10,2.7-10.6,6.3c0,.2,0,.5,0,.7,0,4,4.7,7.1,10.7,7.1s10.6-3.1,10.6-7.1,0-.5,0-.8h0ZM1882.3,720.3h-5.2v-4.3c2.7.8,4.8,2.4,5.2,4.3ZM1875.6,715.6v4.7h-4.7v-4.7c.8-.1,1.5-.2,2.3-.2s1.6,0,2.3.2h0ZM1869.4,716v4.3h-5.2c.4-1.9,2.4-3.5,5.2-4.3Z"/><path class="cls-1" d="M1901.5,753.8c-.6-3.6-5.2-6.3-10.6-6.3s-10,2.7-10.6,6.3c0,.2,0,.5,0,.7,0,4,4.7,7.1,10.7,7.1s10.6-3.1,10.6-7.1,0-.5,0-.8h0ZM1900,754h-5.2v-4.3c2.7.8,4.8,2.4,5.2,4.3ZM1893.3,749.3v4.7h-4.7v-4.7c.8-.1,1.5-.2,2.3-.2s1.6,0,2.3.2h0ZM1887.1,749.7v4.3h-5.2c.4-1.9,2.4-3.5,5.2-4.3Z"/><path class="cls-1" d="M1910.6,790.8c-.6-3.6-5.2-6.3-10.6-6.3s-10,2.7-10.6,6.3c0,.2,0,.5,0,.7,0,4,4.7,7.1,10.7,7.1s10.6-3.1,10.6-7.1,0-.5,0-.8h0ZM1909,790.9h-5.2v-4.3c2.7.8,4.8,2.4,5.2,4.3ZM1902.3,786.3v4.7h-4.7v-4.7c.8-.1,1.5-.2,2.3-.2s1.6,0,2.3.2h0ZM1896.1,786.6v4.3h-5.2c.4-1.9,2.4-3.5,5.2-4.3Z"/><path class="cls-1" d="M1910.6,828.9c-.6-3.6-5.2-6.3-10.6-6.3s-10,2.7-10.6,6.3c0,.2,0,.5,0,.7,0,4,4.7,7.1,10.7,7.1s10.6-3.1,10.6-7.1,0-.5,0-.8h0ZM1909,829h-5.2v-4.3c2.7.8,4.8,2.4,5.2,4.3ZM1902.3,824.4v4.7h-4.7v-4.7c.8-.1,1.5-.2,2.3-.2s1.6,0,2.3.2h0ZM1896.1,824.7v4.3h-5.2c.4-1.9,2.4-3.5,5.2-4.3Z"/><path class="cls-1" d="M1901.5,865.8c-.6-3.6-5.2-6.3-10.6-6.3s-10,2.7-10.6,6.3c0,.2,0,.5,0,.7,0,4,4.7,7.1,10.7,7.1s10.6-3.1,10.6-7.1,0-.5,0-.8h0ZM1900,866h-5.2v-4.3c2.7.8,4.8,2.4,5.2,4.3ZM1893.3,861.3v4.7h-4.7v-4.7c.8-.1,1.5-.2,2.3-.2s1.6,0,2.3.2h0ZM1887.1,861.7v4.3h-5.2c.4-1.9,2.4-3.5,5.2-4.3Z"/><path class="cls-1" d="M1883.8,899.6c-.6-3.6-5.2-6.3-10.6-6.3s-10,2.7-10.6,6.3c0,.2,0,.5,0,.7,0,4,4.7,7.1,10.7,7.1s10.6-3.1,10.6-7.1,0-.5,0-.8h0ZM1882.3,899.7h-5.2v-4.3c2.7.8,4.8,2.4,5.2,4.3ZM1875.6,895v4.7h-4.7v-4.7c.8-.1,1.5-.2,2.3-.2s1.6,0,2.3.2h0ZM1869.4,895.4v4.3h-5.2c.4-1.9,2.4-3.5,5.2-4.3Z"/><path class="cls-1" d="M1858.6,928c-.6-3.6-5.2-6.3-10.6-6.3s-10,2.7-10.6,6.3c0,.2,0,.5,0,.7,0,4,4.7,7.1,10.7,7.1s10.6-3.1,10.6-7.1,0-.5,0-.8h0ZM1857,928.2h-5.2v-4.3c2.7.8,4.8,2.4,5.2,4.3ZM1850.3,923.5v4.7h-4.7v-4.7c.8-.1,1.5-.2,2.3-.2s1.6,0,2.3.2h0ZM1844.1,923.9v4.3h-5.2c.4-1.9,2.4-3.5,5.2-4.3Z"/><path class="cls-1" d="M1827.3,949.6c-.6-3.6-5.2-6.3-10.6-6.3s-10,2.7-10.6,6.3c0,.2,0,.5,0,.7,0,4,4.7,7.1,10.7,7.1s10.6-3.1,10.6-7.1,0-.5,0-.8h0ZM1825.7,949.7h-5.2v-4.3c2.7.8,4.8,2.4,5.2,4.3ZM1819,945v4.7h-4.7v-4.7c.8-.1,1.5-.2,2.3-.2s1.6,0,2.3.2h0ZM1812.8,945.4v4.3h-5.2c.4-1.9,2.4-3.5,5.2-4.3Z"/><path class="cls-1" d="M1791.7,963.7c-.6-3.6-5.2-6.3-10.6-6.3s-10,2.7-10.6,6.3c0,.2,0,.5,0,.7,0,4,4.7,7.1,10.7,7.1s10.6-3.1,10.6-7.1,0-.5,0-.8h0ZM1790.1,963.8h-5.2v-4.3c2.7.8,4.8,2.4,5.2,4.3ZM1783.4,959.2v4.7h-4.7v-4.7c.8-.1,1.5-.2,2.3-.2s1.6,0,2.3.2h0ZM1777.2,959.5v4.3h-5.2c.4-1.9,2.4-3.5,5.2-4.3Z"/><path class="cls-1" d="M1753.9,967.5c-.6-3.6-5.2-6.3-10.6-6.3s-10,2.7-10.6,6.3c0,.2,0,.5,0,.7,0,4,4.7,7.1,10.7,7.1s10.6-3.1,10.6-7.1,0-.5,0-.8h0ZM1752.3,967.7h-5.2v-4.3c2.7.8,4.8,2.4,5.2,4.3ZM1745.6,963v4.7h-4.7v-4.7c.8-.1,1.5-.2,2.3-.2s1.6,0,2.3.2h0ZM1739.4,963.4v4.3h-5.2c.4-1.9,2.4-3.5,5.2-4.3Z"/><path class="cls-1" d="M1716.1,963.8c-.6-3.6-5.2-6.3-10.6-6.3s-10,2.7-10.6,6.3c0,.2,0,.5,0,.7,0,4,4.7,7.1,10.7,7.1s10.6-3.1,10.6-7.1,0-.5,0-.8h0ZM1714.5,963.9h-5.2v-4.3c2.7.8,4.8,2.4,5.2,4.3ZM1707.8,959.3v4.7h-4.7v-4.7c.8-.1,1.5-.2,2.3-.2s1.6,0,2.3.2h0ZM1701.6,959.6v4.3h-5.2c.4-1.9,2.4-3.5,5.2-4.3Z"/><path class="cls-1" d="M1680.5,949.7c-.6-3.6-5.2-6.3-10.6-6.3s-10,2.7-10.6,6.3c0,.2,0,.5,0,.7,0,4,4.7,7.1,10.7,7.1s10.6-3.1,10.6-7.1,0-.5,0-.8h0ZM1678.9,949.8h-5.2v-4.3c2.7.8,4.8,2.4,5.2,4.3ZM1672.2,945.2v4.7h-4.7v-4.7c.8-.1,1.5-.2,2.3-.2s1.6,0,2.3.2h0ZM1666,945.5v4.3h-5.2c.4-1.9,2.4-3.5,5.2-4.3Z"/><path class="cls-1" d="M1649.2,928c-.6-3.6-5.2-6.3-10.6-6.3s-10,2.7-10.6,6.3c0,.2,0,.5,0,.7,0,4,4.7,7.1,10.7,7.1s10.6-3.1,10.6-7.1,0-.5,0-.8h0ZM1647.6,928.2h-5.2v-4.3c2.7.8,4.8,2.4,5.2,4.3ZM1640.9,923.5v4.7h-4.7v-4.7c.8-.1,1.5-.2,2.3-.2s1.6,0,2.3.2h0ZM1634.7,923.9v4.3h-5.2c.4-1.9,2.4-3.5,5.2-4.3Z"/><path class="cls-1" d="M1623.9,899.6c-.6-3.6-5.2-6.3-10.6-6.3s-10,2.7-10.6,6.3c0,.2,0,.5,0,.7,0,4,4.7,7.1,10.7,7.1s10.6-3.1,10.6-7.1,0-.5,0-.8h0ZM1622.3,899.7h-5.2v-4.3c2.7.8,4.8,2.4,5.2,4.3ZM1615.7,895v4.7h-4.7v-4.7c.8-.1,1.5-.2,2.3-.2s1.6,0,2.3.2h0ZM1609.4,895.4v4.3h-5.2c.4-1.9,2.4-3.5,5.2-4.3Z"/><path class="cls-1" d="M1606.2,865.8c-.6-3.6-5.2-6.3-10.6-6.3s-10,2.7-10.6,6.3c0,.2,0,.5,0,.7,0,4,4.7,7.1,10.7,7.1s10.6-3.1,10.6-7.1,0-.5,0-.8h0ZM1604.7,866h-5.2v-4.3c2.7.8,4.8,2.4,5.2,4.3ZM1598,861.3v4.7h-4.7v-4.7c.8-.1,1.5-.2,2.3-.2s1.6,0,2.3.2h0ZM1591.8,861.7v4.3h-5.2c.4-1.9,2.4-3.5,5.2-4.3Z"/><path class="cls-1" d="M1597.1,828.9c-.6-3.6-5.2-6.3-10.6-6.3s-10,2.7-10.6,6.3c0,.2,0,.5,0,.7,0,4,4.7,7.1,10.7,7.1s10.6-3.1,10.6-7.1,0-.5,0-.8h0ZM1595.5,829h-5.2v-4.3c2.7.8,4.8,2.4,5.2,4.3ZM1588.8,824.4v4.7h-4.7v-4.7c.8-.1,1.5-.2,2.3-.2s1.6,0,2.3.2h0ZM1582.6,824.7v4.3h-5.2c.4-1.9,2.4-3.5,5.2-4.3Z"/><path class="cls-1" d="M1597.1,790.8c-.6-3.6-5.2-6.3-10.6-6.3s-10,2.7-10.6,6.3c0,.2,0,.5,0,.7,0,4,4.7,7.1,10.7,7.1s10.6-3.1,10.6-7.1,0-.5,0-.8h0ZM1595.5,790.9h-5.2v-4.3c2.7.8,4.8,2.4,5.2,4.3ZM1588.8,786.3v4.7h-4.7v-4.7c.8-.1,1.5-.2,2.3-.2s1.6,0,2.3.2h0ZM1582.6,786.6v4.3h-5.2c.4-1.9,2.4-3.5,5.2-4.3Z"/><path class="cls-1" d="M1606.1,753.8c-.6-3.6-5.2-6.3-10.6-6.3s-10,2.7-10.6,6.3c0,.2,0,.5,0,.7,0,4,4.7,7.1,10.7,7.1s10.6-3.1,10.6-7.1,0-.5,0-.8h0ZM1604.6,754h-5.2v-4.3c2.7.8,4.8,2.4,5.2,4.3ZM1597.9,749.3v4.7h-4.7v-4.7c.8-.1,1.5-.2,2.3-.2s1.6,0,2.3.2h0ZM1591.7,749.7v4.3h-5.2c.4-1.9,2.4-3.5,5.2-4.3Z"/><path class="cls-1" d="M1623.9,720.1c-.6-3.6-5.2-6.3-10.6-6.3s-10,2.7-10.6,6.3c0,.2,0,.5,0,.7,0,4,4.7,7.1,10.7,7.1s10.6-3.1,10.6-7.1,0-.5,0-.8h0ZM1622.3,720.3h-5.2v-4.3c2.7.8,4.8,2.4,5.2,4.3ZM1615.7,715.6v4.7h-4.7v-4.7c.8-.1,1.5-.2,2.3-.2s1.6,0,2.3.2h0ZM1609.4,716v4.3h-5.2c.4-1.9,2.4-3.5,5.2-4.3Z"/><path class="cls-1" d="M1649.2,691.6c-.6-3.6-5.2-6.3-10.6-6.3s-10,2.7-10.6,6.3c0,.2,0,.5,0,.7,0,4,4.7,7.1,10.7,7.1s10.6-3.1,10.6-7.1,0-.5,0-.8h0ZM1647.6,691.8h-5.2v-4.3c2.7.8,4.8,2.4,5.2,4.3ZM1640.9,687.1v4.7h-4.7v-4.7c.8-.1,1.5-.2,2.3-.2s1.6,0,2.3.2h0ZM1634.7,687.5v4.3h-5.2c.4-1.9,2.4-3.5,5.2-4.3Z"/><path class="cls-1" d="M1680.5,670c-.6-3.6-5.2-6.3-10.6-6.3s-10,2.7-10.6,6.3c0,.2,0,.5,0,.7,0,4,4.7,7.1,10.7,7.1s10.6-3.1,10.6-7.1,0-.5,0-.8h0ZM1678.9,670.1h-5.2v-4.3c2.7.8,4.8,2.4,5.2,4.3ZM1672.2,665.5v4.7h-4.7v-4.7c.8-.1,1.5-.2,2.3-.2s1.6,0,2.3.2h0ZM1666,665.8v4.3h-5.2c.4-1.9,2.4-3.5,5.2-4.3Z"/><path class="cls-1" d="M1716.1,656.5c-.6-3.6-5.2-6.3-10.6-6.3s-10,2.7-10.6,6.3c0,.2,0,.5,0,.7,0,4,4.7,7.1,10.7,7.1s10.6-3.1,10.6-7.1,0-.5,0-.8h0ZM1714.5,656.6h-5.2v-4.3c2.7.8,4.8,2.4,5.2,4.3ZM1707.8,652v4.7h-4.7v-4.7c.8-.1,1.5-.2,2.3-.2s1.6,0,2.3.2h0ZM1701.6,652.3v4.3h-5.2c.4-1.9,2.4-3.5,5.2-4.3Z"/><polygon class="cls-1" points="1743.3 833 1831.1 995.4 1847.8 995.4 1749.7 814.2 1743.3 817.7 1736.8 814.2 1638.8 995.4 1655.4 995.4 1743.3 833"/></svg>