<?xml version="1.0" encoding="UTF-8"?><svg id="_13" xmlns="http://www.w3.org/2000/svg" viewBox="0 0 1920 1080"><defs><style>.cls-1{fill:#8c1c58;}.cls-2{fill:#ec008c;}.cls-3{fill:#231f20;}.cls-4{fill:#9e1f63;}.cls-5{fill:#e6e7e8;}</style></defs><path class="cls-1" d="M398.2,700.9l-1.6.8c-1,.5-2.7.5-3.7,0l-1.6-.8c-1-.5-1-1.3,0-1.8l1.6-.8c1-.5,2.7-.5,3.7,0l1.6.8c1,.5,1,1.3,0,1.8Z"/><path class="cls-3" d="M394.7,698.3c.6,0,1.2.1,1.7.3l1.6.8c.3.2.5.4.5.6s-.2.4-.5.6l-1.6.8c-.4.2-1,.3-1.7.3s-1.2-.1-1.7-.3l-1.6-.8c-.3-.2-.5-.4-.5-.6s.2-.4.5-.6l1.6-.8c.4-.2,1-.3,1.7-.3M394.7,697.9c-.7,0-1.3.1-1.8.4l-1.6.8c-1,.5-1,1.3,0,1.8l1.6.8c.5.2,1.2.4,1.8.4s1.3-.1,1.8-.4l1.6-.8c1-.5,1-1.3,0-1.8l-1.6-.8c-.5-.2-1.2-.4-1.8-.4h0Z"/><path class="cls-4" d="M398.2,700.9l-1.6.8c-1,.5-2.7.5-3.7,0l-1.6-.8c-.5-.2-.7-.5-.8-.8h0l.6,5.5h0c0,.3.2.5.6.7l1.4.7c.9.4,2.3.4,3.1,0l1.4-.7c.4-.2.6-.5.6-.7h0l.6-5.5h0c0,.3-.3.6-.8.8h0Z"/><polygon class="cls-3" points="390.8 700 390.5 699.9 392.4 695.2 392.7 695.3 390.8 700"/><rect class="cls-3" x="391.4" y="698.5" width="6.9" height=".3" transform="translate(-315.8 1071.6) rotate(-88.2)"/><polygon class="cls-3" points="398.6 700 396.7 695.3 397 695.2 398.9 699.9 398.6 700"/><path class="cls-2" d="M436.7,624.1c-.5-7.1-2.3-13.9-7.2-19.3-4.4-4.8-10.3-7.8-16.5-9.8-13.3-4.2-28.2-3.9-41.1,1.5-3.5,1.5-6.9,3.3-9.8,5.8-2.5,2.1-4.6,5.1-6.1,7.4-5.1,9.2-4.7,21.8-1.5,31.5,2.7,8.9,8.9,17,14.8,24.5,6.2,7.9,12.3,15.8,18.4,23.8l4.8,5.8h4.6l4.3-5.8c2.1-2.8,4.3-5.6,6.5-8.4,6.6-8.6,13.6-16.9,19.8-25.9,6.4-9.3,9.9-20.2,9.1-31.5,0,.2,0,.4,0,.6,0,0,0-.2,0-.3-.2-3.8,0,1,0,0h0Z"/><path class="cls-5" d="M393.7,592.2c-6.2.2-33.9,2.6-37.2,26.7-1,7.1-2.7,22.5,10.9,41,5.9,8,22.1,31.7,25.1,35.4h.8c-.6-1.3-12.6-26.7-16.9-35.4-9.1-18.5-8-33.9-7.3-41,2.3-25.1,22.3-26.7,25.4-26.7h.4c-.2,0-.8,0-1.6,0,.1,0,.3,0,.4,0h0Z"/><path class="cls-5" d="M383.1,618.9c-.3,7.1-.8,22.5,3.3,41,2,8.7,7.4,34.1,7.7,35.4h1.3c.2-1.3,4.9-26.7,6.6-35.4,3.5-18.5,3.1-33.9,2.9-41-.9-26.3-9.5-26.8-10-26.8s-10.6.4-11.7,26.8h0Z"/><path class="cls-5" d="M419.2,618.9c.6,7.1,1.7,22.5-7,41-4.1,8.7-15.4,34.1-16,35.4h.8c.9-1.3,18.4-26.7,24.7-35.4,13.4-18.5,11.7-33.9,10.7-41-3.5-26.3-35.5-26.8-37.6-26.8,1.3,0,22.1.4,24.4,26.8h0Z"/></svg>