<?xml version="1.0" encoding="UTF-8"?><svg id="_14" xmlns="http://www.w3.org/2000/svg" viewBox="0 0 1920 1080"><defs><style>.cls-1{fill:#8c1c58;}.cls-2{fill:#231f20;}.cls-3{fill:#1c75bc;}.cls-4{fill:#9e1f63;}.cls-5{fill:#e6e7e8;}</style></defs><path class="cls-1" d="M1417.2,681.7l-1.2.6c-.8.4-2,.4-2.8,0l-1.2-.6c-.8-.4-.8-1,0-1.4l1.2-.6c.8-.4,2-.4,2.8,0l1.2.6c.8.4.8,1,0,1.4Z"/><path class="cls-2" d="M1414.6,679.7c.5,0,.9,0,1.3.3l1.2.6c.3.1.4.3.4.4s-.2.3-.4.4l-1.2.6c-.3.2-.8.3-1.3.3s-.9,0-1.3-.3l-1.2-.6c-.3-.1-.4-.3-.4-.4s.2-.3.4-.4l1.2-.6c.3-.2.8-.3,1.3-.3M1414.6,679.4c-.5,0-1,0-1.4.3l-1.2.6c-.8.4-.8,1,0,1.4l1.2.6c.4.2.9.3,1.4.3s1,0,1.4-.3l1.2-.6c.8-.4.8-1,0-1.4l-1.2-.6c-.4-.2-.9-.3-1.4-.3h0Z"/><path class="cls-4" d="M1417.2,681.7l-1.2.6c-.8.4-2,.4-2.8,0l-1.2-.6c-.4-.2-.5-.4-.6-.6h0l.5,4.2h0c0,.2.2.4.5.5l1.1.5c.7.3,1.7.3,2.4,0l1.1-.5c.3-.2.5-.3.5-.5h0l.5-4.2h0c0,.2-.2.5-.6.6h0Z"/><polygon class="cls-2" points="1411.7 681 1411.5 680.9 1412.9 677.4 1413.1 677.4 1411.7 681"/><rect class="cls-2" x="1412.1" y="679.9" width="5.2" height=".2" transform="translate(691.1 2072.9) rotate(-88.2)"/><polygon class="cls-2" points="1417.6 681 1416.2 677.4 1416.4 677.4 1417.8 680.9 1417.6 681"/><path class="cls-3" d="M1446.4,623.5c-.4-5.4-1.7-10.5-5.5-14.6-3.3-3.6-7.8-5.9-12.5-7.4-10.1-3.2-21.3-2.9-31.1,1.2-2.7,1.1-5.2,2.5-7.4,4.4-1.9,1.6-3.5,3.8-4.6,5.6-3.9,7-3.5,16.5-1.2,23.9,2,6.8,6.8,12.9,11.2,18.6,4.7,6,9.3,12,13.9,18l3.6,4.4h3.5l3.2-4.4c1.6-2.1,3.3-4.2,4.9-6.3,5-6.5,10.3-12.8,15-19.6,4.8-7.1,7.5-15.3,6.9-23.9,0,.2,0,.3,0,.5,0,0,0-.2,0-.2-.2-2.9,0,.8,0,0h0Z"/><path class="cls-5" d="M1413.9,599.3c-4.7.2-25.7,1.9-28.2,20.2-.7,5.4-2,17.1,8.3,31.1,4.5,6.1,16.8,24,19,26.8h.6c-.5-1-9.5-20.2-12.8-26.8-6.9-14-6.1-25.7-5.6-31.1,1.7-19,16.9-20.2,19.3-20.3h.3c-.2,0-.6,0-1.2,0h.3,0Z"/><path class="cls-5" d="M1405.9,619.6c-.2,5.4-.6,17.1,2.5,31.1,1.5,6.6,5.6,25.8,5.8,26.8h1c.2-1,3.7-20.2,5-26.8,2.7-14,2.3-25.7,2.2-31.1-.7-20-7.2-20.3-7.6-20.3s-8,.3-8.9,20.3h0Z"/><path class="cls-5" d="M1433.2,619.6c.5,5.4,1.3,17.1-5.3,31.1-3.1,6.6-11.7,25.8-12.1,26.8h.6c.7-1,13.9-20.2,18.7-26.8,10.1-14,8.8-25.7,8.1-31.1-2.7-20-26.9-20.3-28.5-20.3,1,0,16.8.3,18.5,20.3Z"/></svg>