<svg id="Layer_1" data-name="Layer 1" xmlns="http://www.w3.org/2000/svg" viewBox="0 0 333.14 371.43"><path d="M142.13,228.16a10,10,0,1,0,14.14,0A10,10,0,0,0,142.13,228.16Z" transform="translate(-14.06 -19.66)"/><path d="M274.48,40.88c-11.17,9.64-14.21,14.61-53.81,58.3l-23.74-4.31,10.89-12.14a23.54,23.54,0,0,0,0-30.78,18.11,18.11,0,0,0-27.6,0l-30.77,34.3L41.84,66.72a20.63,20.63,0,0,0-19.05,6.86c-9.57,10.67-8.27,28.32,2.65,37.12l107.23,86.59L112.6,219.67c-6.88,7.68-14.12,18.23-21.57,31.4l-50-16.4a19.58,19.58,0,0,0-20.8,5.92c-9.28,10.35-7.88,27.53,2.9,35.86l41,31.64C57,325.65,52.64,338.35,52.44,338.94a7.88,7.88,0,0,0,1.48,7.7,6,6,0,0,0,6.92,1.65c.52-.22,11.91-5.06,27.66-13L116.88,381c7.49,12,22.9,13.56,32.17,3.23a25.36,25.36,0,0,0,5.3-23.19l-14.7-55.76c11.82-8.3,21.28-16.37,28.16-24l20.08-22.39L265.54,378.4c7.92,12.19,23.75,13.61,33.31,3A26.41,26.41,0,0,0,305,360.11l-17.52-120,30.76-34.31a23.56,23.56,0,0,0,0-30.78,18.11,18.11,0,0,0-27.6,0l-10.9,12.14-3.86-26.46c39.23-44.2,43.62-47.51,52.26-60a.1.1,0,0,0,0,0c20.07-29,24.76-58.28,11.68-72.88S300.5,18.5,274.48,40.88ZM189.42,62.21a6,6,0,0,1,9.2,0,7.85,7.85,0,0,1,0,10.26L181.1,92l-15.83-2.87ZM33.07,99A10.7,10.7,0,0,1,32,83.83,8.39,8.39,0,0,1,39.75,81l169.58,30.78L142,186.9Zm-3.65,151.9a7.47,7.47,0,0,1,7.93-2.26l46.78,15.34c-4.79,9.34-9.61,19.66-14.43,30.83L30.53,264.52A9.6,9.6,0,0,1,29.42,250.85ZM139.85,374a7.53,7.53,0,0,1-12.27-1.23l-27.11-43.68c10-5.37,19.28-10.76,27.64-16.08l13.76,52.15A9.66,9.66,0,0,1,139.85,374Zm160-188.64a6,6,0,0,1,9.2,0,7.85,7.85,0,0,1,0,10.26L284.9,222.5l-2.58-17.65Zm-7.69,177.12a10.75,10.75,0,0,1-2.5,8.65,8.37,8.37,0,0,1-13.56-1.19L197.2,248.45l67.34-75.07ZM158.61,271c-7.16,8-17.64,16.6-31.15,25.62-17.56,11.73-38.34,22.83-57.08,31.71,8.18-21.47,18.33-45,29.07-64.81,7.85-14.49,15.37-25.78,22.35-33.56C280.74,53.15,271.33,62.27,281,53.67c10.7-.76,20.12,2.78,26.68,10.09s9.74,17.82,9.05,29.74C309,104.28,317.05,93.89,158.61,271ZM327.84,74.44a49.78,49.78,0,0,0-11-20.94,42.71,42.71,0,0,0-18.78-12.25c9.42-5.32,25.28-11.28,32.59-3.14C336.43,44.54,335,58.71,327.84,74.44Z" transform="translate(-14.06 -19.66)"/><path d="M199.1,170.69,177.55,195.8a8.27,8.27,0,1,0,12.52,10.81l21.56-25.11a8.27,8.27,0,1,0-12.53-10.81Z" transform="translate(-14.06 -19.66)"/><path d="M249.25,115.94l-21.56,25.11a8.28,8.28,0,0,0,12.53,10.82l21.55-25.11a8.27,8.27,0,1,0-12.52-10.82Z" transform="translate(-14.06 -19.66)"/></svg>