<svg id="Layer_1" data-name="Layer 1" xmlns="http://www.w3.org/2000/svg" viewBox="0 0 378.43 373.62"><path d="M183.54,208.31a10.69,10.69,0,0,0,0,15.85,12.59,12.59,0,0,0,17,0,10.7,10.7,0,0,0,0-15.85A12.59,12.59,0,0,0,183.54,208.31Z" transform="translate(-9.03 -8.73)"/><path d="M101,262.55c-44.68-16.24-60.37-18.19-64.84-15.62l-8.49,4.95h0C20,261.75,20,273.44,35,281.76l47,22.65c-7.14,18.06-14.62,38.11-14.81,38.71a7,7,0,0,0,2.27,7.54,8,8,0,0,0,8.21,1.08c.6-.26,22.06-9.68,40.48-18.66l37,44.16c5,4.62,9.67,8.64,22.53.16,6.6-4.35,3.8-8.87,2-17.29l-20-51.59c13.26-9.24,31-24.1,38.51-32.29l26.81-28.14L327.48,360c2.19.62,11.85,3.1,21.71-1.23a26.72,26.72,0,0,0,9.28-6.72c.44-.49.87-1,1.3-1.54a28.77,28.77,0,0,0,4.39-7.85L335.51,225.54l33.64-36.66A20.92,20.92,0,0,0,367,158.24a23.8,23.8,0,0,0-32.32,2.26l-11.92,13L316,144.77c50.88-62.35,44.46-53.6,53.72-66.7,0,0,0,0,0,0,17.8-33.34,25.06-49.17,8.29-63.84C367.18,4.78,341.49,6,314.72,29.75c-8.55,7.58-17.55,18.82-63.56,63.13l-33.81-3.41,13.94-14.09a20.91,20.91,0,0,0-2.14-30.64A23.81,23.81,0,0,0,196.82,47L163.18,83.67,33.9,71.25c-8.23-.68-14.46,4.24-19.9,10.17-10.46,11.4-3.15,28.05,10.24,35.92l127,78.22L133,216.15h0ZM204,52.39c2.78-3,14.47-6.22,19.28-.44,5.06,6.08,6.51,12.41,3.73,15.44L207.68,88.47l-35.55-2.56ZM35.08,79.21l208.4,21-85.95,90L24.34,108.42C11.5,88.81,27.4,83.3,35.08,79.21c4.76-2.52,1.58-3.33,1.58-3.33M49.09,254.22c16.44,4.68,33.69,9.13,50.13,13.81-5,9.69-10,19.18-14.83,30.69l-48.22-23.9c-6.08-4.59-7-12.2-2.62-17.28C37.08,253.41,42.87,252.89,49.09,254.22ZM172,371.81a9.75,9.75,0,0,1-14.45-.22L122.8,330.33c11.36-6.16,21.83-12.28,31.25-18.26l19.74,50.77A8.61,8.61,0,0,1,172,371.81ZM344,161.45c3.29-3.58,15.33-1.56,19.21,1.41,4.2,3.21,7.23,14.7,3.7,18.54l-33.26,36.95L324.93,182ZM356,334.16a13.54,13.54,0,0,1,.25,1.73,16.59,16.59,0,0,1-.82,6.17c-1.22,3.39-4.73,7.35-9.8,9.68-8.15,3.74-13.1,2.46-14.37,2.06C291,307.65,261,277,231.3,243l77.9-90.49Zm-158.55-65c-25,21.53,1.31-1.44-32.88,28.89C131,315.9,130.11,317.68,78.64,343.49c-1.82.91-6.19,2.95-5.51,1.25,28.59-71.5,31.86-75.5,31.86-75.5,26.14-39.4,28.38-42.37,35.48-51.86,181-188,171.67-171.5,179.12-180.31a.33.33,0,0,1,.21-.11c12.43-1.6,23.12.82,31.27,7.54s14.06,12.17,14.09,24.1C358.9,77.17,373.56,76.65,197.41,269.12Zm174-207.83C370,53.55,367.69,47.08,357,38.35c-13.56-8.45-17.6-7.06-28.6-8.33C339,24,363,14.4,372.08,21.9,379.28,27.83,378.68,45.05,371.4,61.29Z" transform="translate(-9.03 -8.73)"/><path d="M243.6,149.58,218.44,176.4c-3.47,3.71-9.1,16.25-3.61,17.83,3.09,5.48,12.41-1,15.88-4.69l25.16-26.83c3.48-3.7,7.94-13.1,3.55-17C254.77,141.49,247.08,145.88,243.6,149.58Z" transform="translate(-9.03 -8.73)"/><path d="M270.61,404.38" transform="translate(-9.03 -8.73)"/><path d="M254.63,301.28" transform="translate(-9.03 -8.73)"/><path d="M299.75,89.15,275.2,116.72c-3.38,3.81-8.73,16.52-3.21,17.94,3.21,5.4,12.37-1.35,15.76-5.16l24.55-27.57c3.39-3.81,7.64-13.35,3.16-17.16C310.73,80.73,303.14,85.34,299.75,89.15Z" transform="translate(-9.03 -8.73)"/><path d="M249.73,303.77" transform="translate(-9.03 -8.73)"/></svg>