<?xml version="1.0"?>
<svg xmlns="http://www.w3.org/2000/svg" viewBox="0 0 64 64" width="512" height="512"><g id="Outline"><g><circle cx="41" cy="40" r="1"/><circle cx="47" cy="40" r="1"/><path d="M44.71,42.71a1,1,0,0,1-1.42,0,1,1,0,0,0-1.41,1.41,3,3,0,0,0,4.24,0,1,1,0,0,0-1.41-1.41Z"/><path d="M24,43,12,43h0a1,1,0,0,0-1,1l0,8a1,1,0,0,0,1,1l12,0h0a1,1,0,0,0,1-1l0-8a1,1,0,0,0-1-1Zm-2.77,2L18,47.7,14.77,45ZM13,51V46.13l4.36,3.64A1,1,0,0,0,18,50a1,1,0,0,0,.64-.23L23,46.14V51Z"/><path d="M10,20h1.59l4.7,4.72A1,1,0,0,0,17,25a1.07,1.07,0,0,0,.39-.07A1,1,0,0,0,18,24V20h4a3,3,0,0,0,3-3V13a3,3,0,0,0-3-3h0L10,10h0a3,3,0,0,0-3,3v4A3,3,0,0,0,10,20ZM9,13a1,1,0,0,1,1-1h0l12,0a1,1,0,0,1,1,1v4a1,1,0,0,1-.3.71A1.14,1.14,0,0,1,22,18H17a1,1,0,0,0-1,1v2.59l-3.29-3.3A1,1,0,0,0,12,18H10a1,1,0,0,1-1-1Z"/><path d="M12,16a1,1,0,1,0-1-1A1,1,0,0,0,12,16Z"/><path d="M16,16a1,1,0,1,0-1-1A1,1,0,0,0,16,16Z"/><path d="M20,16a1,1,0,1,0-1-1A1,1,0,0,0,20,16Z"/><path d="M51,21H49a1,1,0,0,0,0,2h2a4,4,0,0,0,3.91-3.14,2.86,2.86,0,0,0,1.21-.73A2.94,2.94,0,0,0,57,17V15a3,3,0,0,0-2.06-2.84A6,6,0,0,0,49,7h0a6,6,0,0,0-5.93,5.15A3,3,0,0,0,41,15v2a3,3,0,0,0,3,3h0a3,3,0,0,0,3-3V15a3,3,0,0,0-.87-2.13,3.08,3.08,0,0,0-1.05-.67A4,4,0,0,1,49,9h0a4,4,0,0,1,3.92,3.21A3,3,0,0,0,51,15v2a3,3,0,0,0,1.84,2.78A2,2,0,0,1,51,21Zm-6-4a1,1,0,0,1-.3.71A1.09,1.09,0,0,1,44,18a1,1,0,0,1-1-1V15a1,1,0,0,1,1-1,1,1,0,0,1,.71.29A1,1,0,0,1,45,15Zm10,0a1,1,0,0,1-.3.71A1,1,0,0,1,54,18h0a1,1,0,0,1-.7-.29A1,1,0,0,1,53,17V15a1,1,0,0,1,1-1h0a1,1,0,0,1,1,1Z"/><path d="M29.33,51.92A11.89,11.89,0,0,0,30,48,12,12,0,0,0,18,36h0a12,12,0,0,0,0,24h0a11.85,11.85,0,0,0,7.1-2.34l4.81.36a1,1,0,0,0,1-1.31Zm-4.46,3.72a1,1,0,0,0-.69.21A9.86,9.86,0,0,1,18,58h0a10,10,0,0,1,0-20h0A10,10,0,0,1,28,48a9.86,9.86,0,0,1-.66,3.53,1,1,0,0,0,0,.67l1.23,3.69Z"/><path d="M16,30h0a14,14,0,0,0,6.29-1.5l6.2,3.4A1,1,0,0,0,29,32a1,1,0,0,0,.64-.23,1,1,0,0,0,.31-1.08l-2.29-6.93A14,14,0,0,0,16,2h0A14,14,0,0,0,5.48,6.78,1,1,0,0,0,7,8.1,12,12,0,0,1,16,4h0a12,12,0,0,1,9.69,19,1,1,0,0,0-.14.9l1.65,5-4.44-2.44a1,1,0,0,0-1,0A12.25,12.25,0,0,1,16,28,12,12,0,0,1,4,16a11.85,11.85,0,0,1,1-4.8A1,1,0,0,0,4.5,9.86a1,1,0,0,0-1.32.51A14,14,0,0,0,16,30Z"/><path d="M49,28A13,13,0,0,0,60,8.1a1,1,0,1,0-1.69,1.06A11,11,0,0,1,49,26a8.56,8.56,0,0,1-1.13-.06,1,1,0,0,0-.95.46L44.7,29.94l-.4-4.47a1,1,0,0,0-.52-.79A11,11,0,0,1,49,4,10.87,10.87,0,0,1,55.9,6.44a1,1,0,0,0,1.4-.15,1,1,0,0,0-.15-1.41A13.05,13.05,0,0,0,49,2h0a13,13,0,0,0-6.64,24.17L43,33.08a1,1,0,0,0,.76.88L44,34a1,1,0,0,0,.84-.47l1-1.52H48a4,4,0,0,1,3,6.64V36a1,1,0,0,0-1-1H45a1,1,0,0,0,0,2h4v3.59h0V42a5,5,0,0,1-10,0V40.59h0V37h2a1,1,0,0,0,0-2H38a1,1,0,0,0-1,1v2.64A4,4,0,0,1,36,36V32h3.79a1,1,0,0,0,0-2H35a1,1,0,0,0-1,1v5a6,6,0,0,0,3,5.18V42a7,7,0,0,0,2,4.89V47H38a5,5,0,0,0-5,5v9a1,1,0,0,0,2,0V58h2v3a1,1,0,0,0,2,0V54a1,1,0,0,0-2,0v2H35V52a3,3,0,0,1,3-3h1.52l3.7,4.62a1,1,0,0,0,1.56,0L48.48,49H50a3,3,0,0,1,3,3v4H51V54a1,1,0,0,0-2,0v7a1,1,0,0,0,2,0V58h2v3a1,1,0,0,0,2,0V52a5,5,0,0,0-5-5H49v-.11A7,7,0,0,0,51,42v-.82A6,6,0,0,0,48,30H47l1.27-2ZM44,51.4l-2.21-2.76a7,7,0,0,0,4.42,0Z"/></g></g></svg>
