<svg id="Capa_1" enable-background="new 0 0 512 512" height="512" viewBox="0 0 512 512" width="512" xmlns="http://www.w3.org/2000/svg"><g><path d="m502.01 380.276c-6.44-6.441-15.024-9.988-24.173-9.988-.009 0-.018 0-.026 0-9.144.007-17.717 3.558-24.128 9.988l-4.791 4.792-44.434-44.436 35.363-35.364c3.905-3.905 3.905-10.236 0-14.141l-33.533-33.534c-1.876-1.875-4.419-2.929-7.071-2.929-.001 0-.002 0-.002 0-2.653 0-5.197 1.055-7.072 2.932l-14.562 14.574-70.61-70.611c-.002-.002-.004-.004-.006-.007s-.004-.004-.007-.006l-35.241-35.242c-.091-.099-.173-.202-.269-.298-.095-.095-.199-.178-.297-.268l-54.287-54.288c-6.612-6.632-15.441-10.288-24.86-10.295-.009 0-.017 0-.026 0-7.34 0-14.323 2.226-20.189 6.342l-21.519-21.542c-8.565-8.565-19.985-13.282-32.157-13.282-8.749 0-17.104 2.449-24.295 7.002l-76.744-76.746c-3.904-3.905-10.234-3.905-14.142 0-3.905 3.905-3.905 10.237 0 14.142l76.747 76.749c-11.108 17.572-9.023 41.15 6.282 56.455l21.536 21.515c-4.121 5.873-6.347 12.865-6.342 20.216.007 9.419 3.662 18.248 10.284 24.851l54.296 54.297c.091.099.174.203.27.298.096.096.199.178.298.269l35.247 35.248s.001.001.001.001.001.001.001.001l70.615 70.616-14.575 14.564c-1.877 1.875-2.931 4.419-2.932 7.072s1.053 5.197 2.929 7.073l33.534 33.533c1.876 1.875 4.419 2.929 7.071 2.929s5.196-1.054 7.071-2.929l35.362-35.363 44.434 44.436-4.781 4.782c-6.44 6.421-9.991 14.993-9.998 24.138-.007 9.159 3.54 17.753 9.987 24.2 6.653 6.652 15.398 9.979 24.149 9.979 8.749 0 17.505-3.326 24.178-9.98l73.414-73.417c6.447-6.448 9.994-15.042 9.987-24.2-.006-9.146-3.557-17.718-9.987-24.128zm-314.779-115.91 77.131-77.134 21.389 21.39-77.131 77.134zm-87.133-164.269c4.787-4.788 11.185-7.425 18.014-7.425s13.226 2.637 18.011 7.421l21.141 21.163-36.009 36.009-21.157-21.137c-9.933-9.933-9.933-26.097 0-36.031zm21.056 91.894c-.003-4.085 1.569-7.909 4.427-10.766l2.747-2.747c.002-.002.004-.003.006-.005s.003-.004.005-.006l52.885-52.886c2.854-2.855 6.674-4.427 10.755-4.427h.011c4.071.003 7.876 1.571 10.723 4.427l47.509 47.51-77.131 77.134-47.519-47.52c-2.847-2.838-4.415-6.643-4.418-10.714zm177.039 226.624-19.389-19.389 14.454-14.443c.042-.041.088-.076.13-.117.041-.041.075-.086.116-.128l13.741-13.731c3.906-3.904 3.909-10.235.006-14.142-3.904-3.907-10.236-3.91-14.142-.005l-6.795 6.79-63.551-63.552 77.131-77.134 63.551 63.552-6.847 6.853c-3.903 3.907-3.9 10.239.006 14.142 3.908 3.904 10.238 3.9 14.142-.005l28.474-28.498 19.388 19.389zm56.575-28.292 35.548-35.549 44.434 44.436-35.548 35.549zm133.1 24.138-73.404 73.406c-5.542 5.523-14.537 5.527-20.053.01-2.666-2.665-4.133-6.232-4.13-10.043.003-3.796 1.466-7.344 4.119-9.99.004-.003.007-.007.011-.011l73.426-73.427c2.645-2.653 6.192-4.116 9.989-4.119h.011c3.807 0 7.368 1.466 10.042 4.14 2.653 2.645 4.116 6.193 4.119 9.99.003 3.812-1.464 7.379-4.13 10.044z"/><path d="m339.055 338.996.028-.029c3.872-3.938 3.804-10.255-.135-14.127-3.937-3.872-10.282-3.804-14.155.135-3.872 3.938-3.818 10.27.12 14.141 1.947 1.914 4.479 2.869 7.01 2.869 2.588.001 5.175-.997 7.132-2.989z"/></g></svg>