<svg width="18" height="18" viewBox="0 0 18 18" fill="none" xmlns="http://www.w3.org/2000/svg">
<g opacity="0.4">
<path d="M13.875 17.25C13.55 17.25 13.2344 17.225 12.9281 17.175C12.6219 17.125 12.325 17.05 12.0375 16.95L1.5 13.1063L1.875 12.0375L7.05 13.9313L8.34375 10.5938L5.6625 7.8C5.325 7.45 5.19063 7.03438 5.25938 6.55313C5.32813 6.07188 5.575 5.70625 6 5.45625L8.60625 3.95625C8.81875 3.83125 9.03438 3.75938 9.25313 3.74063C9.47188 3.72188 9.6875 3.75625 9.9 3.84375C10.1125 3.91875 10.2969 4.0375 10.4531 4.2C10.6094 4.3625 10.725 4.55625 10.8 4.78125L11.0438 5.5875C11.2063 6.125 11.4719 6.6 11.8406 7.0125C12.2094 7.425 12.65 7.7375 13.1625 7.95L13.5563 6.75L14.625 7.0875L13.7813 9.675C12.8563 9.525 12.0375 9.1625 11.325 8.5875C10.6125 8.0125 10.0875 7.3 9.75 6.45L7.85625 7.5375L10.125 10.125L8.45625 14.4375L10.7812 15.2813L12.3563 10.4625C12.5312 10.525 12.7063 10.5813 12.8813 10.6313C13.0563 10.6813 13.2375 10.725 13.425 10.7625L11.8313 15.675L12.4125 15.8813C12.6375 15.9563 12.8719 16.0156 13.1156 16.0594C13.3594 16.1031 13.6125 16.125 13.875 16.125C14.2 16.125 14.5094 16.0938 14.8031 16.0313C15.0969 15.9688 15.3813 15.875 15.6563 15.75L16.5 16.5938C16.1 16.8063 15.6813 16.9688 15.2438 17.0813C14.8063 17.1938 14.35 17.25 13.875 17.25ZM12.375 4.875C11.9625 4.875 11.6094 4.72813 11.3156 4.43438C11.0219 4.14062 10.875 3.7875 10.875 3.375C10.875 2.9625 11.0219 2.60938 11.3156 2.31563C11.6094 2.02187 11.9625 1.875 12.375 1.875C12.7875 1.875 13.1406 2.02187 13.4344 2.31563C13.7281 2.60938 13.875 2.9625 13.875 3.375C13.875 3.7875 13.7281 4.14062 13.4344 4.43438C13.1406 4.72813 12.7875 4.875 12.375 4.875Z" fill="#827C7C"/>
</g>
</svg>
