<svg width="18" height="18" viewBox="0 0 18 18" fill="none" xmlns="http://www.w3.org/2000/svg">
<g opacity="0.4">
<path d="M9 16.5C7.9625 16.5 6.9875 16.3031 6.075 15.9094C5.1625 15.5156 4.36875 14.9812 3.69375 14.3062C3.01875 13.6312 2.48438 12.8375 2.09063 11.925C1.69688 11.0125 1.5 10.0375 1.5 9C1.5 7.9625 1.69688 6.9875 2.09063 6.075C2.48438 5.1625 3.01875 4.36875 3.69375 3.69375C4.36875 3.01875 5.1625 2.48437 6.075 2.09062C6.9875 1.69687 7.9625 1.5 9 1.5C10.825 1.5 12.4219 2.07187 13.7906 3.21562C15.1594 4.35937 16.0125 5.79375 16.35 7.51875H14.8125C14.575 6.60625 14.1469 5.79062 13.5281 5.07187C12.9094 4.35312 12.15 3.8125 11.25 3.45V3.75C11.25 4.1625 11.1031 4.51562 10.8094 4.80937C10.5156 5.10312 10.1625 5.25 9.75 5.25H8.25V6.75C8.25 6.9625 8.17813 7.14062 8.03438 7.28437C7.89063 7.42812 7.7125 7.5 7.5 7.5H6V9H7.5V11.25H6.75L3.15 7.65C3.1125 7.875 3.07813 8.1 3.04688 8.325C3.01563 8.55 3 8.775 3 9C3 10.6375 3.575 12.0437 4.725 13.2187C5.875 14.3937 7.3 14.9875 9 15V16.5ZM15.825 16.125L13.425 13.725C13.1625 13.875 12.8813 14 12.5813 14.1C12.2813 14.2 11.9625 14.25 11.625 14.25C10.6875 14.25 9.89063 13.9219 9.23438 13.2656C8.57813 12.6094 8.25 11.8125 8.25 10.875C8.25 9.9375 8.57813 9.14062 9.23438 8.48437C9.89063 7.82812 10.6875 7.5 11.625 7.5C12.5625 7.5 13.3594 7.82812 14.0156 8.48437C14.6719 9.14062 15 9.9375 15 10.875C15 11.2125 14.95 11.5312 14.85 11.8312C14.75 12.1312 14.625 12.4125 14.475 12.675L16.875 15.075L15.825 16.125ZM11.625 12.75C12.15 12.75 12.5938 12.5687 12.9563 12.2062C13.3188 11.8437 13.5 11.4 13.5 10.875C13.5 10.35 13.3188 9.90625 12.9563 9.54375C12.5938 9.18125 12.15 9 11.625 9C11.1 9 10.6563 9.18125 10.2938 9.54375C9.93125 9.90625 9.75 10.35 9.75 10.875C9.75 11.4 9.93125 11.8437 10.2938 12.2062C10.6563 12.5687 11.1 12.75 11.625 12.75Z" fill="#827C7C"/>
</g>
</svg>
