<svg width="10" height="10" viewBox="0 0 10 10" fill="none" xmlns="http://www.w3.org/2000/svg">
<path d="M9.19266 0.807136C8.93266 0.547136 8.51266 0.547136 8.25266 0.807136L4.99266 4.06047L1.73266 0.800469C1.47266 0.540469 1.05266 0.540469 0.792656 0.800469C0.532656 1.06047 0.532656 1.48047 0.792656 1.74047L4.05266 5.00047L0.792656 8.26047C0.532656 8.52047 0.532656 8.94047 0.792656 9.20047C1.05266 9.46047 1.47266 9.46047 1.73266 9.20047L4.99266 5.94047L8.25266 9.20047C8.51266 9.46047 8.93266 9.46047 9.19266 9.20047C9.45266 8.94047 9.45266 8.52047 9.19266 8.26047L5.93266 5.00047L9.19266 1.74047C9.44599 1.48714 9.44599 1.06047 9.19266 0.807136Z" fill="black"/>
</svg>
