<?xml version="1.0"?>
<svg xmlns="http://www.w3.org/2000/svg" viewBox="0 0 64 64" width="512" height="512"><g id="touchless"><path d="M60.95,26.1l-1.4-.94a5,5,0,0,0-6.62.96L47,33.24V11a4,4,0,0,0-4-4,3.906,3.906,0,0,0-2,.56V6a4,4,0,0,0-8,0V7.56A3.906,3.906,0,0,0,31,7a4,4,0,0,0-4,4v1.56A3.906,3.906,0,0,0,25,12a3.995,3.995,0,0,0-4,4v3.94a13.992,13.992,0,1,0,1.59,25.41c.07.13.15.25.23.39.21.34.43.7.67,1.13L25,49.29V52H24a1,1,0,0,0-.99.88l-1,8a.968.968,0,0,0,.24.78A.981.981,0,0,0,23,62H49a.981.981,0,0,0,.75-.34.968.968,0,0,0,.24-.78l-1-8A1,1,0,0,0,48,52H47V49.34L61.78,30.25a.555.555,0,0,0,.06-.08A2.99,2.99,0,0,0,60.95,26.1ZM23,16a2.015,2.015,0,0,1,2-2,2.006,2.006,0,0,1,2,2v8.37a14.194,14.194,0,0,0-4-3.48ZM16,45A12,12,0,1,1,28,33,12.01,12.01,0,0,1,16,45Zm31.12,9,.75,6H24.13l.75-6ZM60.16,29.08,45.21,48.39A.961.961,0,0,0,45,49v3H27V49a.988.988,0,0,0-.15-.53l-1.64-2.63c-.24-.41-.47-.78-.68-1.13-.09-.16-.17-.3-.25-.44A13.935,13.935,0,0,0,29,27.83V11a2,2,0,0,1,4,0V31h2V6a2,2,0,0,1,4,0V31h2V11a2,2,0,0,1,4,0V35H43a6,6,0,0,0-6,6h2a4,4,0,0,1,4-4h3a1,1,0,0,0,.76-.37l.01.01,7.7-9.24a2.987,2.987,0,0,1,3.97-.57l1.4.93A1,1,0,0,1,60.16,29.08Z"/><path d="M21.66,33l2.83-2.83a1,1,0,0,0,0-1.41l-4.25-4.25a1.034,1.034,0,0,0-1.41,0L16,27.34l-2.83-2.83a1.034,1.034,0,0,0-1.41,0L7.51,28.76a1,1,0,0,0,0,1.41L10.34,33,7.51,35.83a1,1,0,0,0,0,1.41l4.25,4.25a1.034,1.034,0,0,0,1.41,0L16,38.66l2.83,2.83a1.033,1.033,0,0,0,.71.29,1.009,1.009,0,0,0,.7-.29l4.25-4.25a1,1,0,0,0,0-1.41Zm-2.12,6.36-2.83-2.82a.99.99,0,0,0-1.42,0l-2.83,2.82L9.64,36.54l2.82-2.83a.99.99,0,0,0,0-1.42L9.64,29.46l2.82-2.82,2.83,2.82a1.027,1.027,0,0,0,1.42,0l2.83-2.82,2.82,2.82-2.82,2.83a.99.99,0,0,0,0,1.42l2.82,2.83Z"/></g></svg>
