<svg height="512" viewBox="0 0 64 64" width="512" xmlns="http://www.w3.org/2000/svg"><g id="touchless"><path d="m27 24.37v-8.37a2.006 2.006 0 0 0 -2-2 2.015 2.015 0 0 0 -2 2v4.89a14.194 14.194 0 0 1 4 3.48z"/><path d="m28 33a12 12 0 1 0 -12 12 12.01 12.01 0 0 0 12-12zm-8.46 8.78a1.033 1.033 0 0 1 -.71-.29l-2.83-2.83-2.83 2.83a1.034 1.034 0 0 1 -1.41 0l-4.25-4.25a1 1 0 0 1 0-1.41l2.83-2.83-2.83-2.83a1 1 0 0 1 0-1.41l4.25-4.25a1.034 1.034 0 0 1 1.41 0l2.83 2.83 2.83-2.83a1.034 1.034 0 0 1 1.41 0l4.25 4.25a1 1 0 0 1 0 1.41l-2.83 2.83 2.83 2.83a1 1 0 0 1 0 1.41l-4.25 4.25a1.009 1.009 0 0 1 -.7.29z"/><path d="m24.88 54-.75 6h23.74l-.75-6z"/><path d="m19.24 33a1 1 0 0 1 .3-.71l2.82-2.83-2.82-2.82-2.83 2.82a1.027 1.027 0 0 1 -1.42 0l-2.83-2.82-2.82 2.82 2.82 2.83a.99.99 0 0 1 0 1.42l-2.82 2.83 2.82 2.82 2.83-2.82a.99.99 0 0 1 1.42 0l2.83 2.82 2.82-2.82-2.82-2.83a1 1 0 0 1 -.3-.71z"/><path d="m59.84 27.76-1.4-.93a2.987 2.987 0 0 0 -3.97.57l-7.7 9.24-.01-.01a1 1 0 0 1 -.76.37h-1v-26a2 2 0 0 0 -4 0v20h-2v-25a2 2 0 0 0 -4 0v25h-2v-20a2 2 0 0 0 -4 0v16.83a13.935 13.935 0 0 1 -4.72 16.44c.08.14.16.28.25.44.21.35.44.72.68 1.13l1.64 2.63a.988.988 0 0 1 .15.53v3h18v-3a.961.961 0 0 1 .21-.61l14.95-19.31a1 1 0 0 0 -.32-1.32z"/></g></svg>