<svg width="136" height="56" viewBox="0 0 136 56" fill="none" xmlns="http://www.w3.org/2000/svg">
<g filter="url(#filter0_d_3742_13033)">
<rect x="8" y="4" width="120" height="40" rx="8" fill="#262626"/>
</g>
<path d="M23.2642 29.0572H28.3622L32.2462 32.9169C32.2874 32.9578 32.3405 32.9853 32.3983 32.9955C32.4561 33.0058 32.5157 32.9983 32.569 32.974C32.6222 32.9498 32.6665 32.9101 32.6958 32.8602C32.7251 32.8104 32.7379 32.7529 32.7326 32.6956L32.3911 29.0572H34.7358C35.0331 29.0572 35.3276 28.9998 35.6023 28.8884C35.877 28.777 36.1266 28.6136 36.3368 28.4078C36.5471 28.2019 36.7139 27.9574 36.8276 27.6884C36.9414 27.4194 37 27.1311 37 26.8399V18.2173C37 17.9261 36.9414 17.6378 36.8276 17.3688C36.7139 17.0998 36.5471 16.8553 36.3368 16.6494C36.1266 16.4435 35.877 16.2802 35.6023 16.1688C35.3275 16.0574 35.0331 16 34.7358 16H23.2642C22.9669 16 22.6725 16.0574 22.3977 16.1688C22.123 16.2802 21.8734 16.4435 21.6632 16.6494C21.4529 16.8553 21.2861 17.0998 21.1724 17.3688C21.0586 17.6378 21 17.9261 21 18.2173V26.8399C21 27.1311 21.0586 27.4194 21.1724 27.6884C21.2861 27.9574 21.4529 28.2019 21.6632 28.4078C21.8734 28.6137 22.123 28.777 22.3977 28.8884C22.6725 28.9998 22.9669 29.0572 23.2642 29.0572Z" fill="white"/>
<path d="M47.646 27.712H50.936V29H46.05V19.27H47.646V27.712ZM59.3407 24.954C59.3407 25.2433 59.322 25.5047 59.2847 25.738H53.3907C53.4374 26.354 53.666 26.8487 54.0767 27.222C54.4874 27.5953 54.9914 27.782 55.5887 27.782C56.4474 27.782 57.054 27.4227 57.4087 26.704H59.1307C58.8974 27.4133 58.4727 27.9967 57.8567 28.454C57.25 28.902 56.494 29.126 55.5887 29.126C54.8514 29.126 54.1887 28.9627 53.6007 28.636C53.022 28.3 52.5647 27.8333 52.2287 27.236C51.902 26.6293 51.7387 25.9293 51.7387 25.136C51.7387 24.3427 51.8974 23.6473 52.2147 23.05C52.5414 22.4433 52.994 21.9767 53.5727 21.65C54.1607 21.3233 54.8327 21.16 55.5887 21.16C56.3167 21.16 56.9654 21.3187 57.5347 21.636C58.104 21.9533 58.5474 22.4013 58.8647 22.98C59.182 23.5493 59.3407 24.2073 59.3407 24.954ZM57.6747 24.45C57.6654 23.862 57.4554 23.3907 57.0447 23.036C56.634 22.6813 56.1254 22.504 55.5187 22.504C54.968 22.504 54.4967 22.6813 54.1047 23.036C53.7127 23.3813 53.4794 23.8527 53.4047 24.45H57.6747ZM62.7733 22.588V26.858C62.7733 27.1473 62.8387 27.3573 62.9693 27.488C63.1093 27.6093 63.3427 27.67 63.6693 27.67H64.6493V29H63.3893C62.6707 29 62.12 28.832 61.7373 28.496C61.3547 28.16 61.1633 27.614 61.1633 26.858V22.588H60.2533V21.286H61.1633V19.368H62.7733V21.286H64.6493V22.588H62.7733ZM66.3723 19.27H68.1083L66.6383 22.602H65.5183L66.3723 19.27ZM72.3109 29.126C71.7043 29.126 71.1583 29.0187 70.6729 28.804C70.1969 28.58 69.8189 28.2813 69.5389 27.908C69.2589 27.5253 69.1096 27.1007 69.0909 26.634H70.7429C70.7709 26.9607 70.9249 27.236 71.2049 27.46C71.4943 27.6747 71.8536 27.782 72.2829 27.782C72.7309 27.782 73.0763 27.698 73.3189 27.53C73.5709 27.3527 73.6969 27.1287 73.6969 26.858C73.6969 26.5687 73.5569 26.354 73.2769 26.214C73.0063 26.074 72.5723 25.92 71.9749 25.752C71.3963 25.5933 70.9249 25.4393 70.5609 25.29C70.1969 25.1407 69.8796 24.912 69.6089 24.604C69.3476 24.296 69.2169 23.89 69.2169 23.386C69.2169 22.9753 69.3383 22.602 69.5809 22.266C69.8236 21.9207 70.1689 21.65 70.6169 21.454C71.0743 21.258 71.5969 21.16 72.1849 21.16C73.0623 21.16 73.7669 21.384 74.2989 21.832C74.8403 22.2707 75.1296 22.8727 75.1669 23.638H73.5709C73.5429 23.2927 73.4029 23.0173 73.1509 22.812C72.8989 22.6067 72.5583 22.504 72.1289 22.504C71.7089 22.504 71.3869 22.5833 71.1629 22.742C70.9389 22.9007 70.8269 23.1107 70.8269 23.372C70.8269 23.5773 70.9016 23.75 71.0509 23.89C71.2003 24.03 71.3823 24.142 71.5969 24.226C71.8116 24.3007 72.1289 24.3987 72.5489 24.52C73.1089 24.6693 73.5663 24.8233 73.9209 24.982C74.2849 25.1313 74.5976 25.3553 74.8589 25.654C75.1203 25.9527 75.2556 26.3493 75.2649 26.844C75.2649 27.2827 75.1436 27.6747 74.9009 28.02C74.6583 28.3653 74.3129 28.636 73.8649 28.832C73.4263 29.028 72.9083 29.126 72.3109 29.126ZM80.0942 24.114C80.0942 23.162 80.3135 22.308 80.7522 21.552C81.2002 20.796 81.8022 20.208 82.5582 19.788C83.3235 19.3587 84.1588 19.144 85.0642 19.144C86.1002 19.144 87.0195 19.4007 87.8222 19.914C88.6342 20.418 89.2222 21.1367 89.5862 22.07H87.6682C87.4162 21.5567 87.0662 21.174 86.6182 20.922C86.1702 20.67 85.6522 20.544 85.0642 20.544C84.4202 20.544 83.8462 20.6887 83.3422 20.978C82.8382 21.2673 82.4415 21.6827 82.1522 22.224C81.8722 22.7653 81.7322 23.3953 81.7322 24.114C81.7322 24.8327 81.8722 25.4627 82.1522 26.004C82.4415 26.5453 82.8382 26.9653 83.3422 27.264C83.8462 27.5533 84.4202 27.698 85.0642 27.698C85.6522 27.698 86.1702 27.572 86.6182 27.32C87.0662 27.068 87.4162 26.6853 87.6682 26.172H89.5862C89.2222 27.1053 88.6342 27.824 87.8222 28.328C87.0195 28.832 86.1002 29.084 85.0642 29.084C84.1495 29.084 83.3142 28.874 82.5582 28.454C81.8022 28.0247 81.2002 27.432 80.7522 26.676C80.3135 25.92 80.0942 25.066 80.0942 24.114ZM95.4443 21.16C96.0323 21.16 96.555 21.286 97.0123 21.538C97.479 21.79 97.843 22.1633 98.1043 22.658C98.375 23.1527 98.5103 23.75 98.5103 24.45V29H96.9283V24.688C96.9283 23.9973 96.7556 23.47 96.4103 23.106C96.065 22.7327 95.5936 22.546 94.9963 22.546C94.399 22.546 93.923 22.7327 93.5683 23.106C93.223 23.47 93.0503 23.9973 93.0503 24.688V29H91.4543V18.64H93.0503V22.182C93.321 21.8553 93.6616 21.6033 94.0723 21.426C94.4923 21.2487 94.9496 21.16 95.4443 21.16ZM100.014 25.108C100.014 24.3333 100.173 23.6473 100.49 23.05C100.817 22.4527 101.255 21.9907 101.806 21.664C102.366 21.328 102.982 21.16 103.654 21.16C104.261 21.16 104.788 21.2813 105.236 21.524C105.693 21.7573 106.057 22.0513 106.328 22.406V21.286H107.938V29H106.328V27.852C106.057 28.216 105.689 28.5193 105.222 28.762C104.755 29.0047 104.223 29.126 103.626 29.126C102.963 29.126 102.357 28.958 101.806 28.622C101.255 28.2767 100.817 27.8007 100.49 27.194C100.173 26.578 100.014 25.8827 100.014 25.108ZM106.328 25.136C106.328 24.604 106.216 24.142 105.992 23.75C105.777 23.358 105.493 23.0593 105.138 22.854C104.783 22.6487 104.401 22.546 103.99 22.546C103.579 22.546 103.197 22.6487 102.842 22.854C102.487 23.05 102.198 23.344 101.974 23.736C101.759 24.1187 101.652 24.576 101.652 25.108C101.652 25.64 101.759 26.1067 101.974 26.508C102.198 26.9093 102.487 27.2173 102.842 27.432C103.206 27.6373 103.589 27.74 103.99 27.74C104.401 27.74 104.783 27.6373 105.138 27.432C105.493 27.2267 105.777 26.928 105.992 26.536C106.216 26.1347 106.328 25.668 106.328 25.136ZM111.896 22.588V26.858C111.896 27.1473 111.962 27.3573 112.092 27.488C112.232 27.6093 112.466 27.67 112.792 27.67H113.772V29H112.512C111.794 29 111.243 28.832 110.86 28.496C110.478 28.16 110.286 27.614 110.286 26.858V22.588H109.376V21.286H110.286V19.368H111.896V21.286H113.772V22.588H111.896ZM117.245 19.27L117.063 26.06H115.733L115.551 19.27H117.245ZM116.447 29.098C116.158 29.098 115.915 29 115.719 28.804C115.523 28.608 115.425 28.3653 115.425 28.076C115.425 27.7867 115.523 27.544 115.719 27.348C115.915 27.152 116.158 27.054 116.447 27.054C116.727 27.054 116.965 27.152 117.161 27.348C117.357 27.544 117.455 27.7867 117.455 28.076C117.455 28.3653 117.357 28.608 117.161 28.804C116.965 29 116.727 29.098 116.447 29.098Z" fill="white"/>
<defs>
<filter id="filter0_d_3742_13033" x="0" y="0" width="136" height="56" filterUnits="userSpaceOnUse" color-interpolation-filters="sRGB">
<feFlood flood-opacity="0" result="BackgroundImageFix"/>
<feColorMatrix in="SourceAlpha" type="matrix" values="0 0 0 0 0 0 0 0 0 0 0 0 0 0 0 0 0 0 127 0" result="hardAlpha"/>
<feOffset dy="4"/>
<feGaussianBlur stdDeviation="4"/>
<feColorMatrix type="matrix" values="0 0 0 0 0.968627 0 0 0 0 0.905882 0 0 0 0 0 0 0 0 0.29 0"/>
<feBlend mode="normal" in2="BackgroundImageFix" result="effect1_dropShadow_3742_13033"/>
<feBlend mode="normal" in="SourceGraphic" in2="effect1_dropShadow_3742_13033" result="shape"/>
</filter>
</defs>
</svg>
