<svg id="Layer_1_copy" height="512" viewBox="0 0 64 64" width="512" xmlns="http://www.w3.org/2000/svg" data-name="Layer 1 copy"><path d="m23.862 20.267 30.221-11.906.917-.361 5-6-2.78-.35-5.22-.65-7 2-11 4-13.26 5.46z"/><path d="m40 31a7.949 7.949 0 0 1 -.45 2.62l18.45 7.38 4-4-4-7-18.019.693c.004.107.019.207.019.307z"/><path d="m24.7 27.746-7.01-17.526a3 3 0 0 0 -4.91-1l-4.33 4.33a3 3 0 0 0 .32 4.53l15.36 11.52a7.928 7.928 0 0 1 .57-1.854z"/><path d="m36.4 4 1.6-2-6-1-13.361 7.022a5 5 0 0 1 .908 1.455l.453 1.123 13.238-5.45z"/><path d="m56.209 9.673-31.609 12.45 1.427 3.569a7.974 7.974 0 0 1 5.973-2.692 8.005 8.005 0 0 1 6.313 3.1l20.687-8.1 3-7-5.4-1.8z"/><path d="m58.482 43.347-19.831-7.932a8.024 8.024 0 0 1 -2.911 2.652l1.26.933v.607l18 9.393 7-2-2.869-4.3z"/><path d="m59.344 28.32 2.656-3.32-5.931-3.7-16.747 6.551a8.647 8.647 0 0 1 .308.854l19.5-.75z"/><path d="m34.991 40.816.009-.816-1.56-1.146a7.9 7.9 0 0 1 -1.44.146 8.048 8.048 0 0 1 -7.25-4.608 7.919 7.919 0 0 1 -.673-2.329l-14.122-10.594-3.935 5.501-.02.03 2 4-5.91 6.89-.09.11 6 1-2 8v2a3 3 0 0 0 3 3h9l.125 12h18.875v-22.135zm-18.991-1.816a1 1 0 0 1 -2 0v-4a1 1 0 0 1 2 0zm6 0a1 1 0 0 1 -2 0v-4a1 1 0 0 1 2 0zm13 16-3 5-3-6v-10l3-3 3 2.83z"/><path d="m58.71 60.14-1.71-5.14-13.621-9.807-4.379-2.285v8.151l13 9.941h7z"/><circle cx="32" cy="31" r="6"/></svg>