<svg id="Capa_1" enable-background="new 0 0 512.427 512.427" height="512" viewBox="0 0 512.427 512.427" width="512" xmlns="http://www.w3.org/2000/svg"><g id="_x3C_Group_x3E__36_"><g><path d="m256.213 151.123c-41.355 0-75-33.645-75-75 0-41.414 33.58-76 75-76 41.413 0 75 34.58 75 76 0 41.355-33.645 75-75 75z"/></g><g><path d="m361.213 271.123h-210v-15c0-57.897 47.103-105 105-105s105 47.103 105 105z"/></g><g><path d="m256.213 512.304-99.089-89.18h54.089v-32h-115v51.213l-96.213-96.214 96.213-96.213v51.213h320v-51.213l96.213 96.213-96.213 96.213v-51.213h-115v32h54.089z"/></g></g></svg>