<svg height="512" viewBox="0 0 56 56" width="512" xmlns="http://www.w3.org/2000/svg"><g id="Page-1" fill="none" fill-rule="evenodd"><g id="008---Letter" fill="rgb(0,0,0)" fill-rule="nonzero"><path id="Shape" d="m39.55 35.427c-.4488547.8674982-.9764019 1.691958-1.576 2.463-.018.02-.028.045-.047.064-1.8160881 2.4009422-4.4370602 4.0664773-7.382 4.691-.7396223.1499723-1.4923267.2260132-2.247.227-1.4240448.0154339-2.8330473-.2922832-4.121-.9-.2754536 1.5531766-.4425236 3.1236343-.5 4.7-.0023498.3165273-.1544214.6132525-.41.8l-4.564 3.341c-.1714895.1254937-.3784975.1930953-.591.193-.0377449-.0050554-.0751473-.0124023-.112-.022v.016h-9c-.55228475 0-1-.4477153-1-1s.44771525-1 1-1h8.293c.8160031-3.5544768 2.1620638-6.9659805 3.993-10.12-1.21-2.836-3.333-10.578 4.665-18.625 2.4651357-2.5839727 5.7128413-4.2839134 9.241-4.837.0260902-.0054634.0524643-.0094696.079-.012 2.7955557-.3427461 5.6209931-.3669008 8.422-.072.777.054 1.545.106 2.307.146v-14.48c0-.55228475-.4477153-1-1-1h-40v43c0 .5522847-.44771525 1-1 1s-1-.4477153-1-1v-43h-2c-.55228475 0-1 .44771525-1 1v54c0 .5522847.44771525 1 1 1h2v-9c0-.5522847.44771525-1 1-1s1 .4477153 1 1v9h29v-9c0-1.6568542 1.3431458-3 3-3h9v-14.007c-2.7656088.9201844-5.0737197 2.864723-6.45 5.434zm-19.55-11.427h-4c-.5522847 0-1-.4477153-1-1s.4477153-1 1-1h4c.5522847 0 1 .4477153 1 1s-.4477153 1-1 1zm-3-16h16c.5522847 0 1 .44771525 1 1s-.4477153 1-1 1h-16c-.5522847 0-1-.44771525-1-1s.4477153-1 1-1zm-8 9h15c.5522847 0 1 .4477153 1 1s-.4477153 1-1 1h-15c-.55228475 0-1-.4477153-1-1s.44771525-1 1-1zm0 5h3c.5522847 0 1 .4477153 1 1s-.4477153 1-1 1h-3c-.55228475 0-1-.4477153-1-1s.44771525-1 1-1zm0 5h9c.5522847 0 1 .4477153 1 1s-.4477153 1-1 1h-9c-.55228475 0-1-.4477153-1-1s.44771525-1 1-1zm0 5h8c.5522847 0 1 .4477153 1 1s-.4477153 1-1 1h-8c-.55228475 0-1-.4477153-1-1s.44771525-1 1-1zm0 5h9c.5522847 0 1 .4477153 1 1s-.4477153 1-1 1h-9c-.55228475 0-1-.4477153-1-1s.44771525-1 1-1zm0 5h7c.5522847 0 1 .4477153 1 1s-.4477153 1-1 1h-7c-.55228475 0-1-.4477153-1-1s.44771525-1 1-1z"/><path id="Shape" d="m36 47v7.586l8.586-8.586h-7.586c-.5522847 0-1 .4477153-1 1z"/><path id="Shape" d="m22.265 41.259c-1.0456686 2.0223912-1.8958594 4.1399992-2.539 6.324l1.974-1.443c.0793611-1.6377721.2681153-3.2684073.565-4.881z"/><path id="Shape" d="m43.758 17.343c-.7797628.5409219-1.4183128 1.261091-1.862 2.1-.1684638.340929-.5157204.5568016-.896.557-.1534244.001481-.3050894-.0327548-.443-.1-.4948363-.2452239-.6972001-.8451519-.452-1.34.2540707-.4954797.566999-.9584927.932-1.379-1.6754407-.1061424-3.3570703-.0592817-5.024.14-.6750997 1.1074575-1.0260574 2.3820608-1.013 3.679 0 .5522847-.4477153 1-1 1s-1-.4477153-1-1c-.0005194-1.0740189.1859305-2.1399302.551-3.15-2.3506091.7273603-4.4778397 2.0401046-6.182 3.815-.188.19-.366.379-.542.568-.1780769 1.1720043-.129532 2.3672964.143 3.521.135862.5357162-.1882838 1.0801379-.724 1.216-.5357162.135862-1.0801379-.1882838-1.216-.724-.1163939-.4824319-.1972772-.972745-.242-1.467-2.5151479 3.4369595-3.3091597 7.8399813-2.153 11.939.545-.809 1.132-1.622 1.785-2.432.009-.012.017-.023.027-.034 8.123-10.064 14.3-12.493 24.274-13.877.547038-.0770437 1.0529563.303962 1.13.851s-.303962 1.0529563-.851 1.13c-9.612 1.333-15.216 3.544-22.93 13.068-.6282384 1.4516443-1.1216494 2.9579871-1.474 4.5 1.6948114.9246166 3.6700337 1.1950488 5.551.76 1.8337569-.388111 3.5274947-1.267472 4.9-2.544-1.5592772-.1457696-3.0806013-.5655386-4.494-1.24-.4942948-.2468713-.6948712-.8477051-.448-1.342.2468713-.4942948.8477052-.6948713 1.342-.448 1.6514558.7578578 3.4479628 1.1475275 5.265 1.142.394715-.5518157.7486541-1.1316875 1.059-1.735.7439612-1.4616404 1.7776034-2.7565852 3.038-3.806-.5643632-.2338274-1.0789046-.5732346-1.516-1-.3910176-.3904653-.3914653-1.0239824-.001-1.415s1.0239824-.3914653 1.415-.001c.6386031.5607375 1.4507725.884546 2.3.917 1.8839701-.9726774 3.8604656-1.7545656 5.9-2.334l.708-.227c4.218-1.353 5.694-7.391 6.174-10.427-4.005 1.64-8.074 1.391-12.031 1.119z"/></g></g></svg>