<svg id="Layer_3" enable-background="new 0 0 64 64" height="512" viewBox="0 0 64 64" width="512" xmlns="http://www.w3.org/2000/svg"><g><path d="m8.293 26.293 3.293-3.293h-4.586v6h6v-4.586l-3.293 3.293z"/><path d="m55 35v-1.073c-1.816-.265-3.487-1.243-4.6-2.727l-.4-.533-.4.533c-1.315 1.753-3.409 2.8-5.6 2.8h-5v1c0 4.411 3.589 8 8 8s8-3.589 8-8z"/><path d="m8.293 38.293 3.293-3.293h-4.586v6h6v-4.586l-3.293 3.293z"/><path d="m39 4.414v4.586h4.586z"/><path d="m38 30v2h6c1.565 0 3.061-.748 4-2l1.2-1.6c.377-.504 1.223-.504 1.6 0l1.2 1.6c.939 1.252 2.435 2 4 2v-2c0-4.962-4.037-9-9-9s-9 4.038-9 9z"/><path d="m59 35.5c0-.827-.673-1.5-1.5-1.5h-.5v1c0 .685-.07 1.354-.202 2h.702c.827 0 1.5-.673 1.5-1.5z"/><path d="m45.542 53.847 1.076 2.153h.764l1.076-2.153-1.458-.729z"/><path d="m51 44.159c-1.226.538-2.578.841-4 .841s-2.774-.303-4-.841v1.479l4 4.8 4-4.8z"/><path d="m8.293 50.293 3.293-3.293h-4.586v6h6v-4.586l-3.293 3.293z"/><path d="m54.613 47h-2.144l-3.892 4.67 3.839 1.92z"/><path d="m46.677 58-1.2 3h3.046l-1.2-3z"/><path d="m39.387 47 2.197 6.59 3.839-1.92-3.892-4.67z"/><path d="m19 47h14.726c1.41-1.241 3.253-2 5.274-2h2v-2.019c-1.367-1.03-2.464-2.395-3.159-3.981h-1.341c-1.391 0-2.585-.822-3.149-2h-14.351v-2h14.051c.221-1.527 1.423-2.728 2.949-2.949v-2.051c0-5.382 3.888-9.865 9-10.809v-8.191h-7c-.553 0-1-.448-1-1v-7h-34v58h28v-8h-12v-2h12.263c.184-.71.46-1.381.819-2h-13.082zm0-36h16v2h-16zm0 4h16v2h-16zm0 8h16v2h-16zm0 4h16v2h-16zm0 12h16v2h-16zm-4 7.414v7.586c0 .552-.447 1-1 1h-8c-.553 0-1-.448-1-1v-8c0-.552.447-1 1-1h7.586l2.707-2.707 1.414 1.414zm0-12v7.586c0 .552-.447 1-1 1h-8c-.553 0-1-.448-1-1v-8c0-.552.447-1 1-1h7.586l2.707-2.707 1.414 1.414zm0-12v7.586c0 .552-.447 1-1 1h-8c-.553 0-1-.448-1-1v-8c0-.552.447-1 1-1h7.586l2.707-2.707 1.414 1.414zm0-12v7.586c0 .552-.447 1-1 1h-8c-.553 0-1-.448-1-1v-8c0-.552.447-1 1-1h7.586l2.707-2.707 1.414 1.414z"/><path d="m56.642 47.234-2.694 8.082c-.091.275-.298.497-.565.607-.123.052-.253.077-.383.077-.153 0-.307-.035-.447-.105l-2.305-1.153-1.152 2.304 1.581 3.954h10.323v-8c0-2.739-1.846-5.049-4.358-5.766z"/><path d="m8.293 14.293 3.293-3.293h-4.586v6h6v-4.586l-3.293 3.293z"/><path d="m41.447 55.895c-.14.07-.294.105-.447.105-.13 0-.26-.025-.383-.076-.268-.111-.475-.333-.565-.607l-2.694-8.082c-2.512.716-4.358 3.026-4.358 5.765v8h10.323l1.582-3.955-1.152-2.304z"/><path d="m36.5 34c-.827 0-1.5.673-1.5 1.5s.673 1.5 1.5 1.5h.702c-.132-.646-.202-1.315-.202-2v-1z"/></g></svg>