<svg height="464pt" viewBox="0 0 464 464" width="464pt" xmlns="http://www.w3.org/2000/svg"><path d="m264 283.929688v-10.042969c-9.9375 3.898437-20.703125 6.113281-32 6.113281s-22.0625-2.214844-32-6.113281v10.042969l32 23.269531zm0 0"/><path d="m185.777344 297.519531 6.6875 38.441407 25.933594-18.871094-28.207032-20.523438zm0 0"/><path d="m128 144v32c0 4.40625 3.585938 8 8 8h8v-48h-8c-4.414062 0-8 3.59375-8 8zm0 0"/><path d="m128 121.472656c2.511719-.898437 5.183594-1.472656 8-1.472656h8v-16.777344c0-48.09375 39.136719-87.222656 87.222656-87.222656 28.113282 0 54.648438 13.65625 70.976563 36.527344 6.839843 9.570312 17.046875 16.046875 28.359375 18.425781-14.023438-41.6875-53.789063-70.953125-98.558594-70.953125-57.34375 0-104 46.65625-104 104zm0 0"/><path d="m224 216c-4.414062 0-8 3.59375-8 8s3.585938 8 8 8h24c4.414062 0 8-3.59375 8-8s-3.585938-8-8-8zm0 0"/><path d="m320 136h16v48h-16zm0 0"/><path d="m270.527344 216h29.273437c2.671875-7.519531 4.199219-15.574219 4.199219-24v-51.398438c-7.304688 2.175782-14.960938 3.398438-22.832031 3.398438-12.464844 0-24.945313-2.945312-36.097657-8.519531l-27.664062-13.832031c-15.933594 14.023437-36.054688 21.816406-57.40625 22.261718v48.089844c0 39.695312 32.296875 72 72 72 24.910156 0 46.894531-12.71875 59.824219-32h-21.296875c-3.3125 9.289062-12.113282 16-22.527344 16h-24c-13.230469 0-24-10.769531-24-24s10.769531-24 24-24h24c10.414062 0 19.214844 6.710938 22.527344 16zm-78.527344-48c-4.414062 0-8-3.585938-8-8s3.585938-8 8-8 8 3.585938 8 8-3.585938 8-8 8zm80-16c4.414062 0 8 3.585938 8 8s-3.585938 8-8 8-8-3.585938-8-8 3.585938-8 8-8zm0 0"/><path d="m316.59375 216h11.40625c4.414062 0 8-3.59375 8-8v-8h-16.40625c-.496094 5.503906-1.539062 10.839844-3 16zm0 0"/><path d="m340.046875 88c-20.144531 0-39.152344-9.785156-50.855469-26.167969-13.34375-18.679687-35.015625-29.832031-57.96875-29.832031-39.269531 0-71.222656 31.953125-71.222656 71.222656v24.753906c19.023438-.488281 36.832031-8.128906 50.34375-21.632812l4.082031-4.078125 37.804688 18.902344c8.9375 4.472656 18.9375 6.832031 28.9375 6.832031 26.265625 0 49.894531-16.128906 59.792969-40zm0 0"/><path d="m278.222656 297.519531-4.414062-.953125-28.207032 20.523438 25.933594 18.871094zm0 0"/><path d="m286.296875 373.28125 33.117187-24.832031-6.207031-43.425781-19.320312-4.144532-27.933594 160.617188c4.046875-.601563 8.054687-1.28125 12.03125-2.089844l25.160156-44.023438zm0 0"/><path d="m344.375 311.695312-14.496094-3.101562 6.707032 46.964844-30.882813 23.167968 15.160156 37.898438-21.328125 37.328125c28.128906-8.578125 53.976563-22.386719 76.472656-40.25v-62.894531c-.007812-18.746094-13.304687-35.183594-31.632812-39.113282zm0 0"/><path d="m232 326.976562-36.488281 26.535157 19.089843 109.769531c5.75.429688 11.542969.71875 17.398438.71875s11.648438-.289062 17.390625-.71875l19.089844-109.769531zm8 113.023438h-16v-16h16zm0-40h-16v-16h16zm0-40h-16v-16h16zm0 0"/><path d="m464 232c0-100.304688-64-185.929688-153.289062-218.230469 17.394531 15.132813 30.472656 35.183594 36.855468 58.230469h15.042969l-3.855469 13.480469c-3.84375 13.449219-11.074218 25.28125-20.554687 34.742187 7.769531 1.082032 13.800781 7.707032 13.800781 15.777344v72c0 13.230469-10.769531 24-24 24h-17.710938c-7.023437 13.679688-17.488281 25.289062-30.289062 33.664062v15.871094l67.734375 14.511719c25.648437 5.496094 44.265625 28.527344 44.265625 54.761719v48.953125c44.3125-42.28125 72-101.832031 72-167.761719zm0 0"/><path d="m116.265625 296.046875 67.734375-14.519531v-15.871094c-21.945312-14.34375-37.105469-38.183594-39.59375-65.664062h-8.40625c-13.230469 0-24-10.769532-24-24v-72c0-35.9375 15.953125-68.144532 41.054688-90.152344-89.175782 32.375-153.054688 117.945312-153.054688 218.160156 0 65.929688 27.6875 125.480469 72 167.761719v-48.953125c0-26.234375 18.617188-49.265625 44.265625-54.761719zm0 0"/><path d="m150.792969 305.015625-6.207031 43.425781 33.117187 24.832032-16.839844 42.101562 25.160157 44.023438c3.976562.800781 7.992187 1.488281 12.03125 2.089843l-27.933594-160.617187zm0 0"/><path d="m158.296875 378.71875-30.882813-23.167969 6.707032-46.964843-14.496094 3.101562c-18.328125 3.9375-31.625 20.375-31.625 39.121094v62.894531c22.496094 17.863281 48.34375 31.671875 76.472656 40.25l-21.328125-37.328125zm0 0"/></svg>