<?xml version="1.0" standalone="no"?>
<!DOCTYPE svg PUBLIC "-//W3C//DTD SVG 20010904//EN"
 "http://www.w3.org/TR/2001/REC-SVG-20010904/DTD/svg10.dtd">
<svg version="1.0" xmlns="http://www.w3.org/2000/svg"
 width="448.000000pt" height="448.000000pt" viewBox="0 0 448.000000 448.000000"
 preserveAspectRatio="xMidYMid meet">
<metadata>
Created by potrace 1.15, written by Peter Selinger 2001-2017
</metadata>
<g transform="translate(0.000000,448.000000) scale(0.100000,-0.100000)"
fill="#000000" stroke="none">
<path d="M2250 4463 c-94 -11 -288 -56 -395 -93 -645 -222 -1119 -762 -1262
-1440 -25 -114 -27 -145 -27 -355 -1 -224 7 -347 23 -374 7 -10 23 -9 85 6
l78 18 -7 60 c-56 468 36 874 280 1240 391 586 1110 885 1796 745 465 -95 873
-373 1133 -772 111 -170 200 -390 248 -608 20 -93 22 -133 22 -340 0 -207 -2
-247 -22 -340 -81 -372 -247 -670 -519 -930 -236 -226 -528 -379 -863 -452
-93 -20 -133 -22 -340 -22 -207 0 -247 2 -340 22 -299 65 -589 207 -798 389
-35 31 -65 53 -69 50 -3 -4 -15 -34 -28 -69 -12 -35 -25 -70 -29 -79 -6 -13
12 -32 76 -82 271 -212 585 -344 934 -393 176 -24 464 -15 634 21 679 142
1216 612 1439 1260 71 204 92 328 98 570 4 166 2 234 -11 324 -62 423 -248
795 -545 1092 -295 294 -668 482 -1083 543 -98 15 -408 20 -508 9z"/>
<path d="M2325 4159 c-309 -32 -616 -158 -848 -348 -288 -235 -487 -557 -568
-923 -36 -161 -37 -509 -3 -654 4 -15 21 -25 66 -39 82 -24 197 -103 253 -173
91 -114 122 -205 131 -387 5 -110 4 -123 -16 -160 l-21 -40 72 -65 c496 -451
1198 -556 1799 -269 170 81 289 167 435 313 195 195 314 386 395 636 61 186
75 284 74 515 0 226 -15 323 -81 515 -239 705 -946 1156 -1688 1079z m-148
-1077 c52 -27 92 -68 117 -122 17 -37 20 -65 21 -165 0 -138 -11 -179 -63
-237 -47 -52 -79 -67 -178 -83 -95 -16 -126 -30 -171 -77 -46 -47 -63 -96 -63
-178 l0 -70 240 0 240 0 0 -80 0 -80 -274 0 c-306 0 -330 4 -352 56 -28 67
-11 260 31 351 28 62 113 152 172 181 43 22 99 37 176 47 80 10 87 25 87 165
0 161 1 160 -160 160 -158 0 -160 -1 -160 -140 l0 -100 -81 0 -82 0 5 103 c9
175 71 263 203 288 74 14 249 3 292 -19z m823 8 c35 -19 40 -64 40 -346 l0
-274 80 0 80 0 0 -80 0 -80 -80 0 -80 0 0 -160 0 -160 -80 0 -80 0 0 160 0
160 -194 0 c-200 0 -249 7 -266 40 -24 46 -12 67 231 392 132 178 250 331 261
341 22 19 60 22 88 7z"/>
<path d="M2756 2635 c-64 -85 -116 -157 -116 -160 0 -3 54 -5 120 -5 l120 0 0
160 c0 88 -2 160 -4 160 -2 0 -56 -70 -120 -155z"/>
<path d="M673 2056 c-101 -33 -191 -113 -241 -215 -22 -46 -27 -72 -30 -153
l-4 -98 156 0 156 0 113 75 c74 50 121 75 141 75 22 0 46 -17 105 -75 59 -57
84 -75 105 -75 l28 0 -4 98 c-3 83 -8 107 -33 157 -37 77 -114 153 -190 190
-52 26 -72 30 -160 32 -64 2 -115 -2 -142 -11z"/>
<path d="M861 1514 c-119 -80 -132 -84 -266 -84 l-115 0 0 -75 c0 -101 27
-171 90 -235 160 -159 452 -102 529 105 27 72 30 215 5 215 -9 0 -46 29 -83
65 -37 36 -70 65 -72 65 -2 0 -42 -25 -88 -56z"/>
<path d="M720 807 c0 -72 1 -73 40 -112 l40 -39 40 39 c39 39 40 40 40 112 l0
73 -80 0 -80 0 0 -73z"/>
<path d="M445 558 c-215 -82 -270 -122 -332 -241 -25 -47 -28 -64 -31 -185
l-4 -132 721 0 721 0 0 115 c0 130 -18 194 -74 268 -56 74 -115 109 -296 177
l-170 63 -74 -71 c-99 -97 -113 -97 -210 -2 -40 39 -77 70 -82 70 -5 -1 -81
-28 -169 -62z"/>
</g>
</svg>
