<svg id="Layer_3" enable-background="new 0 0 64 64" height="512" viewBox="0 0 64 64" width="512" xmlns="http://www.w3.org/2000/svg"><g><path d="m54 21.816v-9.816c0-2.757-2.243-5-5-5h-14c-2.757 0-5 2.243-5 5v9.816c1.161-.414 2-1.514 2-2.816v-1.93c0-2.244 1.826-4.07 4.07-4.07.807 0 1.587.236 2.258.684l.562.375c1.848 1.231 4.371 1.231 6.219 0l.562-.375c.671-.448 1.452-.684 2.259-.684 2.244 0 4.07 1.826 4.07 4.07v1.93c0 1.302.839 2.402 2 2.816z"/><path d="m43 33h-2c-.551 0-1 .449-1 1s.449 1 1 1h2c.551 0 1-.449 1-1s-.449-1-1-1z"/><path d="m43 37h-2c-1.654 0-3-1.346-3-3s1.346-3 3-3h2c1.302 0 2.402.839 2.816 2h6.561c1.025-1.768 1.623-3.813 1.623-6v-3.101c-2.279-.465-4-2.484-4-4.899v-1.93c0-1.142-.929-2.07-2.07-2.07-.41 0-.807.12-1.148.348l-.562.375c-2.508 1.671-5.93 1.671-8.438 0l-.562-.375c-.343-.228-.74-.348-1.15-.348-1.141 0-2.07.929-2.07 2.07v1.93c0 2.414-1.721 4.434-4 4.899v3.101c0 6.617 5.383 12 12 12 3.542 0 6.72-1.552 8.919-4h-5.103c-.414 1.161-1.514 2-2.816 2z"/><path d="m56 22v5c0 .338-.027.668-.051 1h.051c0 .551.449 1 1 1h2c.551 0 1-.449 1-1v-6c0-.551-.449-1-1-1h-2c-.551 0-1 .449-1 1z"/><path d="m47.008 40.058c-1.557.6-3.242.942-5.008.942s-3.451-.342-5.008-.942l5.008 11.447z"/><path d="m49.196 45.02 3.236.647-2.359-6.29-.514-.158-6.643 15.183c-.159.363-.519.598-.916.598s-.757-.235-.916-.599l-6.643-15.183-.514.158-2.359 6.29 3.236-.647c.377-.076.759.07.991.374.231.303.271.712.1 1.054l-1.657 3.314 7.763 6.9 7.763-6.9-1.657-3.314c-.171-.342-.132-.751.1-1.054.23-.303.613-.449.989-.373z"/><path d="m25 29h2c.551 0 1-.449 1-1h.051c-.024-.332-.051-.662-.051-1v-5c0-.551-.449-1-1-1h-2c-.551 0-1 .449-1 1v6c0 .551.449 1 1 1z"/><path d="m28 19.184v-7.184c0-3.86 3.14-7 7-7h14c3.86 0 7 3.14 7 7v7.184c.314-.112.648-.184 1-.184h1v-7c0-4.962-4.038-9-9-9h-14c-4.962 0-9 4.038-9 9v7h1c.352 0 .686.072 1 .184z"/><path d="m57.471 41.652-4.983-1.533 2.449 6.53c.127.34.061.722-.175.999-.235.275-.603.404-.958.333l-2.995-.599 1.086 2.171c.202.404.108.894-.23 1.195l-9 8c-.19.168-.428.252-.665.252s-.475-.084-.665-.252l-9-8c-.338-.301-.432-.791-.23-1.195l1.086-2.171-2.995.599c-.359.073-.724-.057-.958-.333-.235-.277-.302-.659-.175-.999l2.449-6.53-4.983 1.533c-2.111.65-3.529 2.571-3.529 4.78v14.568h6v-8h2v8h22v-8h2v8h6v-14.568c0-2.209-1.418-4.13-3.529-4.78z"/><path d="m59 34v-4h-2v3h-4.624c-.417.718-.906 1.386-1.458 2h7.082c.552 0 1-.448 1-1z"/><path d="m18 3h-14c-.551 0-1 .449-1 1v14c0 .551.449 1 1 1h5c.265 0 .52.105.707.293l2.293 2.293v-1.586c0-.552.448-1 1-1h5c.551 0 1-.449 1-1v-14c0-.551-.449-1-1-1zm-6 15h-2v-2h2zm0-4.101v1.101h-2v-2c0-.552.448-1 1-1 1.654 0 3-1.346 3-3s-1.346-3-3-3-3 1.346-3 3h-2c0-2.757 2.243-5 5-5s5 2.243 5 5c0 2.415-1.721 4.435-4 4.899z"/></g></svg>