<svg height="512" viewBox="0 0 64 64" width="512" xmlns="http://www.w3.org/2000/svg"><path d="m15.847 38-.334 2h2.974l-.334-2z"/><path d="m24.451 31.088-4.4 6.156 1.932 11.592a1 1 0 0 1 -.279.871l-4 4a1 1 0 0 1 -1.414 0l-4-4a1 1 0 0 1 -.279-.871l1.932-11.592-4.4-6.156a7.017 7.017 0 0 0 -5.543 6.912v10h5a1 1 0 0 1 1 1v11h14v-11a1 1 0 0 1 1-1h5v-10a7.017 7.017 0 0 0 -5.549-6.912z"/><path d="m14.071 48.657 2.929 2.929 2.929-2.929-1.109-6.657h-3.64z"/><path d="m15.071 29.657 1.929 1.929 1.929-1.929-.776-4.657h-2.306z"/><path d="m21.271 30.145-3.564 3.562a1 1 0 0 1 -1.414 0l-3.564-3.562-1.128.376 3.913 5.479h2.972l3.914-5.479z"/><path d="m4 50h4v10h-4z"/><path d="m26 50h4v10h-4z"/><path d="m24 14h2v4h-2z"/><path d="m12 12.721v5.279a4.955 4.955 0 0 0 .282 1.656 5 5 0 0 0 9.435 0 4.955 4.955 0 0 0 .283-1.656v-5.279l-1.853-.621-2.592 1.728a1 1 0 0 1 -1.555-.828v-.586l-1.293 1.293a1 1 0 0 1 -1.707-.707v-.612zm4 5.279a1 1 0 0 0 2 0h2a3 3 0 0 1 -6 0z"/><path d="m10.684 11.052 3-1a.994.994 0 0 1 .9.136 1.016 1.016 0 0 1 .352.461l1.356-1.356a1 1 0 0 1 1.708.707v1.132l1.445-.964a.993.993 0 0 1 .871-.116l3 1a1 1 0 0 1 .684.948v-1a7 7 0 0 0 -14 0v1a1 1 0 0 1 .684-.948z"/><path d="m8 14h2v4h-2z"/><circle cx="46" cy="27" r="1"/><path d="m47.612 8.254a5.078 5.078 0 0 0 -4.727.835 4.97 4.97 0 0 0 -1.785 2.911h2.07a3.011 3.011 0 0 1 2.822-2 3.254 3.254 0 0 1 .789.1 2.945 2.945 0 0 1 2.155 2.269 3 3 0 0 1 -1.4 3.211 5.058 5.058 0 0 0 -2.536 4.343 1.02 1.02 0 0 0 1 1.077 1 1 0 0 0 1-1 3.11 3.11 0 0 1 1.564-2.707 5.071 5.071 0 0 0 2.112-6.107 4.85 4.85 0 0 0 -3.064-2.932z"/><path d="m46 4a14.015 14.015 0 0 0 -14 14 13.869 13.869 0 0 0 2.725 8.271 1.006 1.006 0 0 1 .171.81l-.52 2.335 1.846-.692a1 1 0 0 1 .98.159 13.839 13.839 0 0 0 8.798 3.117 14 14 0 0 0 0-28zm0 26a3 3 0 1 1 3-3 3 3 0 0 1 -3 3zm3.592-10.99a1.1 1.1 0 0 0 -.592.913 3 3 0 1 1 -6 .077 7.075 7.075 0 0 1 3.512-6.14 1.013 1.013 0 0 0 .463-1.1.961.961 0 0 0 -.679-.725 1.022 1.022 0 0 0 -.92.181 1 1 0 0 0 -.376.784 1 1 0 0 1 -1 1h-4a1 1 0 0 1 -1-1 6.966 6.966 0 0 1 2.638-5.475 7.082 7.082 0 0 1 6.581-1.177 6.861 6.861 0 0 1 4.334 4.152 7.076 7.076 0 0 1 -2.961 8.51z"/></svg>