<svg height="448pt" viewBox="0 0 448.09112 448" width="448pt" xmlns="http://www.w3.org/2000/svg"><path d="m314.128906 384.957031c1.015625-1.980469 1.195313-4.285156.496094-6.398437-.675781-2.011719-2.132812-3.664063-4.039062-4.585938l-100.984376-49.054687c-3.695312-1.75-8.117187-.480469-10.320312 2.960937l-4.800781 7.597656 115.75 56.746094c1.441406-2.535156 2.761719-4.976562 3.898437-7.265625zm0 0"/><path d="m185.9375 349.09375-9.738281 15.449219c-6.511719 10.4375-19.867188 14.261719-30.917969 8.847656-15.117188-7.585937-29.0625-17.308594-41.402344-28.871094-11.699218-12.40625-21.527344-26.445312-29.183594-41.683593-5.4375-11.058594-1.636718-24.4375 8.800782-30.992188l15.464844-9.742188-56.800782-115.9375c-20.71875 13.808594-42.160156 33.746094-42.160156 53.882813v8c2.40625 131.539063 108.460938 237.59375 240 240h8c20.128906 0 40.070312-21.449219 53.871094-42.121094zm0 0"/><path d="m74.089844 137.460938c-.929688-1.894532-2.582032-3.335938-4.585938-4-2.109375-.714844-4.421875-.542969-6.398437.480468-2.289063 1.144532-4.800781 2.472656-7.304688 3.886719l56.757813 115.707031 7.648437-4.800781c3.425781-2.226563 4.667969-6.652344 2.898438-10.335937zm0 0"/><path d="m312 .046875c-49.660156-.046875-95.386719 27.003906-119.265625 70.546875-23.875 43.542969-22.097656 96.644531 4.640625 138.492188l1.863281 2.902343-12.246093 49.066407 49.0625-12.210938 2.90625 1.867188c48.832031 31.144531 112.03125 27.945312 157.46875-7.976563 45.4375-35.917969 63.140624-96.671875 44.109374-151.375s-70.621093-91.3515625-128.539062-91.3125zm-64 124-32 24v4h32v16h-48v-28l32-24v-12h-16v8h-16v-24h48zm72 28h-16v16h-16v-16h-32v-64h16v48h16v-48h16v48h16zm15.710938 42.144531-15.421876-4.289062 40-144 15.421876 4.289062zm72.105468-24.410156-15.632812-3.472656 13.839844-62.261719h-30.023438v-16h49.976562zm0 0"/></svg>