<?xml version="1.0" encoding="UTF-8" standalone="no"?>
<!DOCTYPE svg PUBLIC "-//W3C//DTD SVG 1.1//EN" "http://www.w3.org/Graphics/SVG/1.1/DTD/svg11.dtd">
<svg version="1.1" xmlns="http://www.w3.org/2000/svg" xmlns:xlink="http://www.w3.org/1999/xlink" preserveAspectRatio="xMidYMid meet" viewBox="0 0 640 640" width="640" height="640"><defs><path d="M78.69 394.83C82.82 394.83 84.89 397.07 84.89 401.54C84.89 412.16 84.89 418.06 84.89 419.24C84.89 423.72 82.82 425.95 78.69 425.95C42.77 425.95 22.82 425.95 18.83 425.95C14.7 425.95 12.63 423.72 12.63 419.24C12.63 408.62 12.63 402.72 12.63 401.54C12.63 397.07 14.7 394.83 18.83 394.83C54.74 394.83 74.7 394.83 78.69 394.83Z" id="exWWYhk50"></path><path d="M150.95 394.83C155.08 394.83 157.15 397.07 157.15 401.54C157.15 412.16 157.15 418.06 157.15 419.24C157.15 423.72 155.08 425.95 150.95 425.95C115.03 425.95 95.08 425.95 91.09 425.95C86.96 425.95 84.89 423.72 84.89 419.24C84.89 408.62 84.89 402.72 84.89 401.54C84.89 397.07 86.96 394.83 91.09 394.83C127 394.83 146.96 394.83 150.95 394.83Z" id="d3ZF0gqZVK"></path><path d="M150.95 394.83C155.08 394.83 157.15 397.07 157.15 401.54C157.15 412.16 157.15 418.06 157.15 419.24C157.15 423.72 155.08 425.95 150.95 425.95C115.03 425.95 95.08 425.95 91.09 425.95C86.96 425.95 84.89 423.72 84.89 419.24C84.89 408.62 84.89 402.72 84.89 401.54C84.89 397.07 86.96 394.83 91.09 394.83C127 394.83 146.96 394.83 150.95 394.83Z" id="bsU5TI04K"></path><path d="M223.21 394.83C227.34 394.83 229.41 397.07 229.41 401.54C229.41 412.16 229.41 418.06 229.41 419.24C229.41 423.72 227.34 425.95 223.21 425.95C187.29 425.95 167.34 425.95 163.35 425.95C159.22 425.95 157.15 423.72 157.15 419.24C157.15 408.62 157.15 402.72 157.15 401.54C157.15 397.07 159.22 394.83 163.35 394.83C199.27 394.83 219.22 394.83 223.21 394.83Z" id="a2l0Tefph"></path><path d="M295.47 394.83C299.6 394.83 301.67 397.07 301.67 401.54C301.67 412.16 301.67 418.06 301.67 419.24C301.67 423.72 299.6 425.95 295.47 425.95C259.55 425.95 239.6 425.95 235.61 425.95C231.48 425.95 229.41 423.72 229.41 419.24C229.41 408.62 229.41 402.72 229.41 401.54C229.41 397.07 231.48 394.83 235.61 394.83C271.53 394.83 291.48 394.83 295.47 394.83Z" id="aswkIYnCN"></path><path d="M295.47 394.83C299.6 394.83 301.67 397.07 301.67 401.54C301.67 412.16 301.67 418.06 301.67 419.24C301.67 423.72 299.6 425.95 295.47 425.95C259.55 425.95 239.6 425.95 235.61 425.95C231.48 425.95 229.41 423.72 229.41 419.24C229.41 408.62 229.41 402.72 229.41 401.54C229.41 397.07 231.48 394.83 235.61 394.83C271.53 394.83 291.48 394.83 295.47 394.83Z" id="b1hlqYjYXR"></path><path d="M367.73 394.83C371.86 394.83 373.93 397.07 373.93 401.54C373.93 412.16 373.93 418.06 373.93 419.24C373.93 423.72 371.86 425.95 367.73 425.95C331.81 425.95 311.86 425.95 307.87 425.95C303.74 425.95 301.67 423.72 301.67 419.24C301.67 408.62 301.67 402.72 301.67 401.54C301.67 397.07 303.74 394.83 307.87 394.83C343.79 394.83 363.74 394.83 367.73 394.83Z" id="bxRJzXy2I"></path><path d="M439.99 394.83C444.12 394.83 446.19 397.07 446.19 401.54C446.19 412.16 446.19 418.06 446.19 419.24C446.19 423.72 444.12 425.95 439.99 425.95C404.08 425.95 384.12 425.95 380.13 425.95C376 425.95 373.93 423.72 373.93 419.24C373.93 408.62 373.93 402.72 373.93 401.54C373.93 397.07 376 394.83 380.13 394.83C416.05 394.83 436 394.83 439.99 394.83Z" id="amB2ulJHK"></path><path d="M439.99 394.83C444.12 394.83 446.19 397.07 446.19 401.54C446.19 412.16 446.19 418.06 446.19 419.24C446.19 423.72 444.12 425.95 439.99 425.95C404.08 425.95 384.12 425.95 380.13 425.95C376 425.95 373.93 423.72 373.93 419.24C373.93 408.62 373.93 402.72 373.93 401.54C373.93 397.07 376 394.83 380.13 394.83C416.05 394.83 436 394.83 439.99 394.83Z" id="aVOd2h54e"></path><path d="M380.13 394.83C376 394.83 373.93 392.59 373.93 388.12C373.93 377.5 373.93 371.6 373.93 370.42C373.93 365.95 376 363.71 380.13 363.71C416.05 363.71 436 363.71 439.99 363.71C444.12 363.71 446.19 365.95 446.19 370.42C446.19 381.04 446.19 386.94 446.19 388.12C446.19 392.59 444.12 394.83 439.99 394.83C404.08 394.83 384.12 394.83 380.13 394.83Z" id="bqh6HnXCc"></path><path d="M307.87 394.83C303.74 394.83 301.67 392.59 301.67 388.12C301.67 377.5 301.67 371.6 301.67 370.42C301.67 365.95 303.74 363.71 307.87 363.71C343.79 363.71 363.74 363.71 367.73 363.71C371.86 363.71 373.93 365.95 373.93 370.42C373.93 381.04 373.93 386.94 373.93 388.12C373.93 392.59 371.86 394.83 367.73 394.83C331.81 394.83 311.86 394.83 307.87 394.83Z" id="a353OH2rZ"></path><path d="M307.87 396.73C303.74 396.73 301.67 394.49 301.67 390.02C301.67 379.4 301.67 373.5 301.67 372.32C301.67 367.84 303.74 365.61 307.87 365.61C343.79 365.61 363.74 365.61 367.73 365.61C371.86 365.61 373.93 367.84 373.93 372.32C373.93 382.94 373.93 388.84 373.93 390.02C373.93 394.49 371.86 396.73 367.73 396.73C331.81 396.73 311.86 396.73 307.87 396.73Z" id="dx60lNUhU"></path><path d="M235.61 394.83C231.48 394.83 229.41 392.59 229.41 388.12C229.41 377.5 229.41 371.6 229.41 370.42C229.41 365.95 231.48 363.71 235.61 363.71C271.53 363.71 291.48 363.71 295.47 363.71C299.6 363.71 301.67 365.95 301.67 370.42C301.67 381.04 301.67 386.94 301.67 388.12C301.67 392.59 299.6 394.83 295.47 394.83C259.55 394.83 239.6 394.83 235.61 394.83Z" id="b54abFAbP"></path><path d="M163.35 394.83C159.22 394.83 157.15 392.59 157.15 388.12C157.15 377.5 157.15 371.6 157.15 370.42C157.15 365.95 159.22 363.71 163.35 363.71C199.27 363.71 219.22 363.71 223.21 363.71C227.34 363.71 229.41 365.95 229.41 370.42C229.41 381.04 229.41 386.94 229.41 388.12C229.41 392.59 227.34 394.83 223.21 394.83C187.29 394.83 167.34 394.83 163.35 394.83Z" id="bexIxytDN"></path><path d="M163.35 394.83C159.22 394.83 157.15 392.59 157.15 388.12C157.15 377.5 157.15 371.6 157.15 370.42C157.15 365.95 159.22 363.71 163.35 363.71C199.27 363.71 219.22 363.71 223.21 363.71C227.34 363.71 229.41 365.95 229.41 370.42C229.41 381.04 229.41 386.94 229.41 388.12C229.41 392.59 227.34 394.83 223.21 394.83C187.29 394.83 167.34 394.83 163.35 394.83Z" id="epKyY8de"></path><path d="M91.09 394.83C86.96 394.83 84.89 392.59 84.89 388.12C84.89 377.5 84.89 371.6 84.89 370.42C84.89 365.95 86.96 363.71 91.09 363.71C127 363.71 146.96 363.71 150.95 363.71C155.08 363.71 157.15 365.95 157.15 370.42C157.15 381.04 157.15 386.94 157.15 388.12C157.15 392.59 155.08 394.83 150.95 394.83C115.03 394.83 95.08 394.83 91.09 394.83Z" id="c1LOt4DiR"></path><path d="M18.83 394.83C14.7 394.83 12.63 392.59 12.63 388.12C12.63 377.5 12.63 371.6 12.63 370.42C12.63 365.95 14.7 363.71 18.83 363.71C54.74 363.71 74.7 363.71 78.69 363.71C82.82 363.71 84.89 365.95 84.89 370.42C84.89 381.04 84.89 386.94 84.89 388.12C84.89 392.59 82.82 394.83 78.69 394.83C42.77 394.83 22.82 394.83 18.83 394.83Z" id="cyawxpepf"></path><path d="M18.83 394.83C14.7 394.83 12.63 392.59 12.63 388.12C12.63 377.5 12.63 371.6 12.63 370.42C12.63 365.95 14.7 363.71 18.83 363.71C54.74 363.71 74.7 363.71 78.69 363.71C82.82 363.71 84.89 365.95 84.89 370.42C84.89 381.04 84.89 386.94 84.89 388.12C84.89 392.59 82.82 394.83 78.69 394.83C42.77 394.83 22.82 394.83 18.83 394.83Z" id="d1BzbQaSef"></path><path d="M78.69 332.59C82.82 332.59 84.89 334.83 84.89 339.3C84.89 349.92 84.89 355.82 84.89 357C84.89 361.47 82.82 363.71 78.69 363.71C42.77 363.71 22.82 363.71 18.83 363.71C14.7 363.71 12.63 361.47 12.63 357C12.63 346.38 12.63 340.48 12.63 339.3C12.63 334.83 14.7 332.59 18.83 332.59C54.74 332.59 74.7 332.59 78.69 332.59Z" id="ae8cQrCIa"></path><path d="M150.95 332.59C155.08 332.59 157.15 334.83 157.15 339.3C157.15 349.92 157.15 355.82 157.15 357C157.15 361.47 155.08 363.71 150.95 363.71C115.03 363.71 95.08 363.71 91.09 363.71C86.96 363.71 84.89 361.47 84.89 357C84.89 346.38 84.89 340.48 84.89 339.3C84.89 334.83 86.96 332.59 91.09 332.59C127 332.59 146.96 332.59 150.95 332.59Z" id="aCcaYs77"></path><path d="M150.95 332.59C155.08 332.59 157.15 334.83 157.15 339.3C157.15 349.92 157.15 355.82 157.15 357C157.15 361.47 155.08 363.71 150.95 363.71C115.03 363.71 95.08 363.71 91.09 363.71C86.96 363.71 84.89 361.47 84.89 357C84.89 346.38 84.89 340.48 84.89 339.3C84.89 334.83 86.96 332.59 91.09 332.59C127 332.59 146.96 332.59 150.95 332.59Z" id="i3n2MTE8d"></path><path d="M223.21 332.59C227.34 332.59 229.41 334.83 229.41 339.3C229.41 349.92 229.41 355.82 229.41 357C229.41 361.47 227.34 363.71 223.21 363.71C187.29 363.71 167.34 363.71 163.35 363.71C159.22 363.71 157.15 361.47 157.15 357C157.15 346.38 157.15 340.48 157.15 339.3C157.15 334.83 159.22 332.59 163.35 332.59C199.27 332.59 219.22 332.59 223.21 332.59Z" id="a59x7RjbM"></path><path d="M295.47 332.59C299.6 332.59 301.67 334.83 301.67 339.3C301.67 349.92 301.67 355.82 301.67 357C301.67 361.47 299.6 363.71 295.47 363.71C259.55 363.71 239.6 363.71 235.61 363.71C231.48 363.71 229.41 361.47 229.41 357C229.41 346.38 229.41 340.48 229.41 339.3C229.41 334.83 231.48 332.59 235.61 332.59C271.53 332.59 291.48 332.59 295.47 332.59Z" id="k2guJBkpN3"></path><path d="M295.47 332.59C299.6 332.59 301.67 334.83 301.67 339.3C301.67 349.92 301.67 355.82 301.67 357C301.67 361.47 299.6 363.71 295.47 363.71C259.55 363.71 239.6 363.71 235.61 363.71C231.48 363.71 229.41 361.47 229.41 357C229.41 346.38 229.41 340.48 229.41 339.3C229.41 334.83 231.48 332.59 235.61 332.59C271.53 332.59 291.48 332.59 295.47 332.59Z" id="a1IWKYWAnQ"></path><path d="M367.73 332.59C371.86 332.59 373.93 334.83 373.93 339.3C373.93 349.92 373.93 355.82 373.93 357C373.93 361.47 371.86 363.71 367.73 363.71C331.81 363.71 311.86 363.71 307.87 363.71C303.74 363.71 301.67 361.47 301.67 357C301.67 346.38 301.67 340.48 301.67 339.3C301.67 334.83 303.74 332.59 307.87 332.59C343.79 332.59 363.74 332.59 367.73 332.59Z" id="aI76pWnsk"></path><path d="M439.99 332.59C444.12 332.59 446.19 334.83 446.19 339.3C446.19 349.92 446.19 355.82 446.19 357C446.19 361.47 444.12 363.71 439.99 363.71C404.08 363.71 384.12 363.71 380.13 363.71C376 363.71 373.93 361.47 373.93 357C373.93 346.38 373.93 340.48 373.93 339.3C373.93 334.83 376 332.59 380.13 332.59C416.05 332.59 436 332.59 439.99 332.59Z" id="d3hryd89dL"></path><path d="M439.99 332.59C444.12 332.59 446.19 334.83 446.19 339.3C446.19 349.92 446.19 355.82 446.19 357C446.19 361.47 444.12 363.71 439.99 363.71C404.08 363.71 384.12 363.71 380.13 363.71C376 363.71 373.93 361.47 373.93 357C373.93 346.38 373.93 340.48 373.93 339.3C373.93 334.83 376 332.59 380.13 332.59C416.05 332.59 436 332.59 439.99 332.59Z" id="d1KLl4LEiX"></path><path d="M380.13 332.59C376 332.59 373.93 330.35 373.93 325.88C373.93 315.26 373.93 309.36 373.93 308.18C373.93 303.7 376 301.47 380.13 301.47C416.05 301.47 436 301.47 439.99 301.47C444.12 301.47 446.19 303.7 446.19 308.18C446.19 318.8 446.19 324.7 446.19 325.88C446.19 330.35 444.12 332.59 439.99 332.59C404.08 332.59 384.12 332.59 380.13 332.59Z" id="d4ot23EVui"></path><path d="M307.87 332.59C303.74 332.59 301.67 330.35 301.67 325.88C301.67 315.26 301.67 309.36 301.67 308.18C301.67 303.7 303.74 301.47 307.87 301.47C343.79 301.47 363.74 301.47 367.73 301.47C371.86 301.47 373.93 303.7 373.93 308.18C373.93 318.8 373.93 324.7 373.93 325.88C373.93 330.35 371.86 332.59 367.73 332.59C331.81 332.59 311.86 332.59 307.87 332.59Z" id="alkvQBmsN"></path><path d="M307.87 332.59C303.74 332.59 301.67 330.35 301.67 325.88C301.67 315.26 301.67 309.36 301.67 308.18C301.67 303.7 303.74 301.47 307.87 301.47C343.79 301.47 363.74 301.47 367.73 301.47C371.86 301.47 373.93 303.7 373.93 308.18C373.93 318.8 373.93 324.7 373.93 325.88C373.93 330.35 371.86 332.59 367.73 332.59C331.81 332.59 311.86 332.59 307.87 332.59Z" id="aKhEGW4Ab"></path><path d="M235.61 332.59C231.48 332.59 229.41 330.35 229.41 325.88C229.41 315.26 229.41 309.36 229.41 308.18C229.41 303.7 231.48 301.47 235.61 301.47C271.53 301.47 291.48 301.47 295.47 301.47C299.6 301.47 301.67 303.7 301.67 308.18C301.67 318.8 301.67 324.7 301.67 325.88C301.67 330.35 299.6 332.59 295.47 332.59C259.55 332.59 239.6 332.59 235.61 332.59Z" id="abaQoQDvz"></path><path d="M163.35 332.59C159.22 332.59 157.15 330.35 157.15 325.88C157.15 315.26 157.15 309.36 157.15 308.18C157.15 303.7 159.22 301.47 163.35 301.47C199.27 301.47 219.22 301.47 223.21 301.47C227.34 301.47 229.41 303.7 229.41 308.18C229.41 318.8 229.41 324.7 229.41 325.88C229.41 330.35 227.34 332.59 223.21 332.59C187.29 332.59 167.34 332.59 163.35 332.59Z" id="jgLfaTERn"></path><path d="M163.35 332.59C159.22 332.59 157.15 330.35 157.15 325.88C157.15 315.26 157.15 309.36 157.15 308.18C157.15 303.7 159.22 301.47 163.35 301.47C199.27 301.47 219.22 301.47 223.21 301.47C227.34 301.47 229.41 303.7 229.41 308.18C229.41 318.8 229.41 324.7 229.41 325.88C229.41 330.35 227.34 332.59 223.21 332.59C187.29 332.59 167.34 332.59 163.35 332.59Z" id="b4o9o9i0Qh"></path><path d="M91.09 332.59C86.96 332.59 84.89 330.35 84.89 325.88C84.89 315.26 84.89 309.36 84.89 308.18C84.89 303.7 86.96 301.47 91.09 301.47C127 301.47 146.96 301.47 150.95 301.47C155.08 301.47 157.15 303.7 157.15 308.18C157.15 318.8 157.15 324.7 157.15 325.88C157.15 330.35 155.08 332.59 150.95 332.59C115.03 332.59 95.08 332.59 91.09 332.59Z" id="c91PQlxnA"></path><path d="M18.83 332.59C14.7 332.59 12.63 330.35 12.63 325.88C12.63 315.26 12.63 309.36 12.63 308.18C12.63 303.7 14.7 301.47 18.83 301.47C54.74 301.47 74.7 301.47 78.69 301.47C82.82 301.47 84.89 303.7 84.89 308.18C84.89 318.8 84.89 324.7 84.89 325.88C84.89 330.35 82.82 332.59 78.69 332.59C42.77 332.59 22.82 332.59 18.83 332.59Z" id="b1qOyYb84"></path><path d="M18.83 332.59C14.7 332.59 12.63 330.35 12.63 325.88C12.63 315.26 12.63 309.36 12.63 308.18C12.63 303.7 14.7 301.47 18.83 301.47C54.74 301.47 74.7 301.47 78.69 301.47C82.82 301.47 84.89 303.7 84.89 308.18C84.89 318.8 84.89 324.7 84.89 325.88C84.89 330.35 82.82 332.59 78.69 332.59C42.77 332.59 22.82 332.59 18.83 332.59Z" id="g7hK90IUP"></path><path d="M78.69 271.86C82.82 271.86 84.89 274.1 84.89 278.57C84.89 289.2 84.89 295.1 84.89 296.28C84.89 300.75 82.82 302.99 78.69 302.99C42.77 302.99 22.82 302.99 18.83 302.99C14.7 302.99 12.63 300.75 12.63 296.28C12.63 285.66 12.63 279.75 12.63 278.57C12.63 274.1 14.7 271.86 18.83 271.86C54.74 271.86 74.7 271.86 78.69 271.86Z" id="b1AjqaJloJ"></path><path d="M150.95 271.86C155.08 271.86 157.15 274.1 157.15 278.57C157.15 289.2 157.15 295.1 157.15 296.28C157.15 300.75 155.08 302.99 150.95 302.99C115.03 302.99 95.08 302.99 91.09 302.99C86.96 302.99 84.89 300.75 84.89 296.28C84.89 285.66 84.89 279.75 84.89 278.57C84.89 274.1 86.96 271.86 91.09 271.86C127 271.86 146.96 271.86 150.95 271.86Z" id="b1ABBNSqNW"></path><path d="M150.95 271.86C155.08 271.86 157.15 274.1 157.15 278.57C157.15 289.2 157.15 295.1 157.15 296.28C157.15 300.75 155.08 302.99 150.95 302.99C115.03 302.99 95.08 302.99 91.09 302.99C86.96 302.99 84.89 300.75 84.89 296.28C84.89 285.66 84.89 279.75 84.89 278.57C84.89 274.1 86.96 271.86 91.09 271.86C127 271.86 146.96 271.86 150.95 271.86Z" id="b4S4raoW7F"></path><path d="M223.21 271.86C227.34 271.86 229.41 274.1 229.41 278.57C229.41 289.2 229.41 295.1 229.41 296.28C229.41 300.75 227.34 302.99 223.21 302.99C187.29 302.99 167.34 302.99 163.35 302.99C159.22 302.99 157.15 300.75 157.15 296.28C157.15 285.66 157.15 279.75 157.15 278.57C157.15 274.1 159.22 271.86 163.35 271.86C199.27 271.86 219.22 271.86 223.21 271.86Z" id="e1BpBZ4Cdm"></path><path d="M295.47 271.86C299.6 271.86 301.67 274.1 301.67 278.57C301.67 289.2 301.67 295.1 301.67 296.28C301.67 300.75 299.6 302.99 295.47 302.99C259.55 302.99 239.6 302.99 235.61 302.99C231.48 302.99 229.41 300.75 229.41 296.28C229.41 285.66 229.41 279.75 229.41 278.57C229.41 274.1 231.48 271.86 235.61 271.86C271.53 271.86 291.48 271.86 295.47 271.86Z" id="ckDkGHfny"></path><path d="M295.47 271.86C299.6 271.86 301.67 274.1 301.67 278.57C301.67 289.2 301.67 295.1 301.67 296.28C301.67 300.75 299.6 302.99 295.47 302.99C259.55 302.99 239.6 302.99 235.61 302.99C231.48 302.99 229.41 300.75 229.41 296.28C229.41 285.66 229.41 279.75 229.41 278.57C229.41 274.1 231.48 271.86 235.61 271.86C271.53 271.86 291.48 271.86 295.47 271.86Z" id="b1rtPxrJCT"></path><path d="M367.73 271.86C371.86 271.86 373.93 274.1 373.93 278.57C373.93 289.2 373.93 295.1 373.93 296.28C373.93 300.75 371.86 302.99 367.73 302.99C331.81 302.99 311.86 302.99 307.87 302.99C303.74 302.99 301.67 300.75 301.67 296.28C301.67 285.66 301.67 279.75 301.67 278.57C301.67 274.1 303.74 271.86 307.87 271.86C343.79 271.86 363.74 271.86 367.73 271.86Z" id="d3pmaFJs82"></path><path d="M439.99 271.86C444.12 271.86 446.19 274.1 446.19 278.57C446.19 289.2 446.19 295.1 446.19 296.28C446.19 300.75 444.12 302.99 439.99 302.99C404.08 302.99 384.12 302.99 380.13 302.99C376 302.99 373.93 300.75 373.93 296.28C373.93 285.66 373.93 279.75 373.93 278.57C373.93 274.1 376 271.86 380.13 271.86C416.05 271.86 436 271.86 439.99 271.86Z" id="a2Fvr3SZC"></path><path d="M442.57 273.35C446.71 273.35 448.77 275.58 448.77 280.06C448.77 290.68 448.77 296.58 448.77 297.76C448.77 302.23 446.71 304.47 442.57 304.47C406.66 304.47 386.7 304.47 382.71 304.47C378.58 304.47 376.51 302.23 376.51 297.76C376.51 287.14 376.51 281.24 376.51 280.06C376.51 275.58 378.58 273.35 382.71 273.35C418.63 273.35 438.58 273.35 442.57 273.35Z" id="drMsCouI0"></path><path d="M380.13 271.86C376 271.86 373.93 269.63 373.93 265.15C373.93 254.53 373.93 248.63 373.93 247.45C373.93 242.98 376 240.74 380.13 240.74C416.05 240.74 436 240.74 439.99 240.74C444.12 240.74 446.19 242.98 446.19 247.45C446.19 258.07 446.19 263.97 446.19 265.15C446.19 269.63 444.12 271.86 439.99 271.86C404.08 271.86 384.12 271.86 380.13 271.86Z" id="a3Z6Pw3t0M"></path><path d="M307.87 271.86C303.74 271.86 301.67 269.63 301.67 265.15C301.67 254.53 301.67 248.63 301.67 247.45C301.67 242.98 303.74 240.74 307.87 240.74C343.79 240.74 363.74 240.74 367.73 240.74C371.86 240.74 373.93 242.98 373.93 247.45C373.93 258.07 373.93 263.97 373.93 265.15C373.93 269.63 371.86 271.86 367.73 271.86C331.81 271.86 311.86 271.86 307.87 271.86Z" id="c50pnoY66s"></path><path d="M307.87 271.86C303.74 271.86 301.67 269.63 301.67 265.15C301.67 254.53 301.67 248.63 301.67 247.45C301.67 242.98 303.74 240.74 307.87 240.74C343.79 240.74 363.74 240.74 367.73 240.74C371.86 240.74 373.93 242.98 373.93 247.45C373.93 258.07 373.93 263.97 373.93 265.15C373.93 269.63 371.86 271.86 367.73 271.86C331.81 271.86 311.86 271.86 307.87 271.86Z" id="avF1dsbLs"></path><path d="M235.61 271.86C231.48 271.86 229.41 269.63 229.41 265.15C229.41 254.53 229.41 248.63 229.41 247.45C229.41 242.98 231.48 240.74 235.61 240.74C271.53 240.74 291.48 240.74 295.47 240.74C299.6 240.74 301.67 242.98 301.67 247.45C301.67 258.07 301.67 263.97 301.67 265.15C301.67 269.63 299.6 271.86 295.47 271.86C259.55 271.86 239.6 271.86 235.61 271.86Z" id="d1R7caBUoq"></path><path d="M163.35 271.86C159.22 271.86 157.15 269.63 157.15 265.15C157.15 254.53 157.15 248.63 157.15 247.45C157.15 242.98 159.22 240.74 163.35 240.74C199.27 240.74 219.22 240.74 223.21 240.74C227.34 240.74 229.41 242.98 229.41 247.45C229.41 258.07 229.41 263.97 229.41 265.15C229.41 269.63 227.34 271.86 223.21 271.86C187.29 271.86 167.34 271.86 163.35 271.86Z" id="g1wG9W9bmb"></path><path d="M163.35 271.86C159.22 271.86 157.15 269.63 157.15 265.15C157.15 254.53 157.15 248.63 157.15 247.45C157.15 242.98 159.22 240.74 163.35 240.74C199.27 240.74 219.22 240.74 223.21 240.74C227.34 240.74 229.41 242.98 229.41 247.45C229.41 258.07 229.41 263.97 229.41 265.15C229.41 269.63 227.34 271.86 223.21 271.86C187.29 271.86 167.34 271.86 163.35 271.86Z" id="bxEpEm81v"></path><path d="M91.09 271.86C86.96 271.86 84.89 269.63 84.89 265.15C84.89 254.53 84.89 248.63 84.89 247.45C84.89 242.98 86.96 240.74 91.09 240.74C127 240.74 146.96 240.74 150.95 240.74C155.08 240.74 157.15 242.98 157.15 247.45C157.15 258.07 157.15 263.97 157.15 265.15C157.15 269.63 155.08 271.86 150.95 271.86C115.03 271.86 95.08 271.86 91.09 271.86Z" id="b4DD6bTzO"></path><path d="M18.83 271.86C14.7 271.86 12.63 269.63 12.63 265.15C12.63 254.53 12.63 248.63 12.63 247.45C12.63 242.98 14.7 240.74 18.83 240.74C54.74 240.74 74.7 240.74 78.69 240.74C82.82 240.74 84.89 242.98 84.89 247.45C84.89 258.07 84.89 263.97 84.89 265.15C84.89 269.63 82.82 271.86 78.69 271.86C42.77 271.86 22.82 271.86 18.83 271.86Z" id="c46usudOx"></path><path d="M18.83 271.86C14.7 271.86 12.63 269.63 12.63 265.15C12.63 254.53 12.63 248.63 12.63 247.45C12.63 242.98 14.7 240.74 18.83 240.74C54.74 240.74 74.7 240.74 78.69 240.74C82.82 240.74 84.89 242.98 84.89 247.45C84.89 258.07 84.89 263.97 84.89 265.15C84.89 269.63 82.82 271.86 78.69 271.86C42.77 271.86 22.82 271.86 18.83 271.86Z" id="bazNKxov"></path><path d="M78.69 209.62C82.82 209.62 84.89 211.86 84.89 216.33C84.89 226.95 84.89 232.85 84.89 234.03C84.89 238.51 82.82 240.74 78.69 240.74C42.77 240.74 22.82 240.74 18.83 240.74C14.7 240.74 12.63 238.51 12.63 234.03C12.63 223.41 12.63 217.51 12.63 216.33C12.63 211.86 14.7 209.62 18.83 209.62C54.74 209.62 74.7 209.62 78.69 209.62Z" id="g1TgBSOAgy"></path><path d="M150.95 209.62C155.08 209.62 157.15 211.86 157.15 216.33C157.15 226.95 157.15 232.85 157.15 234.03C157.15 238.51 155.08 240.74 150.95 240.74C115.03 240.74 95.08 240.74 91.09 240.74C86.96 240.74 84.89 238.51 84.89 234.03C84.89 223.41 84.89 217.51 84.89 216.33C84.89 211.86 86.96 209.62 91.09 209.62C127 209.62 146.96 209.62 150.95 209.62Z" id="b3xjE8gHc"></path><path d="M150.95 209.62C155.08 209.62 157.15 211.86 157.15 216.33C157.15 226.95 157.15 232.85 157.15 234.03C157.15 238.51 155.08 240.74 150.95 240.74C115.03 240.74 95.08 240.74 91.09 240.74C86.96 240.74 84.89 238.51 84.89 234.03C84.89 223.41 84.89 217.51 84.89 216.33C84.89 211.86 86.96 209.62 91.09 209.62C127 209.62 146.96 209.62 150.95 209.62Z" id="gLIUO1qZd"></path><path d="M223.21 209.62C227.34 209.62 229.41 211.86 229.41 216.33C229.41 226.95 229.41 232.85 229.41 234.03C229.41 238.51 227.34 240.74 223.21 240.74C187.29 240.74 167.34 240.74 163.35 240.74C159.22 240.74 157.15 238.51 157.15 234.03C157.15 223.41 157.15 217.51 157.15 216.33C157.15 211.86 159.22 209.62 163.35 209.62C199.27 209.62 219.22 209.62 223.21 209.62Z" id="a3vMwbRkQc"></path><path d="M295.47 209.62C299.6 209.62 301.67 211.86 301.67 216.33C301.67 226.95 301.67 232.85 301.67 234.03C301.67 238.51 299.6 240.74 295.47 240.74C259.55 240.74 239.6 240.74 235.61 240.74C231.48 240.74 229.41 238.51 229.41 234.03C229.41 223.41 229.41 217.51 229.41 216.33C229.41 211.86 231.48 209.62 235.61 209.62C271.53 209.62 291.48 209.62 295.47 209.62Z" id="b5G5C93w1n"></path><path d="M295.47 209.62C299.6 209.62 301.67 211.86 301.67 216.33C301.67 226.95 301.67 232.85 301.67 234.03C301.67 238.51 299.6 240.74 295.47 240.74C259.55 240.74 239.6 240.74 235.61 240.74C231.48 240.74 229.41 238.51 229.41 234.03C229.41 223.41 229.41 217.51 229.41 216.33C229.41 211.86 231.48 209.62 235.61 209.62C271.53 209.62 291.48 209.62 295.47 209.62Z" id="a8YCoQZCP"></path><path d="M367.73 209.62C371.86 209.62 373.93 211.86 373.93 216.33C373.93 226.95 373.93 232.85 373.93 234.03C373.93 238.51 371.86 240.74 367.73 240.74C331.81 240.74 311.86 240.74 307.87 240.74C303.74 240.74 301.67 238.51 301.67 234.03C301.67 223.41 301.67 217.51 301.67 216.33C301.67 211.86 303.74 209.62 307.87 209.62C343.79 209.62 363.74 209.62 367.73 209.62Z" id="a1zv7x0RH"></path><path d="M439.99 209.62C444.12 209.62 446.19 211.86 446.19 216.33C446.19 226.95 446.19 232.85 446.19 234.03C446.19 238.51 444.12 240.74 439.99 240.74C404.08 240.74 384.12 240.74 380.13 240.74C376 240.74 373.93 238.51 373.93 234.03C373.93 223.41 373.93 217.51 373.93 216.33C373.93 211.86 376 209.62 380.13 209.62C416.05 209.62 436 209.62 439.99 209.62Z" id="b2IzRJG76"></path><path d="M439.99 209.62C444.12 209.62 446.19 211.86 446.19 216.33C446.19 226.95 446.19 232.85 446.19 234.03C446.19 238.51 444.12 240.74 439.99 240.74C404.08 240.74 384.12 240.74 380.13 240.74C376 240.74 373.93 238.51 373.93 234.03C373.93 223.41 373.93 217.51 373.93 216.33C373.93 211.86 376 209.62 380.13 209.62C416.05 209.62 436 209.62 439.99 209.62Z" id="a7dTXgmny"></path><path d="M439.99 105.94C444.12 105.94 446.19 108.18 446.19 112.65C446.19 124.72 446.19 131.43 446.19 132.77C446.19 137.24 444.12 139.48 439.99 139.48C400.71 139.48 378.88 139.48 374.52 139.48C370.39 139.48 368.32 137.24 368.32 132.77C368.32 120.7 368.32 113.99 368.32 112.65C368.32 108.18 370.39 105.94 374.52 105.94C413.8 105.94 435.63 105.94 439.99 105.94Z" id="d13TxqUbC8"></path><linearGradient id="gradientb8OIBE23L" gradientUnits="userSpaceOnUse" x1="407.26" y1="139.48" x2="407.26" y2="105.94"><stop style="stop-color: #808080;stop-opacity: 0.25" offset="0%"></stop><stop style="stop-color: #808080;stop-opacity: 0.12" offset="54%"></stop><stop style="stop-color: #808080;stop-opacity: 0.1" offset="100%"></stop></linearGradient><path d="M377.33 138.27C373.19 138.27 371.12 136.03 371.12 131.56C371.12 120.94 371.12 115.04 371.12 113.86C371.12 109.39 373.19 107.15 377.33 107.15C413.24 107.15 433.19 107.15 437.18 107.15C441.32 107.15 443.39 109.39 443.39 113.86C443.39 124.48 443.39 130.38 443.39 131.56C443.39 136.03 441.32 138.27 437.18 138.27C401.27 138.27 381.32 138.27 377.33 138.27Z" id="cnNSXazbw"></path><path d="M307.87 209.62C303.74 209.62 301.67 207.39 301.67 202.91C301.67 192.29 301.67 186.39 301.67 185.21C301.67 180.74 303.74 178.5 307.87 178.5C343.79 178.5 363.74 178.5 367.73 178.5C371.86 178.5 373.93 180.74 373.93 185.21C373.93 195.83 373.93 201.73 373.93 202.91C373.93 207.39 371.86 209.62 367.73 209.62C331.81 209.62 311.86 209.62 307.87 209.62Z" id="aBMYh2RPM"></path><path d="M307.87 209.62C303.74 209.62 301.67 207.39 301.67 202.91C301.67 192.29 301.67 186.39 301.67 185.21C301.67 180.74 303.74 178.5 307.87 178.5C343.79 178.5 363.74 178.5 367.73 178.5C371.86 178.5 373.93 180.74 373.93 185.21C373.93 195.83 373.93 201.73 373.93 202.91C373.93 207.39 371.86 209.62 367.73 209.62C331.81 209.62 311.86 209.62 307.87 209.62Z" id="c1jozarQTw"></path><path d="M235.61 209.62C231.48 209.62 229.41 207.39 229.41 202.91C229.41 192.29 229.41 186.39 229.41 185.21C229.41 180.74 231.48 178.5 235.61 178.5C271.53 178.5 291.48 178.5 295.47 178.5C299.6 178.5 301.67 180.74 301.67 185.21C301.67 195.83 301.67 201.73 301.67 202.91C301.67 207.39 299.6 209.62 295.47 209.62C259.55 209.62 239.6 209.62 235.61 209.62Z" id="doLFLr9S"></path><path d="M163.35 209.62C159.22 209.62 157.15 207.39 157.15 202.91C157.15 192.29 157.15 186.39 157.15 185.21C157.15 180.74 159.22 178.5 163.35 178.5C199.27 178.5 219.22 178.5 223.21 178.5C227.34 178.5 229.41 180.74 229.41 185.21C229.41 195.83 229.41 201.73 229.41 202.91C229.41 207.39 227.34 209.62 223.21 209.62C187.29 209.62 167.34 209.62 163.35 209.62Z" id="awkIB959Y"></path><path d="M163.35 208.57C159.22 208.57 157.15 206.33 157.15 201.86C157.15 191.24 157.15 185.34 157.15 184.16C157.15 179.69 159.22 177.45 163.35 177.45C199.27 177.45 219.22 177.45 223.21 177.45C227.34 177.45 229.41 179.69 229.41 184.16C229.41 194.78 229.41 200.68 229.41 201.86C229.41 206.33 227.34 208.57 223.21 208.57C187.29 208.57 167.34 208.57 163.35 208.57Z" id="b1Vx1uBwz"></path><path d="M91.09 209.62C86.96 209.62 84.89 207.39 84.89 202.91C84.89 192.29 84.89 186.39 84.89 185.21C84.89 180.74 86.96 178.5 91.09 178.5C127 178.5 146.96 178.5 150.95 178.5C155.08 178.5 157.15 180.74 157.15 185.21C157.15 195.83 157.15 201.73 157.15 202.91C157.15 207.39 155.08 209.62 150.95 209.62C115.03 209.62 95.08 209.62 91.09 209.62Z" id="an4NZ9sVA"></path><path d="M18.83 209.62C14.7 209.62 12.63 207.39 12.63 202.91C12.63 192.29 12.63 186.39 12.63 185.21C12.63 180.74 14.7 178.5 18.83 178.5C54.74 178.5 74.7 178.5 78.69 178.5C82.82 178.5 84.89 180.74 84.89 185.21C84.89 195.83 84.89 201.73 84.89 202.91C84.89 207.39 82.82 209.62 78.69 209.62C42.77 209.62 22.82 209.62 18.83 209.62Z" id="g5qe5zltTm"></path><path d="M18.83 209.62C14.7 209.62 12.63 207.39 12.63 202.91C12.63 192.29 12.63 186.39 12.63 185.21C12.63 180.74 14.7 178.5 18.83 178.5C54.74 178.5 74.7 178.5 78.69 178.5C82.82 178.5 84.89 180.74 84.89 185.21C84.89 195.83 84.89 201.73 84.89 202.91C84.89 207.39 82.82 209.62 78.69 209.62C42.77 209.62 22.82 209.62 18.83 209.62Z" id="acqbNW118"></path><path d="M329.02 384.14C329.02 384.14 351.35 482.81 351.35 482.81C351.35 482.81 350.97 482.75 350.27 482.62C302.88 473.53 279.33 414.89 305.68 371.33C315.48 355.13 323.52 336.14 318.97 322.13C320.98 334.53 342.05 347.09 329.02 384.14Z" id="bfLGxxNjR"></path><path d="M329.02 384.14C329.02 384.14 351.35 482.81 351.35 482.81C351.35 482.81 350.97 482.75 350.27 482.62C302.88 473.53 279.33 414.89 305.68 371.33C315.48 355.13 323.52 336.14 318.97 322.13C320.98 334.53 342.05 347.09 329.02 384.14Z" id="dbRjkHwnn"></path><path d="M318.95 322.13C318.95 322.13 331.98 352.73 318.95 377.69C305.92 402.66 316.72 472.71 351.35 482.78" id="aqw69aA5t"></path><path d="M306.61 444.09C306.61 444.09 357.23 473.15 357.23 473.15C357.14 473.22 356.42 473.74 356.33 473.8C316.51 502.09 278.46 491.82 284.18 454.27C286.31 440.31 286.12 426.27 277.88 423.09C283.63 427.29 304.21 418.54 306.61 444.09Z" id="a1YUiVDjxI"></path><path d="M306.61 445.73C306.61 445.73 357.23 474.79 357.23 474.79C357.14 474.86 356.42 475.38 356.33 475.44C316.51 503.73 278.46 493.46 284.18 455.9C286.31 441.95 286.12 427.91 277.88 424.73C283.63 428.93 304.21 420.18 306.61 445.73Z" id="e9F7NmyYJ"></path><path d="M277.88 423.09C277.88 423.09 298.32 427.94 296.64 448.05C296.64 448.05 326.99 492.26 357.23 473.15" id="fswU04Nzi"></path><path d="M428.69 462.12C428.69 462.12 371.37 431.11 366.16 445.21C360.95 459.31 295.82 507.23 340.14 515.69C384.47 524.14 444.35 526.96 457.38 521.33C470.41 515.7 478.19 481.86 478.19 481.86C468.29 477.91 439.11 473.4 428.69 462.12Z" id="dRbHmis2Q"></path><path d="M457.38 516.09C467.3 511.79 474.22 491.17 476.92 481.57C477.05 481.6 478.09 481.83 478.22 481.86C478.22 481.86 470.41 515.69 457.38 521.33C457.38 521.33 384.42 524.15 340.14 515.7C327.36 513.25 323.71 507.52 325.08 500.26C326.11 504.99 330.6 508.63 340.14 510.45C384.43 518.91 444.35 521.72 457.38 516.09Z" id="b72kauxj"></path><path d="M554.02 101.55C543.53 91.21 526.58 94.35 513.56 88.02C510.55 86.57 507.48 84.55 504.22 85.1C499.68 85.86 495.45 91.48 491.48 88.99C491.5 89.05 491.6 89.36 491.76 89.92L491.48 89.76C493.24 95.53 494.21 98.73 494.4 99.37C495.53 103.06 496.7 106.85 498.88 109.93C488.24 119.96 487.14 137.43 496.41 148.93C498.8 151.9 501.75 154.28 505.06 155.91C505.2 156.23 505.33 156.56 505.47 156.88C505.5 156.9 505.8 157.03 505.84 157.05C506.7 159.2 507.35 161.44 507.76 163.75C504.39 164.25 498.5 168.3 492.72 174.25C491.56 174.21 482.31 173.88 481.16 173.83C473.68 173.56 466.44 170.9 460.36 166.18C456.9 163.49 429.2 141.96 425.73 139.27C423.27 139.54 420.94 140.65 419.1 142.45C414.81 137.6 411.16 132.58 411.47 129.54C411.47 129.54 395.38 96.96 389.53 113.25C383.68 129.53 400.5 146.64 400.5 146.64C401.57 148.14 410.1 160.11 411.17 161.6C410.75 164.23 410.48 166.88 410.37 169.54C423.54 185.83 469.62 200.57 469.62 200.57C470.1 200.6 472.49 200.73 476.8 200.95C476.83 201.18 476.84 201.31 476.84 201.33C476.4 203.37 476.18 205.46 476.2 207.56C476.2 207.86 476.2 208.17 476.2 208.49C476.2 208.81 476.2 208.91 476.2 209.11C476.56 235.1 479.85 314.62 479.85 314.62C480.49 314.31 481.16 314.03 481.83 313.76C481.78 314.47 481.37 320.12 481.32 320.83C481.32 320.83 450.6 325.48 427.92 334.8C427.92 334.8 404.52 354.97 404.52 354.97C404.52 364.56 404.52 441.23 404.52 450.81C398.04 454.41 387.82 459.16 382.57 456.6C376.88 453.86 373.76 456.16 373.19 458.57C373.19 458.57 373.19 458.57 373.19 458.57C373.08 459.05 373.08 459.54 373.19 460.02C373.19 460.02 373.19 460.02 373.19 460.02C373.24 460.23 373.31 460.44 373.4 460.63C373.4 460.64 373.4 460.67 373.4 460.68C373.51 460.88 373.64 461.06 373.79 461.23C375.99 463.56 423.53 483.72 434.5 480.62C434.84 480.52 435.18 480.4 435.5 480.26C435.61 480.21 435.7 480.15 435.8 480.1C435.91 480.04 436.21 479.89 436.4 479.77C436.59 479.65 436.62 479.61 436.72 479.53C436.83 479.46 437.05 479.3 437.2 479.17C437.36 479.04 437.41 478.97 437.51 478.87C437.6 478.77 437.79 478.61 437.92 478.46C438.05 478.3 438.1 478.23 438.19 478.11C438.28 478 438.45 477.81 438.56 477.64C438.67 477.48 438.71 477.39 438.8 477.27C438.88 477.15 439.02 476.92 439.12 476.74C439.22 476.56 439.25 476.48 439.32 476.35C439.38 476.21 439.51 475.96 439.6 475.75C439.7 475.55 439.72 475.49 439.77 475.35C439.81 475.21 439.94 474.92 440.02 474.7C440.1 474.48 440.1 474.43 440.15 474.3C440.2 474.16 440.31 473.82 440.37 473.54C440.37 473.41 440.43 473.28 440.47 473.15C440.53 472.88 440.6 472.63 440.66 472.39C440.66 472.27 440.71 472.15 440.73 472.03C440.78 471.74 440.84 471.45 440.88 471.16C440.88 471.06 440.88 470.94 440.93 470.84C440.98 470.52 441.02 470.21 441.06 469.89C441.06 469.87 441.06 469.65 441.06 469.62C441.09 469.28 441.13 468.94 441.15 468.6C441.15 468.57 441.15 468.4 441.15 468.38C441.18 468.01 441.2 467.64 441.22 467.28C441.22 467.18 441.22 467.13 441.22 467.12C441.22 466.73 441.22 466.33 441.22 465.94C441.22 465.89 441.22 465.87 441.22 465.86C441.2 461.24 440.73 456.62 439.81 452.1C439.81 452.1 439.81 452.1 439.81 452.1C441.47 403.13 442.39 375.92 442.57 370.48C456.94 370.72 471.31 370.15 485.62 368.77C485.78 372.66 487.03 403.82 487.19 407.72C487.19 407.72 487.19 433.32 495.24 444.96C502.13 454.92 510.08 498.97 512.23 511.47C509.28 517.54 503.62 525.13 493.77 524.87C493.77 524.87 475.24 523.14 476.29 528.67C476.29 528.67 476.29 528.67 476.29 528.67C476.32 528.81 476.36 528.95 476.41 529.09C476.41 529.09 476.41 529.09 476.41 529.09C476.47 529.25 476.53 529.41 476.61 529.56C476.61 529.56 476.61 529.56 476.61 529.56C476.69 529.7 476.77 529.84 476.87 530C476.88 530 476.92 530.08 476.93 530.09C477.03 530.25 477.15 530.41 477.28 530.59C477.28 530.59 477.28 530.62 477.28 530.63C477.41 530.79 477.54 530.94 477.69 531.1C477.7 531.12 477.81 531.23 477.82 531.24C477.99 531.42 478.15 531.6 478.35 531.79C487.86 541.11 543.45 542.66 543.45 542.66C543.45 542.64 543.45 542.47 543.45 542.44C543.45 542.38 543.45 542.31 543.45 542.22C543.45 542.22 543.45 542.22 543.45 542.22C543.45 539.53 543.08 525.4 539.76 514.75C539.84 514.75 540.45 514.75 540.53 514.75C540.53 514.75 532.48 436.39 525.9 427.08C525.9 427.08 524.16 385.76 528.1 359.87C528.17 359.84 528.73 359.61 528.8 359.58C547.24 352.13 548.55 333.77 546.65 320.29C550.16 321.51 552.2 322.33 552.2 322.33C552.2 322.33 552.14 321.75 552.02 320.71C552.04 320.72 552.19 320.78 552.2 320.79C552.2 320.79 551.85 318.32 551.27 314.48C549.95 303.9 547.4 285.43 544.68 276.71C544.23 274.79 543.81 273.15 543.43 271.91C541.86 266.67 540.78 261.27 540.21 255.8C539.46 248.7 539.08 241.56 539.08 234.42C539.14 224.88 539.81 215.35 541.1 205.91C542.21 197.67 543.2 188.29 543.13 181.73C543.21 179.45 543.06 177.16 542.69 174.9C541.72 170.07 537.4 166.93 532.92 164.92C532.63 164.79 532.34 164.69 532.04 164.57C532.15 162.74 532.29 160.66 532.48 158.49C533.56 159.31 534.91 159.6 536.2 159.31C538.13 158.86 539.51 157.12 540.74 155.52C547.22 146.9 553.88 137.92 556.37 127.22C557.38 122.44 557.85 117.55 557.77 112.65C557.77 112.24 557.77 111.92 557.77 111.84C557.89 110.01 557.72 108.17 557.26 106.4C556.56 104.52 555.45 102.86 554.02 101.55Z" id="a3GzuMwhXX"></path><linearGradient id="gradientf1x8jQzRSK" gradientUnits="userSpaceOnUse" x1="465.48" y1="542.73" x2="465.48" y2="85.02"><stop style="stop-color: #808080;stop-opacity: 0.25" offset="0%"></stop><stop style="stop-color: #808080;stop-opacity: 0.12" offset="54%"></stop><stop style="stop-color: #808080;stop-opacity: 0.1" offset="100%"></stop></linearGradient><path d="M505.95 171.93C505.95 171.93 529.1 174.96 529.1 174.96C529.1 174.96 529.8 145.36 534.71 138.53C539.63 131.7 498.23 148.4 498.23 148.4C499.78 153.1 508.06 164.34 505.95 171.93Z" id="b1nU2G8FVu"></path><path d="M433.34 158.64C433.34 158.64 412.99 140.43 413.7 133.6C413.7 133.6 398.26 101.72 392.65 117.66C387.04 133.6 403.17 150.3 403.17 150.3C404.48 152.17 411.03 161.53 422.82 178.38C428.43 167.85 431.94 161.28 433.34 158.64Z" id="eSvfrmDsk"></path><path d="M412.64 444.43C412.64 444.43 393.7 457.33 385.98 453.54C385.98 453.54 375.46 455.81 377.57 458.09C377.57 458.09 425.27 480.1 435.79 477.07C435.79 477.07 440.96 449.16 440.96 449.16C435.3 448.22 418.31 445.38 412.64 444.43Z" id="cxGVrst1U"></path><path d="M492.62 520.33C492.62 520.33 468.77 518.06 477.89 527.16C487.01 536.27 540.33 537.79 540.33 537.79C540.33 537.79 540.33 506.67 530.5 499.84C520.68 493.01 512.97 499.84 512.97 499.84C508.9 503.94 508.41 520.71 492.62 520.33Z" id="aCbeDxyC"></path><path d="M484.2 352.58C485.46 384.46 486.17 402.17 486.31 405.72C486.31 405.72 486.31 430.76 494.02 442.15C494.02 442.15 510.86 510.47 510.86 510.47C513.53 510.47 534.85 510.47 537.52 510.47C537.52 510.47 529.8 433.8 523.49 424.69C523.49 424.69 520.68 357.14 530.5 341.96C524.33 343.37 508.9 346.91 484.2 352.58Z" id="a14HEv1fD2"></path><path d="M484.2 352.58C485.46 384.46 486.17 402.17 486.31 405.72C486.31 405.72 486.31 430.76 494.02 442.15C494.02 442.15 510.86 510.47 510.86 510.47C513.53 510.47 534.85 510.47 537.52 510.47C537.52 510.47 529.8 433.8 523.49 424.69C523.49 424.69 520.68 357.14 530.5 341.96C524.33 343.37 508.9 346.91 484.2 352.58Z" id="kVLjlYAHN"></path><path d="M539.85 304.7C539.85 304.7 555.99 346.45 526.52 358.59C526.52 358.59 443.74 369.22 443.74 369.22C443.46 378.03 441.21 448.47 440.93 457.27C440.93 457.27 407.96 461.83 407.26 450.44C407.26 440.8 407.26 363.68 407.26 354.04C407.26 354.04 407.96 343.41 429.7 334.3C429.7 334.3 480.92 320.64 480.92 320.64C481.01 319.33 481.48 312.75 482.32 300.91C513 302.93 532.18 304.2 539.85 304.7Z" id="aGLqAXpI"></path><path d="M530.26 169.75C534.56 171.71 538.68 174.78 539.63 179.51C540.74 185.11 539.51 197.68 538.1 208.31C535.84 224.97 535.56 241.88 537.25 258.63C537.95 265.6 538.97 271.68 540.33 274.39C544.54 282.74 548.75 322.21 548.75 322.21C548.75 322.21 502.45 303.24 479.3 314.62C479.3 314.62 476.14 236.82 475.79 211.39C475.52 191.7 498.59 169.26 506.31 168.5C510.83 168.06 509.28 167.74 513.77 167.23C519.38 166.56 525.05 167.42 530.26 169.75Z" id="a39zsxxI09"></path><path d="M530.26 169.75C534.56 171.71 538.68 174.78 539.63 179.51C540.74 185.11 539.51 197.68 538.1 208.31C535.84 224.97 535.56 241.88 537.25 258.63C537.79 263.98 538.83 269.26 540.33 274.39C543.49 284.64 548.75 322.21 548.75 322.21C548.75 322.21 502.45 303.24 479.3 314.62C479.3 314.62 476.14 236.82 475.79 211.39C475.52 191.7 498.59 169.26 506.31 168.5C510.83 168.06 509.28 167.74 513.77 167.23C519.38 166.56 525.05 167.42 530.26 169.75Z" id="b5iXmVOeYs"></path><path d="M476.48 204.57C476.48 204.57 473.31 178.14 480.5 178.42C485.43 178.6 524.87 180.09 529.8 180.28C529.8 180.28 540.33 193.94 526.3 207.6C516.33 207 481.47 204.87 476.48 204.57Z" id="c8LKhkX09"></path><path d="M469.47 203.43C469.47 203.43 425.27 189.01 412.64 173.07C412.64 173.07 413.34 144.98 427.38 143.46C430.69 146.1 457.25 167.16 460.57 169.8C466.37 174.4 473.32 177.01 480.5 177.28C485.43 177.47 524.87 178.95 529.8 179.14C529.8 179.14 540.33 192.8 526.3 206.46C514.93 205.86 475.15 203.73 469.47 203.43Z" id="aA1pIWwHp"></path><path d="M534.71 139.29C539.63 132.46 498.23 149.16 498.23 149.16C500.37 152.71 502.25 156.45 503.85 160.32C507.15 161.97 510.74 162.82 514.37 162.82C520.44 162.82 524.39 155.71 528.75 151.81C529.59 144.62 532.6 142.23 534.71 139.29Z" id="a80K87U"></path><path d="M514.37 107.41C500.42 107.41 489.11 119.64 489.11 134.73C489.11 149.83 500.42 162.06 514.37 162.06C528.32 162.06 539.63 149.83 539.63 134.73C539.63 119.64 528.32 107.41 514.37 107.41Z" id="b3aThLQrEh"></path><path d="M493.22 104.06C492.94 103.12 490.69 95.6 490.41 94.66C494.21 97.09 498.27 91.62 502.63 90.86C505.75 90.32 508.71 92.3 511.58 93.72C524.07 99.89 540.35 96.83 550.39 106.95C551.77 108.23 552.83 109.86 553.49 111.69C553.96 113.41 554.15 115.21 554.06 117C554.14 121.79 553.7 126.58 552.74 131.26C550.36 141.73 543.97 150.52 537.75 158.94C536.57 160.54 535.25 162.24 533.4 162.69C529.78 163.56 526.99 159.34 525.59 155.64C523.74 150.73 522.38 145.62 521.52 140.4C521.16 138.2 520.87 135.92 519.86 133.97C517.68 129.8 512.32 125.85 509.07 122.62C505.81 119.39 501.41 119.11 498.42 115.58C495.74 112.4 494.44 108.17 493.22 104.06Z" id="caEKJrnc5"></path><path d="M494.11 104.06C493.83 103.12 491.59 95.6 491.3 94.66C495.11 97.09 499.16 91.62 503.53 90.86C506.65 90.32 509.6 92.3 512.48 93.72C524.97 99.89 541.24 96.83 551.29 106.95C552.66 108.23 553.73 109.86 554.39 111.69C554.85 113.41 555.04 115.21 554.95 117C555.03 121.79 554.59 126.58 553.64 131.26C551.25 141.73 544.87 150.52 538.65 158.94C537.47 160.54 536.14 162.24 534.29 162.69C530.68 163.56 527.88 159.34 526.49 155.64C524.64 150.73 523.27 145.62 522.42 140.4C522.05 138.2 521.77 135.92 520.75 133.97C518.57 129.8 513.21 125.85 509.96 122.62C506.7 119.39 502.3 119.11 499.32 115.58C496.63 112.4 495.33 108.17 494.11 104.06Z" id="c16DFY7au2"></path><path d="M523.14 137.77C523.14 140.5 522.2 142.7 521.03 142.7C519.87 142.7 518.93 140.5 518.93 137.77C518.93 135.05 519.87 132.84 521.03 132.84C522.2 132.84 523.14 135.05 523.14 137.77Z" id="e7hxFo5OsJ"></path><path d="M533.66 269.47C533.66 269.47 532.26 274.02 525.24 273.26C525.24 273.26 497.88 270.98 497.88 273.26" id="a1tK9GK3sa"></path><path d="M475.85 523.24C475.66 524.23 476.23 525.52 477.89 527.16C487.01 536.27 540.33 537.79 540.33 537.79C540.33 537.79 540.33 537.53 540.33 537.03C539.98 537.02 486.98 535.48 477.89 526.41C476.63 525.15 475.99 524.13 475.85 523.24Z" id="e9lbMKTaD"></path><path d="M377.57 456.57C377.28 456.26 377.08 455.88 376.98 455.46C376.74 456.39 376.96 457.39 377.57 458.09C379.67 460.37 425.27 480.1 435.79 477.07C441.21 475.5 442.42 468.16 442.32 461.4C442.21 467.7 440.8 474.09 435.79 475.55C425.27 478.59 379.67 458.85 377.57 456.57Z" id="bSUcVBSvO"></path><path d="M253.45 466.24C253.45 465.61 252.98 465.1 252.4 465.1C251.82 465.1 251.35 465.61 251.35 466.24C251.35 466.87 251.82 467.38 252.4 467.38C252.98 467.38 253.45 466.87 253.45 466.24Z" id="bHA7XuWVP"></path><path d="M563.94 520.07C559.81 520.07 557.74 517.84 557.74 513.36C557.74 502.74 557.74 496.84 557.74 495.66C557.74 491.19 559.81 488.95 563.94 488.95C599.86 488.95 619.81 488.95 623.8 488.95C627.93 488.95 630 491.19 630 495.66C630 506.28 630 512.18 630 513.36C630 517.84 627.93 520.07 623.8 520.07C587.88 520.07 567.93 520.07 563.94 520.07Z" id="b1gqd854dQ"></path><path d="M563.94 520.07C559.81 520.07 557.74 517.84 557.74 513.36C557.74 502.74 557.74 496.84 557.74 495.66C557.74 491.19 559.81 488.95 563.94 488.95C599.86 488.95 619.81 488.95 623.8 488.95C627.93 488.95 630 491.19 630 495.66C630 506.28 630 512.18 630 513.36C630 517.84 627.93 520.07 623.8 520.07C587.88 520.07 567.93 520.07 563.94 520.07Z" id="dihRx0XCt"></path><path d="M623.8 459.35C627.93 459.35 630 461.59 630 466.06C630 476.68 630 482.58 630 483.76C630 488.24 627.93 490.47 623.8 490.47C587.88 490.47 567.93 490.47 563.94 490.47C559.81 490.47 557.74 488.24 557.74 483.76C557.74 473.14 557.74 467.24 557.74 466.06C557.74 461.59 559.81 459.35 563.94 459.35C599.86 459.35 619.81 459.35 623.8 459.35Z" id="g28glLlZDO"></path><path d="M563.94 459.35C559.81 459.35 557.74 457.11 557.74 452.64C557.74 442.02 557.74 436.12 557.74 434.94C557.74 430.47 559.81 428.23 563.94 428.23C599.86 428.23 619.81 428.23 623.8 428.23C627.93 428.23 630 430.47 630 434.94C630 445.56 630 451.46 630 452.64C630 457.11 627.93 459.35 623.8 459.35C587.88 459.35 567.93 459.35 563.94 459.35Z" id="b3oVaZxYL"></path><path d="M563.94 459.31C559.81 459.31 557.74 457.08 557.74 452.6C557.74 441.98 557.74 436.08 557.74 434.9C557.74 430.43 559.81 428.19 563.94 428.19C599.86 428.19 619.81 428.19 623.8 428.19C627.93 428.19 630 430.43 630 434.9C630 445.52 630 451.42 630 452.6C630 457.08 627.93 459.31 623.8 459.31C587.88 459.31 567.93 459.31 563.94 459.31Z" id="a35kTBfzgS"></path><path d="M623.8 396.73C627.93 396.73 630 398.97 630 403.44C630 414.06 630 419.96 630 421.14C630 425.61 627.93 427.85 623.8 427.85C587.88 427.85 567.93 427.85 563.94 427.85C559.81 427.85 557.74 425.61 557.74 421.14C557.74 410.52 557.74 404.62 557.74 403.44C557.74 398.97 559.81 396.73 563.94 396.73C599.86 396.73 619.81 396.73 623.8 396.73Z" id="b9bIHqgRI"></path></defs><g><g><g><use xlink:href="#exWWYhk50" opacity="1" fill="#f7e700" fill-opacity="1"></use><g><use xlink:href="#exWWYhk50" opacity="1" fill-opacity="0" stroke="#000000" stroke-width="1" stroke-opacity="0"></use></g></g><g><use xlink:href="#d3ZF0gqZVK" opacity="1" fill="#f7e700" fill-opacity="1"></use><g><use xlink:href="#d3ZF0gqZVK" opacity="1" fill-opacity="0" stroke="#000000" stroke-width="1" stroke-opacity="0"></use></g></g><g><use xlink:href="#bsU5TI04K" opacity="1" fill="#a8a8a8" fill-opacity="1"></use><g><use xlink:href="#bsU5TI04K" opacity="1" fill-opacity="0" stroke="#000000" stroke-width="1" stroke-opacity="0"></use></g></g><g><use xlink:href="#a2l0Tefph" opacity="1" fill="#f7e700" fill-opacity="1"></use><g><use xlink:href="#a2l0Tefph" opacity="1" fill-opacity="0" stroke="#000000" stroke-width="1" stroke-opacity="0"></use></g></g><g><use xlink:href="#aswkIYnCN" opacity="1" fill="#f7e700" fill-opacity="1"></use><g><use xlink:href="#aswkIYnCN" opacity="1" fill-opacity="0" stroke="#000000" stroke-width="1" stroke-opacity="0"></use></g></g><g><use xlink:href="#b1hlqYjYXR" opacity="1" fill="#a8a8a8" fill-opacity="1"></use><g><use xlink:href="#b1hlqYjYXR" opacity="1" fill-opacity="0" stroke="#000000" stroke-width="1" stroke-opacity="0"></use></g></g><g><use xlink:href="#bxRJzXy2I" opacity="1" fill="#f7e700" fill-opacity="1"></use><g><use xlink:href="#bxRJzXy2I" opacity="1" fill-opacity="0" stroke="#000000" stroke-width="1" stroke-opacity="0"></use></g></g><g><use xlink:href="#amB2ulJHK" opacity="1" fill="#f7e700" fill-opacity="1"></use><g><use xlink:href="#amB2ulJHK" opacity="1" fill-opacity="0" stroke="#000000" stroke-width="1" stroke-opacity="0"></use></g></g><g><use xlink:href="#aVOd2h54e" opacity="1" fill="#a8a8a8" fill-opacity="1"></use><g><use xlink:href="#aVOd2h54e" opacity="1" fill-opacity="0" stroke="#000000" stroke-width="1" stroke-opacity="0"></use></g></g><g><use xlink:href="#bqh6HnXCc" opacity="1" fill="#f7e700" fill-opacity="1"></use><g><use xlink:href="#bqh6HnXCc" opacity="1" fill-opacity="0" stroke="#000000" stroke-width="1" stroke-opacity="0"></use></g></g><g><use xlink:href="#a353OH2rZ" opacity="1" fill="#f7e700" fill-opacity="1"></use><g><use xlink:href="#a353OH2rZ" opacity="1" fill-opacity="0" stroke="#000000" stroke-width="1" stroke-opacity="0"></use></g></g><g><use xlink:href="#dx60lNUhU" opacity="1" fill="#a8a8a8" fill-opacity="1"></use><g><use xlink:href="#dx60lNUhU" opacity="1" fill-opacity="0" stroke="#000000" stroke-width="1" stroke-opacity="0"></use></g></g><g><use xlink:href="#b54abFAbP" opacity="1" fill="#f7e700" fill-opacity="1"></use><g><use xlink:href="#b54abFAbP" opacity="1" fill-opacity="0" stroke="#000000" stroke-width="1" stroke-opacity="0"></use></g></g><g><use xlink:href="#bexIxytDN" opacity="1" fill="#f7e700" fill-opacity="1"></use><g><use xlink:href="#bexIxytDN" opacity="1" fill-opacity="0" stroke="#000000" stroke-width="1" stroke-opacity="0"></use></g></g><g><use xlink:href="#epKyY8de" opacity="1" fill="#a8a8a8" fill-opacity="1"></use><g><use xlink:href="#epKyY8de" opacity="1" fill-opacity="0" stroke="#000000" stroke-width="1" stroke-opacity="0"></use></g></g><g><use xlink:href="#c1LOt4DiR" opacity="1" fill="#f7e700" fill-opacity="1"></use><g><use xlink:href="#c1LOt4DiR" opacity="1" fill-opacity="0" stroke="#000000" stroke-width="1" stroke-opacity="0"></use></g></g><g><use xlink:href="#cyawxpepf" opacity="1" fill="#f7e700" fill-opacity="1"></use><g><use xlink:href="#cyawxpepf" opacity="1" fill-opacity="0" stroke="#000000" stroke-width="1" stroke-opacity="0"></use></g></g><g><use xlink:href="#d1BzbQaSef" opacity="1" fill="#a8a8a8" fill-opacity="1"></use><g><use xlink:href="#d1BzbQaSef" opacity="1" fill-opacity="0" stroke="#000000" stroke-width="1" stroke-opacity="0"></use></g></g><g><use xlink:href="#ae8cQrCIa" opacity="1" fill="#f7e700" fill-opacity="1"></use><g><use xlink:href="#ae8cQrCIa" opacity="1" fill-opacity="0" stroke="#000000" stroke-width="1" stroke-opacity="0"></use></g></g><g><use xlink:href="#aCcaYs77" opacity="1" fill="#f7e700" fill-opacity="1"></use><g><use xlink:href="#aCcaYs77" opacity="1" fill-opacity="0" stroke="#000000" stroke-width="1" stroke-opacity="0"></use></g></g><g><use xlink:href="#i3n2MTE8d" opacity="1" fill="#a8a8a8" fill-opacity="1"></use><g><use xlink:href="#i3n2MTE8d" opacity="1" fill-opacity="0" stroke="#000000" stroke-width="1" stroke-opacity="0"></use></g></g><g><use xlink:href="#a59x7RjbM" opacity="1" fill="#f7e700" fill-opacity="1"></use><g><use xlink:href="#a59x7RjbM" opacity="1" fill-opacity="0" stroke="#000000" stroke-width="1" stroke-opacity="0"></use></g></g><g><use xlink:href="#k2guJBkpN3" opacity="1" fill="#f7e700" fill-opacity="1"></use><g><use xlink:href="#k2guJBkpN3" opacity="1" fill-opacity="0" stroke="#000000" stroke-width="1" stroke-opacity="0"></use></g></g><g><use xlink:href="#a1IWKYWAnQ" opacity="1" fill="#a8a8a8" fill-opacity="1"></use><g><use xlink:href="#a1IWKYWAnQ" opacity="1" fill-opacity="0" stroke="#000000" stroke-width="1" stroke-opacity="0"></use></g></g><g><use xlink:href="#aI76pWnsk" opacity="1" fill="#f7e700" fill-opacity="1"></use><g><use xlink:href="#aI76pWnsk" opacity="1" fill-opacity="0" stroke="#000000" stroke-width="1" stroke-opacity="0"></use></g></g><g><use xlink:href="#d3hryd89dL" opacity="1" fill="#f7e700" fill-opacity="1"></use><g><use xlink:href="#d3hryd89dL" opacity="1" fill-opacity="0" stroke="#000000" stroke-width="1" stroke-opacity="0"></use></g></g><g><use xlink:href="#d1KLl4LEiX" opacity="1" fill="#a8a8a8" fill-opacity="1"></use><g><use xlink:href="#d1KLl4LEiX" opacity="1" fill-opacity="0" stroke="#000000" stroke-width="1" stroke-opacity="0"></use></g></g><g><use xlink:href="#d4ot23EVui" opacity="1" fill="#f7e700" fill-opacity="1"></use><g><use xlink:href="#d4ot23EVui" opacity="1" fill-opacity="0" stroke="#000000" stroke-width="1" stroke-opacity="0"></use></g></g><g><use xlink:href="#alkvQBmsN" opacity="1" fill="#f7e700" fill-opacity="1"></use><g><use xlink:href="#alkvQBmsN" opacity="1" fill-opacity="0" stroke="#000000" stroke-width="1" stroke-opacity="0"></use></g></g><g><use xlink:href="#aKhEGW4Ab" opacity="1" fill="#a8a8a8" fill-opacity="1"></use><g><use xlink:href="#aKhEGW4Ab" opacity="1" fill-opacity="0" stroke="#000000" stroke-width="1" stroke-opacity="0"></use></g></g><g><use xlink:href="#abaQoQDvz" opacity="1" fill="#f7e700" fill-opacity="1"></use><g><use xlink:href="#abaQoQDvz" opacity="1" fill-opacity="0" stroke="#000000" stroke-width="1" stroke-opacity="0"></use></g></g><g><use xlink:href="#jgLfaTERn" opacity="1" fill="#f7e700" fill-opacity="1"></use><g><use xlink:href="#jgLfaTERn" opacity="1" fill-opacity="0" stroke="#000000" stroke-width="1" stroke-opacity="0"></use></g></g><g><use xlink:href="#b4o9o9i0Qh" opacity="1" fill="#a8a8a8" fill-opacity="1"></use><g><use xlink:href="#b4o9o9i0Qh" opacity="1" fill-opacity="0" stroke="#000000" stroke-width="1" stroke-opacity="0"></use></g></g><g><use xlink:href="#c91PQlxnA" opacity="1" fill="#f7e700" fill-opacity="1"></use><g><use xlink:href="#c91PQlxnA" opacity="1" fill-opacity="0" stroke="#000000" stroke-width="1" stroke-opacity="0"></use></g></g><g><use xlink:href="#b1qOyYb84" opacity="1" fill="#f7e700" fill-opacity="1"></use><g><use xlink:href="#b1qOyYb84" opacity="1" fill-opacity="0" stroke="#000000" stroke-width="1" stroke-opacity="0"></use></g></g><g><use xlink:href="#g7hK90IUP" opacity="1" fill="#a8a8a8" fill-opacity="1"></use><g><use xlink:href="#g7hK90IUP" opacity="1" fill-opacity="0" stroke="#000000" stroke-width="1" stroke-opacity="0"></use></g></g><g><use xlink:href="#b1AjqaJloJ" opacity="1" fill="#f7e700" fill-opacity="1"></use><g><use xlink:href="#b1AjqaJloJ" opacity="1" fill-opacity="0" stroke="#000000" stroke-width="1" stroke-opacity="0"></use></g></g><g><use xlink:href="#b1ABBNSqNW" opacity="1" fill="#f7e700" fill-opacity="1"></use><g><use xlink:href="#b1ABBNSqNW" opacity="1" fill-opacity="0" stroke="#000000" stroke-width="1" stroke-opacity="0"></use></g></g><g><use xlink:href="#b4S4raoW7F" opacity="1" fill="#a8a8a8" fill-opacity="1"></use><g><use xlink:href="#b4S4raoW7F" opacity="1" fill-opacity="0" stroke="#000000" stroke-width="1" stroke-opacity="0"></use></g></g><g><use xlink:href="#e1BpBZ4Cdm" opacity="1" fill="#f7e700" fill-opacity="1"></use><g><use xlink:href="#e1BpBZ4Cdm" opacity="1" fill-opacity="0" stroke="#000000" stroke-width="1" stroke-opacity="0"></use></g></g><g><use xlink:href="#ckDkGHfny" opacity="1" fill="#f7e700" fill-opacity="1"></use><g><use xlink:href="#ckDkGHfny" opacity="1" fill-opacity="0" stroke="#000000" stroke-width="1" stroke-opacity="0"></use></g></g><g><use xlink:href="#b1rtPxrJCT" opacity="1" fill="#a8a8a8" fill-opacity="1"></use><g><use xlink:href="#b1rtPxrJCT" opacity="1" fill-opacity="0" stroke="#000000" stroke-width="1" stroke-opacity="0"></use></g></g><g><use xlink:href="#d3pmaFJs82" opacity="1" fill="#f7e700" fill-opacity="1"></use><g><use xlink:href="#d3pmaFJs82" opacity="1" fill-opacity="0" stroke="#000000" stroke-width="1" stroke-opacity="0"></use></g></g><g><use xlink:href="#a2Fvr3SZC" opacity="1" fill="#f7e700" fill-opacity="1"></use><g><use xlink:href="#a2Fvr3SZC" opacity="1" fill-opacity="0" stroke="#000000" stroke-width="1" stroke-opacity="0"></use></g></g><g><use xlink:href="#drMsCouI0" opacity="1" fill="#a8a8a8" fill-opacity="1"></use><g><use xlink:href="#drMsCouI0" opacity="1" fill-opacity="0" stroke="#000000" stroke-width="1" stroke-opacity="0"></use></g></g><g><use xlink:href="#a3Z6Pw3t0M" opacity="1" fill="#f7e700" fill-opacity="1"></use><g><use xlink:href="#a3Z6Pw3t0M" opacity="1" fill-opacity="0" stroke="#000000" stroke-width="1" stroke-opacity="0"></use></g></g><g><use xlink:href="#c50pnoY66s" opacity="1" fill="#f7e700" fill-opacity="1"></use><g><use xlink:href="#c50pnoY66s" opacity="1" fill-opacity="0" stroke="#000000" stroke-width="1" stroke-opacity="0"></use></g></g><g><use xlink:href="#avF1dsbLs" opacity="1" fill="#a8a8a8" fill-opacity="1"></use><g><use xlink:href="#avF1dsbLs" opacity="1" fill-opacity="0" stroke="#000000" stroke-width="1" stroke-opacity="0"></use></g></g><g><use xlink:href="#d1R7caBUoq" opacity="1" fill="#f7e700" fill-opacity="1"></use><g><use xlink:href="#d1R7caBUoq" opacity="1" fill-opacity="0" stroke="#000000" stroke-width="1" stroke-opacity="0"></use></g></g><g><use xlink:href="#g1wG9W9bmb" opacity="1" fill="#f7e700" fill-opacity="1"></use><g><use xlink:href="#g1wG9W9bmb" opacity="1" fill-opacity="0" stroke="#000000" stroke-width="1" stroke-opacity="0"></use></g></g><g><use xlink:href="#bxEpEm81v" opacity="1" fill="#a8a8a8" fill-opacity="1"></use><g><use xlink:href="#bxEpEm81v" opacity="1" fill-opacity="0" stroke="#000000" stroke-width="1" stroke-opacity="0"></use></g></g><g><use xlink:href="#b4DD6bTzO" opacity="1" fill="#f7e700" fill-opacity="1"></use><g><use xlink:href="#b4DD6bTzO" opacity="1" fill-opacity="0" stroke="#000000" stroke-width="1" stroke-opacity="0"></use></g></g><g><use xlink:href="#c46usudOx" opacity="1" fill="#f7e700" fill-opacity="1"></use><g><use xlink:href="#c46usudOx" opacity="1" fill-opacity="0" stroke="#000000" stroke-width="1" stroke-opacity="0"></use></g></g><g><use xlink:href="#bazNKxov" opacity="1" fill="#a8a8a8" fill-opacity="1"></use><g><use xlink:href="#bazNKxov" opacity="1" fill-opacity="0" stroke="#000000" stroke-width="1" stroke-opacity="0"></use></g></g><g><use xlink:href="#g1TgBSOAgy" opacity="1" fill="#f7e700" fill-opacity="1"></use><g><use xlink:href="#g1TgBSOAgy" opacity="1" fill-opacity="0" stroke="#000000" stroke-width="1" stroke-opacity="0"></use></g></g><g><use xlink:href="#b3xjE8gHc" opacity="1" fill="#f7e700" fill-opacity="1"></use><g><use xlink:href="#b3xjE8gHc" opacity="1" fill-opacity="0" stroke="#000000" stroke-width="1" stroke-opacity="0"></use></g></g><g><use xlink:href="#gLIUO1qZd" opacity="1" fill="#a8a8a8" fill-opacity="1"></use><g><use xlink:href="#gLIUO1qZd" opacity="1" fill-opacity="0" stroke="#000000" stroke-width="1" stroke-opacity="0"></use></g></g><g><use xlink:href="#a3vMwbRkQc" opacity="1" fill="#f7e700" fill-opacity="1"></use><g><use xlink:href="#a3vMwbRkQc" opacity="1" fill-opacity="0" stroke="#000000" stroke-width="1" stroke-opacity="0"></use></g></g><g><use xlink:href="#b5G5C93w1n" opacity="1" fill="#f7e700" fill-opacity="1"></use><g><use xlink:href="#b5G5C93w1n" opacity="1" fill-opacity="0" stroke="#000000" stroke-width="1" stroke-opacity="0"></use></g></g><g><use xlink:href="#a8YCoQZCP" opacity="1" fill="#a8a8a8" fill-opacity="1"></use><g><use xlink:href="#a8YCoQZCP" opacity="1" fill-opacity="0" stroke="#000000" stroke-width="1" stroke-opacity="0"></use></g></g><g><use xlink:href="#a1zv7x0RH" opacity="1" fill="#f7e700" fill-opacity="1"></use><g><use xlink:href="#a1zv7x0RH" opacity="1" fill-opacity="0" stroke="#000000" stroke-width="1" stroke-opacity="0"></use></g></g><g><use xlink:href="#b2IzRJG76" opacity="1" fill="#f7e700" fill-opacity="1"></use><g><use xlink:href="#b2IzRJG76" opacity="1" fill-opacity="0" stroke="#000000" stroke-width="1" stroke-opacity="0"></use></g></g><g><use xlink:href="#a7dTXgmny" opacity="1" fill="#a8a8a8" fill-opacity="1"></use><g><use xlink:href="#a7dTXgmny" opacity="1" fill-opacity="0" stroke="#000000" stroke-width="1" stroke-opacity="0"></use></g></g><g><use xlink:href="#d13TxqUbC8" opacity="1" fill="url(#gradientb8OIBE23L)"></use><g><use xlink:href="#d13TxqUbC8" opacity="1" fill-opacity="0" stroke="#000000" stroke-width="1" stroke-opacity="0"></use></g></g><g><use xlink:href="#cnNSXazbw" opacity="1" fill="#f7e700" fill-opacity="1"></use><g><use xlink:href="#cnNSXazbw" opacity="1" fill-opacity="0" stroke="#000000" stroke-width="1" stroke-opacity="0"></use></g></g><g><use xlink:href="#aBMYh2RPM" opacity="1" fill="#f7e700" fill-opacity="1"></use><g><use xlink:href="#aBMYh2RPM" opacity="1" fill-opacity="0" stroke="#000000" stroke-width="1" stroke-opacity="0"></use></g></g><g><use xlink:href="#c1jozarQTw" opacity="1" fill="#a8a8a8" fill-opacity="1"></use><g><use xlink:href="#c1jozarQTw" opacity="1" fill-opacity="0" stroke="#000000" stroke-width="1" stroke-opacity="0"></use></g></g><g><use xlink:href="#doLFLr9S" opacity="1" fill="#f7e700" fill-opacity="1"></use><g><use xlink:href="#doLFLr9S" opacity="1" fill-opacity="0" stroke="#000000" stroke-width="1" stroke-opacity="0"></use></g></g><g><use xlink:href="#awkIB959Y" opacity="1" fill="#f7e700" fill-opacity="1"></use><g><use xlink:href="#awkIB959Y" opacity="1" fill-opacity="0" stroke="#000000" stroke-width="1" stroke-opacity="0"></use></g></g><g><use xlink:href="#b1Vx1uBwz" opacity="1" fill="#a8a8a8" fill-opacity="1"></use><g><use xlink:href="#b1Vx1uBwz" opacity="1" fill-opacity="0" stroke="#000000" stroke-width="1" stroke-opacity="0"></use></g></g><g><use xlink:href="#an4NZ9sVA" opacity="1" fill="#f7e700" fill-opacity="1"></use><g><use xlink:href="#an4NZ9sVA" opacity="1" fill-opacity="0" stroke="#000000" stroke-width="1" stroke-opacity="0"></use></g></g><g><use xlink:href="#g5qe5zltTm" opacity="1" fill="#f7e700" fill-opacity="1"></use><g><use xlink:href="#g5qe5zltTm" opacity="1" fill-opacity="0" stroke="#000000" stroke-width="1" stroke-opacity="0"></use></g></g><g><use xlink:href="#acqbNW118" opacity="1" fill="#a8a8a8" fill-opacity="1"></use><g><use xlink:href="#acqbNW118" opacity="1" fill-opacity="0" stroke="#000000" stroke-width="1" stroke-opacity="0"></use></g></g><g><use xlink:href="#bfLGxxNjR" opacity="1" fill="#f7e700" fill-opacity="1"></use><g><use xlink:href="#bfLGxxNjR" opacity="1" fill-opacity="0" stroke="#000000" stroke-width="1" stroke-opacity="0"></use></g></g><g><use xlink:href="#dbRjkHwnn" opacity="1" fill="#e7e7e7" fill-opacity="1"></use><g><use xlink:href="#dbRjkHwnn" opacity="1" fill-opacity="0" stroke="#000000" stroke-width="1" stroke-opacity="0"></use></g></g><g><use xlink:href="#aqw69aA5t" opacity="1" fill="#f7e700" fill-opacity="0"></use><g><use xlink:href="#aqw69aA5t" opacity="1" fill-opacity="0" stroke="#535461" stroke-width="1" stroke-opacity="1"></use></g></g><g><use xlink:href="#a1YUiVDjxI" opacity="1" fill="#f7e700" fill-opacity="1"></use><g><use xlink:href="#a1YUiVDjxI" opacity="1" fill-opacity="0" stroke="#000000" stroke-width="1" stroke-opacity="0"></use></g></g><g><use xlink:href="#e9F7NmyYJ" opacity="1" fill="#f5f5f5" fill-opacity="1"></use><g><use xlink:href="#e9F7NmyYJ" opacity="1" fill-opacity="0" stroke="#000000" stroke-width="1" stroke-opacity="0"></use></g></g><g><use xlink:href="#fswU04Nzi" opacity="1" fill="#000000" fill-opacity="0"></use><g><use xlink:href="#fswU04Nzi" opacity="1" fill-opacity="0" stroke="#535461" stroke-width="1" stroke-opacity="1"></use></g></g><g><use xlink:href="#dRbHmis2Q" opacity="1" fill="#a8a8a8" fill-opacity="1"></use><g><use xlink:href="#dRbHmis2Q" opacity="1" fill-opacity="0" stroke="#000000" stroke-width="1" stroke-opacity="0"></use></g></g><g><use xlink:href="#b72kauxj" opacity="1" fill="#000000" fill-opacity="1"></use><g><use xlink:href="#b72kauxj" opacity="1" fill-opacity="0" stroke="#000000" stroke-width="1" stroke-opacity="0"></use></g></g><g><use xlink:href="#a3GzuMwhXX" opacity="1" fill="url(#gradientf1x8jQzRSK)"></use><g><use xlink:href="#a3GzuMwhXX" opacity="1" fill-opacity="0" stroke="#000000" stroke-width="1" stroke-opacity="0"></use></g></g><g><use xlink:href="#b1nU2G8FVu" opacity="1" fill="#f7c4a7" fill-opacity="1"></use><g><use xlink:href="#b1nU2G8FVu" opacity="1" fill-opacity="0" stroke="#000000" stroke-width="1" stroke-opacity="0"></use></g></g><g><use xlink:href="#eSvfrmDsk" opacity="1" fill="#f7c4a7" fill-opacity="1"></use><g><use xlink:href="#eSvfrmDsk" opacity="1" fill-opacity="0" stroke="#000000" stroke-width="1" stroke-opacity="0"></use></g></g><g><use xlink:href="#cxGVrst1U" opacity="1" fill="#535461" fill-opacity="1"></use><g><use xlink:href="#cxGVrst1U" opacity="1" fill-opacity="0" stroke="#000000" stroke-width="1" stroke-opacity="0"></use></g></g><g><use xlink:href="#aCbeDxyC" opacity="1" fill="#535461" fill-opacity="1"></use><g><use xlink:href="#aCbeDxyC" opacity="1" fill-opacity="0" stroke="#000000" stroke-width="1" stroke-opacity="0"></use></g></g><g><use xlink:href="#a14HEv1fD2" opacity="1" fill="#575988" fill-opacity="1"></use><g><use xlink:href="#a14HEv1fD2" opacity="1" fill-opacity="0" stroke="#000000" stroke-width="1" stroke-opacity="0"></use></g></g><g><use xlink:href="#kVLjlYAHN" opacity="1" fill="#2f2e41" fill-opacity="1"></use><g><use xlink:href="#kVLjlYAHN" opacity="1" fill-opacity="0" stroke="#000000" stroke-width="1" stroke-opacity="0"></use></g></g><g><use xlink:href="#aGLqAXpI" opacity="1" fill="#2f2e41" fill-opacity="1"></use><g><use xlink:href="#aGLqAXpI" opacity="1" fill-opacity="0" stroke="#000000" stroke-width="1" stroke-opacity="0"></use></g></g><g><use xlink:href="#a39zsxxI09" opacity="1" fill="#000000" fill-opacity="1"></use><g><use xlink:href="#a39zsxxI09" opacity="1" fill-opacity="0" stroke="#000000" stroke-width="1" stroke-opacity="0"></use></g></g><g><use xlink:href="#b5iXmVOeYs" opacity="1" fill="#8985a8" fill-opacity="1"></use><g><use xlink:href="#b5iXmVOeYs" opacity="1" fill-opacity="0" stroke="#000000" stroke-width="1" stroke-opacity="0"></use></g></g><g><use xlink:href="#c8LKhkX09" opacity="1" fill="#000000" fill-opacity="1"></use><g><use xlink:href="#c8LKhkX09" opacity="1" fill-opacity="0" stroke="#000000" stroke-width="1" stroke-opacity="0"></use></g></g><g><use xlink:href="#aA1pIWwHp" opacity="1" fill="#8985a8" fill-opacity="1"></use><g><use xlink:href="#aA1pIWwHp" opacity="1" fill-opacity="0" stroke="#000000" stroke-width="1" stroke-opacity="0"></use></g></g><g><use xlink:href="#a80K87U" opacity="1" fill="#000000" fill-opacity="1"></use><g><use xlink:href="#a80K87U" opacity="1" fill-opacity="0" stroke="#000000" stroke-width="1" stroke-opacity="0"></use></g></g><g><use xlink:href="#b3aThLQrEh" opacity="1" fill="#f7c4a7" fill-opacity="1"></use><g><use xlink:href="#b3aThLQrEh" opacity="1" fill-opacity="0" stroke="#000000" stroke-width="1" stroke-opacity="0"></use></g></g><g><use xlink:href="#caEKJrnc5" opacity="1" fill="#000000" fill-opacity="1"></use><g><use xlink:href="#caEKJrnc5" opacity="1" fill-opacity="0" stroke="#000000" stroke-width="1" stroke-opacity="0"></use></g></g><g><use xlink:href="#c16DFY7au2" opacity="1" fill="#2f2e41" fill-opacity="1"></use><g><use xlink:href="#c16DFY7au2" opacity="1" fill-opacity="0" stroke="#000000" stroke-width="1" stroke-opacity="0"></use></g></g><g><use xlink:href="#e7hxFo5OsJ" opacity="1" fill="#f7c4a7" fill-opacity="1"></use><g><use xlink:href="#e7hxFo5OsJ" opacity="1" fill-opacity="0" stroke="#000000" stroke-width="1" stroke-opacity="0"></use></g></g><g><use xlink:href="#a1tK9GK3sa" opacity="1" fill="#8985a8" fill-opacity="1"></use><g><use xlink:href="#a1tK9GK3sa" opacity="1" fill-opacity="0" stroke="#000000" stroke-width="1" stroke-opacity="0"></use></g></g><g><use xlink:href="#e9lbMKTaD" opacity="1" fill="#ffffff" fill-opacity="1"></use><g><use xlink:href="#e9lbMKTaD" opacity="1" fill-opacity="0" stroke="#000000" stroke-width="1" stroke-opacity="0"></use></g></g><g><use xlink:href="#bSUcVBSvO" opacity="1" fill="#ffffff" fill-opacity="1"></use><g><use xlink:href="#bSUcVBSvO" opacity="1" fill-opacity="0" stroke="#000000" stroke-width="1" stroke-opacity="0"></use></g></g><g><use xlink:href="#bHA7XuWVP" opacity="1" fill="#67647e" fill-opacity="1"></use><g><use xlink:href="#bHA7XuWVP" opacity="1" fill-opacity="0" stroke="#000000" stroke-width="1" stroke-opacity="0"></use></g></g><g><use xlink:href="#b1gqd854dQ" opacity="1" fill="#f7e700" fill-opacity="1"></use><g><use xlink:href="#b1gqd854dQ" opacity="1" fill-opacity="0" stroke="#000000" stroke-width="1" stroke-opacity="0"></use></g></g><g><use xlink:href="#dihRx0XCt" opacity="1" fill="#a8a8a8" fill-opacity="1"></use><g><use xlink:href="#dihRx0XCt" opacity="1" fill-opacity="0" stroke="#000000" stroke-width="1" stroke-opacity="0"></use></g></g><g><use xlink:href="#g28glLlZDO" opacity="1" fill="#f7e700" fill-opacity="1"></use><g><use xlink:href="#g28glLlZDO" opacity="1" fill-opacity="0" stroke="#000000" stroke-width="1" stroke-opacity="0"></use></g></g><g><use xlink:href="#b3oVaZxYL" opacity="1" fill="#f7e700" fill-opacity="1"></use><g><use xlink:href="#b3oVaZxYL" opacity="1" fill-opacity="0" stroke="#000000" stroke-width="1" stroke-opacity="0"></use></g></g><g><use xlink:href="#a35kTBfzgS" opacity="1" fill="#a8a8a8" fill-opacity="1"></use><g><use xlink:href="#a35kTBfzgS" opacity="1" fill-opacity="0" stroke="#000000" stroke-width="1" stroke-opacity="0"></use></g></g><g><use xlink:href="#b9bIHqgRI" opacity="1" fill="#f7e700" fill-opacity="1"></use><g><use xlink:href="#b9bIHqgRI" opacity="1" fill-opacity="0" stroke="#000000" stroke-width="1" stroke-opacity="0"></use></g></g></g></g></svg>