<?xml version="1.0" encoding="UTF-8" standalone="no"?>
<!DOCTYPE svg PUBLIC "-//W3C//DTD SVG 1.1//EN" "http://www.w3.org/Graphics/SVG/1.1/DTD/svg11.dtd">
<svg version="1.1" xmlns="http://www.w3.org/2000/svg" xmlns:xlink="http://www.w3.org/1999/xlink" preserveAspectRatio="xMidYMid meet" viewBox="0 0 640 640" width="640" height="640"><defs><path d="M269.36 195.94C222.81 195.94 185.08 233.32 185.08 279.44C185.08 325.55 222.81 362.93 269.36 362.93C315.9 362.93 353.63 325.55 353.63 279.44C353.63 233.32 315.9 195.94 269.36 195.94Z" id="a44mRlSkR"></path><path d="M195.46 264.66C195.46 218.27 233.55 180.52 280.38 180.52C327.2 180.52 365.3 218.27 365.3 264.66C365.3 311.06 327.2 348.8 280.38 348.8C233.55 348.8 195.46 311.06 195.46 264.66ZM196.75 264.66C196.75 310.42 234.19 347.52 280.38 347.52C326.56 347.52 364 310.42 364 264.66C364 264.66 364 264.66 364 264.66C363.95 218.93 326.54 181.86 280.38 181.81C234.19 181.81 196.75 218.9 196.75 264.66Z" id="f3UmzYVdZ"></path><path d="M537.74 387.25L12 387.25L12 104L537.74 104L537.74 387.25ZM13.3 385.96L536.44 385.96L536.44 105.28L13.3 105.28L13.3 385.96Z" id="e62uorlTj0"></path><path d="M144.89 126.48C144.89 126.48 144.89 126.48 144.89 126.48C144.89 133.42 144.89 137.27 144.89 138.04C144.89 138.04 144.89 138.04 144.89 138.04C75.66 138.04 37.2 138.04 29.5 138.04C29.5 138.04 29.5 138.04 29.5 138.04C29.5 131.1 29.5 127.25 29.5 126.48C29.5 126.48 29.5 126.48 29.5 126.48C98.74 126.48 137.2 126.48 144.89 126.48Z" id="a1kkZruMMC"></path><path d="M317.98 126.48C317.98 126.48 317.98 126.48 317.98 126.48C317.98 133.42 317.98 137.27 317.98 138.04C317.98 138.04 317.98 138.04 317.98 138.04C248.74 138.04 210.28 138.04 202.59 138.04C202.59 138.04 202.59 138.04 202.59 138.04C202.59 131.1 202.59 127.25 202.59 126.48C202.59 126.48 202.59 126.48 202.59 126.48C271.82 126.48 310.28 126.48 317.98 126.48Z" id="b8W80y9c"></path><path d="M491.06 126.48C491.06 126.48 491.06 126.48 491.06 126.48C491.06 133.42 491.06 137.27 491.06 138.04C491.06 138.04 491.06 138.04 491.06 138.04C421.83 138.04 383.36 138.04 375.67 138.04C375.67 138.04 375.67 138.04 375.67 138.04C375.67 131.1 375.67 127.25 375.67 126.48C375.67 126.48 375.67 126.48 375.67 126.48C444.9 126.48 483.37 126.48 491.06 126.48Z" id="a4sJlw48F9"></path><path d="M152.67 132.9L35.99 132.9L35.99 120.06L152.67 120.06L152.67 132.9ZM37.28 131.62L151.37 131.62L151.37 121.34L37.28 121.34L37.28 131.62Z" id="b14Ci6xvxf"></path><path d="M325.76 132.9L209.07 132.9L209.07 120.06L325.76 120.06L325.76 132.9ZM210.37 131.62L324.46 131.62L324.46 121.34L210.37 121.34L210.37 131.62Z" id="a3DZesldpq"></path><path d="M498.84 132.9L382.15 132.9L382.15 120.06L498.84 120.06L498.84 132.9ZM383.45 131.62L497.54 131.62L497.54 121.34L383.45 121.34L383.45 131.62Z" id="d49g717fO"></path><path d="M624 542.51C624 542.51 624 542.51 624 542.51C624 543.49 624 544.04 624 544.15C624 544.15 624 544.15 624 544.15C302.1 544.15 123.27 544.15 87.5 544.15C87.5 544.15 87.5 544.15 87.5 544.15C87.5 543.16 87.5 542.62 87.5 542.51C87.5 542.51 87.5 542.51 87.5 542.51C409.4 542.51 588.24 542.51 624 542.51Z" id="c11jn69oSU"></path><path d="M307.93 336.18L318.95 342.61L272.27 417.75L267.09 414.54L267.09 414.54L307.93 336.18Z" id="aboy8Gy9K"></path><path d="M251.81 424.88C252.03 420.86 253.95 417.11 257.09 414.55C260.5 411.85 265.4 410.01 271.3 413.58C276.55 416.76 277.73 421.37 277.45 425.48C276.92 431.45 273.47 436.79 268.22 439.77C262.37 443.21 253.13 445.8 243.43 437.34C243.43 437.34 237.59 430.92 243.43 431.56C245.1 430.23 250.95 437.42 251.81 424.88Z" id="b16O9cjM43"></path><path d="M315.64 214.8C306.95 214.8 299.91 221.78 299.91 230.38C299.91 238.99 306.95 245.97 315.64 245.97C324.33 245.97 331.37 238.99 331.37 230.38C331.37 221.78 324.33 214.8 315.64 214.8Z" id="a3Foy1phnT"></path><path d="M309.85 263.2C309.85 263.2 333.03 261.56 333.03 261.56C333.03 261.56 328.06 240.23 328.89 235.31C329.72 230.38 307.36 237.77 307.36 237.77C307.86 242.85 311.5 259.09 309.85 263.2Z" id="aiF8qmdSO"></path><path d="M281.7 333.74L289.91 368.52L292.46 378.04L296.6 363.27L292.46 329.64L291.05 314.5L280.04 311.59L280.04 311.59L281.7 333.74Z" id="b3jX7MGokr"></path><path d="M366.97 308.31C366.97 322.09 366.97 329.75 366.97 331.28C366.97 331.28 364.49 360.81 359.52 368.19C359.52 368.19 352.9 338.66 352.9 338.66C353.16 336.86 354.45 327.84 356.79 311.59L366.97 308.31Z" id="c22zOMXuJ"></path><path d="M291.86 434.7C295.17 484.73 290.2 520.83 300.97 520.83C300.97 520.83 297.65 531.49 306.76 532.31C315.87 533.13 320.01 533.95 320.84 531.49C321.66 529.03 323.32 517.55 320.84 517.55C320.84 517.55 320.84 520.83 322.49 507.7C324.15 494.58 324.15 432.24 328.29 424.03C329.61 427.07 340.21 451.35 341.54 454.38C341.54 454.38 341.54 468.33 344.02 474.89C344.02 474.89 350.64 519.19 350.64 519.19C350.56 519.76 349.9 524.36 349.81 524.93C349.81 524.93 369.68 528.21 370.51 524.93C370.51 524.93 371.34 516.73 370.51 515.09C370.51 515.09 369.68 513.45 371.34 510.16C371.34 510.16 373 504.42 372.17 501.96C372.17 501.96 371.34 446.18 371.34 446.18C371.34 446.18 369.68 381.38 359.75 378.1C349.81 374.81 292.69 379.74 292.69 379.74C292.52 390.73 288.55 384.66 291.86 434.7Z" id="cbqDS48XD"></path><path d="M297.43 537.18C297.43 537.18 287.08 533.48 289.15 542.92C306.95 544.15 319.37 542.51 319.37 542.51C319.37 542.51 323.51 544.15 324.33 541.69C325.16 539.23 322.26 530.61 319.78 530.61C317.3 530.61 304.05 525.69 304.05 525.69C302.73 527.99 298.09 536.03 297.43 537.18Z" id="bW45CfMhD"></path><path d="M347.93 538C347.93 538 372.77 542.1 374.42 542.92C374.42 542.92 384.36 544.56 385.19 539.64C385.19 539.64 381.05 533.07 381.05 533.07C381.05 533.07 371.94 531.43 369.46 523.23C366.97 515.03 352.07 522.41 352.07 522.41C351.24 525.53 345.45 537.18 347.93 538Z" id="b2XiVr4asx"></path><path d="M307.36 259.09C302.39 263.2 281.7 271.4 281.7 275.5C281.7 279.6 292.46 319.8 292.46 319.8C292.46 319.8 286.66 380.5 292.46 382.14C298.25 383.78 308.19 378.86 319.78 384.6C331.37 390.34 364.49 379.68 364.49 379.68C364.49 379.68 352.07 327.18 355.38 317.34C358.69 307.49 361.18 273.86 361.18 273.86C361.18 273.86 347.1 259.09 334.68 259.09C329.22 259.09 312.33 254.99 307.36 259.09Z" id="j5LpTipY"></path><path d="M281.7 274.68C281.7 274.68 269.28 313.23 274.24 314.88C274.24 314.88 293.29 319.8 294.94 319.8C296.6 319.8 287.49 273.04 287.49 273.04C286.33 273.37 282.28 274.52 281.7 274.68Z" id="c14dDPeEYl"></path><path d="M347.93 268.94C355.88 271.89 360.29 273.53 361.18 273.86C361.18 273.86 378.56 305.85 374.42 309.95C374.42 309.95 352.07 318.16 352.07 318.16C351.52 311.59 350.14 295.19 347.93 268.94Z" id="a190fmcvPI"></path><path d="M311.23 211.31C310.2 211.76 309.26 212.37 308.43 213.12C306.93 214.31 305.33 215.36 303.65 216.26C302.31 216.98 300.87 217.65 299.93 218.85C299.49 219.45 299.13 220.11 298.88 220.82C297.27 224.9 296.83 229.35 297.63 233.66C297.72 234.27 297.9 234.87 298.18 235.42C299.04 236.99 300.94 237.61 302.54 238.44C305.58 240 307.88 242.63 310.38 244.96C311.3 245.87 312.34 246.67 313.47 247.32C317.03 249.24 321.38 248.62 325.37 247.94C326.56 247.93 327.51 246.98 327.51 245.81C327.51 245.8 327.51 245.8 327.51 245.79C327.83 244.39 330.35 233.15 330.66 231.75C331.23 229.67 331.51 227.52 331.47 225.36C331.25 221.95 329.39 217.23 326.86 214.81C323.92 211.99 319.01 211.54 315.16 211.13C313.85 210.9 312.51 210.96 311.23 211.31Z" id="b5G95VpNg"></path><path d="M273.25 541.39C273.25 542.1 263.09 542.68 250.56 542.68C238.03 542.68 227.87 542.1 227.87 541.39C227.87 540.68 238.03 540.11 250.56 540.11C263.09 540.11 273.25 540.68 273.25 541.39Z" id="f4oL0eCb6p"></path><path d="M268.06 543.96C268.06 544.67 257.9 545.25 245.37 545.25C232.84 545.25 222.68 544.67 222.68 543.96C222.68 543.25 232.84 542.68 245.37 542.68C257.9 542.68 268.06 543.25 268.06 543.96Z" id="c1C4rbsQwG"></path><path d="M235 536.25C235 536.64 229.49 536.95 222.68 536.95C215.88 536.95 210.37 536.64 210.37 536.25C210.37 535.87 215.88 535.56 222.68 535.56C229.49 535.56 235 535.87 235 536.25Z" id="a4dEq1EIi"></path><path d="M279.08 551.67C279.08 552.05 273.57 552.37 266.76 552.37C259.96 552.37 254.45 552.05 254.45 551.67C254.45 551.28 259.96 550.97 266.76 550.97C273.57 550.97 279.08 551.28 279.08 551.67Z" id="ayWGfpFvR"></path></defs><g><g><g><use xlink:href="#a44mRlSkR" opacity="1" fill="#f7e700" fill-opacity="1"></use><g><use xlink:href="#a44mRlSkR" opacity="1" fill-opacity="0" stroke="#000000" stroke-width="1" stroke-opacity="0"></use></g></g><g><use xlink:href="#f3UmzYVdZ" opacity="1" fill="#3f3d56" fill-opacity="1"></use><g><use xlink:href="#f3UmzYVdZ" opacity="1" fill-opacity="0" stroke="#000000" stroke-width="1" stroke-opacity="0"></use></g></g><g><use xlink:href="#e62uorlTj0" opacity="1" fill="#3f3d56" fill-opacity="1"></use><g><use xlink:href="#e62uorlTj0" opacity="1" fill-opacity="0" stroke="#000000" stroke-width="1" stroke-opacity="0"></use></g></g><g><use xlink:href="#a1kkZruMMC" opacity="1" fill="#a8a8a8" fill-opacity="1"></use><g><use xlink:href="#a1kkZruMMC" opacity="1" fill-opacity="0" stroke="#000000" stroke-width="1" stroke-opacity="0"></use></g></g><g><use xlink:href="#b8W80y9c" opacity="1" fill="#a8a8a8" fill-opacity="1"></use><g><use xlink:href="#b8W80y9c" opacity="1" fill-opacity="0" stroke="#000000" stroke-width="1" stroke-opacity="0"></use></g></g><g><use xlink:href="#a4sJlw48F9" opacity="1" fill="#a8a8a8" fill-opacity="1"></use><g><use xlink:href="#a4sJlw48F9" opacity="1" fill-opacity="0" stroke="#000000" stroke-width="1" stroke-opacity="0"></use></g></g><g><use xlink:href="#b14Ci6xvxf" opacity="1" fill="#3f3d56" fill-opacity="1"></use><g><use xlink:href="#b14Ci6xvxf" opacity="1" fill-opacity="0" stroke="#000000" stroke-width="1" stroke-opacity="0"></use></g></g><g><use xlink:href="#a3DZesldpq" opacity="1" fill="#3f3d56" fill-opacity="1"></use><g><use xlink:href="#a3DZesldpq" opacity="1" fill-opacity="0" stroke="#000000" stroke-width="1" stroke-opacity="0"></use></g></g><g><use xlink:href="#d49g717fO" opacity="1" fill="#3f3d56" fill-opacity="1"></use><g><use xlink:href="#d49g717fO" opacity="1" fill-opacity="0" stroke="#000000" stroke-width="1" stroke-opacity="0"></use></g></g><g><use xlink:href="#c11jn69oSU" opacity="1" fill="#2f2e41" fill-opacity="1"></use><g><use xlink:href="#c11jn69oSU" opacity="1" fill-opacity="0" stroke="#000000" stroke-width="1" stroke-opacity="0"></use></g></g><g><use xlink:href="#aboy8Gy9K" opacity="1" fill="#3f3d56" fill-opacity="1"></use><g><use xlink:href="#aboy8Gy9K" opacity="1" fill-opacity="0" stroke="#000000" stroke-width="1" stroke-opacity="0"></use></g></g><g><use xlink:href="#b16O9cjM43" opacity="1" fill="#f7e700" fill-opacity="1"></use><g><use xlink:href="#b16O9cjM43" opacity="1" fill-opacity="0" stroke="#000000" stroke-width="1" stroke-opacity="0"></use></g></g><g><use xlink:href="#a3Foy1phnT" opacity="1" fill="#ffb8b8" fill-opacity="1"></use><g><use xlink:href="#a3Foy1phnT" opacity="1" fill-opacity="0" stroke="#000000" stroke-width="1" stroke-opacity="0"></use></g></g><g><use xlink:href="#aiF8qmdSO" opacity="1" fill="#ffb8b8" fill-opacity="1"></use><g><use xlink:href="#aiF8qmdSO" opacity="1" fill-opacity="0" stroke="#000000" stroke-width="1" stroke-opacity="0"></use></g></g><g><use xlink:href="#b3jX7MGokr" opacity="1" fill="#ffb8b8" fill-opacity="1"></use><g><use xlink:href="#b3jX7MGokr" opacity="1" fill-opacity="0" stroke="#000000" stroke-width="1" stroke-opacity="0"></use></g></g><g><use xlink:href="#c22zOMXuJ" opacity="1" fill="#ffb8b8" fill-opacity="1"></use><g><use xlink:href="#c22zOMXuJ" opacity="1" fill-opacity="0" stroke="#000000" stroke-width="1" stroke-opacity="0"></use></g></g><g><use xlink:href="#cbqDS48XD" opacity="1" fill="#2f2e41" fill-opacity="1"></use><g><use xlink:href="#cbqDS48XD" opacity="1" fill-opacity="0" stroke="#000000" stroke-width="1" stroke-opacity="0"></use></g></g><g><use xlink:href="#bW45CfMhD" opacity="1" fill="#535461" fill-opacity="1"></use><g><use xlink:href="#bW45CfMhD" opacity="1" fill-opacity="0" stroke="#000000" stroke-width="1" stroke-opacity="0"></use></g></g><g><use xlink:href="#b2XiVr4asx" opacity="1" fill="#535461" fill-opacity="1"></use><g><use xlink:href="#b2XiVr4asx" opacity="1" fill-opacity="0" stroke="#000000" stroke-width="1" stroke-opacity="0"></use></g></g><g><use xlink:href="#j5LpTipY" opacity="1" fill="#8985a8" fill-opacity="1"></use><g><use xlink:href="#j5LpTipY" opacity="1" fill-opacity="0" stroke="#000000" stroke-width="1" stroke-opacity="0"></use></g></g><g><use xlink:href="#c14dDPeEYl" opacity="1" fill="#8985a8" fill-opacity="1"></use><g><use xlink:href="#c14dDPeEYl" opacity="1" fill-opacity="0" stroke="#000000" stroke-width="1" stroke-opacity="0"></use></g></g><g><use xlink:href="#a190fmcvPI" opacity="1" fill="#8985a8" fill-opacity="1"></use><g><use xlink:href="#a190fmcvPI" opacity="1" fill-opacity="0" stroke="#000000" stroke-width="1" stroke-opacity="0"></use></g></g><g><use xlink:href="#b5G95VpNg" opacity="1" fill="#2f2e41" fill-opacity="1"></use><g><use xlink:href="#b5G95VpNg" opacity="1" fill-opacity="0" stroke="#000000" stroke-width="1" stroke-opacity="0"></use></g></g><g><use xlink:href="#f4oL0eCb6p" opacity="1" fill="#f7e700" fill-opacity="1"></use><g><use xlink:href="#f4oL0eCb6p" opacity="1" fill-opacity="0" stroke="#000000" stroke-width="1" stroke-opacity="0"></use></g></g><g><use xlink:href="#c1C4rbsQwG" opacity="1" fill="#f7e700" fill-opacity="1"></use><g><use xlink:href="#c1C4rbsQwG" opacity="1" fill-opacity="0" stroke="#000000" stroke-width="1" stroke-opacity="0"></use></g></g><g><use xlink:href="#a4dEq1EIi" opacity="1" fill="#f7e700" fill-opacity="1"></use><g><use xlink:href="#a4dEq1EIi" opacity="1" fill-opacity="0" stroke="#000000" stroke-width="1" stroke-opacity="0"></use></g></g><g><use xlink:href="#ayWGfpFvR" opacity="1" fill="#f7e700" fill-opacity="1"></use><g><use xlink:href="#ayWGfpFvR" opacity="1" fill-opacity="0" stroke="#000000" stroke-width="1" stroke-opacity="0"></use></g></g></g></g></svg>