<?xml version="1.0" encoding="UTF-8" standalone="no"?>
<!DOCTYPE svg PUBLIC "-//W3C//DTD SVG 1.1//EN" "http://www.w3.org/Graphics/SVG/1.1/DTD/svg11.dtd">
<svg version="1.1" xmlns="http://www.w3.org/2000/svg" xmlns:xlink="http://www.w3.org/1999/xlink" preserveAspectRatio="xMidYMid meet" viewBox="0 0 640 640" width="640" height="640"><defs><path d="M550.05 482.36C548.34 482.36 548.3 488.43 550.05 488.43C556.44 488.43 607.56 488.43 613.95 488.43C614.7 488.46 615.32 487.12 615.33 485.44C615.34 483.73 614.72 482.33 613.95 482.36C601.17 482.36 562.83 482.36 550.05 482.36Z" id="a1qV6Kyfk"></path><path d="M570.23 459.72C568 459.72 567.99 465.8 570.23 465.8C572.58 465.8 591.4 465.8 593.75 465.8C594.71 465.82 595.51 464.49 595.52 462.81C595.54 461.1 594.73 459.69 593.75 459.72C589.05 459.72 574.93 459.72 570.23 459.72Z" id="a1j25UFomv"></path><path d="M550.05 505.83C548.34 505.83 548.3 511.91 550.05 511.91C556.44 511.91 607.56 511.91 613.95 511.91C614.7 511.94 615.32 510.6 615.33 508.92C615.34 507.21 614.72 505.8 613.95 505.83C601.17 505.83 562.83 505.83 550.05 505.83Z" id="ad6B2TOrp"></path><path d="M536.47 429.64C534.45 429.64 532.8 431.52 532.8 433.83C532.8 444.23 532.8 527.4 532.8 537.79C532.8 540.11 534.45 541.98 536.47 541.99C545.59 541.99 618.49 541.99 627.61 541.99C629.63 541.98 631.28 540.11 631.28 537.79C631.28 527.4 631.28 444.23 631.28 433.83C631.28 431.52 629.63 429.64 627.61 429.64C627.61 429.64 545.59 429.64 536.47 429.64ZM629.81 537.79C629.81 539.18 628.82 540.3 627.61 540.31C618.49 540.31 545.59 540.31 536.47 540.31C535.26 540.3 534.27 539.18 534.27 537.79C534.27 527.4 534.27 444.23 534.27 433.83C534.27 432.45 535.26 431.32 536.47 431.32C545.59 431.32 618.49 431.32 627.61 431.32C628.82 431.32 629.81 432.45 629.81 433.83C629.81 454.63 629.81 517 629.81 537.79Z" id="a1aqYjuXhd"></path><path d="M501.75 347.12L509.14 342.91L502.98 323.93C502.01 318.19 501.47 315 501.36 314.36C500.69 310.44 497.37 307.87 493.93 308.63C492.85 308.87 491.84 309.43 491 310.24C491 310.24 491 310.24 491 310.24C488.41 312.78 488.04 317.21 490.18 320.26C490.58 320.83 492.59 323.69 496.21 328.85L501.75 347.12Z" id="d7bQtfIza"></path><path d="M499.28 345.02L500.65 349.88C504.32 363.01 506.36 370.3 506.77 371.75C508.49 377.91 514.25 381.31 519.65 379.35C522.03 378.48 524.05 376.66 525.33 374.21C527.31 370.34 543.18 339.31 545.17 335.43C545.48 334.83 545.75 334.19 545.98 333.53C548.03 327.37 545.32 320.47 539.92 318.12C534.87 315.93 529.18 318.48 526.8 324.02C525.99 325.98 521.95 335.79 514.69 353.45L509.14 339.39L499.28 345.02Z" id="e2m9FnLqdJ"></path><path d="M502.14 486.29L515.69 487.7C520.13 451.01 522.59 430.63 523.09 426.55C547.46 431.23 570.45 432.73 590.33 427.07C597.07 425.18 601.18 417.42 599.53 409.74C599.45 409.38 599.36 409.03 599.26 408.68C596.88 400.57 592.68 391.89 587.78 382.98C585.6 383.87 574.71 388.32 555.12 396.33L553.89 401.95C532.99 398.94 521.38 397.26 519.06 396.93C512.06 395.91 505.66 401.57 504.78 409.56C504.73 409.98 504.7 410.41 504.68 410.83C504.34 420.89 503.5 446.05 502.14 486.29Z" id="bMomEYyZ8"></path><path d="M487.38 498.14C487.11 496 487.96 493.89 489.55 492.72C490.48 492.2 495.11 489.6 503.46 484.93L513.95 486.44C515.44 492.52 516.26 495.89 516.43 496.57C516.85 499.51 515.11 502.28 512.54 502.77C512.46 502.78 512.38 502.8 512.29 502.81C510.34 502.81 494.68 502.85 492.72 502.86C490.11 503.19 487.75 501.1 487.38 498.14C487.38 498.14 487.38 498.14 487.38 498.14Z" id="fir0D9en"></path><path d="M498.4 478.28L511.95 479.69C516.39 443 518.85 422.62 519.34 418.54C543.71 423.22 566.7 424.72 586.59 419.06C593.32 417.17 597.44 409.41 595.78 401.73C595.7 401.37 595.61 401.02 595.51 400.67C593.13 392.56 588.94 383.88 584.03 374.97C581.86 375.86 570.97 380.31 551.38 388.32L550.15 393.94C529.25 390.93 517.64 389.25 515.32 388.92C508.31 387.9 501.92 393.56 501.03 401.55C500.98 401.97 500.95 402.4 500.94 402.82C500.6 412.88 499.75 438.04 498.4 478.28Z" id="a3lGBbfcLm"></path><path d="M483.54 490.04C483.27 487.91 484.12 485.79 485.71 484.62C486.63 484.1 491.27 481.51 499.62 476.83L510.11 478.34C511.6 484.42 512.42 487.8 512.59 488.47C513.01 491.41 511.27 494.19 508.7 494.67C508.62 494.69 508.53 494.7 508.45 494.71C506.5 494.72 490.84 494.76 488.88 494.76C486.27 495.1 483.91 493.01 483.54 490.04C483.54 490.04 483.54 490.04 483.54 490.04Z" id="a4ETYFGC3f"></path><path d="M523.36 273.25C514.17 273.25 506.72 281.75 506.72 292.23C506.72 302.71 514.17 311.21 523.36 311.21C532.55 311.21 539.99 302.71 539.99 292.23C539.99 281.75 532.55 273.25 523.36 273.25Z" id="a1YJkhFm9o"></path><path d="M543.07 328.07L535.68 302.07L517.2 302.07L523.98 330.88L523.98 330.88L543.07 328.07Z" id="epCRPJ8Xn"></path><path d="M522.96 365.82C525.5 369.38 528.56 372.42 531.99 374.81C532.59 375.25 533.21 375.68 533.85 376.09C534.1 376.33 535.32 377.52 537.52 379.66L550.49 392.26C571.93 382.98 583.84 377.83 586.22 376.8C578.34 356.82 568.51 341.02 557.24 328.3C552.44 320.28 543.77 316.51 535.52 318.87C534.18 319.25 523.48 322.3 522.15 322.68C517.39 335.48 515.62 347.26 518.8 357.33C519.77 360.4 521.17 363.27 522.96 365.82Z" id="bEQmQ4nfn"></path><path d="M489.67 302.43C489.24 301.94 488.57 301.87 488.07 302.25C487.74 302.64 477.04 309.87 477.71 310.59C477.67 311.03 477.81 311.47 478.08 311.78C480.57 314.61 500.47 337.21 502.95 340.03C503.2 340.31 503.53 340.46 503.87 340.46C504.37 341.19 512.53 330.59 512.94 330.39C513.43 329.81 513.42 328.88 512.91 328.32C508.26 323.14 494.32 307.6 489.67 302.43Z" id="b1nITgvgUW"></path><path d="M481.23 309.55C480.98 310.09 481.16 310.76 481.63 311.05C481.94 311.24 482.32 311.22 482.62 311C483.27 310.48 488.51 306.38 489.16 305.86C489.6 305.51 489.71 304.82 489.4 304.32C489.28 304.13 489.11 303.98 488.91 303.91C489.17 303.81 489.59 303.21 489.87 303.58C492.07 306.05 509.7 325.81 511.9 328.28C512.69 328.72 503.9 337.41 503.89 337.75C503.24 338.59 480.64 310.93 480.16 310.91C480.02 310.75 480.02 310.5 480.16 310.34C480.17 310.32 480.19 310.31 480.22 310.29C480.42 310.14 481.13 309.63 481.23 309.55Z" id="a8L9A04tB"></path><path d="M498.89 330.1L482.81 311.98L490.97 305.92L505.65 322.83L505.65 322.83L498.89 330.1Z" id="e1YOONADiA"></path><path d="M482.03 314.47C481.94 314.37 481.79 314.37 481.7 314.47C481.31 314.79 483.03 316.22 483.1 316.45C483.2 316.55 483.34 316.55 483.43 316.45C483.82 316.13 482.1 314.71 482.03 314.47Z" id="d4pVQD8Q21"></path><path d="M484.07 317.17C483.68 317.49 485.4 318.92 485.47 319.15C485.68 319.4 486.02 319.02 485.8 318.78C485.59 318.69 484.35 316.74 484.07 317.17Z" id="beOYwiobx"></path><path d="M507.07 329.07C507.1 326.73 503.88 326.73 503.91 329.07C503.88 331.41 507.1 331.41 507.07 329.07Z" id="b9rG5om4m"></path><path d="M522.93 365.59C525.48 369.15 528.53 372.19 531.97 374.58C532.57 375.02 533.19 375.45 533.83 375.86C534.2 376.22 537.13 379.07 537.5 379.43C544.78 368.51 544.37 335.33 544.37 335.33C543.63 335.42 539.94 335.84 533.29 336.6C527.77 352.06 524.32 361.72 522.93 365.59Z" id="ctwfOtz2r"></path><path d="M501.18 356.89L508.57 352.67L502.41 333.7C501.44 327.95 500.9 324.76 500.79 324.13C500.12 320.2 496.8 317.64 493.36 318.4C492.28 318.64 491.27 319.19 490.43 320.01C490.43 320.01 490.43 320.01 490.43 320.01C487.84 322.55 487.47 326.97 489.61 330.02C490.01 330.59 492.02 333.46 495.64 338.62L501.18 356.89Z" id="d1g6aNfByK"></path><path d="M508.82 349.37L498.97 354.99C503.45 371.03 505.95 379.95 506.45 381.73C507.54 385.63 510.34 388.6 513.84 389.55C513.84 389.55 513.84 389.55 513.84 389.55C518.19 390.73 522.71 388.56 525.01 384.19C526.99 380.31 542.86 349.28 544.85 345.4C547.77 339.84 546.27 332.64 541.47 329.17C541.47 329.17 541.47 329.17 541.47 329.17C536.59 325.64 530.12 327.3 527.03 332.87C526.83 333.23 526.64 333.61 526.48 333.99C525.67 335.95 521.63 345.77 514.37 363.42L508.82 349.37Z" id="apTuimNsT"></path><path d="M517.1 284.84C515.74 286.13 514.21 287.16 512.57 287.89C510.9 288.61 509.03 288.46 507.47 287.47C505.74 286.06 504.83 283.69 505.09 281.28C505.37 278.92 506.2 276.69 507.5 274.82C515.32 262.41 530.47 259.59 541.35 268.51C543.4 270.2 545.22 272.24 546.72 274.57C548.37 276.93 549.39 279.78 549.65 282.78C549.88 288.05 546.72 292.97 547.06 298.23C547.35 302.69 550.15 306.5 553.47 308.87C556.78 311.24 560.62 312.44 564.33 313.86C568.04 315.28 571.79 317.04 574.54 320.22C577.28 323.4 578.8 328.33 577.29 332.46C576.05 335.84 573.11 337.99 570.16 339.45C562.24 343.32 553.35 343.7 545.21 340.52C542.21 339.33 538.93 336.96 538.88 333.33C538.86 331.76 539.48 330.28 539.86 328.77C540.23 327.25 540.3 325.44 539.36 324.29C538.2 322.85 536.06 323.18 534.68 324.33C533.29 325.47 532.39 327.21 531.25 328.66C529.08 331.42 525.78 333.18 522.57 332.66C519.35 332.14 516.45 329.01 516.31 325.31C516.08 318.95 523.07 314.97 523.83 308.66C524.34 304.45 521.93 300.6 519.85 297.07C517.77 293.55 515.83 289.13 517.29 285.22" id="cZi5ftIa"></path><path d="M10.83 487.58C8.03 487.57 5.75 484.98 5.75 481.78C5.75 455.01 5.75 240.81 5.75 214.04C5.75 210.84 8.03 208.24 10.83 208.24C38.28 208.24 257.85 208.24 285.3 208.24C288.11 208.24 290.38 210.84 290.38 214.04C290.38 240.81 290.38 455.01 290.38 481.78C290.38 484.98 288.11 487.57 285.3 487.58C230.41 487.58 38.28 487.58 10.83 487.58ZM10.83 210.56C9.15 210.56 7.79 212.12 7.78 214.04C7.78 240.81 7.78 455.01 7.78 481.78C7.79 483.7 9.15 485.26 10.83 485.26C38.28 485.26 257.85 485.26 285.3 485.26C286.98 485.26 288.35 483.7 288.35 481.78C288.35 455.01 288.35 240.81 288.35 214.04C288.35 212.12 286.98 210.56 285.3 210.56C230.41 210.56 65.73 210.56 10.83 210.56Z" id="a16X8lnDA5"></path><path d="M53.48 416.35C42.05 416.35 32.78 426.92 32.78 439.97C32.78 453.01 42.05 463.58 53.48 463.58C64.91 463.58 74.18 453.01 74.18 439.97C74.18 426.92 64.91 416.35 53.48 416.35Z" id="bp1s6n9A5"></path><path d="M101.3 424.22C99.39 424.22 97.85 425.99 97.85 428.16C97.85 430.33 99.4 432.09 101.3 432.09C117.56 432.09 247.71 432.09 263.97 432.09C265.88 432.09 267.42 430.33 267.42 428.16C267.42 425.98 265.88 424.22 263.97 424.22C231.44 424.22 133.83 424.22 101.3 424.22Z" id="a5yMsU0uk"></path><path d="M101.3 447.84C99.39 447.84 97.85 449.6 97.85 451.78C97.85 453.95 99.39 455.71 101.3 455.71C108.3 455.71 164.3 455.71 171.3 455.71C173.2 455.72 174.75 453.96 174.75 451.78C174.76 449.61 173.21 447.84 171.31 447.84C171.3 447.84 171.3 447.84 171.3 447.84C157.3 447.84 115.3 447.84 101.3 447.84Z" id="a8oc385lN"></path><path d="M76.04 394.19C73.24 394.19 70.96 391.6 70.96 388.39C70.96 374.65 70.96 264.73 70.96 250.99C70.96 247.79 73.24 245.2 76.04 245.19C103.49 245.19 323.06 245.19 350.51 245.19C353.32 245.2 355.59 247.79 355.59 250.99C355.59 264.73 355.59 374.65 355.59 388.39C355.59 391.6 353.32 394.19 350.51 394.19C350.51 394.19 103.49 394.19 76.04 394.19Z" id="a3TzoJ68yO"></path><path d="M131.94 293.08C130.03 293.09 128.49 294.85 128.49 297.03C128.5 299.2 130.04 300.95 131.94 300.96C148.21 300.96 278.35 300.96 294.62 300.96C296.52 300.95 298.06 299.19 298.06 297.02C298.06 294.85 296.52 293.09 294.62 293.08C262.08 293.08 164.47 293.08 131.94 293.08Z" id="a2ZtC2cD2X"></path><path d="M131.94 315.89C130.03 315.9 128.49 317.66 128.49 319.84C128.5 322.01 130.04 323.76 131.94 323.77C148.21 323.77 278.35 323.77 294.62 323.77C296.52 323.76 298.06 322 298.06 319.82C298.06 317.66 296.52 315.9 294.62 315.89C262.08 315.89 164.47 315.89 131.94 315.89Z" id="b1kMuddrjl"></path><path d="M131.94 338.43C130.03 338.43 128.49 340.19 128.49 342.37C128.5 344.54 130.04 346.3 131.94 346.3C138.94 346.3 194.94 346.3 201.94 346.3C203.84 346.3 205.39 344.54 205.39 342.37C205.4 340.19 203.85 338.43 201.95 338.43C201.95 338.43 201.94 338.43 201.94 338.43C187.94 338.43 145.94 338.43 131.94 338.43Z" id="a1w9nSoYg6"></path><path d="M351.02 361.76C339.58 361.76 330.31 372.34 330.31 385.38C330.31 398.42 339.58 409 351.02 409C362.45 409 371.72 398.42 371.72 385.38C371.72 372.34 362.45 361.76 351.02 361.76Z" id="g1M2E1yUhm"></path><path d="M342.72 386.19L346.54 382.79L349.65 387.36L360.16 374.7L363.68 378.5L349.29 395.82L349.29 395.82L342.72 386.19Z" id="c53DJfkhk"></path><path d="M283.2 151.41L268.99 120.83L297.76 108.01L316.85 142.63L316.85 142.63L283.2 151.41Z" id="a4FzvRiUn"></path><path d="M344.8 359.84L357.41 346.77L330.22 276.8L306.46 243.43L345.28 262.6L349.32 311.41L368.62 318.98C367.12 282.42 366.29 262.11 366.12 258.05C365.8 250.29 361.55 243.45 355.23 240.55C353.1 239.58 342.49 234.72 323.38 225.96L317.67 198.65C297.72 198.33 286.64 198.15 284.43 198.11C274.09 218.62 269.48 236.67 276.93 249.52C279.24 252.09 290.77 264.92 311.53 288.02L344.8 359.84Z" id="clTXpFGe"></path><path d="M354.68 346.63C354.68 346.63 365.36 355.16 365.36 355.16C365.36 355.16 378.5 357.28 370.27 362.71C370.27 362.71 358.82 367.81 358.56 367.04C358.56 367.04 356.16 364.56 356.16 364.56C355.95 364.71 354.92 365.47 353.05 366.83C349.91 367.17 348.16 367.35 347.81 367.39C347.81 367.39 340.95 354.13 343.16 353.78C345.36 353.43 350.2 353.93 350.08 351.33C351 350.39 351.87 345.22 354.68 346.63Z" id="b1hXyVVn3X"></path><path d="M364.94 315.25C364.94 315.25 364.5 330.11 364.5 330.11C364.5 330.11 370.11 343.83 361.63 338.93C361.63 338.93 351.64 330.76 352.06 330.09C352.06 330.09 352.57 326.45 352.57 326.45C352.34 326.33 351.22 325.75 349.21 324.71C347.24 321.89 346.15 320.32 345.94 320.01C345.94 320.01 351.93 306.21 353.4 308.13C354.86 310.05 357.12 314.95 358.97 313.42C360.17 313.78 364.44 311.79 364.94 315.25Z" id="cc7bI1oUj"></path><path d="M288.43 111.96C281.7 111.96 276.24 118.19 276.24 125.87C276.24 133.54 281.7 139.77 288.43 139.77C295.16 139.77 300.62 133.54 300.62 125.87C300.62 118.19 295.16 111.96 288.43 111.96Z" id="b2TNG49SPp"></path><path d="M316.6 166.8C312.18 157.69 307.63 149.38 301.51 150.31C296.06 145.96 295.75 138.97 297.13 131.12C295.65 131.57 283.8 135.18 282.32 135.63C283.62 140.47 283.12 144.73 279.65 148.01C284.5 155.8 287.64 163.66 287.01 171.68C292.93 170.7 313.64 167.29 316.6 166.8Z" id="aGA8v6Xbl"></path><path d="M317.36 202.05C317.45 201.05 318.22 193.09 318.31 192.09C325.75 181.39 323.57 172.15 314.5 163.94C314.21 163.16 312.75 159.25 310.13 152.21L303.54 151C303.54 151 303.54 151 303.54 151C305.96 154.2 305.66 159.03 302.86 161.8C301.51 163.12 299.76 163.79 297.99 163.64C297.75 163.63 295.85 163.47 295.61 163.45C293.83 163.31 292.17 162.36 291 160.81C290.32 159.92 286.95 155.45 280.87 147.41C278.31 148.19 276.89 148.62 276.61 148.71C275.61 149.01 274.9 150 274.83 151.16C274.69 153.4 273.58 171.27 273.45 173.51C279.54 181.2 283.04 191.04 284.48 202.59C294.99 218.2 305.77 224.37 317.36 202.05Z" id="d3aWLIH4Xn"></path><path d="M280.07 191.76L256.79 186.36L272.25 169.95L266.37 157.81C251.37 176.01 243.04 186.11 241.38 188.14C240.08 189.82 240.23 192.38 241.7 193.86C242.25 194.41 242.93 194.75 243.66 194.84C245.91 195.13 257.19 196.55 277.5 199.12C278.34 203.31 278.8 205.64 278.89 206.11C279.53 209.3 282.31 211.31 285.12 210.58C285.71 210.43 286.27 210.16 286.77 209.79C286.77 209.79 286.77 209.79 286.77 209.79C289.19 208.03 289.9 204.35 288.35 201.59C288.16 201.25 287.94 200.93 287.69 200.64C286.67 199.46 284.13 196.5 280.07 191.76Z" id="f3GcpkBrk"></path><path d="M316.27 234.93C314.41 240.43 313.38 243.49 313.18 244.1C312 247.6 313.53 251.53 316.6 252.87C316.82 252.97 317.05 253.06 317.29 253.12C317.29 253.12 317.29 253.12 317.29 253.12C320.47 254.03 323.71 251.83 324.51 248.19C324.7 247.29 324.74 246.35 324.61 245.44C324.52 244.83 324.08 241.8 323.3 236.36L327.6 200.04L323.76 176.05L314.99 179.12L317.91 201.45L316.27 234.93Z" id="a11Db9rk7v"></path><path d="M312.96 181.68L326.21 175.79C321.78 164.72 319.32 158.57 318.83 157.34C317.22 153.32 313.8 150.64 309.94 150.37C309.71 150.36 308.58 150.28 306.54 150.14L312.96 181.68Z" id="cpKGM2vYd"></path><path d="M283.45 168.7C280.47 157.11 278.81 150.66 278.47 149.38C278.14 148.08 277.03 147.26 275.86 147.43C275.86 147.43 275.86 147.43 275.86 147.43C275.38 147.5 274.93 147.73 274.57 148.1C273.13 149.56 261.59 161.24 260.15 162.7C262.91 167.88 265.84 168.01 269.33 174.15C271.21 173.43 275.92 171.61 283.45 168.7Z" id="b8smrq8oHo"></path><path d="M305.7 115.5C305.97 117.29 306.02 119.11 305.85 120.91C305.68 122.95 305.93 127.27 309.81 132.34C312.35 135.63 314.71 139.09 316.88 142.71C316.88 142.71 316.88 142.71 316.88 142.71L309.1 145.07C307.01 136.24 305.85 131.33 305.62 130.35C303.93 123.22 301.33 116.4 297.9 110.13C297.9 110.12 297.84 110.01 297.83 110C297.83 110 295.25 117.88 288.31 118.96C288.53 118.64 290.24 116.07 290.45 115.75C290.45 115.75 282.35 121.1 277.76 122.73C276.17 123.3 275.28 125.23 275.77 127.04C275.95 127.7 276.31 128.28 276.78 128.71C276.83 128.76 276.87 128.79 276.88 128.8C280.26 131.73 287.15 138.71 284.43 145.46C281.7 152.22 284.88 153.45 284.88 153.45C284.49 153.28 282.54 152.43 279.03 150.91L276.35 149.6L276.62 151.86C268.77 152.05 264.41 152.15 263.54 152.17C263.54 152.17 260.01 152.15 266.28 141.39C266.28 141.39 267.8 137.35 266.55 134.27C265.56 131.94 265.06 129.36 265.1 126.77C265.5 115.92 269.51 93.85 296.53 103.3C298.36 105.74 303.98 104.9 305.7 115.5Z" id="c78yFfhfEV"></path></defs><g><g><g><use xlink:href="#a1qV6Kyfk" opacity="1" fill="#3f3d56" fill-opacity="1"></use><g><use xlink:href="#a1qV6Kyfk" opacity="1" fill-opacity="0" stroke="#000000" stroke-width="1" stroke-opacity="0"></use></g></g><g><use xlink:href="#a1j25UFomv" opacity="1" fill="#f7e700" fill-opacity="1"></use><g><use xlink:href="#a1j25UFomv" opacity="1" fill-opacity="0" stroke="#000000" stroke-width="1" stroke-opacity="0"></use></g></g><g><use xlink:href="#ad6B2TOrp" opacity="1" fill="#3f3d56" fill-opacity="1"></use><g><use xlink:href="#ad6B2TOrp" opacity="1" fill-opacity="0" stroke="#000000" stroke-width="1" stroke-opacity="0"></use></g></g><g><use xlink:href="#a1aqYjuXhd" opacity="1" fill="#3f3d56" fill-opacity="1"></use><g><use xlink:href="#a1aqYjuXhd" opacity="1" fill-opacity="0" stroke="#000000" stroke-width="1" stroke-opacity="0"></use></g></g><g><use xlink:href="#d7bQtfIza" opacity="1" fill="#a0616a" fill-opacity="1"></use><g><use xlink:href="#d7bQtfIza" opacity="1" fill-opacity="0" stroke="#000000" stroke-width="1" stroke-opacity="0"></use></g></g><g><use xlink:href="#e2m9FnLqdJ" opacity="1" fill="#8985a8" fill-opacity="1"></use><g><use xlink:href="#e2m9FnLqdJ" opacity="1" fill-opacity="0" stroke="#000000" stroke-width="1" stroke-opacity="0"></use></g></g><g><use xlink:href="#bMomEYyZ8" opacity="1" fill="#2f2e41" fill-opacity="1"></use><g><use xlink:href="#bMomEYyZ8" opacity="1" fill-opacity="0" stroke="#000000" stroke-width="1" stroke-opacity="0"></use></g></g><g><use xlink:href="#fir0D9en" opacity="1" fill="#535461" fill-opacity="1"></use><g><use xlink:href="#fir0D9en" opacity="1" fill-opacity="0" stroke="#000000" stroke-width="1" stroke-opacity="0"></use></g></g><g><use xlink:href="#a3lGBbfcLm" opacity="1" fill="#2f2e41" fill-opacity="1"></use><g><use xlink:href="#a3lGBbfcLm" opacity="1" fill-opacity="0" stroke="#000000" stroke-width="1" stroke-opacity="0"></use></g></g><g><use xlink:href="#a4ETYFGC3f" opacity="1" fill="#535461" fill-opacity="1"></use><g><use xlink:href="#a4ETYFGC3f" opacity="1" fill-opacity="0" stroke="#000000" stroke-width="1" stroke-opacity="0"></use></g></g><g><use xlink:href="#a1YJkhFm9o" opacity="1" fill="#a0616a" fill-opacity="1"></use><g><use xlink:href="#a1YJkhFm9o" opacity="1" fill-opacity="0" stroke="#000000" stroke-width="1" stroke-opacity="0"></use></g></g><g><use xlink:href="#epCRPJ8Xn" opacity="1" fill="#a0616a" fill-opacity="1"></use><g><use xlink:href="#epCRPJ8Xn" opacity="1" fill-opacity="0" stroke="#000000" stroke-width="1" stroke-opacity="0"></use></g></g><g><use xlink:href="#bEQmQ4nfn" opacity="1" fill="#8985a8" fill-opacity="1"></use><g><use xlink:href="#bEQmQ4nfn" opacity="1" fill-opacity="0" stroke="#000000" stroke-width="1" stroke-opacity="0"></use></g></g><g><use xlink:href="#b1nITgvgUW" opacity="1" fill="#3f3d56" fill-opacity="1"></use><g><use xlink:href="#b1nITgvgUW" opacity="1" fill-opacity="0" stroke="#000000" stroke-width="1" stroke-opacity="0"></use></g></g><g><use xlink:href="#a8L9A04tB" opacity="1" fill="#ffffff" fill-opacity="1"></use><g><use xlink:href="#a8L9A04tB" opacity="1" fill-opacity="0" stroke="#000000" stroke-width="1" stroke-opacity="0"></use></g></g><g><use xlink:href="#e1YOONADiA" opacity="1" fill="#f7e700" fill-opacity="1"></use><g><use xlink:href="#e1YOONADiA" opacity="1" fill-opacity="0" stroke="#000000" stroke-width="1" stroke-opacity="0"></use></g></g><g><use xlink:href="#d4pVQD8Q21" opacity="1" fill="#e6e6e6" fill-opacity="1"></use><g><use xlink:href="#d4pVQD8Q21" opacity="1" fill-opacity="0" stroke="#000000" stroke-width="1" stroke-opacity="0"></use></g></g><g><use xlink:href="#beOYwiobx" opacity="1" fill="#e6e6e6" fill-opacity="1"></use><g><use xlink:href="#beOYwiobx" opacity="1" fill-opacity="0" stroke="#000000" stroke-width="1" stroke-opacity="0"></use></g></g><g><use xlink:href="#b9rG5om4m" opacity="1" fill="#f7e700" fill-opacity="1"></use><g><use xlink:href="#b9rG5om4m" opacity="1" fill-opacity="0" stroke="#000000" stroke-width="1" stroke-opacity="0"></use></g></g><g><use xlink:href="#ctwfOtz2r" opacity="1" fill="#000000" fill-opacity="1"></use><g><use xlink:href="#ctwfOtz2r" opacity="1" fill-opacity="0" stroke="#000000" stroke-width="1" stroke-opacity="0"></use></g></g><g><use xlink:href="#d1g6aNfByK" opacity="1" fill="#a0616a" fill-opacity="1"></use><g><use xlink:href="#d1g6aNfByK" opacity="1" fill-opacity="0" stroke="#000000" stroke-width="1" stroke-opacity="0"></use></g></g><g><use xlink:href="#apTuimNsT" opacity="1" fill="#8985a8" fill-opacity="1"></use><g><use xlink:href="#apTuimNsT" opacity="1" fill-opacity="0" stroke="#000000" stroke-width="1" stroke-opacity="0"></use></g></g><g><use xlink:href="#cZi5ftIa" opacity="1" fill="#2f2e41" fill-opacity="1"></use><g><use xlink:href="#cZi5ftIa" opacity="1" fill-opacity="0" stroke="#000000" stroke-width="1" stroke-opacity="0"></use></g></g><g><use xlink:href="#a16X8lnDA5" opacity="1" fill="#3f3d56" fill-opacity="1"></use><g><use xlink:href="#a16X8lnDA5" opacity="1" fill-opacity="0" stroke="#000000" stroke-width="1" stroke-opacity="0"></use></g></g><g><use xlink:href="#bp1s6n9A5" opacity="1" fill="#e6e6e6" fill-opacity="1"></use><g><use xlink:href="#bp1s6n9A5" opacity="1" fill-opacity="0" stroke="#000000" stroke-width="1" stroke-opacity="0"></use></g></g><g><use xlink:href="#a5yMsU0uk" opacity="1" fill="#e6e6e6" fill-opacity="1"></use><g><use xlink:href="#a5yMsU0uk" opacity="1" fill-opacity="0" stroke="#000000" stroke-width="1" stroke-opacity="0"></use></g></g><g><use xlink:href="#a8oc385lN" opacity="1" fill="#e6e6e6" fill-opacity="1"></use><g><use xlink:href="#a8oc385lN" opacity="1" fill-opacity="0" stroke="#000000" stroke-width="1" stroke-opacity="0"></use></g></g><g><use xlink:href="#a3TzoJ68yO" opacity="1" fill="#f7e700" fill-opacity="1"></use><g><use xlink:href="#a3TzoJ68yO" opacity="1" fill-opacity="0" stroke="#000000" stroke-width="1" stroke-opacity="0"></use></g></g><g><use xlink:href="#a2ZtC2cD2X" opacity="1" fill="#ffffff" fill-opacity="1"></use><g><use xlink:href="#a2ZtC2cD2X" opacity="1" fill-opacity="0" stroke="#000000" stroke-width="1" stroke-opacity="0"></use></g></g><g><use xlink:href="#b1kMuddrjl" opacity="1" fill="#ffffff" fill-opacity="1"></use><g><use xlink:href="#b1kMuddrjl" opacity="1" fill-opacity="0" stroke="#000000" stroke-width="1" stroke-opacity="0"></use></g></g><g><use xlink:href="#a1w9nSoYg6" opacity="1" fill="#ffffff" fill-opacity="1"></use><g><use xlink:href="#a1w9nSoYg6" opacity="1" fill-opacity="0" stroke="#000000" stroke-width="1" stroke-opacity="0"></use></g></g><g><use xlink:href="#g1M2E1yUhm" opacity="1" fill="#3f3d56" fill-opacity="1"></use><g><use xlink:href="#g1M2E1yUhm" opacity="1" fill-opacity="0" stroke="#000000" stroke-width="1" stroke-opacity="0"></use></g></g><g><use xlink:href="#c53DJfkhk" opacity="1" fill="#ffffff" fill-opacity="1"></use><g><use xlink:href="#c53DJfkhk" opacity="1" fill-opacity="0" stroke="#000000" stroke-width="1" stroke-opacity="0"></use></g></g><g><use xlink:href="#a4FzvRiUn" opacity="1" fill="#2f2e41" fill-opacity="1"></use><g><use xlink:href="#a4FzvRiUn" opacity="1" fill-opacity="0" stroke="#000000" stroke-width="1" stroke-opacity="0"></use></g></g><g><use xlink:href="#clTXpFGe" opacity="1" fill="#2f2e41" fill-opacity="1"></use><g><use xlink:href="#clTXpFGe" opacity="1" fill-opacity="0" stroke="#000000" stroke-width="1" stroke-opacity="0"></use></g></g><g><use xlink:href="#b1hXyVVn3X" opacity="1" fill="#535461" fill-opacity="1"></use><g><use xlink:href="#b1hXyVVn3X" opacity="1" fill-opacity="0" stroke="#000000" stroke-width="1" stroke-opacity="0"></use></g></g><g><use xlink:href="#cc7bI1oUj" opacity="1" fill="#535461" fill-opacity="1"></use><g><use xlink:href="#cc7bI1oUj" opacity="1" fill-opacity="0" stroke="#000000" stroke-width="1" stroke-opacity="0"></use></g></g><g><use xlink:href="#b2TNG49SPp" opacity="1" fill="#ffb9b9" fill-opacity="1"></use><g><use xlink:href="#b2TNG49SPp" opacity="1" fill-opacity="0" stroke="#000000" stroke-width="1" stroke-opacity="0"></use></g></g><g><use xlink:href="#aGA8v6Xbl" opacity="1" fill="#ffb9b9" fill-opacity="1"></use><g><use xlink:href="#aGA8v6Xbl" opacity="1" fill-opacity="0" stroke="#000000" stroke-width="1" stroke-opacity="0"></use></g></g><g><use xlink:href="#d3aWLIH4Xn" opacity="1" fill="#8985a8" fill-opacity="1"></use><g><use xlink:href="#d3aWLIH4Xn" opacity="1" fill-opacity="0" stroke="#000000" stroke-width="1" stroke-opacity="0"></use></g></g><g><use xlink:href="#f3GcpkBrk" opacity="1" fill="#ffb9b9" fill-opacity="1"></use><g><use xlink:href="#f3GcpkBrk" opacity="1" fill-opacity="0" stroke="#000000" stroke-width="1" stroke-opacity="0"></use></g></g><g><use xlink:href="#a11Db9rk7v" opacity="1" fill="#ffb9b9" fill-opacity="1"></use><g><use xlink:href="#a11Db9rk7v" opacity="1" fill-opacity="0" stroke="#000000" stroke-width="1" stroke-opacity="0"></use></g></g><g><use xlink:href="#cpKGM2vYd" opacity="1" fill="#8985a8" fill-opacity="1"></use><g><use xlink:href="#cpKGM2vYd" opacity="1" fill-opacity="0" stroke="#000000" stroke-width="1" stroke-opacity="0"></use></g></g><g><use xlink:href="#b8smrq8oHo" opacity="1" fill="#8985a8" fill-opacity="1"></use><g><use xlink:href="#b8smrq8oHo" opacity="1" fill-opacity="0" stroke="#000000" stroke-width="1" stroke-opacity="0"></use></g></g><g><use xlink:href="#c78yFfhfEV" opacity="1" fill="#2f2e41" fill-opacity="1"></use><g><use xlink:href="#c78yFfhfEV" opacity="1" fill-opacity="0" stroke="#000000" stroke-width="1" stroke-opacity="0"></use></g></g></g></g></svg>