<?xml version="1.0" encoding="iso-8859-1"?>
<!-- Generator: Adobe Illustrator 19.0.0, SVG Export Plug-In . SVG Version: 6.00 Build 0)  -->
<svg version="1.1" id="Capa_1" xmlns="http://www.w3.org/2000/svg" xmlns:xlink="http://www.w3.org/1999/xlink" x="0px" y="0px"
	 viewBox="0 0 512 512" style="enable-background:new 0 0 512 512;" xml:space="preserve">
<g>
	<g>
		<path d="M249.699,0l-83.213,147.331c-5.81,32.875,10.928,67.315,37.687,88.59c42.631,33.995,105.108,22.037,132.936-24.115
			l68.463-121.835L249.699,0z"/>
	</g>
</g>
<g>
	<g>
		<path d="M428.699,362h-29.883l-0.117,0.255V362h-14.736h-7.573l-16.571-41.307l-66.251,17.752l-7.764-28.975l62.765-16.818
			l-13.612-33.933c-42.319,33.82-104.449,36.716-149.474,0.668c-27.451-21.819-45.811-54.097-49.316-87.775
			c-23.809,20.766-44.41,45.159-60.231,72.556l-18.614,32.243L309.49,422h179.209C488.699,388.909,461.79,362,428.699,362z"/>
	</g>
</g>
<g>
	<g>
		<path d="M301.463,452L42.321,302.394l-15.004,25.988c-3.999,6.929-5.054,15-2.974,22.749c2.08,7.764,7.046,14.238,13.96,18.223
			l215.757,124.57C274.539,505.745,297.844,512,321.443,512h137.256c16.538,0,30-13.462,30-30v-30H301.463z"/>
	</g>
</g>
<g>
</g>
<g>
</g>
<g>
</g>
<g>
</g>
<g>
</g>
<g>
</g>
<g>
</g>
<g>
</g>
<g>
</g>
<g>
</g>
<g>
</g>
<g>
</g>
<g>
</g>
<g>
</g>
<g>
</g>
</svg>
