<?xml version="1.0"?>
<svg xmlns="http://www.w3.org/2000/svg" xmlns:xlink="http://www.w3.org/1999/xlink" xmlns:svgjs="http://svgjs.com/svgjs" version="1.1" width="512" height="512" x="0" y="0" viewBox="0 0 64 64" style="enable-background:new 0 0 512 512" xml:space="preserve" class=""><g><g xmlns="http://www.w3.org/2000/svg"><path d="m32 20c-6.617 0-12 5.383-12 12s5.383 12 12 12 12-5.383 12-12-5.383-12-12-12zm-5 20h-2v-9h-2v-2h2v-5h2v5h2v2h-2zm8-1h-2v3h-2v-3h-2v-2h2v-15h2v15h2zm6-6h-2v7h-2v-7h-2v-2h2v-7h2v7h2z" fill="#f7e700" data-original="#000000" style="" class=""/><path d="m47.58 28.408c-.396-1.725-1.078-3.367-2.026-4.881l-.298-.477 1.084-2.167-3.224-3.224-2.167 1.084-.477-.298c-1.514-.948-3.156-1.63-4.881-2.026l-.548-.126-.764-2.293h-4.559l-.765 2.294-.548.126c-1.725.396-3.367 1.078-4.881 2.026l-.477.298-2.167-1.084-3.224 3.224 1.084 2.167-.298.477c-.948 1.514-1.63 3.156-2.026 4.881l-.126.548-2.292.764v4.559l2.294.765.126.548c.396 1.725 1.078 3.367 2.026 4.881l.298.477-1.084 2.167 3.224 3.224 2.167-1.084.477.298c1.514.948 3.156 1.63 4.881 2.026l.548.126.764 2.292h4.559l.765-2.294.548-.126c1.725-.396 3.367-1.078 4.881-2.026l.477-.298 2.167 1.084 3.224-3.224-1.084-2.167.298-.477c.948-1.514 1.63-3.156 2.026-4.881l.126-.548 2.292-.764v-4.559l-2.294-.765zm-15.58 17.592c-7.72 0-14-6.28-14-14s6.28-14 14-14 14 6.28 14 14-6.28 14-14 14z" fill="#f7e700" data-original="#000000" style="" class=""/><path d="m3 17h10v-14h-10zm2-12h6v2h-6zm0 4h6v2h-6zm0 4h6v2h-6z" fill="#f7e700" data-original="#000000" style="" class=""/><path d="m3 61h10v-14h-10zm2-12h6v2h-6zm0 4h6v2h-6zm0 4h6v2h-6z" fill="#f7e700" data-original="#000000" style="" class=""/><path d="m51 3v14h10v-14zm8 12h-6v-2h6zm0-4h-6v-2h6zm0-4h-6v-2h6z" fill="#f7e700" data-original="#000000" style="" class=""/><path d="m51 61h10v-14h-10zm2-12h6v2h-6zm0 4h6v2h-6zm0 4h6v2h-6z" fill="#f7e700" data-original="#000000" style="" class=""/><path d="m58 19h-2v10h-4v2h6z" fill="#f7e700" data-original="#000000" style="" class=""/><path d="m52 35h4v10h2v-12h-6z" fill="#f7e700" data-original="#000000" style="" class=""/><path d="m6 19v12h6v-2h-4v-10z" fill="#f7e700" data-original="#000000" style="" class=""/><path d="m6 45h2v-10h4v-2h-6z" fill="#f7e700" data-original="#000000" style="" class=""/></g></g></svg>
